<svg width="389" height="465" viewBox="0 0 389 465" xmlns="http://www.w3.org/2000/svg"><title>210D3BB9-6B9E-40E9-8FEF-EB30AC190EA8</title><g fill="#00AE8E" fill-rule="evenodd"><path d="M388.066 465.247c0-48.739-38.41-77.268-85.796-77.268H85.798c-47.392 0-85.795 28.53-85.795 77.268h388.063zM194.416 341.301c-.23 0-.446 0-.676-.013-13.89-.312-26.89-5.83-36.612-15.557l-9.696-9.714c-19.042-19.063-38.085-38.133-57.006-57.326-4.947-5.01-9.964-9.91-14.975-14.796-26.163-25.532-53.213-51.944-67.99-91.19C-5.89 117.255-.565 76.145 21.346 45.42 41.823 16.703 74.202.233 110.163.233c39.526 0 66.524 14.58 84.253 33.39C212.14 14.812 239.137.232 278.67.232c35.956 0 68.328 16.463 88.805 45.182 21.917 30.725 27.24 71.841 13.891 107.29-14.784 39.265-41.846 65.67-68.015 91.216-4.999 4.874-10.022 9.773-14.95 14.77-18.57 18.835-37.262 37.552-55.948 56.27l-10.742 10.75c-9.722 9.74-22.72 15.265-36.618 15.577-.23.013-.446.013-.676.013M110.163 57.448c-21.547 0-34.094 11.251-40.826 20.698-11.143 15.63-13.814 36.621-6.98 54.792 10.327 27.428 31.747 48.328 54.424 70.46 5.272 5.147 10.557 10.307 15.759 15.584 18.832 19.108 37.798 38.08 56.744 57.065l5.132 5.127 6.178-6.19c18.602-18.619 37.205-37.252 55.692-56.002 5.196-5.271 10.474-10.424 15.734-15.558 22.695-22.138 44.122-43.052 54.45-70.486 6.833-18.17 4.162-39.169-6.981-54.792-6.732-9.447-19.285-20.698-40.82-20.698-45.977 0-53.863 33.989-55.182 44.406-1.511 14.607-14.07 25.572-29.084 25.572-15.013.006-27.578-11.265-29.089-25.871-1.288-10.118-9.18-44.107-55.15-44.107"/></g></svg>