<?xml version="1.0" encoding="UTF-8"?>
<svg width="389px" height="465px" viewBox="0 0 389 465" version="1.1" xmlns="http://www.w3.org/2000/svg" xmlns:xlink="http://www.w3.org/1999/xlink">
    <!-- Generator: sketchtool 40.1 (33804) - http://www.bohemiancoding.com/sketch -->
    <title>94DE698B-08CD-4E51-B3BF-72A6373C7B70</title>
    <desc>Created with sketchtool.</desc>
    <defs></defs>
    <g id="Page-1" stroke="none" stroke-width="1" fill="none" fill-rule="evenodd">
        <g id="mulheres_gen_1920" transform="translate(-433.000000, -115.000000)" fill="#F382B3">
            <g id="Header" transform="translate(239.000000, 0.000000)">
                <g id="Banner">
                    <g id="Background">
                        <g id="icon-vida" transform="translate(194.000000, 115.000000)">
                            <path d="M388.065962,465.247376 C388.065962,416.508409 349.656166,387.979076 302.27027,387.979076 L85.7983937,387.979076 C38.4061233,387.979076 0.00270163934,416.508409 0.00270163934,465.247376 L388.065962,465.247376 Z" id="Fill-4"></path>
                            <path d="M194.416199,341.301466 C194.186696,341.301466 193.969944,341.301466 193.740441,341.288436 C179.849164,340.975714 166.850396,335.457481 157.128414,325.730535 L147.431933,316.01662 C128.389599,296.953632 109.347265,277.884128 90.426057,258.690839 C85.4790026,253.680778 80.4618226,248.781472 75.4510175,243.895197 C49.2877303,218.36278 22.2383083,191.950833 7.46089603,152.70427 C-5.88850054,117.255972 -0.565317097,76.1461094 21.3457985,45.4212105 C41.8225233,16.7029419 74.2015038,0.232936713 110.163274,0.232936713 C149.688708,0.232936713 176.687129,14.8135821 194.416199,33.6224844 C212.138893,14.8135821 239.137315,0.232936713 278.669124,0.232936713 C314.624519,0.232936713 346.997124,16.6964269 367.473849,45.4146954 C389.39134,76.1395944 394.714523,117.255972 381.365126,152.70427 C366.581339,191.970379 339.519167,218.37581 313.349505,243.921257 C308.35145,248.794502 303.327895,253.693808 298.399965,258.690839 C279.829387,277.525801 261.137681,296.243493 242.452351,314.961185 L231.710358,325.71099 C221.988376,335.450966 208.989609,340.975714 195.091956,341.288436 C194.862454,341.301466 194.645701,341.301466 194.416199,341.301466 M110.163274,57.4479627 C88.6155371,57.4479627 76.0693993,68.6994259 69.3373254,78.1462248 C58.1937031,93.7757906 55.5225487,114.767229 62.3566238,132.937658 C72.6842372,160.36595 94.1044724,181.266178 116.780596,203.397748 C122.052779,208.544624 127.337712,213.704531 132.539769,218.981708 C151.371726,238.090302 170.337559,257.06208 189.284267,276.046888 L194.416199,281.17422 L200.593642,274.984938 C219.196096,256.364972 237.79855,237.731975 256.286253,218.981708 C261.481935,213.711046 266.760493,208.557654 272.019926,203.423808 C294.715175,181.285723 316.141785,160.372465 326.469399,132.937658 C333.303474,114.767229 330.632319,93.7692756 319.488697,78.1462248 C312.756623,68.6994259 300.20411,57.4479627 278.669124,57.4479627 C232.692119,57.4479627 224.806157,91.4368935 223.486518,101.854432 C221.975626,116.461138 209.416738,127.42594 194.403449,127.42594 C179.390159,127.432455 166.824896,116.161446 165.314004,101.554741 C164.02624,91.4368935 156.133903,57.4479627 110.163274,57.4479627" id="Fill-1"></path>
                        </g>
                    </g>
                </g>
            </g>
        </g>
    </g>
</svg>