<svg width="375" height="500" viewBox="0 -3 150 200" xmlns="http://www.w3.org/2000/svg"><title>ícone seguro residencial</title><g fill="#F16657" fill-rule="evenodd"><path d="M125.847 150.792H24.662c-13.239 0-24.007-10.345-24.007-23.063V70.232c0-9.387 5.36-20.665 12.747-26.815L58.437 5.93C63.009 2.123 68.982.026 75.253.026c6.274 0 12.245 2.097 16.82 5.906l45.034 37.485c7.387 6.15 12.747 17.428 12.747 26.815v57.497c0 12.718-10.768 23.063-24.007 23.063zm-98.91-25.25h96.635v-55.31c0-2.094-2.028-6.359-3.678-7.732l-44.64-37.158L30.612 62.5c-1.648 1.373-3.676 5.638-3.676 7.732v55.31z"/><path d="M61.563 131.832h27.38v-43.11h-27.38zM149.13 199.099c0-17.574-14.735-27.861-32.908-27.861h-83.03c-18.18 0-32.913 10.287-32.913 27.86h148.85z"/></g></svg>