<svg width="116" height="135" viewBox="0 0 116 135" xmlns="http://www.w3.org/2000/svg" xmlns:xlink="http://www.w3.org/1999/xlink"><title>Page 1</title><defs><path id="a" d="M23.944.326H.357V23.17h23.587V.326z"/><path d="M.49 1.2c10.202 16.608 28.516 27.683 49.413 27.683a57.657 57.657 0 0 0 35.082-11.835V.722H.49v.477z" id="c"/></defs><g fill="none" fill-rule="evenodd"><path d="M0 76.049c0 32.07 25.955 58.069 57.973 58.069s57.974-25.998 57.974-58.07c0-32.07-25.956-58.068-57.974-58.068S0 43.978 0 76.049" fill="#EDEBEB"/><path d="M27.493 30.54l-1.34-2.87a.013.013 0 0 1 .005-.014l13.698-9.255a3.817 3.817 0 0 1 2.728-.707L58.6 19.7c2.096.262 3.695 2.13 3.467 4.232a3.827 3.827 0 0 1-4.278 3.39l-14.646-1.833a.008.008 0 0 0-.008.002l-9.327 6.81a1.448 1.448 0 0 1-.072.05c-2.177 1.446-5.137.56-6.244-1.81" fill="#DB9B74"/><path d="M57.318 23.768a3.801 3.801 0 0 1-1.716-.409l-13.77-6.938-10.336 3.57-.06.021a3.745 3.745 0 0 1-4.853-2.584l-.913-3.47L40.863 8.65a3.818 3.818 0 0 1 2.966.199l15.109 7.613c1.865.938 2.732 3.196 1.85 5.09a3.825 3.825 0 0 1-3.47 2.216" fill="#DB9B74"/><g transform="translate(38.334 -.316)"><mask id="b" fill="#fff"><use xlink:href="#a"/></mask><path d="M20.155 23.17a3.823 3.823 0 0 1-3.33-1.938l-5.927-10.44-8.209-1.99-.061-.015a2.967 2.967 0 0 1-2.19-3.57L1.595.328l12.71 3.407a3.823 3.823 0 0 1 2.426 1.83l6.686 11.774c1.006 1.772.544 4.074-1.156 5.196a3.814 3.814 0 0 1-2.106.636" fill="#DB9B74" mask="url(#b)"/></g><path d="M76.772 35.254c0-.007 1.708-.343 2.883-1.135 5.749-5.425 17.643-16.787 17.643-16.787L80.406 7.142 69.85 16.104s-14.687-.307-20.835 3.936L66.419 35.85l10.353-.597z" fill="#F8BD94"/><path d="M44.547 52.096l-2.361 1.099-8.98-20.3a3.838 3.838 0 0 1 2.028-5.163l16.273-9.015c1.978-.805 8.67.748 9.441 2.753.76 1.97-.294 4.18-2.246 4.975l-16.866 6.871 5.764 11.91c.01.019.017.037.026.056.76 1.654.47 5.038-1.156 5.852l-1.923.962z" fill="#F8BD94"/><path d="M43.988 52.849c-.547 4.449 2.612 8.5 7.053 9.047 4.442.548 8.486-2.616 9.033-7.065.547-4.449-2.612-8.5-7.054-9.047-4.441-.548-8.485 2.616-9.032 7.065z" stroke="#677883" stroke-width="6"/><path d="M61.408 59.893a1 1 0 0 1-.7 1.223l-2.622.714a.998.998 0 0 1-1.221-.7l-.147-.546a2.364 2.364 0 0 1 1.653-2.893 2.36 2.36 0 0 1 2.888 1.656l.149.546zm-3.45-3.725c-2.207.602-3.521 2.901-2.922 5.111l.253.932a1.79 1.79 0 0 0 2.19 1.256l4.58-1.247a1.793 1.793 0 0 0 1.254-2.194l-.253-.931a4.168 4.168 0 0 0-5.102-2.927z" fill="#236464"/><path d="M74.306 91.654L62.61 94.84a4.299 4.299 0 0 1-5.276-3.025l-4.545-19.975c-1.256-4.627 1.471-9.397 6.09-10.655l1.633-.445c4.619-1.258 9.381 1.474 10.637 6.1l6.177 19.53a4.307 4.307 0 0 1-3.02 5.285" fill="#236464"/><path d="M77.326 86.54L71.15 67.01c-1.204-4.436-5.632-7.128-10.065-6.234 2.357 1.235 4.283 3.57 5.093 6.553l6.914 22.248c.238.877.247 1.754.073 2.558l1.142-.31a4.307 4.307 0 0 0 3.02-5.285" fill="#236464"/><path fill="#379192" d="M72.163 78.706l-2.331-7.371L56.2 75.046l1.716 7.539zM58.075 83.286l1.192 5.241a3.168 3.168 0 0 0 3.888 2.23l8.62-2.347A3.174 3.174 0 0 0 74 84.516l-1.622-5.125-14.304 3.895z"/><path d="M40.14 73.448a3.368 3.368 0 0 1-2.927-3.755 3.365 3.365 0 0 1 3.749-2.933 3.368 3.368 0 0 1 2.927 3.755 3.364 3.364 0 0 1-3.748 2.933m-1.958 8.85l-.644 5.236a.655.655 0 0 0-.313.133l-1.786 1.397a.678.678 0 0 0-.117.951l.697.894-.893.7a.678.678 0 0 0-.117.95l.697.895-.893.699a.678.678 0 0 0-.117.95l.698.895-.893.7a.678.678 0 0 0-.117.95l1.395 1.79a.683.683 0 0 0 .281.209 2.679 2.679 0 0 0 2.346 2.783 2.679 2.679 0 0 0 2.985-2.334l2.106-17.144a9.406 9.406 0 0 0 7.769-8.133c.633-5.16-3.029-9.857-8.18-10.492-5.15-.634-9.84 3.034-10.474 8.193a9.417 9.417 0 0 0 5.57 9.777" fill="#B0C0C6"/><g fill="#B0C0C6"><path d="M43.087 63.834a9.284 9.284 0 0 0-2.53.032c5.037.748 8.588 5.442 7.964 10.596-.52 4.288-3.773 7.558-7.77 8.238l-2.105 17.366a2.711 2.711 0 0 1-1.285 1.997c.31.19.663.32 1.046.367 1.467.184 2.804-.875 2.985-2.364L43.498 82.7c3.996-.68 7.248-3.95 7.769-8.238.633-5.227-3.029-9.986-8.18-10.628M39.183 66.572c-.3-.136-.624-.23-.967-.274-1.843-.229-3.522 1.1-3.749 2.971-.227 1.87 1.085 3.573 2.928 3.803a3.29 3.29 0 0 0 1.778-.273 3.422 3.422 0 0 1-1.96-3.53 3.403 3.403 0 0 1 1.97-2.697"/></g><path d="M46.203 62.778a2.131 2.131 0 0 1 .52-4.232 2.13 2.13 0 0 1 1.853 2.375 2.13 2.13 0 0 1-2.373 1.857m-1.016-6.353l-2.084-.257c-4.595-.567-8.817 2.737-9.383 7.34l-1.635 13.31c-.307 2.503 1.485 4.803 3.983 5.11l9.57 1.18c2.498.307 4.793-1.488 5.101-3.99l1.652-13.451c.556-4.527-2.686-8.685-7.204-9.242" fill="#44B9BB"/><path d="M47.065 56.971c.045.57.051 1.151.019 1.74a2.129 2.129 0 0 1-.48 4.173l-1.8 14.654c-.296 2.405-1.736 4.349-3.56 5.12l4.423.544c2.5.309 4.795-1.487 5.102-3.99l1.652-13.451c.477-3.88-1.839-7.487-5.356-8.79" fill="#44B9BB"/><path d="M64.071 66.45c.417 1.533-.485 3.007-1.966 3.41-1.48.405-2.993-.414-3.41-1.947a2.763 2.763 0 0 1 1.951-3.428 2.765 2.765 0 0 1 3.425 1.964m-1.375.385c-.24-.886-.997-1.343-1.723-1.145-.725.197-1.148.975-.908 1.862.235.867.988 1.303 1.713 1.105.726-.197 1.153-.955.918-1.822M65.222 70.7c-.18-.66-.816-.903-1.472-.724l-2.995.815c-.656.18-1.082.71-.903 1.372l5.37-1.463z" fill="#ED8826"/><path d="M56.442 46.987a8.096 8.096 0 0 0-11.21 2.39c-2.436 3.76-1.366 8.788 2.387 11.228M57.935 59.577a8.127 8.127 0 0 0-.352-11.474" stroke="#677883" stroke-width="6"/><g fill="#379192"><path d="M65.236 72.65l2.312 7.309 4.6-1.253-2.332-7.371M67.784 80.706l1.622 5.124c.4 1.48-.311 2.997-1.625 3.663l3.979-1.083a3.174 3.174 0 0 0 2.225-3.895l-1.62-5.124"/></g><path d="M63.264 76.72l-.061-.228a.882.882 0 0 1 .617-1.082.882.882 0 0 1 1.08.619l.062.228.433-.117-.11-.406a1.332 1.332 0 0 0-1.63-.935 1.333 1.333 0 0 0-.933 1.632l.11.407.432-.118z" fill="#236464"/><path d="M64.808 77.501a.357.357 0 0 1-.078.27l.136.259a.137.137 0 0 1-.095.166l-.284.077a.136.136 0 0 1-.167-.095l-.014-.301a.363.363 0 1 1 .502-.376m.284-1.42l-1.94.529a.848.848 0 0 0-.592 1.037l.3 1.105a.844.844 0 0 0 1.036.593l1.938-.527a.847.847 0 0 0 .593-1.037l-.3-1.106a.846.846 0 0 0-1.035-.594M67.084 85.888a.357.357 0 0 1-.078.27l.136.258a.137.137 0 0 1-.095.167l-.284.077a.136.136 0 0 1-.167-.095l-.014-.302a.363.363 0 1 1 .502-.375m.284-1.42l-1.94.528a.848.848 0 0 0-.592 1.037l.3 1.106a.844.844 0 0 0 1.036.593l1.939-.528a.847.847 0 0 0 .592-1.037l-.3-1.106a.846.846 0 0 0-1.035-.593" fill="#236464"/><path d="M67.718 84.513l-.061-.228a.882.882 0 0 1 .617-1.081.882.882 0 0 1 1.08.618l.062.229.433-.118-.11-.406a1.332 1.332 0 0 0-1.63-.935 1.333 1.333 0 0 0-.933 1.632l.11.408.432-.119zM69.416 84.056l.631-.123.013.037c.049.124-.054.253-.23.287-.173.034-.352-.04-.4-.165l-.014-.036z" fill="#236464"/><path d="M58.572 53.195a4.152 4.152 0 0 1-2.942-1.21 4.027 4.027 0 0 1 .038-5.757L74.49 27.931a4.18 4.18 0 0 1 5.846.036 4.027 4.027 0 0 1-.038 5.757L61.476 52.02s-1.856 1.174-2.904 1.174" fill="#F8BD94"/><path d="M57.755 46.436l-.972.938c-.938.904-.946 2.423-.025 3.405l.008.008.012.013c.945.961 2.46 1.01 3.4.107l.97-.938-3.393-3.533zM43.435 47.965l-.669-1.538-2.996 1.307 1.87 4.224c.056-.02.113-.038.169-.062h.001l.013-.005.02-.01c1.525-.686 2.238-2.43 1.592-3.916" fill="#F3E4DB"/><g><path d="M44.76 128.017l1.923-9.455 13.661-10.319c3.871-2.924 9.624-2.45 12.851 1.058l-24.778 18.716h-3.656z" fill="#E5A57E"/><path d="M58.87 128.194l1.739-9.455 12.359-10.319a8.246 8.246 0 0 1 11.627 1.058l-22.416 18.716h-3.31z" fill="#E5A57E"/><path d="M59.63 108.744c0 4.654-3.555 8.427-7.942 8.427h-6.517c-4.387 0-4.7-3.773-4.7-8.427h19.16z" fill="#F8BD94"/><path d="M30.532 117.129c2.851-5.528 4.357-8.375 9.112-8.375h5.242c4.424 0 5.29 3.697 5.734 8.413h-1.418c0 .78.638 1.425 1.468 1.536l-1.009.637c0 5.212-3.89 9.479-8.644 9.479h-4.439c-4.754 0-9.614 1.058-9.614-4.156l3.568-7.534z" fill="#F8BD94"/><g transform="translate(8.07 105.782)"><mask id="d" fill="#fff"><use xlink:href="#c"/></mask><path d="M21.91 12.82l39.092.135L73.358 2.638a8.247 8.247 0 0 1 11.627 1.058L63.76 21.491s-1.012 1.105-2.698 1.087c-1.042.018-19.58.018-19.58.018L13.918 38.397.49 23.291l21.42-10.47z" fill="#F8BD94" mask="url(#d)"/></g><path d="M45.773 112.92l-.001-.032c.028-2.304 1.834-4.163 4.06-4.163H59.87c2.226 0 4.034 1.859 4.059 4.163h.002l-.001.02v.031h-.001c-.026 2.304-1.833 4.163-4.059 4.163H49.831c-2.225 0-4.031-1.859-4.058-4.163h-.001v-.02" fill="#F8BD94"/><path d="M58.57 115.654h1.6c1.543 0 2.796-1.29 2.815-2.888v-.014-.022c-.02-1.598-1.272-2.888-2.816-2.888h-1.6v5.812z" fill="#F3E4DB"/></g></g></svg>