<svg width="119" height="119" viewBox="563 276 119 119" xmlns="http://www.w3.org/2000/svg" xmlns:xlink="http://www.w3.org/1999/xlink"><defs><path id="a" d="M116.581.931H.752v116.56h115.829z"/><path d="M99.18.434c10.473 10.546 16.95 25.11 16.95 41.198 0 32.187-25.93 58.28-57.914 58.28C26.23 99.913.3 73.82.3 41.633.301 25.544 6.78 10.98 17.251.434H99.18z" id="c"/><path d="M20.915.425L14.936 1.74 2.941 7.71l-.52 1.042c-.957 3.32-1.467 6.132-1.517 9.59l.004.048h7.504l17.315-7.898V.425h-4.812z" id="e"/><path d="M2.849.795l-.427.858C1.464 4.973.954 7.785.904 11.243l.265 3.352 25.759-11.75V.795H2.849z" id="g"/><path d="M.285 4.027l2.558-1.273L11.683.81a74.378 74.378 0 0 1 7.258-.375c9.857 0 13.878 2.32 13.878 2.32l-19.418 8.858H.285V4.027z" id="i"/></defs><g fill="none" fill-rule="evenodd"><g transform="translate(563 276.083)"><mask id="b" fill="#fff"><use xlink:href="#a"/></mask><path d="M.752 59.21c0 32.188 25.929 58.28 57.915 58.28 31.985 0 57.914-26.092 57.914-58.28 0-32.187-25.929-58.28-57.914-58.28C26.68.93.752 27.024.752 59.21" fill="#EFEEEE" mask="url(#b)"/></g><g transform="translate(564.008 294.337)"><mask id="d" fill="#fff"><use xlink:href="#c"/></mask><path fill="#47525A" mask="url(#d)" d="M-7.054 112.568h127.622V88.306H-7.054z"/><path d="M26.972 13.85l-2.459-1.29a3.229 3.229 0 0 0-4.37 1.383l6.99 3.666-.16-3.76z" fill="#C7C7C6" mask="url(#d)"/><path d="M26.673 14.078l-6.084 3.895a3.226 3.226 0 0 0 4.47 1l1.776-1.136-.162-3.76z" fill="#E1E0E0" mask="url(#d)"/><path d="M90.758 90.993h-.337c-3.004 0-5.461-2.473-5.461-5.495V72.65c0-3.022 2.457-5.496 5.46-5.496h.338c3.004 0 5.461 2.474 5.461 5.496v12.847c0 3.022-2.457 5.495-5.46 5.495M26.327 90.993h-.338c-3.004 0-5.46-2.473-5.46-5.495V72.65c0-3.022 2.456-5.496 5.46-5.496h.338c3.004 0 5.461 2.474 5.461 5.496v12.847c0 3.022-2.457 5.495-5.46 5.495" fill="#040304" mask="url(#d)"/><path d="M94.902 76.308h-73.16c-3.51 0-6.38-2.89-6.38-6.42V50.712c0-3.53 2.87-6.42 6.38-6.42h73.16c3.509 0 6.38 2.89 6.38 6.42v19.174c0 3.532-2.871 6.42-6.38 6.42" fill="#54ADAE" mask="url(#d)"/><path d="M89.38 45.447H27.263c-2.828 0-5.142-2.329-5.142-5.175L26.22 7.93c0-2.846 2.314-5.175 5.143-5.175h53.918c2.829 0 5.142 2.329 5.142 5.175l4.099 32.342c0 2.846-2.314 5.175-5.143 5.175" fill="#54ADAE" mask="url(#d)"/><path d="M89.99 35.496H23.757l3.268-24.22c0-2.933 2.315-5.333 5.143-5.333h49.41c2.83 0 5.143 2.4 5.143 5.333l3.269 24.22z" fill="#7FC5C6" mask="url(#d)"/><path d="M94.902 60.111h-73.16c-3.51 0-6.38-2.889-6.38-6.42V43.42c0-3.53 2.87-6.42 6.38-6.42h73.16c3.509 0 6.38 2.89 6.38 6.42v10.27c0 3.531-2.871 6.42-6.38 6.42" fill="#67BCBB" mask="url(#d)"/><path fill="#B7DDE0" mask="url(#d)" d="M40.584 4.404l14.168 29.553h22.861L63.446 4.404z"/><path d="M91.739 57.914H24.904c-2.226 0-4.047-1.834-4.047-4.074V43.273c0-2.24 1.821-4.074 4.047-4.074H91.74c2.226 0 4.048 1.834 4.048 4.074V53.84c0 2.24-1.822 4.074-4.048 4.074" fill="#333" mask="url(#d)"/><path d="M102.8 36.112h-7.184v-4.093c0-1.868 1.52-3.397 3.376-3.397h3.809c1.857 0 3.376 1.529 3.376 3.397v.696c0 1.868-1.52 3.397-3.376 3.397M14.382 36.112h7.184v-4.093c0-1.868-1.52-3.397-3.376-3.397h-3.808c-1.858 0-3.376 1.529-3.376 3.397v.696c0 1.868 1.518 3.397 3.376 3.397" fill="#54ADAE" mask="url(#d)"/><path d="M58.478 64.376c-3.718.032-6.706 3.091-6.675 6.831l13.464-.114c-.032-3.741-3.072-6.748-6.79-6.717" fill="#FEFEFE" mask="url(#d)"/><path d="M12.963 59.2s10.145 17.206 26.765 12.007c14.463-4.988 17.146-13.293 17.146-13.293L12.964 59.2zM104.594 59.2S94.556 76.406 78.11 71.207C63.8 66.22 61.145 57.914 61.145 57.914l43.449 1.286z" fill="#54ADAE" mask="url(#d)"/><path d="M104.594 46.158c0 11.096-8.939 20.091-19.966 20.091-11.027 0-19.967-8.995-19.967-20.091 0-11.097 8.94-20.092 19.967-20.092s19.966 8.995 19.966 20.092" fill="#FEFEFE" mask="url(#d)"/><path d="M93.09 47.403c0 4.703-3.789 8.516-8.463 8.516-4.673 0-8.461-3.813-8.461-8.516 0-4.702 3.788-8.516 8.461-8.516 4.674 0 8.462 3.814 8.462 8.516" fill="#333" mask="url(#d)"/><path d="M91.124 26.971c-10.463-3.504-21.768 2.189-25.25 12.717L103.76 52.38c3.484-10.527-2.173-21.905-12.636-25.41" fill="#43918F" mask="url(#d)"/><path d="M51.433 46.158c0 11.096-8.939 20.091-19.966 20.091-11.027 0-19.967-8.995-19.967-20.091 0-11.097 8.94-20.092 19.967-20.092s19.966 8.995 19.966 20.092" fill="#FEFEFE" mask="url(#d)"/><path d="M40.584 46.684c0 4.702-3.789 8.515-8.463 8.515-4.673 0-8.46-3.813-8.46-8.515 0-4.703 3.787-8.516 8.46-8.516 4.674 0 8.463 3.813 8.463 8.516" fill="#333" mask="url(#d)"/><path d="M25.047 27.295c10.44-3.57 21.78 2.05 25.33 12.557L12.568 52.785c-3.55-10.506 2.037-21.919 12.478-25.49" fill="#43918F" mask="url(#d)"/><path d="M45.655 26.134a.504.504 0 0 1-.183-.973l2.08-.825-1.044-4.986a.503.503 0 0 1 .215-.525l4.612-3.037-4.75-6.935a.505.505 0 0 1 .128-.7.5.5 0 0 1 .697.128l5.04 7.36a.505.505 0 0 1-.138.708l-4.754 3.13 1.062 5.066a.503.503 0 0 1-.306.572l-2.476.981a.487.487 0 0 1-.183.036" fill="#54ADAE" mask="url(#d)"/><path d="M52.648 21.224a.496.496 0 0 1-.345-.14l-3.212-3.078a.507.507 0 0 1-.018-.713.5.5 0 0 1 .708-.017l2.943 2.821 4.556-2.612a.5.5 0 0 1 .748.438v2.183a.503.503 0 0 1-.5.504.503.503 0 0 1-.501-.504V18.79l-4.131 2.369a.496.496 0 0 1-.248.066M45.997 17.05a.475.475 0 0 1-.075-.006l-4.04-.62a.502.502 0 0 1-.42-.573.502.502 0 0 1 .57-.423l3.818.587 3.936-3.295a.498.498 0 0 1 .706.065.507.507 0 0 1-.066.71l-4.108 3.438a.5.5 0 0 1-.32.117M72.921 23.212H66.93a.503.503 0 0 1 0-1.007h5.592l1.238-5.527a.5.5 0 0 1 .576-.385l5.21.932-4.628-5.276a.505.505 0 0 1 .188-.8l11.152-4.525a.501.501 0 0 1 .652.28.506.506 0 0 1-.277.655l-10.496 4.257 5.107 5.824c.142.16.166.394.062.58a.5.5 0 0 1-.524.25l-6.15-1.101-1.222 5.45a.5.5 0 0 1-.488.393" fill="#54ADAE" mask="url(#d)"/><path d="M26.12 8.724l-.52 1.043c-.957 3.319-1.467 6.132-1.517 9.588l.264 3.353L68.091 2.755S62.137-.682 46.955.809l-8.84 1.946-11.995 5.97z" fill="#C7C7C6" mask="url(#d)"/></g><g transform="translate(587.186 295.352)"><mask id="f" fill="#fff"><use xlink:href="#e"/></mask><path fill="#E1E0E0" mask="url(#f)" d="M25.727.425L-4.417 11.99l-1.393 6.4z"/></g><g transform="translate(587.186 302.45)"><mask id="h" fill="#fff"><use xlink:href="#g"/></mask><path fill="#E1E0E0" mask="url(#h)" d="M26.928.795l-40.823 15.662-1.393 6.399z"/></g><g transform="translate(599.28 294.337)"><mask id="j" fill="#fff"><use xlink:href="#i"/></mask><path fill="#E1E0E0" mask="url(#j)" d="M29.38-4.15L.285 11.613 36.112-2.803z"/></g><g fill="#452E88"><path d="M595.81 320.814h-.047c-10.866.026-19.687 8.943-19.662 19.878.024 10.92 8.861 19.787 19.707 19.788h.046c5.264-.012 10.209-2.087 13.923-5.842 3.713-3.754 5.752-8.74 5.74-14.036-.012-5.298-2.073-10.273-5.804-14.011-3.72-3.726-8.656-5.777-13.903-5.777zm-.002 44.032c-13.234 0-24.015-10.82-24.046-24.144-.03-13.342 10.733-24.223 23.992-24.253h.056c6.402 0 12.425 2.501 16.964 7.048 4.552 4.56 7.067 10.63 7.081 17.095.015 6.463-2.472 12.546-7.004 17.126-4.532 4.581-10.564 7.112-16.987 7.128h-.056zM648.66 320.693h-.047c-5.264.012-10.208 2.086-13.922 5.84-3.714 3.756-5.753 8.74-5.74 14.038.012 5.298 2.072 10.273 5.803 14.01 3.732 3.737 8.682 5.798 13.95 5.777 10.866-.025 19.687-8.942 19.663-19.878-.025-10.92-8.862-19.787-19.708-19.787zm-.003 44.031c-6.402 0-12.424-2.502-16.963-7.049-4.553-4.56-7.067-10.631-7.082-17.094-.014-6.464 2.473-12.547 7.004-17.128 4.532-4.58 10.564-7.11 16.988-7.126h.055c13.234 0 24.017 10.819 24.047 24.143.029 13.343-10.733 24.223-23.992 24.254h-.057z"/><path d="M617.082 336.677a2.176 2.176 0 0 1-2.17-2.177 7.25 7.25 0 0 1 2.104-5.146 7.154 7.154 0 0 1 5.104-2.14h.017c1.924 0 3.732.751 5.096 2.117a7.241 7.241 0 0 1 2.127 5.136 2.177 2.177 0 0 1-2.164 2.187h-.005a2.175 2.175 0 0 1-2.17-2.178 2.894 2.894 0 0 0-.849-2.05 2.86 2.86 0 0 0-2.035-.847h-.004a2.853 2.853 0 0 0-2.041.855 2.891 2.891 0 0 0-.84 2.055 2.177 2.177 0 0 1-2.165 2.188h-.005z"/></g></g></svg>