<svg width="119" height="119" viewBox="86 276 119 119" xmlns="http://www.w3.org/2000/svg" xmlns:xlink="http://www.w3.org/1999/xlink"><defs><path id="a" d="M6.325.223H.229v13.069h6.096V.223z"/></defs><g fill="none" fill-rule="evenodd"><path d="M204.973 335.487c0 32.853-26.633 59.486-59.487 59.486-32.853 0-59.486-26.633-59.486-59.486C86 302.633 112.633 276 145.486 276c32.854 0 59.487 26.633 59.487 59.487" fill="#EEEEED"/><path d="M109.197 352.168c.762 11.675 10.685 28.738 38.491 27.4 8.342-.719 14.989-3.113 18.4-5.116 25.351-15.58 19.228-42.975-1.99-63.833-1.006-.99-1.515-.1-1.418.47 1.024 6.007.377 8.742-.717 11.06-.19.403-.807.284-.913-.159-3.53-14.685-11.325-23.85-21.016-30.561-1.128-.72-2.776-.603-2.626 1.734-.71 15.162-5.917 27.035-13.866 36.902-.241.3-.783.092-.819-.295-.278-3.02-.923-5.346-2.213-8.225-.965-2.163-2.397-2.3-2.942-.107-2.998 10.734-9.032 19.43-8.37 30.73z" fill="#F7B400"/><path d="M164.098 310.619c-1.006-.99-1.515-.1-1.418.47 1.024 6.007.377 8.742-.717 11.06-.19.403-.807.285-.913-.159-2.816-11.712-8.346-19.912-15.386-26.157v83.633h3.081c7.845-.821 14.078-3.097 17.343-5.014 25.351-15.58 19.228-42.975-1.99-63.833" fill="#DCA214"/><path d="M138.795 319.66c.33-.253 2.793-1.867 3.277-.255.302 10.323 2.357 18.282 9.429 25.963.725.721 1.312.422 1.387-.572.174-6.573 3.632-10.693 5.683-14.229.657-1.132 1.555-.768 1.78-.27 7.69 17.04 16.607 24.103 7.354 38.425-5.9 7.16-12.038 10.686-20.222 10.882-8.44.202-19.41-5.635-23.293-13.253-7.21-15.616-1.717-34.13 14.605-46.69" fill="#4DA4A4"/><path d="M148.745 379.466h-3.08v-42.6c-2.485-5.217-3.4-10.854-3.593-17.461-.484-1.611-2.947.002-3.277.255-16.323 12.561-21.816 31.075-14.605 46.691 3.883 7.618 14.854 13.455 23.293 13.253 2.128-.051 4.117-.33 6-.836-1.5.286-3.082.525-4.738.698" fill="#58B8BA"/><path d="M150.09 349.185c-.163-.125-1.375-.92-1.613-.125-.15 5.088-1.161 9.011-4.643 12.797-.357.356-.646.209-.683-.281-.086-3.24-1.787-5.271-2.798-7.014-.323-.558-.765-.38-.876-.134-3.786 8.4-8.176 11.882-3.62 18.941 2.905 3.53 5.926 5.268 9.955 5.365 4.155.099 9.557-2.778 11.468-6.533 3.55-7.698.846-16.824-7.19-23.016" fill="#FFF"/><path d="M127.62 293.44s-1.772 6.024-4.261 10.321c-2.158 3.727 5.468 9.22 5.468 9.22s4.035-10.652 3.13-14.178c-.906-3.527-4.337-5.363-4.337-5.363" fill="#F7B400"/><g transform="translate(145.055 277.854)"><mask id="b" fill="#fff"><use xlink:href="#a"/></mask><path d="M3.218.223s1.185 4.029 2.85 6.903C7.51 9.618 2.41 13.292 2.41 13.292S-.287 6.168.318 3.81C.923 1.45 3.218.223 3.218.223" fill="#F7B400" mask="url(#b)"/></g><path d="M161.627 288.632c-.667 2.369-2.31 4.087-3.904 7.939-1.22 2.947.826 5.074 2.483 7.162.617.778 1.05.266 1.34-1.1.353-1.66 1.188-3.849 3.158-5.408 3.006-2.38.018-6.5-2.052-8.764-.89-.974-.853-.44-1.025.171" fill="#58B8BA"/><path d="M157.28 372.2c3.55-7.697.846-16.823-7.19-23.015-.163-.125-1.375-.92-1.613-.125-.12 4.05-.79 7.362-2.813 10.455v19.211l.148.008c4.155.099 9.557-2.778 11.468-6.533" fill="#E6E7E8"/></g></svg>