<svg width="184" height="184" viewBox="144 0 184 184" xmlns="http://www.w3.org/2000/svg" xmlns:xlink="http://www.w3.org/1999/xlink"><defs><path id="a" d="M9.78.345H.354v20.207H9.78V.345z"/></defs><g fill="none" fill-rule="evenodd"><path d="M327.958 91.98c0 50.798-41.18 91.979-91.98 91.979-50.798 0-91.978-41.18-91.978-91.98C144 41.181 185.18 0 235.979 0s91.98 41.18 91.98 91.98" fill="#EEEEED"/><path d="M179.868 117.772c1.178 18.052 16.522 44.436 59.516 42.367 12.898-1.112 23.175-4.814 28.45-7.911 39.198-24.09 29.73-66.448-3.078-98.7-1.555-1.529-2.342-.153-2.192.728 1.583 9.287.583 13.517-1.109 17.1-.294.623-1.247.44-1.411-.245-5.46-22.707-17.512-36.88-32.495-47.255-1.745-1.112-4.293-.932-4.06 2.682-1.1 23.444-9.15 41.802-21.44 57.058-.374.465-1.212.143-1.267-.456-.43-4.669-1.427-8.267-3.422-12.718-1.493-3.344-3.706-3.555-4.549-.165-4.635 16.597-13.966 30.044-12.943 47.515z" fill="#F7B400"/><path d="M264.756 53.528c-1.555-1.53-2.342-.153-2.192.728 1.583 9.287.583 13.517-1.109 17.1-.294.623-1.247.44-1.411-.245-4.355-18.11-12.905-30.788-23.79-40.444V159.98h4.764c12.13-1.27 21.767-4.788 26.816-7.753 39.198-24.09 29.73-66.448-3.078-98.7" fill="#DCA214"/><path d="M225.633 67.508c.51-.392 4.318-2.886 5.066-.395.468 15.962 3.645 28.268 14.58 40.145 1.12 1.115 2.029.652 2.144-.884.27-10.163 5.616-16.534 8.788-22.001 1.015-1.75 2.404-1.189 2.75-.42 11.892 26.35 25.68 37.27 11.373 59.415-9.124 11.072-18.614 16.524-31.268 16.826-13.048.313-30.013-8.713-36.016-20.491-11.15-24.146-2.655-52.773 22.583-72.195" fill="#4DA4A4"/><path d="M241.018 159.981h-4.763V94.113c-3.843-8.067-5.257-16.784-5.556-27-.748-2.49-4.556.003-5.066.395-25.239 19.422-33.733 48.05-22.583 72.194 6.003 11.78 22.968 20.805 36.016 20.492 3.29-.079 6.366-.508 9.277-1.292a87.972 87.972 0 0 1-7.325 1.079" fill="#58B8BA"/><path d="M243.097 113.16c-.251-.193-2.126-1.422-2.495-.194-.23 7.868-1.794 13.934-7.177 19.788-.552.55-1 .322-1.056-.435-.133-5.01-2.765-8.15-4.327-10.845-.5-.863-1.183-.586-1.354-.207-5.854 12.988-12.643 18.371-5.599 29.287 4.492 5.458 9.164 8.145 15.394 8.295 6.425.153 14.776-4.296 17.732-10.102 5.49-11.902 1.307-26.013-11.118-35.586" fill="#FFF"/><path d="M208.354 26.965s-2.74 9.315-6.59 15.96c-3.336 5.763 8.455 14.256 8.455 14.256s6.24-16.47 4.84-21.923c-1.4-5.453-6.705-8.293-6.705-8.293" fill="#F7B400"/><g transform="translate(235.311 2.867)"><mask id="b" fill="#fff"><use xlink:href="#a"/></mask><path d="M4.976.345s1.832 6.23 4.406 10.673c2.231 3.854-5.654 9.534-5.654 9.534S-.444 9.537.491 5.89C1.427 2.244 4.976.345 4.976.345" fill="#F7B400" mask="url(#b)"/></g><path d="M260.936 19.532c-1.031 3.663-3.57 6.32-6.036 12.275-1.886 4.558 1.276 7.846 3.838 11.074.955 1.203 1.625.411 2.074-1.702.545-2.566 1.835-5.95 4.882-8.36 4.648-3.68.027-10.052-3.174-13.552-1.376-1.506-1.318-.68-1.584.265" fill="#58B8BA"/><path d="M254.215 148.747c5.49-11.902 1.307-26.013-11.118-35.586-.251-.194-2.126-1.423-2.495-.195-.183 6.263-1.22 11.384-4.348 16.166v29.705c.077.002.152.01.229.012 6.425.153 14.776-4.296 17.732-10.102" fill="#E6E7E8"/></g></svg>