<svg width="120" height="119" viewBox="796 276 120 119" xmlns="http://www.w3.org/2000/svg" xmlns:xlink="http://www.w3.org/1999/xlink"><defs><path d="M.034 2.38L18.797.02c1.102-.14 2.52.486 3.149 1.39l3.27 4.697c.63.904 1.653 2.35 2.276 3.214.623.864 1.788 1.953 2.59 2.42.11.064.196.13.267.194 2.181-.079 4.118 1.506 4.4 3.679l.23 1.785c.284-.025.568-.05.879-.05 3.323 0 5.067 1.51 6.467 2.725.67.58 1.24 1.064 1.938 1.383.126 1.31.195 2.638.202 3.98-2.188-.428-3.54-1.574-4.66-2.545-1.198-1.038-2.064-1.788-3.947-1.788-.14 0-.266.013-.396.02l.043.329c.15-.011.298-.024.463-.024 1.883 0 2.749.75 3.947 1.788 1.106.96 2.444 2.088 4.588 2.526 0 .063.005.125.005.189 0 24.212-19.912 43.84-44.474 43.84V2.38z" id="a"/></defs><g fill="none" fill-rule="evenodd"><path d="M915.973 335.487c0 32.853-26.633 59.486-59.487 59.486-32.853 0-59.486-26.633-59.486-59.486C797 302.633 823.633 276 856.486 276c32.854 0 59.487 26.633 59.487 59.487" fill="#EEEEED"/><path d="M896.523 332.936c-1.198-1.053-2.063-1.814-3.947-1.814-1.883 0-2.748.76-3.946 1.814-1.4 1.232-3.143 2.765-6.466 2.765-3.323 0-5.065-1.533-6.465-2.765-1.197-1.053-2.062-1.814-3.945-1.814s-2.748.76-3.946 1.814c-1.4 1.232-3.143 2.765-6.466 2.765-3.324 0-5.067-1.533-6.467-2.765-1.197-1.053-2.063-1.814-3.946-1.814s-2.749.76-3.945 1.814c-1.4 1.232-3.144 2.765-6.466 2.765-3.323 0-5.066-1.533-6.467-2.765-1.198-1.053-2.063-1.814-3.946-1.814-1.884 0-2.75.76-3.946 1.814-1.4 1.232-3.143 2.765-6.466 2.765-3.323 0-5.065-1.533-6.466-2.765-.317-.28-.612-.535-.909-.765a45.174 45.174 0 0 0-.15 3.519c0 24.562 19.91 44.474 44.474 44.474 24.563 0 44.474-19.912 44.474-44.474 0-.064-.004-.128-.004-.192-2.144-.444-3.482-1.59-4.589-2.562M863.402 321.073a.332.332 0 0 1-.24-.102l-3.335-3.458a.333.333 0 1 1 .48-.462l3.335 3.458a.333.333 0 0 1-.24.564M868.404 314.156a.332.332 0 0 1-.24-.102l-3.335-3.458a.333.333 0 1 1 .48-.463l3.335 3.459a.333.333 0 0 1-.24.564M877.607 313.106a.332.332 0 0 1-.24-.102l-3.335-3.458a.333.333 0 1 1 .48-.462l3.335 3.458a.333.333 0 0 1-.24.564" fill="#59B8BB"/><path d="M841.602 332.499a.332.332 0 0 1-.24-.102l-3.335-3.459a.333.333 0 1 1 .48-.462l3.334 3.458a.333.333 0 0 1-.24.565" fill="#FEFEFE"/><path d="M846.604 325.582a.332.332 0 0 1-.24-.102l-3.335-3.458a.333.333 0 1 1 .48-.464l3.335 3.46a.333.333 0 0 1-.24.564M828.446 316.96a.667.667 0 0 1-.48-.204l-3.334-3.458a.666.666 0 0 1 .96-.926l3.334 3.46a.666.666 0 0 1-.48 1.128M831.35 308.623a.667.667 0 0 1-.48-.204l-3.335-3.459a.666.666 0 0 1 .96-.925l3.334 3.459a.666.666 0 0 1-.48 1.129M838.637 317.269a.667.667 0 0 1-.48-.204l-3.335-3.458a.666.666 0 0 1 .96-.926l3.335 3.459a.666.666 0 0 1-.48 1.129M839.872 308.252a.667.667 0 0 1-.48-.204l-3.335-3.458a.666.666 0 0 1 .96-.926l3.335 3.46a.666.666 0 0 1-.48 1.128M842.775 299.915a.667.667 0 0 1-.48-.204l-3.335-3.459a.666.666 0 0 1 .96-.925l3.335 3.459a.666.666 0 0 1-.48 1.129M849.074 307.202a.667.667 0 0 1-.48-.204l-3.335-3.458a.666.666 0 0 1 .96-.926l3.335 3.46a.666.666 0 0 1-.48 1.128M854.077 300.285a.667.667 0 0 1-.48-.204l-3.335-3.458a.666.666 0 0 1 .96-.926l3.334 3.46a.666.666 0 0 1-.48 1.128M861.982 307.387a.667.667 0 0 1-.48-.204l-3.335-3.458a.666.666 0 1 1 .96-.925l3.334 3.458a.666.666 0 0 1-.48 1.13M863.279 299.235a.667.667 0 0 1-.48-.204l-3.335-3.458a.666.666 0 0 1 .96-.926l3.334 3.46a.666.666 0 0 1-.48 1.128M857.103 314.119a.667.667 0 0 1-.48-.204l-3.335-3.458a.666.666 0 1 1 .96-.925l3.334 3.458a.666.666 0 0 1-.48 1.129M872.79 304.917a.667.667 0 0 1-.48-.204l-3.335-3.458a.666.666 0 0 1 .96-.926l3.334 3.46a.666.666 0 0 1-.48 1.128M887.859 310.599a.667.667 0 0 1-.48-.204l-3.335-3.458a.666.666 0 0 1 .96-.926l3.334 3.459a.666.666 0 0 1-.48 1.129M883.412 313.934a.667.667 0 0 1-.48-.204l-3.335-3.458a.666.666 0 0 1 .96-.926l3.335 3.459a.666.666 0 0 1-.48 1.129M892.676 320.85a.667.667 0 0 1-.48-.203l-3.335-3.459a.666.666 0 0 1 .96-.925l3.335 3.459a.666.666 0 0 1-.48 1.129M880.695 301.52a.667.667 0 0 1-.48-.204l-3.335-3.458a.666.666 0 0 1 .96-.926l3.334 3.46a.666.666 0 0 1-.48 1.128M835.302 325.544a.667.667 0 0 1-.48-.204l-3.335-3.458a.666.666 0 0 1 .96-.925l3.335 3.459a.666.666 0 0 1-.48 1.128M824.185 324.124a.667.667 0 0 1-.48-.204l-3.334-3.458a.666.666 0 1 1 .96-.925l3.334 3.458a.666.666 0 0 1-.48 1.129M849.507 317.578a.667.667 0 0 1-.48-.204l-3.335-3.459a.666.666 0 0 1 .96-.925l3.334 3.459a.666.666 0 0 1-.48 1.129M855.806 324.532a.332.332 0 0 1-.24-.102l-3.335-3.458a.333.333 0 1 1 .48-.464l3.334 3.46a.333.333 0 0 1-.24.564" fill="#59B8BB"/><path d="M887.012 329.464l-59.8 7.634a4.643 4.643 0 0 0-4.006 5.179l.567 4.435a4.643 4.643 0 0 0 5.178 4.006l59.8-7.634a4.643 4.643 0 0 0 4.005-5.179l-.566-4.435a4.642 4.642 0 0 0-5.178-4.006" fill="#633B8F"/><path d="M888.196 335.11c-.945-7.4-7.743-12.627-15.185-11.677l-37.893 4.837c-1.208.155-2.36.462-3.436.902-5.552 2.263-9.598 7.832-8.328 14.215l64.842-8.277z" fill="#633B8F"/><path d="M878.335 310.813c-.63-.916-2.047-1.552-3.15-1.41l-25.616 3.27c-1.103.14-2.637.91-3.41 1.71l-13.86 14.378c-.773.8-.503 1.328.598 1.172l53.03-7.494c1.101-.155 1.346-.67.544-1.145-.802-.474-1.967-1.58-2.59-2.456a295.876 295.876 0 0 1-2.277-3.26l-3.27-4.765z" fill="#633B8F"/><path d="M888.928 341.713l-42.451 5.42a4.292 4.292 0 0 1-4.788-3.704l-1.493-11.704a4.292 4.292 0 0 1 3.702-4.787l42.452-5.419a4.292 4.292 0 0 1 4.787 3.703l1.495 11.704a4.292 4.292 0 0 1-3.704 4.787" fill="#633B8F"/><path d="M878.796 322.43c-.616-4.83-2.612-10.639-7.441-10.022l-20.502 2.617c-4.827.617-9.604 8.057-13.447 12.688l41.39-5.283z" fill="#F6B400"/><path d="M829.402 336.283c-.861 1.22-2.125 1.81-2.822 1.318-.697-.492-.564-1.88.298-3.1.86-1.22 2.125-1.811 2.822-1.319.697.492.564 1.88-.298 3.1" fill="#FEFEFE"/><path d="M838.547 336.136l53.06-6.773-.521-4.074c-.277-2.17-2.157-3.759-4.295-3.735l-40.031 5.11c-5.12.654-8.797 4.894-8.213 9.472" fill="#3F1480"/><path d="M861.852 326.993c.261.202.445.504.49.858l-5.79.739a1.29 1.29 0 0 1 1.117-1.444l3.23-.412c.353-.045.692.057.953.259" fill="#633B8F"/><path d="M831.339 343.134c-.008 0-.015 0-.023.002l-6.914.882c-1.167.15-2 1.226-1.851 2.393l.21 1.652c.038.296.137.57.28.813a3.71 3.71 0 0 0 3.395 2.151l5.075-.647c4.418-.564 7.59-4.223 7.087-8.173l-7.259.927z" fill="#3F1480"/><path d="M844.424 346.076a6.984 6.984 0 1 1-13.856 1.768 6.984 6.984 0 0 1 13.856-1.768" fill="#F6B400"/><path d="M840.95 346.52a3.482 3.482 0 1 1-6.907.88 3.482 3.482 0 0 1 6.907-.88" fill="#FEFEFE"/><path d="M892.487 335.327l-8.173 1.043a8.424 8.424 0 0 1 1.913 4.37 8.454 8.454 0 0 1-.083 2.665l6.135-.783a3.71 3.71 0 0 0 2.746-2.936c.078-.27.104-.56.066-.857l-.21-1.65a2.146 2.146 0 0 0-2.394-1.852" fill="#3F1480"/><path d="M887.937 340.521a6.984 6.984 0 1 1-13.856 1.769 6.984 6.984 0 0 1 13.856-1.769" fill="#F6B400"/><path d="M827.549 340.268a1.211 1.211 0 1 1-2.402.307 1.211 1.211 0 0 1 2.402-.307" fill="#3F1480"/><path d="M884.675 340.961a3.482 3.482 0 1 1-6.907.882 3.482 3.482 0 0 1 6.907-.882M900.987 332.157c-.697-.324-1.268-.816-1.937-1.404-1.4-1.231-3.144-2.765-6.468-2.765-3.322 0-5.065 1.534-6.466 2.766-1.197 1.053-2.062 1.814-3.945 1.814-1.884 0-2.748-.761-3.945-1.814-1.4-1.232-3.143-2.766-6.465-2.766-3.324 0-5.067 1.534-6.467 2.766-1.197 1.053-2.063 1.814-3.946 1.814-1.884 0-2.748-.761-3.946-1.815-1.4-1.231-3.143-2.765-6.466-2.765-3.323 0-5.067 1.534-6.467 2.766-1.196 1.053-2.062 1.814-3.944 1.814-1.884 0-2.75-.761-3.947-1.814-1.4-1.232-3.144-2.766-6.467-2.766-3.323 0-5.066 1.534-6.466 2.766-1.197 1.053-2.063 1.814-3.946 1.814-1.882 0-2.748-.761-3.944-1.814-.79-.695-1.699-1.476-2.926-2.033a44.625 44.625 0 0 0-.52 4.114c.301.232.6.493.925.777 1.4 1.233 3.142 2.766 6.465 2.766s5.066-1.533 6.467-2.766c1.196-1.052 2.062-1.813 3.945-1.813 1.884 0 2.749.76 3.947 1.813 1.4 1.233 3.144 2.766 6.467 2.766 3.321 0 5.064-1.533 6.465-2.766 1.197-1.052 2.062-1.813 3.946-1.813 1.883 0 2.748.76 3.945 1.813 1.4 1.233 3.144 2.766 6.467 2.766 3.323 0 5.066-1.533 6.467-2.765 1.197-1.053 2.062-1.814 3.946-1.814 1.882 0 2.747.76 3.944 1.813 1.4 1.233 3.142 2.766 6.466 2.766 3.323 0 5.065-1.533 6.466-2.766 1.196-1.052 2.062-1.813 3.945-1.813 1.884 0 2.75.76 3.948 1.813 1.12.985 2.472 2.148 4.66 2.581a45.124 45.124 0 0 0-.203-4.036" fill="#FEFEFE"/><path fill="#633B8F" d="M863.627 324.595l-2.746.27-1.286-13.056 2.746-.271z"/><path d="M892.583 331.462c-1.883 0-2.749.76-3.946 1.814-1.4 1.232-3.144 2.765-6.467 2.765-3.323 0-5.065-1.533-6.465-2.765-1.197-1.053-2.062-1.814-3.944-1.814-1.884 0-2.749.76-3.946 1.814-1.401 1.232-3.144 2.765-6.467 2.765-3.323 0-5.066-1.533-6.467-2.765-1.197-1.053-2.062-1.814-3.946-1.814-1.883 0-2.748.76-3.945 1.814-1.4 1.232-3.143 2.765-6.466 2.765-3.323 0-5.066-1.533-6.466-2.765-1.198-1.053-2.063-1.814-3.947-1.814-1.883 0-2.749.76-3.946 1.814-1.4 1.232-3.143 2.765-6.466 2.765-3.323 0-5.065-1.533-6.465-2.765-.318-.28-.613-.535-.91-.765a45.174 45.174 0 0 0-.15 3.519c0 24.562 19.911 44.474 44.474 44.474 24.563 0 44.475-19.912 44.475-44.474 0-.064-.005-.128-.005-.192-2.144-.444-3.482-1.59-4.589-2.562-1.198-1.053-2.063-1.814-3.946-1.814z" fill="#59B8BB" style="mix-blend-mode:color"/><use fill="#D8D8D8" style="mix-blend-mode:multiply" opacity=".3" xlink:href="#a" transform="translate(856.54 310.728)"/></g></svg>