<?xml version="1.0" encoding="UTF-8"?>
<svg width="181px" height="192px" viewBox="0 0 181 192" version="1.1" xmlns="http://www.w3.org/2000/svg" xmlns:xlink="http://www.w3.org/1999/xlink">
    <!-- Generator: sketchtool 40.1 (33804) - http://www.bohemiancoding.com/sketch -->
    <title>F57D78B0-5796-4650-83B2-44C5520A7DFA</title>
    <desc>Created with sketchtool.</desc>
    <defs>
        <path d="M0.530868307,86.6200121 C0.530868307,134.068137 38.9949315,172.5322 86.443056,172.5322 L86.443056,172.5322 C133.89118,172.5322 172.355244,134.068137 172.355244,86.6200121 L172.355244,86.6200121 C172.355244,39.1718876 133.89118,0.707824409 86.443056,0.707824409 L86.443056,0.707824409 C38.9949315,0.707824409 0.530868307,39.1718876 0.530868307,86.6200121 L0.530868307,86.6200121 Z" id="path-1"></path>
        <path d="M0.451238061,17.341698 L9.11323927,1.59260492 C9.62110328,0.64058109 10.6005553,0.0318520984 11.6791028,0 L24.242986,0 L24.242986,17.341698 L0.451238061,17.341698 L0.451238061,17.341698 Z" id="path-3"></path>
        <path d="M0.00875932706,0.224135372 C0.338437259,0.0886395851 0.694337555,0.0108501773 1.06173661,0 L19.7306054,0 C20.1514168,0.00283114683 20.5663883,0.0562739515 20.9674401,0.156821994 L20.9674401,17.5186541 L0.00875932707,17.5186541 L0.00875932707,0.224135372 L0.00875932706,0.224135372 Z" id="path-5"></path>
        <path d="M0.351346341,17.5186541 L23.4193438,17.5186541 L23.4193438,6.20005303 L19.1112591,1.68108297 C18.1309222,0.617576797 16.753319,0.00973258563 15.3067029,0 L0.351346341,0 L0.351346341,17.5186541 L0.351346341,17.5186541 Z" id="path-7"></path>
        <path d="M0.320389465,16.5453956 L7.34367825,3.9815123 C7.53832996,3.64441093 7.64361884,3.26484009 7.65158186,2.87642144 C7.67635572,1.60587663 6.66770594,0.555642161 5.39716112,0.530868307 L0.265434153,0.530868307 L0.265434153,16.5453956 L0.320389465,16.5453956 L0.320389465,16.5453956 Z" id="path-9"></path>
        <path d="M0.265434153,16.6437045 L7.34367825,3.9815123 C7.53832996,3.64441093 7.64361884,3.26484009 7.65158186,2.87642144 C7.67635572,1.60587663 6.66770594,0.555642161 5.39716112,0.530868307 L0.265434153,0.530868307 L0.265434153,16.6437045 L0.265434153,16.6437045 Z" id="path-11"></path>
        <path d="M0.561216279,11.4282393 L4.51238061,4.42390256 C5.95457284,2.03322562 8.53282325,0.559181283 11.3251905,0.530868307 L30.3473522,0.530868307 L30.3473522,11.8964904 L26.8088495,18.2264785 L0.561216279,18.2264785 L0.561216279,11.4282393 L0.561216279,11.4282393 Z" id="path-13"></path>
    </defs>
    <g id="AUTO-LP-Campanha01" stroke="none" stroke-width="1" fill="none" fill-rule="evenodd">
        <g id="AUTO_960x_LP_Auto3_assist24h" transform="translate(-729.000000, -1998.000000)">
            <g id="Module_about" transform="translate(0.000000, 1673.000000)">
                <g id="Item" transform="translate(669.000000, 325.000000)">
                    <g id="icon-direto-com-vc" transform="translate(60.000000, 0.000000)">
                        <path d="M92.6365196,19.6421274 C140.084644,19.6421274 178.548707,58.1061905 178.548707,105.554315 C178.548707,153.00244 140.084644,191.466503 92.6365196,191.466503 C45.1883951,191.466503 6.72433189,153.00244 6.72433189,105.554315 C6.72433189,58.1061905 45.1883951,19.6421274 92.6365196,19.6421274" id="Fill-1" fill="#704693"></path>
                        <g id="Group-50" transform="translate(6.193464, 18.934303)">
                            <path d="M131.389906,96.794988 L117.233418,96.794988 C115.286901,96.794988 114.490598,95.3793392 115.463857,93.6982562 L119.002979,87.5932707 L122.542101,81.4882851 L126.081223,75.3832996 C127.054481,73.7022166 128.647086,73.7022166 129.620345,75.3832996 L133.159467,81.4882851 L136.698589,87.5932707 L140.237711,93.6982562 C141.21097,95.3793392 140.414667,96.794988 138.46815,96.794988 L131.478384,96.794988 L131.389906,96.794988 L131.389906,96.794988 Z" id="Fill-3" fill="#A892C1"></path>
                            <mask id="mask-2" fill="white">
                                <use xlink:href="#path-1"></use>
                            </mask>
                            <g id="Clip-6"></g>
                            <polygon id="Fill-5" fill="#A892C1" mask="url(#mask-2)" points="112.278647 110.703738 163.153526 110.703738 163.153526 95.5562953 112.278647 95.5562953"></polygon>
                            <polygon id="Fill-7" fill="#A892C1" mask="url(#mask-2)" points="141.564882 110.509086 151.65138 110.509086 151.65138 77.5067728 141.564882 77.5067728"></polygon>
                            <path d="M99.2723734,79.0108997 L99.2723734,74.0561288 L91.9286952,74.0561288 L91.9286952,79.0108997 L88.9204414,79.0108997 L88.9204414,110.862998 L100.688022,110.862998 L100.688022,79.0108997 L99.2723734,79.0108997 Z M161.737878,110.747977 L173.682414,110.747977 L173.682414,79.8956802 L161.737878,79.8956802 L161.737878,110.747977 Z" id="Fill-8" fill="#472F92" mask="url(#mask-2)"></path>
                            <path d="M160.764619,65.2083237 L160.764619,62.4655041 L153.863331,62.4655041 L153.863331,65.2083237 L149.262472,65.2083237 L149.262472,110.509086 L165.277,110.509086 L165.277,65.2083237 L160.764619,65.2083237 Z M98.0336807,110.712585 L121.126452,110.712585 L121.126452,69.8976604 L98.0336807,69.8976604 L98.0336807,110.712585 Z M92.7249976,98.3168105 L95.4678172,98.3168105 L95.4678172,94.0521684 L92.7249976,94.0521684 L92.7249976,98.3168105 Z M92.7249976,91.5924786 L95.4678172,91.5924786 L95.4678172,87.3278365 L92.7249976,87.3278365 L92.7249976,91.5924786 Z M92.7249976,84.5142345 L95.4678172,84.5142345 L95.4678172,80.2495924 L92.7249976,80.2495924 L92.7249976,84.5142345 Z" id="Fill-9" fill="#8566A5" mask="url(#mask-2)"></path>
                            <path d="M102.015193,106.4214 L116.348637,106.4214 L116.348637,104.669535 L102.015193,104.669535 L102.015193,106.4214 Z M102.015193,102.528366 L116.348637,102.528366 L116.348637,100.7765 L102.015193,100.7765 L102.015193,102.528366 Z M102.015193,98.5468534 L116.348637,98.5468534 L116.348637,96.794988 L102.015193,96.794988 L102.015193,98.5468534 Z M102.015193,94.5653411 L116.348637,94.5653411 L116.348637,92.8134757 L102.015193,92.8134757 L102.015193,94.5653411 Z M102.015193,90.6723068 L116.348637,90.6723068 L116.348637,88.9204414 L102.015193,88.9204414 L102.015193,90.6723068 Z M102.015193,86.6907945 L116.348637,86.6907945 L116.348637,84.9389291 L102.015193,84.9389291 L102.015193,86.6907945 Z M102.015193,82.7092822 L116.348637,82.7092822 L116.348637,80.9574168 L102.015193,80.9574168 L102.015193,82.7092822 Z M102.015193,78.816248 L116.348637,78.816248 L116.348637,77.0643826 L102.015193,77.0643826 L102.015193,78.816248 Z M102.015193,74.8347357 L116.348637,74.8347357 L116.348637,73.0828703 L102.015193,73.0828703 L102.015193,74.8347357 Z" id="Fill-10" fill="#472F92" mask="url(#mask-2)"></path>
                            <path d="M151.385946,90.344938 L154.217243,90.344938 L154.217243,87.5932707 L151.385946,87.5932707 L151.385946,90.344938 Z M159.968317,85.6556013 L162.799614,85.6556013 L162.799614,82.9039339 L159.968317,82.9039339 L159.968317,85.6556013 Z M155.72137,85.6556013 L158.552668,85.6556013 L158.552668,82.9039339 L155.72137,82.9039339 L155.72137,85.6556013 Z M151.385946,85.6556013 L154.217243,85.6556013 L154.217243,82.9039339 L151.385946,82.9039339 L151.385946,85.6556013 Z M159.968317,80.6123524 L162.799614,80.6123524 L162.799614,77.860685 L159.968317,77.860685 L159.968317,80.6123524 Z M155.72137,80.6123524 L158.552668,80.6123524 L158.552668,77.860685 L155.72137,77.860685 L155.72137,80.6123524 Z M151.385946,80.6123524 L154.217243,80.6123524 L154.217243,77.860685 L151.385946,77.860685 L151.385946,80.6123524 Z M159.968317,75.6575815 L162.799614,75.6575815 L162.799614,72.9059142 L159.968317,72.9059142 L159.968317,75.6575815 Z M155.72137,75.6575815 L158.552668,75.6575815 L158.552668,72.9059142 L155.72137,72.9059142 L155.72137,75.6575815 Z M151.385946,75.6575815 L154.217243,75.6575815 L154.217243,72.9059142 L151.385946,72.9059142 L151.385946,75.6575815 Z M159.968317,70.4373765 L162.799614,70.4373765 L162.799614,67.6857091 L159.968317,67.6857091 L159.968317,70.4373765 Z M155.72137,70.4373765 L158.552668,70.4373765 L158.552668,67.6857091 L155.72137,67.6857091 L155.72137,70.4373765 Z M151.385946,70.4373765 L154.217243,70.4373765 L154.217243,67.6857091 L151.385946,67.6857091 L151.385946,70.4373765 Z" id="Fill-11" fill="#704693" mask="url(#mask-2)"></path>
                            <polygon id="Fill-12" fill="#55ABDD" mask="url(#mask-2)" points="155.72137 90.344938 158.552668 90.344938 158.552668 87.5932707 155.72137 87.5932707"></polygon>
                            <path d="M126.169701,110.862998 C124.84253,110.862998 124.223184,108.651047 124.84253,107.500832 L136.433155,82.0191534 C137.052501,80.8689388 138.202716,80.8689388 138.822062,82.0191534 C139.441409,83.1693681 152.005292,109.358871 152.624638,110.509086 L126.169701,110.862998 Z" id="Fill-13" fill="#472F92" mask="url(#mask-2)"></path>
                            <polygon id="Fill-14" fill="#55ABDD" mask="url(#mask-2)" points="159.968317 90.344938 162.799614 90.344938 162.799614 87.5932707 159.968317 87.5932707"></polygon>
                            <path d="M149.262472,90.9554366 C153.171433,90.9554366 156.340716,94.1247204 156.340716,98.0336807 C156.340716,101.942641 153.171433,105.111925 149.262472,105.111925 C145.353512,105.111925 142.184228,101.942641 142.184228,98.0336807 C142.184228,94.1247204 145.353512,90.9554366 149.262472,90.9554366" id="Fill-15" fill="#623F99" mask="url(#mask-2)"></path>
                            <path d="M115.463857,100.599544 C117.906736,100.599544 119.887759,102.580568 119.887759,105.023447 C119.887759,107.466326 117.906736,109.447349 115.463857,109.447349 C113.020978,109.447349 111.039954,107.466326 111.039954,105.023447 C111.039954,102.580568 113.020978,100.599544 115.463857,100.599544" id="Fill-16" fill="#623F99" mask="url(#mask-2)"></path>
                            <path d="M163.065048,83.1693681 C168.44009,83.1693681 172.797634,87.5269121 172.797634,92.9019537 C172.797634,98.2769953 168.44009,102.634539 163.065048,102.634539 C157.690007,102.634539 153.332463,98.2769953 153.332463,92.9019537 C153.332463,87.5269121 157.690007,83.1693681 163.065048,83.1693681" id="Fill-17" fill="#623F99" mask="url(#mask-2)"></path>
                            <path d="M93.1673879,103.342364 C95.8553511,103.342364 98.0336807,105.520693 98.0336807,108.208657 C98.0336807,110.89662 95.8553511,113.074949 93.1673879,113.074949 C90.4794247,113.074949 88.3010951,110.89662 88.3010951,108.208657 C88.3010951,105.520693 90.4794247,103.342364 93.1673879,103.342364" id="Fill-18" fill="#8566A5" mask="url(#mask-2)"></path>
                            <path d="M110.686042,106.350617 C112.640522,106.350617 114.225164,107.935259 114.225164,109.88974 C114.225164,111.84422 112.640522,113.428862 110.686042,113.428862 C108.731562,113.428862 107.14692,111.84422 107.14692,109.88974 C107.14692,107.935259 108.731562,106.350617 110.686042,106.350617" id="Fill-19" fill="#8566A5" mask="url(#mask-2)"></path>
                            <path d="M123.819635,106.192065 C125.522838,104.440199 128.324053,104.401269 130.075034,106.104472 C131.826899,107.807674 131.865829,110.608889 130.162627,112.360755 C128.459424,114.111735 125.658209,114.15155 123.907229,112.447463 C122.155363,110.744261 122.116433,107.94393 123.819635,106.192065" id="Fill-20" fill="#623F99" mask="url(#mask-2)"></path>
                            <path d="M117.311632,107.610545 C118.674194,106.209053 120.915343,106.178085 122.315951,107.540647 C123.717443,108.903209 123.748411,111.144358 122.385849,112.544966 C121.023287,113.946458 118.783022,113.977426 117.38153,112.614864 C115.980038,111.252302 115.94907,109.012037 117.311632,107.610545" id="Fill-21" fill="#8566A5" mask="url(#mask-2)"></path>
                            <path d="M102.280627,99.6262856 C105.945388,99.6262856 108.916481,102.597379 108.916481,106.262139 C108.916481,109.9269 105.945388,112.897993 102.280627,112.897993 C98.6158663,112.897993 95.6447733,109.9269 95.6447733,106.262139 C95.6447733,102.597379 98.6158663,99.6262856 102.280627,99.6262856" id="Fill-22" fill="#623F99" mask="url(#mask-2)"></path>
                            <polygon id="Fill-23" fill="#704693" mask="url(#mask-2)" points="137.58337 111.022259 174.567195 111.022259 174.567195 100.864978 137.58337 100.864978"></polygon>
                            <polygon id="Fill-24" fill="#472F92" mask="url(#mask-2)" points="137.052501 100.847283 175.098063 100.847283 175.098063 100.068676 137.052501 100.068676"></polygon>
                            <polygon id="Fill-25" fill="#A892C1" mask="url(#mask-2)" points="137.494892 110.986867 153.774853 110.986867 153.774853 96.6180319 137.494892 96.6180319"></polygon>
                            <polygon id="Fill-26" fill="#321D68" mask="url(#mask-2)" points="137.140979 97.2904651 154.040287 97.2904651 154.040287 96.6180319 137.140979 96.6180319"></polygon>
                            <path d="M167.046561,108.376765 L168.993078,108.376765 L168.993078,106.085183 L167.046561,106.085183 L167.046561,108.376765 Z M171.028073,108.376765 L172.97459,108.376765 L172.97459,106.085183 L171.028073,106.085183 L171.028073,108.376765 Z M158.995058,108.376765 L160.941575,108.376765 L160.941575,106.085183 L158.995058,106.085183 L158.995058,108.376765 Z M155.013546,106.085183 L156.960063,106.085183 L156.960063,108.376765 L155.013546,108.376765 L155.013546,106.085183 Z M162.53418,110.97802 L165.453956,110.97802 L165.453956,106.262139 L162.53418,106.262139 L162.53418,110.97802 Z M162.97657,104.306775 L164.923087,104.306775 L164.923087,102.015193 L162.97657,102.015193 L162.97657,104.306775 Z M167.046561,104.306775 L168.993078,104.306775 L168.993078,102.015193 L167.046561,102.015193 L167.046561,104.306775 Z M171.028073,104.306775 L172.97459,104.306775 L172.97459,102.015193 L171.028073,102.015193 L171.028073,104.306775 Z M158.995058,104.306775 L160.941575,104.306775 L160.941575,102.015193 L158.995058,102.015193 L158.995058,104.306775 Z M155.013546,102.015193 L156.960063,102.015193 L156.960063,104.306775 L155.013546,104.306775 L155.013546,102.015193 Z M138.645106,106.810703 L152.624638,106.810703 L152.624638,104.934969 L138.645106,104.934969 L138.645106,106.810703 Z M138.645106,103.271581 L152.624638,103.271581 L152.624638,101.395847 L138.645106,101.395847 L138.645106,103.271581 Z M138.645106,100.17485 L152.624638,100.17485 L152.624638,98.2991148 L138.645106,98.2991148 L138.645106,100.17485 Z" id="Fill-27" fill="#472F92" mask="url(#mask-2)"></path>
                            <path d="M52.1135721,90.6900024 L32.6484009,90.6900024 C29.9940593,90.6900024 28.8438447,88.8319634 30.1710154,86.443056 L35.0373083,78.0376411 L39.9036011,69.6322263 L44.7698939,61.2268114 C46.0970647,58.9263821 48.3090159,58.9263821 49.6361867,61.2268114 L54.5024795,69.6322263 L59.3687723,78.0376411 L64.2350651,86.443056 C65.5622359,88.7434853 64.5004993,90.6900024 61.7576797,90.6900024 L52.1135721,90.6900024 Z" id="Fill-28" fill="#A892C1" mask="url(#mask-2)"></path>
                            <polygon id="Fill-29" fill="#A892C1" mask="url(#mask-2)" points="25.8355909 109.836653 95.8217294 109.836653 95.8217294 89.0089195 25.8355909 89.0089195"></polygon>
                            <polygon id="Fill-30" fill="#A892C1" mask="url(#mask-2)" points="66.0931042 109.615458 79.8956802 109.615458 79.8956802 64.2350651 66.0931042 64.2350651"></polygon>
                            <path d="M7.9630246,66.2700603 L7.9630246,59.4572504 L-2.12347323,59.4572504 L-2.12347323,66.2700603 L-6.28194163,66.2700603 L-6.28194163,110.066696 L9.90954173,110.066696 L9.90954173,66.2700603 L7.9630246,66.2700603 L7.9630246,66.2700603 Z M93.8752123,109.925131 L110.33213,109.925131 L110.33213,67.508753 L93.8752123,67.508753 L93.8752123,109.925131 Z" id="Fill-31" fill="#472F92" mask="url(#mask-2)"></path>
                            <path d="M92.4595635,47.3357574 L92.4595635,43.5312012 L83.08089,43.5312012 L83.08089,47.3357574 L76.6219923,47.3357574 L76.6219923,109.624305 L98.653027,109.624305 L98.653027,47.3357574 L92.4595635,47.3357574 L92.4595635,47.3357574 Z M6.19346358,109.916283 L37.9570839,109.916283 L37.9570839,53.7946551 L6.19346358,53.7946551 L6.19346358,109.916283 Z M-0.973258563,92.751541 L2.74281959,92.751541 L2.74281959,86.8854462 L-0.973258563,86.8854462 L-0.973258563,92.751541 Z M-0.973258563,83.5498237 L2.74281959,83.5498237 L2.74281959,77.6837289 L-0.973258563,77.6837289 L-0.973258563,83.5498237 Z M-0.973258563,73.9057161 L2.74281959,73.9057161 L2.74281959,68.0396213 L-0.973258563,68.0396213 L-0.973258563,73.9057161 Z" id="Fill-32" fill="#8566A5" mask="url(#mask-2)"></path>
                            <path d="M79.630246,81.904132 L83.6117583,81.904132 L83.6117583,78.1261192 L79.630246,78.1261192 L79.630246,81.904132 Z M91.4863049,75.454082 L95.4678172,75.454082 L95.4678172,71.6672214 L91.4863049,71.6672214 L91.4863049,75.454082 Z M85.5582755,75.454082 L89.5397878,75.454082 L89.5397878,71.6672214 L85.5582755,71.6672214 L85.5582755,75.454082 Z M79.630246,75.454082 L83.6117583,75.454082 L83.6117583,71.6672214 L79.630246,71.6672214 L79.630246,75.454082 Z M91.4863049,68.4554682 L95.4678172,68.4554682 L95.4678172,64.6774554 L91.4863049,64.6774554 L91.4863049,68.4554682 Z M85.5582755,68.4554682 L89.5397878,68.4554682 L89.5397878,64.6774554 L85.5582755,64.6774554 L85.5582755,68.4554682 Z M79.630246,68.4554682 L83.6117583,68.4554682 L83.6117583,64.6774554 L79.630246,64.6774554 L79.630246,68.4554682 Z M91.4863049,61.7311363 L95.4678172,61.7311363 L95.4678172,57.9531235 L91.4863049,57.9531235 L91.4863049,61.7311363 Z M85.5582755,61.7311363 L89.5397878,61.7311363 L89.5397878,57.9531235 L85.5582755,57.9531235 L85.5582755,61.7311363 Z M79.630246,61.7311363 L83.6117583,61.7311363 L83.6117583,57.9531235 L79.630246,57.9531235 L79.630246,61.7311363 Z M91.4863049,54.5644142 L95.4678172,54.5644142 L95.4678172,50.7864014 L91.4863049,50.7864014 L91.4863049,54.5644142 Z M85.5582755,54.5644142 L89.5397878,54.5644142 L89.5397878,50.7864014 L85.5582755,50.7864014 L85.5582755,54.5644142 Z M79.630246,54.5644142 L83.6117583,54.5644142 L83.6117583,50.7864014 L79.630246,50.7864014 L79.630246,54.5644142 Z M11.6791028,103.988254 L31.4097082,103.988254 L31.4097082,101.572803 L11.6791028,101.572803 L11.6791028,103.988254 Z M11.6791028,98.5910924 L31.4097082,98.5910924 L31.4097082,96.1756416 L11.6791028,96.1756416 L11.6791028,98.5910924 Z M11.6791028,93.1939313 L31.4097082,93.1939313 L31.4097082,90.7784805 L11.6791028,90.7784805 L11.6791028,93.1939313 Z M11.6791028,87.7082921 L31.4097082,87.7082921 L31.4097082,85.2928413 L11.6791028,85.2928413 L11.6791028,87.7082921 Z M11.6791028,82.311131 L31.4097082,82.311131 L31.4097082,79.8956802 L11.6791028,79.8956802 L11.6791028,82.311131 Z M11.6791028,76.8254918 L31.4097082,76.8254918 L31.4097082,74.410041 L11.6791028,74.410041 L11.6791028,76.8254918 Z M11.6791028,71.4283307 L31.4097082,71.4283307 L31.4097082,69.0128799 L11.6791028,69.0128799 L11.6791028,71.4283307 Z M11.6791028,66.0311696 L31.4097082,66.0311696 L31.4097082,63.6157188 L11.6791028,63.6157188 L11.6791028,66.0311696 Z M11.6791028,60.5455304 L31.4097082,60.5455304 L31.4097082,58.1300796 L11.6791028,58.1300796 L11.6791028,60.5455304 Z" id="Fill-33" fill="#704693" mask="url(#mask-2)"></path>
                            <polygon id="Fill-34" fill="#55ABDD" mask="url(#mask-2)" points="85.5582755 81.904132 89.5397878 81.904132 89.5397878 78.1261192 85.5582755 78.1261192"></polygon>
                            <path d="M44.94685,110.066696 C43.0888109,110.066696 42.2040304,107.058442 43.177289,105.465837 L59.1033382,70.4285287 C59.9881187,68.8359238 61.4922456,68.8359238 62.3770261,70.4285287 C62.3770261,70.4285287 80.5150266,108.0317 81.3998071,109.624305 L44.94685,110.066696 Z" id="Fill-35" fill="#472F92" mask="url(#mask-2)"></path>
                            <polygon id="Fill-36" fill="#55ABDD" mask="url(#mask-2)" points="91.4863049 81.904132 95.4678172 81.904132 95.4678172 78.1261192 91.4863049 78.1261192"></polygon>
                            <path d="M76.7104704,82.7269778 C82.085512,82.7269778 86.443056,87.0845219 86.443056,92.4595635 C86.443056,97.8346051 82.085512,102.192149 76.7104704,102.192149 C71.3354287,102.192149 66.9778847,97.8346051 66.9778847,92.4595635 C66.9778847,87.0845219 71.3354287,82.7269778 76.7104704,82.7269778" id="Fill-37" fill="#623F99" mask="url(#mask-2)"></path>
                            <path d="M30.2594935,95.9986855 C33.631392,95.9986855 36.364479,98.7317725 36.364479,102.103671 C36.364479,105.47557 33.631392,108.208657 30.2594935,108.208657 C26.887595,108.208657 24.154508,105.47557 24.154508,102.103671 C24.154508,98.7317725 26.887595,95.9986855 30.2594935,95.9986855" id="Fill-38" fill="#472F92" mask="url(#mask-2)"></path>
                            <path d="M95.6447733,72.0211336 C103.022958,72.0211336 109.004959,78.0031347 109.004959,85.3813194 C109.004959,92.7595041 103.022958,98.7415051 95.6447733,98.7415051 C88.2665886,98.7415051 82.2845876,92.7595041 82.2845876,85.3813194 C82.2845876,78.0031347 88.2665886,72.0211336 95.6447733,72.0211336" id="Fill-39" fill="#623F99" mask="url(#mask-2)"></path>
                            <path d="M-0.442390256,99.8032417 C3.22237062,99.8032417 6.19346358,102.774335 6.19346358,106.439096 C6.19346358,110.103856 3.22237062,113.074949 -0.442390256,113.074949 C-4.10715113,113.074949 -7.07824409,110.103856 -7.07824409,106.439096 C-7.07824409,102.774335 -4.10715113,99.8032417 -0.442390256,99.8032417" id="Fill-40" fill="#8566A5" mask="url(#mask-2)"></path>
                            <path d="M23.7121177,103.784754 C26.4000809,103.784754 28.5784105,105.963084 28.5784105,108.651047 C28.5784105,111.33901 26.4000809,113.51734 23.7121177,113.51734 C21.0241545,113.51734 18.8458249,111.33901 18.8458249,108.651047 C18.8458249,105.963084 21.0241545,103.784754 23.7121177,103.784754" id="Fill-41" fill="#704693" mask="url(#mask-2)"></path>
                            <path d="M41.8373774,103.674953 C44.1882392,101.257732 48.0529605,101.203761 50.4701808,103.554623 C52.8874012,105.9046 52.9413728,109.770206 50.590511,112.187426 C48.2405339,114.604646 44.3749279,114.658618 41.9577075,112.307756 C39.5404872,109.956894 39.4865155,106.092173 41.8373774,103.674953" id="Fill-42" fill="#623F99" mask="url(#mask-2)"></path>
                            <path d="M28.8580012,104.381362 C31.4132473,101.753563 35.6141852,101.695168 38.2419833,104.250414 C40.8688966,106.80566 40.9272921,111.006598 38.3729308,113.633511 C35.8176847,116.261309 31.6167468,116.319705 28.9889487,113.765344 C26.3620353,111.210098 26.302755,107.00916 28.8580012,104.381362" id="Fill-43" fill="#704693" mask="url(#mask-2)"></path>
                            <path d="M12.033015,94.4945586 C17.1151942,94.4945586 21.2347323,98.6140967 21.2347323,103.696276 C21.2347323,108.778455 17.1151942,112.897993 12.033015,112.897993 C6.9508357,112.897993 2.83129764,108.778455 2.83129764,103.696276 C2.83129764,98.6140967 6.9508357,94.4945586 12.033015,94.4945586" id="Fill-44" fill="#704693" mask="url(#mask-2)"></path>
                            <polygon id="Fill-45" fill="#8566A5" mask="url(#mask-2)" points="60.607465 110.234804 111.482344 110.234804 111.482344 96.2641197 60.607465 96.2641197"></polygon>
                            <polygon id="Fill-46" fill="#472F92" mask="url(#mask-2)" points="59.8996406 96.2641197 112.190169 96.2641197 112.190169 95.2023831 59.8996406 95.2023831"></polygon>
                            <polygon id="Fill-47" fill="#A892C1" mask="url(#mask-2)" points="60.518987 110.270195 82.8154559 110.270195 82.8154559 90.5130463 60.518987 90.5130463"></polygon>
                            <polygon id="Fill-48" fill="#321D68" mask="url(#mask-2)" points="60.0765967 91.4420659 83.2578461 91.4420659 83.2578461 90.5130463 60.0765967 90.5130463"></polygon>
                            <path d="M101.130412,106.669138 L103.873232,106.669138 L103.873232,103.51932 L101.130412,103.51932 L101.130412,106.669138 Z M106.616052,106.669138 L109.358871,106.669138 L109.358871,103.51932 L106.616052,103.51932 L106.616052,106.669138 Z M90.0706561,106.669138 L92.8134757,106.669138 L92.8134757,103.51932 L90.0706561,103.51932 L90.0706561,106.669138 Z M84.5850169,106.669138 L87.3278365,106.669138 L87.3278365,103.51932 L84.5850169,103.51932 L84.5850169,106.669138 Z M94.9369489,110.261347 L98.9184612,110.261347 L98.9184612,103.784754 L94.9369489,103.784754 L94.9369489,110.261347 Z M95.6447733,101.006543 L98.3875929,101.006543 L98.3875929,97.8567246 L95.6447733,97.8567246 L95.6447733,101.006543 Z M101.130412,101.006543 L103.873232,101.006543 L103.873232,97.8567246 L101.130412,97.8567246 L101.130412,101.006543 Z M106.616052,101.006543 L109.358871,101.006543 L109.358871,97.8567246 L106.616052,97.8567246 L106.616052,101.006543 Z M90.0706561,101.006543 L92.8134757,101.006543 L92.8134757,97.8567246 L90.0706561,97.8567246 L90.0706561,101.006543 Z M84.5850169,101.006543 L87.3278365,101.006543 L87.3278365,97.8567246 L84.5850169,97.8567246 L84.5850169,101.006543 Z M62.0231139,104.501426 L81.222851,104.501426 L81.222851,101.926715 L62.0231139,101.926715 L62.0231139,104.501426 Z M62.0231139,99.7236115 L81.222851,99.7236115 L81.222851,97.1489002 L62.0231139,97.1489002 L62.0231139,99.7236115 Z M62.0231139,95.388187 L81.222851,95.388187 L81.222851,92.8134757 L62.0231139,92.8134757 L62.0231139,95.388187 Z" id="Fill-49" fill="#472F92" mask="url(#mask-2)"></path>
                        </g>
                        <g id="Group-101" transform="translate(0.000000, 71.136353)">
                            <path d="M72.4635239,87.2393584 L75.6487337,69.9861385 L98.2106368,51.2287916 C104.582826,45.8997586 114.069443,46.7456088 119.398476,53.1186828 C119.413517,53.1372632 119.429443,53.1567284 119.445369,53.1753087 L78.5685094,87.2393584 L72.552002,87.2393584 L72.4635239,87.2393584 Z" id="Fill-51" fill="#E4A77F"></path>
                            <path d="M92.6365196,87.2393584 L95.8217294,69.9861385 L118.383632,51.2287916 C124.755822,45.8997586 134.242438,46.7456088 139.571471,53.1186828 C139.586513,53.1372632 139.602439,53.1567284 139.618365,53.1753087 L98.7415051,87.2393584 L92.7249976,87.2393584 L92.6365196,87.2393584 Z" id="Fill-53" fill="#E4A77F"></path>
                            <path d="M157.137019,40.2575133 L157.137019,42.4694646 C157.137019,42.9092005 156.780452,43.265767 156.340716,43.265767 L144.927048,43.265767 L144.927048,39.4612108 L156.340716,39.4612108 C156.780452,39.4612108 157.137019,39.8177774 157.137019,40.2575133 L157.137019,40.2575133 Z" id="Fill-55" fill="#000000"></path>
                            <path d="M94.0521684,1.41564882 C95.4775498,1.40503145 96.8356879,2.01906913 97.7682465,3.09673179 L110.33213,15.8375712 C111.21691,16.8108297 110.597564,17.4301761 109.270393,17.4301761 L119.091457,17.4301761 L102.015193,1.50412687 C100.511066,-0.0884780512 98.3875929,0.619346358 96.2641197,0.619346358 L94.0521684,0.619346358 L94.0521684,1.41564882 Z" id="Fill-57" fill="#066AAE"></path>
                            <path d="M98.653027,50.078577 C96.8861204,48.3240572 95.8978205,45.9324955 95.9102075,43.4427231 L114.667554,43.4427231 C114.667554,48.6222282 110.469271,52.8213965 105.288881,52.8213965 L105.200403,52.8213965 C102.7124,52.8231661 100.325262,51.8366358 98.564549,50.078577" id="Fill-59" fill="#333333"></path>
                            <path d="M138.645106,26.8973276 C143.022115,31.289378 145.472957,37.2421813 145.457916,43.4427231 L52.0250941,43.4427231 L39.6381669,40.4344694 C35.4814681,39.4152022 32.559038,35.6893915 32.5599228,31.4097082 L32.5599228,24.5968982 C32.5563837,23.4900378 33.4031187,22.5654422 34.50644,22.473425 L61.4922456,19.9960396 L122.188189,19.9960396 C128.38873,19.9809983 134.341534,22.4318403 138.733584,26.8088495" id="Fill-61" fill="#67BCBB"></path>
                            <path d="M145.634872,43.4427231 L83.8771925,43.4427231 L75.0293874,41.3192499 C69.0252668,39.8788272 64.8075181,34.4878596 64.8544115,28.3129764 C64.8420246,25.1383839 67.2654384,22.4840424 70.4285287,22.2079908 L93.5213001,20.0845176 C93.6097781,20.0845176 94.2291245,19.1112591 94.3176025,19.1112591 L153.420941,19.2882152 C154.838359,19.2882152 155.986804,20.4366603 155.986804,21.8540786 L155.986804,33.1792692 C155.938141,38.8622144 151.317817,43.4427231 145.634872,43.4427231 L145.634872,43.4427231 Z" id="Fill-63" fill="#54ADAE"></path>
                            <path d="M34.2410058,23.6236397 L62.8194163,23.6236397 C63.3078152,23.6236397 63.7041968,24.0200213 63.7041968,24.5084202 L63.7041968,32.4714448 C63.7041968,32.9598436 63.3078152,33.3562253 62.8194163,33.3562253 L33.9755716,33.3562253 C33.6827093,33.3562253 33.4447033,33.1182193 33.4447033,32.825357 L33.4447033,24.5084202 C33.3960404,24.0713386 33.7101375,23.6776113 34.1472191,23.6289483 C34.1781864,23.6254092 34.2100385,23.6236397 34.2410058,23.6236397 M54.7679137,50.078577 C53.001007,48.3240572 52.0127072,45.9324955 52.0250941,43.4427231 L70.7824409,43.4427231 C70.7824409,48.6222282 66.5832726,52.8213965 61.4037675,52.8213965 L61.4037675,52.8213965 C58.9157647,52.8231661 56.5286269,51.8366358 54.7679137,50.078577" id="Fill-65" fill="#333333"></path>
                            <path d="M37.3377376,25.6586348 C38.8524818,25.6586348 40.0805572,26.8867102 40.0805572,28.4014544 C40.0805572,29.9161987 38.8524818,31.144274 37.3377376,31.144274 C35.8229934,31.144274 34.594918,29.9161987 34.594918,28.4014544 C34.594918,26.8867102 35.8229934,25.6586348 37.3377376,25.6586348" id="Fill-67" fill="#FFFFFF"></path>
                            <path d="M59.5457284,25.6586348 C61.0604727,25.6586348 62.288548,26.8867102 62.288548,28.4014544 C62.288548,29.9161987 61.0604727,31.144274 59.5457284,31.144274 C58.0309842,31.144274 56.8029088,29.9161987 56.8029088,28.4014544 C56.8029088,26.8867102 58.0309842,25.6586348 59.5457284,25.6586348" id="Fill-69" fill="#FFFFFF"></path>
                            <path d="M100.33411,36.8068693 C102.101017,38.561389 103.089317,40.9529508 103.07693,43.4427231 L84.3195828,43.4427231 C84.3195828,38.263218 88.5187511,34.0640497 93.6982562,34.0640497 L93.6982562,34.0640497 C96.186259,34.0622801 98.5733968,35.0488104 100.33411,36.8068693 M87.0624023,50.078577 C85.2954957,48.3240572 84.3071958,45.9324955 84.3195828,43.4427231 L103.07693,43.4427231 C103.07693,48.6222282 98.8777613,52.8213965 93.6982562,52.8213965 L93.6982562,52.8213965 C91.2102534,52.8231661 88.8231156,51.8366358 87.0624023,50.078577" id="Fill-71" fill="#000000"></path>
                            <path d="M97.5912904,39.5496889 C98.6185206,40.5839973 99.1909736,41.9846048 99.1838954,43.4427231 L88.212617,43.4427231 C88.212617,40.4132346 90.6687677,37.9570839 93.6982562,37.9570839 C95.1563745,37.9500057 96.556982,38.5224587 97.5912904,39.5496889 M89.8052219,47.3357574 C88.7779918,46.301449 88.2055388,44.9008414 88.212617,43.4427231 L99.1838954,43.4427231 C99.1838954,46.4722116 96.7277447,48.9283623 93.6982562,48.9283623 C92.2401379,48.9354405 90.8395303,48.3629875 89.8052219,47.3357574" id="Fill-73" fill="#5C5B5F"></path>
                            <path d="M144.219223,36.8068693 C145.98613,38.561389 146.97443,40.9529508 146.962043,43.4427231 L128.204696,43.4427231 C128.204696,38.263218 132.403864,34.0640497 137.58337,34.0640497 L137.58337,34.0640497 C140.071372,34.0622801 142.45851,35.0488104 144.219223,36.8068693 M130.947516,50.078577 C129.180609,48.3240572 128.192309,45.9324955 128.204696,43.4427231 L146.962043,43.4427231 C146.962043,48.6222282 142.762875,52.8213965 137.58337,52.8213965 L137.58337,52.8213965 C135.095367,52.8231661 132.708229,51.8366358 130.947516,50.078577" id="Fill-75" fill="#000000"></path>
                            <path d="M141.476404,39.5496889 C142.503634,40.5839973 143.076087,41.9846048 143.069009,43.4427231 L132.09773,43.4427231 C132.09773,40.4132346 134.553881,37.9570839 137.58337,37.9570839 C139.041488,37.9500057 140.442095,38.5224587 141.476404,39.5496889 M133.690335,47.3357574 C132.663105,46.301449 132.090652,44.9008414 132.09773,43.4427231 L143.069009,43.4427231 C143.069009,46.4722116 140.612858,48.9283623 137.58337,48.9283623 C136.125251,48.9354405 134.724644,48.3629875 133.690335,47.3357574" id="Fill-77" fill="#5C5B5F"></path>
                            <path d="M107.323876,1.85803907 L125.904267,1.85803907 C127.350883,1.86688688 128.728486,2.47561587 129.708823,3.53912205 L142.361184,16.8108297 C142.948679,17.3974392 142.949563,18.3503478 142.362954,18.9378421 C142.058589,19.2422066 141.640088,19.4014671 141.21097,19.3766932 L95.9102075,19.3766932 L104.669535,3.450644 C105.153509,2.46322894 106.137385,1.81910873 107.235398,1.76956102 L107.323876,1.85803907 Z M102.192149,3.450644 L92.9904318,19.1997371 L151.916814,19.1997371 L135.72533,1.76956102 C134.221204,0.265434153 132.009252,0.353912205 129.797301,0.353912205 L99.0954173,0.530868307 L101.307369,1.59260492 L102.192149,3.450644 Z" id="Fill-79" fill="#54ADAE"></path>
                            <path d="M101.218891,4.95477087 L93.2558659,19.1997371 L63.0848505,19.1997371 L70.870919,5.39716112 C72.3131112,3.0055994 74.8913616,1.53243985 77.6837289,1.50412687 L99.1838954,1.50412687 C100.453555,1.55544414 101.44097,2.62602856 101.388768,3.89568859 C101.375497,4.23455953 101.287019,4.56546744 101.130412,4.86629281 L101.218891,4.95477087 Z M76.3565582,0.530868307 C73.5641909,0.559181283 70.9859404,2.03234084 69.5437482,4.42390256 L60.518987,20.0845176 L93.6982562,20.0845176 L102.192149,5.04324892 C103.022958,3.6045958 102.530135,1.76425234 101.091482,0.93344344 C100.645553,0.675972311 100.141228,0.537946551 99.6262856,0.530868307 L76.3565582,0.530868307 Z" id="Fill-81" fill="#67BCBB"></path>
                            <path d="M133.867291,22.473425 C134.112376,22.7362048 134.239784,23.0874627 134.221204,23.4466836 L128.204696,23.4466836 C128.204696,22.7140853 128.799269,22.1195128 129.531867,22.1195128 L132.894033,22.1195128 C133.253254,22.1009324 133.604512,22.2283408 133.867291,22.473425" id="Fill-83" fill="#A5D5D7"></path>
                            <path d="M96.7065099,29.374713 C96.4614257,29.1119332 96.3340173,28.7606753 96.3525977,28.4014544 L134.752072,28.4014544 C134.752072,29.1340527 134.157499,29.7286252 133.424901,29.7286252 L97.6797685,29.7286252 C97.3205476,29.7472056 96.9692897,29.6197972 96.7065099,29.374713" id="Fill-85" fill="#379F9A"></path>
                            <path d="M43.4427231,34.4179619 L53.7061771,34.4179619 C53.9503765,34.4179619 54.1485673,34.6161527 54.1485673,34.8603522 L54.1485673,39.4612108 C54.1485673,39.7054102 53.9503765,39.9036011 53.7061771,39.9036011 L43.4427231,39.9036011 C43.1985237,39.9036011 43.0003329,39.7054102 43.0003329,39.4612108 L43.0003329,34.8603522 C43.0003329,34.6161527 43.1985237,34.4179619 43.4427231,34.4179619" id="Fill-87" fill="#FFFFFF"></path>
                            <path d="M93.9636903,51.7596599 C93.9636903,60.2535528 87.5047926,67.1548408 79.4532899,67.1548408 L67.5972311,67.1548408 C59.6342065,67.1548408 59.0148601,60.2535528 59.0148601,51.7596599 L93.9636903,51.7596599 L93.9636903,51.7596599 Z" id="Fill-89" fill="#F6BF93"></path>
                            <path d="M40.8768596,67.0663628 C46.0970647,56.9798649 48.8398842,51.848138 57.5107333,51.848138 L67.0663628,51.848138 C75.1178654,51.848138 74.8524313,58.5724699 75.6487337,67.1548408 L73.0828703,67.1548408 C73.1218006,68.6350786 74.2622827,69.8516518 75.7372118,69.9861385 L75.7372118,71.1363531 C75.7372118,80.6035046 68.6589677,88.3895731 59.9881187,88.3895731 L51.848138,88.3895731 C43.177289,88.3895731 34.3294839,90.3360902 34.3294839,80.7804607 L40.8768596,67.0663628 Z" id="Fill-91" fill="#F6BF93"></path>
                            <path d="M39.9036011,69.7207043 L111.21691,69.9861385 L133.778813,51.2287916 C140.151003,45.8997586 149.637619,46.7456088 154.966652,53.1186828 C154.981694,53.1372632 154.99762,53.1567284 155.013546,53.1753087 L116.260159,85.5582755 C114.930334,86.8350138 113.149271,87.5348751 111.305388,87.5047926 L75.6487337,87.5047926 L25.3932007,116.260159 L0.79630246,88.8319634 L39.9036011,69.7207043 Z" id="Fill-93" fill="#F6BF93"></path>
                            <path d="M68.7474458,59.3687723 C68.697898,55.2156126 72.0255575,51.8092076 76.1787173,51.7596599 L76.1796021,51.7596599 L94.4945586,51.7596599 C98.6477184,51.8083229 101.975378,55.2147278 101.926715,59.3678875 L101.926715,59.3687723 C101.976263,63.5219321 98.6486031,66.928337 94.4954434,66.9778847 L94.4945586,66.9778847 L76.091124,66.9778847 C71.9379643,66.9292218 68.6103048,63.5228168 68.6589677,59.3696571 L68.6589677,59.3687723 L68.7474458,59.3687723 Z" id="Fill-95" fill="#F6BF93"></path>
                            <path d="M92.0171732,64.3235432 L94.9369489,64.3235432 C97.7850574,64.2748803 100.068676,61.9523314 100.068676,59.1033382 C100.068676,56.2543449 97.7850574,53.9317961 94.9369489,53.8831332 L92.0171732,53.8831332 L92.0171732,64.5004993 L92.0171732,64.3235432 Z" id="Fill-97" fill="#F4E8DE"></path>
                            <path d="M107.235398,1.76956102 L125.904267,1.76956102 C127.350883,1.77840883 128.728486,2.38713782 129.708823,3.450644 L142.361184,16.7223517 C142.948679,17.3089611 142.949563,18.2618698 142.362954,18.849364 C142.058589,19.1537285 141.640088,19.312989 141.21097,19.2882152 L95.9102075,19.2882152 L104.669535,3.36216594 C105.177399,2.40925733 106.155966,1.80141312 107.235398,1.76956102 M101.130412,4.86629281 L93.1673879,19.1112591 L63.0848505,19.1112591 L70.870919,5.30868307 C72.3131112,2.91712135 74.8913616,1.44396179 77.6837289,1.41564882 L99.1838954,1.41564882 C100.45444,1.44042267 101.463975,2.49065714 101.438316,3.76120195 C101.430353,4.1496206 101.325064,4.53007622 101.130412,4.86629281" id="Fill-99" fill="#80C5C6"></path>
                        </g>
                        <g id="Group-111" transform="translate(95.556295, 72.905914)">
                            <g id="Group-104">
                                <mask id="mask-4" fill="white">
                                    <use xlink:href="#path-3"></use>
                                </mask>
                                <g id="Clip-103"></g>
                                <path d="M-1.50412687,-0.353912205 C-0.0787454655,-0.364529571 1.27939262,0.249508104 2.21195128,1.32717077 L14.7758345,14.3334443 C15.6606151,15.3067029 14.9527906,17.341698 13.6256199,17.341698 L24.242986,17.341698 L6.37041968,-0.0884780512 C4.86629281,-1.68108297 2.74281959,-1.23869272 0.619346358,-1.23869272 L-1.50412687,-1.23869272 L-1.50412687,-0.442390256 L-1.50412687,-0.353912205 Z" id="Fill-102" fill="#68BBBA" mask="url(#mask-4)"></path>
                            </g>
                            <g id="Group-107" transform="translate(10.617366, 0.000000)">
                                <mask id="mask-6" fill="white">
                                    <use xlink:href="#path-5"></use>
                                </mask>
                                <g id="Clip-106"></g>
                                <polygon id="Fill-105" fill="#B7DDE0" mask="url(#mask-6)" points="0.00875932707 -5.67684024 2.58700974 -7.04736525 20.9674401 27.5210093 18.3891897 28.8915343"></polygon>
                            </g>
                            <g id="Group-110" transform="translate(15.041269, 0.000000)">
                                <mask id="mask-8" fill="white">
                                    <use xlink:href="#path-7"></use>
                                </mask>
                                <g id="Clip-109"></g>
                                <polygon id="Fill-108" fill="#B7DDE0" mask="url(#mask-8)" points="0.351346341 -6.44261777 5.03891349 -8.93504447 23.4193438 25.6342149 18.7317767 28.1257568"></polygon>
                            </g>
                        </g>
                        <g id="Group-121" transform="translate(66.358538, 72.021134)">
                            <g id="Group-114" transform="translate(27.428196, 0.000000)">
                                <mask id="mask-10" fill="white">
                                    <use xlink:href="#path-9"></use>
                                </mask>
                                <g id="Clip-113"></g>
                                <path d="M0.265434153,0.530868307 C1.69081556,0.520250941 3.04895364,1.13428862 3.9815123,2.21195128 L16.5453956,14.9527906 C17.4301761,15.9260492 16.8108297,16.5453956 15.483659,16.5453956 L25.3047226,16.5453956 L8.22845876,0.619346358 C6.72433189,-0.973258563 4.60085866,-0.265434153 2.47738543,-0.265434153 L0.265434153,-0.265434153 L0.265434153,0.530868307 Z" id="Fill-112" fill="#48AFA9" mask="url(#mask-10)"></path>
                            </g>
                            <g id="Group-117" transform="translate(27.428196, 0.000000)">
                                <mask id="mask-12" fill="white">
                                    <use xlink:href="#path-11"></use>
                                </mask>
                                <g id="Clip-116"></g>
                                <path d="M0.265434153,0.530868307 C1.69081556,0.520250941 3.04895364,1.13428862 3.9815123,2.21195128 L16.5453956,15.2182248 C17.4301761,16.1914834 16.7223517,18.2264785 15.3951809,18.2264785 L26.012547,18.2264785 L8.13998071,0.79630246 C6.63585384,-0.79630246 4.51238061,-0.353912205 2.38890738,-0.353912205 L0.265434153,-0.353912205 L0.265434153,0.442390256 L0.265434153,0.530868307 Z" id="Fill-115" fill="#68BBBA" mask="url(#mask-12)"></path>
                            </g>
                            <g id="Group-120">
                                <mask id="mask-14" fill="white">
                                    <use xlink:href="#path-13"></use>
                                </mask>
                                <g id="Clip-119"></g>
                                <polygon id="Fill-118" fill="#B7DDE0" mask="url(#mask-14)" points="0.561216279 -5.55624466 11.9669219 -11.6205303 30.3473522 22.9478443 18.9416466 29.0121299"></polygon>
                            </g>
                        </g>
                        <g id="Group-130" transform="translate(39.815123, 0.353912)">
                            <path d="M82.9039339,25.8355909 L79.7187241,43.0888109 L57.2452991,61.8461578 C50.8731099,67.1751908 41.3864932,66.3293406 36.0574602,59.9562666 C36.0424189,59.9376862 36.0264929,59.918221 36.0105668,59.8996406 L76.8874265,25.8355909 L82.9039339,25.8355909 L82.9039339,25.8355909 Z" id="Fill-122" fill="#E4A77F"></path>
                            <path d="M62.8194163,25.8355909 L59.6342065,43.0888109 L37.0723034,61.8461578 C30.7001142,67.1751908 21.2134975,66.3293406 15.8844645,59.9562666 C15.8694233,59.9376862 15.8534972,59.918221 15.8375712,59.8996406 L56.7144308,25.8355909 L62.7309383,25.8355909 L62.8194163,25.8355909 Z" id="Fill-124" fill="#E4A77F"></path>
                            <path d="M140.768579,22.561903 L104.227144,0.530868307 L79.8072021,25.4816787 L44.0620695,25.4816787 C42.2181869,25.4515962 40.4371237,26.1514576 39.1072986,27.4281959 L0.442390256,59.8996406 C5.73957118,66.2983733 15.2217639,67.1911168 21.6204966,61.8930511 C21.639077,61.8780099 21.6585421,61.8620838 21.6771225,61.8461578 L44.1505475,43.0888109 L79.541768,43.0888109 C81.0166971,43.2232976 82.1571792,44.4398708 82.1961095,45.9201086 L60.9613773,45.9201086 C56.8082175,45.9687715 53.480558,49.3751765 53.529221,53.5283362 L53.529221,53.529221 C53.4796732,57.6823807 56.8073327,61.0887856 60.9604925,61.1383334 L60.9613773,61.1383334 L96.3525977,61.1383334 C98.6105576,60.8684753 100.767652,60.0482838 102.634539,58.749426 C115.021467,47.0703232 140.768579,22.561903 140.768579,22.561903 L140.768579,22.561903 Z" id="Fill-126" fill="#F6BF93"></path>
                            <path d="M64.3235432,48.397494 L61.4037675,48.397494 C58.555659,48.4461569 56.2720405,50.7687058 56.2720405,53.617699 C56.2720405,56.4666923 58.555659,58.7892411 61.4037675,58.837904 L64.3235432,58.837904 L64.3235432,48.397494 Z" id="Fill-128" fill="#F4E8DE"></path>
                        </g>
                    </g>
                </g>
            </g>
        </g>
    </g>
</svg>