<svg width="121" height="121" viewBox="52 -1 121 121" xmlns="http://www.w3.org/2000/svg" xmlns:xlink="http://www.w3.org/1999/xlink"><defs><path id="a" d="M117.688.026v117.689H0V.026h117.688H0v117.689h117.688V.026z"/><path d="M.219 47.5h17.143v4.242a3.63 3.63 0 0 0 3.616 3.622h7.993a3.63 3.63 0 0 0 3.616-3.622v-5.116c.039-.12.065-.245.065-.377v-1.456a11.71 11.71 0 0 0 2.716-3.197H35.2a11.362 11.362 0 0 0 1.676-5.469h.02c0-.089-.006-.176-.007-.265.002-.08.013-.158.013-.238h-.018c-.119-6.061-2.358-11.333-5.673-14.292-1.827-1.405-2.334-4.043-2.43-4.723C27.44 7.184 21.606.072 17.09.072H.22v47.427z" id="b"/></defs><g fill="none" fill-rule="evenodd"><path d="M170.982 59.138c0 32.498-26.346 58.844-58.845 58.844-32.498 0-58.843-26.346-58.843-58.844 0-32.499 26.345-58.844 58.843-58.844 32.5 0 58.845 26.345 58.845 58.844" fill="#EEEEED"/><path d="M53.716 66.38c3.684 29.075 28.33 51.554 58.206 51.554 29.876 0 54.522-22.479 58.207-51.553H53.716z" fill="#EEEEED" style="mix-blend-mode:multiply"/><path d="M79.555 73.263l-3.831.71a3.236 3.236 0 0 1-3.76-2.585l-1.76-9.505a3.236 3.236 0 0 1 2.585-3.76l3.831-.71A3.236 3.236 0 0 1 80.38 60l1.76 9.505a3.236 3.236 0 0 1-2.585 3.76M112.947 67.099l-3.831.71a3.236 3.236 0 0 1-3.76-2.585l-1.76-9.505a3.236 3.236 0 0 1 2.584-3.76l3.832-.71a3.236 3.236 0 0 1 3.76 2.585l1.76 9.505a3.236 3.236 0 0 1-2.585 3.76" fill="#3F1281"/><path d="M108.643 41.135c-2.06-6.122-6.838-10.145-9.856-9.586L76.64 35.65c-3.02.559-6.041 6.03-5.77 12.488.02.463-.097 2.195-1.068 3.478-1.882 2.453-2.715 6.374-1.944 10.539l48.62-9.005c-.774-4.184-2.973-7.56-5.626-9.167-1.395-.71-2.06-2.408-2.208-2.85" fill="#633B8F"/><path d="M67.79 61.82c.793 4.277 4.977 7.087 9.348 6.278l32.803-6.075c4.37-.81 7.27-4.932 6.479-9.208l-48.63 9.006z" fill="#633B8F"/><path d="M69.613 65.604a8.048 8.048 0 0 0 7.602 2.666l32.715-6.059a8.048 8.048 0 0 0 6.143-5.21l-46.46 8.603z" fill="#633B8F"/><path d="M112.098 51.091a3.202 3.202 0 1 1-6.298 1.167 3.202 3.202 0 0 1 6.298-1.167M77.394 57.518a3.202 3.202 0 1 1-6.298 1.166 3.202 3.202 0 0 1 6.298-1.166" fill="#FFF"/><path d="M94.45 50.444l.715-.132-.767.14c-1.096.172-2.25.385-3.45.614-1.203.215-2.357.43-3.442.662l-.767.144.715-.132c-5.857 1.256-9.729 3.017-8.793 8.069l26.89-4.98c-.936-5.051-5.182-5.309-11.1-4.385M88.987 60.028l-.713.132.765-.141c1.093-.192 2.248-.406 3.45-.63 1.202-.221 2.357-.435 3.446-.647l.766-.142-.714.132c5.877-1.145 9.873-2.23 9.565-3.892l-26.89 4.98c.309 1.663 4.428 1.243 10.325.208" fill="#3F1281"/><path d="M106.96 42.9c-1.124-6.069-6.103-10.235-9.148-9.67L78.15 36.87c-3.045.564-6.202 6.236-5.078 12.305L106.96 42.9z" fill="#FFF"/><path d="M90.97 50.078l-.398.074a.45.45 0 0 1-.523-.36l-.451-2.439a.45.45 0 0 1 .359-.522l.399-.074a.45.45 0 0 1 .522.359l.452 2.439a.45.45 0 0 1-.36.523" fill="#3F1281"/><path d="M100.223 17.89l3.025 7.957c.32.84-.705 1.38-1.326 1.423l-9.834 1.131c-1.365.112-1.869 1.38-.546 2.178l12.294 6.92c.357.347.434.89.186 1.322l-7.918 13.738c-.569.986.573 2.07 1.529 1.451l10.872-7.045a1.084 1.084 0 0 1 1.533.377l5.245 9.29c.499.884 1.83.659 2.01-.34l1.96-10.813c.13-.724.93-1.11 1.578-.762l9.177 4.911c.95.509 1.98-.53 1.462-1.476l-6.054-11.07a1.085 1.085 0 0 1 .546-1.526l13.415-7.044c1.025-.412.848-1.914-.245-2.078l-13.112-.27a1.084 1.084 0 0 1-.92-1.16l-.497-12.223c.085-1.052-1.23-1.593-1.91-.786l-8.996 10.678a1.084 1.084 0 0 1-1.388.23l-10.514-6.328c-.882-.53-1.939.352-1.572 1.314" fill="#58B8BA"/><path d="M102.317 88.568h-5.953a4.668 4.668 0 0 1-4.654-4.655V69.452a4.668 4.668 0 0 1 4.654-4.654h5.953a4.668 4.668 0 0 1 4.654 4.654v14.461a4.668 4.668 0 0 1-4.654 4.655M151.487 88.568h-5.953a4.668 4.668 0 0 1-4.654-4.655V69.452a4.668 4.668 0 0 1 4.654-4.654h5.953a4.668 4.668 0 0 1 4.654 4.654v14.461a4.668 4.668 0 0 1-4.654 4.655" fill="#3F1281"/><path d="M152.263 49.791c-1.343-9.429-7.19-16.545-11.716-16.545H107.33c-4.528 0-10.38 7.122-11.719 16.558-.096.677-.73 3.157-2.484 4.757-3.387 3.051-5.648 8.513-5.648 14.759h72.918c0-6.276-2.283-11.76-5.697-14.803-1.832-1.405-2.34-4.045-2.437-4.726" fill="#F19800"/><path d="M87.473 68.816c0 6.414 5.313 11.612 11.867 11.612h49.196c6.554 0 11.867-5.198 11.867-11.612h-72.93z" fill="#F19800"/><path d="M89.188 74.792c2.032 3.525 5.885 5.906 10.307 5.906h49.064c4.422 0 8.275-2.38 10.307-5.906H89.188z" fill="#F19800"/><path d="M156.286 65.157a4.722 4.722 0 1 1-9.445 0 4.722 4.722 0 0 1 9.445 0M101.044 65.157a4.722 4.722 0 1 1-9.444 0 4.722 4.722 0 0 1 9.444 0" fill="#FFF"/><path d="M129.274 59.48h1.071c-.386 0-.768-.002-1.15-.004a157.13 157.13 0 0 0-5.168-.036c-1.801-.01-3.532-.008-5.168.036-.382.002-.765.003-1.15.003h1.071c-8.829.25-14.916 1.763-14.916 9.34h40.326c0-7.577-6.086-9.09-14.916-9.34M118.778 71.909h-1.07 1.147c1.637.015 3.37.016 5.172.013 1.803.003 3.535.002 5.171-.012l1.148-.001h-1.07c8.828-.082 14.914-.58 14.914-3.074h-40.326c0 2.493 6.085 2.992 14.914 3.074" fill="#F7B400"/><path d="M149.438 51.899c0-9.101-6.1-16.479-10.668-16.479h-29.486c-4.567 0-10.668 7.378-10.668 16.479h50.822z" fill="#FFF"/><path d="M157.387 80.696H90.49a1.388 1.388 0 0 1-1.384-1.384V76.69c0-.761.622-1.384 1.384-1.384h66.897c.76 0 1.384.623 1.384 1.384v2.622c0 .761-.623 1.384-1.384 1.384" fill="#633B8F"/><path d="M124.157 57.941h-.824a.543.543 0 0 1-.542-.542v-3.752c0-.298.244-.542.542-.542h.824c.298 0 .542.244.542.542V57.4a.544.544 0 0 1-.542.542" fill="#F7B400"/><g transform="translate(123.453 33.145)"><use fill-opacity=".5" fill="#D8D8D8" style="mix-blend-mode:multiply" xlink:href="#b"/></g></g></svg>