<svg width="120" height="120" viewBox="53 0 120 120" xmlns="http://www.w3.org/2000/svg" xmlns:xlink="http://www.w3.org/1999/xlink"><defs><path d="M80.988 11.992A44.898 44.898 0 0 0 72.48.189H8.51A44.901 44.901 0 0 0 .003 11.992h80.986z" id="a"/><path d="M50.773 8.015C43.548 3.14 34.822.29 25.424.29 16.027.289 7.301 3.139.076 8.015h50.697z" id="c"/><path d="M.027 10.342l12.677.237V2.26a10.244 10.244 0 0 0-6.2-2.077c-2.45 0-4.706.86-6.477 2.298v7.862z" id="e"/></defs><g fill="none" fill-rule="evenodd"><path d="M171.973 59.487c0 32.853-26.633 59.486-59.487 59.486C79.633 118.973 53 92.34 53 59.487 53 26.633 79.633 0 112.486 0c32.854 0 59.487 26.633 59.487 59.487" fill="#EEEEED"/><path d="M156.468 59.78c0 24.29-19.736 43.983-44.08 43.983-24.346 0-44.083-19.692-44.083-43.984 0-24.291 19.737-43.984 44.082-43.984 24.345 0 44.081 19.693 44.081 43.984" fill="#F6C19A"/><path d="M113.731 74.917c-5.678-.106-10.367 4.41-10.473 10.087l20.564.384c.106-5.677-4.412-10.365-10.09-10.47" fill="#FEFEFE"/><path d="M155.127 45.464c-6.042-17.664-22.895-30.375-42.74-30.375-19.845 0-36.698 12.711-42.74 30.375h85.48z" fill="#59B8BB"/><g transform="translate(71.892 28.09)"><mask id="b" fill="#fff"><use xlink:href="#a"/></mask><path d="M-7.318 8.046c0 1.343.212 2.66.613 3.946h94.4c.402-1.285.614-2.603.614-3.946 0-2.747-.874-5.39-2.485-7.857H-4.834c-1.61 2.468-2.484 5.11-2.484 7.857" fill="#43918F" mask="url(#b)"/></g><g transform="translate(86.962 14.8)"><mask id="d" fill="#fff"><use xlink:href="#c"/></mask><path d="M-19.078 4.07c0 1.343.212 2.66.614 3.945h94.4c.401-1.284.613-2.602.613-3.945 0-2.748-.874-5.39-2.484-7.857h-90.658c-1.61 2.467-2.485 5.11-2.485 7.857" fill="#43918F" mask="url(#d)"/></g><g fill="#ECEEF0"><path d="M81.317 44.43l6.048-7.265M134.484 37.16l7.949 5.119"/></g><g transform="translate(107.032 74.733)"><mask id="f" fill="#fff"><use xlink:href="#e"/></mask><path fill="#D0D3D2" mask="url(#f)" d="M.027 10.474h1.776V-.376H.027zM5.256 10.474h1.776V-.376H5.256zM10.929 10.998h1.775V-.375H10.93z"/></g><g><path d="M64.573 59.08c0 2.398.212 4.75.614 7.044h94.4a40.803 40.803 0 0 0-1.871-21.073H67.058a40.748 40.748 0 0 0-2.485 14.028" fill="#3F1480"/><path d="M106.641 68.82a4.205 4.205 0 0 1 4.205-4.203h3.106a4.204 4.204 0 0 1 4.206 4.204H106.64z" fill="#EC9F6A"/><path d="M93.299 54.894a4.444 4.444 0 0 0-8.889 0 4.444 4.444 0 0 0 8.889 0M140.914 54.894a4.444 4.444 0 0 0-8.89 0 4.444 4.444 0 0 0 8.89 0" fill="#FEFEFE"/><path d="M85.123 38.095a1.849 1.849 0 0 1 2.538-2.58l7.974 5.078a1.849 1.849 0 1 1-1.988 3.12l-7.975-5.079a1.829 1.829 0 0 1-.55-.54M131.598 50.214a1.851 1.851 0 0 1-1.175-3.5l8.74-3.603a1.85 1.85 0 1 1 1.411 3.42l-8.74 3.603a1.91 1.91 0 0 1-.236.08" fill="#F6B400"/></g><path d="M156.962 59.286c0-24.513-19.797-44.402-44.278-44.562v89.124c24.481-.16 44.278-20.05 44.278-44.562z" fill-opacity=".3" fill="#929292" style="mix-blend-mode:multiply" opacity=".5"/></g></svg>