<svg width="138" height="118" viewBox="0 0 138 118" xmlns="http://www.w3.org/2000/svg" xmlns:xlink="http://www.w3.org/1999/xlink"><title>Page 1</title><defs><path id="a" d="M113.76 34.157V.811H.17v33.346z"/><path d="M.186 2.476c1.732.51 3.5.937 5.296 1.28V.46H.186v2.016z" id="c"/></defs><g fill="none" fill-rule="evenodd"><path d="M0 61.458c0 30.928 25.15 55.999 56.174 55.999s56.174-25.071 56.174-55.999c0-30.927-25.15-55.998-56.174-55.998S0 30.531 0 61.458" fill="#EDEBEB"/><path d="M24.321 48.986l-.413-3.816-11.206 1.21c-.668.071-1.15.669-1.078 1.334l.152 1.406a1.214 1.214 0 0 0 1.34 1.074l11.205-1.208z" fill="#1A1414"/><path d="M70.173 3.024c-1.636.244-2.86.984-3.701 2.103l-9.99 13.236c-.817 1.085-.05 2.718 1.302 2.572l13.69-1.476.115 1.053-23.63 2.55 14.05-17.857c1.381-1.706 1.512-2.373 4.184-2.661L89.407.372l1.708.397-20.942 2.255z" fill="#159F9A"/><path d="M72.07 50.867a9.473 9.473 0 0 0 2.056-6.998l-19.004 2.05c.568 5.23 5.283 9.012 10.53 8.447a9.538 9.538 0 0 0 6.418-3.499" fill="#3B3438"/><g transform="translate(23.46 15.142)"><mask id="b" fill="#fff"><use xlink:href="#a"/></mask><path d="M5.45 16.663A23.686 23.686 0 0 0 .31 34.157l94.892-10.233 12.277-4.371a9.434 9.434 0 0 0 6.227-9.901l-.751-6.92A2.158 2.158 0 0 0 110.77.811l-27.643.457-61.63 6.647a23.839 23.839 0 0 0-16.049 8.748" fill="#59BDBB" mask="url(#b)"/></g><path d="M23.611 49.317l61.741-6.658c.32-.035.635-.107.94-.216l8.772-3.123c5.91-2.104 9.601-7.973 8.927-14.193a6.258 6.258 0 0 0-6.331-5.572l-23.712.393a4 4 0 0 0-.374.023L13.1 26.493a2.592 2.592 0 0 0-2.303 2.853l1.152 10.615c.63 5.794 5.851 9.983 11.663 9.356" fill="#41ACAE"/><path d="M116.605 46.064a9.473 9.473 0 0 0 2.055-6.998l-19.004 2.05c.568 5.23 5.283 9.012 10.53 8.447a9.538 9.538 0 0 0 6.419-3.499M108.147 29.783l26.745-2.884a1.477 1.477 0 0 0 1.313-1.626l-.643-5.925a2.398 2.398 0 0 0-2.644-2.121l-25.831 2.786a2.456 2.456 0 0 0-2.184 2.705l.53 4.887a2.462 2.462 0 0 0 2.714 2.178" fill="#3B3438"/><path d="M129.086 22.582a2.792 2.792 0 0 0 3.078 2.47 2.786 2.786 0 0 0 2.478-3.069 2.791 2.791 0 0 0-3.078-2.47 2.786 2.786 0 0 0-2.478 3.07M106.6 25.008a2.792 2.792 0 0 0 3.078 2.469 2.786 2.786 0 0 0 2.477-3.069 2.792 2.792 0 0 0-3.079-2.469 2.786 2.786 0 0 0-2.477 3.069" fill="#FEFEFE"/><path d="M83.778 49.604a9.473 9.473 0 0 0 2.055-6.998l-19.004 2.05c.568 5.231 5.283 9.013 10.53 8.448a9.538 9.538 0 0 0 6.419-3.5" fill="#1A1414"/><path d="M68.885 37.658a9.473 9.473 0 0 0-2.056 6.998l19.005-2.05c-.568-5.23-5.284-9.013-10.53-8.447a9.536 9.536 0 0 0-6.419 3.5M39.243 54.407A9.473 9.473 0 0 0 41.3 47.41l-19.004 2.05c.568 5.231 5.283 9.013 10.53 8.448a9.536 9.536 0 0 0 6.418-3.5M24.35 42.461a9.473 9.473 0 0 0-2.055 6.998L41.3 47.41c-.568-5.23-5.283-9.013-10.53-8.447a9.536 9.536 0 0 0-6.418 3.499" fill="#1A1414"/><path d="M35.674 48.908a4.009 4.009 0 0 1-4.22 3.786 4.007 4.007 0 0 1-3.798-4.207 4.01 4.01 0 0 1 4.22-3.785c2.215.116 3.915 2 3.798 4.206" fill="#514A4E"/><path d="M61.2 5.492l10.258 13.793-46.044 4.966c-1.353.145-2.229-1.388-1.413-2.473l9.882-13.137a5.381 5.381 0 0 1 3.72-2.111L58.43 4.284a3.044 3.044 0 0 1 2.77 1.208zm3.235-1.72l1.751-1.29-31.324 3.293c-2.187.235-3.858.897-5.238 2.603L15.607 26.55l58.34-6.602-9.856-12.636.344-3.54z" fill="#41ACAE"/><path d="M66.735 3.388l21.819-2.353a8.194 8.194 0 0 1 7.385 3.162l8.798 11.498-30.551 3.296-9.053-11.897c-1.093-1.436-.195-3.512 1.602-3.706zm-.55-.906c-2.353.254-3.526 2.974-2.092 4.852L73.767 20l32.826-3.54L96.372 3.169A8.187 8.187 0 0 0 88.999.022l-22.813 2.46zM33.284 26.833c-.218.27-.332.622-.292.994l6.111-.658a1.359 1.359 0 0 0-1.497-1.202l-3.409.368a1.36 1.36 0 0 0-.913.498" fill="#59BDBB"/><path d="M71.74 29.73c.218-.27.332-.622.292-.994l-38.946 4.2a1.358 1.358 0 0 0 1.498 1.2l36.243-3.908a1.36 1.36 0 0 0 .913-.498M117.494 35.6l8.538-.92a1.397 1.397 0 0 0 1.243-1.538l-.302-2.779a1.4 1.4 0 0 0-1.543-1.237l-8.539.92a1.397 1.397 0 0 0-1.241 1.538l.302 2.78c.083.765.773 1.32 1.542 1.237" fill="#1A1414"/><path d="M64.732 6.804l9.507 12.18 30.497-3.289-8.972-11.712c-2.14-2.584-4.774-3.21-7.616-2.904l-21.782 2.35c-1.793.192-2.708 2.082-1.634 3.375M24.65 24.333l46.808-5.049L62.58 7.348c-1.712-2.04-1.854-3.312-4.696-3.006l-20.91 2.256a3.986 3.986 0 0 0-2.74 1.539c-2.198 2.87-7.314 9.58-9.771 13.027-1.195 1.675-1.086 2.673.187 3.169" fill="#79C7C6"/><path fill="#B6DEDF" d="M72.744 2.754l10.371 15.287 13.895-1.498L86.639 1.256zM38.528 6.444l10.37 15.287 13.896-1.497L52.423 4.946z"/><path d="M80.403 43.843a4.009 4.009 0 0 1-4.22 3.786 4.007 4.007 0 0 1-3.799-4.207 4.01 4.01 0 0 1 4.221-3.785c2.214.116 3.914 2 3.798 4.206" fill="#514A4E"/><g><path d="M68.846 106.765H43.903a1.6 1.6 0 0 1-1.572-1.91l7.436-37.411a1.602 1.602 0 0 1 1.573-1.287h8.115a1.6 1.6 0 0 1 1.554 1.21l9.392 37.412a1.6 1.6 0 0 1-1.555 1.986" fill="#E43256"/><path d="M70.4 104.779l-9.39-37.412a1.603 1.603 0 0 0-1.555-1.21h-2.95c.045.143.076.292.082.449l1.615 40.159h10.644a1.6 1.6 0 0 0 1.555-1.986" fill="#E43256"/><path d="M62.68 69.801a2.027 2.027 0 0 1-1.44-.596 2.02 2.02 0 0 1 .006-2.864l8.773-8.7-7.416-9.584a2.02 2.02 0 0 1 .368-2.84 2.034 2.034 0 0 1 2.848.366l8.51 10.997a2.02 2.02 0 0 1-.175 2.673l-10.042 9.959c-.397.392-.915.59-1.433.59" fill="#F3BD89"/><path d="M65.868 68.518c-.16.223-.354.426-.589.597l-3.213 2.348A2.629 2.629 0 0 1 58.4 70.9a2.612 2.612 0 0 1 .565-3.656l3.214-2.347a2.56 2.56 0 0 1 .58-.318l3.11 3.939z" fill="#F3A521"/><path d="M48.234 69.735a2.028 2.028 0 0 1-1.433-.59l-10.042-9.958a2.02 2.02 0 0 1-.288-2.511l5.554-8.837a2.035 2.035 0 0 1 2.8-.641 2.022 2.022 0 0 1 .643 2.791l-4.693 7.466 8.892 8.82a2.02 2.02 0 0 1 .007 2.864 2.029 2.029 0 0 1-1.44.596" fill="#F3BD89"/><path d="M44.669 68.042c.159.223.354.427.588.597l3.213 2.349a2.629 2.629 0 0 0 3.668-.564 2.612 2.612 0 0 0-.565-3.656l-3.214-2.347a2.56 2.56 0 0 0-.58-.318l-3.11 3.939z" fill="#F3A521"/><path d="M50.316 101.614a.603.603 0 0 1-.604-.622l.58-17.336a.602.602 0 0 1 .602-.581l3.09-.004c.342 0 .615.281.604.622l-.476 14.257a3.798 3.798 0 0 1-3.796 3.664" fill="#4B2F86"/><path d="M60.602 81.82c-.013 2.053-1.574 3.712-3.485 3.703l-3.71-.016c-1.91-.007-3.448-1.679-3.434-3.732l.046-6.788c.014-2.054 1.574-3.711 3.484-3.703l3.71.015c1.91.008 3.449 1.68 3.435 3.732l-.046 6.79z" fill="#4B2F86"/><path d="M60.732 76.332l.052-7.563c.012-1.665-1.204-3.033-2.703-3.04l-5.347-.023c-1.498-.005-2.733 1.352-2.744 3.017l-.064 9.39a3.34 3.34 0 0 0 .023.397l-.02 2.837 10.769.046.034-5.06z" fill="#ED8826"/><path d="M57.243 59.497l-5.52 1.255c-2.5.569-5.014-1.006-5.583-3.498l-.8-3.49c-.57-2.492 1.01-4.998 3.51-5.567l5.52-1.255c2.5-.569 5.012 1.006 5.583 3.498l.799 3.49c.57 2.493-1.009 4.998-3.51 5.567" fill="#1D1C1B"/><path d="M57.807 57.646l-2.778.631c-1.983.451-3.977-.797-4.43-2.775l-1.418-6.198c-.454-1.978.8-3.965 2.784-4.417l2.778-.632c1.984-.451 3.977.798 4.43 2.776l1.419 6.198c.452 1.978-.8 3.965-2.785 4.417" fill="#1D1C1B"/><path d="M61.445 56.665c.923 4.032-1.615 8.049-5.668 8.97-4.052.922-8.085-1.6-9.008-5.631-.924-4.034 1.614-8.05 5.666-8.971 4.053-.922 8.087 1.6 9.01 5.632" fill="#F3BD89"/><path d="M53.751 61.178a.717.717 0 0 1 .54-.857l.518-.117a.718.718 0 0 1 .86.539l-1.918.435z" fill="#F29353"/><path d="M59.577 56.39a8.077 8.077 0 0 0-4.346-5.463c2.971.444 5.509 2.645 6.216 5.738.923 4.032-1.614 8.048-5.667 8.97a7.553 7.553 0 0 1-1.416.183c3.84-1.353 6.138-5.382 5.213-9.428" fill="#EAAE79"/><path d="M50.435 58.316a.76.76 0 0 0-1.48.336.76.76 0 0 0 .91.57.757.757 0 0 0 .57-.906" fill="#13110D"/><path d="M48.311 56.58l1.615.009" fill="#AE8C20"/><path d="M48.18 57.184c-.11-.076-.186-.245-.185-.44.001-.266.143-.48.318-.48l1.615.014c.174.002.314.219.313.484 0 .266-.142.48-.317.479l-1.615-.014a.24.24 0 0 1-.128-.043" fill="#1D1C1B"/><path d="M58.978 56.373a.76.76 0 0 0-1.48.336.76.76 0 0 0 .91.57.757.757 0 0 0 .57-.906" fill="#13110D"/><path d="M57.092 55.016l1.513-.564" fill="#AE8C20"/><path d="M57.162 55.322a.317.317 0 0 1-.365-.197.314.314 0 0 1 .184-.405l1.514-.563a.316.316 0 0 1 .22.59l-1.512.564a.324.324 0 0 1-.04.011" fill="#1D1C1B"/><path d="M55.198 54.42a1.763 1.763 0 0 0 .201-2.489l-1.483-1.574a1.775 1.775 0 0 0-2.497-.201l3.779 4.265z" fill="#EAAE79"/><path d="M48.69 49.575a1.762 1.762 0 0 1-.558-2.435l2.379-3.772a1.775 1.775 0 0 1 2.442-.557l-4.264 6.764z" fill="#1D1C1B"/><path d="M50.304 48.74a1.762 1.762 0 0 1 .047-2.497l3.218-3.09a1.775 1.775 0 0 1 2.506.045l-5.771 5.543zM49.146 50.711a1.762 1.762 0 0 0-.668-2.407l-1.934-.973a1.775 1.775 0 0 0-2.416.665l5.018 2.715zM55.35 52.961a1.762 1.762 0 0 0-.668-2.407l-1.935-.973a1.775 1.775 0 0 0-2.415.665l5.017 2.715z" fill="#1D1C1B"/><path d="M51.857 61.709a1.317 1.317 0 0 1-2.567.584 1.312 1.312 0 0 1 .992-1.572 1.315 1.315 0 0 1 1.575.988M60.222 59.806a1.317 1.317 0 0 1-2.567.584 1.312 1.312 0 0 1 .991-1.57 1.315 1.315 0 0 1 1.576.986" fill="#F6A968"/><path d="M59.079 62.835c.77-.588.916-1.687.326-2.454l-2.788 2.128a1.76 1.76 0 0 0 2.462.326" fill="#FEFEFE"/><g transform="translate(40.077 111.61)"><mask id="d" fill="#fff"><use xlink:href="#c"/></mask><path d="M1.026.46L4.65 2.563a1.663 1.663 0 0 1 .604 2.277L.186 1.9l.84-1.44z" fill="#13110D" mask="url(#d)"/></g><path d="M65.679 98.205a2.154 2.154 0 0 1-2.89-.96l-6.402-12.814 3.844-1.924 6.407 12.826a2.141 2.141 0 0 1-.96 2.872" fill="#4B2F86"/><path d="M62.482 113.745l4.195.023a1.668 1.668 0 0 1 1.662 1.674l-5.865-.031.008-1.666zM44.513 114.878l-3.741-2.11 9.47-15.665 3.741 2.11z" fill="#13110D"/><path fill="#13110D" d="M66.775 114.55l-4.301-.018.121-18.272 4.301.018z"/><path d="M53.91 66.774v-.15c0-.505-.444-.917-.988-.917h-1.068c-.544 0-.989.412-.989.916v.151h3.046zM60.052 66.774v-.15c0-.505-.445-.917-.99-.917h-1.067c-.544 0-.989.412-.989.916v.151h3.046z" fill="#E43256"/><g fill="#F3BD89"><path d="M38.751 57.728c1.995-2.472 5.17-7.949 7.8-10.318.024-.023.053-.041.079-.063l-.033-.016a1.771 1.771 0 0 0-1.616-.063c-.035-.023-.067-.048-.102-.07a2.036 2.036 0 0 0-2.8.64l-5.555 8.837a2.02 2.02 0 0 0 .29 2.511l.076.076a6.065 6.065 0 0 0 1.861-1.534M63.024 45.216a2.02 2.02 0 0 0-.367 2.84l1.015 1.313c1.386-.225 3.847.545 6.026 1.156l-3.824-4.942a2.036 2.036 0 0 0-2.85-.367"/></g></g></g></svg>