<svg width="116" height="116" viewBox="0 0 116 116" xmlns="http://www.w3.org/2000/svg" xmlns:xlink="http://www.w3.org/1999/xlink"><defs><path id="a" d="M115.378 115.742V.454H.089v115.288z"/></defs><g fill="none" fill-rule="evenodd"><g transform="translate(0 -.45)"><mask id="b" fill="#fff"><use xlink:href="#a"/></mask><path d="M.09 58.098c0 31.836 25.807 57.644 57.644 57.644 31.836 0 57.644-25.808 57.644-57.644S89.57.454 57.734.454C25.897.454.089 26.262.089 58.098" fill="#EDEBEB" mask="url(#b)"/></g><path d="M99.19 105.766h-.009a4.974 4.974 0 0 1-4.953-4.967l.016-10.969c.004-2.727 2.24-4.956 4.967-4.952h.01a4.974 4.974 0 0 1 4.953 4.967l-.017 10.968a4.974 4.974 0 0 1-4.967 4.953M42.376 105.683h-.009a4.974 4.974 0 0 1-4.953-4.967l.016-10.968c.004-2.728 2.24-4.956 4.967-4.952h.01a4.974 4.974 0 0 1 4.952 4.967l-.016 10.967a4.974 4.974 0 0 1-4.967 4.953" fill="#352B32"/><path d="M94.619 97.434l-47.735-.069c-7.707-.01-14.005-6.326-13.994-14.034v-.026c.012-7.707 6.328-14.005 14.034-13.993l47.736.07c7.708.01 14.004 6.326 13.993 14.034v.026c-.011 7.706-6.327 14.003-14.034 13.992" fill="#ED8826"/><path d="M98.177 70.397l-54.773-.079c-2.493-.004-5.264-2.049-5.26-4.543l5.853-19.244c.943-2.746 2.047-4.532 4.542-4.528l44.246.064c2.495.003 3.636 1.999 4.53 4.54l6.136 19.264c-.004 2.493-2.78 4.53-5.274 4.526" fill="#ED8826"/><path d="M98.466 61.531l-55.779-.087s3.128-12.285 3.353-12.886c1.47-3.902 2.237-3.914 4.482-3.91l40.272.059c2.245.003 2.902-.051 4.47 3.924.239.605 3.202 12.9 3.202 12.9" fill="#79C7C6"/><path d="M102.303 83.253l-63.063-.091c-3.491-.006-6.345-2.867-6.34-6.36l.011-7.55c.005-3.492 2.867-6.346 6.36-6.34l63.061.091c3.493.005 6.347 2.867 6.342 6.36l-.011 7.55c-.005 3.491-2.867 6.345-6.36 6.34" fill="#F3A521"/><path fill="#B6DEDF" d="M55.98 44.656l10.991 16.826 20.159.03-12.455-16.829z"/><path d="M99.782 81.324l-58.014-.084a4.041 4.041 0 0 1-4.023-4.036l.012-8.34a4.041 4.041 0 0 1 4.035-4.024l58.014.085a4.042 4.042 0 0 1 4.023 4.035l-.012 8.34a4.042 4.042 0 0 1-4.035 4.024" fill="#3B3438"/><path d="M109.722 62.234l-6.034-.009.005-3.284a3.287 3.287 0 0 1 3.283-3.274l2.756.004a3.287 3.287 0 0 1 3.273 3.283v.006a3.287 3.287 0 0 1-3.283 3.274M32.358 62.122l6.034.009.005-3.285a3.287 3.287 0 0 0-3.274-3.283l-2.755-.004a3.289 3.289 0 0 0-3.284 3.274v.006a3.289 3.289 0 0 0 3.274 3.283" fill="#F3A521"/><path d="M71.017 93.594a8.204 8.204 0 0 0 8.146-8.262l-16.41.116a8.205 8.205 0 0 0 8.264 8.146M100.857 84.77H87.873c-5.741 0-10.44-4.696-10.44-10.439v-.02c0-5.74 4.699-10.438 10.44-10.438h23.424v10.458c0 5.743-4.699 10.44-10.44 10.44" fill="#FEFEFE"/><path d="M100.857 84.77H87.873c-5.741 0-10.44-4.696-10.44-10.439v-.02c0-5.74 4.699-10.438 10.44-10.438h23.424v10.458c0 5.743-4.699 10.44-10.44 10.44z" stroke="#F3A521"/><path d="M94.376 72.26a7.648 7.648 0 0 1 7.482 6.118 7.646 7.646 0 1 0-14.986.007 7.646 7.646 0 0 1 7.504-6.126" fill="#3B3438"/><path d="M39.926 84.77h12.983c5.742 0 10.44-4.696 10.44-10.439v-.02c0-5.74-4.698-10.438-10.44-10.438H29.486v10.458c0 5.743 4.698 10.44 10.44 10.44" fill="#FEFEFE"/><path d="M39.926 84.77h12.983c5.742 0 10.44-4.696 10.44-10.439v-.02c0-5.74-4.698-10.438-10.44-10.438H29.486v10.458c0 5.743 4.698 10.44 10.44 10.44z" stroke="#F3A521"/><path d="M40.09 74.334a8.283 8.283 0 1 0 16.565-.025 8.283 8.283 0 0 0-16.565.025M50.576 62.342l-10.037 4.916a2.048 2.048 0 0 1-2.732-.935l-.002-.004a2.048 2.048 0 0 1 .936-2.733l10.036-4.916a2.048 2.048 0 0 1 2.733.935l.002.004a2.049 2.049 0 0 1-.936 2.733M101.114 66.453L90.303 63.62a2.047 2.047 0 0 1-1.457-2.493v-.004a2.047 2.047 0 0 1 2.493-1.457l10.811 2.832a2.048 2.048 0 0 1 1.459 2.494l-.001.004a2.049 2.049 0 0 1-2.494 1.457" fill="#3B3438"/></g></svg>