<svg width="120" height="119" viewBox="797 276 120 119" xmlns="http://www.w3.org/2000/svg" xmlns:xlink="http://www.w3.org/1999/xlink"><defs><path d="M15.754.128C6.162 10.484.304 24.315.304 39.506c0 32.107 26.169 58.136 58.45 58.136 32.281 0 58.45-26.029 58.45-58.136 0-15.191-5.857-29.022-15.45-39.378h-86z" id="a"/></defs><g fill="none" fill-rule="evenodd"><path d="M797.76 334.136c0 32.107 26.168 58.135 58.45 58.135 32.281 0 58.45-26.028 58.45-58.135 0-32.108-26.169-58.136-58.45-58.136-32.282 0-58.45 26.028-58.45 58.136" fill="#EFEEEE"/><g transform="translate(798.017 294.63)"><mask id="b" fill="#fff"><use xlink:href="#a"/></mask><path fill="#47525A" mask="url(#b)" d="M-7.12 110.266h128.804V86.064H-7.12z"/><path d="M93.215 87.842h-3.204c-2.232 0-4.06-1.818-4.06-4.038v-15.62c0-2.221 1.828-4.038 4.06-4.038h3.204c2.234 0 4.06 1.817 4.06 4.039v15.619c0 2.22-1.826 4.038-4.06 4.038M28.414 87.842H25.21c-2.233 0-4.06-1.818-4.06-4.038v-15.62c0-2.221 1.827-4.038 4.06-4.038h3.204c2.233 0 4.06 1.817 4.06 4.039v15.619c0 2.22-1.827 4.038-4.06 4.038" fill="#040304" mask="url(#b)"/><path d="M95.928 73.244H22.392c-3.541 0-6.439-2.882-6.439-6.405V47.824c0-3.522 2.898-6.404 6.44-6.404h73.535c3.542 0 6.44 2.882 6.44 6.404V66.84c0 3.523-2.898 6.405-6.44 6.405" fill="#54ADAE" mask="url(#b)"/><path d="M90.397 42.566H27.925c-2.845 0-5.173-2.314-5.173-5.144l4.122-32.15c0-2.83 2.328-5.144 5.173-5.144h54.227c2.845 0 5.172 2.315 5.172 5.144l4.122 32.15c0 2.83-2.327 5.144-5.171 5.144" fill="#54ADAE" mask="url(#b)"/><path d="M92.467 32.504H25.853l3.288-24.078c0-2.915 2.327-5.3 5.172-5.3h49.695c2.845 0 5.172 2.385 5.172 5.3l3.287 24.078z" fill="#7FC5C6" mask="url(#b)"/><path d="M95.928 57.143H22.392c-3.541 0-6.439-2.882-6.439-6.404V40.575c0-3.522 2.898-6.404 6.44-6.404h73.535c3.542 0 6.44 2.882 6.44 6.404V50.74c0 3.522-2.898 6.404-6.44 6.404" fill="#67BCBB" mask="url(#b)"/><path fill="#B7DDE0" mask="url(#b)" d="M40.54 3.126l14.249 29.378H77.78L63.533 3.126z"/><path d="M92.755 54.96h-67.19c-2.247 0-4.086-1.83-4.086-4.065V40.42c0-2.235 1.84-4.064 4.086-4.064h67.19c2.247 0 4.086 1.83 4.086 4.064v10.476c0 2.235-1.839 4.064-4.086 4.064" fill="#333" mask="url(#b)"/><path d="M104.606 33.287H96.67V28.51c0-1.469 1.208-2.67 2.684-2.67h5.253c1.477 0 2.685 1.201 2.685 2.67v2.106a2.685 2.685 0 0 1-2.685 2.67M14.256 33.287h7.937V28.51c0-1.469-1.208-2.67-2.684-2.67h-5.253a2.684 2.684 0 0 0-2.684 2.67v2.106a2.685 2.685 0 0 0 2.684 2.67" fill="#54ADAE" mask="url(#b)"/><path d="M59.317 61.383c-3.739.031-6.744 3.072-6.713 6.791l13.542-.114c-.033-3.719-3.09-6.708-6.829-6.677" fill="#FEFEFE" mask="url(#b)"/><path d="M13.54 56.238S23.745 73.34 40.46 68.174c14.546-4.96 17.244-13.215 17.244-13.215l-44.163 1.279zM105.699 56.238S95.602 73.34 79.062 68.174C64.67 63.214 62 54.959 62 54.959l43.699 1.279z" fill="#54ADAE" mask="url(#b)"/><path d="M105.699 43.273c0 11.03-8.991 19.973-20.082 19.973-11.09 0-20.08-8.943-20.08-19.973s8.99-19.974 20.08-19.974c11.09 0 20.082 8.943 20.082 19.974" fill="#FEFEFE" mask="url(#b)"/><path d="M94.128 44.51c0 4.675-3.81 8.465-8.51 8.465-4.701 0-8.511-3.79-8.511-8.464 0-4.675 3.81-8.464 8.511-8.464 4.7 0 8.51 3.79 8.51 8.464" fill="#333" mask="url(#b)"/><path d="M92.21 24.22c-10.5-3.55-21.905 2.039-25.474 12.483l38.025 12.855c3.569-10.444-2.05-21.788-12.55-25.338" fill="#43918F" mask="url(#b)"/><path d="M52.232 43.273c0 11.03-8.99 19.973-20.081 19.973-11.09 0-20.08-8.943-20.08-19.973s8.99-19.974 20.08-19.974c11.09 0 20.081 8.943 20.081 19.974" fill="#FEFEFE" mask="url(#b)"/><path d="M41.32 43.796c0 4.674-3.81 8.464-8.51 8.464-4.7 0-8.51-3.79-8.51-8.464 0-4.675 3.81-8.464 8.51-8.464 4.7 0 8.51 3.79 8.51 8.464" fill="#333" mask="url(#b)"/><path d="M25.694 24.523c10.5-3.55 21.906 2.038 25.475 12.482L13.144 49.86c-3.569-10.443 2.05-21.788 12.55-25.337" fill="#43918F" mask="url(#b)"/><path d="M93.687 43.251a.554.554 0 0 1-.2-.037l-3.18-1.248a.543.543 0 0 1-.334-.618l1.378-6.494-6.163-4.013a.544.544 0 0 1-.151-.763l6.476-9.345a.548.548 0 0 1 .76-.14c.249.17.31.509.14.756l-6.159 8.888 6.008 3.91a.542.542 0 0 1 .235.567l-1.36 6.41 2.413.945 3.467-3.533a.55.55 0 0 1 .757-.024l4.231 3.792a.54.54 0 0 1 .04.767.549.549 0 0 1-.771.04l-3.842-3.442-3.354 3.418a.545.545 0 0 1-.39.164" fill="#00716E" mask="url(#b)"/><path d="M84.703 37.016a.551.551 0 0 1-.27-.07l-5.452-3.09v1.838a.545.545 0 0 1-1.092 0V32.92a.547.547 0 0 1 .816-.472L84.62 35.8l3.832-3.632a.547.547 0 0 1 .772.018c.209.218.2.562-.018.77l-4.127 3.91a.547.547 0 0 1-.377.149M93.248 31.297a.546.546 0 0 1-.349-.125l-5.28-4.367a.542.542 0 0 1-.07-.765.548.548 0 0 1 .768-.07l5.092 4.21 4.948-.75a.543.543 0 1 1 .164 1.074l-5.19.787a.564.564 0 0 1-.083.006M29.633 43.116H24.5a.546.546 0 0 1-.533-.423l-1.02-4.465-5.16.905a.546.546 0 0 1-.571-.27.539.539 0 0 1 .069-.626l4.258-4.76-8.83-3.511a.543.543 0 1 1 .406-1.009l9.552 3.798a.543.543 0 0 1 .205.866l-3.73 4.17 4.123-.724a.546.546 0 0 1 .628.415l1.04 4.547h4.696c.301 0 .547.243.547.544 0 .3-.246.543-.547.543" fill="#00716E" mask="url(#b)"/><path d="M32.179 24.111h-.046c-10.828.025-19.617 8.806-19.592 19.576.025 10.754 8.83 19.486 19.636 19.486h.046c10.827-.026 19.615-8.806 19.59-19.576-.011-5.217-2.065-10.116-5.782-13.796-3.707-3.67-8.624-5.69-13.852-5.69zm-.002 43.77c-13.414 0-24.34-10.837-24.37-24.184-.03-13.365 10.877-24.263 24.315-24.294h.057c13.412 0 24.338 10.836 24.368 24.184.03 13.365-10.876 24.263-24.314 24.294h-.056zM85.332 23.99h-.046c-5.245.013-10.171 2.055-13.872 5.753-3.7 3.697-5.731 8.605-5.719 13.822.012 5.217 2.066 10.117 5.783 13.798 3.706 3.669 8.624 5.688 13.852 5.689h.046c10.827-.025 19.617-8.806 19.591-19.576-.012-5.217-2.065-10.116-5.783-13.796-3.706-3.67-8.624-5.69-13.852-5.69zm-.002 43.77c-6.489 0-12.591-2.506-17.192-7.06-4.613-4.568-7.162-10.65-7.177-17.124-.015-6.474 2.506-12.567 7.098-17.156 4.593-4.588 10.707-7.123 17.216-7.138h.057c13.413 0 24.338 10.836 24.37 24.184.03 13.365-10.877 24.264-24.316 24.294h-.056z" fill="#452E88" mask="url(#b)"/><path d="M53.572 39.88a2.36 2.36 0 0 1-2.366-2.349c-.01-4.086 3.325-7.418 7.434-7.427h.016c4.1 0 7.441 3.313 7.451 7.393a2.36 2.36 0 0 1-2.362 2.36h-.005a2.36 2.36 0 0 1-2.366-2.348 2.715 2.715 0 0 0-2.718-2.697h-.006a2.714 2.714 0 0 0-2.71 2.71 2.36 2.36 0 0 1-2.362 2.358h-.006z" fill="#452E88" mask="url(#b)"/></g></g></svg>