<?xml version="1.0" encoding="UTF-8" standalone="no"?>
<svg width="480px" height="480px" viewBox="0 0 480 480" version="1.1" xmlns="http://www.w3.org/2000/svg" xmlns:xlink="http://www.w3.org/1999/xlink">
    <!-- Generator: sketchtool 39.1 (31720) - http://www.bohemiancoding.com/sketch -->
    <title>CA3FE6DF-EC14-43A7-BEB2-F035FDABBB3B</title>
    <desc>Created with sketchtool.</desc>
    <defs>
        <path d="M0.482100001,125.31591 C52.9991518,125.258836 99.1888287,98.1373142 125.8981,57.1263741 L125.8981,0.482 L0.4821,0.482 L0.4821,125.315916 L0.482100001,125.31591 Z" id="path-1"></path>
    </defs>
    <g id="Icon-Coberturas-" stroke="none" stroke-width="1" fill="none" fill-rule="evenodd">
        <g id="Icones-Coberturas-Auto" transform="translate(-2528.000000, -115.000000)">
            <g id="Group-8" transform="translate(2568.000000, 155.000000)">
                <path d="M400.909,200.4551 C400.909,311.1631 311.162,400.9101 200.454,400.9101 C89.746,400.9101 0,311.1631 0,200.4551 C0,89.7471 89.746,0.0001 200.454,0.0001 C311.162,0.0001 400.909,89.7471 400.909,200.4551" id="Fill-1" fill="#EEEEED"></path>
                <g id="Page-1" transform="translate(74.999500, 24.000000)">
                    <path d="M0.7891,267.3165 C0.7891,299.6855 26.5381,325.9225 58.3011,325.9225 L99.1501,325.9225 C130.9091,325.9225 156.6601,299.6855 156.6601,267.3165 L0.9821,255.3785 L0.7891,267.3165 Z" id="Fill-1" fill="#F1A924"></path>
                    <path d="M250.649,256.5907 C249.282,226.0017 223.977,201.6027 192.868,201.6027 L58.808,201.6027 C27.704,201.6027 2.396,226.0017 1.029,256.5907 L0.917,256.5907 L0.917,258.7967 C0.916,258.9227 0.898,259.0447 0.898,259.1707 L0.917,259.1707 L0.917,284.1617 L250.71,284.1617 L250.649,256.5907 Z" id="Fill-3" fill="#F1A924"></path>
                    <g id="Group-27" transform="translate(50.000000, 0.646000)">
                        <path d="M150.8608,108.8711 L150.8608,75.6171 C150.8608,34.0171 117.1378,0.2931 75.5378,0.2931 C33.9378,0.2931 0.2138,34.0171 0.2138,75.6171 L0.2138,108.8711 L150.8608,108.8711 Z" id="Fill-5" fill="#633B8F"></path>
                        <polygon id="Fill-7" fill="#43918F" points="150.4823 175.2323 89.4823 236.2523 144.8153 236.2523 175.7323 175.4823"></polygon>
                        <path d="M151.754,99.9799 C151.754,141.8689 117.797,175.8259 75.908,175.8259 C34.02,175.8259 0.062,141.8689 0.062,99.9799 C0.062,58.0909 34.02,24.1339 75.908,24.1339 C117.797,24.1339 151.754,58.0909 151.754,99.9799" id="Fill-9" fill="#F1A924"></path>
                        <path d="M76.551,24.1665 L76.551,175.7935 C118.14,175.4435 151.753,141.6515 151.753,99.9795 C151.753,58.3085 118.14,24.5155 76.551,24.1665" id="Fill-11" fill-opacity="0.5" fill="#DBDBDB" style="mix-blend-mode: multiply;" opacity="0.5"></path>
                        <path d="M6.5086,45.5178 C16.1876,52.1808 27.8526,56.1578 40.4916,56.1578 C70.7646,56.1578 95.7446,33.7848 99.9756,4.6858 C96.6606,3.4348 93.2156,2.4658 89.7056,1.6688 C85.1116,0.7938 80.3856,0.2938 75.5376,0.2938 C44.6456,0.2938 18.1296,18.9078 6.5086,45.5178" id="Fill-13" fill="#633B8F"></path>
                        <path d="M75.5375,0.2935 C72.5545,0.2935 69.6265,0.5125 66.7345,0.8505 C64.6595,7.3765 63.5235,14.3195 63.5235,21.5325 C63.5235,59.2135 94.0705,89.7595 131.7505,89.7595 C138.3915,89.7595 144.7925,88.7645 150.8605,86.9955 L150.8605,75.6165 C150.8605,34.0165 117.1365,0.2935 75.5375,0.2935" id="Fill-15" fill="#3F1281"></path>
                        <path d="M148.3841,236.1662 L25.8501,236.1662 L25.8501,325.2492 L148.3841,325.2492 C171.4091,325.2492 190.2461,306.8982 190.2461,284.4682 L190.2461,276.9482 C190.2461,254.5182 171.4091,236.1662 148.3841,236.1662" id="Fill-17" fill="#58B8BA"></path>
                        <polygon id="Fill-19" fill="#54ADAE" points="82.169 236.1661 26.088 236.1661 57.78 325.2491 66.745 325.2491"></polygon>
                        <path d="M148.3842,236.1661 L83.6862,236.1661 L125.9742,325.2491 L148.3842,325.2491 C149.4852,325.2491 150.5662,325.1701 151.6462,325.0881 C155.9422,303.9661 163.4652,267.0651 168.7802,241.3941 C162.7332,238.0791 155.7812,236.1661 148.3842,236.1661" id="Fill-21" fill="#54ADAE"></path>
                        <path d="M43.3302,229.2362 C43.2382,229.0562 43.1712,228.8722 43.0662,228.6952 C40.7612,224.7842 33.8332,217.7332 31.2022,220.5042 C28.3702,223.4862 29.5372,231.0632 31.8422,234.9742 C32.2032,235.5862 32.6282,236.1252 33.0792,236.6282 L53.8472,236.6282 C54.0042,236.3842 54.1762,236.1562 54.3162,235.8952 C56.4502,231.8932 58.8022,222.4052 54.9882,221.7442 C51.1672,221.0802 45.7802,225.4072 43.3302,229.2362" id="Fill-23" fill="#54ADAE"></path>
                        <polygon id="Fill-25" fill="#58B8BA" points="137.5423 264.6315 136.4983 236.1665 125.3163 236.1665"></polygon>
                    </g>
                    <g id="Group-30" transform="translate(125.000000, 200.646000)">
                        <mask id="mask-2" fill="white">
                            <use xlink:href="#path-1"></use>
                        </mask>
                        <g id="Clip-29" style="mix-blend-mode: multiply;"></g>
                        <path d="M125.8271,56.063 C124.3881,25.474 98.8791,1.075 67.5191,1.075 L0.4821,0.482 L0.4821,141.732 L106.5601,123.33 L125.8271,58.643 C125.8981,58.173 125.8381,57.718 125.8271,57.251 L125.8271,56.063 Z" id="Fill-28" fill="#F3F3F3" style="mix-blend-mode: multiply;" opacity="0.8" mask="url(#mask-2)"></path>
                    </g>
                </g>
            </g>
        </g>
    </g>
</svg>