<svg width="387" height="454" viewBox="0 0 387 454" xmlns="http://www.w3.org/2000/svg" xmlns:xlink="http://www.w3.org/1999/xlink"><defs><path id="a" d="M322.153.514H.117V162.92h322.036V.514z"/></defs><g fill="none" fill-rule="evenodd"><g transform="translate(32.654 .327)"><mask id="b" fill="#fff"><use xlink:href="#a"/></mask><path d="M261.013 162.92L235.98 64.917c-.44-.67-1.63-1.594-2.397-1.852H83.878c-.418.204-.987.66-1.27 1.026l-20.783 97.606-61.708-12.92 20.89-98.143C27.096 22.06 53.883.51 83.325.51h150.648c28.857 0 55.96 20.926 63.049 48.667l25.13 98.38-61.14 15.363z" fill="#58C6C7" mask="url(#b)"/></g><path d="M329.16 305.12H57.692C25.88 305.12 0 279.6 0 248.233v-66.757c0-31.368 25.88-56.887 57.691-56.887h271.47c31.812 0 57.691 25.519 57.691 56.887v66.757c0 31.368-25.88 56.887-57.691 56.887zM63.158 242.838H323.69v-55.967H63.157v55.967z" fill="#58C6C7"/><path d="M93.782 350.839c-17.477 0-31.651-14.028-31.651-31.326V289.56c0-17.303 14.174-31.33 31.651-31.33 17.478 0 31.652 14.027 31.652 31.33v29.954c0 17.298-14.174 31.326-31.652 31.326M296.587 350.839c-17.478 0-31.652-14.028-31.652-31.326V289.56c0-17.303 14.174-31.33 31.652-31.33 17.477 0 31.651 14.027 31.651 31.33v29.954c0 17.298-14.174 31.326-31.651 31.326M372.785 454c0-42.887-35.045-67.993-78.274-67.993H97.035c-43.24 0-78.279 25.106-78.279 67.992h354.029z" fill="#58C6C7"/></g></svg>