<svg width="120" height="128" viewBox="0 0 120 128" xmlns="http://www.w3.org/2000/svg" xmlns:xlink="http://www.w3.org/1999/xlink"><defs><path id="a" d="M0 43.917h105.39V.29H0v43.627z"/><path id="c" d="M101.874 43.714V.317H.493v43.397h101.381z"/><path id="e" d="M0 128.37h119.314V1.021H0z"/></defs><g transform="translate(0 -1)" fill="none" fill-rule="evenodd"><path d="M.488 66.301c0 32.416 26.396 58.694 58.957 58.694S118.4 98.717 118.4 66.3c0-32.415-26.395-58.693-58.956-58.693C26.884 7.608.488 33.886.488 66.3z" fill="#EDEBEB"/><path d="M42.502 114.724l2.42-13.068 17.186-14.263c4.871-4.042 12.109-3.386 16.17 1.462l-31.175 25.87h-4.6z" fill="#E5A57E"/><path d="M57.849 114.724l2.419-13.068 17.187-14.263c4.87-4.042 12.11-3.386 16.169 1.462l-31.173 25.87h-4.602z" fill="#E5A57E"/><path d="M58.907 87.84c0 6.434-4.945 11.649-11.046 11.649h-9.062c-6.102 0-6.536-5.215-6.536-11.648h26.644z" fill="#F8BD94"/><path d="M18.44 99.43c3.964-7.64 6.06-11.576 12.671-11.576h7.29c6.154 0 10.516 5.11 11.131 11.629h-1.97c0 1.078.887 1.969 2.041 2.123l-4.561.88c0 7.205-5.41 13.102-12.02 13.102h-6.174c-6.612 0-13.37 1.462-13.37-5.744l4.962-10.415z" fill="#F8BD94"/><g transform="translate(0 84.453)"><mask id="b" fill="#fff"><use xlink:href="#a"/></mask><path d="M17.674 17.013l54.362.186L89.221 2.94c4.87-4.04 12.11-3.386 16.168 1.463L75.873 28.998s-1.407 1.527-3.752 1.502c-1.45.025-27.23.025-27.23.025L21.387 43.917 0 25.6l17.674-8.587z" fill="#F8BD94" mask="url(#b)"/></g><path d="M39.634 93.611v-.043c.038-3.184 2.549-5.755 5.646-5.755h13.96c3.096 0 5.61 2.57 5.645 5.755h.002v.071h-.002c-.037 3.184-2.55 5.755-5.644 5.755H45.279c-3.096 0-5.607-2.57-5.645-5.755v-.028" fill="#F8BD94"/><path d="M57.43 97.392h2.225c2.147 0 3.89-1.783 3.917-3.992v-.02-.03h-.001c-.026-2.209-1.769-3.992-3.916-3.992H57.43v8.034z" fill="#F3E4DB"/><path d="M80.822 14.437l-2.42 13.069-17.187 14.262c-4.87 4.042-12.11 3.387-16.17-1.462l31.175-25.87h4.602z" fill="#E5A57E"/><path d="M65.475 14.437l-2.419 13.069-17.188 14.262c-4.87 4.042-12.11 3.387-16.17-1.462l31.174-25.87h4.603z" fill="#E5A57E"/><g transform="translate(17.44 .705)"><mask id="d" fill="#fff"><use xlink:href="#c"/></mask><path d="M101.874 17.015L74.024.317l-13.033 13.16s-25.78 0-27.23.027c-2.345-.027-3.751 1.501-3.751 1.501L.493 39.602c4.06 4.848 11.299 5.504 16.17 1.462l17.183-14.26 22.361.01v.037c1.152.155 2.038 1.041 2.042 2.117l-11.606.095c-3.096 0-5.608 2.57-5.645 5.755h-.002l.001.043v.026h.001c.036 3.186 2.549 5.756 5.645 5.756l26.978-.027v-.032c1.099-.118 2.816-.53 4.755-1.828 9.477-8.89 23.498-21.74 23.498-21.74" fill="#F8BD94" mask="url(#d)"/></g><path d="M66.642 31.554h-2.225c-2.148 0-3.89 1.784-3.916 3.993H60.5v.049h.002c.025 2.209 1.767 3.993 3.916 3.993h2.224v-8.035z" fill="#F3E4DB"/><mask id="f" fill="#fff"><use xlink:href="#e"/></mask><path fill="#FEFEFE" mask="url(#f)" d="M42.208 79.123h.852v-9.31h-.852z"/><path d="M27.417 79.884l.014-2.825-8.307-.038a.894.894 0 0 0-.9.888l-.005 1.042a.894.894 0 0 0 .892.895l8.306.038z" fill="#1A1414" mask="url(#f)"/><path d="M64.807 50.041c-1.217.044-2.175.485-2.884 1.234l-8.414 8.858c-.688.727-.261 1.984.74 1.988l10.15.047-.004.78-17.517-.08 11.77-11.904c1.153-1.134 1.304-1.61 3.285-1.601l17.18.32 1.218.432-15.524-.074z" fill="#159F9A" mask="url(#f)"/><path d="M62.23 85.189a6.978 6.978 0 0 0 2.086-4.95l-14.087-.064c-.019 3.873 3.122 7.027 7.01 7.045a7.04 7.04 0 0 0 4.992-2.031" fill="#3B3438" mask="url(#f)"/><path d="M32.202 67.696a17.434 17.434 0 0 0-5.215 12.372l70.343.323 9.354-2.187a6.952 6.952 0 0 0 5.38-6.73l.025-5.121a1.588 1.588 0 0 0-1.44-1.585l-20.283-1.94-45.686-.21a17.602 17.602 0 0 0-12.478 5.078" fill="#59BDBB" mask="url(#f)"/><path d="M26.87 80.068l45.768.21c.237 0 .474-.026.705-.08l6.685-1.563c4.503-1.052 7.692-5.041 7.714-9.645a4.603 4.603 0 0 0-4.176-4.596L66.17 62.729a3.096 3.096 0 0 0-.275-.013l-44.83-.206a1.91 1.91 0 0 0-1.923 1.897l-.037 7.858c-.02 4.29 3.457 7.784 7.766 7.803" fill="#41ACAE" mask="url(#f)"/><path d="M95.244 85.34a6.978 6.978 0 0 0 2.086-4.95l-14.088-.064c-.018 3.873 3.122 7.027 7.01 7.045a7.04 7.04 0 0 0 4.992-2.031M91.17 72.74l18.593.085a1.551 1.551 0 0 0 1.562-1.54l.014-3.179a2.513 2.513 0 0 0-2.507-2.518l-17.628-.082a2.58 2.58 0 0 0-2.598 2.563l-.01 2.085a2.58 2.58 0 0 0 2.574 2.586" fill="#3B3438" mask="url(#f)"/><path d="M106.331 69.193a2.054 2.054 0 0 0 2.05 2.059 2.054 2.054 0 0 0 2.07-2.04 2.055 2.055 0 0 0-2.05-2.06 2.055 2.055 0 0 0-2.07 2.04M89.662 69.116a2.054 2.054 0 0 0 2.05 2.06 2.054 2.054 0 0 0 2.07-2.041 2.055 2.055 0 0 0-2.05-2.06 2.055 2.055 0 0 0-2.07 2.041" fill="#FEFEFE" mask="url(#f)"/><path d="M70.91 85.228a6.978 6.978 0 0 0 2.085-4.949l-14.088-.064c-.018 3.873 3.122 7.026 7.011 7.045a7.04 7.04 0 0 0 4.991-2.032M60.993 75.266a6.976 6.976 0 0 0-2.085 4.949l14.087.064c.019-3.873-3.122-7.026-7.01-7.045a7.04 7.04 0 0 0-4.992 2.032M37.896 85.077a6.978 6.978 0 0 0 2.086-4.95l-14.088-.064c-.018 3.873 3.122 7.027 7.011 7.045a7.04 7.04 0 0 0 4.991-2.031" fill="#1A1414" mask="url(#f)"/><path d="M27.98 75.114a6.976 6.976 0 0 0-2.086 4.95l14.088.064c.018-3.873-3.122-7.027-7.011-7.045a7.04 7.04 0 0 0-4.991 2.031" fill="#1A1414" mask="url(#f)"/><path d="M35.738 80.761a2.957 2.957 0 0 1-3.405 2.422 2.947 2.947 0 0 1-2.432-3.389 2.959 2.959 0 0 1 3.405-2.422 2.947 2.947 0 0 1 2.432 3.39" fill="#514A4E" mask="url(#f)"/><path d="M58.031 51.108l6.37 10.931-34.133-.156c-1.003-.004-1.517-1.198-.83-1.924l8.326-8.795a3.974 3.974 0 0 1 2.9-1.239l15.44.072a2.242 2.242 0 0 1 1.927 1.11zm2.513-.992l1.389-.799-23.213-.17c-1.621-.007-2.9.34-4.053 1.474L22.895 62.758l43.275-.029-6.172-10.051.546-2.562z" fill="#41ACAE" mask="url(#f)"/><path d="M62.26 50.025l16.174.074a6.033 6.033 0 0 1 5.146 2.92l5.49 9.134-22.647-.104-5.644-9.447c-.68-1.14.148-2.584 1.48-2.577zm-.327-.708c-1.745-.008-2.83 1.884-1.935 3.375l6.034 10.061 24.334.112-6.384-10.563a6.035 6.035 0 0 0-5.137-2.908l-16.912-.077zM35.818 64.419a.988.988 0 0 0-.296.704l4.53.02a1 1 0 0 0-.997-1l-2.527-.013a1.002 1.002 0 0 0-.71.289" fill="#59BDBB" mask="url(#f)"/><path d="M63.741 69.703a.988.988 0 0 0 .297-.704l-28.87-.133a.998.998 0 0 0 .996 1.002l26.867.124c.277 0 .528-.11.71-.29M97.2 77.762l5.455.025a1.466 1.466 0 0 0 1.476-1.456l.006-1.185a1.466 1.466 0 0 0-1.463-1.47l-5.455-.026a1.467 1.467 0 0 0-1.476 1.457l-.006 1.186a1.466 1.466 0 0 0 1.463 1.47" fill="#1A1414" mask="url(#f)"/><path d="M60.51 52.358l5.952 9.691 22.608.103-5.6-9.304c-1.353-2.065-3.23-2.741-5.337-2.75l-16.146-.075c-1.33-.006-2.157 1.301-1.478 2.335M29.702 61.88l34.699.16-5.512-9.46c-1.085-1.635-1.084-2.576-3.19-2.586l-15.501-.07a2.938 2.938 0 0 0-2.134.9c-1.848 1.918-6.15 6.405-8.236 8.724-1.014 1.126-1.017 1.865-.126 2.332" fill="#79C7C6" mask="url(#f)"/><path fill="#B6DEDF" mask="url(#f)" d="M66.713 50.055L73.04 62.09l10.3.047-6.327-12.035zM41.348 49.94l6.328 12.033 10.3.047-6.326-12.034z"/><path d="M68.915 80.737a2.957 2.957 0 0 1-3.405 2.422 2.947 2.947 0 0 1-2.432-3.39 2.959 2.959 0 0 1 3.405-2.422 2.947 2.947 0 0 1 2.432 3.39" fill="#514A4E" mask="url(#f)"/></g></svg>