<svg width="500" height="500" viewBox="0 0 500 500" xmlns="http://www.w3.org/2000/svg" xmlns:xlink="http://www.w3.org/1999/xlink"><title>0B7497C4-E233-4D5C-AA4E-CAA6FA137D0A</title><defs><path id="a" d="M363.974 107.269V.685H.54V107.27z"/><path d="M.663 7.566a199.529 199.529 0 0 0 18.88 4.559V.385H.664v7.181z" id="c"/></defs><g fill="none" fill-rule="evenodd"><path d="M50 250.968c0 110.163 89.654 199.465 200.25 199.465 110.597 0 200.25-89.302 200.25-199.465 0-110.162-89.653-199.464-200.25-199.464C139.654 51.504 50 140.806 50 250.968" fill="#EDEBEB"/><path d="M107.71 215.877l-1.323-12.196-35.853 3.865a3.877 3.877 0 0 0-3.45 4.266l.488 4.494a3.885 3.885 0 0 0 4.285 3.433l35.853-3.862z" fill="#1A1414"/><path d="M254.41 68.974c-5.232.779-9.15 3.146-11.84 6.721L210.604 118c-2.611 3.47-.156 8.689 4.17 8.222l43.802-4.719.366 3.367-75.606 8.147 44.957-57.072c4.416-5.453 4.835-7.583 13.385-8.505l74.27-6.942 5.467 1.27-67.005 7.207z" fill="#159F9A"/><path d="M260.481 221.89c4.907-6.07 7.487-14.007 6.577-22.369l-60.803 6.553c1.817 16.718 16.903 28.805 33.688 27a30.524 30.524 0 0 0 20.538-11.185" fill="#3B3438"/><g transform="translate(104.953 109.611)"><mask id="b" fill="#fff"><use xlink:href="#a"/></mask><path d="M17.435 51.352C5.165 66.53-1.28 86.368.99 107.27L304.596 74.56l39.28-13.971c13.188-4.69 21.43-17.778 19.922-31.646l-2.402-22.116c-.385-3.538-3.415-6.2-6.987-6.142l-88.444 1.461L68.781 23.394c-20.998 2.26-39.08 12.778-51.346 27.958" fill="#59BDBB" mask="url(#b)"/></g><path d="M105.438 216.935l197.538-21.281a13.273 13.273 0 0 0 3.006-.688l28.068-9.982c18.909-6.727 30.718-25.485 28.56-45.365-1.116-10.256-9.898-17.98-20.256-17.808l-75.866 1.255c-.397.006-.797.031-1.194.075L71.806 143.985c-4.563.493-7.863 4.576-7.369 9.12l3.684 33.925c2.015 18.519 18.721 31.908 37.317 29.905" fill="#41ACAE"/><path d="M402.968 206.538c4.907-6.07 7.487-14.006 6.577-22.368l-60.804 6.553c1.817 16.718 16.904 28.805 33.689 26.999a30.524 30.524 0 0 0 20.538-11.184M375.909 154.501l85.57-9.219c2.602-.28 4.481-2.606 4.2-5.198l-2.058-18.935c-.457-4.199-4.244-7.235-8.46-6.78l-82.645 8.904c-4.329.464-7.456 4.335-6.987 8.645l1.695 15.622c.469 4.31 4.356 7.428 8.685 6.961" fill="#3B3438"/><path d="M442.901 131.486c.532 4.887 4.942 8.421 9.849 7.892 4.91-.526 8.46-4.918 7.928-9.807-.532-4.89-4.942-8.422-9.849-7.892-4.91.526-8.46 4.917-7.928 9.807M370.956 139.237c.532 4.887 4.942 8.422 9.849 7.892 4.91-.526 8.46-4.917 7.928-9.807-.532-4.89-4.942-8.422-9.852-7.892-4.907.526-8.456 4.918-7.925 9.807" fill="#FEFEFE"/><path d="M155.453 233.205c4.907-6.07 7.487-14.006 6.577-22.368l-60.804 6.553c1.817 16.718 16.904 28.805 33.689 26.999 8.4-.907 15.63-5.111 20.538-11.184" fill="#1A1414"/><path d="M107.804 195.022c-4.907 6.07-7.487 14.005-6.577 22.368l60.803-6.553c-1.817-16.718-16.903-28.809-33.688-27-8.4.907-15.631 5.112-20.538 11.185" fill="#1A1414"/><path d="M144.034 215.629c-.373 7.054-6.418 12.473-13.501 12.1-7.084-.371-12.526-6.391-12.154-13.446.376-7.054 6.42-12.473 13.505-12.1 7.083.371 12.522 6.392 12.15 13.446" fill="#514A4E"/><path d="M225.7 76.862l32.822 44.085-147.317 15.87c-4.329.465-7.13-4.434-4.52-7.9l31.616-41.99a17.221 17.221 0 0 1 11.906-6.748L216.84 73a9.744 9.744 0 0 1 8.86 3.862zm10.352-5.5l5.604-4.12-100.222 10.523c-6.996.754-12.344 2.868-16.76 8.322l-44.847 58.081 186.661-21.103-31.537-40.385 1.1-11.318z" fill="#41ACAE"/><path d="M243.412 70.137l69.807-7.52c9.11-.982 18.07 2.852 23.628 10.105l28.15 36.75-97.748 10.534-28.963-38.024c-3.496-4.591-.625-11.225 5.126-11.845zm-1.758-2.896c-7.53.813-11.283 9.505-6.696 15.507l30.953 40.484 105.025-11.314-32.703-42.481c-5.558-7.226-14.5-11.038-23.587-10.057l-72.992 7.861zM136.386 145.07a4.305 4.305 0 0 0-.935 3.18l19.552-2.105c-.26-2.38-2.405-4.096-4.79-3.84l-10.906 1.174a4.352 4.352 0 0 0-2.921 1.591" fill="#59BDBB"/><path d="M259.425 154.333a4.305 4.305 0 0 0 .935-3.18l-124.607 13.423a4.344 4.344 0 0 0 4.792 3.84l115.959-12.492a4.352 4.352 0 0 0 2.92-1.591M405.813 173.095l27.318-2.944c2.462-.264 4.241-2.466 3.975-4.914l-.966-8.883c-.266-2.447-2.477-4.22-4.935-3.955l-27.321 2.943c-2.458.265-4.238 2.467-3.972 4.915l.966 8.882c.266 2.448 2.474 4.22 4.935 3.956" fill="#1A1414"/><path d="M237.002 81.054l30.418 38.934 97.576-10.515-28.707-37.435c-6.846-8.257-15.274-10.26-24.369-9.281l-69.689 7.509c-5.739.616-8.666 6.658-5.229 10.788M108.76 137.08l149.764-16.135-28.407-38.152c-5.476-6.522-5.933-10.583-15.024-9.605l-66.902 7.21a12.756 12.756 0 0 0-8.766 4.917c-7.03 9.176-23.4 30.622-31.262 41.637-3.822 5.354-3.475 8.543.597 10.128" fill="#79C7C6"/><path fill="#B6DEDF" d="M262.637 68.112l33.182 48.86 44.456-4.788-33.182-48.862zM153.163 79.906l33.182 48.86 44.457-4.787-33.183-48.863z"/><g><path d="M292.423 419.349h-88.916c-3.603 0-6.303-3.28-5.606-6.8l26.51-133.26a5.708 5.708 0 0 1 5.607-4.585h28.929a5.706 5.706 0 0 1 5.54 4.31l33.48 133.261c.902 3.593-1.826 7.074-5.544 7.074" fill="#E43256"/><path d="M297.966 412.276L264.49 279.015a5.713 5.713 0 0 0-5.544-4.311H248.43c.16.51.271 1.041.292 1.6l5.757 143.045h37.943c3.718 0 6.447-3.481 5.544-7.073" fill="#E43256"/><path d="M270.44 287.686a7.23 7.23 0 0 1-5.133-2.124 7.194 7.194 0 0 1 .025-10.201l31.274-30.992-26.438-34.136a7.191 7.191 0 0 1 1.31-10.117c3.168-2.434 7.712-1.85 10.155 1.305l30.34 39.172a7.19 7.19 0 0 1-.628 9.52l-35.796 35.473a7.245 7.245 0 0 1-5.109 2.1" fill="#F3BD89"/><path d="M281.807 283.113a9.282 9.282 0 0 1-2.098 2.128l-11.454 8.365c-4.164 3.044-10.018 2.145-13.074-2.006-3.052-4.148-2.15-9.98 2.014-13.023l11.458-8.362a9.13 9.13 0 0 1 2.07-1.131l11.084 14.03z" fill="#F3A521"/><path d="M218.945 287.45a7.23 7.23 0 0 1-5.108-2.1l-35.797-35.472a7.191 7.191 0 0 1-1.028-8.945l19.8-31.477c2.121-3.377 6.592-4.398 9.979-2.284a7.2 7.2 0 0 1 2.293 9.944l-16.73 26.594 31.7 31.415a7.194 7.194 0 0 1 .024 10.2 7.236 7.236 0 0 1-5.133 2.125" fill="#F3BD89"/><path d="M206.236 281.419a9.282 9.282 0 0 0 2.098 2.127l11.453 8.365c4.164 3.044 10.018 2.145 13.074-2.006 3.053-4.148 2.15-9.979-2.014-13.023l-11.457-8.361a9.13 9.13 0 0 0-2.07-1.132l-11.084 14.03z" fill="#F3A521"/><path d="M226.367 401.002a2.149 2.149 0 0 1-2.153-2.214l2.066-61.75a2.144 2.144 0 0 1 2.147-2.073l11.014-.014a2.146 2.146 0 0 1 2.154 2.215l-1.697 50.786c-.244 7.268-6.227 13.04-13.53 13.05" fill="#4B2F86"/><path d="M263.036 330.497c-.049 7.313-5.61 13.22-12.423 13.189l-13.224-.056c-6.812-.027-12.293-5.98-12.244-13.293l.164-24.182c.048-7.313 5.61-13.217 12.418-13.189l13.228.056c6.809.027 12.293 5.98 12.245 13.293l-.164 24.182z" fill="#4B2F86"/><path d="M263.499 310.95l.185-26.941c.041-5.932-4.293-10.805-9.635-10.826l-19.06-.083c-5.343-.021-9.744 4.814-9.785 10.746l-.227 33.445c-.003.479.032.951.084 1.416l-.07 10.104 38.386.163.122-18.024z" fill="#ED8826"/><path d="M251.06 250.98l-19.677 4.471c-8.914 2.027-17.872-3.582-19.904-12.46l-2.847-12.43c-2.035-8.878 3.596-17.801 12.51-19.828l19.677-4.47c8.913-2.028 17.869 3.581 19.904 12.46l2.847 12.429c2.035 8.882-3.596 17.802-12.51 19.829" fill="#1D1C1B"/><path d="M253.071 244.387l-9.903 2.25c-7.07 1.606-14.178-2.84-15.792-9.886l-5.056-22.078c-1.617-7.042 2.85-14.123 9.924-15.73l9.903-2.253c7.074-1.607 14.179 2.843 15.796 9.889l5.056 22.075c1.613 7.046-2.854 14.126-9.928 15.733" fill="#1D1C1B"/><path d="M266.04 240.895c3.29 14.362-5.757 28.67-20.204 31.953-14.447 3.28-28.824-5.7-32.113-20.062-3.293-14.366 5.753-28.67 20.2-31.953 14.447-3.283 28.827 5.7 32.117 20.062" fill="#F3BD89"/><path d="M238.614 256.97a2.553 2.553 0 0 1 1.927-3.054l1.843-.416a2.558 2.558 0 0 1 3.063 1.92l-6.833 1.55z" fill="#F29353"/><path d="M259.38 239.916c-2.022-8.823-7.917-15.762-15.493-19.461 10.593 1.582 19.64 9.423 22.162 20.44 3.29 14.362-5.757 28.665-20.204 31.949-1.69.385-3.376.593-5.049.652 13.688-4.817 21.883-19.17 18.583-33.58" fill="#EAAE79"/><path d="M226.792 246.775a2.707 2.707 0 0 0-3.241-2.027 2.695 2.695 0 0 0-2.035 3.225 2.71 2.71 0 0 0 3.24 2.03 2.698 2.698 0 0 0 2.036-3.228" fill="#13110D"/><path d="M219.22 240.592l5.757.031" fill="#AE8C20"/><path d="M218.756 242.743c-.394-.27-.665-.874-.662-1.568.004-.948.509-1.711 1.133-1.706l5.756.048c.62.005 1.122.779 1.119 1.722-.004.948-.51 1.711-1.133 1.706l-5.756-.048a.857.857 0 0 1-.457-.154" fill="#1D1C1B"/><path d="M257.248 239.854a2.707 2.707 0 0 0-3.241-2.027 2.695 2.695 0 0 0-2.035 3.224 2.71 2.71 0 0 0 3.24 2.03 2.698 2.698 0 0 0 2.036-3.227" fill="#13110D"/><path d="M250.524 235.02l5.39-2.01" fill="#AE8C20"/><path d="M250.773 236.111a1.13 1.13 0 0 1-1.303-.7c-.22-.58.077-1.23.659-1.445l5.394-2.006a1.13 1.13 0 0 1 1.45.66c.215.58-.08 1.225-.663 1.443l-5.39 2.007a1.157 1.157 0 0 1-.147.041" fill="#1D1C1B"/><path d="M243.77 232.9a6.278 6.278 0 0 0 .718-8.867l-5.286-5.61a6.33 6.33 0 0 0-8.903-.714L243.77 232.9z" fill="#EAAE79"/><path d="M220.57 215.64a6.274 6.274 0 0 1-1.987-8.674l8.478-13.436c1.857-2.943 5.753-3.828 8.708-1.982l-15.2 24.092z" fill="#1D1C1B"/><path d="M226.324 212.668a6.272 6.272 0 0 1 .167-8.896l11.474-11.01a6.332 6.332 0 0 1 8.931.164l-20.572 19.742zM222.196 219.687a6.273 6.273 0 0 0-2.38-8.573l-6.896-3.467c-3.035-1.715-6.889-.653-8.61 2.37l17.886 9.67zM244.31 227.701a6.273 6.273 0 0 0-2.38-8.573l-6.896-3.467c-3.035-1.715-6.889-.653-8.61 2.37l17.886 9.67z" fill="#1D1C1B"/><path d="M231.862 258.86a4.672 4.672 0 0 1-3.53 5.594 4.694 4.694 0 0 1-5.62-3.516 4.674 4.674 0 0 1 3.533-5.595c2.526-.576 5.042 1 5.617 3.516M261.68 252.083a4.672 4.672 0 0 1-3.53 5.595 4.694 4.694 0 0 1-5.62-3.516 4.674 4.674 0 0 1 3.533-5.595c2.526-.576 5.042 1 5.617 3.516" fill="#F6A968"/><path d="M257.605 262.871a6.217 6.217 0 0 0 1.164-8.74l-9.941 7.58a6.278 6.278 0 0 0 8.777 1.16" fill="#FEFEFE"/><g transform="translate(189.867 437.862)"><mask id="d" fill="#fff"><use xlink:href="#c"/></mask><path d="M3.657.385l12.924 7.49a5.92 5.92 0 0 1 2.153 8.111L.664 5.511 3.656.385z" fill="#13110D" mask="url(#d)"/></g><path d="M281.132 388.859c-3.791 1.899-8.412.364-10.304-3.419l-22.82-45.645 13.705-6.852 22.841 45.687c1.882 3.766.352 8.34-3.422 10.229" fill="#4B2F86"/><path d="M269.738 444.214l14.953.08c3.289.013 5.94 2.682 5.927 5.962l-20.911-.11.031-5.932zM205.682 448.25l-13.338-7.515 33.758-55.801 13.339 7.514z" fill="#13110D"/><path fill="#13110D" d="M285.04 447.077l-15.332-.063.432-65.082 15.332.062z"/><path d="M239.182 276.903v-.538c0-1.794-1.585-3.262-3.526-3.262h-3.805c-1.941 0-3.527 1.468-3.527 3.262v.538h10.858zM261.074 276.903v-.538c0-1.794-1.585-3.262-3.526-3.262h-3.805c-1.941 0-3.527 1.468-3.527 3.262v.538h10.858z" fill="#E43256"/><g fill="#F3BD89"><path d="M185.14 244.68c7.113-8.806 18.43-28.312 27.804-36.753.087-.08.192-.146.282-.222l-.115-.06a6.319 6.319 0 0 0-5.763-.222c-.122-.083-.237-.173-.363-.25-3.39-2.117-7.857-1.093-9.983 2.28l-19.8 31.478a7.19 7.19 0 0 0 1.032 8.945l.272.27c2.3-1.239 4.624-2.978 6.635-5.466M271.67 200.114a7.194 7.194 0 0 0-1.31 10.118l3.62 4.675c4.942-.802 13.712 1.94 21.48 4.116l-13.632-17.604c-2.443-3.155-6.99-3.738-10.158-1.305"/></g></g><g><path d="M297.94 217.853c4.906-6.07 7.486-14.005 6.576-22.367l-60.804 6.552c1.818 16.719 16.904 28.806 33.69 27a30.524 30.524 0 0 0 20.537-11.185" fill="#1A1414"/><path d="M250.29 179.67c-4.907 6.07-7.487 14.006-6.577 22.369l60.804-6.553c-1.817-16.718-16.904-28.809-33.689-27-8.4.907-15.63 5.112-20.538 11.185" fill="#1A1414"/><path d="M287.14 199.44c-.372 7.054-6.417 12.473-13.501 12.1-7.084-.371-12.525-6.391-12.153-13.445.375-7.055 6.42-12.474 13.504-12.1 7.084.37 12.522 6.39 12.15 13.445" fill="#514A4E"/></g></g></svg>