<svg width="480" height="480" viewBox="0 0 480 480" xmlns="http://www.w3.org/2000/svg" xmlns:xlink="http://www.w3.org/1999/xlink"><title>Assistência para danos elétricos</title><defs><path id="a" d="M400.909 400.98V.07H0v400.91H400.91z"/></defs><g fill="none" fill-rule="evenodd"><path d="M440.91 229.455c0 110.708-89.748 200.455-200.456 200.455C129.746 429.91 40 340.163 40 229.455 40 118.747 129.746 29 240.454 29c110.709 0 200.455 89.747 200.455 200.455" fill="#EEEEED"/><path d="M305.88 453.93h-34.093v-26.55h34.094c6.514 0 11.812-5.298 11.812-11.812v-75.854h26.549v75.854c0 21.152-17.21 38.361-38.361 38.361" fill="#633B8F"/><g transform="translate(40 26.931)"><mask id="b" fill="#fff"><use xlink:href="#a"/></mask><path d="M400.91 200.524c0 110.708-89.748 200.455-200.456 200.455C89.746 400.98 0 311.232 0 200.524 0 89.816 89.746.07 200.454.07 311.163.07 400.91 89.816 400.91 200.524" fill="#EEEEED" mask="url(#b)"/></g><path d="M304.967 453.93h-41.84c-21.151 0-38.36-17.21-38.36-38.362V293.804h26.549v121.764c0 6.514 5.298 11.812 11.812 11.812h41.839v26.55z" fill="#633B8F"/><path d="M201.506 208.536c-8.53 0-15.508-6.979-15.508-15.508V98.301c0-8.53 6.978-15.509 15.508-15.509s15.508 6.979 15.508 15.509v94.727c0 8.529-6.978 15.508-15.508 15.508M279.048 208.953c-8.53 0-15.508-6.98-15.508-15.508V98.718c0-8.53 6.978-15.51 15.508-15.51s15.508 6.98 15.508 15.51v94.727c0 8.529-6.978 15.508-15.508 15.508" fill="#F7B400"/><path d="M200.548 277.863c0 9.067 5.896 16.416 13.17 16.416h51.456c7.273 0 13.17-7.349 13.17-16.416h-77.796z" fill="#633B8F"/><path d="M299.395 277.781H181.16c-13.006 0-23.647-9.905-23.647-22.01v-69.398c0-12.106 10.641-22.01 23.647-22.01h118.235c13.006 0 23.647 9.904 23.647 22.01v69.397c0 12.106-10.641 22.011-23.647 22.011" fill="#3F1281"/><path d="M339.748 186.289c0-18.74-15.125-33.93-33.784-33.93H173.972c-18.655 0-33.78 15.19-33.78 33.93h199.555z" fill="#633B8F"/><path d="M139.558 327.609c-6.992-6.992-7.322-18.105-.732-24.694l176.668-176.67c6.59-6.588 17.702-6.26 24.695.733 6.993 6.993 7.321 18.105.732 24.695L164.253 328.34c-6.59 6.59-17.702 6.26-24.694-.732" fill="#E46454"/><path d="M338.729 125.668c-2.54-2.327-5.551-3.591-8.694-3.905-5.24-.852-10.67.612-14.54 4.483l-20.8 20.8V98.967c0-2.721-.716-5.281-1.961-7.511-2.616-4.894-7.776-8.247-13.685-8.247-8.53 0-15.51 6.979-15.51 15.508v53.393h-25.671v292.674c6.555 5.686 15.039 9.145 24.398 9.145h42.753c22.394.2 39.06-16.648 39.06-37.8l.334-17-26.334 13.333-.333 4.667c0 6.514-6.213 10.251-12.727 10.251h-41.892c-6.513 0-11.811-5.298-11.811-11.811v-51.191l.097-70.099h13.762c7.167 0 12.985-7.14 13.154-16.025l20.204.027c13.713.473 24.588-9.086 24.588-20.152 0 0 .173-68.206.129-71.84h16.498c0-.054-.004-.106-.004-.16h.002l-.004-.069a34.184 34.184 0 0 0-.242-3.822c-.886-12.036-2.454-13.29-6.851-16.745a34.113 34.113 0 0 0-2.452-2.834l6.019-6.281 4.706-4.706a15.854 15.854 0 0 0 2.515-3.313c.022-.036.04-.073.062-.109a15.3 15.3 0 0 0 .525-.987 14.561 14.561 0 0 0 1.347-4.183c.052-.289.09-.58.127-.872.01-.103.026-.206.035-.309.573-5.225-1.213-10.79-5.344-14.921a18.864 18.864 0 0 0-1.46-1.31" fill-opacity=".5" fill="#D9D9D9" style="mix-blend-mode:multiply"/></g></svg>