<svg width="350" height="350" viewBox="0 0 350 350" xmlns="http://www.w3.org/2000/svg" xmlns:xlink="http://www.w3.org/1999/xlink"><title>D7FAD889-27FD-4E2C-B956-3078C91F7B14</title><defs><path id="a" d="M299.147.117H.543v166.437h298.604V.117z"/><path id="c" d="M0 167.883h324.387V.74H0z"/></defs><g transform="translate(13 91)" fill="none" fill-rule="evenodd"><g transform="translate(12.585 .623)"><mask id="b" fill="#fff"><use xlink:href="#a"/></mask><path d="M298.157 166.554c.646-5.64.99-11.37.99-17.182C299.147 66.94 232.302.117 149.846.117 67.388.117.543 66.94.543 149.372c0 5.812.345 11.543.99 17.182h296.624z" fill="#CAE9FA" mask="url(#b)"/></g><path d="M245.083 42.867c0 5.227-4.239 9.464-9.467 9.464-5.229 0-9.467-4.237-9.467-9.464s4.238-9.464 9.467-9.464c5.228 0 9.467 4.237 9.467 9.464" fill="#F2A537"/><path d="M243.21 55.102a9.433 9.433 0 0 1 2.773 6.692h-42.818c0-5.226 4.24-9.463 9.466-9.463h23.884a9.44 9.44 0 0 1 6.695 2.771" fill="#E5E2E2"/><path d="M217.65 55.102a9.433 9.433 0 0 1 2.773 6.692h-42.818c0-5.226 4.24-9.463 9.466-9.463h23.884a9.44 9.44 0 0 1 6.695 2.771" fill="#FEFEFE"/><path d="M232.843 45.639a9.428 9.428 0 0 1 2.773 6.692h-42.818c0-5.227 4.24-9.464 9.466-9.464h23.884a9.44 9.44 0 0 1 6.695 2.772M176.218 58.449a4.716 4.716 0 0 1 1.387 3.345h-9.467a4.733 4.733 0 0 1 8.08-3.345" fill="#FEFEFE"/><path d="M209.569 48.985a4.717 4.717 0 0 1 1.386 3.346h-9.467a4.733 4.733 0 0 1 8.08-3.346M58.119 46.223a6.13 6.13 0 0 0-1.802 4.35h27.828a6.152 6.152 0 0 0-6.152-6.151H62.47c-1.7 0-3.238.688-4.351 1.801" fill="#E5E2E2"/><path d="M74.73 46.223a6.13 6.13 0 0 0-1.801 4.35h27.828a6.152 6.152 0 0 0-6.152-6.151H79.082c-1.7 0-3.238.688-4.351 1.801" fill="#FEFEFE"/><path d="M64.856 40.073a6.13 6.13 0 0 0-1.801 4.35h27.828a6.153 6.153 0 0 0-6.152-6.152H69.208c-1.7 0-3.238.689-4.352 1.802M101.658 48.398a3.065 3.065 0 0 0-.9 2.174h6.152a3.076 3.076 0 0 0-5.252-2.174" fill="#FEFEFE"/><path d="M79.983 42.247a3.065 3.065 0 0 0-.9 2.175h6.152a3.076 3.076 0 0 0-5.252-2.175" fill="#E5E2E2"/><path d="M224.609 147.264h52.556c0-11.023-8.937-19.96-19.964-19.96h-50.378c-10.869 0-19.705 8.688-19.953 19.497h-16.912c-11.026 0-19.965 8.935-19.965 19.959h90.305c0-9.556-6.718-17.54-15.69-19.496" fill="#A2D1B0"/><path d="M296.616 146.976c0-10.932-8.863-19.793-19.798-19.793h-49.959c-10.933 0-19.799 8.861-19.799 19.793h89.556zM102.677 146.976c0-10.932-8.863-19.793-19.798-19.793h-49.96c-10.932 0-19.798 8.861-19.798 19.793h89.556z" fill="#FEFEFE"/><path d="M135.758 151.27c0-7.23-5.862-13.09-13.094-13.09H89.622c-7.231 0-13.095 5.86-13.095 13.09h59.23z" fill="#A2D1B0"/><path d="M105.924 166.76c0-9.295-7.537-16.83-16.834-16.83H46.61c-9.295 0-16.833 7.535-16.833 16.83h76.147zM311.627 166.76c0-11.024-11.423-19.96-25.516-19.96h-64.385c-14.091 0-25.517 8.936-25.517 19.96h115.418z" fill="#67BA84"/><path d="M137.545 69.798h-.019c-7.398.01-13.393 6.01-13.393 13.408v33.831c0 7.4 5.995 13.398 13.394 13.408H137.545c7.4-.01 13.394-6.009 13.394-13.408V83.206c0-7.398-5.994-13.398-13.394-13.408" fill="#8ABD23"/><mask id="d" fill="#fff"><use xlink:href="#c"/></mask><path fill="#7D4E24" mask="url(#d)" d="M61.71 167.288h5.877v-29.911h-5.878zM23.727 167.288h5.878v-29.911h-5.878z"/><path d="M86.6 155.849a4.986 4.986 0 0 1-4.987 4.985 4.986 4.986 0 1 1 4.987-4.985" fill="#25512F" mask="url(#d)"/><path d="M236.827 166.887c0-.043.003-.086.003-.13a8.595 8.595 0 0 0-8.596-8.594c-4.747 0-8.596 3.848-8.596 8.593 0 .045.003.088.003.131h17.186z" fill="#3AA935" mask="url(#d)"/><path d="M261.16 166.887c.001-.062.005-.123.005-.185 0-6.707-5.44-12.144-12.148-12.144-6.71 0-12.15 5.437-12.15 12.144 0 .062.005.123.005.185h24.289zM308.76 166.887c0-.076.004-.15.004-.227 0-8.233-6.676-14.906-14.911-14.906s-14.912 6.673-14.912 14.906c0 .076.005.151.006.227h29.812z" fill="#009640" mask="url(#d)"/><path d="M290.522 157.34a5.543 5.543 0 1 1-11.085-.002 5.543 5.543 0 0 1 11.085.002" fill="#95C11F" mask="url(#d)"/><path d="M313.63 161.947a4.674 4.674 0 0 1-4.674 4.673 4.674 4.674 0 1 1 0-9.347 4.674 4.674 0 0 1 4.675 4.674" fill="#3AA935" mask="url(#d)"/><path fill="#B98650" mask="url(#d)" d="M86.37 160.673h7.613v-46.466H86.37z"/><path d="M73.147 86.165c0 12.832-10.405 23.234-23.24 23.234-12.836 0-23.241-10.402-23.241-23.234 0-12.831 10.405-23.233 23.24-23.233 12.836 0 23.241 10.402 23.241 23.233M122.834 73.347c0 7.301-5.92 13.219-13.223 13.219-7.303 0-13.223-5.918-13.223-13.219 0-7.3 5.92-13.219 13.223-13.219 7.303 0 13.223 5.918 13.223 13.219" fill="#319244" mask="url(#d)"/><path d="M117.224 91.974c0 14.933-12.109 27.039-27.047 27.039S63.13 106.907 63.13 91.973c0-14.933 12.11-27.038 27.047-27.038 14.938 0 27.047 12.105 27.047 27.039" fill="#96C121" mask="url(#d)"/><path d="M87.573 125.422c0 13.274-10.764 24.034-24.042 24.034-13.278 0-24.043-10.76-24.043-24.034s10.765-24.034 24.043-24.034c13.278 0 24.042 10.76 24.042 24.034" fill="#006532" mask="url(#d)"/><path fill="#B98650" mask="url(#d)" d="M179.333 161.074h5.61v-28.441h-5.61zM260.012 166.948h5.61v-28.44h-5.61zM237.84 166.948h5.61v-28.44h-5.61z"/><path d="M255.518 115.192a3.22 3.22 0 0 1-3.22 3.22h-22.68a3.22 3.22 0 0 1-3.22-3.22l9.583-26.592a3.22 3.22 0 0 1 3.22-3.22h3.405a3.22 3.22 0 0 1 3.22 3.22l9.692 26.592z" fill="#458436" mask="url(#d)"/><path d="M255.518 129.64a3.22 3.22 0 0 1-3.22 3.22h-22.68a3.22 3.22 0 0 1-3.22-3.22l6.91-26.592a3.22 3.22 0 0 1 3.22-3.22h8.75a3.22 3.22 0 0 1 3.22 3.22l7.02 26.592z" fill="#458436" mask="url(#d)"/><path d="M255.518 145.692a3.22 3.22 0 0 1-3.22 3.22h-22.68a3.22 3.22 0 0 1-3.22-3.22l6.91-26.592a3.219 3.219 0 0 1 3.22-3.218h8.75a3.219 3.219 0 0 1 3.22 3.218l7.02 26.592z" fill="#458436" mask="url(#d)"/><path fill="#B98650" mask="url(#d)" d="M134.73 152.794h5.61v-28.44h-5.61z"/><path d="M181.767 89.427v-.001h-.009-.01c-7.398.01-13.393 6.01-13.393 13.408v20.472c0 7.399 5.995 13.397 13.394 13.408H181.767c7.4-.01 13.394-6.009 13.394-13.408v-20.472c0-7.398-5.994-13.398-13.394-13.407" fill="#458436" mask="url(#d)"/><path d="M261.864 74.605h-.022c-8.923.012-16.152 7.247-16.152 16.168v42.732c0 8.922 7.23 16.156 16.152 16.168h.022c8.923-.012 16.152-7.246 16.152-16.168V90.773c0-8.92-7.229-16.156-16.152-16.168" fill="#006532" mask="url(#d)"/><path d="M180.134 121.416c0 13.275-10.764 24.035-24.041 24.035-13.279 0-24.043-10.76-24.043-24.035 0-13.274 10.764-24.034 24.043-24.034 13.277 0 24.041 10.76 24.041 24.034M303.15 89.37c0 13.274-10.765 24.035-24.042 24.035-13.279 0-24.043-10.76-24.043-24.035 0-13.274 10.764-24.034 24.043-24.034 13.277 0 24.042 10.76 24.042 24.034" fill="#3AA935" mask="url(#d)"/><path d="M321.983 119.614c0 14.711-11.93 26.638-26.647 26.638-14.717 0-26.647-11.927-26.647-26.638 0-14.713 11.93-26.64 26.647-26.64 14.716 0 26.647 11.927 26.647 26.64" fill="#60B673" mask="url(#d)"/><path d="M324.387 153.062c0 8.185-6.638 14.82-14.826 14.82s-14.826-6.635-14.826-14.82c0-8.186 6.637-14.822 14.826-14.822 8.188 0 14.826 6.636 14.826 14.822" fill="#8ABD23" mask="url(#d)"/><path d="M55.567 135.107a6.144 6.144 0 0 1-6.145 6.142H6.144A6.144 6.144 0 0 1 0 135.107l13.187-50.742a6.143 6.143 0 0 1 6.144-6.143h16.696a6.144 6.144 0 0 1 6.144 6.143l13.396 50.742z" fill="#3AA935" mask="url(#d)"/><path d="M112.246 166.892c0-6.234-5.054-11.287-11.29-11.287H88.53c-6.235 0-11.29 5.053-11.29 11.287h35.006zM143.414 158.786a8.103 8.103 0 0 1-8.104 8.101 8.103 8.103 0 0 1-8.103-8.1 8.103 8.103 0 0 1 8.103-8.102 8.103 8.103 0 0 1 8.104 8.101" fill="#009640" mask="url(#d)"/><path d="M40.892 162.942a5.78 5.78 0 0 1 1.7 4.102H4.438a5.803 5.803 0 0 1 5.802-5.801h26.547c1.604 0 3.054.649 4.105 1.7" fill="#098B44" mask="url(#d)"/><path d="M68.953 162.942a5.78 5.78 0 0 1 1.7 4.102H32.498a5.803 5.803 0 0 1 5.802-5.801h26.547c1.604 0 3.054.649 4.105 1.7" fill="#098B44" mask="url(#d)"/><path d="M36.154 159.544a5.78 5.78 0 0 1-1.7-4.102h21.979c0 3.203-2.6 5.801-5.803 5.801H40.258a5.784 5.784 0 0 1-4.104-1.7" fill="#098B44" mask="url(#d)"/><path d="M40.892 157.14a5.78 5.78 0 0 1 1.7 4.103H18.16a5.803 5.803 0 0 1 5.802-5.801h12.825c1.604 0 3.054.65 4.105 1.699" fill="#098B44" mask="url(#d)"/><path d="M47.949 162.942c1.05 1.05 1.7 2.5 1.7 4.102H29.73a5.803 5.803 0 0 1 5.802-5.801h8.311c1.604 0 3.054.65 4.105 1.7" fill="#009D44" mask="url(#d)"/><path d="M45.704 151.34c1.05 1.05 1.7 2.5 1.7 4.102H27.066c0-3.204 2.6-5.802 5.802-5.802h8.73c1.604 0 3.054.65 4.105 1.7" fill="#3AA935" mask="url(#d)"/><path d="M179.808 162.942a5.78 5.78 0 0 1 1.7 4.102h-38.154a5.803 5.803 0 0 1 5.803-5.801h26.547c1.604 0 3.054.649 4.104 1.7" fill="#098B44" mask="url(#d)"/><path d="M207.87 162.942a5.78 5.78 0 0 1 1.699 4.102h-38.154a5.803 5.803 0 0 1 5.803-5.801h26.547c1.603 0 3.054.649 4.104 1.7" fill="#3AA935" mask="url(#d)"/><path d="M175.07 159.544a5.78 5.78 0 0 1-1.7-4.103h21.98c0 3.204-2.6 5.802-5.803 5.802h-10.372a5.784 5.784 0 0 1-4.105-1.7" fill="#098B44" mask="url(#d)"/><path d="M179.808 157.14a5.78 5.78 0 0 1 1.7 4.103h-24.432a5.803 5.803 0 0 1 5.803-5.801h12.825c1.604 0 3.054.649 4.104 1.699" fill="#098B44" mask="url(#d)"/><path d="M186.865 162.942a5.78 5.78 0 0 1 1.7 4.102h-19.918a5.803 5.803 0 0 1 5.803-5.801h8.31c1.604 0 3.055.649 4.105 1.7" fill="#009D44" mask="url(#d)"/><path d="M184.62 151.34a5.78 5.78 0 0 1 1.7 4.102h-20.337c0-3.204 2.6-5.802 5.803-5.802h8.73c1.603 0 3.054.65 4.104 1.7" fill="#3AA935" mask="url(#d)"/></g></svg>