<?xml version="1.0" encoding="UTF-8" standalone="no"?>
<svg viewBox="0 0 115 117" version="1.1" xmlns="http://www.w3.org/2000/svg" xmlns:xlink="http://www.w3.org/1999/xlink">
    <!-- Generator: Sketch 40.2 (33826) - http://www.bohemiancoding.com/sketch -->
    <title>Page 1</title>
    <desc>Created with Sketch.</desc>
    <defs>
        <polygon id="path-1" points="0 117.008403 113.970151 117.008403 113.970151 0.186420168 0 0.186420168"></polygon>
        <polygon id="path-3" points="0.911277311 8.54954622 10.2412101 8.54954622 10.2412101 0.865663866 0.911277311 0.865663866"></polygon>
        <polygon id="path-5" points="105.889035 0.186420168 0.148442017 0.186420168 0.148442017 117.008304 105.889035 117.008304 105.889035 0.186420168"></polygon>
    </defs>
    <g id="VIDA-LP-1920" stroke="none" stroke-width="1" fill="none" fill-rule="evenodd">
        <g id="VIDA_1920x_LP_Assist-Bike" transform="translate(-1028.000000, -885.000000)">
            <g id="Page-1" transform="translate(1028.500000, 884.000000)">
                <g id="Group-19" transform="translate(0.000000, 0.805176)">
                    <path d="M0,59.5891076 C0,91.0613933 25.5127899,116.574183 56.9850756,116.574183 C88.4573613,116.574183 113.970151,91.0613933 113.970151,59.5891076 C113.970151,28.1168218 88.4573613,2.60403193 56.9850756,2.60403193 C25.5127899,2.60403193 0,28.1168218 0,59.5891076 L0,59.5891076 Z" id="Fill-1" fill="#EDEBEB"></path>
                    <path d="M42.290605,103.116829 L44.5028571,91.1135513 L60.2186723,78.0115849 C64.6729244,74.3000387 71.2908403,74.9019378 75.0043697,79.3551983 L46.4979496,103.116829 L42.290605,103.116829 Z" id="Fill-3" fill="#E5A57E"></path>
                    <path d="M56.3239782,103.116829 L58.5362303,91.1135513 L74.2520454,78.0115849 C78.7062975,74.3000387 85.325205,74.9019378 89.0377429,79.3551983 L60.5323143,103.116829 L56.3239782,103.116829 Z" id="Fill-5" fill="#E5A57E"></path>
                    <path d="M57.2913798,78.423395 C57.2913798,84.3323193 52.7696992,89.1227227 47.1909765,89.1227227 L38.9042034,89.1227227 C33.3244891,89.1227227 32.9268588,84.3323193 32.9268588,78.423395 L57.2913798,78.423395 Z" id="Fill-7" fill="#F8BD94"></path>
                    <path d="M78.3649899,56.6529899 C79.2118134,57.6465697 78.8449227,58.4606706 77.5498975,58.4606706 L55.9182168,58.4606706 C54.6241832,58.4606706 52.8700487,57.6465697 52.0242168,56.6529899 L38.1150908,42.0983345 C37.2692588,41.1047546 36.9489731,41.0095613 38.2439983,41.0095613 L64.6650908,40.0149899 C65.960116,40.0149899 68.0900655,39.7423008 68.8119479,41.2753092 L78.3649899,56.6529899 Z" id="Fill-9" fill="#B64140"></path>
                    <polyline id="Fill-11" fill="#FBDBD8" points="65.8879277 42.5351328 75.5074067 57.0203765 75.4122134 82.2009815 54.6898269 82.2009815 54.6898269 57.5786454"></polyline>
                    <mask id="mask-2" fill="white">
                        <use xlink:href="#path-1"></use>
                    </mask>
                    <g id="Clip-14"></g>
                    <polygon id="Fill-13" fill="#F19793" mask="url(#mask-2)" points="29.6061008 82.3322689 54.6915126 82.3322689 54.6915126 57.579042 29.6061008 57.579042"></polygon>
                    <path d="M60.5649378,80.9628739 C60.5649378,81.6193109 61.1023832,82.1557647 61.7578286,82.1557647 L70.3113412,82.1557647 C70.9677782,82.1557647 71.5042319,81.6193109 71.5042319,80.9628739 L71.5042319,62.6252773 C71.5042319,61.9688403 70.9677782,61.431395 70.3113412,61.431395 L61.7578286,61.431395 C61.1023832,61.431395 60.5649378,61.9688403 60.5649378,62.6252773 L60.5649378,80.9628739 Z" id="Fill-15" fill="#E7534F" mask="url(#mask-2)"></path>
                    <path d="M25.8274235,56.5310235 C24.990516,57.4988218 25.3544319,58.290116 26.6326,58.290116 L53.0804655,58.290116 C54.357642,58.290116 56.1345832,57.9807378 56.9199277,56.5310235 L66.5592387,42.458284 C67.394163,41.4914773 67.0302471,40.6991916 65.7540622,40.6991916 L40.1639277,40.6149059 C38.8877429,40.6149059 38.2947681,41.4805697 37.4598437,42.4473765 L25.8274235,56.5310235 Z" id="Fill-16" fill="#E7534F" mask="url(#mask-2)"></path>
                    <polygon id="Fill-17" fill="#FEFEFE" mask="url(#mask-2)" points="36.9211092 70.5768908 47.610521 70.5768908 47.610521 61.7229244 36.9211092 61.7229244"></polygon>
                    <polygon id="Fill-18" fill="#E7534F" mask="url(#mask-2)" points="37.6003529 70.0007731 46.9302857 70.0007731 46.9302857 62.3446555 37.6003529 62.3446555"></polygon>
                </g>
                <g id="Group-22" transform="translate(36.689076, 62.284168)">
                    <mask id="mask-4" fill="white">
                        <use xlink:href="#path-3"></use>
                    </mask>
                    <g id="Clip-21"></g>
                    <polygon id="Fill-20" fill="#F4C0CE" mask="url(#mask-4)" points="11.5984084 11.1525866 8.21210588 14.4843513 0.0225092437 -0.00783361345 3.40881176 -3.34058992"></polygon>
                </g>
                <g id="Group-37" transform="translate(3.966387, 0.805176)">
                    <mask id="mask-6" fill="white">
                        <use xlink:href="#path-5"></use>
                    </mask>
                    <g id="Clip-24"></g>
                    <polygon id="Fill-23" fill="#FEFEFE" mask="url(#mask-6)" points="32.2457311 70.9239496 44.193479 70.9239496 44.193479 70.0701849 32.2457311 70.0701849"></polygon>
                    <path d="M64.0126202,41.3780387 C64.0126202,42.1366101 63.4275782,42.7514 62.7047042,42.7514 L34.2339815,42.7514 C33.5111076,42.7514 32.9270571,42.1366101 32.9270571,41.3780387 C32.9270571,40.6204588 33.5111076,40.0056689 34.2339815,40.0056689 L62.7047042,40.0056689 C63.4275782,40.0056689 64.0126202,40.6204588 64.0126202,41.3780387" id="Fill-25" fill="#B64140" mask="url(#mask-6)"></path>
                    <path d="M66.7848269,70.8727832 C66.7848269,71.0294555 66.6579025,71.1573714 66.5012303,71.1573714 L64.6687597,71.1573714 C64.5120874,71.1573714 64.3861546,71.0294555 64.3861546,70.8727832 C64.3861546,70.7161109 64.5120874,70.5891866 64.6687597,70.5891866 L66.5012303,70.5891866 C66.6579025,70.5891866 66.7848269,70.7161109 66.7848269,70.8727832" id="Fill-26" fill="#FEFEFE" mask="url(#mask-6)"></path>
                    <path d="M75.6856958,82.4998487 L75.6856958,81.7968067 C75.6856958,80.522605 74.338116,79.4883697 72.6762,79.4883697 L24.4151916,79.4883697 C22.752284,79.4883697 21.4047042,80.522605 21.4047042,81.7968067 L21.4047042,82.4998487 L75.6856958,82.4998487 Z" id="Fill-27" fill="#FBDBD8" mask="url(#mask-6)"></path>
                    <path d="M16.3211849,89.0680857 C19.9464622,82.0505563 21.8622269,78.435195 27.9079916,78.435195 L34.5735042,78.435195 C40.2008151,78.435195 40.0193529,83.1294134 40.5825798,89.1166739 L38.7808487,89.1166739 C38.7808487,90.107279 39.5919748,90.9253462 40.6470336,91.0671445 L40.6470336,91.8743042 C40.6470336,98.4942034 35.6989664,103.910304 29.6541933,103.910304 L24.0100252,103.910304 C17.9632689,103.910304 11.7836387,105.252926 11.7836387,98.6340185 L16.3211849,89.0680857 Z" id="Fill-28" fill="#F8BD94" mask="url(#mask-6)"></path>
                    <path d="M15.6203244,90.9392286 L65.3310471,91.1107748 L81.0458706,78.0117832 C85.4991311,74.300237 92.1190303,74.9011445 95.8305765,79.3553966 L68.839316,101.947934 C68.839316,101.947934 67.5522235,103.350052 65.4093832,103.327245 C64.0836185,103.350052 40.5094,103.350052 40.5094,103.350052 L17.2227445,117.008304 L0.148442017,97.828842 L15.6203244,90.9392286 Z" id="Fill-29" fill="#F8BD94" mask="url(#mask-6)"></path>
                    <path d="M35.7020403,83.7237765 C35.7020403,83.7108857 35.7010487,83.697995 35.7010487,83.6841126 L35.7020403,83.6841126 C35.7367462,80.7589025 38.0322924,78.3989025 40.8642924,78.3989025 L53.6301076,78.3989025 C56.4601244,78.3989025 58.7586454,80.7589025 58.7913681,83.6841126 L58.7933513,83.6841126 C58.7933513,83.693037 58.7923597,83.7019613 58.7923597,83.7098941 C58.7923597,83.7227849 58.7933513,83.7356756 58.7933513,83.7485664 L58.7913681,83.7485664 C58.7586454,86.6747681 56.4601244,89.0347681 53.6301076,89.0347681 L40.8633008,89.0347681 C38.0322924,89.0347681 35.7367462,86.6747681 35.7020403,83.7485664 L35.7010487,83.7485664 C35.7010487,83.7406336 35.7020403,83.7327008 35.7020403,83.7237765" id="Fill-30" fill="#F8BD94" mask="url(#mask-6)"></path>
                    <path d="M51.9755294,87.1964471 L54.0092941,87.1964471 C55.9726555,87.1964471 57.5671429,85.5583294 57.5909412,83.5295227 L57.5919328,83.5295227 C57.5919328,83.5235731 57.5909412,83.5176235 57.5909412,83.5116739 C57.5909412,83.5027496 57.5919328,83.4938252 57.5919328,83.4849008 L57.5899496,83.4849008 C57.5671429,81.4551025 55.9726555,79.8169849 54.0092941,79.8169849 L51.9755294,79.8169849 L51.9755294,87.1964471 Z" id="Fill-31" fill="#F3E4DB" mask="url(#mask-6)"></path>
                    <polygon id="Fill-32" fill="#FEFEFE" mask="url(#mask-6)" points="38.0545042 70.4162521 38.7049916 70.4162521 38.7049916 61.8647227 38.0545042 61.8647227"></polygon>
                    <path d="M71.3818689,10.9993849 L69.1696168,23.0036538 L53.4528101,36.1046286 C48.9995496,39.8161748 42.3796504,39.2152672 38.6671126,34.7610151 L67.1735328,10.9993849 L71.3818689,10.9993849 Z" id="Fill-33" fill="#E5A57E" mask="url(#mask-6)"></path>
                    <path d="M57.3477025,10.9993849 L55.136442,23.0036538 L39.4196353,36.1046286 C34.9663748,39.8161748 28.3464756,39.2152672 24.6329462,34.7610151 L53.1393664,10.9993849 L57.3477025,10.9993849 Z" id="Fill-34" fill="#E5A57E" mask="url(#mask-6)"></path>
                    <path d="M105.889035,15.5251311 L80.4218588,0.186122689 L69.1959933,10.7654672 C69.1959933,10.7654672 45.6217748,10.7654672 44.2960101,10.7892655 C42.1521782,10.7654672 40.8650857,12.1685765 40.8650857,12.1685765 L13.8738252,34.7611143 C17.5873546,39.2153664 24.2062622,39.8162739 28.6605143,36.1047277 L44.372363,23.0057361 L69.0581613,23.0156521 L69.0581613,23.0493664 C70.1122286,23.1911647 70.9213714,24.0052655 70.9243462,24.9938874 L56.0751866,25.0811479 C53.2441782,25.0811479 50.9476403,27.4421395 50.9139261,30.3673496 L50.9119429,30.3673496 C50.9119429,30.3812319 50.9129345,30.3931311 50.9129345,30.4070134 C50.9129345,30.4149462 50.9119429,30.4238706 50.9119429,30.4318034 L50.9139261,30.4318034 C50.9466487,33.3570134 53.2441782,35.718005 56.0751866,35.718005 L80.7451193,35.6932151 L80.7451193,35.6634672 C81.7496067,35.5553832 83.3202958,35.1765933 85.0932706,33.9846941 C93.7598252,25.8188958 105.889035,15.5251311 105.889035,15.5251311" id="Fill-35" fill="#F8BD94" mask="url(#mask-6)"></path>
                    <path d="M58.4153546,26.7223395 L56.3805983,26.7223395 C54.4162454,26.7223395 52.8227496,28.3604571 52.7999429,30.3892639 L52.7989513,30.3892639 L52.7989513,30.4071126 L52.7989513,30.4338857 L52.8009345,30.4338857 C52.8227496,32.463684 54.4162454,34.1018017 56.3815899,34.1018017 L58.4153546,34.1018017 L58.4153546,26.7223395 Z" id="Fill-36" fill="#F3E4DB" mask="url(#mask-6)"></path>
                </g>
            </g>
        </g>
    </g>
</svg>