<svg width="500" height="500" viewBox="0 0 500 500" xmlns="http://www.w3.org/2000/svg" xmlns:xlink="http://www.w3.org/1999/xlink"><title>97F86498-C9F6-46D1-9708-37973A7D8428</title><defs><path d="M82.217.844C32.704 37.042.542 95.562.542 161.593c0 109.907 89.093 199 198.997 199 107.994 0 159.238 8.153 182.873-4.12V.845H82.217z" id="a"/></defs><g fill="none" fill-rule="evenodd"><path d="M52.025 250.527c0 109.904 89.093 198.997 198.997 198.997 109.904 0 198.997-89.093 198.997-198.997 0-109.904-89.093-198.997-198.997-198.997-109.904 0-198.997 89.093-198.997 198.997" fill="#EDEBEB"/><g transform="translate(50 87.838)"><mask id="b" fill="#fff"><use xlink:href="#a"/></mask><path fill="#778085" mask="url(#b)" d="M136.777 329.74h73.826v-74.937h-73.826z"/><path fill="#C2CAD0" mask="url(#b)" d="M144.18 329.74h73.826v-74.937H144.18z"/><path d="M334.509 282.168H12.11c-12.009 0-21.833-10.115-21.833-22.48V23.882c0-12.366 9.824-22.484 21.833-22.484h322.399c12.009 0 21.836 10.118 21.836 22.484v235.806c0 12.365-9.827 22.48-21.836 22.48" fill="#778085" mask="url(#b)"/><path d="M340.499 282.168H44.96c-22.372 0-40.676-18.304-40.676-40.677V42.078c0-22.372 18.304-40.68 40.676-40.68H340.5c22.373 0 40.677 18.308 40.677 40.68v199.413c0 22.373-18.304 40.677-40.677 40.677" fill="#C2CAD0" mask="url(#b)"/><path d="M358.695.845H26.763c-12.362 0-22.48 10.142-22.48 22.535v199.71h376.892V23.38c0-12.393-10.114-22.535-22.48-22.535" fill="#575756" mask="url(#b)"/><path d="M359.932.844h-28.166c.045.59.09 1.178.09 1.78V239.41c0 12.1-9.9 22-21.999 22H-8.404c.866 11.565 10.306 20.758 21.75 20.758h347.067c12.1 0 22-9.9 22-21.999V23.38c0-12.393-10.116-22.536-22.481-22.536" fill="#FEFEFE" opacity=".065" mask="url(#b)"/><path d="M195.862 246.658c0 6.829-5.409 11.93-12.016 11.93s-11.967-5.101-11.967-11.93c0-6.828 5.36-12.019 11.967-12.019s12.016 5.191 12.016 12.02m-6.146.045c0-3.948-2.636-6.697-5.87-6.697s-5.87 2.749-5.87 6.697c0 3.857 2.636 6.52 5.87 6.52s5.87-2.663 5.87-6.52M195.85 265.591c0-2.943-2.373-4.667-5.299-4.667h-13.363c-2.926 0-5.298 1.724-5.298 4.667h23.96z" fill="#645F65" mask="url(#b)"/><path d="M280.434 334.536a12.764 12.764 0 0 0-11.216-6.662H90.478a12.763 12.763 0 0 0-11.212 6.662h201.168z" fill="#C2CAD0" mask="url(#b)"/><path d="M287.722 350.984c-2.538-5.866-7.469-9.848-13.137-9.848H65.175c-5.668 0-10.603 3.982-13.137 9.848h235.684z" fill="#778085" mask="url(#b)"/><path fill="#778085" mask="url(#b)" d="M302.213 357.107l-21.067-13.49-218.61.321-10.5 7.047 20.999 14z"/><path d="M308.72 364.984c-2.54-5.866-7.47-9.848-13.139-9.848H86.171c-5.668 0-10.602 3.982-13.137 9.848H308.72zM93.791 342.223h-5.198a2.798 2.798 0 0 0-2.787 2.79h10.776a2.8 2.8 0 0 0-2.791-2.79M107.071 342.223h-5.197a2.798 2.798 0 0 0-2.788 2.79h10.776a2.8 2.8 0 0 0-2.79-2.79M120.352 342.223h-5.198a2.798 2.798 0 0 0-2.787 2.79h10.776a2.8 2.8 0 0 0-2.791-2.79M133.632 342.223h-5.198a2.798 2.798 0 0 0-2.787 2.79h10.776a2.8 2.8 0 0 0-2.791-2.79M146.912 342.223h-5.197a2.798 2.798 0 0 0-2.788 2.79h10.776a2.8 2.8 0 0 0-2.79-2.79M160.192 342.223h-5.197a2.798 2.798 0 0 0-2.788 2.79h10.776a2.8 2.8 0 0 0-2.79-2.79M173.473 342.223h-5.198a2.798 2.798 0 0 0-2.788 2.79h10.777a2.8 2.8 0 0 0-2.791-2.79M186.753 342.223h-5.198a2.798 2.798 0 0 0-2.787 2.79h10.776a2.8 2.8 0 0 0-2.791-2.79M200.033 342.223h-5.198a2.798 2.798 0 0 0-2.787 2.79h10.776a2.8 2.8 0 0 0-2.791-2.79M213.313 342.223h-5.197a2.798 2.798 0 0 0-2.788 2.79h10.776a2.8 2.8 0 0 0-2.79-2.79M226.593 342.223h-5.197a2.798 2.798 0 0 0-2.788 2.79h10.776a2.8 2.8 0 0 0-2.79-2.79M239.874 342.223h-5.198a2.798 2.798 0 0 0-2.787 2.79h10.776a2.8 2.8 0 0 0-2.791-2.79M253.154 342.223h-5.197a2.798 2.798 0 0 0-2.788 2.79h10.776a2.8 2.8 0 0 0-2.79-2.79M266.434 342.223h-5.197a2.798 2.798 0 0 0-2.788 2.79h10.776a2.8 2.8 0 0 0-2.79-2.79M97.927 350.869H92.73a2.798 2.798 0 0 0-2.788 2.79h10.776a2.8 2.8 0 0 0-2.79-2.79M111.208 350.869h-5.198a2.798 2.798 0 0 0-2.788 2.79H114a2.8 2.8 0 0 0-2.791-2.79M124.488 350.869h-5.198a2.798 2.798 0 0 0-2.787 2.79h10.776a2.8 2.8 0 0 0-2.791-2.79M137.768 350.869h-5.198a2.798 2.798 0 0 0-2.787 2.79h10.776a2.8 2.8 0 0 0-2.791-2.79M151.048 350.869h-5.197a2.798 2.798 0 0 0-2.788 2.79h10.776a2.8 2.8 0 0 0-2.79-2.79M164.328 350.869h-5.197a2.798 2.798 0 0 0-2.788 2.79h10.776a2.8 2.8 0 0 0-2.79-2.79M177.609 350.869h-5.198a2.798 2.798 0 0 0-2.787 2.79H180.4a2.8 2.8 0 0 0-2.791-2.79M190.889 350.869h-5.198a2.798 2.798 0 0 0-2.787 2.79h10.776a2.8 2.8 0 0 0-2.791-2.79M204.17 350.869h-5.198a2.798 2.798 0 0 0-2.788 2.79h10.776a2.8 2.8 0 0 0-2.79-2.79M217.45 350.869h-5.198a2.798 2.798 0 0 0-2.788 2.79h10.776a2.8 2.8 0 0 0-2.79-2.79M230.73 350.869h-5.198a2.798 2.798 0 0 0-2.787 2.79h10.776a2.8 2.8 0 0 0-2.791-2.79M244.01 350.869h-5.198a2.798 2.798 0 0 0-2.787 2.79H246.8a2.8 2.8 0 0 0-2.791-2.79M257.29 350.869h-5.198a2.798 2.798 0 0 0-2.787 2.79h10.776a2.8 2.8 0 0 0-2.791-2.79M270.57 350.869h-5.197a2.798 2.798 0 0 0-2.788 2.79h10.776a2.8 2.8 0 0 0-2.79-2.79M87.151 346.546h-5.197a2.798 2.798 0 0 0-2.788 2.79h10.776a2.8 2.8 0 0 0-2.79-2.79M100.431 346.546h-5.197a2.798 2.798 0 0 0-2.788 2.79h10.776a2.8 2.8 0 0 0-2.79-2.79M113.711 346.546h-5.197a2.798 2.798 0 0 0-2.788 2.79h10.776a2.8 2.8 0 0 0-2.79-2.79M126.992 346.546h-5.198a2.798 2.798 0 0 0-2.787 2.79h10.776a2.8 2.8 0 0 0-2.791-2.79M140.272 346.546h-5.197a2.798 2.798 0 0 0-2.788 2.79h10.776a2.8 2.8 0 0 0-2.79-2.79M153.552 346.546h-5.197a2.798 2.798 0 0 0-2.788 2.79h10.776a2.8 2.8 0 0 0-2.79-2.79M166.832 346.546h-5.197a2.798 2.798 0 0 0-2.788 2.79h10.776a2.8 2.8 0 0 0-2.79-2.79M180.113 346.546h-5.198a2.798 2.798 0 0 0-2.787 2.79h10.776a2.8 2.8 0 0 0-2.791-2.79M193.393 346.546h-5.198a2.798 2.798 0 0 0-2.787 2.79h10.776a2.8 2.8 0 0 0-2.791-2.79M206.673 346.546h-5.198a2.798 2.798 0 0 0-2.787 2.79h10.776a2.8 2.8 0 0 0-2.791-2.79M219.953 346.546h-5.197a2.798 2.798 0 0 0-2.788 2.79h10.776a2.8 2.8 0 0 0-2.79-2.79M233.234 346.546h-5.198a2.798 2.798 0 0 0-2.787 2.79h10.776a2.8 2.8 0 0 0-2.791-2.79M246.514 346.546h-5.198a2.798 2.798 0 0 0-2.787 2.79h10.776a2.8 2.8 0 0 0-2.791-2.79M259.794 346.546h-5.198a2.798 2.798 0 0 0-2.787 2.79h10.776a2.8 2.8 0 0 0-2.791-2.79" fill="#C2CAD0" mask="url(#b)"/><path d="M326.326 334.717h-12.241c-5.288 0-9.613 4.329-9.613 9.616h31.47c0-5.287-4.329-9.616-9.616-9.616" fill="#778085" mask="url(#b)"/><path d="M330.254 361.21l-25.784-16.878 8.671-7.836h18.716l23.675 15.5a3.487 3.487 0 0 1 1.465 3.805 3.495 3.495 0 0 1-2.961 2.576l-23.782 2.833z" fill="#778085" mask="url(#b)"/><path d="M352.109 351.594h-12.24c-5.288 0-9.613 4.329-9.613 9.616h31.469c0-5.287-4.328-9.616-9.616-9.616" fill="#C2CAD0" mask="url(#b)"/><path d="M320.206 335.58l8.889 5.768" stroke="#C2CAD0" stroke-width=".5" stroke-linecap="round" stroke-linejoin="round" mask="url(#b)"/><path d="M185.897 149.765v8.37M185.897 165.958v8.37M198.179 162.047h-8.37M181.986 162.047h-8.37M194.581 153.363l-5.918 5.918M183.132 164.813l-5.918 5.918M194.581 170.732l-5.918-5.918M183.132 159.282l-5.918-5.918" stroke="#C2CAD0" stroke-linecap="round" stroke-linejoin="round" mask="url(#b)"/><path d="M202.163 103.942l-25.77-25.929a10.678 10.678 0 0 0 1.223-4.917c.01-3.338-1.51-6.32-3.902-8.286-.939-.773-2.352-.139-2.355 1.077l-.02 5.973a2.424 2.424 0 0 1-2.432 2.417l-3.996-.014a2.422 2.422 0 0 1-2.417-2.43l.018-5.97c.003-1.202-1.392-1.87-2.324-1.116a10.667 10.667 0 0 0-3.975 8.1c-.118 5.765 4.581 10.73 10.347 10.914a10.647 10.647 0 0 0 5.287-1.198l25.77 25.93a10.593 10.593 0 0 0-1.222 4.916 10.652 10.652 0 0 0 3.902 8.287c.938.772 2.351.138 2.355-1.077l.02-5.974a2.422 2.422 0 0 1 2.431-2.416l3.996.01a2.43 2.43 0 0 1 2.417 2.434l-.017 5.97c-.003 1.202 1.392 1.866 2.324 1.115a10.667 10.667 0 0 0 3.975-8.1c.118-5.765-4.585-10.73-10.347-10.914a10.647 10.647 0 0 0-5.288 1.198" fill="#859298" mask="url(#b)"/><path d="M202.092 103.972l-25.77-25.929a10.678 10.678 0 0 0 1.223-4.917c.01-3.338-1.51-6.32-3.903-8.286-.938-.772-2.351-.139-2.354 1.077l-.021 5.973a2.424 2.424 0 0 1-2.431 2.417l-3.996-.014a2.422 2.422 0 0 1-2.417-2.43l.017-5.97c.004-1.202-1.392-1.87-2.323-1.116a10.667 10.667 0 0 0-3.975 8.1c-.118 5.765 4.58 10.73 10.346 10.914a10.647 10.647 0 0 0 5.288-1.198l25.77 25.93a10.593 10.593 0 0 0-1.223 4.916 10.652 10.652 0 0 0 3.903 8.287c.938.772 2.35.138 2.354-1.077l.021-5.973a2.422 2.422 0 0 1 2.431-2.417l3.996.01a2.43 2.43 0 0 1 2.417 2.434l-.017 5.97c-.004 1.202 1.392 1.867 2.323 1.115a10.667 10.667 0 0 0 3.975-8.1c.118-5.765-4.584-10.73-10.346-10.914a10.647 10.647 0 0 0-5.288 1.198" fill="#859298" mask="url(#b)"/><path d="M202.02 104.002l-25.77-25.929a10.635 10.635 0 0 0 1.223-4.917c.01-3.338-1.51-6.32-3.902-8.286-.939-.773-2.352-.139-2.355 1.076l-.02 5.974a2.424 2.424 0 0 1-2.432 2.417l-3.996-.014a2.422 2.422 0 0 1-2.417-2.431l.018-5.97c.003-1.201-1.392-1.87-2.324-1.115a10.667 10.667 0 0 0-3.975 8.1c-.118 5.765 4.581 10.73 10.347 10.914a10.647 10.647 0 0 0 5.287-1.198l25.77 25.93a10.593 10.593 0 0 0-1.222 4.916 10.652 10.652 0 0 0 3.902 8.287c.938.772 2.351.138 2.355-1.077l.02-5.974a2.422 2.422 0 0 1 2.431-2.417l3.996.01a2.43 2.43 0 0 1 2.417 2.435l-.017 5.97c-.003 1.201 1.392 1.866 2.324 1.111a10.654 10.654 0 0 0 3.975-8.095c.117-5.766-4.585-10.732-10.347-10.915a10.647 10.647 0 0 0-5.288 1.198" fill="#859298" mask="url(#b)"/><path d="M201.95 104.032l-25.77-25.929a10.678 10.678 0 0 0 1.222-4.917c.01-3.338-1.51-6.32-3.903-8.286-.938-.772-2.351-.139-2.354 1.077l-.021 5.973a2.424 2.424 0 0 1-2.431 2.417l-3.996-.014a2.422 2.422 0 0 1-2.417-2.43l.017-5.97c.004-1.202-1.392-1.87-2.323-1.116a10.667 10.667 0 0 0-3.975 8.1c-.118 5.765 4.58 10.73 10.346 10.914a10.647 10.647 0 0 0 5.288-1.198l25.77 25.93a10.593 10.593 0 0 0-1.223 4.916 10.652 10.652 0 0 0 3.903 8.287c.938.772 2.35.138 2.354-1.077l.021-5.973a2.422 2.422 0 0 1 2.431-2.417l3.996.01a2.43 2.43 0 0 1 2.417 2.434l-.017 5.97c-.004 1.202 1.392 1.866 2.323 1.115a10.667 10.667 0 0 0 3.975-8.1c.118-5.765-4.584-10.73-10.346-10.914a10.647 10.647 0 0 0-5.288 1.198" fill="#859298" mask="url(#b)"/><path d="M201.877 104.062l-25.77-25.93a10.635 10.635 0 0 0 1.223-4.916c.01-3.338-1.51-6.32-3.902-8.287-.939-.772-2.352-.138-2.355 1.077l-.02 5.974a2.424 2.424 0 0 1-2.432 2.417l-3.996-.014a2.422 2.422 0 0 1-2.417-2.431l.018-5.97c.003-1.201-1.392-1.87-2.324-1.115a10.667 10.667 0 0 0-3.975 8.1c-.118 5.765 4.581 10.73 10.347 10.914a10.647 10.647 0 0 0 5.287-1.198l25.77 25.929a10.593 10.593 0 0 0-1.222 4.917 10.652 10.652 0 0 0 3.902 8.286c.938.773 2.351.139 2.355-1.076l.02-5.974a2.422 2.422 0 0 1 2.431-2.417l3.996.01a2.43 2.43 0 0 1 2.417 2.435l-.017 5.97c-.003 1.201 1.392 1.866 2.324 1.115a10.667 10.667 0 0 0 3.975-8.1c.117-5.765-4.585-10.73-10.347-10.914a10.647 10.647 0 0 0-5.288 1.198" fill="#859298" mask="url(#b)"/><path d="M201.806 104.092l-25.77-25.929a10.678 10.678 0 0 0 1.223-4.917c.01-3.338-1.51-6.32-3.903-8.286-.938-.773-2.351-.139-2.354 1.077l-.021 5.973a2.424 2.424 0 0 1-2.431 2.417l-3.996-.014a2.422 2.422 0 0 1-2.417-2.43l.017-5.97c.004-1.202-1.392-1.87-2.323-1.116a10.667 10.667 0 0 0-3.975 8.1c-.118 5.765 4.58 10.73 10.346 10.914a10.647 10.647 0 0 0 5.288-1.198l25.77 25.93a10.593 10.593 0 0 0-1.223 4.916 10.652 10.652 0 0 0 3.903 8.287c.938.772 2.35.138 2.354-1.077l.021-5.974a2.422 2.422 0 0 1 2.431-2.417l3.996.01a2.43 2.43 0 0 1 2.417 2.435l-.017 5.97c-.004 1.201 1.392 1.866 2.323 1.111a10.654 10.654 0 0 0 3.975-8.095c.118-5.766-4.584-10.731-10.346-10.915a10.647 10.647 0 0 0-5.288 1.198" fill="#859298" mask="url(#b)"/><path d="M201.734 104.122l-25.77-25.93a10.678 10.678 0 0 0 1.223-4.916c.01-3.338-1.51-6.32-3.902-8.287-.939-.772-2.352-.138-2.355 1.077l-.02 5.974a2.424 2.424 0 0 1-2.432 2.417l-3.996-.014a2.422 2.422 0 0 1-2.417-2.431l.018-5.97c.003-1.202-1.392-1.87-2.324-1.115a10.667 10.667 0 0 0-3.975 8.1c-.118 5.765 4.581 10.73 10.347 10.914a10.647 10.647 0 0 0 5.287-1.198l25.77 25.929a10.593 10.593 0 0 0-1.222 4.917 10.652 10.652 0 0 0 3.902 8.286c.938.773 2.351.139 2.355-1.077l.02-5.973a2.422 2.422 0 0 1 2.431-2.417l3.996.01a2.43 2.43 0 0 1 2.417 2.435l-.017 5.97c-.003 1.201 1.392 1.866 2.324 1.115a10.667 10.667 0 0 0 3.975-8.1c.117-5.765-4.585-10.73-10.347-10.914a10.647 10.647 0 0 0-5.288 1.198" fill="#859298" mask="url(#b)"/><path d="M201.663 104.152l-25.77-25.93a10.678 10.678 0 0 0 1.222-4.916c.01-3.339-1.51-6.32-3.902-8.287-.939-.772-2.351-.138-2.355 1.077l-.02 5.973a2.424 2.424 0 0 1-2.431 2.417l-3.996-.014a2.422 2.422 0 0 1-2.417-2.43l.017-5.97c.003-1.202-1.392-1.87-2.324-1.115a10.667 10.667 0 0 0-3.975 8.1c-.118 5.765 4.581 10.73 10.347 10.914a10.647 10.647 0 0 0 5.287-1.198l25.77 25.929a10.593 10.593 0 0 0-1.222 4.917 10.652 10.652 0 0 0 3.902 8.286c.939.772 2.352.139 2.355-1.077l.02-5.973a2.422 2.422 0 0 1 2.432-2.417l3.996.01a2.43 2.43 0 0 1 2.417 2.435l-.018 5.97c-.003 1.201 1.392 1.866 2.324 1.114a10.667 10.667 0 0 0 3.975-8.099c.118-5.765-4.585-10.73-10.347-10.914a10.647 10.647 0 0 0-5.287 1.198" fill="#859298" mask="url(#b)"/><path d="M201.591 104.182l-25.77-25.93a10.678 10.678 0 0 0 1.223-4.916c.01-3.338-1.51-6.32-3.902-8.287-.939-.772-2.352-.138-2.355 1.077l-.02 5.973a2.424 2.424 0 0 1-2.432 2.417l-3.996-.013a2.422 2.422 0 0 1-2.417-2.431l.018-5.97c.003-1.202-1.392-1.87-2.324-1.115a10.667 10.667 0 0 0-3.975 8.1c-.118 5.765 4.581 10.73 10.346 10.914a10.647 10.647 0 0 0 5.288-1.198l25.77 25.929a10.593 10.593 0 0 0-1.222 4.917 10.652 10.652 0 0 0 3.902 8.286c.938.772 2.351.139 2.355-1.077l.02-5.973a2.422 2.422 0 0 1 2.431-2.417l3.996.01a2.43 2.43 0 0 1 2.417 2.435l-.017 5.97c-.003 1.201 1.392 1.866 2.323 1.115a10.667 10.667 0 0 0 3.976-8.1c.117-5.765-4.585-10.73-10.347-10.914a10.647 10.647 0 0 0-5.288 1.198" fill="#859298" mask="url(#b)"/><path d="M201.52 104.212l-25.77-25.93a10.678 10.678 0 0 0 1.222-4.917c.01-3.338-1.51-6.32-3.902-8.286-.939-.772-2.351-.138-2.355 1.077l-.02 5.973a2.424 2.424 0 0 1-2.431 2.417l-3.996-.014a2.422 2.422 0 0 1-2.417-2.43l.017-5.97c.003-1.202-1.392-1.87-2.324-1.115a10.667 10.667 0 0 0-3.975 8.1c-.118 5.765 4.581 10.73 10.347 10.914a10.647 10.647 0 0 0 5.287-1.198l25.77 25.929a10.593 10.593 0 0 0-1.222 4.917 10.652 10.652 0 0 0 3.902 8.286c.939.772 2.352.139 2.355-1.077l.02-5.973a2.422 2.422 0 0 1 2.432-2.417l3.996.01a2.43 2.43 0 0 1 2.417 2.435l-.018 5.97c-.003 1.2 1.392 1.866 2.324 1.114a10.667 10.667 0 0 0 3.975-8.099c.118-5.765-4.585-10.731-10.347-10.915a10.647 10.647 0 0 0-5.287 1.199" fill="#859298" mask="url(#b)"/><path d="M201.448 104.242l-25.77-25.93a10.678 10.678 0 0 0 1.223-4.916c.01-3.339-1.51-6.32-3.902-8.287-.939-.772-2.352-.138-2.355 1.077l-.02 5.973a2.424 2.424 0 0 1-2.432 2.417l-3.996-.014a2.422 2.422 0 0 1-2.417-2.43l.018-5.97c.003-1.202-1.392-1.87-2.324-1.115a10.667 10.667 0 0 0-3.975 8.1c-.118 5.765 4.581 10.73 10.346 10.914a10.647 10.647 0 0 0 5.288-1.198l25.77 25.929a10.593 10.593 0 0 0-1.223 4.917 10.652 10.652 0 0 0 3.903 8.286c.938.772 2.351.139 2.355-1.077l.02-5.973a2.422 2.422 0 0 1 2.431-2.417l3.996.01a2.43 2.43 0 0 1 2.417 2.435l-.017 5.97c-.003 1.201 1.392 1.866 2.323 1.111a10.654 10.654 0 0 0 3.976-8.096c.117-5.765-4.585-10.73-10.347-10.914a10.647 10.647 0 0 0-5.288 1.198" fill="#859298" mask="url(#b)"/><path d="M201.377 104.271l-25.77-25.929a10.678 10.678 0 0 0 1.222-4.917c.01-3.338-1.51-6.32-3.902-8.286-.939-.772-2.351-.139-2.355 1.077l-.02 5.973a2.424 2.424 0 0 1-2.431 2.417l-3.996-.014a2.422 2.422 0 0 1-2.417-2.43l.017-5.97c.003-1.202-1.392-1.87-2.324-1.115a10.667 10.667 0 0 0-3.975 8.099c-.118 5.765 4.581 10.731 10.347 10.915a10.647 10.647 0 0 0 5.287-1.199l25.77 25.93a10.593 10.593 0 0 0-1.222 4.917 10.652 10.652 0 0 0 3.902 8.286c.939.772 2.352.138 2.355-1.077l.02-5.973a2.422 2.422 0 0 1 2.432-2.417l3.996.01a2.43 2.43 0 0 1 2.417 2.435l-.018 5.97c-.003 1.2 1.392 1.866 2.324 1.114a10.667 10.667 0 0 0 3.975-8.1c.118-5.765-4.585-10.73-10.347-10.914a10.647 10.647 0 0 0-5.287 1.198" fill="#859298" mask="url(#b)"/><path d="M201.305 104.302l-25.77-25.93a10.678 10.678 0 0 0 1.223-4.917c.01-3.338-1.51-6.32-3.903-8.286-.938-.772-2.35-.138-2.354 1.077l-.02 5.973a2.424 2.424 0 0 1-2.432 2.417l-3.996-.014a2.422 2.422 0 0 1-2.417-2.43l.018-5.97c.003-1.202-1.393-1.87-2.324-1.115a10.667 10.667 0 0 0-3.975 8.1c-.118 5.765 4.581 10.73 10.346 10.914a10.647 10.647 0 0 0 5.288-1.198l25.77 25.929a10.593 10.593 0 0 0-1.223 4.917 10.652 10.652 0 0 0 3.903 8.286c.938.772 2.351.139 2.355-1.077l.02-5.973a2.422 2.422 0 0 1 2.431-2.417l3.996.01a2.43 2.43 0 0 1 2.417 2.435l-.017 5.97c-.003 1.201 1.392 1.866 2.323 1.114a10.667 10.667 0 0 0 3.976-8.099c.117-5.765-4.585-10.731-10.347-10.915a10.647 10.647 0 0 0-5.288 1.199" fill="#859298" mask="url(#b)"/><path d="M201.234 104.331l-25.77-25.929a10.635 10.635 0 0 0 1.222-4.917c.01-3.338-1.51-6.32-3.902-8.286-.939-.772-2.351-.139-2.355 1.077l-.02 5.973a2.424 2.424 0 0 1-2.431 2.417l-3.996-.014a2.422 2.422 0 0 1-2.417-2.43l.017-5.97c.003-1.202-1.392-1.87-2.324-1.115a10.667 10.667 0 0 0-3.975 8.099c-.118 5.765 4.581 10.731 10.347 10.914a10.647 10.647 0 0 0 5.287-1.198l25.77 25.93a10.593 10.593 0 0 0-1.222 4.917 10.652 10.652 0 0 0 3.902 8.286c.939.772 2.352.138 2.355-1.077l.02-5.973a2.422 2.422 0 0 1 2.432-2.417l3.996.01a2.43 2.43 0 0 1 2.417 2.434l-.018 5.97c-.003 1.202 1.392 1.867 2.324 1.112a10.654 10.654 0 0 0 3.975-8.096c.118-5.766-4.585-10.731-10.347-10.915a10.647 10.647 0 0 0-5.287 1.198" fill="#859298" mask="url(#b)"/><path d="M201.162 104.361l-25.77-25.929a10.678 10.678 0 0 0 1.223-4.917c.01-3.338-1.51-6.32-3.903-8.286-.938-.772-2.35-.138-2.354 1.077l-.021 5.973a2.424 2.424 0 0 1-2.43 2.417l-3.997-.014a2.422 2.422 0 0 1-2.417-2.43l.018-5.97c.003-1.202-1.393-1.87-2.324-1.115a10.667 10.667 0 0 0-3.975 8.099c-.118 5.766 4.581 10.731 10.346 10.915a10.647 10.647 0 0 0 5.288-1.198l25.77 25.929a10.593 10.593 0 0 0-1.223 4.917 10.652 10.652 0 0 0 3.903 8.286c.938.772 2.351.138 2.355-1.077l.02-5.973a2.422 2.422 0 0 1 2.431-2.417l3.996.01a2.43 2.43 0 0 1 2.417 2.435l-.017 5.97c-.004 1.2 1.392 1.866 2.323 1.114a10.667 10.667 0 0 0 3.976-8.099c.117-5.766-4.585-10.731-10.347-10.915a10.647 10.647 0 0 0-5.288 1.198" fill="#859298" mask="url(#b)"/><path d="M201.09 104.391l-25.769-25.929a10.635 10.635 0 0 0 1.222-4.917c.01-3.338-1.51-6.32-3.902-8.286-.939-.772-2.351-.139-2.355 1.077l-.02 5.973a2.424 2.424 0 0 1-2.431 2.417l-3.996-.014a2.422 2.422 0 0 1-2.417-2.43l.017-5.97c.003-1.202-1.392-1.87-2.324-1.116a10.667 10.667 0 0 0-3.975 8.1c-.118 5.765 4.581 10.73 10.347 10.914a10.647 10.647 0 0 0 5.287-1.198l25.77 25.93a10.593 10.593 0 0 0-1.222 4.916 10.652 10.652 0 0 0 3.902 8.287c.939.772 2.352.138 2.355-1.077l.02-5.973a2.422 2.422 0 0 1 2.432-2.417l3.996.01a2.43 2.43 0 0 1 2.417 2.434l-.018 5.97c-.003 1.202 1.392 1.867 2.324 1.115a10.667 10.667 0 0 0 3.975-8.1c.118-5.765-4.585-10.73-10.347-10.914a10.647 10.647 0 0 0-5.287 1.198" fill="#859298" mask="url(#b)"/><path d="M201.02 104.421l-25.77-25.929a10.678 10.678 0 0 0 1.222-4.917c.01-3.338-1.51-6.32-3.903-8.286-.938-.772-2.35-.139-2.354 1.077l-.021 5.973a2.424 2.424 0 0 1-2.43 2.417l-3.997-.014a2.422 2.422 0 0 1-2.417-2.43l.017-5.97c.004-1.202-1.392-1.87-2.323-1.115a10.667 10.667 0 0 0-3.975 8.099c-.118 5.765 4.581 10.731 10.346 10.915a10.647 10.647 0 0 0 5.288-1.199l25.77 25.93a10.593 10.593 0 0 0-1.223 4.917 10.652 10.652 0 0 0 3.903 8.286c.938.772 2.351.138 2.355-1.077l.02-5.973a2.422 2.422 0 0 1 2.431-2.417l3.996.01a2.43 2.43 0 0 1 2.417 2.434l-.017 5.97c-.004 1.202 1.392 1.867 2.323 1.112a10.654 10.654 0 0 0 3.976-8.096c.117-5.766-4.585-10.731-10.347-10.915a10.647 10.647 0 0 0-5.288 1.198" fill="#859298" mask="url(#b)"/><path d="M200.948 104.451l-25.77-25.929a10.678 10.678 0 0 0 1.222-4.917c.01-3.338-1.51-6.32-3.902-8.286-.939-.772-2.351-.139-2.355 1.077l-.02 5.973a2.424 2.424 0 0 1-2.431 2.417l-3.996-.014a2.422 2.422 0 0 1-2.417-2.43l.017-5.97c.003-1.202-1.392-1.87-2.324-1.116a10.667 10.667 0 0 0-3.975 8.1c-.118 5.765 4.581 10.73 10.347 10.914a10.647 10.647 0 0 0 5.287-1.198l25.77 25.93a10.593 10.593 0 0 0-1.222 4.916 10.652 10.652 0 0 0 3.902 8.287c.939.772 2.351.138 2.355-1.077l.02-5.973a2.422 2.422 0 0 1 2.432-2.417l3.996.01a2.43 2.43 0 0 1 2.417 2.434l-.018 5.97c-.003 1.202 1.392 1.866 2.324 1.115a10.667 10.667 0 0 0 3.975-8.1c.118-5.765-4.585-10.73-10.347-10.914a10.647 10.647 0 0 0-5.287 1.198" fill="#859298" mask="url(#b)"/><path d="M200.876 104.481l-25.77-25.929a10.678 10.678 0 0 0 1.223-4.917c.01-3.338-1.51-6.32-3.903-8.286-.938-.772-2.35-.139-2.354 1.077l-.021 5.973a2.424 2.424 0 0 1-2.43 2.417l-3.997-.014a2.422 2.422 0 0 1-2.417-2.43l.017-5.97c.004-1.202-1.392-1.87-2.323-1.116a10.667 10.667 0 0 0-3.975 8.1c-.118 5.765 4.581 10.73 10.346 10.914a10.647 10.647 0 0 0 5.288-1.198l25.77 25.93a10.593 10.593 0 0 0-1.223 4.916 10.652 10.652 0 0 0 3.903 8.287c.938.772 2.351.138 2.355-1.077l.02-5.973a2.422 2.422 0 0 1 2.431-2.417l3.996.01a2.43 2.43 0 0 1 2.417 2.434l-.017 5.97c-.004 1.202 1.392 1.867 2.323 1.115a10.667 10.667 0 0 0 3.976-8.1c.117-5.765-4.585-10.73-10.347-10.914a10.647 10.647 0 0 0-5.288 1.198" fill="#859298" mask="url(#b)"/><path d="M200.805 104.511l-25.77-25.929a10.678 10.678 0 0 0 1.222-4.917c.01-3.338-1.51-6.32-3.902-8.286-.939-.773-2.351-.139-2.355 1.077l-.02 5.973a2.424 2.424 0 0 1-2.432 2.417l-3.996-.014a2.422 2.422 0 0 1-2.417-2.431l.018-5.97c.003-1.201-1.392-1.87-2.324-1.115a10.667 10.667 0 0 0-3.975 8.1c-.118 5.765 4.581 10.73 10.347 10.914a10.647 10.647 0 0 0 5.287-1.198l25.77 25.93a10.593 10.593 0 0 0-1.222 4.916 10.652 10.652 0 0 0 3.902 8.287c.939.772 2.351.138 2.355-1.077l.02-5.974a2.422 2.422 0 0 1 2.432-2.417l3.996.01a2.43 2.43 0 0 1 2.417 2.435l-.018 5.97c-.003 1.201 1.392 1.866 2.324 1.111a10.654 10.654 0 0 0 3.975-8.095c.118-5.766-4.585-10.732-10.347-10.915a10.647 10.647 0 0 0-5.287 1.198" fill="#859298" mask="url(#b)"/><path d="M200.733 104.54l-25.77-25.928a10.678 10.678 0 0 0 1.223-4.917c.01-3.338-1.51-6.32-3.903-8.287-.938-.772-2.35-.138-2.354 1.077l-.021 5.974a2.424 2.424 0 0 1-2.43 2.417l-3.997-.014a2.422 2.422 0 0 1-2.417-2.431l.017-5.97c.004-1.202-1.392-1.87-2.323-1.115a10.667 10.667 0 0 0-3.975 8.1c-.118 5.765 4.581 10.73 10.346 10.914a10.647 10.647 0 0 0 5.288-1.198l25.77 25.929a10.593 10.593 0 0 0-1.223 4.917 10.652 10.652 0 0 0 3.903 8.286c.938.773 2.351.139 2.355-1.077l.02-5.973a2.422 2.422 0 0 1 2.431-2.417l3.996.01a2.43 2.43 0 0 1 2.417 2.435l-.017 5.97c-.004 1.201 1.392 1.866 2.323 1.115a10.667 10.667 0 0 0 3.976-8.1c.117-5.765-4.585-10.73-10.347-10.914a10.647 10.647 0 0 0-5.288 1.198" fill="#859298" mask="url(#b)"/><path d="M200.662 104.571l-25.77-25.929a10.678 10.678 0 0 0 1.222-4.917c.01-3.338-1.51-6.32-3.902-8.286-.939-.773-2.351-.139-2.355 1.076l-.02 5.974a2.424 2.424 0 0 1-2.432 2.417l-3.996-.014a2.422 2.422 0 0 1-2.417-2.431l.018-5.97c.003-1.201-1.392-1.87-2.324-1.115a10.667 10.667 0 0 0-3.975 8.1c-.118 5.765 4.581 10.73 10.347 10.914a10.647 10.647 0 0 0 5.287-1.198l25.77 25.929a10.593 10.593 0 0 0-1.222 4.917 10.652 10.652 0 0 0 3.902 8.286c.939.773 2.351.139 2.355-1.076l.02-5.974a2.422 2.422 0 0 1 2.432-2.417l3.996.01a2.43 2.43 0 0 1 2.417 2.435l-.018 5.97c-.003 1.201 1.392 1.866 2.324 1.111a10.654 10.654 0 0 0 3.975-8.096c.118-5.765-4.585-10.73-10.347-10.914a10.647 10.647 0 0 0-5.287 1.198" fill="#859298" mask="url(#b)"/><path d="M200.59 104.6l-25.77-25.928a10.678 10.678 0 0 0 1.223-4.917c.01-3.338-1.51-6.32-3.903-8.287-.938-.772-2.351-.138-2.355 1.077l-.02 5.973a2.424 2.424 0 0 1-2.431 2.417l-3.996-.013a2.422 2.422 0 0 1-2.417-2.431l.017-5.97c.004-1.202-1.392-1.87-2.323-1.115a10.667 10.667 0 0 0-3.976 8.1c-.117 5.765 4.582 10.73 10.347 10.914a10.647 10.647 0 0 0 5.288-1.198l25.77 25.929a10.593 10.593 0 0 0-1.223 4.917 10.652 10.652 0 0 0 3.903 8.286c.938.772 2.35.139 2.354-1.077l.021-5.973a2.422 2.422 0 0 1 2.43-2.417l3.997.01a2.43 2.43 0 0 1 2.417 2.435l-.017 5.97c-.004 1.201 1.392 1.866 2.323 1.115a10.667 10.667 0 0 0 3.975-8.1c.118-5.765-4.584-10.73-10.346-10.914a10.647 10.647 0 0 0-5.288 1.198" fill="#859298" mask="url(#b)"/><path d="M200.519 104.63l-25.77-25.928a10.678 10.678 0 0 0 1.222-4.917c.01-3.338-1.51-6.32-3.902-8.287-.939-.772-2.351-.138-2.355 1.077l-.02 5.974a2.424 2.424 0 0 1-2.432 2.417l-3.996-.014a2.422 2.422 0 0 1-2.417-2.431l.018-5.97c.003-1.201-1.392-1.87-2.324-1.115a10.667 10.667 0 0 0-3.975 8.1c-.118 5.765 4.581 10.73 10.347 10.914a10.647 10.647 0 0 0 5.287-1.198l25.77 25.929a10.593 10.593 0 0 0-1.222 4.917 10.652 10.652 0 0 0 3.902 8.286c.939.773 2.351.139 2.355-1.077l.02-5.973a2.422 2.422 0 0 1 2.432-2.417l3.996.01a2.43 2.43 0 0 1 2.417 2.435l-.018 5.97c-.003 1.201 1.392 1.866 2.324 1.115a10.667 10.667 0 0 0 3.975-8.1c.118-5.765-4.585-10.73-10.347-10.914a10.647 10.647 0 0 0-5.287 1.198" fill="#859298" mask="url(#b)"/><path d="M200.447 104.66l-25.77-25.928a10.635 10.635 0 0 0 1.223-4.917c.01-3.339-1.51-6.32-3.903-8.287-.938-.772-2.351-.138-2.355 1.077l-.02 5.973a2.424 2.424 0 0 1-2.431 2.417l-3.996-.014a2.422 2.422 0 0 1-2.417-2.43l.017-5.97c.004-1.202-1.392-1.87-2.323-1.115a10.667 10.667 0 0 0-3.976 8.1c-.117 5.765 4.582 10.73 10.347 10.914a10.647 10.647 0 0 0 5.288-1.198l25.77 25.929a10.593 10.593 0 0 0-1.223 4.917 10.652 10.652 0 0 0 3.903 8.286c.938.772 2.35.139 2.354-1.077l.021-5.973a2.422 2.422 0 0 1 2.43-2.417l3.997.01a2.43 2.43 0 0 1 2.417 2.435l-.017 5.97c-.004 1.201 1.392 1.866 2.323 1.111a10.654 10.654 0 0 0 3.975-8.096c.118-5.765-4.584-10.73-10.346-10.914a10.647 10.647 0 0 0-5.288 1.198" fill="#859298" mask="url(#b)"/><path d="M200.376 104.69l-25.77-25.928a10.678 10.678 0 0 0 1.222-4.917c.01-3.338-1.51-6.32-3.902-8.287-.939-.772-2.351-.138-2.355 1.077l-.02 5.973a2.424 2.424 0 0 1-2.432 2.417l-3.996-.013a2.422 2.422 0 0 1-2.417-2.431l.018-5.97c.003-1.202-1.392-1.87-2.324-1.115a10.667 10.667 0 0 0-3.975 8.1c-.118 5.765 4.581 10.73 10.347 10.914a10.647 10.647 0 0 0 5.287-1.198l25.77 25.929a10.593 10.593 0 0 0-1.222 4.917 10.652 10.652 0 0 0 3.902 8.286c.939.772 2.351.139 2.355-1.077l.02-5.973a2.422 2.422 0 0 1 2.432-2.417l3.996.01a2.43 2.43 0 0 1 2.417 2.435l-.018 5.97c-.003 1.201 1.392 1.866 2.324 1.115a10.667 10.667 0 0 0 3.975-8.1c.118-5.765-4.585-10.73-10.347-10.914a10.647 10.647 0 0 0-5.287 1.198" fill="#859298" mask="url(#b)"/><path d="M200.304 104.72l-25.77-25.928a10.635 10.635 0 0 0 1.223-4.918c.01-3.338-1.51-6.32-3.903-8.286-.938-.772-2.351-.138-2.355 1.077l-.02 5.973a2.424 2.424 0 0 1-2.431 2.417l-3.996-.014a2.422 2.422 0 0 1-2.417-2.43l.017-5.97c.004-1.202-1.392-1.87-2.323-1.115a10.667 10.667 0 0 0-3.976 8.1c-.117 5.765 4.582 10.73 10.347 10.914a10.647 10.647 0 0 0 5.288-1.198l25.77 25.929a10.593 10.593 0 0 0-1.223 4.917 10.652 10.652 0 0 0 3.903 8.286c.938.772 2.35.139 2.354-1.077l.021-5.973a2.422 2.422 0 0 1 2.43-2.417l3.997.01a2.43 2.43 0 0 1 2.417 2.435l-.017 5.97c-.004 1.201 1.392 1.866 2.323 1.114a10.667 10.667 0 0 0 3.975-8.099c.118-5.765-4.584-10.731-10.346-10.915a10.647 10.647 0 0 0-5.288 1.199" fill="#859298" mask="url(#b)"/><path d="M200.233 104.75l-25.77-25.928a10.678 10.678 0 0 0 1.222-4.917c.01-3.339-1.51-6.32-3.902-8.287-.939-.772-2.351-.138-2.355 1.077l-.02 5.973a2.424 2.424 0 0 1-2.432 2.417l-3.996-.013a2.422 2.422 0 0 1-2.417-2.431l.018-5.97c.003-1.202-1.392-1.87-2.324-1.115a10.667 10.667 0 0 0-3.975 8.1c-.118 5.765 4.581 10.73 10.347 10.914a10.647 10.647 0 0 0 5.287-1.198l25.77 25.929a10.593 10.593 0 0 0-1.222 4.917 10.652 10.652 0 0 0 3.902 8.286c.939.772 2.351.139 2.355-1.077l.02-5.973a2.422 2.422 0 0 1 2.432-2.417l3.996.01a2.43 2.43 0 0 1 2.417 2.435l-.018 5.97c-.003 1.201 1.392 1.866 2.324 1.111a10.654 10.654 0 0 0 3.975-8.096c.118-5.765-4.585-10.73-10.347-10.914a10.647 10.647 0 0 0-5.287 1.198" fill="#859298" mask="url(#b)"/><path d="M200.161 104.78l-25.77-25.929a10.678 10.678 0 0 0 1.223-4.917c.01-3.338-1.51-6.32-3.903-8.286-.938-.772-2.351-.139-2.355 1.077l-.02 5.973a2.424 2.424 0 0 1-2.431 2.417l-3.996-.014a2.422 2.422 0 0 1-2.417-2.43l.017-5.97c.004-1.202-1.392-1.87-2.323-1.115a10.667 10.667 0 0 0-3.976 8.099c-.117 5.766 4.582 10.731 10.347 10.915a10.647 10.647 0 0 0 5.288-1.199l25.77 25.93a10.593 10.593 0 0 0-1.223 4.917 10.652 10.652 0 0 0 3.903 8.286c.938.772 2.35.138 2.354-1.077l.021-5.973a2.422 2.422 0 0 1 2.43-2.417l3.997.01a2.43 2.43 0 0 1 2.417 2.435l-.017 5.97c-.004 1.2 1.392 1.866 2.323 1.114a10.667 10.667 0 0 0 3.975-8.1c.118-5.765-4.584-10.73-10.346-10.914a10.647 10.647 0 0 0-5.288 1.198" fill="#859298" mask="url(#b)"/><path d="M200.09 104.81l-25.77-25.928a10.678 10.678 0 0 0 1.222-4.918c.01-3.338-1.51-6.319-3.902-8.286-.939-.772-2.351-.138-2.355 1.077l-.02 5.973a2.424 2.424 0 0 1-2.432 2.417l-3.996-.014a2.422 2.422 0 0 1-2.417-2.43l.018-5.97c.003-1.202-1.392-1.87-2.324-1.115a10.667 10.667 0 0 0-3.975 8.1c-.118 5.765 4.581 10.73 10.347 10.914a10.647 10.647 0 0 0 5.287-1.198l25.77 25.929a10.593 10.593 0 0 0-1.222 4.917 10.652 10.652 0 0 0 3.902 8.286c.939.772 2.351.139 2.355-1.077l.02-5.973a2.422 2.422 0 0 1 2.432-2.417l3.996.01a2.43 2.43 0 0 1 2.417 2.435l-.018 5.97c-.003 1.201 1.392 1.866 2.324 1.114a10.667 10.667 0 0 0 3.975-8.099c.118-5.765-4.585-10.731-10.347-10.915a10.647 10.647 0 0 0-5.287 1.199" fill="#859298" mask="url(#b)"/><path d="M200.018 104.84l-25.77-25.929a10.635 10.635 0 0 0 1.223-4.917c.01-3.338-1.51-6.32-3.903-8.286-.938-.772-2.351-.139-2.355 1.077l-.02 5.973a2.424 2.424 0 0 1-2.431 2.417l-3.996-.014a2.422 2.422 0 0 1-2.417-2.43l.017-5.97c.004-1.202-1.392-1.87-2.323-1.115a10.667 10.667 0 0 0-3.976 8.099c-.117 5.765 4.582 10.731 10.347 10.915a10.647 10.647 0 0 0 5.288-1.199l25.77 25.93a10.593 10.593 0 0 0-1.223 4.917 10.652 10.652 0 0 0 3.903 8.286c.938.772 2.35.138 2.354-1.077l.021-5.973a2.422 2.422 0 0 1 2.43-2.417l3.997.01a2.43 2.43 0 0 1 2.417 2.434l-.017 5.97c-.004 1.202 1.392 1.867 2.323 1.112a10.654 10.654 0 0 0 3.975-8.096c.118-5.766-4.584-10.731-10.346-10.915a10.647 10.647 0 0 0-5.288 1.198" fill="#859298" mask="url(#b)"/><path d="M199.947 104.87l-25.77-25.929a10.678 10.678 0 0 0 1.222-4.917c.01-3.338-1.51-6.32-3.902-8.286-.939-.773-2.351-.139-2.355 1.077l-.02 5.973a2.424 2.424 0 0 1-2.432 2.417l-3.996-.014a2.422 2.422 0 0 1-2.417-2.43l.018-5.97c.003-1.202-1.392-1.87-2.324-1.116a10.667 10.667 0 0 0-3.975 8.1c-.118 5.765 4.581 10.73 10.347 10.914a10.647 10.647 0 0 0 5.287-1.198l25.77 25.93a10.593 10.593 0 0 0-1.222 4.916 10.652 10.652 0 0 0 3.902 8.287c.939.772 2.351.138 2.355-1.077l.02-5.973a2.422 2.422 0 0 1 2.432-2.417l3.996.01a2.43 2.43 0 0 1 2.417 2.434l-.018 5.97c-.003 1.202 1.392 1.866 2.324 1.115a10.667 10.667 0 0 0 3.975-8.1c.118-5.765-4.585-10.73-10.347-10.914a10.647 10.647 0 0 0-5.287 1.198" fill="#859298" mask="url(#b)"/><path d="M200.856 107.007l-25.77-25.929a10.678 10.678 0 0 0 1.222-4.917c.01-3.338-1.51-6.32-3.902-8.286-.939-.773-2.352-.139-2.355 1.076l-.02 5.974a2.424 2.424 0 0 1-2.432 2.417l-3.996-.014a2.422 2.422 0 0 1-2.417-2.431l.018-5.97c.003-1.201-1.392-1.87-2.324-1.115a10.667 10.667 0 0 0-3.975 8.1c-.118 5.765 4.581 10.73 10.347 10.914a10.647 10.647 0 0 0 5.287-1.198l25.77 25.93a10.593 10.593 0 0 0-1.222 4.916 10.652 10.652 0 0 0 3.902 8.287c.939.772 2.351.138 2.355-1.077l.02-5.974a2.422 2.422 0 0 1 2.431-2.417l3.996.01a2.43 2.43 0 0 1 2.417 2.435l-.017 5.97c-.003 1.201 1.392 1.866 2.324 1.115a10.667 10.667 0 0 0 3.975-8.1c.118-5.765-4.585-10.73-10.347-10.914a10.647 10.647 0 0 0-5.287 1.198" fill="#C2CAD0" mask="url(#b)"/><path d="M214.754 68.881l-2.434-2.49a.988.988 0 0 0-1.544.17l-2.189 3.487a.987.987 0 0 0-.09.835L185.463 93.41l1.683 1.721 23.02-22.515c.284.115.61.104.883-.062l3.511-2.136a.989.989 0 0 0 .194-1.538" fill="#C2CAD0" mask="url(#b)"/><path d="M217.427 64.968l-1.108-1.133a.987.987 0 0 0-1.215-.159l-3.536 2.109a.987.987 0 0 0-.2 1.54l2.43 2.49a.991.991 0 0 0 1.545-.159l2.212-3.463a.994.994 0 0 0-.128-1.225" fill="#859298" mask="url(#b)"/><path d="M188.878 98.416l1.762-1.724-6.659-6.811-1.658 1.62a2.203 2.203 0 0 0-.392 2.625 3.008 3.008 0 0 0-3.016.71l-23.92 23.394a3.016 3.016 0 0 0-.049 4.27l2.434 2.493a3.023 3.023 0 0 0 4.274.048l23.92-23.394a3.01 3.01 0 0 0 .79-2.95 2.056 2.056 0 0 0 2.514-.28" fill="#F3A521" mask="url(#b)"/><path d="M189.007 98.549l1.763-1.725-3.328-3.407-31.147 30.462 1.215 1.246a3.026 3.026 0 0 0 4.273.049l23.921-23.394a3.01 3.01 0 0 0 .79-2.95 2.056 2.056 0 0 0 2.513-.281" fill="#ED8826" mask="url(#b)"/><path fill="#F18C26" opacity=".08" mask="url(#b)" d="M-68.93 79.814l-35.811 268.633h383.267L23.536 40.667z"/><path d="M14.461 34.211a21.545 21.545 0 0 1 12.296 11.07L-71.99 92.397a21.509 21.509 0 0 1-2.095-10.084c.284-7.784 4.782-15.149 12.297-18.736L-2.063 35.08a21.547 21.547 0 0 1 16.524-.87" fill="#E7534F" mask="url(#b)"/><path d="M-10.654 23.28A21.545 21.545 0 0 1 1.642 34.35L-63.703 65.53c-5.142-10.776-.572-23.682 10.2-28.82l26.321-12.56a21.556 21.556 0 0 1 16.528-.87" fill="#E7534F" mask="url(#b)"/><path d="M.497 40.116A22.482 22.482 0 0 1 13.33 51.668l13.4-6.395a21.545 21.545 0 0 0-12.296-11.07 21.547 21.547 0 0 0-16.524.872l-8.428 4.02A22.538 22.538 0 0 1 .497 40.116" fill="#B1423C" mask="url(#b)"/><path d="M-24.652 29.118a22.482 22.482 0 0 1 12.833 11.551l13.4-6.395a21.527 21.527 0 0 0-12.295-11.067 21.54 21.54 0 0 0-16.528.869l-8.425 4.02a22.538 22.538 0 0 1 11.015 1.022" fill="#B1423C" mask="url(#b)"/></g></g></svg>