<svg width="500" height="500" viewBox="0 0 500 500" xmlns="http://www.w3.org/2000/svg" xmlns:xlink="http://www.w3.org/1999/xlink"><title>101B09EA-4E6D-454E-B203-901CAFF4A810</title><defs><path d="M.02 268.052c35.847 53.033 96.534 87.898 165.364 87.898 110.158 0 199.457-89.303 199.457-199.461 0-63.17-29.367-119.483-75.195-156.03H41.121A200.579 200.579 0 0 0 .02 44.929v223.124z" id="a"/></defs><g fill="none" fill-rule="evenodd"><path d="M52 250.034c0 110.158 89.3 199.458 199.458 199.458s199.457-89.3 199.457-199.458-89.3-199.458-199.457-199.458C141.299 50.576 52 139.876 52 250.034" fill="#EDEBEB"/><path d="M162.221 58.84l-13.001 2.562a3.766 3.766 0 0 0-2.697 5.272l6.55 14.247c.485 1.048 1.415 1.743 2.477 2.024l23.702 120.373 8.986-1.767-23.688-120.3c.955-.663 1.6-1.725 1.642-2.947l.527-15.639a3.771 3.771 0 0 0-4.498-3.825" fill="#D1CAB6"/><path d="M155.33 42.162l-5.924 1.166a3.771 3.771 0 0 0-3.037 3.54l-.663 15.667c-.1 2.437 2.104 4.328 4.495 3.856l13.005-2.558c2.377-.468 3.703-3.033 2.707-5.244l-6.417-14.275a3.764 3.764 0 0 0-4.165-2.152" fill="#C7C1AD"/><path d="M202.319 202.886l-1.816-9.219-35.589 7.008 1.704 8.67c.743 3.766 3.898 6.41 7.542 6.723-3.172 2.603-4.883 6.782-4.033 11.085l24.611 125.003c1.23 6.234 7.279 10.291 13.512 9.066l13.015-2.565c6.234-1.225 10.295-7.275 9.066-13.508l-24.615-125.003c-.833-4.234-3.911-7.417-7.746-8.67 3.168-1.503 5.057-4.991 4.349-8.59" fill="#F3A521"/><path d="M203.012 202.75l-1.816-9.219-17.794 3.502 32.052 162.768 6.505-1.28c6.233-1.226 10.294-7.275 9.065-13.509L206.41 220.01c-.833-4.235-3.912-7.417-7.747-8.67 3.169-1.503 5.057-4.991 4.349-8.59" fill="#ED8826"/><path fill="#C7C1AD" d="M314.968 64.466l-42.33-.087.046-21.373 42.329.087zM254.76 145.472l9.752.02.125-60.588-9.753-.021z"/><path d="M284.56 132.436l-.023 12.533c-.007 3.145-2.37 5.71-5.408 6.091l-.375 181.587a7.722 7.722 0 0 1-7.74 7.709l-23.555-.049a7.725 7.725 0 0 1-7.712-7.74l.374-181.586c-3.04-.396-5.39-2.968-5.383-6.116l.025-12.53a6.18 6.18 0 0 1 6.195-6.17l37.432.076a6.183 6.183 0 0 1 6.17 6.195" fill="#4B2F86"/><path d="M306.384 87.895l17.07.035a8.893 8.893 0 0 0 8.912-8.875l.084-39.48c.007-4.91-3.964-8.902-8.878-8.913l-17.07-.034a8.895 8.895 0 0 0-8.913 8.874l-.08 39.48a8.895 8.895 0 0 0 8.875 8.913M272.885 90.731l-26.277-.055a8.022 8.022 0 0 1-8.007-8.042l.094-47.026a8.025 8.025 0 0 1 8.045-8.007l26.274.052c4.432.01 8.02 3.61 8.01 8.042l-.097 47.026a8.025 8.025 0 0 1-8.042 8.01" fill="#D1CAB6"/><path d="M260.164 43.67c-.177 7.017-5.924 12.612-12.942 12.598l-68.71-.142c.02-10.544 8.586-19.072 19.127-19.051l47.198-9.229c8.112-1.586 15.605 4.745 15.397 13.005l-.07 2.818z" fill="#D1CAB6"/><path d="M259.624 340.333l-11.78-.024a7.722 7.722 0 0 1-7.708-7.74l.371-181.586c-3.037-.396-5.386-2.968-5.383-6.116l.028-12.533a6.18 6.18 0 0 1 6.195-6.167l18.715.038-.438 214.128z" fill="#5D378B"/><g transform="translate(86.074 93.544)"><mask id="b" fill="#fff"><use xlink:href="#a"/></mask><path fill="#CD7B52" mask="url(#b)" d="M11.81 77.099h599.514V56.635H11.81z"/><path d="M261.025 18.414l-13.248-.365c-2.44-.07-4.296 2.163-3.79 4.55l3.252 15.338c.243 1.131.997 2.013 1.972 2.523l-3.38 122.636 9.155.253 3.377-122.563c1.076-.437 1.94-1.33 2.25-2.51l3.956-15.142a3.768 3.768 0 0 0-3.544-4.72" fill="#D1CAB6" mask="url(#b)"/><path d="M257.976.628L251.94.46a3.767 3.767 0 0 0-3.741 2.784l-4.096 15.136a3.773 3.773 0 0 0 3.537 4.755l13.244.364a3.772 3.772 0 0 0 3.8-4.519l-3.12-15.337a3.766 3.766 0 0 0-3.588-3.016" fill="#C7C1AD" mask="url(#b)"/><path d="M268.427 167.753l.26-9.392-36.262-1-.243 8.833c-.104 3.836 2.391 7.112 5.876 8.22-3.665 1.839-6.254 5.539-6.376 9.926l-3.509 127.352c-.177 6.352 4.832 11.641 11.18 11.818l13.261.364c6.352.174 11.645-4.83 11.818-11.182l3.51-127.353c.12-4.317-2.184-8.097-5.648-10.162 3.422-.77 6.032-3.756 6.133-7.424" fill="#F3A521" mask="url(#b)"/><path d="M269.133 167.772l.26-9.392-18.13-.5-4.568 165.83 6.626.184c6.351.173 11.644-4.831 11.818-11.183l3.508-127.352c.122-4.318-2.183-8.098-5.646-10.163 3.422-.77 6.032-3.755 6.132-7.424" fill="#ED8826" mask="url(#b)"/><path d="M292.536 138.426l44.443 86.068a28.197 28.197 0 0 0-7.007 11.447c-2.687 8.43-1.219 17.177 3.252 24.056 1.756 2.7 5.838 2.224 6.816-.847l4.807-15.074a6.426 6.426 0 0 1 8.077-4.168l10.082 3.214a6.426 6.426 0 0 1 4.169 8.076l-4.804 15.067c-.968 3.033 2.027 5.834 4.988 4.671 7.52-2.953 13.726-9.072 16.503-17.29 4.89-14.48-3.03-30.773-17.447-35.84-4.78-1.676-9.684-2-14.317-1.183l-44.443-86.068a28.16 28.16 0 0 0 7.007-11.447c2.686-8.427 1.218-17.173-3.252-24.052-1.756-2.704-5.838-2.229-6.817.843l-4.807 15.074a6.429 6.429 0 0 1-8.073 4.171l-10.086-3.217a6.424 6.424 0 0 1-4.168-8.073l4.807-15.07c.965-3.033-2.03-5.83-4.99-4.668-7.522 2.95-13.728 9.069-16.504 17.288-4.89 14.48 3.03 30.771 17.447 35.839 4.78 1.68 9.684 1.999 14.317 1.183" fill="#C7C1AD" mask="url(#b)"/><path d="M292.74 138.408l44.444 86.067a28.197 28.197 0 0 0-7.008 11.447c-2.686 8.43-1.218 17.177 3.252 24.056 1.757 2.7 5.838 2.225 6.817-.847l4.807-15.074a6.426 6.426 0 0 1 8.077-4.168l10.082 3.214a6.426 6.426 0 0 1 4.168 8.076l-4.803 15.067c-.968 3.033 2.027 5.834 4.987 4.672 7.522-2.954 13.727-9.073 16.504-17.292 4.89-14.48-3.03-30.771-17.448-35.839-4.779-1.676-9.683-1.999-14.317-1.183l-44.443-86.068a28.197 28.197 0 0 0 7.008-11.447c2.686-8.427 1.218-17.173-3.252-24.052-1.756-2.704-5.838-2.228-6.817.843l-4.807 15.074a6.429 6.429 0 0 1-8.073 4.172l-10.086-3.218a6.424 6.424 0 0 1-4.168-8.073l4.807-15.07c.965-3.033-2.03-5.83-4.991-4.668-7.521 2.95-13.727 9.07-16.504 17.288-4.89 14.48 3.03 30.772 17.448 35.839 4.78 1.68 9.683 2 14.317 1.184" fill="#C7C1AD" mask="url(#b)"/><path d="M292.946 138.389l44.443 86.068a28.197 28.197 0 0 0-7.008 11.446c-2.686 8.43-1.218 17.177 3.252 24.056 1.756 2.7 5.838 2.225 6.817-.847l4.807-15.073a6.426 6.426 0 0 1 8.076-4.169l10.083 3.214a6.426 6.426 0 0 1 4.168 8.077l-4.803 15.066c-.969 3.034 2.027 5.835 4.987 4.672 7.521-2.954 13.727-9.073 16.504-17.291 4.89-14.48-3.03-30.772-17.448-35.84-4.78-1.676-9.683-1.999-14.317-1.183l-44.443-86.068a28.197 28.197 0 0 0 7.008-11.446c2.686-8.427 1.218-17.174-3.252-24.053-1.757-2.703-5.838-2.228-6.817.844l-4.807 15.073a6.429 6.429 0 0 1-8.073 4.172l-10.086-3.217a6.424 6.424 0 0 1-4.168-8.073l4.807-15.07c.964-3.034-2.03-5.831-4.991-4.669-7.521 2.95-13.727 9.07-16.504 17.288-4.89 14.48 3.03 30.772 17.448 35.84 4.779 1.68 9.683 1.998 14.317 1.183" fill="#C7C1AD" mask="url(#b)"/><path d="M293.15 138.37l44.443 86.068a28.197 28.197 0 0 0-7.007 11.447c-2.687 8.43-1.219 17.177 3.252 24.056 1.756 2.7 5.838 2.224 6.816-.847l4.807-15.074a6.426 6.426 0 0 1 8.077-4.168l10.082 3.214a6.426 6.426 0 0 1 4.169 8.076l-4.804 15.067c-.968 3.033 2.027 5.834 4.988 4.672 7.52-2.954 13.726-9.073 16.503-17.292 4.89-14.48-3.03-30.772-17.447-35.839-4.78-1.676-9.684-1.999-14.317-1.183l-44.443-86.068a28.197 28.197 0 0 0 7.007-11.447c2.686-8.427 1.218-17.173-3.252-24.052-1.756-2.704-5.838-2.228-6.817.843l-4.807 15.074a6.429 6.429 0 0 1-8.073 4.172l-10.086-3.218a6.424 6.424 0 0 1-4.168-8.073l4.807-15.07c.965-3.033-2.03-5.83-4.99-4.668-7.522 2.95-13.728 9.07-16.504 17.288-4.89 14.48 3.03 30.772 17.447 35.839 4.78 1.68 9.684 2 14.317 1.183" fill="#C7C1AD" mask="url(#b)"/><path d="M293.354 138.352l44.443 86.068a28.197 28.197 0 0 0-7.007 11.446c-2.686 8.43-1.218 17.177 3.252 24.056 1.756 2.7 5.838 2.225 6.817-.847l4.807-15.073a6.426 6.426 0 0 1 8.076-4.169l10.083 3.214a6.426 6.426 0 0 1 4.168 8.077l-4.803 15.066c-.969 3.034 2.026 5.834 4.987 4.672 7.521-2.954 13.727-9.073 16.503-17.292 4.89-14.48-3.03-30.771-17.447-35.839-4.78-1.676-9.683-1.999-14.317-1.183l-44.443-86.068a28.197 28.197 0 0 0 7.008-11.447c2.686-8.427 1.218-17.173-3.253-24.052-1.756-2.704-5.837-2.228-6.816.843l-4.807 15.074a6.429 6.429 0 0 1-8.073 4.172l-10.086-3.218a6.424 6.424 0 0 1-4.169-8.073l4.807-15.07c.965-3.033-2.03-5.83-4.99-4.668-7.522 2.95-13.727 9.07-16.504 17.288-4.89 14.48 3.03 30.772 17.448 35.84 4.779 1.679 9.683 1.998 14.316 1.183" fill="#C7C1AD" mask="url(#b)"/><path d="M293.56 138.333l44.442 86.068a28.197 28.197 0 0 0-7.007 11.446c-2.687 8.43-1.218 17.177 3.252 24.056 1.756 2.7 5.838 2.225 6.816-.847l4.807-15.073a6.426 6.426 0 0 1 8.077-4.169l10.082 3.214a6.426 6.426 0 0 1 4.169 8.077l-4.804 15.066c-.968 3.034 2.027 5.835 4.988 4.672 7.52-2.954 13.727-9.073 16.503-17.291 4.89-14.48-3.03-30.772-17.447-35.84-4.78-1.676-9.684-1.998-14.317-1.183l-44.443-86.068a28.16 28.16 0 0 0 7.007-11.446c2.687-8.427 1.219-17.174-3.252-24.053-1.756-2.703-5.838-2.228-6.816.844l-4.807 15.073a6.429 6.429 0 0 1-8.073 4.172l-10.086-3.217a6.424 6.424 0 0 1-4.169-8.073l4.807-15.07c.965-3.034-2.03-5.831-4.99-4.668-7.522 2.95-13.728 9.069-16.504 17.287-4.89 14.48 3.03 30.772 17.447 35.84 4.78 1.68 9.684 1.999 14.317 1.183" fill="#C7C1AD" mask="url(#b)"/><path d="M293.764 138.314l44.443 86.068a28.197 28.197 0 0 0-7.008 11.447c-2.686 8.43-1.218 17.176 3.252 24.055 1.757 2.7 5.838 2.225 6.817-.846l4.807-15.074a6.426 6.426 0 0 1 8.076-4.168l10.083 3.214a6.426 6.426 0 0 1 4.168 8.076l-4.803 15.067c-.969 3.033 2.027 5.834 4.987 4.671 7.521-2.953 13.727-9.072 16.504-17.291 4.89-14.48-3.03-30.772-17.448-35.84-4.779-1.675-9.683-1.998-14.317-1.183l-44.443-86.067a28.16 28.16 0 0 0 7.008-11.447c2.686-8.427 1.218-17.173-3.252-24.052-1.757-2.704-5.838-2.229-6.817.843l-4.807 15.074a6.429 6.429 0 0 1-8.073 4.171l-10.086-3.217a6.424 6.424 0 0 1-4.168-8.073l4.807-15.07c.965-3.033-2.03-5.83-4.991-4.668-7.521 2.95-13.727 9.069-16.504 17.288-4.89 14.48 3.03 30.771 17.448 35.839 4.779 1.68 9.687 1.999 14.317 1.183" fill="#C7C1AD" mask="url(#b)"/><path d="M293.968 138.296l44.443 86.068a28.197 28.197 0 0 0-7.007 11.446c-2.686 8.43-1.218 17.177 3.252 24.056 1.756 2.7 5.838 2.225 6.817-.847l4.807-15.073a6.426 6.426 0 0 1 8.076-4.169l10.083 3.214a6.426 6.426 0 0 1 4.168 8.077l-4.803 15.066c-.969 3.034 2.026 5.835 4.987 4.672 7.521-2.954 13.727-9.073 16.503-17.291 4.89-14.48-3.03-30.772-17.447-35.84-4.78-1.676-9.683-1.999-14.317-1.183l-44.443-86.068a28.197 28.197 0 0 0 7.007-11.446c2.687-8.427 1.219-17.174-3.252-24.053-1.756-2.704-5.837-2.228-6.816.844l-4.807 15.073a6.429 6.429 0 0 1-8.073 4.172l-10.086-3.217a6.424 6.424 0 0 1-4.169-8.073l4.807-15.07c.965-3.034-2.03-5.831-4.99-4.669-7.522 2.95-13.727 9.07-16.504 17.288-4.89 14.48 3.03 30.772 17.448 35.84 4.779 1.68 9.683 1.998 14.316 1.183" fill="#C7C1AD" mask="url(#b)"/><path d="M294.173 138.277l44.443 86.068a28.197 28.197 0 0 0-7.008 11.447c-2.686 8.43-1.218 17.176 3.253 24.055 1.756 2.7 5.837 2.225 6.816-.847l4.807-15.073a6.426 6.426 0 0 1 8.077-4.168l10.082 3.213a6.426 6.426 0 0 1 4.168 8.077l-4.803 15.067c-.968 3.033 2.027 5.834 4.987 4.671 7.522-2.953 13.727-9.072 16.504-17.291 4.89-14.48-3.03-30.772-17.448-35.84-4.779-1.676-9.683-1.998-14.316-1.183l-44.444-86.068a28.197 28.197 0 0 0 7.008-11.446c2.686-8.427 1.218-17.173-3.252-24.053-1.756-2.703-5.838-2.228-6.817.844l-4.807 15.073a6.429 6.429 0 0 1-8.073 4.172l-10.086-3.217a6.424 6.424 0 0 1-4.168-8.073l4.807-15.07c.965-3.034-2.03-5.831-4.991-4.668-7.521 2.95-13.727 9.069-16.504 17.287-4.89 14.48 3.03 30.772 17.448 35.84 4.78 1.68 9.683 1.999 14.317 1.183" fill="#C7C1AD" mask="url(#b)"/><path d="M294.378 138.258l44.443 86.068a28.197 28.197 0 0 0-7.008 11.447c-2.686 8.43-1.218 17.177 3.252 24.056 1.757 2.7 5.838 2.224 6.817-.847l4.807-15.074a6.426 6.426 0 0 1 8.076-4.168l10.083 3.214a6.426 6.426 0 0 1 4.168 8.076l-4.803 15.067c-.969 3.033 2.027 5.834 4.987 4.671 7.521-2.953 13.727-9.072 16.504-17.29 4.89-14.48-3.03-30.773-17.448-35.84-4.78-1.676-9.683-2-14.317-1.183l-44.443-86.068a28.197 28.197 0 0 0 7.008-11.447c2.686-8.427 1.218-17.173-3.252-24.052-1.757-2.704-5.838-2.228-6.817.843l-4.807 15.074a6.429 6.429 0 0 1-8.073 4.171l-10.086-3.217a6.424 6.424 0 0 1-4.168-8.073l4.807-15.07c.965-3.033-2.03-5.83-4.991-4.668-7.521 2.95-13.727 9.069-16.504 17.288-4.89 14.48 3.03 30.771 17.448 35.839 4.779 1.68 9.683 1.999 14.317 1.183" fill="#C7C1AD" mask="url(#b)"/><path d="M294.582 138.24l44.443 86.068a28.197 28.197 0 0 0-7.007 11.446c-2.687 8.43-1.219 17.177 3.252 24.056 1.756 2.7 5.838 2.225 6.816-.847l4.807-15.073a6.426 6.426 0 0 1 8.077-4.169l10.082 3.214a6.426 6.426 0 0 1 4.169 8.077l-4.804 15.066c-.968 3.034 2.027 5.835 4.988 4.672 7.52-2.954 13.726-9.073 16.503-17.291 4.89-14.48-3.03-30.772-17.447-35.84-4.78-1.676-9.684-1.999-14.317-1.183L309.7 130.368a28.16 28.16 0 0 0 7.007-11.446c2.686-8.427 1.218-17.174-3.252-24.053-1.756-2.703-5.838-2.228-6.817.844l-4.807 15.073a6.429 6.429 0 0 1-8.073 4.172l-10.086-3.217a6.424 6.424 0 0 1-4.168-8.073l4.807-15.07c.965-3.034-2.03-5.831-4.99-4.668-7.522 2.95-13.728 9.069-16.504 17.287-4.89 14.48 3.03 30.772 17.447 35.84 4.78 1.68 9.684 1.999 14.317 1.183" fill="#C7C1AD" mask="url(#b)"/><path d="M294.787 138.221l44.443 86.068a28.197 28.197 0 0 0-7.008 11.447c-2.686 8.43-1.218 17.176 3.253 24.055 1.756 2.7 5.837 2.225 6.816-.846l4.807-15.074a6.426 6.426 0 0 1 8.077-4.168l10.082 3.214a6.426 6.426 0 0 1 4.168 8.076l-4.803 15.067c-.968 3.033 2.027 5.834 4.987 4.671 7.522-2.953 13.727-9.072 16.504-17.291 4.89-14.48-3.03-30.772-17.448-35.84-4.779-1.675-9.683-1.998-14.317-1.183l-44.443-86.067a28.16 28.16 0 0 0 7.008-11.447c2.686-8.427 1.218-17.173-3.252-24.052-1.756-2.704-5.838-2.229-6.817.843l-4.807 15.073a6.429 6.429 0 0 1-8.073 4.172l-10.086-3.217a6.424 6.424 0 0 1-4.168-8.073l4.807-15.07c.965-3.034-2.03-5.83-4.991-4.668-7.521 2.95-13.727 9.069-16.504 17.288-4.89 14.48 3.03 30.771 17.448 35.839 4.78 1.68 9.683 1.999 14.317 1.183" fill="#C7C1AD" mask="url(#b)"/><path d="M294.991 138.202l44.443 86.068a28.197 28.197 0 0 0-7.007 11.447c-2.687 8.43-1.218 17.177 3.252 24.056 1.756 2.7 5.838 2.224 6.817-.847l4.807-15.074a6.426 6.426 0 0 1 8.076-4.168l10.083 3.214a6.426 6.426 0 0 1 4.168 8.076l-4.804 15.067c-.968 3.033 2.027 5.834 4.988 4.672 7.521-2.954 13.727-9.073 16.503-17.292 4.89-14.48-3.03-30.772-17.447-35.839-4.78-1.676-9.684-1.999-14.317-1.183L310.11 130.33a28.197 28.197 0 0 0 7.007-11.447c2.687-8.427 1.219-17.173-3.252-24.052-1.756-2.704-5.838-2.228-6.816.843l-4.807 15.074a6.429 6.429 0 0 1-8.073 4.172l-10.086-3.218a6.424 6.424 0 0 1-4.169-8.073l4.807-15.07c.965-3.033-2.03-5.83-4.99-4.668-7.522 2.95-13.728 9.07-16.504 17.288-4.89 14.48 3.03 30.772 17.447 35.839 4.78 1.68 9.684 2 14.317 1.183" fill="#C7C1AD" mask="url(#b)"/><path d="M295.196 138.184l44.443 86.068a28.197 28.197 0 0 0-7.007 11.446c-2.687 8.431-1.219 17.177 3.252 24.056 1.756 2.7 5.838 2.225 6.816-.847l4.807-15.073a6.426 6.426 0 0 1 8.077-4.168l10.082 3.213a6.426 6.426 0 0 1 4.169 8.077l-4.804 15.066c-.968 3.034 2.027 5.835 4.988 4.672 7.52-2.953 13.726-9.072 16.503-17.291 4.89-14.48-3.03-30.772-17.447-35.84-4.78-1.676-9.684-1.998-14.317-1.183l-44.443-86.068a28.197 28.197 0 0 0 7.007-11.446c2.686-8.427 1.218-17.173-3.252-24.053-1.756-2.703-5.838-2.228-6.817.844l-4.807 15.073a6.429 6.429 0 0 1-8.073 4.172l-10.086-3.217a6.424 6.424 0 0 1-4.168-8.073l4.807-15.07c.965-3.034-2.03-5.831-4.99-4.668-7.522 2.95-13.728 9.069-16.504 17.287-4.89 14.48 3.03 30.772 17.447 35.84 4.78 1.68 9.684 1.999 14.317 1.183" fill="#C7C1AD" mask="url(#b)"/><path d="M295.4 138.165l44.443 86.068a28.197 28.197 0 0 0-7.007 11.447c-2.686 8.43-1.218 17.177 3.252 24.056 1.756 2.7 5.838 2.224 6.817-.847l4.807-15.074a6.426 6.426 0 0 1 8.076-4.168l10.083 3.214a6.426 6.426 0 0 1 4.168 8.076l-4.803 15.067c-.969 3.033 2.026 5.834 4.987 4.671 7.521-2.953 13.727-9.072 16.504-17.29 4.89-14.48-3.03-30.773-17.448-35.84-4.78-1.676-9.683-2-14.317-1.183l-44.443-86.068a28.197 28.197 0 0 0 7.008-11.447c2.686-8.427 1.218-17.173-3.253-24.052-1.756-2.704-5.837-2.229-6.816.843l-4.807 15.074a6.429 6.429 0 0 1-8.073 4.171l-10.086-3.217a6.424 6.424 0 0 1-4.169-8.073l4.807-15.07c.965-3.033-2.03-5.83-4.99-4.668-7.522 2.95-13.727 9.069-16.504 17.288-4.89 14.48 3.03 30.771 17.448 35.839 4.779 1.68 9.683 1.999 14.316 1.183" fill="#C7C1AD" mask="url(#b)"/><path d="M295.605 138.147l44.443 86.067a28.197 28.197 0 0 0-7.007 11.447c-2.687 8.43-1.218 17.177 3.252 24.056 1.756 2.7 5.838 2.225 6.816-.847l4.807-15.074a6.426 6.426 0 0 1 8.077-4.168l10.082 3.214a6.426 6.426 0 0 1 4.169 8.076l-4.804 15.067c-.968 3.033 2.027 5.834 4.988 4.672 7.521-2.954 13.727-9.073 16.503-17.292 4.89-14.48-3.03-30.771-17.447-35.839-4.78-1.676-9.684-1.999-14.317-1.183l-44.443-86.068a28.197 28.197 0 0 0 7.007-11.447c2.687-8.427 1.219-17.173-3.252-24.052-1.756-2.704-5.838-2.228-6.816.843l-4.807 15.074a6.429 6.429 0 0 1-8.073 4.172l-10.086-3.218a6.424 6.424 0 0 1-4.169-8.073l4.807-15.07c.965-3.033-2.03-5.83-4.99-4.668-7.522 2.95-13.728 9.07-16.504 17.288-4.89 14.48 3.03 30.772 17.447 35.839 4.78 1.68 9.684 2 14.317 1.184" fill="#C7C1AD" mask="url(#b)"/><path d="M295.81 138.128l44.443 86.068a28.197 28.197 0 0 0-7.008 11.447c-2.686 8.43-1.218 17.176 3.252 24.055 1.757 2.7 5.838 2.225 6.817-.846l4.807-15.074a6.426 6.426 0 0 1 8.076-4.168l10.083 3.214a6.426 6.426 0 0 1 4.168 8.076l-4.803 15.067c-.969 3.033 2.027 5.834 4.987 4.671 7.521-2.953 13.727-9.072 16.504-17.291 4.89-14.48-3.03-30.772-17.448-35.84-4.779-1.675-9.683-1.998-14.317-1.183l-44.443-86.068a28.16 28.16 0 0 0 7.008-11.446c2.686-8.427 1.218-17.173-3.252-24.052-1.757-2.704-5.838-2.229-6.817.843l-4.807 15.073a6.429 6.429 0 0 1-8.073 4.172l-10.086-3.217a6.424 6.424 0 0 1-4.168-8.073l4.807-15.07c.965-3.034-2.03-5.831-4.991-4.668-7.521 2.95-13.727 9.069-16.504 17.288-4.89 14.48 3.03 30.771 17.448 35.839 4.779 1.68 9.683 1.999 14.317 1.183" fill="#C7C1AD" mask="url(#b)"/><path d="M296.014 138.11l44.443 86.067a28.197 28.197 0 0 0-7.007 11.447c-2.686 8.43-1.218 17.177 3.252 24.056 1.756 2.7 5.838 2.224 6.817-.847l4.807-15.074a6.426 6.426 0 0 1 8.076-4.168l10.083 3.214a6.426 6.426 0 0 1 4.168 8.076l-4.803 15.067c-.969 3.033 2.026 5.834 4.987 4.672 7.521-2.954 13.727-9.073 16.503-17.292 4.89-14.48-3.03-30.772-17.447-35.839-4.78-1.676-9.683-1.999-14.317-1.183l-44.443-86.068a28.16 28.16 0 0 0 7.007-11.447c2.687-8.427 1.219-17.173-3.252-24.052-1.756-2.704-5.837-2.228-6.816.843l-4.807 15.074a6.429 6.429 0 0 1-8.073 4.172l-10.086-3.218a6.424 6.424 0 0 1-4.169-8.073l4.807-15.07c.965-3.033-2.03-5.83-4.99-4.668-7.522 2.95-13.727 9.07-16.504 17.288-4.89 14.48 3.03 30.772 17.448 35.839 4.779 1.68 9.686 2 14.316 1.183" fill="#C7C1AD" mask="url(#b)"/><path d="M296.219 138.09l44.443 86.069a28.197 28.197 0 0 0-7.008 11.446c-2.686 8.43-1.218 17.177 3.253 24.056 1.756 2.7 5.837 2.225 6.816-.847l4.807-15.073a6.426 6.426 0 0 1 8.077-4.169l10.082 3.214a6.426 6.426 0 0 1 4.168 8.077l-4.803 15.066c-.968 3.034 2.027 5.834 4.987 4.672 7.522-2.954 13.727-9.073 16.504-17.292 4.89-14.48-3.03-30.771-17.448-35.839-4.779-1.676-9.683-1.999-14.316-1.183l-44.444-86.068a28.197 28.197 0 0 0 7.008-11.447c2.686-8.427 1.218-17.173-3.252-24.052-1.756-2.704-5.838-2.228-6.817.843l-4.807 15.074a6.429 6.429 0 0 1-8.073 4.172l-10.086-3.218a6.424 6.424 0 0 1-4.168-8.073l4.807-15.07c.965-3.033-2.03-5.83-4.991-4.668-7.521 2.95-13.727 9.07-16.504 17.288-4.89 14.48 3.03 30.772 17.448 35.84 4.78 1.679 9.683 1.998 14.317 1.183" fill="#C7C1AD" mask="url(#b)"/><path d="M296.424 138.072l44.443 86.068a28.197 28.197 0 0 0-7.008 11.446c-2.686 8.43-1.218 17.177 3.252 24.056 1.757 2.7 5.838 2.225 6.817-.847l4.807-15.073a6.426 6.426 0 0 1 8.076-4.169l10.083 3.214a6.426 6.426 0 0 1 4.168 8.077l-4.803 15.066c-.969 3.034 2.027 5.835 4.987 4.672 7.521-2.954 13.727-9.073 16.504-17.291 4.89-14.48-3.03-30.772-17.448-35.84-4.78-1.676-9.683-1.998-14.317-1.183L311.542 130.2a28.197 28.197 0 0 0 7.008-11.446c2.686-8.427 1.218-17.174-3.252-24.053-1.757-2.703-5.838-2.228-6.817.844l-4.807 15.073a6.429 6.429 0 0 1-8.073 4.172l-10.086-3.217a6.424 6.424 0 0 1-4.168-8.073l4.807-15.07c.965-3.034-2.03-5.831-4.991-4.668-7.521 2.95-13.727 9.069-16.504 17.287-4.89 14.48 3.03 30.772 17.448 35.84 4.779 1.68 9.683 1.999 14.317 1.183" fill="#C7C1AD" mask="url(#b)"/><path d="M296.628 138.054l44.443 86.067a28.197 28.197 0 0 0-7.007 11.447c-2.687 8.43-1.219 17.177 3.252 24.056 1.756 2.7 5.838 2.225 6.816-.847l4.807-15.074a6.426 6.426 0 0 1 8.077-4.168l10.082 3.214a6.426 6.426 0 0 1 4.169 8.076l-4.804 15.067c-.968 3.033 2.027 5.834 4.988 4.672 7.52-2.954 13.727-9.073 16.503-17.292 4.89-14.48-3.03-30.771-17.447-35.839-4.78-1.676-9.684-1.999-14.317-1.183l-44.443-86.068a28.197 28.197 0 0 0 7.007-11.447c2.686-8.427 1.218-17.173-3.252-24.052-1.756-2.704-5.838-2.228-6.817.843l-4.807 15.074a6.429 6.429 0 0 1-8.073 4.172l-10.086-3.218a6.424 6.424 0 0 1-4.168-8.073l4.807-15.07c.965-3.033-2.03-5.83-4.99-4.668-7.522 2.95-13.728 9.07-16.504 17.288-4.89 14.48 3.03 30.772 17.447 35.839 4.78 1.68 9.684 2 14.317 1.184" fill="#C7C1AD" mask="url(#b)"/><path d="M296.832 138.035l44.444 86.068a28.197 28.197 0 0 0-7.008 11.446c-2.686 8.43-1.218 17.177 3.252 24.056 1.756 2.7 5.838 2.225 6.817-.847l4.807-15.073a6.426 6.426 0 0 1 8.076-4.169l10.083 3.214a6.426 6.426 0 0 1 4.168 8.077l-4.803 15.066c-.969 3.034 2.027 5.835 4.987 4.672 7.521-2.954 13.727-9.073 16.504-17.291 4.89-14.48-3.03-30.772-17.448-35.84-4.78-1.676-9.683-1.999-14.317-1.183l-44.443-86.068a28.16 28.16 0 0 0 7.008-11.446c2.686-8.427 1.218-17.174-3.253-24.053-1.756-2.704-5.837-2.228-6.816.844l-4.807 15.073a6.429 6.429 0 0 1-8.073 4.172l-10.086-3.217a6.424 6.424 0 0 1-4.169-8.073l4.807-15.07c.965-3.034-2.03-5.831-4.99-4.669-7.522 2.95-13.727 9.07-16.504 17.288-4.89 14.48 3.03 30.772 17.448 35.84 4.779 1.68 9.683 1.998 14.316 1.183" fill="#C7C1AD" mask="url(#b)"/><path d="M297.037 138.016l44.443 86.068a28.197 28.197 0 0 0-7.007 11.447c-2.687 8.43-1.218 17.177 3.252 24.056 1.756 2.7 5.838 2.224 6.817-.847l4.807-15.074a6.426 6.426 0 0 1 8.076-4.168l10.083 3.214a6.426 6.426 0 0 1 4.168 8.076l-4.804 15.067c-.968 3.033 2.027 5.834 4.988 4.672 7.521-2.954 13.727-9.073 16.503-17.292 4.89-14.48-3.03-30.772-17.447-35.839-4.78-1.676-9.684-1.999-14.317-1.183l-44.443-86.068a28.16 28.16 0 0 0 7.007-11.447c2.687-8.427 1.219-17.173-3.252-24.052-1.756-2.704-5.838-2.228-6.816.843l-4.807 15.074a6.429 6.429 0 0 1-8.073 4.172l-10.086-3.218a6.424 6.424 0 0 1-4.169-8.073l4.807-15.07c.965-3.033-2.03-5.83-4.99-4.668-7.522 2.95-13.728 9.07-16.504 17.288-4.89 14.48 3.03 30.772 17.447 35.839 4.78 1.68 9.684 1.999 14.317 1.183" fill="#C7C1AD" mask="url(#b)"/><path d="M297.242 137.998l44.443 86.068a28.197 28.197 0 0 0-7.007 11.446c-2.687 8.43-1.219 17.177 3.252 24.056 1.756 2.7 5.838 2.225 6.816-.847l4.807-15.073a6.426 6.426 0 0 1 8.077-4.169l10.082 3.214a6.426 6.426 0 0 1 4.169 8.077l-4.804 15.066c-.968 3.034 2.027 5.834 4.988 4.672 7.52-2.954 13.726-9.073 16.503-17.292 4.89-14.48-3.03-30.771-17.447-35.839-4.78-1.676-9.684-1.999-14.317-1.183l-44.443-86.068a28.197 28.197 0 0 0 7.007-11.447c2.686-8.427 1.218-17.173-3.252-24.052-1.756-2.704-5.838-2.228-6.817.843l-4.807 15.074a6.429 6.429 0 0 1-8.073 4.172l-10.086-3.218a6.424 6.424 0 0 1-4.168-8.073l4.807-15.07c.965-3.033-2.03-5.83-4.99-4.668-7.522 2.95-13.728 9.07-16.504 17.288-4.89 14.48 3.03 30.772 17.447 35.84 4.78 1.679 9.684 1.998 14.317 1.183" fill="#C7C1AD" mask="url(#b)"/><path d="M297.446 137.979l44.444 86.068a28.197 28.197 0 0 0-7.008 11.446c-2.686 8.43-1.218 17.177 3.252 24.056 1.756 2.7 5.838 2.225 6.817-.847l4.807-15.073a6.426 6.426 0 0 1 8.076-4.169l10.083 3.214a6.426 6.426 0 0 1 4.168 8.077l-4.803 15.066c-.969 3.034 2.027 5.835 4.987 4.672 7.521-2.954 13.727-9.073 16.504-17.291 4.89-14.48-3.03-30.772-17.448-35.84-4.78-1.676-9.683-1.999-14.317-1.183l-44.443-86.068a28.197 28.197 0 0 0 7.008-11.446c2.686-8.427 1.218-17.174-3.253-24.053-1.756-2.703-5.837-2.228-6.816.844l-4.807 15.073a6.429 6.429 0 0 1-8.073 4.172l-10.086-3.217a6.424 6.424 0 0 1-4.169-8.073l4.807-15.07c.965-3.034-2.03-5.831-4.99-4.668-7.522 2.95-13.727 9.069-16.504 17.287-4.89 14.48 3.03 30.772 17.448 35.84 4.779 1.68 9.683 1.999 14.316 1.183" fill="#C7C1AD" mask="url(#b)"/><path d="M297.65 137.96l44.444 86.068a28.197 28.197 0 0 0-7.008 11.447c-2.686 8.43-1.218 17.176 3.253 24.055 1.756 2.7 5.837 2.225 6.816-.846l4.807-15.074a6.426 6.426 0 0 1 8.077-4.168l10.082 3.214a6.426 6.426 0 0 1 4.169 8.076l-4.804 15.067c-.968 3.033 2.027 5.834 4.987 4.671 7.522-2.953 13.727-9.072 16.504-17.291 4.89-14.48-3.03-30.772-17.448-35.84-4.779-1.675-9.683-1.998-14.316-1.183l-44.444-86.067a28.197 28.197 0 0 0 7.008-11.447c2.686-8.427 1.218-17.173-3.252-24.052-1.756-2.704-5.838-2.229-6.817.843l-4.807 15.073a6.429 6.429 0 0 1-8.073 4.172l-10.086-3.217a6.424 6.424 0 0 1-4.168-8.073l4.807-15.07c.965-3.034-2.03-5.83-4.991-4.668-7.521 2.95-13.727 9.069-16.504 17.288-4.89 14.48 3.03 30.771 17.448 35.839 4.78 1.68 9.683 1.999 14.317 1.183" fill="#C7C1AD" mask="url(#b)"/><path d="M297.856 137.942l44.443 86.068a28.197 28.197 0 0 0-7.008 11.446c-2.686 8.43-1.218 17.177 3.252 24.056 1.757 2.7 5.838 2.225 6.817-.847l4.807-15.073a6.426 6.426 0 0 1 8.076-4.169l10.083 3.214a6.426 6.426 0 0 1 4.168 8.077l-4.803 15.066c-.969 3.034 2.027 5.835 4.987 4.672 7.521-2.954 13.727-9.073 16.504-17.291 4.89-14.48-3.03-30.772-17.448-35.84-4.779-1.676-9.683-1.999-14.317-1.183l-44.443-86.068a28.197 28.197 0 0 0 7.008-11.446c2.686-8.427 1.218-17.174-3.252-24.053-1.757-2.704-5.838-2.228-6.817.844l-4.807 15.073a6.429 6.429 0 0 1-8.073 4.172l-10.086-3.217a6.424 6.424 0 0 1-4.168-8.073l4.807-15.07c.965-3.034-2.03-5.831-4.991-4.669-7.521 2.95-13.727 9.07-16.504 17.288-4.89 14.48 3.03 30.772 17.448 35.84 4.779 1.68 9.683 1.998 14.317 1.183" fill="#C7C1AD" mask="url(#b)"/><path d="M298.06 137.923l44.443 86.068a28.197 28.197 0 0 0-7.007 11.446c-2.687 8.431-1.219 17.177 3.252 24.056 1.756 2.7 5.838 2.225 6.816-.847l4.807-15.073a6.426 6.426 0 0 1 8.077-4.168l10.082 3.213a6.426 6.426 0 0 1 4.169 8.077l-4.804 15.066c-.968 3.034 2.027 5.835 4.988 4.672 7.52-2.953 13.727-9.072 16.503-17.291 4.89-14.48-3.03-30.772-17.447-35.84-4.78-1.676-9.684-1.998-14.317-1.183l-44.443-86.068a28.16 28.16 0 0 0 7.007-11.446c2.687-8.427 1.218-17.173-3.252-24.053-1.756-2.703-5.838-2.228-6.817.844l-4.807 15.073a6.429 6.429 0 0 1-8.072 4.172l-10.087-3.217a6.424 6.424 0 0 1-4.168-8.073l4.807-15.07c.965-3.034-2.03-5.831-4.99-4.668-7.522 2.95-13.728 9.069-16.504 17.287-4.89 14.48 3.03 30.772 17.447 35.84 4.78 1.68 9.684 1.999 14.317 1.183" fill="#C7C1AD" mask="url(#b)"/><path d="M298.265 137.904l44.443 86.068a28.197 28.197 0 0 0-7.008 11.447c-2.686 8.43-1.218 17.177 3.253 24.056 1.756 2.7 5.837 2.224 6.816-.847l4.807-15.074a6.426 6.426 0 0 1 8.077-4.168l10.082 3.214a6.426 6.426 0 0 1 4.169 8.076l-4.804 15.067c-.968 3.033 2.027 5.834 4.987 4.671 7.522-2.953 13.727-9.072 16.504-17.29 4.89-14.48-3.03-30.773-17.448-35.84-4.779-1.676-9.683-2-14.316-1.183l-44.444-86.068a28.16 28.16 0 0 0 7.008-11.447c2.686-8.427 1.218-17.173-3.252-24.052-1.756-2.704-5.838-2.229-6.817.843l-4.807 15.074a6.429 6.429 0 0 1-8.073 4.171l-10.086-3.217a6.424 6.424 0 0 1-4.168-8.073l4.807-15.07c.965-3.033-2.03-5.83-4.991-4.668-7.521 2.95-13.727 9.069-16.504 17.288-4.89 14.48 3.03 30.771 17.448 35.839 4.78 1.68 9.687 1.999 14.317 1.183" fill="#C7C1AD" mask="url(#b)"/><path d="M298.47 137.886l44.442 86.068a28.197 28.197 0 0 0-7.007 11.446c-2.686 8.43-1.218 17.177 3.252 24.056 1.756 2.7 5.838 2.225 6.817-.847l4.807-15.073a6.426 6.426 0 0 1 8.076-4.169l10.083 3.214a6.426 6.426 0 0 1 4.168 8.077l-4.804 15.066c-.968 3.034 2.027 5.835 4.988 4.672 7.521-2.954 13.727-9.073 16.503-17.291 4.89-14.48-3.03-30.772-17.447-35.84-4.78-1.676-9.684-1.999-14.317-1.183l-44.443-86.068a28.197 28.197 0 0 0 7.007-11.446c2.687-8.427 1.219-17.174-3.252-24.053-1.756-2.703-5.838-2.228-6.816.844l-4.807 15.073a6.429 6.429 0 0 1-8.073 4.172l-10.086-3.217a6.424 6.424 0 0 1-4.169-8.073l4.807-15.07c.965-3.034-2.03-5.831-4.99-4.669-7.522 2.95-13.727 9.07-16.504 17.288-4.89 14.48 3.03 30.772 17.447 35.84 4.78 1.68 9.684 1.999 14.317 1.183" fill="#C7C1AD" mask="url(#b)"/><path d="M298.674 137.867l44.443 86.068a28.197 28.197 0 0 0-7.007 11.447c-2.687 8.43-1.219 17.176 3.252 24.055 1.756 2.7 5.838 2.225 6.816-.846l4.807-15.074a6.426 6.426 0 0 1 8.077-4.168l10.082 3.214a6.426 6.426 0 0 1 4.169 8.076l-4.804 15.067c-.968 3.033 2.027 5.834 4.988 4.671 7.52-2.953 13.727-9.072 16.503-17.291 4.89-14.48-3.03-30.772-17.447-35.84-4.78-1.675-9.684-1.998-14.317-1.183l-44.443-86.068a28.197 28.197 0 0 0 7.007-11.446c2.687-8.427 1.218-17.173-3.252-24.052-1.756-2.704-5.838-2.229-6.817.843l-4.807 15.073a6.429 6.429 0 0 1-8.073 4.172l-10.086-3.217a6.424 6.424 0 0 1-4.168-8.073l4.807-15.07c.965-3.034-2.03-5.831-4.99-4.668-7.522 2.95-13.728 9.069-16.504 17.288-4.89 14.48 3.03 30.771 17.447 35.839 4.78 1.68 9.684 1.999 14.317 1.183" fill="#C7C1AD" mask="url(#b)"/><path d="M298.878 137.848l44.444 86.068a28.197 28.197 0 0 0-7.008 11.447c-2.686 8.43-1.218 17.177 3.252 24.056 1.756 2.7 5.838 2.224 6.817-.847l4.807-15.074a6.426 6.426 0 0 1 8.076-4.168l10.083 3.214a6.426 6.426 0 0 1 4.168 8.076l-4.803 15.067c-.969 3.033 2.027 5.834 4.987 4.672 7.521-2.954 13.727-9.073 16.504-17.292 4.89-14.48-3.03-30.772-17.448-35.839-4.78-1.676-9.683-1.999-14.317-1.183l-44.443-86.068a28.197 28.197 0 0 0 7.008-11.447c2.686-8.427 1.218-17.173-3.253-24.052-1.756-2.704-5.837-2.228-6.816.843l-4.807 15.074a6.429 6.429 0 0 1-8.073 4.172l-10.086-3.218a6.424 6.424 0 0 1-4.168-8.073l4.807-15.07c.964-3.033-2.03-5.83-4.991-4.668-7.522 2.95-13.727 9.07-16.504 17.288-4.89 14.48 3.03 30.772 17.448 35.839 4.779 1.68 9.683 2 14.316 1.183" fill="#C7C1AD" mask="url(#b)"/><path d="M298.878 137.848l44.444 86.068a28.197 28.197 0 0 0-7.008 11.447c-2.686 8.43-1.218 17.177 3.252 24.056 1.756 2.7 5.838 2.224 6.817-.847l4.807-15.074a6.426 6.426 0 0 1 8.076-4.168l10.083 3.214a6.426 6.426 0 0 1 4.168 8.076l-4.803 15.067c-.969 3.033 2.027 5.834 4.987 4.672 7.521-2.954 13.727-9.073 16.504-17.292 4.89-14.48-3.03-30.772-17.448-35.839-4.78-1.676-9.683-1.999-14.317-1.183l-44.443-86.068a28.197 28.197 0 0 0 7.008-11.447c2.686-8.427 1.218-17.173-3.253-24.052-1.756-2.704-5.837-2.228-6.816.843l-4.807 15.074a6.429 6.429 0 0 1-8.073 4.172l-10.086-3.218a6.424 6.424 0 0 1-4.168-8.073l4.807-15.07c.964-3.033-2.03-5.83-4.991-4.668-7.522 2.95-13.727 9.07-16.504 17.288-4.89 14.48 3.03 30.772 17.448 35.839 4.779 1.68 9.683 2 14.316 1.183" fill="#D1CAB6" mask="url(#b)"/><path d="M604.58 29.896c-11.984 0-21.706 9.718-21.706 21.706V183.8H43.432V51.602c0-11.988-9.718-21.706-21.706-21.706S.019 39.614.019 51.602V378.11c0 10.614 8.604 19.218 19.218 19.218H607.07c10.617 0 19.218-8.604 19.218-19.218V51.602c0-11.988-9.719-21.706-21.707-21.706" fill="#DF8F62" mask="url(#b)"/><path d="M557.465 369.796H68.84c-10.94 0-19.807-8.867-19.807-19.81V233.42c0-10.94 8.867-19.808 19.807-19.808h488.624c10.94 0 19.811 8.868 19.811 19.808v116.565c0 10.944-8.871 19.811-19.811 19.811" fill="#CD7B52" mask="url(#b)"/></g></g></svg>