<svg width="500" height="500" viewBox="0 0 500 500" xmlns="http://www.w3.org/2000/svg" xmlns:xlink="http://www.w3.org/1999/xlink"><title>236C4B99-B7FD-4699-A580-0DB4D358CBB2</title><defs><path d="M11.495 13.118A77.084 77.084 0 0 0 8.679.244H.215v12.874h11.28z" id="a"/><path d="M6.18.604A77.019 77.019 0 0 0 .689 13.48h5.927V.604H6.18z" id="c"/><path d="M10.109.025A77.69 77.69 0 0 0 .045 12.9H10.95V.025h-.841z" id="e"/><path d="M8.093.757A77.474 77.474 0 0 0 .44 6.527h7.653V.758z" id="g"/><path d="M1.215.41C.932.52.65.633.369.75v12.534h13.374V.409H1.215z" id="i"/><path d="M13.477 4.842A76.762 76.762 0 0 0 3.304.17H.103v12.874h13.374V4.842z" id="k"/><path id="m" d="M.067 100.808h100.576V.016H.067z"/></defs><g fill="none" fill-rule="evenodd"><path d="M50 252.6c0 111.402 90.117 201.71 201.283 201.71 111.167 0 201.284-90.308 201.284-201.71 0-111.403-90.117-201.71-201.284-201.71C140.117 50.89 50 141.196 50 252.6" fill="#EFEEEE"/><path d="M331.44 174.478l.203-17.8c5.17-6.402 4.922-15.77-.96-21.803-6.342-6.504-16.741-6.623-23.232-.27-6.02 5.896-6.483 15.257-1.464 21.775l-.206 17.8c-7.32 2.263-12.756 8.999-12.848 17.065-.038 3.341 2.634 6.082 5.969 6.121l38.885.45c3.334.038 6.07-2.64 6.108-5.982.091-8.066-5.183-14.928-12.455-17.356" fill="#F1AA27"/><path d="M355.242 212.22l-74.124-.857.165-14.292c.063-5.448 4.563-9.856 10.003-9.793l54.345.628c5.44.06 9.839 4.574 9.776 10.021l-.165 14.293z" fill="#3FA0B6"/><path d="M341.496 439.882l-51.876-.6c-12.193-.14-22.056-10.253-21.916-22.475l2.249-195.455c.14-12.218 10.234-22.102 22.427-21.962l51.876.6c12.196.14 22.059 10.256 21.919 22.475l-2.253 195.455c-.14 12.218-10.23 22.102-22.426 21.962" fill="#CFE2F2"/><path d="M366.15 224.448l-96.218-1.113.165-14.289c.063-5.45 4.564-9.859 10.003-9.796l76.44.885c5.439.06 9.838 4.573 9.775 10.02l-.165 14.293z" fill="#59B8BB"/><path d="M300.528 259.05c-9.152-3.104-17.887-2.932-25.11-1.63l-1.639 142.445c-.171 14.92 11.87 27.269 26.76 27.44l30.314.352c14.893.172 27.215-11.895 27.386-26.816l1.482-128.78c-24.042 3.176-40.129-6.546-59.193-13.012" fill="#F8EFDE"/><path d="M358.088 200.639l-3.177-.035.046-4.22c.049-4.334-3.45-7.925-7.776-7.974l-4.206-.05c-1.352-6.282-5.965-11.382-12.007-13.4l.203-17.8c5.17-6.401 4.921-15.77-.96-21.803-2.882-2.955-6.609-4.52-10.42-4.833v309.595l25.765.299c9.702.112 17.73-7.754 17.842-17.476l2.353-204.536.116-9.793c.05-4.334-3.45-7.925-7.78-7.974" fill="#CFE2F2" style="mix-blend-mode:multiply" opacity=".291"/><path d="M377.517 285.52l-5.93-13.17c1.615-6.486-1.765-13.295-8.157-15.717-6.886-2.611-14.585.87-17.187 7.771-2.42 6.406.438 13.454 6.357 16.528l5.933 13.173c-4.62 4.177-6.315 11-3.628 16.967a4.901 4.901 0 0 0 6.483 2.457l28.77-13.011a4.916 4.916 0 0 0 2.455-6.497c-2.686-5.967-8.914-9.207-15.096-8.501" fill="#F1AA27"/><path d="M407.928 305.131l-54.846 24.798-3.996-8.87c-2.235-4.97-.01-10.87 4.949-13.11l36.815-16.647c4.96-2.243 10.847-.01 13.082 4.956l3.996 8.873z" fill="#3FA0B6"/><path d="M408.293 379.246c-12.893 5.83-28.059.08-33.877-12.84-5.817-12.92-.084-28.118 12.81-33.948 12.892-5.83 28.061-.08 33.88 12.84 5.817 12.92.08 28.118-12.813 33.948m-27.79-61.716c-21.116 9.55-30.513 34.45-20.983 55.612 9.53 21.165 34.374 30.582 55.494 21.032 21.12-9.55 30.514-34.447 20.987-55.612-9.53-21.165-34.377-30.582-55.497-21.032" fill="#3FA0B6"/><path d="M335.797 326.97l81.353-36.784c3.153-1.425 6.897-.007 8.319 3.152l1.912 4.25c1.422 3.156.007 6.908-3.145 8.333l-81.353 36.784c-3.153 1.429-6.897.008-8.319-3.151l-1.912-4.247c-1.422-3.16-.007-6.912 3.145-8.337" fill="#59B8BB"/><path d="M388.524 333.12c12.791-5.49 27.663.257 33.414 13.022 5.24 11.64 1.083 25.107-9.218 31.927l7.775 14.447c17.783-10.895 25.135-33.58 16.34-53.11-5.892-13.084-17.643-21.66-30.742-24.06l19.46-8.8c2.886-1.305 4.182-4.738 2.88-7.63l-2.351-5.22c-1.303-2.891-4.729-4.19-7.615-2.884l-13.737 6.209-1.036-2.296c-1.646-3.66-5.986-5.303-9.64-3.654l-2.29 1.04c-3.142-4.164-8.276-6.333-13.415-5.747l-5.93-13.169c1.619-6.486-1.765-13.296-8.157-15.718-5.264-1.997-8.651-2.425-12.224 1.506l36.486 74.138z" fill="#CFE2F2" style="mix-blend-mode:multiply" opacity=".291"/><path d="M267.602 235.295c.186-2.317.309-4.651.284-7.02-.42-42.723-35.32-77.012-77.949-76.588-42.629.422-76.849 35.395-76.425 78.115.021 2.369.193 4.703.424 7.016l153.666-1.523z" fill="#A6D5D7"/><path d="M265.617 254.006l-145.81 1.443c-7.083.07-12.936-5.676-13.006-12.773l-.052-5.454c-.07-7.125 5.639-12.959 12.749-13.03l145.81-1.445c7.11-.07 12.932 5.65 13.002 12.776l.056 5.455c.07 7.093-5.667 12.958-12.75 13.028M208.158 135.26c.09 9.2-7.278 16.732-16.459 16.823-9.18.092-16.696-7.293-16.787-16.493-.091-9.2 7.278-16.732 16.458-16.823 9.18-.091 16.697 7.294 16.788 16.493" fill="#59B8BB"/><g><path d="M130.556 207.867l1.352 2.681c.143.281.413.474.725.516l2.97.4a.96.96 0 0 1 .546 1.63l-2.126 2.116a.958.958 0 0 0-.266.849l.536 2.955c.14.783-.673 1.387-1.377 1.025l-2.665-1.372a.95.95 0 0 0-.89.01l-2.637 1.422a.956.956 0 0 1-1.398-.993l.477-2.966a.96.96 0 0 0-.28-.846l-2.168-2.075a.958.958 0 0 1 .51-1.639l2.964-.46a.955.955 0 0 0 .715-.53l1.299-2.706a.953.953 0 0 1 1.713-.017M157.22 207.603l1.353 2.681c.143.281.413.474.725.516l2.97.4a.96.96 0 0 1 .546 1.63l-2.126 2.116a.958.958 0 0 0-.266.849l.536 2.955c.14.783-.673 1.387-1.377 1.025l-2.665-1.372a.95.95 0 0 0-.89.01l-2.637 1.422a.956.956 0 0 1-1.398-.993l.477-2.966a.96.96 0 0 0-.28-.846l-2.169-2.075a.958.958 0 0 1 .512-1.639l2.963-.46a.955.955 0 0 0 .714-.53l1.3-2.706a.953.953 0 0 1 1.713-.017M183.885 207.339l1.352 2.681c.144.28.413.474.725.516l2.97.4a.96.96 0 0 1 .547 1.629l-2.127 2.116a.958.958 0 0 0-.266.85l.536 2.955c.14.783-.672 1.387-1.376 1.025l-2.666-1.372a.95.95 0 0 0-.89.01l-2.637 1.422a.956.956 0 0 1-1.397-.994l.476-2.966a.96.96 0 0 0-.28-.845l-2.168-2.075a.958.958 0 0 1 .511-1.639l2.963-.46a.955.955 0 0 0 .715-.53l1.3-2.706a.953.953 0 0 1 1.712-.017M210.124 207.079l1.352 2.681c.143.281.413.474.725.516l2.97.4a.96.96 0 0 1 .546 1.63l-2.126 2.116a.958.958 0 0 0-.266.849l.536 2.955c.14.783-.672 1.387-1.376 1.025l-2.666-1.372a.95.95 0 0 0-.89.01l-2.637 1.422a.956.956 0 0 1-1.397-.993l.476-2.966a.96.96 0 0 0-.28-.846l-2.168-2.075a.958.958 0 0 1 .511-1.639l2.963-.46a.955.955 0 0 0 .715-.53l1.3-2.706a.953.953 0 0 1 1.712-.017M236.789 206.814l1.352 2.682c.143.28.413.474.725.516l2.97.4a.96.96 0 0 1 .546 1.629l-2.126 2.116a.958.958 0 0 0-.266.85l.536 2.955c.14.783-.673 1.387-1.377 1.025l-2.665-1.372a.95.95 0 0 0-.89.01l-2.637 1.422a.956.956 0 0 1-1.398-.994l.477-2.966a.96.96 0 0 0-.28-.845l-2.169-2.075a.958.958 0 0 1 .512-1.639l2.963-.46a.955.955 0 0 0 .714-.53l1.3-2.706a.953.953 0 0 1 1.713-.018" fill="#59B8BB"/><g transform="translate(255.74 205.78)"><mask id="b" fill="#fff"><use xlink:href="#a"/></mask><path d="M7.714.77L9.066 3.45c.143.281.413.474.725.516l2.97.4a.96.96 0 0 1 .546 1.63l-2.126 2.116a.958.958 0 0 0-.266.849l.536 2.955c.14.783-.673 1.387-1.377 1.025L7.41 11.57a.95.95 0 0 0-.89.01l-2.637 1.422a.956.956 0 0 1-1.398-.993l.477-2.966a.96.96 0 0 0-.28-.846L.512 6.122a.958.958 0 0 1 .512-1.639l2.963-.46a.955.955 0 0 0 .714-.53l1.3-2.706A.953.953 0 0 1 7.714.77" fill="#59B8BB" mask="url(#b)"/></g><g transform="translate(116.548 191.741)"><mask id="d" fill="#fff"><use xlink:href="#c"/></mask><path d="M.739 1.13L2.091 3.81c.144.281.413.474.725.516l2.97.4a.96.96 0 0 1 .547 1.63L4.207 8.472a.958.958 0 0 0-.267.85l.536 2.954c.14.783-.672 1.387-1.376 1.025L.434 11.93a.95.95 0 0 0-.89.01l-2.637 1.422a.956.956 0 0 1-1.397-.993l.476-2.966a.96.96 0 0 0-.28-.846l-2.168-2.074a.958.958 0 0 1 .511-1.64l2.963-.46a.955.955 0 0 0 .715-.53l1.3-2.706A.953.953 0 0 1 .738 1.13" fill="#59B8BB" mask="url(#d)"/></g><path d="M143.952 192.607l1.352 2.681c.143.28.413.474.725.516l2.97.4a.96.96 0 0 1 .546 1.629l-2.126 2.116a.958.958 0 0 0-.266.85l.536 2.955c.14.783-.672 1.387-1.376 1.025l-2.666-1.372a.95.95 0 0 0-.89.01l-2.637 1.422a.956.956 0 0 1-1.397-.994l.476-2.966a.96.96 0 0 0-.28-.845l-2.168-2.075c-.575-.547-.27-1.516.511-1.635l2.963-.464a.955.955 0 0 0 .715-.53l1.3-2.706a.953.953 0 0 1 1.712-.017M170.617 192.343l1.352 2.681c.143.281.413.474.725.516l2.97.4a.96.96 0 0 1 .546 1.629l-2.126 2.116a.958.958 0 0 0-.266.85l.536 2.955c.14.783-.673 1.387-1.377 1.025l-2.665-1.372a.95.95 0 0 0-.89.01l-2.637 1.422a.956.956 0 0 1-1.398-.994l.477-2.965a.96.96 0 0 0-.28-.846l-2.169-2.075a.958.958 0 0 1 .512-1.639l2.963-.46a.955.955 0 0 0 .715-.53l1.299-2.706a.953.953 0 0 1 1.713-.017M196.855 192.082l1.352 2.682c.144.28.413.474.725.516l2.97.4a.96.96 0 0 1 .547 1.629l-2.126 2.116a.958.958 0 0 0-.266.85l.535 2.955c.14.783-.672 1.387-1.376 1.025l-2.666-1.372a.95.95 0 0 0-.89.01l-2.637 1.422a.956.956 0 0 1-1.397-.994l.476-2.966a.96.96 0 0 0-.28-.845l-2.168-2.075a.958.958 0 0 1 .511-1.639l2.964-.46a.955.955 0 0 0 .714-.53l1.3-2.706a.953.953 0 0 1 1.712-.018M223.52 191.819l1.352 2.681c.144.28.413.474.725.516l2.97.4a.96.96 0 0 1 .547 1.629l-2.127 2.116a.958.958 0 0 0-.266.85l.536 2.955c.14.783-.672 1.387-1.376 1.025l-2.666-1.372a.95.95 0 0 0-.89.01l-2.637 1.422a.956.956 0 0 1-1.397-.994l.476-2.966a.96.96 0 0 0-.28-.845l-2.168-2.075a.958.958 0 0 1 .511-1.639l2.963-.46a.955.955 0 0 0 .715-.53l1.3-2.706a.953.953 0 0 1 1.712-.017M250.185 191.554l1.352 2.682c.143.28.413.474.725.516l2.97.4a.96.96 0 0 1 .546 1.629l-2.126 2.116a.958.958 0 0 0-.266.85l.536 2.955c.14.783-.673 1.386-1.377 1.025l-2.665-1.373a.95.95 0 0 0-.89.01l-2.637 1.422a.956.956 0 0 1-1.398-.993l.477-2.966a.96.96 0 0 0-.28-.846l-2.168-2.074a.958.958 0 0 1 .51-1.64l2.964-.459a.955.955 0 0 0 .715-.53l1.299-2.706a.953.953 0 0 1 1.713-.018" fill="#59B8BB"/><g transform="translate(125.165 175.172)"><mask id="f" fill="#fff"><use xlink:href="#e"/></mask><path d="M5.074.551l1.352 2.682c.144.28.413.473.725.516l2.97.4a.96.96 0 0 1 .547 1.628L8.54 7.894a.958.958 0 0 0-.266.85l.536 2.955c.14.782-.672 1.386-1.376 1.025L4.769 11.35a.95.95 0 0 0-.89.01l-2.637 1.422a.956.956 0 0 1-1.397-.993L.32 8.824a.96.96 0 0 0-.28-.846l-2.168-2.074a.958.958 0 0 1 .511-1.64l2.963-.46a.955.955 0 0 0 .715-.53L3.362.57A.953.953 0 0 1 5.073.55" fill="#59B8BB" mask="url(#f)"/></g><path d="M156.904 175.459l1.352 2.682c.143.28.413.473.725.516l2.97.4a.96.96 0 0 1 .546 1.628l-2.126 2.117a.958.958 0 0 0-.266.85l.536 2.955c.14.782-.673 1.386-1.377 1.025l-2.665-1.373a.95.95 0 0 0-.89.01l-2.637 1.422a.956.956 0 0 1-1.398-.993l.477-2.966a.96.96 0 0 0-.28-.846l-2.169-2.074a.958.958 0 0 1 .512-1.64l2.963-.46a.955.955 0 0 0 .714-.53l1.3-2.705a.953.953 0 0 1 1.713-.018M183.568 175.195l1.352 2.681c.144.281.414.474.725.516l2.97.4a.96.96 0 0 1 .547 1.629l-2.126 2.117a.958.958 0 0 0-.266.849l.536 2.955c.14.783-.673 1.387-1.377 1.025l-2.665-1.372a.95.95 0 0 0-.89.01l-2.637 1.422a.956.956 0 0 1-1.398-.993l.476-2.966a.96.96 0 0 0-.28-.846l-2.168-2.075a.958.958 0 0 1 .512-1.639l2.963-.46a.955.955 0 0 0 .714-.53l1.3-2.706a.953.953 0 0 1 1.712-.017M209.807 174.935l1.352 2.682c.144.28.413.473.725.516l2.97.4a.96.96 0 0 1 .547 1.628l-2.126 2.117a.958.958 0 0 0-.266.85l.535 2.955c.14.782-.672 1.386-1.376 1.024l-2.666-1.372a.95.95 0 0 0-.89.01l-2.637 1.422a.956.956 0 0 1-1.397-.993l.476-2.966a.96.96 0 0 0-.28-.846l-2.168-2.074c-.574-.548-.27-1.517.511-1.636l2.964-.463a.955.955 0 0 0 .714-.53l1.3-2.706a.953.953 0 0 1 1.712-.018M236.472 174.671l1.352 2.682c.143.28.413.473.725.516l2.97.4a.96.96 0 0 1 .546 1.628l-2.126 2.117a.958.958 0 0 0-.266.85l.536 2.955c.14.782-.673 1.386-1.377 1.025l-2.665-1.373a.95.95 0 0 0-.89.01l-2.637 1.422a.956.956 0 0 1-1.398-.993l.477-2.966a.96.96 0 0 0-.28-.846l-2.169-2.074a.958.958 0 0 1 .512-1.64l2.963-.46a.955.955 0 0 0 .714-.53l1.3-2.705a.953.953 0 0 1 1.713-.018" fill="#59B8BB"/><g transform="translate(140.156 163.661)"><mask id="h" fill="#fff"><use xlink:href="#g"/></mask><path d="M2.218-5.82L3.57-3.14c.143.281.413.475.725.517l2.97.4a.96.96 0 0 1 .546 1.628L5.685 1.522a.958.958 0 0 0-.266.85l.536 2.955c.14.782-.672 1.386-1.376 1.025L1.913 4.979a.95.95 0 0 0-.89.01l-2.637 1.422a.956.956 0 0 1-1.397-.993l.476-2.966a.96.96 0 0 0-.28-.846L-4.983-.468a.958.958 0 0 1 .511-1.64l2.963-.46a.955.955 0 0 0 .715-.53l1.3-2.705a.953.953 0 0 1 1.712-.018" fill="#59B8BB" mask="url(#h)"/></g><g transform="translate(161.171 156.641)"><mask id="j" fill="#fff"><use xlink:href="#i"/></mask><path d="M7.867.935L9.22 3.617c.144.28.414.474.725.516l2.97.4a.96.96 0 0 1 .547 1.628l-2.126 2.117a.958.958 0 0 0-.266.85l.536 2.955c.14.782-.673 1.386-1.377 1.025l-2.665-1.373a.95.95 0 0 0-.89.01l-2.637 1.422a.956.956 0 0 1-1.398-.993l.476-2.966a.96.96 0 0 0-.28-.846L.666 6.288c-.574-.548-.27-1.517.512-1.636L4.14 4.19a.955.955 0 0 0 .714-.53l1.3-2.706A.953.953 0 0 1 7.867.935" fill="#59B8BB" mask="url(#j)"/></g><path d="M195.277 157.316l1.352 2.682c.144.28.414.474.725.516l2.97.4a.96.96 0 0 1 .547 1.629l-2.126 2.116a.958.958 0 0 0-.266.85l.536 2.955c.14.783-.673 1.386-1.377 1.025l-2.665-1.372a.95.95 0 0 0-.89.01l-2.637 1.422a.956.956 0 0 1-1.398-.994l.476-2.966a.96.96 0 0 0-.28-.846l-2.168-2.074a.958.958 0 0 1 .511-1.64l2.964-.459a.955.955 0 0 0 .714-.53l1.3-2.706a.953.953 0 0 1 1.712-.018" fill="#59B8BB"/><g transform="translate(214.34 156.357)"><mask id="l" fill="#fff"><use xlink:href="#k"/></mask><path d="M7.601.696l1.352 2.681c.144.281.414.474.725.516l2.97.4a.96.96 0 0 1 .547 1.63l-2.126 2.116a.958.958 0 0 0-.266.85l.535 2.954c.14.783-.672 1.387-1.376 1.025l-2.665-1.372a.95.95 0 0 0-.89.01L3.77 12.928a.956.956 0 0 1-1.398-.993l.476-2.966a.96.96 0 0 0-.28-.846L.4 6.049a.958.958 0 0 1 .511-1.64l2.964-.46a.955.955 0 0 0 .714-.53L5.89.714A.953.953 0 0 1 7.6.696" fill="#59B8BB" mask="url(#l)"/></g></g><path d="M278.544 245.083l-.126-12.966c-.053-5.05-4.179-9.108-9.22-9.056l-1.442.014c-3.117-38.57-34.391-69.026-73.049-70.936 7.797-1.439 13.674-8.311 13.593-16.528-.09-9.2-7.607-16.585-16.787-16.493-.039 0-.07.003-.105.003l.973 135.962 77.126-.762c5.02-.053 9.086-4.208 9.037-9.238" fill="#CFE2F2" style="mix-blend-mode:multiply" opacity=".291"/><g><path d="M139.831 454.418H69.763c-8.27 0-15.036-6.781-15.036-15.068v-70.217c0-8.287 6.767-15.068 15.036-15.068h70.068c8.27 0 15.037 6.781 15.037 15.068v70.217c0 8.287-6.767 15.068-15.037 15.068" fill="#36909F"/><path d="M252.415 454.418h-70.068c-8.27 0-15.036-6.781-15.036-15.068v-70.217c0-8.287 6.767-15.068 15.036-15.068h70.068c8.27 0 15.037 6.781 15.037 15.068v70.217c0 8.287-6.767 15.068-15.037 15.068" fill="#DE9729"/><path d="M189.902 355.197h-70.068c-8.27 0-15.037-6.78-15.037-15.068v-70.216c0-8.287 6.767-15.069 15.037-15.069h70.068c8.27 0 15.036 6.782 15.036 15.069v70.216c0 8.287-6.767 15.068-15.036 15.068" fill="#D0584E"/><g transform="translate(123.275 354.18)"><mask id="n" fill="#fff"><use xlink:href="#m"/></mask><path d="M85.701 100.37l-70.068.438C7.363 100.861.555 94.122.505 85.835L.068 15.618C.015 7.331 6.74.508 15.009.455L85.078.016c8.27-.049 15.078 6.687 15.127 14.977l.438 70.214c.052 8.287-6.672 15.11-14.942 15.163" fill="#3FA0B6" mask="url(#n)"/></g><path d="M321.558 453.845l-70.069.44c-8.269.052-15.078-6.687-15.127-14.974l-.438-70.217c-.052-8.287 6.673-15.11 14.942-15.163l70.068-.439c8.27-.049 15.079 6.687 15.128 14.977l.437 70.213c.053 8.287-6.672 15.11-14.941 15.163" fill="#F1AA27"/><path d="M258.42 353.884l-70.068.44c-8.269.052-15.078-6.687-15.127-14.974l-.438-70.217c-.052-8.287 6.673-15.11 14.942-15.163l70.068-.439c8.27-.049 15.079 6.687 15.128 14.977l.437 70.213c.053 8.287-6.672 15.11-14.941 15.163" fill="#E46555"/></g><text font-family="FelbridgePro-Black, Felbridge Pro" font-size="101.219" font-weight="700" fill="#EB847D" transform="translate(50 50)"><tspan x="134.82" y="289.111">A</tspan></text><text font-family="FelbridgePro-Black, Felbridge Pro" font-size="101.219" font-weight="700" fill="#60AEBD" transform="translate(50 50)"><tspan x="91.543" y="392.735">B</tspan></text><text font-family="FelbridgePro-Black, Felbridge Pro" font-size="101.219" font-weight="700" fill="#F5C07A" transform="translate(50 50)"><tspan x="200.251" y="392.735">C</tspan></text></g></svg>