<svg width="500" height="500" viewBox="0 0 500 500" xmlns="http://www.w3.org/2000/svg" xmlns:xlink="http://www.w3.org/1999/xlink"><title>48B6EDE5-7BA7-4B39-865A-ED1FEA30DA61</title><defs><path id="a" d="M396.582.42H.048v396.072h396.534V.42z"/><path d="M.574.4c7.609 102.431 93.222 183.173 197.717 183.173C302.783 183.573 388.4 102.831 396.008.4H.574z" id="c"/><path d="M.432 183.573C104.839 183.477 190.358 102.77 197.962.4H.432v183.173z" id="e"/><path d="M30.042 22.191A200.32 200.32 0 0 0 30.828.963H.22v21.228h29.823z" id="g"/><path d="M26.957 21.355A197.627 197.627 0 0 0 30.042.127H.22v21.228h26.738z" id="i"/></defs><g fill="none" fill-rule="evenodd"><g transform="translate(51.804 50.967)"><mask id="b" fill="#fff"><use xlink:href="#a"/></mask><path d="M.048 198.456c0 109.373 88.766 198.036 198.267 198.036 109.501 0 198.267-88.663 198.267-198.036C396.582 89.082 307.816.419 198.315.419 88.815.42.048 89.082.048 198.456" fill="#EFEEEE" mask="url(#b)"/></g><path d="M356.774 70.597c6.141 8.708 17.637 11.785 27.314 7.309 13.856-6.403 29.878 2.836 31.25 18.022.963 10.61 9.378 19.015 19.997 19.973 15.205 1.372 24.458 17.379 18.044 31.214-4.478 9.667-1.397 21.149 7.317 27.283 12.483 8.784 12.483 27.265 0 36.045-8.714 6.134-11.795 17.616-7.317 27.282 6.414 13.84-2.84 29.846-18.044 31.218-10.619.958-19.034 9.363-19.996 19.97-1.373 15.186-17.395 24.428-31.25 18.022-9.678-4.473-21.174-1.395-27.315 7.313-8.79 12.464-27.293 12.464-36.087 0-6.141-8.708-17.637-11.786-27.314-7.313-13.852 6.406-29.877-2.836-31.25-18.022-.96-10.607-9.378-19.012-19.997-19.97-15.204-1.372-24.457-17.378-18.044-31.218 4.478-9.666 1.401-21.148-7.317-27.282-12.483-8.78-12.483-27.261 0-36.045 8.718-6.134 11.795-17.616 7.317-27.283-6.413-13.835 2.84-29.842 18.044-31.214 10.62-.958 19.037-9.362 19.996-19.973 1.374-15.186 17.399-24.425 31.25-18.022 9.678 4.476 21.174 1.399 27.315-7.31 8.794-12.464 27.297-12.464 36.087 0" fill="#6AB577"/><path d="M408.672 248.633h-63.505v-11.407l50.72-50.66c2.5-2.498 2.5-6.585 0-9.083-2.502-2.499-6.594-2.499-9.091 0l-41.629 41.576v-77.25c0-3.535-2.894-6.423-6.43-6.423-3.537 0-6.431 2.888-6.431 6.423v77.25l-41.625-41.576c-2.498-2.499-6.59-2.499-9.098 0-2.498 2.498-2.498 6.585 0 9.083l50.723 50.66v11.407h-63.502c-3.536 0-6.43 2.89-6.43 6.423 0 3.532 2.894 6.423 6.43 6.423h63.502v119.67c0 3.533 2.894 6.424 6.43 6.424 3.537 0 6.431-2.891 6.431-6.423V261.48h63.505c3.537 0 6.431-2.892 6.431-6.424 0-3.532-2.894-6.423-6.43-6.423" fill="#87BF86"/><path d="M87.869 120.317c6.655 3.133 14.6 1.068 18.88-4.911 6.125-8.56 18.893-8.47 24.897.175a15.235 15.235 0 0 0 18.808 5.173c9.59-4.35 20.601 2.102 21.477 12.588.61 7.323 6.375 13.163 13.698 13.875 10.483 1.019 16.789 12.108 12.297 21.623a15.2 15.2 0 0 0 4.917 18.86c8.57 6.117 8.48 18.87-.175 24.867-6.043 4.19-8.225 12.096-5.18 18.786v.003c4.356 9.576-2.104 20.574-12.602 21.449-7.332.609-13.179 6.367-13.891 13.682-1.02 10.47-12.122 16.77-21.649 12.283-6.655-3.133-14.6-1.067-18.88 4.911-6.125 8.56-18.893 8.47-24.897-.175a15.235 15.235 0 0 0-18.808-5.173c-9.59 4.35-20.601-2.102-21.477-12.588-.61-7.323-6.375-13.163-13.698-13.875-10.483-1.019-16.789-12.108-12.297-21.623a15.2 15.2 0 0 0-4.917-18.86c-8.57-6.116-8.48-18.87.175-24.867 6.043-4.19 8.225-12.096 5.18-18.786-4.356-9.579 2.103-20.577 12.602-21.452 7.332-.609 13.179-6.367 13.89-13.682 1.021-10.47 12.123-16.769 21.65-12.283" fill="#6AB577"/><path d="M175.53 197.937l-43.546 24.708-4.447-7.822 15.025-54.468c.739-2.688-.855-5.49-3.543-6.23-2.688-.741-5.496.85-6.234 3.539l-12.33 44.702-30.126-52.97c-1.377-2.422-4.485-3.28-6.914-1.901-2.426 1.375-3.281 4.483-1.905 6.905l30.123 52.97-44.75-12.317c-2.688-.74-5.497.851-6.239 3.54-.741 2.687.853 5.489 3.544 6.23l54.531 15.004 4.447 7.822-43.54 24.705c-2.425 1.375-3.284 4.483-1.904 6.905 1.377 2.423 4.489 3.278 6.914 1.903l43.54-24.705 46.665 82.057c1.38 2.422 4.492 3.277 6.917 1.902 2.426-1.378 3.281-4.483 1.905-6.906l-46.666-82.056 43.543-24.708c2.426-1.375 3.281-4.484 1.905-6.906-1.377-2.423-4.489-3.277-6.914-1.903" fill="#87BF86"/><path d="M200.008 356.345c-6.268 5.57-15.547 5.312-21.518-.601L71.93 250.28c-8.903-10.921-7.629-27.467 2.83-36.763 10.463-9.297 26.305-7.967 35.208 2.955l90.039 139.873z" fill="#E46555"/><path d="M71.931 250.28l106.556 105.464c4.231 4.188 10.112 5.477 15.414 3.93L74.761 213.518c-10.459 9.297-11.733 25.842-2.83 36.764" fill="#EC9028" style="mix-blend-mode:multiply" opacity=".376"/><path d="M77.948 216.717l-2.64 3.706c-.703.983-2.05 1.19-2.991.455l-52.666-40.94c-.942-.734-1.139-2.14-.439-3.123l2.641-3.706c.703-.983 2.05-1.19 2.991-.458l52.666 40.943c.944.734 1.141 2.137.438 3.123" fill="#1AA487"/><path d="M79.373 217.043l-3.172 3.218a2.08 2.08 0 0 1-3.022-.046l-45.75-49.178c-.817-.88-.8-2.3.044-3.156l3.172-3.218a2.082 2.082 0 0 1 3.025.046l45.747 49.178c.82.88.8 2.3-.044 3.156" fill="#1AA487"/><path d="M77.279 217.313l3.925-2.132c1.043-.566 1.452-1.92.91-3.01l-30.291-60.828c-.542-1.089-1.84-1.517-2.882-.95l-3.925 2.131c-1.043.566-1.453 1.92-.91 3.01l30.29 60.828c.543 1.089 1.84 1.517 2.883.95" fill="#1AA487"/><path d="M77.358 218.833l3.55-2.755c.943-.734 1.14-2.14.44-3.123L42.164 157.94c-.7-.986-2.047-1.192-2.99-.458l-3.55 2.755c-.941.734-1.141 2.137-.438 3.123l39.181 55.016c.7.983 2.047 1.189 2.991.457" fill="#1AA487"/><g><path d="M348.054 243.543c0 33.516-27.204 60.687-60.76 60.687-33.554 0-60.758-27.171-60.758-60.687 0-33.517 27.204-60.688 60.759-60.688s60.759 27.171 60.759 60.688" fill="#E46555"/><path d="M282.29 263.004c-8.711-2.233-15.18-10.063-15.18-19.46 0-9.4 6.469-17.23 15.18-19.463v-26.417c-23.167 2.494-41.207 22.075-41.207 45.88 0 23.802 18.04 43.382 41.207 45.877v-26.417zM292.3 197.665v26.417c8.711 2.233 15.18 10.063 15.18 19.46s-6.469 17.227-15.18 19.46v26.417c23.167-2.492 41.207-22.075 41.207-45.877 0-23.802-18.04-43.382-41.207-45.877" fill="#D84D40"/><path d="M323.433 240.378h-5.72a3.978 3.978 0 0 0-3.968 3.966 3.978 3.978 0 0 0 3.968 3.967h5.72a3.98 3.98 0 0 0 3.97-3.967 3.98 3.98 0 0 0-3.97-3.966M260.848 244.344a3.98 3.98 0 0 0-3.971-3.966h-5.72a3.98 3.98 0 0 0-3.971 3.966 3.98 3.98 0 0 0 3.97 3.967h5.721a3.98 3.98 0 0 0 3.971-3.967M313.219 224.06l4.043-4.038a3.973 3.973 0 0 0 0-5.61 3.98 3.98 0 0 0-5.613 0l-4.047 4.038a3.98 3.98 0 0 0 0 5.61 3.985 3.985 0 0 0 5.617 0M264.584 261.42l-4.043 4.039a3.973 3.973 0 0 0 0 5.61 3.991 3.991 0 0 0 5.616 0l4.044-4.04a3.973 3.973 0 0 0 0-5.61 3.985 3.985 0 0 0-5.617 0M262.977 225.666a3.985 3.985 0 0 0 5.617 0 3.973 3.973 0 0 0 0-5.61l-4.043-4.04a3.985 3.985 0 0 0-5.617 0 3.973 3.973 0 0 0 0 5.61l4.043 4.04zM311.612 263.025a3.985 3.985 0 0 0-5.616 0 3.973 3.973 0 0 0 0 5.61l4.043 4.039c1.546 1.54 4.074 1.54 5.617 0a3.973 3.973 0 0 0 0-5.61l-4.044-4.039zM272.011 207.527a3.974 3.974 0 0 0-2.156 5.18l2.177 5.279a3.986 3.986 0 0 0 5.185 2.157 3.975 3.975 0 0 0 2.157-5.18l-2.177-5.279a3.986 3.986 0 0 0-5.186-2.157M297.374 268.99a3.974 3.974 0 0 0-2.156 5.18l2.177 5.278a3.988 3.988 0 0 0 5.185 2.158 3.975 3.975 0 0 0 2.157-5.18l-2.177-5.28a3.986 3.986 0 0 0-5.186-2.156M319.193 227.144l-5.286 2.178a3.973 3.973 0 0 0-2.16 5.176c.832 2.02 3.164 2.987 5.186 2.157l5.285-2.178a3.976 3.976 0 0 0 2.16-5.176 3.986 3.986 0 0 0-5.185-2.157M262.843 254.633a3.983 3.983 0 0 0-5.185-2.154l-5.289 2.175a3.978 3.978 0 0 0-2.156 5.18 3.988 3.988 0 0 0 5.185 2.156l5.286-2.177a3.977 3.977 0 0 0 2.16-5.18M303.524 215.945l2.198-5.272a3.977 3.977 0 0 0-2.14-5.186 3.982 3.982 0 0 0-5.192 2.136l-2.197 5.273a3.977 3.977 0 0 0 2.139 5.186 3.982 3.982 0 0 0 5.192-2.137M272.812 268.998l-2.197 5.272a3.977 3.977 0 0 0 2.139 5.187c2.018.837 4.354-.124 5.192-2.137l2.198-5.272a3.971 3.971 0 0 0-2.14-5.187 3.98 3.98 0 0 0-5.192 2.137M257.686 236.553c2.018.838 4.354-.124 5.192-2.136a3.977 3.977 0 0 0-2.139-5.187l-5.278-2.195a3.982 3.982 0 0 0-5.193 2.137 3.971 3.971 0 0 0 2.14 5.186l5.278 2.195zM316.905 252.581c-2.019-.837-4.354.124-5.193 2.137a3.977 3.977 0 0 0 2.14 5.186l5.278 2.195a3.982 3.982 0 0 0 5.192-2.136 3.971 3.971 0 0 0-2.139-5.186l-5.278-2.196z" fill="#EC9028"/><path d="M414.412 261.48c0 27.288-22.15 49.412-49.47 49.412-27.324 0-49.474-22.124-49.474-49.413 0-27.289 22.15-49.412 49.474-49.412 27.32 0 49.47 22.123 49.47 49.412" fill="#E0445D"/><path d="M404.685 261.48c0 21.923-17.796 39.698-39.745 39.698-21.949 0-39.744-17.775-39.744-39.699 0-21.923 17.795-39.698 39.744-39.698 21.95 0 39.745 17.775 39.745 39.698" fill="#FCFAD9"/><path d="M249.652 265.731c0 29.091-23.612 52.676-52.737 52.676-29.125 0-52.737-23.585-52.737-52.676s23.612-52.676 52.737-52.676c29.125 0 52.737 23.585 52.737 52.676" fill="#D13959"/><path d="M196.917 213.056v105.351c29.125 0 52.734-23.584 52.734-52.676 0-29.09-23.609-52.675-52.734-52.675" fill="#E0445D" style="mix-blend-mode:multiply" opacity=".376"/><path d="M233.613 222.95v-.275c0-5.29-4.333-9.618-9.632-9.618h-27.694c-5.295 0-9.629 4.328-9.629 9.618v.275h46.955z" fill="#0E8B2F"/><path d="M231.576 208.902l-.09-.259c-1.704-5.01-7.2-7.719-12.216-6.017l-26.22 8.902c-5.017 1.702-7.725 7.195-6.02 12.205l.085.259 44.461-15.09z" fill="#6AB577"/><g transform="translate(54.207 268.067)"><mask id="d" fill="#fff"><use xlink:href="#c"/></mask><path d="M-.314.4v23.574c0 91.055 74.586 165.558 165.75 165.558h71.333c91.164 0 165.75-74.503 165.75-165.558V.4H-.314z" fill="#189B7F" mask="url(#d)"/></g><g transform="translate(252.254 268.067)"><mask id="f" fill="#fff"><use xlink:href="#e"/></mask><path d="M.432 189.531h38.292c91.164 0 165.75-74.5 165.75-165.557V.4H.432V189.53z" fill="#009F85" mask="url(#f)"/></g><g transform="translate(419.912 249.449)"><mask id="h" fill="#fff"><use xlink:href="#g"/></mask><path d="M51.9 22.191h12.266C54.178 13.662 37.172.963 25.484.963H20.18C8.492.963.219 10.516.219 22.191h51.682z" fill="#189B7F" mask="url(#h)"/></g><g transform="translate(419.912 271.513)"><mask id="j" fill="#fff"><use xlink:href="#i"/></mask><path d="M51.9.127h12.266c-9.04 7.96-26.994 21.228-38.682 21.228H20.18C8.492 21.355.219 11.802.219.127h51.682z" fill="#6AB577" mask="url(#j)"/></g><path d="M297.928 346.885c0 24.246-19.22 42.351-42.705 42.351-23.488 0-42.542-18.105-42.542-42.351 0-24.243 19.054-42.666 42.542-42.666 23.485 0 42.705 18.423 42.705 42.666m-21.846.158c0-14.011-9.36-23.774-20.859-23.774-11.499 0-20.862 9.763-20.862 23.774 0 13.698 9.363 23.147 20.862 23.147 11.5 0 20.86-9.449 20.86-23.147M297.883 414.098c0-10.452-8.432-16.572-18.827-16.572h-47.504c-10.398 0-18.827 6.12-18.827 16.572h85.158z" fill="#59AF95"/></g></g></svg>