<svg width="350" height="350" viewBox="0 0 350 350" xmlns="http://www.w3.org/2000/svg" xmlns:xlink="http://www.w3.org/1999/xlink"><title>E3AC2866-A799-4A66-96BF-EBC3E420F9BC</title><defs><path id="a" d="M42.946.605H.927v33.1h42.02V.605z"/><path id="c" d="M0 261h307.385V.605H0z"/></defs><g fill="none" fill-rule="evenodd"><path stroke="#442E88" stroke-width="6" stroke-linecap="round" stroke-linejoin="round" d="M284.214 139.272h21.404v23.116"/><path d="M142.235 226.196v2" stroke="#6C4694" stroke-width="2" stroke-linecap="round" stroke-linejoin="round"/><path d="M142.235 234.65v6.453" stroke="#6C4694" stroke-width="2" stroke-linecap="round" stroke-linejoin="round" stroke-dasharray="3.227,6.454"/><path d="M142.235 244.33v16.134" stroke="#6C4694" stroke-width="2" stroke-linecap="round" stroke-linejoin="round" stroke-dasharray="3.227,6.454,3.227,6.454"/><path d="M142.235 263.69v2M232.212 265.69v-1" stroke="#6C4694" stroke-width="2" stroke-linecap="round" stroke-linejoin="round"/><path d="M232.212 260.588v-4.103" stroke="#6C4694" stroke-width="2" stroke-linecap="round" stroke-linejoin="round" stroke-dasharray="2.051,4.103"/><path stroke="#6C4694" stroke-width="2" stroke-linecap="round" stroke-linejoin="round" stroke-dasharray="2.051,4.103,2.051,4.103" d="M232.212 254.433V194.94"/><path d="M232.212 192.888v-1M93.286 265.69v-1" stroke="#6C4694" stroke-width="2" stroke-linecap="round" stroke-linejoin="round"/><path d="M93.286 260.597v-4.094" stroke="#6C4694" stroke-width="2" stroke-linecap="round" stroke-linejoin="round" stroke-dasharray="2.047,4.094"/><path stroke="#6C4694" stroke-width="2" stroke-linecap="round" stroke-linejoin="round" stroke-dasharray="2.047,4.094,2.047,4.094" d="M93.286 254.456V207.38"/><path d="M93.286 205.332v-1M207.5 265.69v-1" stroke="#6C4694" stroke-width="2" stroke-linecap="round" stroke-linejoin="round"/><path d="M207.5 260.552v-4.138" stroke="#6C4694" stroke-width="2" stroke-linecap="round" stroke-linejoin="round" stroke-dasharray="2.069,4.138"/><path stroke="#6C4694" stroke-width="2" stroke-linecap="round" stroke-linejoin="round" stroke-dasharray="2.069,4.138,2.069,4.138" d="M207.5 254.345v-72.42"/><path d="M207.5 179.855v-1" stroke="#6C4694" stroke-width="2" stroke-linecap="round" stroke-linejoin="round"/><g transform="translate(21 44.395)"><path d="M3.002 219.82a3 3 0 0 1-1.907-5.318l69.204-56.88a2.997 2.997 0 0 1 2.93-.501l49.4 17.929L184.374 132a2.994 2.994 0 0 1 3.134-.183l22.716 12.187 68.338-45.097a3.001 3.001 0 0 1 3.304 5.008l-69.83 46.083a3 3 0 0 1-3.07.139l-22.67-12.162-61.512 42.887a3 3 0 0 1-2.739.359l-49.257-17.877-67.883 55.793a2.987 2.987 0 0 1-1.903.683" fill="#442E88"/><path d="M130.189 77.626c.51.155 1.04.252 1.583.285 2.188.135 4.297-.768 5.786-2.477l14.678-16.856a5.403 5.403 0 0 0-.528-7.625 5.403 5.403 0 0 0-7.624.527l-11.492 13.196-8.72-12.938a5.406 5.406 0 0 0-8.964 6.042l11.432 16.96c.95 1.413 2.307 2.417 3.849 2.886" fill="#F2C08A"/><path d="M130.214 59.345l-8.979 7.609-7.86-9.275a4.095 4.095 0 0 1 .477-5.772l2.73-2.314a4.096 4.096 0 0 1 5.772.477l7.86 9.275z" fill="#008563"/><path d="M134.946 157.913l11.919-7.02-5.691-33.402c-.133-2.744-1.48-5.937-3.354-7.946l-21.068-28.361-9.6 8.952 20.094 27.315.886 2.099 6.814 38.363z" fill="#5E5E5D"/><path d="M84.019 157.804l11.92 5.495 18.814-40.816c1.144-2.484 1.433-5.925.719-8.564l-9.386-34.642-12.668 3.433 9.316 34.395a1.073 1.073 0 0 1-.008.114l-18.707 40.585z" fill="#5E5E5D"/><path d="M90.75 82.774c.076 4.861 4.6 8.735 10.105 8.65l10.687-.168c5.504-.087 9.906-4.097 9.83-8.96l-.252-16.078c-.075-4.862-4.6-8.734-10.105-8.648l-10.687.168c-5.504.085-9.905 4.096-9.83 8.958l.253 16.078z" fill="#5E5E5D"/><path d="M90.636 56.107c-.056-3.657 2.852-6.696 6.465-6.75l17.146-.269c3.61-.057 6.612 2.89 6.669 6.546l.319 24.543-30.215.472-.384-24.542z" fill="#19A486"/><path d="M85.403 152.928l12.406 6.115a5.508 5.508 0 0 1 2.505 7.375l-17.347-8.55 2.436-4.94zM134.946 157.913l11.919-7.02a5.508 5.508 0 0 1 7.541 1.952l-16.663 9.814-2.797-4.746z" fill="#88878B"/><path d="M93.38 21.372c-3.078 10.128 2.652 20.84 12.8 23.922 10.148 3.085 20.87-2.625 23.948-12.754 3.078-10.127-2.653-20.838-12.801-23.923-10.147-3.083-20.868 2.628-23.947 12.755" fill="#F2C08A"/><path d="M115.59 32.24a1.83 1.83 0 0 0-1.22-2.285l-1.293-.394a1.832 1.832 0 0 0-2.285 1.22l4.799 1.46z" fill="#F19A59"/><path d="M98.184 21.007c1.891-6.22 6.452-10.896 12.05-13.164-7.644.6-14.5 5.761-16.86 13.527-3.079 10.128 2.652 20.84 12.801 23.923 1.185.36 2.38.596 3.57.723-9.527-4.146-14.65-14.847-11.56-25.009" fill="#EAB27A"/><path d="M121.808 27.787a1.935 1.935 0 0 1 2.415-1.289 1.934 1.934 0 0 1 1.29 2.414 1.934 1.934 0 1 1-3.705-1.125M101.963 21.755a1.935 1.935 0 1 1 3.704 1.126 1.94 1.94 0 0 1-2.416 1.29 1.938 1.938 0 0 1-1.288-2.416" fill="#020203"/><path d="M111.38 38.419a4.481 4.481 0 0 1-3.087-5.533l8.62 2.446a4.482 4.482 0 0 1-5.533 3.087" fill="#FEFEFE"/><g transform="translate(92)"><mask id="b" fill="#fff"><use xlink:href="#a"/></mask><path d="M10.422 4.606C15.598.05 21.706-.2 28.037 1.787c8.91 2.797 15.98 9.338 14.775 19.8-.173 1.494-3.567 12.118-3.567 12.118-2.102-.639-3.47-1.954-2.518-4.758 0 0 .67-2.402 1.555-5.816-7.645-1.228-12.992-4.445-15.565-5.965-2.78-1.643-4.459-4.658-7.158-5.65-2.817-1.035-6.477-1.86-8.149 3.276a173.33 173.33 0 0 1-1.624 4.811l-.12.375a5.529 5.529 0 0 1-.493 1.257c0 .001 0 .003-.002.005-.929 1.68-2.506 1.818-4.244 1.29 0 0 1.93-16.654 9.495-17.924" fill="#6D3C12" mask="url(#b)"/></g><path d="M127.246 24.109l-2.794-3.028M126.927 24.85a.804.804 0 0 0 .911-1.286l-2.793-3.03a.804.804 0 0 0-1.137-.045.804.804 0 0 0-.046 1.139l2.792 3.027a.772.772 0 0 0 .273.195M106.92 13.302l-3.963 1.127M107.242 14.041a.808.808 0 0 0-.543-1.515l-3.962 1.128a.806.806 0 0 0 .441 1.549l3.961-1.126c.036-.01.07-.023.103-.036" fill="#6D3C12"/><path d="M95.684 49.905a5.245 5.245 0 0 1 5.547-4.924l13.21.789a5.242 5.242 0 0 1 4.922 5.547l-23.679-1.412z" fill="#58B096"/><path d="M80.69 68.026l10.09-18.931a5.501 5.501 0 1 1 9.834 4.931L90.135 73.288c-.113.293-.153.966-.077 1.27l8.634 20.908a5.405 5.405 0 1 1-9.991 4.126l-8.653-20.954c-1.329-3.216-1.064-7.58.642-10.612" fill="#F2C08A"/><path d="M110.024 53.76h-1.056v22.706h1.056a2.592 2.592 0 0 0 2.592-2.593v-17.52a2.592 2.592 0 0 0-2.592-2.592M110.024 47.791h-1.056v5.775h1.056a2.592 2.592 0 0 0 2.592-2.593v-.59a2.592 2.592 0 0 0-2.592-2.592" fill="#005D48"/><path d="M96.196 63.475L86.003 57.59l6.079-10.528a4.095 4.095 0 0 1 5.594-1.499l3.1 1.79a4.095 4.095 0 0 1 1.499 5.593l-6.079 10.53z" fill="#008563"/><path d="M274.173 181.137c-3.307-2.299-3.668-7.553-.802-11.676l17.946-25.822c2.866-4.123 7.916-5.616 11.224-3.318 3.307 2.3 3.668 7.553.802 11.677l-17.946 25.821c-2.866 4.123-7.917 5.617-11.224 3.318" fill="#EAA767"/><mask id="d" fill="#fff"><use xlink:href="#c"/></mask><path fill="#EABB86" mask="url(#d)" d="M246.377 261h31v-84h-31z"/><path d="M287.377 102.648c0-4.77-1.655-8.638-5-8.638-3.345 0-5 3.867-5 8.638v25.653c-3-.218-3.455-.3-4.528-.3h-22.34c-8.143 0-15.132 6.565-15.132 14.708v26.808c0 8.142 6.99 13.483 15.132 13.483h22.34c8.143 0 14.528-5.34 14.528-13.483v-66.869z" fill="#EABB86" mask="url(#d)"/><path d="M285.733 101.556c.003-.06.01-.119.01-.18v-3.419c0-1.98-1.698-3.599-3.773-3.599s-3.773 1.62-3.773 3.6v3.418c0 .061.006.12.01.18h7.526z" fill="#B970A9" mask="url(#d)"/><path d="M253.375 194.785a4.469 4.469 0 1 1-8.937-.002 4.469 4.469 0 0 1 8.937.002" fill="#E49200" mask="url(#d)"/><path d="M251.135 191.974a1.887 1.887 0 1 1-3.141 2.092 1.887 1.887 0 0 1 3.14-2.092" fill="#F8D6A2" mask="url(#d)"/><path d="M261.671 194.785a4.468 4.468 0 1 1-8.936 0 4.468 4.468 0 0 1 8.936 0" fill="#E49200" mask="url(#d)"/><path d="M270.564 194.785a4.469 4.469 0 1 1-8.937-.002 4.469 4.469 0 0 1 8.937.002" fill="#E49200" mask="url(#d)"/><path d="M279.219 194.785a4.469 4.469 0 1 1-8.938-.002 4.469 4.469 0 0 1 8.938.002" fill="#E49200" mask="url(#d)"/><path d="M260.102 193.34a1.886 1.886 0 1 1-3.7-.739 1.886 1.886 0 0 1 3.7.74M268.889 193.34a1.886 1.886 0 1 1-3.7-.739 1.886 1.886 0 0 1 3.7.74M277.934 193.34a1.886 1.886 0 1 1-3.7-.739 1.886 1.886 0 0 1 3.7.74" fill="#F8D6A2" mask="url(#d)"/><path d="M238.377 169.875v-29.36c0-4.725 2.86-8.915 6.594-11.515-5.83 1.906-9.594 7.244-9.594 13.536v25.978c0 6.616 4.355 12.103 10.654 13.703-4.403-2.466-7.654-7.068-7.654-12.342" fill="#EAA767" mask="url(#d)"/><path d="M304.475 149.288c.035-.049.072-.096.106-.146l1.92-2.829c1.11-1.639 1.185-3.545.165-4.236-1.019-.692-2.762.083-3.873 1.721l-1.919 2.83c-.034.05-.065.101-.097.152l3.698 2.508z" fill="#B970A9" mask="url(#d)"/></g></g></svg>