<svg width="500" height="500" viewBox="0 0 500 500" xmlns="http://www.w3.org/2000/svg" xmlns:xlink="http://www.w3.org/1999/xlink"><title>AF31CE31-F42E-44BA-BD57-7BFB69503A73</title><defs><path d="M.2 201.532c0 111.298 90.203 201.524 201.477 201.524 111.27 0 201.478-90.226 201.478-201.524C403.155 90.226 312.948 0 201.677 0 90.403 0 .2 90.226.2 201.532z" id="a"/></defs><g fill="none" fill-rule="evenodd"><path d="M53.198 248.544c0 111.302 90.204 201.529 201.478 201.529 111.275 0 201.478-90.227 201.478-201.529 0-111.302-90.203-201.528-201.478-201.528-111.274 0-201.478 90.226-201.478 201.528" fill="#EFEEEE"/><g transform="translate(53 46.024)"><path d="M148.852 64.875h.736c5.438 0 9.845 3.205 9.845 8.68h-10.58v-8.68z" fill="#EC9028"/><path d="M116.173 71.314c0-10.008 7.924-17.614 17.604-17.614 9.683 0 17.536 7.606 17.536 17.614 0 10.009-7.853 17.485-17.536 17.485-9.68 0-17.604-7.476-17.604-17.485" fill="#F9DDDB"/><path d="M151.315 73.503c0 9.399-7.57 20.073-16.906 20.073H74.847c-9.34 0-16.909-10.674-16.909-20.073h93.377z" fill="#F9DDDB"/><path d="M111.25 73.084c0 6.298-5.073 13.449-11.324 13.449H69.379c-6.255 0-11.325-7.15-11.325-13.449h53.196z" fill="#EC887E"/><path d="M141.716 89.852c0 7.824-6.3 16.71-14.073 16.71H81.611c-7.773 0-14.073-8.886-14.073-16.71h74.178z" fill="#F9DDDB"/><mask id="b" fill="#fff"><use xlink:href="#a"/></mask><path fill="#EC9028" mask="url(#b)" d="M109.633 127.076h3.232V106.56h-3.232zM99.564 127.076h3.232V106.56h-3.232z"/><path d="M134.985 67.521a3.356 3.356 0 1 0 6.712.001 3.356 3.356 0 0 0-6.712 0" fill="#1E130F" mask="url(#b)"/><path d="M351.964 335.765s84.748-19.747 66.286-93.88c0 0-3.667 64.974-78.617 63.599l12.33 30.281z" fill="#EC9028" mask="url(#b)"/><path d="M199.573 213.416h-13.522c-11.692 0-21.253-9.567-21.253-21.258v-56.709c0-19.13 15.647-34.783 34.775-34.783h37.194l-15.94 91.492c0 11.691-9.565 21.258-21.254 21.258M401.569 213.416h13.522c11.689 0 21.253-9.567 21.253-21.258v-56.709c0-19.13-15.647-34.783-34.775-34.783h-37.195l15.942 91.492c0 11.691 9.564 21.258 21.253 21.258" fill="#69368A" mask="url(#b)"/><path d="M387.61 392.314h-3.236c9.118-9.795 14.76-22.872 14.76-37.228 0-30.134-24.647-54.787-54.773-54.787h-89.044c-30.126 0-54.773 24.653-54.773 54.787 0 14.36 5.641 27.437 14.764 37.235-10.967.031-19.84 6.505-19.84 17.551h212.059c0-11.074-8.92-17.558-19.918-17.558" fill="#D97D26" mask="url(#b)"/><path d="M391.856 163.198c0-50.073-40.581-90.664-90.642-90.664-50.061 0-90.646 40.59-90.646 90.664v11.022l48.273 220.609c-2.576 1.325-4.371 3.984-4.371 7.07 0 4.383 3.586 7.97 7.972 7.97h10.626c.397 0 .775-.06 1.157-.115 2.125-.144 4.407-.407 6.812-.684v-81.61c.393.014.779.06 1.175.06h38.603v81.55c2.406.277 4.688.54 6.812.684.383.056.761.115 1.157.115h10.63c4.383 0 7.97-3.587 7.97-7.97 0-3.086-1.796-5.745-4.373-7.07l48.845-220.609v-11.022z" fill="#EC9028" mask="url(#b)"/><path d="M306.737 238.582h-13.574c-11.142 0-20.209-9.065-20.209-20.21a1.754 1.754 0 0 1 3.506 0c0 9.21 7.493 16.704 16.703 16.704h13.574c9.207 0 16.7-7.494 16.7-16.703 0-.968.781-1.754 1.752-1.754.968 0 1.753.786 1.753 1.754 0 11.144-9.063 20.21-20.205 20.21" fill="#050405" mask="url(#b)"/><path d="M338.75 80.89c-12.331 13.621-19.865 31.664-19.865 51.487 0 37.14 29.264 73.913 64.291 81.039 5.392-14.77 8.68-33.98 8.68-50.07 0-36.664-21.802-68.172-53.107-82.455M210.569 163.346c0 16.313 3.25 35.899 8.575 50.07 36.732-5.734 68.194-42.689 68.194-81.039 0-20.43-8.018-38.957-21.029-52.71-32.73 13.673-55.74 45.98-55.74 83.679" fill="#F4B01B" mask="url(#b)"/><path d="M299.948 236.65a1.754 1.754 0 0 1-1.753-1.753v-21.482a1.754 1.754 0 0 1 3.506 0v21.482c0 .968-.785 1.754-1.753 1.754" fill="#050405" mask="url(#b)"/><path d="M255.555 160.613c0 7.515-6.09 13.607-13.603 13.607s-13.603-6.092-13.603-13.607 6.09-13.606 13.603-13.606c7.514 0 13.603 6.091 13.603 13.606M377.977 160.613c0 7.515-6.09 13.607-13.603 13.607s-13.603-6.092-13.603-13.607 6.09-13.606 13.603-13.606 13.603 6.091 13.603 13.606" fill="#1E130F" mask="url(#b)"/><path d="M314.12 215.57h-26.13c-6.696 0-12.172-5.48-12.172-12.179v-12.554c0-6.698 5.476-12.179 12.172-12.179h26.13c6.696 0 12.176 5.481 12.176 12.18v12.553c0 6.698-5.48 12.18-12.176 12.18" fill="#43177A" mask="url(#b)"/><path fill="#E46555" mask="url(#b)" d="M301.665 254.346h73.337l-4.453 20.16H232.781l-4.453-20.16z"/><path d="M312.338 285.968c0 6.512-5.157 11.376-11.458 11.376-6.3 0-11.411-4.864-11.411-11.376s5.111-11.46 11.411-11.46 11.458 4.948 11.458 11.46m-5.862.042c0-3.763-2.51-6.386-5.596-6.386-3.081 0-5.595 2.623-5.595 6.386 0 3.682 2.514 6.217 5.595 6.217 3.086 0 5.596-2.535 5.596-6.217M312.326 304.024c0-2.81-2.261-4.454-5.052-4.454h-12.74c-2.791 0-5.053 1.645-5.053 4.454h22.845z" fill="#43177A" mask="url(#b)"/><path d="M110.238 392.742c5.28 0 9.946-3.788 10.878-9.167 1.049-6.014-2.98-11.737-8.985-12.79-.558-.094-55.98-10.253-78.14-46.885-12.253-20.266-10.861-37.491-9.389-55.73 1.322-16.377 2.686-33.311-6.475-50.936-20.7-39.823-51.341-37.968-52.684-37.846-6.086.474-10.637 5.79-10.167 11.881.47 6.095 5.795 10.682 11.878 10.174.526-.042 17.723-.232 31.354 25.995 6.226 11.98 5.22 24.478 4.049 38.954-1.613 19.957-3.436 42.576 12.512 68.957 27.42 45.333 90.59 56.765 93.265 57.228.638.112 1.276.165 1.904.165M103.812 131.076c-2.724 0-5.276.677-7.587 1.789-2.31-1.112-4.863-1.789-7.587-1.789l-76.141-13.273v30.968c0 15.928 13.028 28.956 28.952 28.956h47.19c2.723 0 5.276-.673 7.586-1.785 2.31 1.112 4.863 1.785 7.587 1.785h47.193c15.92 0 28.948-13.028 28.948-28.956v-30.968l-76.141 13.273z" fill="#E46555" mask="url(#b)"/><path d="M102.67 141.522c-2.437 0-4.72.604-6.788 1.6-2.065-.996-4.35-1.6-6.788-1.6l-68.116-11.874v27.704c0 14.248 11.654 25.908 25.898 25.908h42.218c2.437 0 4.723-.606 6.788-1.599 2.068.993 4.35 1.6 6.787 1.6h42.219c14.244 0 25.898-11.66 25.898-25.909v-27.704l-68.117 11.874zM180.18 395.68h-3.155c8.898-8.154 14.398-19.039 14.398-30.99 0-25.084-24.05-45.606-53.447-45.606h-86.89c-29.398 0-53.449 20.522-53.449 45.606 0 11.955 5.505 22.84 14.406 30.993-10.696.028-19.356 5.415-19.356 14.613H199.616c0-9.22-8.701-14.616-19.436-14.616" fill="#AF4D3E" mask="url(#b)"/><path d="M166.612 399.077c7.011-6.26-25.702-169.838-25.702-169.838 14.896-6.424 25.4-21.272 25.4-38.462v-22.258c0-23.025-18.837-41.867-41.857-41.867h-58.31c-23.02 0-41.858 18.842-41.858 41.867v22.258c0 17.004 10.29 31.705 24.938 38.238 0 0-30.73 163.805-23.714 170.065-8.432.021-10.647 4.156-10.647 11.215h163.084c0-7.077-2.875-11.218-11.334-11.218" fill="#E46555" mask="url(#b)"/><path d="M109.656 215.1h-5.648c-5.203 0-9.434-4.233-9.434-9.433 0-.972.785-1.754 1.753-1.754a1.75 1.75 0 0 1 1.753 1.754 5.937 5.937 0 0 0 5.928 5.926h5.648a5.934 5.934 0 0 0 5.925-5.926c0-.972.786-1.754 1.753-1.754a1.75 1.75 0 0 1 1.753 1.754c0 5.2-4.231 9.433-9.43 9.433" fill="#050405" mask="url(#b)"/><path d="M88.203 215.1h-5.648c-5.203 0-9.434-4.233-9.434-9.433 0-.972.785-1.754 1.753-1.754a1.75 1.75 0 0 1 1.753 1.754 5.937 5.937 0 0 0 5.928 5.926h5.648a5.934 5.934 0 0 0 5.925-5.926c0-.972.786-1.754 1.753-1.754a1.75 1.75 0 0 1 1.753 1.754c0 5.2-4.231 9.433-9.43 9.433" fill="#050405" mask="url(#b)"/><path d="M96.328 209.066a1.754 1.754 0 0 1-1.753-1.754v-17.88a1.754 1.754 0 0 1 3.506 0v17.88c0 .968-.786 1.754-1.753 1.754" fill="#050405" mask="url(#b)"/><path fill="#43177A" mask="url(#b)" d="M144.903 250.873H45.44l3.783-20.637 91.686.224z"/><path d="M138.38 167.938a8.862 8.862 0 0 1-8.611-6.05 9.015 9.015 0 0 0-.333 2.645 8.861 8.861 0 0 0 9.063 8.658 8.861 8.861 0 0 0 8.656-9.065 8.893 8.893 0 0 0-.456-2.623c-1.038 3.64-4.344 6.344-8.32 6.435M53.554 170.174a8.861 8.861 0 0 1-8.607-6.05 8.9 8.9 0 0 0-.336 2.645 8.861 8.861 0 0 0 17.719-.407 9.006 9.006 0 0 0-.453-2.623c-1.037 3.64-4.347 6.344-8.323 6.435" fill="#050405" mask="url(#b)"/><path d="M102.986 193.917h-13.13c-4.702 0-8.547-3.847-8.547-8.55V181.7c0-3.016 2.464-5.481 5.48-5.481h19.264c3.012 0 5.48 2.465 5.48 5.481v3.668c0 4.703-3.846 8.55-8.547 8.55" fill="#AF4D3E" mask="url(#b)"/><path fill="#CE564B" mask="url(#b)" d="M125.66 319.204H67.15l-12.471 91.089h85.14z"/><path d="M101.721 238.876c0 3.318-2.626 5.793-5.834 5.793-3.208 0-5.81-2.475-5.81-5.793 0-3.317 2.602-5.835 5.81-5.835 3.208 0 5.834 2.518 5.834 5.835m-2.984.021c0-1.914-1.28-3.25-2.85-3.25s-2.85 1.336-2.85 3.25c0 1.876 1.28 3.167 2.85 3.167s2.85-1.29 2.85-3.167M101.715 248.07c0-1.43-1.15-2.265-2.573-2.265h-6.486c-1.42 0-2.574.835-2.574 2.265h11.633z" fill="#FEFEFE" mask="url(#b)"/></g><path d="M263.569 14.271c-23.591 0-42.716 19.13-42.716 42.727a42.65 42.65 0 0 0 3.355 16.633c1.02 2.409 2.279 4.692 3.706 6.852l-10.118 10.58 16.87-2.616c7.608 7 17.754 11.278 28.903 11.278 23.591 0 42.716-19.13 42.716-42.727 0-23.597-19.125-42.727-42.716-42.727" fill="#C2CCD3"/><path d="M280.738 49.594c1.069-9.082-16.23-10.811-16.23-10.811v20.795a15.267 15.267 0 0 0-6.91-1.659c-6.208 0-11.246 3.872-11.246 8.648 0 4.773 5.038 8.648 11.247 8.648 6.212 0 12.113-3.875 12.113-8.648a5.87 5.87 0 0 0-.323-1.893V43.633c4.884.526 11.349 5.961 11.349 5.961" fill="#FEFEFE"/></g></svg>