<svg width="500" height="500" viewBox="0 0 500 500" xmlns="http://www.w3.org/2000/svg" xmlns:xlink="http://www.w3.org/1999/xlink"><title>8B4AFDA8-5A72-4B2E-8364-7A0DD2882A2B</title><defs><path d="M325.366 316.504H49.574c-17.419 0-31.673-14.199-31.673-31.555v-96.675c0-17.353 14.254-31.556 31.673-31.556h275.792c17.42 0 31.67 14.203 31.67 31.556v96.675c0 17.356-14.25 31.555-31.67 31.555" id="a"/></defs><g fill="none" fill-rule="evenodd"><path d="M51 249.93c0 109.867 89.383 198.93 199.645 198.93 110.262 0 199.645-89.063 199.645-198.93 0-109.866-89.383-198.929-199.645-198.929C140.383 51.001 51 140.064 51 249.931" fill="#EFEEEE"/><g transform="translate(70.571 129.25)"><path fill="#5C3E8F" d="M26.747 84.158h90.345V39.62H26.747z"/><path d="M124.53 296.424H18.353c-10.07 0-18.238-8.138-18.238-18.173V102.33c0-10.036 8.167-18.174 18.238-18.174H124.53c10.071 0 18.239 8.138 18.239 18.173v175.92c0 10.036-8.168 18.174-18.24 18.174" fill="#5C3E8F"/><path d="M115.393 70.283h-86c-6.715 0-12.158-5.425-12.158-12.116V22.7c0-6.691 5.443-12.116 12.159-12.116h86c6.714 0 12.158 5.425 12.158 12.116v35.467c0 6.691-5.444 12.116-12.159 12.116" fill="#452E88"/><path fill="#5C3E8F" d="M23.821 54.309h7.647V23.252H23.82zM38.728 54.309h7.647V23.252h-7.647zM53.635 54.309h7.647V23.252h-7.647zM68.543 54.309h7.646V23.252h-7.646zM83.453 54.309h7.646V23.252h-7.646zM98.36 54.309h7.646V23.252H98.36zM113.267 54.309h7.646V23.252h-7.646z"/><path d="M261.124 316.504H154.948c-10.072 0-18.24-8.134-18.24-18.173v-175.92c0-10.035 8.168-18.173 18.24-18.173h106.176c10.071 0 18.239 8.138 18.239 18.173v175.92c0 10.039-8.168 18.173-18.239 18.173" fill="#F1AA27"/><path d="M273.385 134.089h-130.7c-6.715 0-12.159-5.425-12.159-12.116V86.506c0-6.691 5.444-12.115 12.16-12.115h130.7c6.714 0 12.158 5.424 12.158 12.115v35.467c0 6.691-5.444 12.116-12.159 12.116" fill="#EC9028"/><path d="M204.62 74.39h-66.164c-4.38 0-7.927 3.537-7.927 7.898v43.9c0 3.763 2.643 6.899 6.18 7.695v170.773c0 6.542 5.326 11.849 11.892 11.849h56.018V74.389z" fill="#C5D6DA" style="mix-blend-mode:multiply" opacity=".276"/><path d="M337.344 132.35v-17.208c0-13.178-10.822-23.961-24.048-23.961h-3.133c-13.226 0-24.047 10.783-24.047 23.96v17.208c-5.74 4.85-9.408 12.067-9.408 20.109v106.626c0 14.508 11.912 26.377 26.476 26.377h17.099c14.556 0 26.468-11.87 26.468-26.377V152.458c0-8.042-3.665-15.259-9.407-20.109" fill="#CEE7E1"/><path d="M302.06 68.958v140.893c0 3.714 2.132 6.902 5.228 8.512v21.174a4.433 4.433 0 0 0 4.443 4.428 4.435 4.435 0 0 0 4.443-4.428v-21.174c3.092-1.61 5.225-4.798 5.225-8.512V68.958h-19.34z" fill="#59AF95"/><path d="M332.64 76.34h-41.818V15.27c0-8.224 6.691-14.895 14.945-14.895h11.923c8.258 0 14.95 6.67 14.95 14.895v61.07z" fill="#189B7F"/><path d="M338.711 110.716h-53.962c-2.998 0-5.43-2.423-5.43-5.407v-23.56c0-2.987 2.432-5.41 5.43-5.41h53.962c2.998 0 5.426 2.423 5.426 5.41v23.56c0 2.984-2.428 5.407-5.426 5.407" fill="#1AA487"/><path d="M311.73.825L301.245.54c-5.381 0-9.748 4.351-9.748 9.713v66.25h-7.96a3.533 3.533 0 0 0-3.54 3.528v27.322a3.533 3.533 0 0 0 3.54 3.528h3.687a23.855 23.855 0 0 0-.43 4.427v17.208c-5.74 4.846-9.409 12.067-9.409 20.108V259.25c0 14.508 11.913 26.378 26.476 26.378l7.869.283V.825z" fill="#C5D6DA" style="mix-blend-mode:multiply" opacity=".425"/><mask id="b" fill="#fff"><use xlink:href="#a"/></mask><use fill="#B0C1C7" xlink:href="#a"/><path d="M47.553 317.605h295.175c11.255 0 20.465-9.501 20.465-21.113V174.756c0-8.62-5.085-16.073-12.308-19.34L34.049 312.294c3.612 3.293 8.336 5.31 13.504 5.31l307.4-114.069" fill="#C0CBCD" style="mix-blend-mode:multiply" opacity=".227" mask="url(#b)"/><path d="M309.37 267.653c0 11.382-9.262 20.61-20.684 20.61-11.423 0-20.685-9.228-20.685-20.61 0-11.381 9.262-20.61 20.685-20.61 11.422 0 20.684 9.229 20.684 20.61" fill="#1AA487"/><path d="M303.495 267.653c0 11.382-9.262 20.61-20.685 20.61-11.422 0-20.684-9.228-20.684-20.61 0-11.381 9.262-20.61 20.684-20.61 11.423 0 20.685 9.229 20.685 20.61" fill="#CEE7E1"/><path d="M272.708 276.773l-.518-.602a2.57 2.57 0 0 1 .285-3.621l16.804-14.3a2.592 2.592 0 0 1 3.634.284l.517.602a2.57 2.57 0 0 1-.288 3.618l-16.804 14.303a2.588 2.588 0 0 1-3.63-.284" fill="#59AF95"/><path d="M309.37 205.57c0 11.382-9.262 20.61-20.684 20.61-11.423 0-20.685-9.228-20.685-20.61s9.262-20.61 20.685-20.61c11.422 0 20.684 9.228 20.684 20.61" fill="#1AA487"/><path d="M303.495 205.57c0 11.382-9.262 20.61-20.685 20.61-11.422 0-20.684-9.228-20.684-20.61s9.262-20.61 20.684-20.61c11.423 0 20.685 9.228 20.685 20.61" fill="#CEE7E1"/><path d="M272.708 214.69l-.518-.602a2.57 2.57 0 0 1 .285-3.621l16.804-14.3a2.592 2.592 0 0 1 3.634.284l.517.602a2.57 2.57 0 0 1-.288 3.618l-16.804 14.303a2.588 2.588 0 0 1-3.63-.284" fill="#59AF95"/><path d="M247.257 267.653c0 11.382-9.262 20.61-20.684 20.61-11.423 0-20.685-9.228-20.685-20.61 0-11.381 9.262-20.61 20.685-20.61 11.422 0 20.684 9.229 20.684 20.61" fill="#1AA487"/><path d="M241.381 267.653c0 11.382-9.261 20.61-20.684 20.61-11.423 0-20.684-9.228-20.684-20.61 0-11.381 9.261-20.61 20.684-20.61 11.423 0 20.684 9.229 20.684 20.61" fill="#CEE7E1"/><path d="M210.595 276.773l-.518-.602a2.57 2.57 0 0 1 .285-3.621l16.804-14.3a2.592 2.592 0 0 1 3.634.284l.517.602a2.57 2.57 0 0 1-.288 3.618l-16.804 14.303a2.588 2.588 0 0 1-3.63-.284" fill="#59AF95"/><path d="M247.257 205.57c0 11.382-9.262 20.61-20.684 20.61-11.423 0-20.685-9.228-20.685-20.61s9.262-20.61 20.685-20.61c11.422 0 20.684 9.228 20.684 20.61" fill="#1AA487"/><path d="M241.381 205.57c0 11.382-9.261 20.61-20.684 20.61-11.423 0-20.684-9.228-20.684-20.61s9.261-20.61 20.684-20.61c11.423 0 20.684 9.228 20.684 20.61" fill="#CEE7E1"/><path d="M210.595 214.69l-.518-.602a2.57 2.57 0 0 1 .285-3.621l16.804-14.3a2.592 2.592 0 0 1 3.634.284l.517.602a2.57 2.57 0 0 1-.288 3.618l-16.804 14.303a2.588 2.588 0 0 1-3.63-.284" fill="#59AF95"/><path d="M179.382 267.653c0 11.382-9.262 20.61-20.684 20.61-11.423 0-20.684-9.228-20.684-20.61 0-11.381 9.261-20.61 20.684-20.61 11.422 0 20.684 9.229 20.684 20.61" fill="#1AA487"/><path d="M173.507 267.653c0 11.382-9.262 20.61-20.685 20.61-11.422 0-20.684-9.228-20.684-20.61 0-11.381 9.262-20.61 20.684-20.61 11.423 0 20.685 9.229 20.685 20.61" fill="#CEE7E1"/><path d="M142.72 276.773l-.518-.602a2.57 2.57 0 0 1 .285-3.621l16.804-14.3a2.592 2.592 0 0 1 3.634.284l.517.602a2.57 2.57 0 0 1-.288 3.618l-16.804 14.303a2.588 2.588 0 0 1-3.63-.284" fill="#59AF95"/><path d="M179.382 205.57c0 11.382-9.262 20.61-20.684 20.61-11.423 0-20.684-9.228-20.684-20.61s9.261-20.61 20.684-20.61c11.422 0 20.684 9.228 20.684 20.61" fill="#1AA487"/><path d="M173.507 205.57c0 11.382-9.262 20.61-20.685 20.61-11.422 0-20.684-9.228-20.684-20.61s9.262-20.61 20.684-20.61c11.423 0 20.685 9.228 20.685 20.61" fill="#CEE7E1"/><path d="M142.72 214.69l-.518-.602a2.57 2.57 0 0 1 .285-3.621l16.804-14.3a2.592 2.592 0 0 1 3.634.284l.517.602a2.57 2.57 0 0 1-.288 3.618l-16.804 14.303a2.588 2.588 0 0 1-3.63-.284" fill="#59AF95"/><path d="M112.813 267.653c0 11.382-9.261 20.61-20.684 20.61-11.423 0-20.684-9.228-20.684-20.61 0-11.381 9.261-20.61 20.684-20.61 11.423 0 20.684 9.229 20.684 20.61" fill="#1AA487"/><path d="M106.938 267.653c0 11.382-9.262 20.61-20.685 20.61-11.422 0-20.684-9.228-20.684-20.61 0-11.381 9.262-20.61 20.684-20.61 11.423 0 20.685 9.229 20.685 20.61" fill="#CEE7E1"/><path d="M76.15 276.773l-.517-.602a2.57 2.57 0 0 1 .285-3.621l16.804-14.3a2.592 2.592 0 0 1 3.634.284l.517.602a2.57 2.57 0 0 1-.288 3.618l-16.804 14.303a2.588 2.588 0 0 1-3.63-.284" fill="#59AF95"/><path d="M112.813 205.57c0 11.382-9.261 20.61-20.684 20.61-11.423 0-20.684-9.228-20.684-20.61s9.261-20.61 20.684-20.61c11.423 0 20.684 9.228 20.684 20.61" fill="#1AA487"/><path d="M106.938 205.57c0 11.382-9.262 20.61-20.685 20.61-11.422 0-20.684-9.228-20.684-20.61s9.262-20.61 20.684-20.61c11.423 0 20.685 9.228 20.685 20.61" fill="#CEE7E1"/><path d="M76.15 214.69l-.517-.602a2.57 2.57 0 0 1 .285-3.621l16.804-14.3a2.592 2.592 0 0 1 3.634.284l.517.602a2.57 2.57 0 0 1-.288 3.618l-16.804 14.303a2.588 2.588 0 0 1-3.63-.284" fill="#59AF95"/></g><path d="M168.077 450.779H89.641c-9.863 0-17.933-8.041-17.933-17.865v-5.522c0-9.823 8.07-17.865 17.933-17.865h78.436c9.863 0 17.93 8.042 17.93 17.865v5.522c0 9.824-8.067 17.865-17.93 17.865" fill="#F9DDDB"/><path d="M123.183 409.528h-36.45c-11.384 0-20.698 9.28-20.698 20.624 0 11.347 9.314 20.627 20.698 20.627h36.45v-41.251z" fill="#E46555"/><path d="M164.2 409.528H87.393c-6.75 0-12.803 2.935-16.815 7.525-3.114 3.569-4.992 8.138-4.992 13.099h120.42c0-11.344-9.813-20.624-21.808-20.624" fill-opacity=".5" fill="#C5D6DA" style="mix-blend-mode:multiply" opacity=".392"/><path d="M236.65 472.839h-78.437c-9.863 0-17.933-8.041-17.933-17.865v-5.521c0-9.824 8.07-17.865 17.933-17.865h78.436c9.863 0 17.93 8.04 17.93 17.865v5.52c0 9.825-8.067 17.866-17.93 17.866" fill="#F9DDDB"/><path d="M197.43 431.588h-36.45c-11.384 0-20.698 9.28-20.698 20.624 0 11.347 9.314 20.627 20.698 20.627h36.45v-41.251z" fill="#E46555"/><path d="M233.88 431.588h-72.899c-6.406 0-12.152 2.935-15.96 7.525-2.956 3.57-4.738 8.138-4.738 13.099h114.295c0-11.344-9.313-20.624-20.698-20.624" fill-opacity=".5" fill="#C5D6DA" style="mix-blend-mode:multiply" opacity=".392"/></g></svg>