<svg width="350" height="350" viewBox="0 0 350 350" xmlns="http://www.w3.org/2000/svg"><title>5B1CBACD-EC0B-45E3-8896-16CD1C78BD6C</title><g fill="none" fill-rule="evenodd"><path d="M126.557 254.482c0 26.06 21.125 47.185 47.185 47.185 26.06 0 47.185-21.126 47.185-47.185s-21.126-47.185-47.185-47.185c-26.06 0-47.185 21.126-47.185 47.185z" stroke="#5D2119" stroke-width="8"/><path d="M165.654 253.48a8.088 8.088 0 1 0 16.176 0 8.088 8.088 0 0 0-16.176 0" fill="#7A2D26"/><path d="M173.742 192.286v62.988" fill="#B1423C"/><path d="M173.742 192.286v62.988" stroke="#7A2D26" stroke-width="3"/><path d="M122.484 296.434c1.375-4.516-1.099-9.27-5.526-10.616l-20.224-6.157c-4.426-1.347-9.128 1.22-10.503 5.737l36.253 11.036z" fill="#B1423C"/><path d="M161.049 212.22c-2.728-1.267-5.687-.687-6.61 1.297l-34.29 73.79c-.921 1.983.543 4.619 3.27 5.887l37.63-80.973z" fill="#B1423C"/><path d="M233.385 155.794c-.276-4.15.553-13.91-8.172-13.91h-46.097c-4.527 0-8.197 3.563-8.197 7.953l.356 62.385h-11.167c0 4.392 3.668 7.955 8.196 7.955h56.907c4.227 0 7.706-3.108 8.15-7.096h.05v-.859" fill="#B1423C"/><path d="M233.385 155.794c-.276-4.15.553-13.91-8.172-13.91h-.093v-.274c-4.529 0-8.199 3.562-8.199 7.95v60s.008 2.348-2.354 2.259c-1.815-.027-52.054 0-52.054 0-4.529 0-8.198 3.559-8.198 7.953h11.414c.807.26 1.677.405 2.575.405h56.907c4.227 0 7.706-3.108 8.15-7.096h.05V148.104l-.026 7.69z" fill="#E7534F"/><path d="M225.778 219.389v35.886" fill="#B1423C"/><path d="M225.778 219.389v35.886" stroke="#7A2D26" stroke-width="3"/><path d="M178.593 253.48c0 26.06 21.125 47.186 47.185 47.186 26.06 0 47.185-21.126 47.185-47.185 0-26.06-21.126-47.185-47.185-47.185-26.06 0-47.185 21.126-47.185 47.185z" stroke="#B1423C" stroke-width="8"/><path d="M217.69 253.48a8.088 8.088 0 1 0 16.176 0 8.088 8.088 0 0 0-16.176 0" fill="#B1423C"/><path d="M111.325 272.67l-14.984-7.54c16.455-35.824 25.117-57.934 27.11-62.378l20.692-1.91c-1.98 4.42-16.312 35.9-32.818 71.828" fill="#4B2F86"/><path d="M113.301 272.675l-23.097-10.048c-5.083-2.212-10.993.115-13.204 5.196l32.303 14.052 3.998-9.2z" fill="#301E19"/><path d="M94.268 267.488c.168.479.81.693 1.434.473.622-.22.986-.788.819-1.268l-1.533-4.355c-.171-.481-.815-.694-1.433-.473-.625.219-.993.786-.824 1.267l1.537 4.356zM91.56 267.247c.171.48.811.693 1.434.473.622-.22.99-.787.82-1.269l-1.533-4.355c-.17-.479-.812-.692-1.436-.47-.62.216-.989.785-.82 1.264l1.535 4.357z" fill="#AF7F24"/><path d="M160.18 191.977c-.787.169-1.588.258-2.394.26l-36.548 7.289a6.015 6.015 0 0 1-6.026-6.001 6.02 6.02 0 0 1 6.003-6.028l36.484-7.29c.217-.054.57-.313.69-.502l8.104-25.76a6.011 6.011 0 0 1 7.54-3.93 6.014 6.014 0 0 1 3.93 7.542l-8.12 25.816c-1.346 4.274-5.275 7.664-9.663 8.604" fill="#6D2B25"/><path d="M176.385 169.666a7.647 7.647 0 0 0 1.01-2.236l3.01-11.247a7.666 7.666 0 1 0-14.808-3.969l-3.016 11.248a7.73 7.73 0 0 0-.254 1.92l14.058 4.284z" fill="#ED8826"/><path d="M211.892 155.685c0-5.277-4.383-9.597-9.74-9.597h-19.136c-5.358 0-9.746 4.32-9.746 9.597l-6.78 37.713h38.525l6.877-37.713z" fill="#F3A521"/><path d="M184.694 143.062c.31-.028.74.133.956.358l6.022 6.298c.216.226.155.505-.135.621l-3.589 1.435a.59.59 0 0 1-.754-.309l-3.412-7.78c-.125-.286.026-.543.337-.571l.574-.052z" fill="#ED8826"/><path d="M220.465 113.263c0 15.526-12.612 28.113-28.166 28.113s-28.162-12.587-28.162-28.113c0-15.524 12.608-28.11 28.162-28.11 15.554 0 28.166 12.586 28.166 28.11" fill="#843628"/><path d="M188.132 119.042a2.686 2.686 0 0 1 2.687-2.687h1.983a2.687 2.687 0 0 1 2.688 2.687h-7.358z" fill="#602822"/><path d="M213.45 110.704c0-9.538-4.408-18.044-11.296-23.612 10.476 4.099 17.89 14.267 17.89 26.17 0 15.527-12.61 28.114-28.165 28.114-1.819 0-3.596-.18-5.319-.508 15.137-1.755 26.89-14.585 26.89-30.164" fill="#722F27"/><path d="M180.767 110.142a2.84 2.84 0 0 0-2.84-2.838 2.836 2.836 0 0 0-2.837 2.838 2.837 2.837 0 0 0 2.837 2.839 2.842 2.842 0 0 0 2.84-2.84" fill="#13110D"/><path d="M171.498 101.4l6.018-.535M171.116 102.517a1.18 1.18 0 0 1 .276-2.295l6.02-.535a1.182 1.182 0 1 1 .208 2.357l-6.018.534a1.148 1.148 0 0 1-.486-.06" fill="#1D1C1B"/><path d="M211.84 110.142a2.842 2.842 0 0 0-5.684 0 2.843 2.843 0 0 0 5.684 0" fill="#13110D"/><path d="M206.146 99.743l5.876 1.4M205.721 100.849a1.187 1.187 0 0 1-.727-1.378 1.187 1.187 0 0 1 1.426-.877l5.874 1.398c.64.154 1.033.789.878 1.424a1.18 1.18 0 0 1-1.422.876l-5.876-1.396a1.614 1.614 0 0 1-.153-.047" fill="#1D1C1B"/><path d="M191.688 129.509a6.571 6.571 0 0 0 6.694-6.448l-13.142-.246a6.575 6.575 0 0 0 6.448 6.694" fill="#FEFEFE"/><path d="M239.067 86.694c0-3.333-2.203-6.24-5.481-7.831a7.647 7.647 0 0 0 .8-3.378c0-3.644-2.628-6.778-6.421-8.241.002-.11.02-.22.02-.33 0-5.04-5.018-9.122-11.206-9.122-.895 0-1.757.094-2.59.254-.053-5.003-5.046-9.045-11.203-9.045-3.396 0-6.43 1.233-8.487 3.175-2.211-1.298-5.046-2.077-8.137-2.077-6.648 0-12.111 3.61-12.741 8.228a11.953 11.953 0 0 0-4.743-.974c-5.846 0-10.591 4.083-10.591 9.12 0 .59.072 1.164.195 1.723-5.242.545-9.307 4.383-9.307 9.048 0 1.799.613 3.47 1.657 4.884-2.44 1.523-4.044 4.083-4.044 6.985 0 3.366 2.16 6.263 5.283 7.626-.125.534.02 3.514.395 4.616.535 2.577 5.508 12.959 8.28 13.293v4.678l4.927 2.644v-8.963c.909-.915 4.998-9.05 3.852-15.733 1.759.33 3.038 1 8.204-4.415 1.4 1.265 3.412 2.076 5.679 2.076 2.924 0 5.432-1.34 6.716-3.286 1.62 2.599 4.949 4.387 8.799 4.387 4.132 0 7.663-2.052 9.126-4.958.082 2.41 2.475 4.343 5.457 4.425-.033.285.17 9.55 4.134 14.076v9.314h4.928v-6.84c6.135-.273 13.299-10.717 13.299-15.687 0-1.001-.205-1.96-.57-2.86 2.309-1.671 3.77-4.1 3.77-6.812" fill="#1D1C1B"/><path d="M123.881 279.79l-23.698-9.41c-5.21-2.069-11.112.477-13.181 5.691l33.132 13.154 3.747-9.436z" fill="#4A2317"/><path d="M104.268 274.774c.188.481.845.674 1.468.432.622-.243.973-.828.786-1.31l-1.693-4.354c-.186-.48-.845-.675-1.466-.432-.625.24-.976.83-.79 1.307l1.695 4.357zM101.522 274.62c.192.481.845.674 1.468.432.621-.245.974-.83.786-1.31l-1.693-4.355c-.188-.48-.844-.675-1.464-.432-.625.24-.977.83-.789 1.31l1.692 4.355z" fill="#F7A80A"/><path d="M217.584 124.26c2.741 0 4.963-1.964 4.963-4.39v-11.072c0-2.425-2.222-4.389-4.963-4.389v19.851zM166.295 124.69c-3.004 0-5.438-1.966-5.438-4.389v-11.074c0-2.424 2.434-4.388 5.438-4.388v19.851zM191.7 132.915c-4.854 0-8.267-2.598-8.267-5.724 0-3.128.779-5.882 8.268-5.6 7.237-.477 8.118 2.472 8.118 5.6 0 3.126-3.267 5.724-8.118 5.724m.024-12.582c-8.778-1.463-10.826 3.876-10.826 8.778 0 4.902 4.469 8.972 10.826 8.972 6.354 0 10.627-4.07 10.627-8.972 0-4.902-2.44-10.436-10.627-8.778" fill="#1D1C1B"/><path d="M136.51 193.161c-8.18 0-14.814 8.222-14.814 18.364h68.942c8.185 0 14.819-8.22 14.819-18.364H136.51z" fill="#4B2F86"/><path d="M155.549 193.161c-10.142 0-18.365 8.222-18.365 18.364h49.906c10.144 0 18.367-8.22 18.367-18.364h-49.908z" fill="#5D378B"/><path d="M123.792 279.443l-15.92-6.178c.262-.549 20.883-49.202 31.775-70.922l18.512 2.332c-10.846 21.623-34.1 74.222-34.367 74.768" fill="#5D378B"/><path d="M198.533 143.062c-.313-.028-.75.134-.97.359l-6.135 6.298c-.22.225-.16.504.133.619l3.665 1.438a.607.607 0 0 0 .766-.314l3.473-7.774c.128-.287-.023-.545-.337-.573l-.595-.053z" fill="#ED8826"/><path d="M180.999 206.822c.138 2.075-.277 6.954 4.086 6.954h.047v.138c2.264 0 4.099-1.78 4.099-3.975v-30s-.004-1.174 1.177-1.129c.908.013 33.262 0 33.262 0 2.265 0 4.099-1.78 4.099-3.977h-12.942a4.204 4.204 0 0 0-1.288-.202h-28.453c-2.113 0-3.853 1.554-4.075 3.547h-.025v36.504l.013-7.86z" fill="#E7534F"/><path d="M222.027 199.246c-.18.12-.365.236-.553.347l-28.658 16.202a6.018 6.018 0 0 1-8.226-2.165 6.02 6.02 0 0 1 2.168-8.226l28.229-15.954-10.066-22.918a6.014 6.014 0 0 1 11.012-4.838l10.267 23.371c2.222 5.055.384 11.152-4.173 14.181" fill="#843628"/><path d="M205.04 170.876a7.634 7.634 0 0 1-1.208-2.136l-4.016-10.928a7.67 7.67 0 0 1 4.555-9.842 7.667 7.667 0 0 1 9.84 4.553l4.017 10.93c.229.621.36 1.256.424 1.888l-13.612 5.535z" fill="#ED8826"/></g></svg>