<svg width="500" height="500" viewBox="0 0 500 500" xmlns="http://www.w3.org/2000/svg" xmlns:xlink="http://www.w3.org/1999/xlink"><title>E2E1C772-09C8-4D49-99BB-CEFBD287FE74</title><defs><path id="a" d="M400.226.124H.619v399.892h399.607V.124z"/><path id="c" d="M0 403.667h423.258V.124H0z"/><path d="M37.415 181.152C70.538 145.467 90.793 97.654 90.793 45.11c0-15.448-1.75-30.486-5.063-44.928H.494v180.971h36.92z" id="e"/><path d="M.62 200.07c0 110.425 89.454 199.947 199.803 199.947 110.35 0 199.803-89.522 199.803-199.947C400.226 89.642 310.772.124 200.423.124 90.073.124.62 89.642.62 200.07z" id="g"/></defs><g fill="none" fill-rule="evenodd"><g transform="translate(38 50.145)"><g transform="translate(22.462)"><mask id="b" fill="#fff"><use xlink:href="#a"/></mask><path d="M.62 200.07c0 110.428 89.453 199.946 199.803 199.946 110.349 0 199.803-89.518 199.803-199.946C400.226 89.64 310.772.123 200.423.123 90.073.123.619 89.641.619 200.07" fill="#EFEEEE" mask="url(#b)"/></g><mask id="d" fill="#fff"><use xlink:href="#c"/></mask><path fill="#47525A" mask="url(#d)" d="M11.359 187.997H141.57v-18.172H11.359z"/><path d="M140.153 205.097h4.273c6.06 0 11.017-4.961 11.017-11.026v-30.318c0-6.065-4.957-11.026-11.017-11.026h-4.273v52.37z" fill="#6A7982" mask="url(#d)"/><path d="M117.007 225.28h7.566c10.73 0 19.511-8.786 19.511-19.526v-53.685c0-10.737-8.782-19.526-19.511-19.526h-7.566v92.736zM15.29 205.097h-4.272C4.958 205.097 0 200.136 0 194.071v-30.318c0-6.065 4.958-11.026 11.018-11.026h4.273v52.37z" fill="#6A7982" mask="url(#d)"/><path d="M38.436 225.28H30.87c-10.73 0-19.511-8.786-19.511-19.526v-53.685c0-10.737 8.782-19.526 19.511-19.526h7.566v92.736z" fill="#6A7982" mask="url(#d)"/><g mask="url(#d)" fill="#6A7982"><path d="M11.36 195.714v-.657h-.341C4.959 195.057 0 190.095 0 184.03v10.685c0 6.064 4.958 11.03 11.018 11.03h.34v.657c0 10.737 8.78 19.522 19.512 19.522h7.565V215.24h-7.565c-10.733 0-19.512-8.785-19.512-19.526M144.424 195.057h-.34v.657c0 10.737-8.78 19.526-19.512 19.526h-7.565v10.685h7.565c10.733 0 19.512-8.785 19.512-19.522v-.658h.34c6.06 0 11.018-4.965 11.018-11.03v-10.684c0 6.064-4.958 11.026-11.018 11.026M38.436 188.645h78.571v-10.689H38.436z"/></g></g><g transform="translate(60.462 50.145)"><path d="M216.81 336.114H81.56a20.5 20.5 0 0 1-19.97-15.883l-32.407-139.94c-2.556-11.035 4.311-22.058 15.343-24.615 11.014-2.564 22.04 4.318 24.595 15.354l28.728 124.057H216.81c11.32 0 20.5 9.185 20.5 20.513 0 11.329-9.18 20.514-20.5 20.514z" fill="#F2C089"/><path d="M375.218 199.491c0 57.363-48.122 103.863-107.484 103.863-59.359 0-107.48-46.5-107.48-103.863 0-57.362 48.121-103.863 107.48-103.863 59.362 0 107.484 46.5 107.484 103.863" fill="#391D7B"/><path d="M274.181 307.283c0-4.86 1.293-9.453 3.581-13.53l-79.08-144.342 94.965-56.037-98.91-6.516s-64.866 54.478-43.324 133.607c0 0 15.982 56.134-6.756 92.061 0 0 15.868-2.748 22.488-19.752-2.36 7.119-8.111 28.228 3.244 37.12 0 0-3.783-16.17 6.189-22.159 0 0-.804 21.683 15.35 25.75l.514-.045a18.373 18.373 0 0 1-.834-5.47c0-10.301 8.5-18.652 18.99-18.652a19.11 19.11 0 0 1 13.427 5.463c32.71 29.013 68.36 23.474 75.707 21.933-14.707-3.451-25.551-15.316-25.551-29.431" fill="#391D7B"/><path d="M373.061 175.66c0 54.947-44.596 99.489-99.61 99.489-55.012 0-99.609-44.542-99.609-99.49 0-54.948 44.597-99.49 99.61-99.49s99.61 44.542 99.61 99.49" fill="#F2C089"/><path d="M176.409 175.19c0-56.486 44.297-99.4 98.448-99.4 54.137 0 98.059 42.914 98.059 99.4 0 56.482-43.922 98.668-98.06 98.668-54.15 0-98.447-42.186-98.447-98.668m218.25 1.697c0-66.899-53.723-121.127-119.993-121.127-66.275 0-120.001 54.228-120.001 121.127 0 55.77 37.34 102.726 88.16 116.81h63.677c50.817-14.084 88.158-61.04 88.158-116.81" fill="#391D7B"/><path d="M350.917 158.879c-1.47-34.358-18.646-64.321-44.304-83.325 38.331 13.151 66.608 48.64 68.447 91.536 2.395 55.932-41.064 103.226-97.068 105.627-6.55.282-12.972-.09-19.23-1.006 54.23-8.66 94.558-56.708 92.155-112.832" fill="#EAB17A"/><path d="M354.644 164.609c0-5.55-4.5-10.048-10.048-10.048-5.542 0-10.038 4.498-10.038 10.048s4.496 10.051 10.038 10.051c5.549 0 10.048-4.502 10.048-10.051M212.194 164.609c0-5.55-4.5-10.048-10.041-10.048-5.55 0-10.045 4.498-10.045 10.048s4.496 10.051 10.045 10.051c5.542 0 10.04-4.502 10.04-10.051" fill="#040502"/><path d="M324.313 248.601c11.672-5.344 16.8-19.143 11.46-30.823l-42.264 19.355c5.344 11.677 19.133 16.812 30.804 11.468" fill="#FEFEFE"/><path d="M260.468 211.45c0-5.25 4.256-9.508 9.502-9.508h2.837c5.25 0 9.502 4.259 9.502 9.509h-21.84z" fill="#F09958"/><path d="M351.158 91.55c-.601 14.892-25.44 21.958-36.551 26.057-26.886 9.912-54.78 17.03-82.97 22.08-32.55 5.83-70.14 17.051-102.047 2.779 7.844.786 15.903-4.457 23.065-6.993 19.411-6.872 36.253-18.907 52.044-31.87 15.625-12.821 30.582-28.69 49.443-36.707 19.004-8.075 40.765-10.528 60.705-4.53 11.508 3.459 26.833 10.936 33.68 21.15 1.95 2.91 2.732 5.582 2.631 8.034" fill="#5D3D8A"/><path d="M327.18 93.223c.702 3.288 9.147 6.367 11.681 7.818 19.352 11.092 25.29 42.026 29.47 61.834 7.777 36.887-3.29 73.927-.766 110.985.946 13.816 2.695 39.562 21.337 41.74-6.957-2.494-9.523-11.739-11.327-18.14-5.121-18.134 1.346-35.684 4.513-53.466 2.114-11.872 3.289-24.86 3.929-36.89 1.693-31.871.01-64.673-12.298-94.498-3.257-7.894-7.596-15.695-13.232-22.163-9.322-10.691-24.21-18.433-24.21-18.433-1.035 3.73-3.222 7.154-4.665 10.74-.8 1.99-4.822 8.396-4.44 10.418 0 .02.004.038.007.055" fill="#5D3D8A"/><path d="M196.955 159.495c-2.061-2.314-2.865-5.111-2.148-6.917a2.82 2.82 0 0 0-1.148.612c-1.752 1.566-1.12 5.143 1.415 7.985 2.531 2.843 6.008 3.88 7.764 2.314a2.78 2.78 0 0 0 .737-1.072c-1.874.505-4.558-.612-6.62-2.922M202.762 157.635c-2.062-2.314-2.865-5.108-2.148-6.917a2.82 2.82 0 0 0-1.148.612c-1.756 1.566-1.12 5.143 1.415 7.985 2.531 2.843 6.008 3.88 7.76 2.314.33-.292.574-.654.741-1.071-1.874.504-4.562-.613-6.62-2.923" fill="#040502"/><path d="M206.42 158.212c-.483-3.061.352-5.848 1.93-6.979a2.77 2.77 0 0 0-1.293-.104c-2.323.365-3.72 3.716-3.126 7.477.591 3.76 2.955 6.516 5.278 6.147.434-.066.834-.24 1.2-.5-1.85-.589-3.505-2.982-3.989-6.04M350.36 158.274c2.06-2.313 2.864-5.11 2.148-6.916.431.118.82.32 1.147.612 1.752 1.566 1.12 5.142-1.415 7.985-2.531 2.842-6.008 3.88-7.763 2.314a2.78 2.78 0 0 1-.738-1.072c1.874.504 4.558-.612 6.62-2.923M344.552 156.415c2.062-2.314 2.865-5.108 2.149-6.917.43.118.82.32 1.147.612 1.752 1.566 1.12 5.143-1.415 7.985-2.531 2.843-6.008 3.88-7.764 2.314a2.78 2.78 0 0 1-.737-1.072c1.874.505 4.562-.612 6.62-2.922" fill="#040502"/><path d="M340.892 156.992c.484-3.061-.35-5.848-1.93-6.98a2.785 2.785 0 0 1 1.298-.103c2.319.365 3.72 3.715 3.125 7.476-.594 3.762-2.959 6.517-5.281 6.148a2.752 2.752 0 0 1-1.196-.5c1.846-.589 3.501-2.982 3.984-6.04" fill="#040502"/><path d="M188.474 138.477l19.511-8.716" fill="#E5541D"/><path d="M188.479 143.93a5.454 5.454 0 0 1-2.225-10.43l19.511-8.717a5.445 5.445 0 0 1 7.197 2.756 5.453 5.453 0 0 1-2.757 7.198l-19.508 8.716a5.42 5.42 0 0 1-2.218.476" fill="#1E181A"/><path d="M338.101 119.483l17.794 11.836" fill="#E5541D"/><path d="M355.891 136.773a5.413 5.413 0 0 1-3.01-.912l-17.795-11.84a5.448 5.448 0 0 1-1.52-7.557 5.437 5.437 0 0 1 7.549-1.52l17.794 11.836a5.456 5.456 0 0 1 1.523 7.56 5.438 5.438 0 0 1-4.54 2.433" fill="#1E181A"/><g transform="translate(309.433 154.962)"><mask id="f" fill="#fff"><use xlink:href="#e"/></mask><path d="M156.243 181.152H20.993c-11.32 0-20.499-9.185-20.499-20.513 0-11.329 9.179-20.514 20.5-20.514H139.95L168.68 16.068C171.239 5.032 182.236-1.839 193.278.714c11.028 2.558 17.895 13.58 15.34 24.616L176.21 165.27c-2.152 9.3-10.426 15.882-19.967 15.882" fill="#F2C089" mask="url(#f)"/></g><path d="M305.907 335.635H244.82c-8.327 0-15.076-6.753-15.076-15.086v-17.292c0-8.333 6.749-15.086 15.076-15.086h61.087c8.323 0 15.075 6.753 15.075 15.086v17.292c0 8.333-6.752 15.086-15.075 15.086" fill="#F2C089"/><mask id="h" fill="#fff"><use xlink:href="#g"/></mask><path fill="#EC9028" mask="url(#h)" d="M223.484 377.14h104.63v-47.463h-104.63z"/><path d="M341.844 454.21V347.77c0-27.334-13.744-50.582-33.012-59.597 2.479 3.32 3.97 7.418 3.97 11.857v34.511c0 10.946-8.949 19.902-19.887 19.902h-37.358c-10.941 0-19.887-8.956-19.887-19.902v-34.51a19.77 19.77 0 0 1 3.515-11.253c-18.628 9.408-31.809 32.232-31.809 58.991v106.71h134.569c-.035-.087-.066-.181-.101-.268" fill="#1AA487" mask="url(#h)"/></g></g></svg>