<svg width="500" height="500" viewBox="0 0 500 500" xmlns="http://www.w3.org/2000/svg" xmlns:xlink="http://www.w3.org/1999/xlink"><title>B08F7BF2-6BF7-4A6A-8262-35FC3C7B4EC8</title><defs><path d="M5.655.498a80.804 80.804 0 0 0-5.63 7.149h29.71V.498H5.655z" id="a"/><path d="M3.72.986A80.141 80.141 0 0 0 .21 8.135h37.685V.986H3.719z" id="c"/><path d="M30.667 7.647a80.806 80.806 0 0 0-5.63-7.149H.954v7.149h29.713z" id="e"/><path d="M38.641 8.135a80.143 80.143 0 0 0-3.51-7.149H.955v7.149h37.687z" id="g"/><path d="M388.325.834c5.854 18.72 9.01 38.634 9.01 59.285 0 109.55-88.782 198.355-198.302 198.355S.732 169.669.732 60.119C.732 39.47 3.886 19.554 9.74.834h378.585z" id="i"/></defs><g fill="none" fill-rule="evenodd"><path d="M51.732 251.181c0 109.55 88.781 198.355 198.3 198.355 109.52 0 198.302-88.805 198.302-198.355 0-109.549-88.781-198.354-198.301-198.354-109.52 0-198.301 88.805-198.301 198.354" fill="#EDEBEB"/><path d="M235.726 133.21c0 32.596-26.47 59.024-59.123 59.024-32.65 0-59.12-26.428-59.12-59.025 0-32.596 26.47-59.022 59.12-59.022 32.653 0 59.123 26.426 59.123 59.022" fill="#F3BD89"/><path d="M168.9 154.444a5.639 5.639 0 0 1 5.637-5.64h4.169a5.637 5.637 0 0 1 5.638 5.64H168.9z" fill="#F29353"/><path d="M221.9 127.831c0-20.022-9.248-37.88-23.706-49.575 21.98 8.605 37.55 29.957 37.55 54.953 0 32.6-26.47 59.025-59.12 59.025-3.82 0-7.55-.376-11.166-1.066 31.774-3.683 56.442-30.626 56.442-63.337" fill="#EAAE79"/><path d="M140.247 126.653a5.961 5.961 0 0 0-11.922 0 5.965 5.965 0 0 0 5.962 5.965 5.964 5.964 0 0 0 5.96-5.965" fill="#13110D"/><path d="M129.24 113.633l11.581-5.17" fill="#E73F1F"/><path d="M129.244 116.995a3.367 3.367 0 0 1-3.075-1.991 3.37 3.37 0 0 1 1.701-4.443l11.58-5.17a3.365 3.365 0 0 1 4.442 1.698 3.364 3.364 0 0 1-1.702 4.442l-11.58 5.174c-.442.197-.907.29-1.366.29" fill="#2A2022"/><path d="M215.22 109.16l11.255 5.84" fill="#E73F1F"/><path d="M226.475 118.366c-.524 0-1.049-.121-1.546-.38l-11.26-5.843a3.362 3.362 0 0 1 3.099-5.968l11.26 5.843a3.365 3.365 0 0 1-1.553 6.348" fill="#2A2022"/><path d="M190.897 178.523c-.028.007-45.98 9.206-50.966-36.21 0 0-1.436 3.617.124 11.045 3.482 16.592 16.756 28.123 34.448 27.454 4.541-.173 11.736.165 15.756-2.095.596-.339 0 0 .638-.194" fill="#13110D"/><path d="M123.386 111.78a39.021 39.021 0 0 1 8.627-14.137c10.407-12.646 25.97-20.896 43.481-21.569-6.728-11.704-19.35-19.584-33.816-19.584-21.535 0-38.996 17.465-38.996 39.003 0 13.126 6.488 24.73 16.425 31.803a58.627 58.627 0 0 1 4.28-15.515" fill="#CA361A"/><path d="M177.81 74.98a58.989 58.989 0 0 0-31.041 8.777c.32.942.145-.318.466.628 5.276-.625 10.855 1.008 16.159 2.878 10.014 3.542 17.467 11.135 21.328 20.43 3.064 7.38 9.048 12.992 16.415 15.598l.138.048.024-.069c11.48 3.548 23.558.998 32.823-5.94a.72.72 0 0 0 .255-.794c-7.502-24.075-29.983-41.557-56.566-41.557" fill="#EAAE79"/><path d="M104.043 81.888s-3.924 29.21 6.725 44.625h5.604s-13.316-22.542-6.519-44.625h-5.81z" fill="#31AB5F"/><path d="M122.184 81.888s3.924 29.21-6.725 44.625h-5.604s13.316-22.542 6.518-44.625h5.811z" fill="#31AB5F"/><path d="M119.28 133.536a3.316 3.316 0 0 1-3.32 3.317h-5.527a3.318 3.318 0 0 1-3.32-3.317v-5.45a3.321 3.321 0 0 1 3.32-3.32h5.528a3.32 3.32 0 0 1 3.32 3.32v5.45z" fill="#E22953"/><path d="M249.327 81.888s3.924 29.21-6.725 44.625h-5.604s13.316-22.542 6.518-44.625h5.811z" fill="#31AB5F"/><path d="M231.186 81.888s-3.924 29.21 6.725 44.625h5.604s-13.316-22.542-6.519-44.625h-5.81z" fill="#31AB5F"/><path d="M234.09 133.536a3.318 3.318 0 0 0 3.32 3.317h5.527a3.318 3.318 0 0 0 3.32-3.317v-5.45a3.321 3.321 0 0 0-3.32-3.32h-5.528a3.321 3.321 0 0 0-3.32 3.32v5.45z" fill="#E22953"/><path d="M176.605 20.325c-37.916 0-69.696 26.245-78.191 61.562h156.383C246.3 46.57 214.52 20.325 176.605 20.325" fill="#62BEB3"/><path d="M116.19 140.404c-.38-1.15-.718-2.305-.787-3.513-.079-1.433.07-2.876.083-4.305.031-3.8-5.852-3.793-5.887 0-.02 2.506-.217 4.926.346 7.4.572 2.52 1.839 4.86 2.032 7.463.331 4.439-1.487 8.049-3.844 11.68-2.07 3.193 3.026 6.14 5.083 2.968 2.657-4.093 4.613-8.352 4.69-13.312.04-2.958-.798-5.613-1.716-8.38M236.76 140.404c.379-1.15.717-2.305.783-3.513.079-1.433-.066-2.876-.08-4.305-.034-3.8 5.853-3.793 5.884 0 .024 2.506.22 4.926-.342 7.4-.573 2.52-1.84 4.86-2.032 7.463-.332 4.439 1.487 8.049 3.844 11.68 2.07 3.193-3.023 6.14-5.083 2.968-2.657-4.093-4.617-8.352-4.69-13.312-.041-2.958.797-5.613 1.715-8.38" fill="#31AB5F"/><g><path d="M167.108 30.493c2.184 3.286 1.843 7.355-.766 9.095-2.609 1.736-6.494.48-8.682-2.807-2.187-3.289-1.842-7.358.766-9.094 2.61-1.737 6.498-.48 8.682 2.806" fill="#404F9B"/><g transform="translate(110.66 47.034)"><mask id="b" fill="#fff"><use xlink:href="#a"/></mask><path d="M29.735 4.07a3.573 3.573 0 0 1-3.571 3.577h-70.621a3.575 3.575 0 0 1 0-7.148h70.62a3.572 3.572 0 0 1 3.572 3.572" fill="#404F9B" mask="url(#b)"/></g><g transform="translate(102.501 60.84)"><mask id="d" fill="#fff"><use xlink:href="#c"/></mask><path d="M37.895 4.559a3.573 3.573 0 0 1-3.572 3.576h-70.62a3.573 3.573 0 1 1 0-7.148h70.62a3.57 3.57 0 0 1 3.572 3.572" fill="#404F9B" mask="url(#d)"/></g><path d="M186.1 30.493c-2.184 3.286-1.842 7.355.767 9.095 2.608 1.736 6.497.48 8.681-2.807 2.188-3.289 1.843-7.358-.766-9.094-2.608-1.737-6.494-.48-8.681 2.806" fill="#404F9B"/><g transform="translate(211.858 47.034)"><mask id="f" fill="#fff"><use xlink:href="#e"/></mask><path d="M.954 4.07A3.574 3.574 0 0 0 4.53 7.648H75.15a3.575 3.575 0 0 0 0-7.149H4.53A3.573 3.573 0 0 0 .953 4.071" fill="#404F9B" mask="url(#f)"/></g><g transform="translate(211.858 60.84)"><mask id="h" fill="#fff"><use xlink:href="#g"/></mask><path d="M.954 4.559A3.574 3.574 0 0 0 4.53 8.135H75.15a3.575 3.575 0 0 0 0-7.149H4.53A3.57 3.57 0 0 0 .953 4.56" fill="#404F9B" mask="url(#h)"/></g></g><g><path d="M224.795 126.653a5.962 5.962 0 1 0-11.924.003 5.962 5.962 0 0 0 11.924-.003" fill="#13110D"/><path d="M238.803 70.876c-11.608-2.537-20.731-10.268-25.48-20.223-3.833-8.035-11.076-13.91-19.772-15.811l-7.356-1.609-.028.131c-19.047-2.778-37.274 9.585-41.442 28.686-1.719 7.856-.763 15.65 2.201 22.505 6.022-1.95 12.606-2.41 19.23-.963 10.38 2.267 18.759 8.694 23.81 17.143 4.01 6.71 10.67 11.404 18.302 13.075l.142.031.017-.069c19.469 3.476 38.364-8.998 42.62-28.493a36.714 36.714 0 0 0 .351-13.885c-4.092.524-8.333.414-12.595-.518" fill="#E73F1F"/></g><g transform="translate(51 193.323)"><mask id="j" fill="#fff"><use xlink:href="#i"/></mask><path fill="#F3BD89" mask="url(#j)" d="M95.762 410.647h19.972V221.59H95.762zM138.874 410.647h19.973V221.59h-19.973z"/><path fill="#4A277A" mask="url(#j)" d="M92.267 226.098h28.502V124.381H92.267zM134.796 226.098h28.502V124.381h-28.502z"/><path d="M177.324 107.185c0 17.247-13.978 31.226-31.218 31.226h-33.481c-17.24 0-31.218-13.979-31.218-31.226V50.162c0-17.244 13.978-31.227 31.218-31.227h33.481c17.24 0 31.218 13.983 31.218 31.227v57.023z" fill="#4A277A" mask="url(#j)"/><path d="M268.267 115.32a4.071 4.071 0 0 1-5.666 1.028 4.074 4.074 0 0 1-1.029-5.668l3.869-5.58a4.07 4.07 0 0 1 5.662-1.03 4.075 4.075 0 0 1 1.028 5.672l-3.864 5.577z" fill="#F49F6B" mask="url(#j)"/><path d="M271.427 141.498c-.773 0-1.553-.062-2.336-.19l-66.487-10.876c-12.108-1.98-22.988-12.077-25.873-24.002l-20.666-85.443c-1.867-7.718 2.875-15.488 10.59-17.355 7.706-1.867 15.48 2.875 17.347 10.593l20.665 85.443c.277.746 1.812 2.168 2.664 2.406l66.398 10.859c7.833 1.28 13.143 8.67 11.863 16.505-1.153 7.052-7.25 12.06-14.165 12.06" fill="#F3BD89" mask="url(#j)"/><path d="M177.063 81.069V23.773c0-12.616-10.91-22.94-24.25-22.94h-47.62c-13.336 0-24.25 10.324-24.25 22.94v71.13c0 1.025.096 2.026.234 3.016v21.483h95.886V81.069z" fill="#ED8826" mask="url(#j)"/><path stroke="#F3BD89" stroke-width="28" stroke-linecap="round" stroke-linejoin="round" mask="url(#j)" d="M84.03 23.011l-51.566 70.56 54.1 35.921"/><path d="M153.753 43.183c0 11.625-9.203 20.31-20.449 20.31-11.245 0-20.369-8.685-20.369-20.31 0-11.625 9.124-20.457 20.37-20.457 11.245 0 20.448 8.832 20.448 20.457m-10.459.076c0-6.72-4.482-11.397-9.99-11.397-5.503 0-9.986 4.677-9.986 11.397 0 6.568 4.483 11.097 9.986 11.097 5.508 0 9.99-4.529 9.99-11.097M153.731 75.411c0-5.011-4.037-7.945-9.016-7.945h-22.743c-4.98 0-9.014 2.934-9.014 7.945h40.773z" fill="#4A277A" mask="url(#j)"/><path d="M104.942 157.515c0-10.438-8.458-18.898-18.893-18.898H38.38c-10.435 0-18.893 8.46-18.893 18.898h85.456z" fill="#4B4E59" mask="url(#j)"/><path d="M250.057 194.14H104.94c-2.809 0-5.107-2.299-5.107-5.112 0-2.81 2.298-5.112 5.107-5.112h145.117c2.808 0 5.11 2.303 5.11 5.112 0 2.813-2.302 5.112-5.11 5.112" fill="#41ACAE" mask="url(#j)"/><path d="M108.315 194.152L26.956 314.346a5.123 5.123 0 0 1-7.098 1.367c-2.326-1.574-2.94-4.77-1.366-7.097l81.362-120.194c1.574-2.33 4.77-2.944 7.095-1.366 2.326 1.573 2.943 4.77 1.366 7.096" fill="#379192" mask="url(#j)"/><path d="M262.454 214.792L164.535 321.92a5.12 5.12 0 0 1-7.219.324c-2.073-1.895-2.218-5.146-.324-7.22l97.919-107.127c1.898-2.074 5.145-2.223 7.219-.324 2.073 1.895 2.222 5.146.324 7.22M133.382 314.748L86.736 151.195c-.77-2.706.811-5.547 3.513-6.32 2.702-.77 5.545.811 6.315 3.514l46.646 163.556c.769 2.703-.811 5.543-3.513 6.316-2.702.77-5.545-.81-6.315-3.513" fill="#41ACAE" mask="url(#j)"/><path d="M303.946 315.039L232.93 160.505c-1.174-2.554-.045-5.605 2.508-6.779 2.554-1.173 5.604-.045 6.777 2.51l71.018 154.533c1.173 2.554.045 5.605-2.509 6.779-2.553 1.173-5.604.045-6.777-2.51" fill="#379192" mask="url(#j)"/><path d="M21.487 397.444c-46.453 0-84.113-37.667-84.113-84.136 0-46.465 37.66-84.132 84.113-84.132 46.452 0 84.113 37.667 84.113 84.132 0 46.469-37.66 84.136-84.113 84.136m0-188.466c-57.605 0-104.303 46.71-104.303 104.33s46.698 104.33 104.303 104.33 104.302-46.71 104.302-104.33-46.697-104.33-104.302-104.33M315.24 397.444c-46.452 0-84.113-37.667-84.113-84.136 0-46.465 37.66-84.132 84.113-84.132s84.113 37.667 84.113 84.132c0 46.469-37.66 84.136-84.113 84.136m0-188.466c-57.605 0-104.302 46.71-104.302 104.33s46.697 104.33 104.302 104.33c57.605 0 104.303-46.71 104.303-104.33s-46.698-104.33-104.303-104.33" fill="#352C2E" mask="url(#j)"/><path d="M130.296 157.515c0-10.438-8.457-18.898-18.892-18.898h-47.67c-10.435 0-18.893 8.46-18.893 18.898h85.455z" fill="#677883" mask="url(#j)"/><path d="M196.411 147.741c0 6.569 9.014 11.89 20.132 11.89h50.803c11.118 0 20.131-5.321 20.131-11.89h-91.066zM287.478 129.492c0-6.569-4.507-11.89-10.065-11.89h-25.4c-5.56 0-10.07 5.321-10.07 11.89h45.535z" fill="#236464" mask="url(#j)"/><path d="M275.591 157.575c6.567 0 11.888-3.955 11.888-8.836v-22.3c0-4.881-5.321-8.837-11.888-8.837v39.973zM208.298 131.548c0-6.569-4.506-11.89-10.065-11.89h-25.4c-5.56 0-10.07 5.321-10.07 11.89h45.535z" fill="#236464" mask="url(#j)"/><path d="M208.298 147.741v-19.246c0-4.88-5.32-8.836-11.887-8.836v28.082h11.887z" fill="#236464" mask="url(#j)"/></g></g></svg>