<svg width="500" height="500" viewBox="0 0 500 500" xmlns="http://www.w3.org/2000/svg" xmlns:xlink="http://www.w3.org/1999/xlink"><title>proteção básica</title><defs><path id="a" d="M0 410.508h400.01V.654H0z"/><path id="c" d="M.433 27.23H33.18V.274H.433z"/><path id="e" d="M371.648.654H.52v409.854h371.127V.654z"/></defs><g fill="none" fill-rule="evenodd"><g transform="translate(50 40.06)"><path d="M0 209.06c0 110.416 89.544 199.925 200.005 199.925s200.006-89.509 200.006-199.925c0-110.416-89.545-199.924-200.006-199.924C89.545 9.136 0 98.644 0 209.06z" fill="#EDEBEB"/><path d="M148.43 361.771l7.765-42.112 55.16-45.966c15.633-13.022 38.86-10.91 51.894 4.714L163.198 361.77H148.43z" fill="#E5A57E"/><path d="M197.685 361.771l7.765-42.112 55.159-45.966c15.633-13.022 38.864-10.91 51.894 4.714L212.455 361.77h-14.77z" fill="#E5A57E"/><path d="M201.08 275.138c0 20.73-15.87 37.537-35.45 37.537h-29.085c-19.583 0-20.979-16.807-20.979-37.537h85.514z" fill="#F8BD94"/><path d="M275.044 198.76c2.972 3.485 1.685 6.341-2.86 6.341H196.26c-4.542 0-10.698-2.856-13.667-6.342l-48.818-51.063c-2.969-3.486-4.093-3.82.452-3.82l92.733-3.489c4.545 0 12.02-.957 14.554 4.422l33.53 53.95z" fill="#B64140"/><path fill="#FBDBD8" d="M231.252 149.229l33.763 50.82-.334 88.342H191.95v-86.384"/><mask id="b" fill="#fff"><use xlink:href="#a"/></mask><path fill="#F19793" mask="url(#b)" d="M103.911 288.851h88.044v-86.843h-88.044z"/><path d="M212.57 284.047a4.199 4.199 0 0 0 4.187 4.185h30.02a4.197 4.197 0 0 0 4.188-4.185v-64.335a4.2 4.2 0 0 0-4.187-4.188h-30.021a4.202 4.202 0 0 0-4.187 4.188v64.335zM90.649 198.331c-2.938 3.396-1.66 6.172 2.826 6.172H186.3c4.483 0 10.72-1.086 13.476-6.172l33.832-49.372c2.93-3.392 1.653-6.171-2.826-6.171l-89.816-.296c-4.48 0-6.56 3.037-9.491 6.429l-40.827 49.41z" fill="#E7534F" mask="url(#b)"/><path fill="#FEFEFE" mask="url(#b)" d="M129.585 247.61h37.518v-31.064h-37.518z"/><path fill="#E7534F" mask="url(#b)" d="M131.97 245.588h32.745v-26.86H131.97z"/></g><g transform="translate(181.536 258.515)"><mask id="d" fill="#fff"><use xlink:href="#c"/></mask><path fill="#F4C0CE" mask="url(#d)" d="M37.943 36.363l-11.886 11.69L-2.686-2.793 9.199-14.484z"/></g><g transform="translate(63.921 40.06)"><mask id="f" fill="#fff"><use xlink:href="#e"/></mask><path fill="#FEFEFE" mask="url(#f)" d="M113.176 248.827h41.934v-2.995h-41.934z"/><path d="M224.67 145.17c0 2.66-2.053 4.817-4.59 4.817h-99.926c-2.537 0-4.587-2.156-4.587-4.818 0-2.658 2.05-4.815 4.587-4.815h99.926c2.537 0 4.59 2.157 4.59 4.815" fill="#B64140" mask="url(#f)"/><path d="M234.4 248.647c0 .55-.445.999-.995.999h-6.432a.995.995 0 0 1-.991-.999c0-.55.442-.995.991-.995h6.432c.55 0 .995.446.995.995" fill="#FEFEFE" mask="url(#f)"/><path d="M265.64 289.44v-2.467c0-4.47-4.73-8.099-10.562-8.099H85.692c-5.836 0-10.566 3.628-10.566 8.099v2.466H265.64z" fill="#FBDBD8" mask="url(#f)"/><path d="M57.284 312.483c12.724-24.62 19.448-37.304 40.667-37.304h23.395c19.75 0 19.113 16.47 21.09 37.475h-6.324c0 3.475 2.847 6.345 6.55 6.843v2.831c0 23.225-17.366 42.227-38.582 42.227H84.27c-21.223 0-42.912 4.71-42.912-18.511l15.926-33.56z" fill="#F8BD94" mask="url(#f)"/><path d="M54.824 319.048l174.474.602 55.156-45.956c15.63-13.022 38.864-10.914 51.89 4.714l-94.733 79.262s-4.517 4.92-12.038 4.84c-4.653.08-87.394.08-87.394.08l-81.73 47.918L.52 343.219l54.303-24.171z" fill="#F8BD94" mask="url(#f)"/><path d="M125.306 293.733c0-.045-.003-.09-.003-.139h.004c.121-10.262 8.178-18.542 18.118-18.542h44.805c9.933 0 18 8.28 18.115 18.542h.007c0 .032-.003.063-.003.09 0 .046.003.091.003.136h-.007c-.115 10.267-8.182 18.546-18.115 18.546h-44.809c-9.936 0-17.993-8.28-18.114-18.546h-.004c0-.027.004-.055.004-.087" fill="#F8BD94" mask="url(#f)"/><path d="M182.423 305.917h7.138c6.891 0 12.487-5.747 12.57-12.865h.004l-.003-.063c0-.031.003-.062.003-.094h-.007c-.08-7.121-5.676-12.868-12.567-12.868h-7.138v25.89z" fill="#F3E4DB" mask="url(#f)"/><path fill="#FEFEFE" mask="url(#f)" d="M133.563 247.046h2.283v-30.002h-2.283z"/><path d="M250.535 38.59l-7.764 42.115-55.163 45.963c-15.63 13.022-38.865 10.913-51.895-4.714L235.765 38.59h14.77z" fill="#E5A57E" mask="url(#f)"/><path d="M201.278 38.59l-7.76 42.115-55.164 45.963c-15.63 13.022-38.864 10.913-51.898-4.714L186.508 38.59h14.77z" fill="#E5A57E" mask="url(#f)"/><path d="M371.648 54.468L282.263.653l-39.4 37.116s-82.74 0-87.394.084c-7.524-.084-12.041 4.839-12.041 4.839l-94.734 79.263c13.034 15.627 36.265 17.735 51.898 4.713l55.145-45.956 86.642.035v.119c3.7.497 6.54 3.353 6.55 6.822l-52.117.306c-9.936 0-17.997 8.283-18.115 18.546h-.007c0 .048.003.09.003.139l-.003.087h.007c.115 10.262 8.179 18.546 18.115 18.546l86.586-.087v-.105c3.526-.379 9.038-1.708 15.261-5.89 30.418-28.648 72.989-64.762 72.989-64.762" fill="#F8BD94" mask="url(#f)"/><path d="M205.025 93.752h-7.141c-6.895 0-12.487 5.747-12.568 12.865h-.003v.156h.007c.077 7.121 5.67 12.868 12.567 12.868h7.138v-25.89z" fill="#F3E4DB" mask="url(#f)"/></g></g></svg>