<svg viewBox="627 806 185 204" version="1.1" xmlns="http://www.w3.org/2000/svg" xmlns:xlink="http://www.w3.org/1999/xlink">
    <!-- Generator: Sketch 40.2 (33826) - http://www.bohemiancoding.com/sketch -->
    <desc>Created with Sketch.</desc>
    <defs>
        <path d="M92.1681826,184.492296 C143.071745,184.492296 184.336365,143.215755 184.336365,92.2974851 C184.336365,41.3792156 143.071745,0.102673974 92.1681826,0.102673974 C41.2646198,0.102673974 0,41.3792156 0,92.2974851 C0,143.215755 41.2646198,184.492296 92.1681826,184.492296 Z" id="path-1"></path>
        <polygon id="path-3" points="64.5834844 0.0264644307 0.252761634 0.0264644307 0.252761634 64.3764148 64.5834844 64.3764148 64.5834844 0.0264644307"></polygon>
        <polygon id="path-5" points="36.3081395 0.0264644307 0.0313920152 0.0264644307 0.0313920152 64.3754522 36.3081395 64.3754522 36.3081395 0.0264644307"></polygon>
    </defs>
    <g id="Page-1" stroke="none" stroke-width="1" fill="none" fill-rule="evenodd" transform="translate(627.000000, 806.000000)">
        <path d="M0,110.124889 C0,161.043159 41.2646198,202.3197 92.1681826,202.3197 C143.071745,202.3197 184.336365,161.043159 184.336365,110.124889 C184.336365,59.2066198 143.071745,17.9300781 92.1681826,17.9300781 C41.2646198,17.9300781 0,59.2066198 0,110.124889" id="Fill-1" fill="#EDEBEB"></path>
        <g id="Group-89" transform="translate(0.000000, 18.809384)">
            <polygon id="Stroke-3" stroke="#4A277A" points="150.883138 139.589919 150.883138 117.234266"></polygon>
            <path d="M90.8089473,152.622455 C89.9621317,152.622455 89.1105046,152.336893 88.4096364,151.749727 C86.8266685,150.424591 86.6165685,148.064693 87.9429255,146.479664 C90.170628,143.818162 92.2491754,139.253983 93.9540334,133.284454 C95.3012401,128.571077 95.9203136,124.667862 95.9251251,124.629359 C96.2458886,122.588714 98.157639,121.192989 100.197695,121.510637 C102.237751,121.829889 103.634676,123.742192 103.31712,125.782837 C103.206456,126.483908 100.561761,143.056129 93.6797806,151.282881 C92.9388169,152.16684 91.8786936,152.622455 90.8089473,152.622455" id="Fill-5" fill="#8B5740"></path>
            <path d="M152.239808,143.118214 C151.524505,143.456718 150.695331,143.570622 149.861346,143.392546 C145.856614,142.53586 141.409228,140.023557 136.637871,135.923015 C133.234571,132.996807 130.899412,130.306428 130.80158,130.194128 C129.451165,128.629954 129.622774,126.268453 131.184892,124.916044 C132.748614,123.565239 135.109433,123.736898 136.459848,125.301071 C138.705192,127.888776 145.763593,134.864189 151.426672,136.075421 C153.445878,136.508577 154.733744,138.496281 154.300713,140.517675 C154.04731,141.703239 153.258232,142.63693 152.239808,143.118214" id="Fill-7" fill="#8B5740"></path>
            <path d="M106.143688,110.079494 C103.688243,109.773077 101.539128,108.85222 99.6979453,107.316923 C97.2425008,105.167186 94.7870562,103.325472 92.0252825,102.404615 C87.1143934,100.5629 82.8177664,97.1858893 81.590846,92.2735813 C80.3623218,87.6676911 78.5211394,83.9842623 76.372024,79.9928115 C75.4514327,77.5366576 75.1451036,74.466064 75.7593657,71.7034924 C77.2926152,66.7911845 79.7480597,62.4933162 80.9765839,56.9665687 C81.590846,53.5895575 83.7383576,50.8269859 86.8080643,48.9852715 C91.4110204,46.5291175 95.7092513,44.3793812 99.6979453,41.310392 C103.994572,38.2397985 108.905461,37.6253589 113.816351,39.1606557 C118.112978,40.3895348 122.409605,39.1606557 126.707835,39.7750952 C129.775938,40.0815129 133.151974,41.310392 135.607419,43.458524 C138.983454,46.8355352 142.053161,49.9061287 146.349788,52.3622827 C149.111562,54.512019 150.954348,57.2745906 151.567006,60.6516018 C152.487597,63.7221953 152.181268,66.7911845 153.10186,69.861778 C153.409793,71.3970748 154.330384,72.6243496 154.636713,74.1596464 C155.250975,77.5366576 154.943042,80.9136687 153.716122,83.9842623 C153.409793,84.9051195 152.487597,85.8259767 151.874939,86.7468339 C150.340086,88.8965702 148.498903,91.3527241 147.884641,93.8088781 C146.349788,98.4131641 142.667423,102.096593 138.677125,104.246329 C132.539316,105.473604 127.320494,108.85222 121.489013,110.385912 C119.033569,111.306769 116.578124,112.229231 113.816351,111.921209 C112.895759,111.614791 112.281497,111.921209 111.360906,111.614791 C109.519724,111.000352 107.98487,110.693934 106.143688,110.079494" id="Fill-9" fill="#1D1C1B"></path>
            <path d="M137.435931,83.3104643 C137.435931,95.4067418 127.614153,105.212106 115.498915,105.212106 C103.383678,105.212106 93.5619,95.4067418 93.5619,83.3104643 C93.5619,71.2141868 103.383678,61.4088223 115.498915,61.4088223 C127.614153,61.4088223 137.435931,71.2141868 137.435931,83.3104643" id="Fill-11" fill="#ED8826"></path>
            <path d="M137.435931,91.599623 C137.435931,103.6959 127.614153,113.501265 115.498915,113.501265 C103.383678,113.501265 93.5619,103.6959 93.5619,91.599623 C93.5619,79.5033454 103.383678,69.697981 115.498915,69.697981 C127.614153,69.697981 137.435931,79.5033454 137.435931,91.599623" id="Fill-13" fill="#8B5740"></path>
            <path d="M112.639469,96.1018767 C112.639469,94.9451902 113.576099,94.0082902 114.732451,94.0082902 L116.276927,94.0082902 C117.434884,94.0082902 118.369909,94.9451902 118.369909,96.1018767 L112.639469,96.1018767 Z" id="Fill-15" fill="#72371C"></path>
            <path d="M132.30564,89.604058 C132.30564,82.1746335 128.87347,75.5473493 123.510305,71.2093739 C131.665716,74.4018928 137.442667,82.3254359 137.442667,91.5997834 C137.442667,103.696061 127.620889,113.501425 115.505651,113.501425 C114.089481,113.501425 112.705386,113.361853 111.362991,113.105168 C123.152653,111.738321 132.30564,101.742047 132.30564,89.604058" id="Fill-17" fill="#764331"></path>
            <path d="M105.077149,89.1668915 C105.077149,87.9460338 104.08599,86.9545882 102.865485,86.9545882 C101.643376,86.9545882 100.653821,87.9460338 100.653821,89.1668915 C100.653821,90.3877492 101.643376,91.3791948 102.865485,91.3791948 C104.08599,91.3791948 105.077149,90.3877492 105.077149,89.1668915" id="Fill-19" fill="#13110D"></path>
            <path d="M99.5868008,83.4582186 L103.495304,80.838428" id="Fill-21" fill="#72371C"></path>
            <path d="M99.7434937,84.3660811 C99.3970692,84.4254395 99.029795,84.2826585 98.8212987,83.971428 C98.5390268,83.5478979 98.651294,82.9767739 99.0747018,82.6928162 L102.983205,80.0730256 C103.405009,79.7890679 103.977572,79.9029718 104.259844,80.3248977 C104.543719,80.7484278 104.431452,81.3195518 104.008044,81.6035095 L100.099541,84.2233001 C99.9888778,84.297097 99.8669877,84.3452254 99.7434937,84.3660811" id="Fill-23" fill="#72371C"></path>
            <path d="M130.617622,89.1668915 C130.617622,87.9460338 129.626462,86.9545882 128.404354,86.9545882 C127.183848,86.9545882 126.194293,87.9460338 126.194293,89.1668915 C126.194293,90.3877492 127.183848,91.3791948 128.404354,91.3791948 C129.626462,91.3791948 130.617622,90.3877492 130.617622,89.1668915" id="Fill-25" fill="#13110D"></path>
            <path d="M126.49549,80.3362881 L130.450504,82.8854903" id="Fill-27" fill="#72371C"></path>
            <path d="M125.897426,81.0368775 C125.552606,80.7416898 125.469207,80.2299242 125.721007,79.8368754 C125.996863,79.4101367 126.566218,79.2866071 126.994438,79.5625434 L130.949451,82.1101414 C131.379275,82.3892862 131.501165,82.9555974 131.225308,83.3839404 C130.949451,83.8122833 130.380096,83.9342087 129.953481,83.6598767 L125.996863,81.1106744 C125.961579,81.0882145 125.927899,81.0641503 125.897426,81.0368775" id="Fill-29" fill="#72371C"></path>
            <path d="M116.073082,104.255794 C118.899009,104.308736 121.232563,102.059534 121.285489,99.2327912 L111.05153,99.0418818 C110.998604,101.868625 113.247156,104.202853 116.073082,104.255794" id="Fill-31" fill="#FEFEFE"></path>
            <mask id="mask-2" fill="white">
                <use xlink:href="#path-1"></use>
            </mask>
            <g id="Clip-34"></g>
            <polygon id="Fill-33" fill="#8B5740" mask="url(#mask-2)" points="106.33791 179.721165 114.793236 179.721165 114.793236 153.022723 106.33791 153.022723"></polygon>
            <polygon id="Fill-35" fill="#8B5740" mask="url(#mask-2)" points="116.814046 181.309403 125.269372 181.309403 125.269372 154.610961 116.814046 154.610961"></polygon>
            <path d="M105.604645,131.920976 L107.947822,124.464278 C108.903697,121.419353 107.21167,118.175498 104.169228,117.219346 C101.125182,116.263195 97.8838674,117.955711 96.9263883,120.999032 L94.583211,128.455729 L105.604645,131.920976 Z" id="Fill-36" fill="#6A3287" mask="url(#mask-2)"></path>
            <path d="M138.306643,124.019572 L132.810361,118.462343 C130.56662,116.19389 126.909916,116.174639 124.642118,118.417423 C122.374321,120.661812 122.355075,124.321177 124.598815,126.58963 L130.093494,132.146859 L138.306643,124.019572 Z" id="Fill-37" fill="#6A3287" mask="url(#mask-2)"></path>
            <path d="M128.8778,123.294116 C128.8778,118.755606 124.502586,115.059342 119.027154,114.882872 L119.027154,114.879663 L111.490815,114.879663 L111.490815,114.884476 C106.026609,115.072177 101.664226,118.763627 101.664226,123.294116 C101.664226,123.294116 98.3667768,147.167419 98.3667768,152.362081 C98.3667768,156.087221 98.9970771,159.611826 100.118145,162.744986 L131.04135,162.744986 C132.164022,159.611826 132.794323,156.087221 132.794323,152.362081 C132.794323,146.670092 128.8778,123.294116 128.8778,123.294116" id="Fill-38" fill="#6A3287" mask="url(#mask-2)"></path>
            <polygon id="Fill-39" fill="#4A277A" mask="url(#mask-2)" points="99.7943347 137.518953 130.589234 137.518953 130.589234 134.902371 99.7943347 134.902371"></polygon>
            <path d="M122.233987,115.681322 C122.233987,114.056186 120.917252,112.739071 119.290981,112.739071 L111.868514,112.739071 C110.245451,112.739071 108.927113,114.056186 108.927113,115.681322 L122.233987,115.681322 Z" id="Fill-40" fill="#4A277A" mask="url(#mask-2)"></path>
            <path d="M114.922664,179.720844 L105.405611,179.720844 C103.312629,179.720844 101.61579,181.418173 101.61579,183.51176 L114.922664,183.51176 L114.922664,179.720844 Z" id="Fill-41" fill="#ED8826" mask="url(#mask-2)"></path>
            <path d="M116.814206,179.720844 L126.331259,179.720844 C128.424241,179.720844 130.12108,181.418173 130.12108,183.51176 L116.814206,183.51176 L116.814206,179.720844 Z" id="Fill-42" fill="#ED8826" mask="url(#mask-2)"></path>
            <path d="M124.88205,180.767958 C124.750537,180.909135 124.497133,180.885071 124.314298,180.715017 C124.131463,180.546568 124.089764,180.294695 124.221277,180.151914 L125.408102,178.874907 C125.539615,178.73373 125.794622,178.757794 125.977457,178.927848 C126.160292,179.096298 126.200388,179.34817 126.070478,179.489346 L124.88205,180.767958 Z" id="Fill-43" fill="#FEFEFE" mask="url(#mask-2)"></path>
            <path d="M125.855888,181.092504 C125.724375,181.233681 125.470971,181.209617 125.288136,181.039563 C125.105301,180.871114 125.063602,180.619241 125.195115,180.47646 L126.38194,179.199453 C126.513453,179.058276 126.76846,179.08234 126.951295,179.252394 C127.13413,179.420844 127.174226,179.672716 127.044316,179.813892 L125.855888,181.092504 Z" id="Fill-44" fill="#FEFEFE" mask="url(#mask-2)"></path>
            <path d="M107.010872,180.767958 C107.142385,180.909135 107.395788,180.885071 107.578623,180.715017 C107.761458,180.546568 107.803158,180.294695 107.671645,180.151914 L106.48482,178.874907 C106.353307,178.73373 106.0983,178.757794 105.915465,178.927848 C105.732629,179.096298 105.692534,179.34817 105.822443,179.489346 L107.010872,180.767958 Z" id="Fill-45" fill="#FEFEFE" mask="url(#mask-2)"></path>
            <path d="M106.037034,181.092504 C106.168547,181.233681 106.42195,181.209617 106.604785,181.039563 C106.78762,180.871114 106.82932,180.619241 106.697807,180.47646 L105.510982,179.199453 C105.379469,179.058276 105.124462,179.08234 104.941627,179.252394 C104.758791,179.420844 104.718696,179.672716 104.848605,179.813892 L106.037034,181.092504 Z" id="Fill-46" fill="#FEFEFE" mask="url(#mask-2)"></path>
            <path d="M162.478258,113.902816 C162.046831,112.094792 160.901705,111.247732 159.801486,111.510834 L154.776726,112.710836 C153.676507,112.973938 153.038188,114.244528 153.469615,116.054157 L162.478258,113.902816 Z" id="Fill-47" fill="#E7534F" mask="url(#mask-2)"></path>
            <path d="M150.5226,103.952746 C148.715098,104.384297 147.868282,105.529754 148.131308,106.630291 L149.330964,111.656502 C149.59399,112.757039 150.864213,113.395543 152.67332,112.963991 L150.5226,103.952746 Z" id="Fill-48" fill="#F6B7B2" mask="url(#mask-2)"></path>
            <path d="M140.798174,116.048863 C141.229601,117.858492 142.374726,118.703948 143.474945,118.440846 L148.499705,117.240844 C149.599924,116.977742 150.238243,115.707151 149.806817,113.897522 L140.798174,116.048863 Z" id="Fill-49" fill="#E7534F" mask="url(#mask-2)"></path>
            <path d="M152.753831,125.998934 C154.561333,125.567382 155.408149,124.421925 155.145123,123.321389 L153.945468,118.295177 C153.682442,117.19464 152.412218,116.556137 150.603112,116.987688 L152.753831,125.998934 Z" id="Fill-50" fill="#F6B7B2" mask="url(#mask-2)"></path>
            <path d="M159.326436,121.514648 C160.253442,120.005019 160.052965,118.663841 159.133977,118.099134 L154.939995,115.521055 C154.022611,114.956348 152.734746,115.383086 151.807739,116.892715 L159.326436,121.514648 Z" id="Fill-51" fill="#EF817C" mask="url(#mask-2)"></path>
            <path d="M157.973134,106.752055 C156.463942,105.824781 155.123151,106.025316 154.558607,106.944569 L151.981272,111.139764 C151.416729,112.057412 151.843344,113.34565 153.352536,114.272924 L157.973134,106.752055 Z" id="Fill-52" fill="#B1423C" mask="url(#mask-2)"></path>
            <path d="M143.272543,108.348154 C142.345537,109.857783 142.546014,111.198962 143.465002,111.763668 L147.658984,114.341748 C148.576368,114.906455 149.864233,114.479716 150.79124,112.970088 L143.272543,108.348154 Z" id="Fill-53" fill="#EF817C" mask="url(#mask-2)"></path>
            <path d="M144.626005,123.110747 C146.135197,124.038021 147.475989,123.837486 148.040532,122.918233 L150.617867,118.723039 C151.182411,117.80539 150.755795,116.517152 149.246603,115.589878 L144.626005,123.110747 Z" id="Fill-54" fill="#B1423C" mask="url(#mask-2)"></path>
            <path d="M153.949958,114.367256 C154.288364,115.787044 153.419095,117.113785 152.046227,117.442662 C150.673359,117.769935 149.306907,116.975816 148.968501,115.557632 C148.630096,114.137844 149.48493,112.793456 150.857798,112.466183 C152.230666,112.13891 153.611553,112.949071 153.949958,114.367256 M152.674923,114.681695 C152.479258,113.861907 151.796031,113.42073 151.124032,113.581158 C150.452032,113.741586 150.041455,114.444261 150.237121,115.264049 C150.427975,116.066189 151.107994,116.488115 151.779993,116.327687 C152.451993,116.167259 152.867381,115.483835 152.674923,114.681695" id="Fill-55" fill="#B1423C" mask="url(#mask-2)"></path>
            <path d="M31.8832499,44.1616803 L29.9650842,44.1616803 C29.0781731,44.1616803 28.3516438,43.4349411 28.3516438,42.5477738 L28.3516438,42.3504472 C28.3516438,41.4616757 29.0781731,40.7365407 29.9650842,40.7365407 L31.8832499,40.7365407 C32.7701609,40.7365407 33.4966903,41.4616757 33.4966903,42.3504472 L33.4966903,42.5477738 C33.4966903,43.4349411 32.7701609,44.1616803 31.8832499,44.1616803" id="Fill-56" fill="#F3A521" mask="url(#mask-2)"></path>
            <polygon id="Stroke-57" fill="#4A277A" mask="url(#mask-2)" points="29.3185946 40.7355782 28.3185946 40.7355782 28.3185946 111.98169 29.3185946 111.98169"></polygon>
            <path d="M82.1141717,158.577064 C81.6490646,158.577064 81.1759384,158.472786 80.731681,158.251395 C79.1952239,157.486154 78.569735,155.618771 79.334756,154.08187 C82.2504961,148.223036 81.0813132,137.304301 80.3852564,133.59039 C80.0693044,131.902687 81.1807499,130.279155 82.8679659,129.961507 C84.553578,129.647068 86.179849,130.75723 86.495801,132.444934 C86.6128797,133.073812 89.3313503,147.945495 84.8983988,156.852463 C84.3563085,157.944978 83.2560897,158.577064 82.1141717,158.577064" id="Fill-58" fill="#F3BD89" mask="url(#mask-2)"></path>
            <path d="M47.166187,129.526587 C46.3674859,129.526587 42.3611498,129.409474 38.2152816,127.181128 C34.0309219,124.931926 29.0061617,120.120688 28.8361571,109.968799 C28.8072883,108.250614 30.1753446,106.835638 31.8914293,106.806761 C33.5978911,106.768259 35.0220811,108.146336 35.0525536,109.864521 C35.1471788,115.503568 37.1391201,119.453307 40.9738477,121.601439 C43.9890246,123.292351 47.1244877,123.308394 47.1870366,123.308394 L47.1870366,123.308394 L47.2367549,123.308394 C48.9303862,123.308394 50.3080654,124.66722 50.3353303,126.369362 C50.3625952,128.085942 48.9833122,129.499314 47.2672275,129.526587 L47.166187,129.526587" id="Fill-59" fill="#F3BD89" mask="url(#mask-2)"></path>
            <path d="M72.3554235,100.81766 L63.4093296,100.81766 C52.7856426,100.81766 44.0945557,92.1224581 44.0945557,81.4973061 L44.0945557,79.1245747 C44.0945557,68.4978185 52.7856426,59.8026163 63.4093296,59.8026163 L72.3554235,59.8026163 C82.9791104,59.8026163 91.6701973,68.4978185 91.6701973,79.1229705 L91.6701973,81.4973061 C91.6701973,92.1240624 82.9791104,100.81766 72.3554235,100.81766" id="Fill-60" fill="#72371C" mask="url(#mask-2)"></path>
            <path d="M91.8774105,94.9923561 C91.8774105,108.16671 81.179948,118.844804 67.9853416,118.844804 C54.7907353,118.844804 44.0932727,108.16671 44.0932727,94.9923561 C44.0932727,81.8196061 54.7907353,71.1399086 67.9853416,71.1399086 C81.179948,71.1399086 91.8774105,81.8196061 91.8774105,94.9923561" id="Fill-61" fill="#F3BD89" mask="url(#mask-2)"></path>
            <path d="M64.8716904,99.8958404 C64.8716904,98.63648 65.8917183,97.6161574 67.150715,97.6161574 L68.8331195,97.6161574 C70.0937201,97.6161574 71.113748,98.63648 71.113748,99.8958404 L64.8716904,99.8958404 Z" id="Fill-62" fill="#F29353" mask="url(#mask-2)"></path>
            <path d="M86.2900312,92.8190368 C86.2900312,84.7270443 82.5531365,77.5109891 76.7104294,72.7847777 C85.5923706,76.2628586 91.8857504,84.8906809 91.8857504,94.9928374 C91.8857504,108.165587 81.1882878,118.845285 67.9936815,118.845285 C66.4508091,118.845285 64.9432206,118.694482 63.4805391,118.413733 C76.3223056,116.926565 86.2900312,106.038311 86.2900312,92.8190368" id="Fill-63" fill="#EAAE79" mask="url(#mask-2)"></path>
            <path d="M57.2572461,92.0321371 C57.2572461,90.7021883 56.177877,89.6241115 54.8483123,89.6241115 C53.5187476,89.6241115 52.4393785,90.7021883 52.4393785,92.0321371 C52.4393785,93.3620859 53.5187476,94.4417669 54.8483123,94.4417669 C56.177877,94.4417669 57.2572461,93.3620859 57.2572461,92.0321371" id="Fill-64" fill="#13110D" mask="url(#mask-2)"></path>
            <path d="M51.7673789,86.3581166 L55.0455818,82.4180029" id="Fill-65" fill="#72371C" mask="url(#mask-2)"></path>
            <path d="M52.2103533,87.2582786 C51.8655326,87.4267281 51.4405209,87.3898296 51.1261727,87.1283318 C50.6995573,86.7753901 50.6418198,86.1416991 50.9962635,85.7165647 L54.2744664,81.776451 C54.6289101,81.3497123 55.2608142,81.2919581 55.6874296,81.6465042 C56.1124412,82.0010503 56.1701787,82.6331369 55.815735,83.0598756 L52.5375321,86.9999894 C52.4461145,87.1106847 52.3322434,87.1973159 52.2103533,87.2582786" id="Fill-66" fill="#72371C" mask="url(#mask-2)"></path>
            <path d="M84.4515752,92.3430467 C84.4515752,91.0130979 83.3722061,89.9350212 82.0426414,89.9350212 C80.7130767,89.9350212 79.6337076,91.0130979 79.6337076,92.3430467 C79.6337076,93.6729955 80.7130767,94.7526765 82.0426414,94.7526765 C83.3722061,94.7526765 84.4515752,93.6729955 84.4515752,92.3430467" id="Fill-67" fill="#13110D" mask="url(#mask-2)"></path>
            <path d="M79.9621694,82.7255435 L84.2700231,85.5009494" id="Fill-68" fill="#72371C" mask="url(#mask-2)"></path>
            <path d="M79.3108591,83.4886999 C78.933962,83.1678437 78.8441482,82.609554 79.1200048,82.1828153 C79.4183149,81.7175739 80.0389922,81.5828143 80.5057031,81.8828148 L84.8135569,84.6582206 C85.2802677,84.9614297 85.4133846,85.5790778 85.1134707,86.0443193 C84.8135569,86.511165 84.1928795,86.6443203 83.7277724,86.3459241 L79.4199187,83.5689139 C79.3814271,83.5448497 79.3445393,83.517577 79.3108591,83.4886999" id="Fill-69" fill="#72371C" mask="url(#mask-2)"></path>
            <path d="M74.1340571,83.6111065 C76.8878117,82.1736709 77.9559541,78.7758041 76.5205375,76.0228582 L73.0482726,70.0838105 C71.6112522,67.327656 68.2159706,66.2608093 65.4606121,67.6966406 L74.1340571,83.6111065 Z" id="Fill-70" fill="#EAAE79" mask="url(#mask-2)"></path>
            <path d="M75.6366736,79.1850561 C77.7312593,76.8909345 77.5692737,73.3326396 75.2758147,71.2374489 L69.9784056,66.8513451 C67.6833428,64.75455 64.1276794,64.9165824 62.0330938,67.2123082 L75.6366736,79.1850561 Z" id="Fill-71" fill="#72371C" mask="url(#mask-2)"></path>
            <path d="M68.6113116,108.776337 C71.6890373,108.834091 74.2294842,106.384354 74.2872216,103.305739 L63.142294,103.098787 C63.0845566,106.175798 65.5335858,108.718583 68.6113116,108.776337" id="Fill-72" fill="#FEFEFE" mask="url(#mask-2)"></path>
            <polygon id="Fill-73" fill="#F3BD89" mask="url(#mask-2)" points="56.6773057 179.525443 65.0235719 179.525443 65.0235719 165.062851 56.6773057 165.062851"></polygon>
            <polygon id="Fill-74" fill="#F3BD89" mask="url(#mask-2)" points="69.1293446 179.525443 77.4756108 179.525443 77.4756108 165.062851 69.1293446 165.062851"></polygon>
            <path d="M80.798881,150.972132 C80.798881,156.020803 77.1678382,159.57589 72.2152498,159.57589 L62.6003641,159.57589 C57.6477757,159.57589 53.2966189,155.932568 53.8483321,150.771596 C53.8483321,150.771596 63.2659483,147.564639 67.2738882,146.361428 L80.798881,150.972132 Z" id="Fill-75" fill="#4A277A" mask="url(#mask-2)"></path>
            <path d="M46.6901739,132.226591 C47.2418872,132.332474 47.8192615,132.354934 48.4062586,132.277928 L56.4814796,131.196643 C59.4180694,130.805198 61.4805787,128.105194 61.0876434,125.166151 C60.696312,122.228713 57.9970871,120.165608 55.0588935,120.558657 L46.9836725,121.638338 C46.5233769,121.700905 46.0871386,121.824434 45.6765613,121.99128 L46.6901739,132.226591 Z" id="Fill-76" fill="#B1423C" mask="url(#mask-2)"></path>
            <path d="M77.0518822,138.090559 C76.7664027,137.606066 76.5498873,137.07184 76.4263934,136.491091 L74.7215354,128.522628 C74.100858,125.623692 75.9468519,122.772885 78.8449501,122.152029 C81.7414445,121.531172 84.593032,123.377699 85.2137093,126.276635 L86.9185673,134.245097 C87.0164002,134.700713 87.0452689,135.151516 87.0260231,135.595902 L77.0518822,138.090559 Z" id="Fill-77" fill="#B1423C" mask="url(#mask-2)"></path>
            <path d="M80.7874938,126.009843 C80.7874938,122.315184 77.719391,119.292719 73.9696658,119.292719 L60.5809975,119.292719 C56.8312722,119.292719 53.7631694,122.315184 53.7631694,126.009843 L53.8305297,152.405075 L80.7874938,152.405075 L80.7874938,126.009843 Z" id="Fill-78" fill="#E7534F" mask="url(#mask-2)"></path>
            <polygon id="Fill-79" fill="#B1423C" mask="url(#mask-2)" points="63.3050815 118.166514 68.0684194 123.147806 64.820689 124.447273 62.1134451 118.275605"></polygon>
            <polygon id="Fill-80" fill="#B1423C" mask="url(#mask-2)" points="72.7769067 118.166514 68.0135688 123.147806 71.2612992 124.447273 73.9685431 118.275605"></polygon>
            <path d="M65.1562076,179.416191 L54.8757376,179.416191 C52.6143549,179.416191 50.7811916,181.249884 50.7811916,183.51192 L65.1562076,183.51192 L65.1562076,179.416191 Z" id="Fill-81" fill="#4A2317" mask="url(#mask-2)"></path>
            <path d="M69.0648712,179.416191 L79.3453412,179.416191 C81.6067238,179.416191 83.4398872,181.249884 83.4398872,183.51192 L69.0648712,183.51192 L69.0648712,179.416191 Z" id="Fill-82" fill="#4A2317" mask="url(#mask-2)"></path>
            <path d="M77.7809776,180.54737 C77.6398417,180.699776 77.3639851,180.674108 77.1667155,180.49122 C76.969446,180.306728 76.9245391,180.035604 77.0672788,179.883197 L78.3503328,178.501912 C78.4914687,178.349505 78.7657215,178.375173 78.9629911,178.558061 C79.1618645,178.742554 79.2051675,179.013677 79.0640316,179.166084 L77.7809776,180.54737 Z" id="Fill-83" fill="#F7A80A" mask="url(#mask-2)"></path>
            <path d="M78.8330819,180.898226 C78.6919459,181.050633 78.4160893,181.024964 78.2188198,180.842076 C78.0215502,180.657584 77.9766433,180.38646 78.1193831,180.234054 L79.4024371,178.852768 C79.543573,178.700361 79.8178258,178.72603 80.0150954,178.908918 C80.2139687,179.09341 80.2588756,179.364533 80.1161359,179.51694 L78.8330819,180.898226 Z" id="Fill-84" fill="#F7A80A" mask="url(#mask-2)"></path>
            <path d="M56.6086624,180.54737 C56.7497983,180.699776 57.0256549,180.674108 57.2229245,180.49122 C57.420194,180.306728 57.4651009,180.035604 57.3223611,179.883197 L56.0393072,178.501912 C55.8981712,178.349505 55.6239184,178.375173 55.4266489,178.558061 C55.2277755,178.742554 55.1844724,179.013677 55.3256084,179.166084 L56.6086624,180.54737 Z" id="Fill-85" fill="#F7A80A" mask="url(#mask-2)"></path>
            <path d="M55.5567185,180.898226 C55.6978544,181.050633 55.973711,181.024964 56.1709806,180.842076 C56.3682501,180.657584 56.413157,180.38646 56.2704173,180.234054 L54.9873633,178.852768 C54.8462273,178.700361 54.5719745,178.72603 54.374705,178.908918 C54.1758316,179.09341 54.1325286,179.364533 54.2736645,179.51694 L55.5567185,180.898226 Z" id="Fill-86" fill="#F7A80A" mask="url(#mask-2)"></path>
            <polygon id="Fill-87" fill="#4A277A" mask="url(#mask-2)" points="56.0566284 166.712052 65.3282972 166.712052 65.3282972 155.467647 56.0566284 155.467647"></polygon>
            <polygon id="Fill-88" fill="#4A277A" mask="url(#mask-2)" points="68.414042 166.712052 78.0978919 166.712052 78.0978919 155.467647 68.414042 155.467647"></polygon>
        </g>
        <g id="Group-100" transform="translate(1.603817, 0.567915)">
            <g id="Group-92">
                <mask id="mask-4" fill="white">
                    <use xlink:href="#path-3"></use>
                </mask>
                <g id="Clip-91"></g>
                <path d="M64.5834844,32.2009583 C64.5834844,49.9699729 50.1828073,64.3764148 32.4173211,64.3764148 C14.6534387,64.3764148 0.252761634,49.9699729 0.252761634,32.2009583 C0.252761634,14.4319438 14.6534387,0.0255018622 32.4173211,0.0255018622 C50.1828073,0.0255018622 64.5834844,14.4319438 64.5834844,32.2009583" id="Fill-90" fill="#F3A521" mask="url(#mask-4)"></path>
            </g>
            <g id="Group-95" transform="translate(28.275826, 0.000000)">
                <mask id="mask-6" fill="white">
                    <use xlink:href="#path-5"></use>
                </mask>
                <g id="Clip-94"></g>
                <path d="M4.1419762,0.0261435745 C2.74825882,0.0261435745 1.37859869,0.124004706 0.0313920152,0.297267036 C15.8546552,2.31705661 28.0869711,15.8251013 28.0869711,32.2016 C28.0869711,48.5764945 15.8546552,62.0861435 0.0313920152,64.1059331 C1.37859869,64.2775911 2.74825882,64.3754522 4.1419762,64.3754522 C21.9058586,64.3754522 36.3081395,49.9706146 36.3081395,32.2016 C36.3081395,14.4309812 21.9058586,0.0261435745 4.1419762,0.0261435745" id="Fill-93" fill="#ED8826" mask="url(#mask-6)"></path>
            </g>
            <path d="M40.5914976,27.5071535 C40.5914976,32.4788198 36.6557295,36.1911256 31.8474847,36.1911256 C27.0376361,36.1911256 23.137152,32.4788198 23.137152,27.5071535 C23.137152,22.5354871 27.0376361,18.7590101 31.8474847,18.7590101 C36.6557295,18.7590101 40.5914976,22.5354871 40.5914976,27.5071535 M36.1184507,27.5392391 C36.1184507,24.6659721 34.2018888,22.6654339 31.8474847,22.6654339 C29.4930807,22.6654339 27.5765188,24.6659721 27.5765188,27.5392391 C27.5765188,30.3483348 29.4930807,32.2863061 31.8474847,32.2863061 C34.2018888,32.2863061 36.1184507,30.3483348 36.1184507,27.5392391" id="Fill-96" fill="#ED8826"></path>
            <path d="M40.5821955,41.2892093 C40.5821955,39.1458901 38.8564879,37.8913425 36.7266183,37.8913425 L27.0010691,37.8913425 C24.8711995,37.8913425 23.1454919,39.1458901 23.1454919,41.2892093 L40.5821955,41.2892093 Z" id="Fill-98" fill="#ED8826"></path>
        </g>
    </g>
</svg>