<svg width="350" height="350" viewBox="0 0 350 350" xmlns="http://www.w3.org/2000/svg" xmlns:xlink="http://www.w3.org/1999/xlink"><title>E1D54206-58D3-4AD6-A819-8D8BD4612FD3</title><defs><path id="a" d="M.268 7h22.08V.711H.268V7z"/><path id="c" d="M.736 7h22.08V.711H.736V7z"/><path id="e" d="M21.882.216H.198V16.54h21.684V.216z"/><path id="g" d="M0 252h251.458V.216H0z"/></defs><g fill="none" fill-rule="evenodd"><path fill="#E7534F" d="M70.327 295.884h12.818V169.943H70.327zM88.736 295.884h12.818V169.943H88.736z"/><g transform="translate(49 49.784)"><path d="M57.95 112.427c0 7.753-5.932 14.04-13.25 14.04H30.494c-7.318 0-12.77-6.951-12.77-14.704l-.48-24.972c0-7.752 5.932-14.037 13.25-14.037H44.7c7.317 0 13.249 6.284 13.249 14.037v25.636z" fill="#E7534F"/><path d="M87.983 158.273a6.462 6.462 0 0 0 3.425-9.055l-17.618-33.45c-.956-1.816-2.063-5.461-2.277-7.5L69.318 87.41a6.462 6.462 0 0 0-7.103-5.751 6.462 6.462 0 0 0-5.75 7.104l2.193 20.855c.386 3.67 1.974 8.903 3.696 12.172l17.618 33.45a6.464 6.464 0 0 0 8.011 3.032" fill="#F3BD89"/><path d="M55.402 92.856a8.174 8.174 0 0 1-.91-2.474l-2.367-12.287a8.24 8.24 0 0 1 16.183-3.117l2.366 12.287c.135.701.167 1.396.124 2.077l-15.396 3.514z" fill="#5F4494"/><path d="M62.124 76.184c.7-5.629-3.404-10.816-9.12-11.527L32.6 62.12c-5.715-.71-10.963 3.314-11.663 8.943l-4.444 36.565 41.088 5.109 4.544-36.553z" fill="#44297A"/><g transform="translate(12 245)"><mask id="b" fill="#fff"><use xlink:href="#a"/></mask><path d="M22.348.711H6.558a6.289 6.289 0 0 0-6.29 6.29h22.08V.71z" fill="#ED8826" mask="url(#b)"/></g><g transform="translate(39 245)"><mask id="d" fill="#fff"><use xlink:href="#c"/></mask><path d="M.736.711h15.79a6.29 6.29 0 0 1 6.29 6.29H.736V.71z" fill="#ED8826" mask="url(#d)"/></g><path d="M95.557 252c-1.428 0-2.586-1.186-2.586-2.649v-89.496c0-.09.004-.18.013-.269.202-2.108.11-8.286-2.697-11.457-1.283-1.448-3.02-2.153-5.311-2.153-5.433 0-6.733 4.219-6.863 4.7-.351 1.418-1.755 2.263-3.14 1.904-1.383-.359-2.22-1.813-1.868-3.232.74-2.998 4.175-8.669 11.87-8.669 3.79 0 6.872 1.315 9.16 3.909 4.65 5.273 4.116 14.087 4.008 15.386v89.377c0 1.463-1.158 2.649-2.586 2.649" fill="#7A2D26"/><path d="M11.86 149.93a1.831 1.831 0 0 0 3.297-1.594l-1.33-2.749a1.832 1.832 0 0 0-3.296 1.595l1.329 2.747z" fill="#F49F6B"/><path d="M5.453 156.745a6.463 6.463 0 0 1-5.45-6.609l1.318-37.783c.128-3.689 1.347-9.02 2.835-12.4l8.452-19.194a6.462 6.462 0 1 1 11.829 5.21l-8.451 19.192c-.826 1.878-1.676 5.591-1.747 7.641l-1.317 37.784a6.463 6.463 0 0 1-7.47 6.16" fill="#F3BD89"/><path d="M26.62 89.034a8.214 8.214 0 0 0 1.33-2.277l4.484-11.681A8.24 8.24 0 0 0 17.05 69.17l-4.484 11.682a8.194 8.194 0 0 0-.487 2.023l14.542 6.159z" fill="#5F4494"/><path d="M78.767 47.189c-1.15 15.338-14.542 26.839-29.91 25.687-15.369-1.153-26.895-14.523-25.745-29.861 1.151-15.34 14.542-26.84 29.911-25.687 15.368 1.153 26.894 14.522 25.744 29.86" fill="#F3BD89"/><path d="M70.72 23.034a27.693 27.693 0 0 1 4.343 17.123c-1.15 15.338-14.542 26.84-29.91 25.686a27.825 27.825 0 0 1-17.154-7.604c4.575 7.104 12.316 12.056 21.401 12.738C64.769 72.13 78.161 60.63 79.311 45.29c.65-8.662-2.745-16.695-8.591-22.256" fill="#E8B483"/><path d="M46.713 50.526a2.661 2.661 0 0 1 2.853-2.455l1.96.147a2.662 2.662 0 0 1 2.457 2.853l-7.27-.545z" fill="#F29353"/><path d="M37.78 41.013a2.815 2.815 0 0 0-5.612-.421 2.814 2.814 0 0 0 5.611.42M67.192 43.264a2.813 2.813 0 1 0-5.61-.421 2.813 2.813 0 0 0 5.61.42" fill="#13110D"/><path d="M50.292 61.193a6.51 6.51 0 0 0 7.09-5.874l-12.964-1.216a6.512 6.512 0 0 0 5.874 7.09" fill="#FEFEFE"/><path d="M31.329 35.339l5.773-1.582M31.151 36.497a1.17 1.17 0 0 1-.132-2.287l5.773-1.583a1.17 1.17 0 1 1 .62 2.259l-5.774 1.582c-.164.045-.33.054-.487.029M62.175 35.84l5.658 1.951M61.648 36.886a1.17 1.17 0 0 1 .908-2.153l5.66 1.95a1.172 1.172 0 0 1-.764 2.215l-5.658-1.95a1 1 0 0 1-.146-.062" fill="#DFDDDD"/><path d="M62.758 8.925s-12.721-4.85-23.791.527c-8.384 3.57-14.476 11.037-14.423 21.473.016 3.133 3.68.653 3.68.653l1.109-4.697 7.444-3.34 29.397.695s7.935 6.004 8.13 6.773c.198.77-.115 4.897-.115 4.897s4.544 2.483 4.73-1.028c.755-14.118-5.538-22.562-16.161-25.953" fill="#DFDDDD"/><path d="M22.971 41.075c3.415.46 6.592-2.196 7.096-5.932l.673-3.926c.503-3.739-1.857-7.14-5.272-7.602l-2.497 17.46zM78.89 45.144c-3.446-.054-6.19-3.155-6.132-6.925l-.08-3.982c.061-3.772 2.571-6.473 6.017-6.42l.195 17.327zM39.148 70.238a6.241 6.241 0 0 0 5.545 6.865l7.62.439a6.241 6.241 0 0 0 6.866-5.546l-20.031-1.758z" fill="#DFDDDD"/><path d="M56.804 36.313a6.241 6.241 0 0 0 .344-8.818l-5.447-5.346a6.24 6.24 0 0 0-8.819-.345l13.922 14.509z" fill="#E8B483"/><g transform="translate(39)"><mask id="f" fill="#fff"><use xlink:href="#e"/></mask><path d="M21.882 2.75C20.025-.153 15.59-.633 11.98 1.677L4.19 7.1C.579 9.41-.842 13.636 1.015 16.54L21.882 2.75z" fill="#DFDDDD" mask="url(#f)"/></g><path d="M67.113 9.04c-1.195-3.233-5.424-4.648-9.445-3.16l-8.766 3.633c-4.023 1.488-6.313 5.314-5.118 8.546l23.329-9.02zM63.55 59.054c.29-3.862-2.164-7.193-5.48-7.442l-15.152-1.136c-3.316-.25-6.239 2.679-6.529 6.54l27.161 2.038zM61.18 72.341c.26-3.473-1.946-6.47-4.93-6.693l-13.627-1.023c-2.983-.223-5.612 2.41-5.872 5.884l24.429 1.832z" fill="#DFDDDD"/><path d="M55.38 69.098c2.16 3.125 6.086 4.154 8.77 2.3l12.261-8.475c2.684-1.854 3.11-5.89.95-9.016L55.38 69.098zM42.973 68.168c-2.602 2.768-6.637 3.2-9.015.966l-10.86-10.21c-2.377-2.233-2.195-6.288.407-9.056l19.468 18.3z" fill="#DFDDDD"/><path d="M84.908 140.874a1.832 1.832 0 0 1 2.612-2.566l2.14 2.177a1.83 1.83 0 1 1-2.613 2.566l-2.139-2.177z" fill="#F49F6B"/><path d="M55.595 30.938a6.242 6.242 0 0 0-1.847-8.63l-6.6-3.833a6.24 6.24 0 0 0-8.63 1.847l17.077 10.616z" fill="#DFDDDD"/><path d="M135.18 162.69h-18.757M135.18 182.822h-19.367" stroke="#513C80" stroke-width="3" stroke-linecap="round" stroke-linejoin="round"/><path stroke="#DFAB7B" stroke-width="9" stroke-linecap="round" stroke-linejoin="round" d="M183.478 119.996l-16.326 18.338-37.779.224"/><path d="M185.77 128.155l7.01-8.773c2.862-3.583 2.254-8.825-1.357-11.71-3.612-2.885-8.858-2.32-11.72 1.261l-7.01 8.774 13.076 10.448z" fill="#D54D48"/><mask id="h" fill="#fff"><use xlink:href="#g"/></mask><path fill="#F3BD89" mask="url(#h)" d="M204.906 247.538h11.445V133.242h-11.445zM228.288 247.538h11.446V133.242h-11.446z"/><path d="M216.255 244.313H201.45a5.896 5.896 0 0 0-5.896 5.896h20.701v-5.896zM228.284 244.36h14.806a5.896 5.896 0 0 1 5.895 5.896h-20.701v-5.896z" fill="#ED8826" mask="url(#h)"/><path d="M201.134 61.17c8.15 7.04 4.723 20.436-7.614 29.767l-23.035 17.422c-12.337 9.332-26.372 9.114-31.189-.484l-13.738-27.37c-4.817-9.596 1.336-25.084 13.674-34.416l1.27-.96c12.336-9.331 29.098-11.204 37.247-4.164l23.385 20.205z" fill="#DFDDDD" mask="url(#h)"/><path d="M193.618 65.412c6.742 6.825 7.792 17.495-4.082 26.475l-16.843 12.74c-13.07 9.886-22.547 4.672-27.353-2.966l-16.417-27.216c-3.675-7.965 3.69-13.338 15.563-22.32l1.22-.922c11.876-8.983 25.048-10.858 31.933-5.349l15.978 19.558z" fill="#D0CECE" mask="url(#h)"/><path d="M187.46 57.57c9.805 12.963 7.224 31.435-5.764 41.258-12.988 9.824-31.464 7.278-41.268-5.685-9.805-12.962-7.224-31.434 5.764-41.257 12.987-9.823 31.465-7.279 41.269 5.684" fill="#F3BD89" mask="url(#h)"/><path d="M187.83 57.417a29.25 29.25 0 0 0-14.854-10.372 29.268 29.268 0 0 1 9.764 8.286c9.804 12.962 7.223 31.435-5.765 41.258-7.843 5.932-17.686 7.346-26.414 4.687 9.79 5.137 22.088 4.521 31.504-2.601 12.988-9.823 15.569-28.295 5.765-41.258" fill="#E8B483" mask="url(#h)"/><path d="M164.528 82.5a2.811 2.811 0 0 1 .547-3.94l1.656-1.253a2.814 2.814 0 0 1 3.94.546l-6.143 4.647z" fill="#F29353" mask="url(#h)"/><path d="M174.491 58.737a105.82 105.82 0 0 0 10.736-9.294l-1.867-1.836c-11.028-10.847-30.146-12.088-42.483-2.757l-1.269.96c-8.945 6.766-13.392 18.406-12.229 29.41 11.232 2.703 29.82-3.404 47.112-16.483M137.114 76.13l4.223-4.709" fill="#DFDDDD" mask="url(#h)"/><path d="M137.62 77.26a1.238 1.238 0 0 1-1.428-1.956l4.224-4.71a1.235 1.235 0 0 1 1.746-.093c.51.455.552 1.238.095 1.747l-4.221 4.708c-.12.134-.262.235-.417.304" fill="#D0CECE" mask="url(#h)"/><path d="M164.699 52.564l5.754-2.626" fill="#DFDDDD" mask="url(#h)"/><path d="M165.057 53.748a1.237 1.237 0 0 1-.87-2.31l5.751-2.625a1.237 1.237 0 1 1 1.03 2.251l-5.756 2.625a1.172 1.172 0 0 1-.155.06" fill="#D0CECE" mask="url(#h)"/><path d="M147.867 82.086a3.091 3.091 0 0 1 3.671-.045 3.094 3.094 0 0 0-4.777-1.417 3.092 3.092 0 0 0 .064 4.981 3.096 3.096 0 0 1 1.042-3.519M175.176 61.432a3.093 3.093 0 0 1 3.67-.045 3.094 3.094 0 1 0-4.714 3.565 3.098 3.098 0 0 1 1.044-3.52" fill="#1A1514" mask="url(#h)"/><path d="M174.818 88.455c3.072-2.234 3.626-6.766 1.392-9.838l-11 8.323a6.88 6.88 0 0 0 9.608 1.515" fill="#251818" mask="url(#h)"/><path d="M174.93 88.367c1.778-1.4 2.61-3.182 2.69-5.064-1.778-.466-4.118.072-5.813 1.523-1.603 1.37-2.421 3.266-2.35 5.015 1.884.305 3.855-.202 5.473-1.474" fill="#DF5666" mask="url(#h)"/><path d="M158.74 84l-9.663 7.31a3.244 3.244 0 0 1-4.54-.63l-4.238-5.604a3.245 3.245 0 0 1 .63-4.54l9.664-7.309a3.244 3.244 0 0 1 4.54.63l4.238 5.603a3.244 3.244 0 0 1-.63 4.54m25.479-19.27l-9.664 7.308a3.244 3.244 0 0 1-4.54-.63l-4.237-5.603a3.245 3.245 0 0 1 .629-4.54l9.664-7.309a3.244 3.244 0 0 1 4.54.63l4.238 5.603a3.245 3.245 0 0 1-.63 4.54m-9.197-12.159l-9.663 7.31a4.985 4.985 0 0 0-.97 6.974l1.497 1.978-7.872 5.954-1.496-1.978a4.985 4.985 0 0 0-6.975-.967l-9.664 7.31a4.986 4.986 0 0 0-.967 6.974l4.238 5.603a4.986 4.986 0 0 0 6.975.968l9.664-7.31a4.984 4.984 0 0 0 .967-6.975l-1.694-2.24 7.872-5.954 1.694 2.24a4.986 4.986 0 0 0 6.976.968l9.663-7.309a4.986 4.986 0 0 0 .968-6.975l-4.238-5.603a4.986 4.986 0 0 0-6.975-.968" fill="#E7534F" mask="url(#h)"/><path d="M190.123 94.648a3.594 3.594 0 0 0-5.08.19l-6.167 6.647a3.593 3.593 0 0 0 .19 5.078l11.056-11.915z" fill="#EF817C" mask="url(#h)"/><path d="M242.15 126.183l-.003-.003a29.23 29.23 0 0 0-4.883-4.106l-28.298-23.792c-6.825-6.333-16.379-7.188-21.644-2.047l-.004-.004-6.88 7.415.007.006c-4.706 5.637-3.135 15.08 3.68 21.403l5.985 12.708 4.474 9.497c5.107 10.69 3.647 15.43 2.88 32.01l-.594 42.917h52.28c1.39-48.017 1.941-55.254 2.237-62.893.662-17.05-3.384-26.948-9.237-33.11" fill="#F6B7B2" mask="url(#h)"/><path d="M242.15 126.174v-.001l-.003-.002a29.23 29.23 0 0 0-4.883-4.106l-28.298-23.792c-3.718-3.451-8.244-5.261-12.448-5.376a21.13 21.13 0 0 1 5.178 3.623l28.297 24.353a29.377 29.377 0 0 1 4.883 4.202l.003.003c5.853 6.308 9.9 16.439 9.237 33.89-.293 7.756-.838 15.129-2.204 63.21h7.238c1.39-48.017 1.941-55.254 2.237-62.893.662-17.051-3.384-26.948-9.237-33.111" fill="#E7ADAC" mask="url(#h)"/><path d="M151.82 251.899a1.5 1.5 0 0 1-1.499-1.438l-.107-2.624c-3.083-75.523-3.083-75.523-3.083-88.827 0-5.908-1.45-8.303-2.666-9.274-1.263-1.007-2.595-.718-2.652-.706a1.707 1.707 0 0 1-.356.043h-18.599c-1.323 0-2.345.435-3.125 1.33-2.27 2.606-2.044 8.422-1.766 10.443a1.5 1.5 0 0 1 .014.259l-3.189 89.348c-.03.827-.706 1.487-1.553 1.445a1.5 1.5 0 0 1-1.445-1.553l3.184-89.224c-.14-1.152-.923-8.768 2.493-12.688 1.365-1.566 3.177-2.36 5.387-2.36h18.436c1.082-.211 3.142-.152 4.962 1.256 2.571 1.99 3.875 5.916 3.875 11.669 0 13.255 0 13.255 3.081 88.716l.107 2.623a1.5 1.5 0 0 1-1.438 1.561l-.062.001" fill="#513C80" mask="url(#h)"/><path d="M142.788 148.496c.04-2.887-1.938-5.255-4.418-5.289l-11.33-.155c-2.479-.034-4.52 2.28-4.56 5.166l20.308.278z" fill="#44297A" mask="url(#h)"/><path fill="#513C80" mask="url(#h)" d="M114.829 208.849h35.309v-3h-35.309z"/><path d="M172.17 251.899a1.5 1.5 0 0 1-1.499-1.438l-.107-2.624c-3.082-75.523-3.082-75.523-3.082-88.827 0-5.908-1.45-8.303-2.667-9.274-1.262-1.007-2.595-.718-2.65-.706-.11.025-.246.043-.357.043H143.21c-1.323 0-2.346.435-3.126 1.331-2.27 2.605-2.044 8.421-1.766 10.442a1.5 1.5 0 0 1 .014.259l-3.189 89.348a1.484 1.484 0 0 1-1.553 1.445 1.5 1.5 0 0 1-1.445-1.553l3.184-89.224c-.14-1.152-.923-8.768 2.493-12.688 1.365-1.566 3.177-2.36 5.388-2.36h18.435c1.082-.211 3.142-.152 4.963 1.256 2.571 1.99 3.875 5.916 3.875 11.669 0 13.255 0 13.255 3.08 88.716l.107 2.623a1.5 1.5 0 0 1-1.438 1.561l-.062.001" fill="#5F4494" mask="url(#h)"/><path d="M163.138 148.496c.04-2.887-1.938-5.255-4.418-5.289l-11.33-.155c-2.478-.034-4.52 2.28-4.56 5.166l20.308.278z" fill="#44297A" mask="url(#h)"/><path fill="#5F4494" mask="url(#h)" d="M135.18 208.849h35.309v-3H135.18z"/><path d="M205.905 110.858s9.579 6.214-6.16 21.094c-3.17-3.17-1.956-1.297-1.956-1.297l-6.526 9.554-4.895-8.43 17.137-21.724 2.4.803z" fill="#E7ADAC" mask="url(#h)"/><path stroke="#F3BD89" stroke-width="9" stroke-linecap="round" stroke-linejoin="round" mask="url(#h)" d="M195.554 120.317l-16.435 18.241h-37.78"/><path d="M197.788 130.655l7.58-9.371c3.093-3.825 2.474-9.455-1.382-12.574-3.857-3.119-9.492-2.546-12.585 1.279l-7.579 9.371 13.966 11.295z" fill="#D54D48" mask="url(#h)"/></g></g></svg>