<svg width="480" height="480" viewBox="0 0 480 480" xmlns="http://www.w3.org/2000/svg" xmlns:xlink="http://www.w3.org/1999/xlink"><title>C7078F17-4857-4AB6-ABB8-50A3EFB44350</title><defs><path id="a" d="M.454 298h299.005V.904H.454V298z"/><path id="c" d="M32.967 48.405V.341H.388v48.064h32.579z"/><path id="e" d="M0 .989v166.147h293.703V.99z"/><path id="g" d="M37.609.745H.074v38.053H37.61V.745z"/></defs><g fill="none" fill-rule="evenodd"><path d="M440.91 240.455c0 110.708-89.748 200.455-200.456 200.455C129.746 440.91 40 351.163 40 240.455 40 129.747 129.746 40 240.454 40c110.709 0 200.455 89.747 200.455 200.455" fill="#EEEEED"/><g transform="translate(92 93.255)"><mask id="b" fill="#fff"><use xlink:href="#a"/></mask><path d="M299.459 149.452c0 82.041-66.934 148.548-149.502 148.548C67.389 298 .454 231.493.454 149.452.454 67.412 67.389.904 149.957.904c82.568 0 149.502 66.507 149.502 148.548" fill="#F6C09A" mask="url(#b)"/></g><path d="M242.626 290.638c-18.093-.337-33.333 12.577-36.342 29.76-.506 2.89 1.78 5.523 4.716 5.503l60.695-.399c2.847-.019 5.017-2.523 4.679-5.349-2.048-17.1-15.584-29.176-33.748-29.515" fill="#FFF"/><path d="M221.683 269.305c0-8.125 6.631-14.711 14.804-14.711h10.936c8.181 0 14.807 6.586 14.807 14.71h-40.547z" fill="#EC9E6A"/><path d="M167.728 230.539c-8.131 0-15.007-5.324-17.296-12.657a17.897 17.897 0 0 0-.803 5.326c0 9.933 8.1 17.983 18.099 17.983 9.997 0 18.103-8.05 18.103-17.983 0-1.851-.288-3.644-.811-5.326-2.285 7.333-9.162 12.657-17.292 12.657" fill="#633B8F"/><path d="M305.4 320.113l40.278-42.147a5.564 5.564 0 0 1 7.832-.201l12.985 12.25a5.48 5.48 0 0 1 .202 7.783l-40.278 42.147a5.566 5.566 0 0 1-7.833.202l-12.984-12.251a5.48 5.48 0 0 1-.203-7.783" fill="#EEEEED"/><path fill="#C7C7C6" d="M320.29 309.36l15.351-16.062 16.166 15.253-15.351 16.063z"/><g transform="translate(375 151.255)"><mask id="d" fill="#fff"><use xlink:href="#c"/></mask><path d="M25.403 27.052l-3.307-1.984 2.082-3.266c4.624-7.257 2.453-16.865-4.85-21.461L8.692 17.027l-.196-.118-5.569 9.165-2.54 3.985.085.054-.067.111 5.231 3.138 7.976 5.018.107-.168 16.991 10.193c4.47-7.353 2.092-16.913-5.308-21.353" fill="#F7B400" mask="url(#d)"/></g><path d="M311.681 191.563a6.438 6.438 0 0 1-.059-7.048c1.933-3.016 5.96-3.903 8.994-1.982l28.078 17.774a6.445 6.445 0 0 1 1.994 8.936c-1.934 3.016-5.96 3.903-8.995 1.98l-28.077-17.772a6.462 6.462 0 0 1-1.935-1.888M151.33 212.227c-3.105.815-6.416-.762-7.677-3.794-1.37-3.304.214-7.088 3.538-8.45l30.775-12.61c3.35-1.365 7.136.21 8.508 3.516 1.371 3.304-.214 7.087-3.539 8.45l-30.775 12.61a6.684 6.684 0 0 1-.83.278M320.72 230.539c-8.131 0-15.007-5.324-17.297-12.657a17.897 17.897 0 0 0-.803 5.326c0 9.933 8.101 17.983 18.1 17.983 9.996 0 18.102-8.05 18.102-17.983 0-1.851-.287-3.644-.81-5.326-2.286 7.333-9.162 12.657-17.292 12.657" fill="#633B8F"/><g transform="translate(88 89.255)"><mask id="f" fill="#fff"><use xlink:href="#e"/></mask><path d="M293.703 91.631c-34.156-76.44-124.01-111.364-201.365-77.988C30.08 40.506-5.144 103.453.61 167.136l293.092-75.505z" fill="#F7B400" mask="url(#f)"/></g><path d="M377.793 172.803a153.144 153.144 0 0 0-3.588-6.53L168.48 108.626c-34.154 18.299-58.83 48.043-71.288 82.26l280.602-18.082z" fill="#F19800"/><g transform="translate(364 79.255)"><mask id="h" fill="#fff"><use xlink:href="#g"/></mask><path d="M14.828 1.338l6.923 5.96c.604.52 1.428.71 2.201.512l8.866-2.288c1.949-.503 3.632 1.432 2.849 3.275l-3.566 8.384a2.398 2.398 0 0 0 .191 2.238l4.93 7.67c1.083 1.687-.249 3.876-2.255 3.705l-9.127-.778a2.437 2.437 0 0 0-2.084.87l-5.819 7.03c-1.279 1.545-3.785.962-4.242-.986l-2.075-8.865a2.42 2.42 0 0 0-1.478-1.7l-8.526-3.327c-1.874-.731-2.091-3.28-.367-4.313l7.844-4.701a2.408 2.408 0 0 0 1.17-1.921l.55-9.086c.121-1.997 2.493-2.99 4.015-1.68" fill="#E46454" mask="url(#h)"/></g><path d="M336.05 174.508a1.19 1.19 0 0 1-1.116-1.626l3.97-10.077c.082-.207.223-.388.403-.52l10.392-7.654-6.18-13.821c-.27-.6.003-1.305.607-1.572l13.454-5.942-6.446-14.408a1.19 1.19 0 0 1 .608-1.572l14.168-6.256a1.202 1.202 0 0 1 1.582.605 1.19 1.19 0 0 1-.608 1.572l-13.072 5.772 6.445 14.408c.13.288.14.616.024.91a1.195 1.195 0 0 1-.632.662l-13.454 5.942 6.086 13.605c.227.509.07 1.109-.382 1.439l-10.888 8.019-3.846 9.758c-.184.47-.639.756-1.116.756" fill="#7D7D7C"/><path d="M400.403 178.307l-3.307-1.984 2.082-3.266c4.624-7.257 2.453-16.865-4.85-21.461l-10.635 16.686-.196-.118-4.393 7.229a153.436 153.436 0 0 0-4.898-9.118v-.001c-27.556-47.343-77.976-75.342-130.9-76.01v300.974c81.945-.721 148.153-66.938 148.153-148.531 0-20.944-4.372-40.871-12.243-58.942l1.421.852 7.976 5.018.107-.168 16.991 10.193c4.47-7.353 2.092-16.913-5.308-21.353" style="mix-blend-mode:multiply" fill-opacity=".5" fill="#D4D4D4" opacity=".5"/></g></svg>