<svg width="500" height="500" viewBox="0 0 500 500" xmlns="http://www.w3.org/2000/svg" xmlns:xlink="http://www.w3.org/1999/xlink"><title>C8F331D8-B995-4CC0-8FC9-93852A84AD91</title><defs><path d="M.472 32.98a139.585 139.585 0 0 1 13.243-12.24C23.222 13.015 34.42 6.16 46.911.19h274.838v331.06a257.417 257.417 0 0 1-8.876 7.555c-85.63 69.573-211.284 56.35-280.651-29.543C20.516 294.768 9.795 278.93.472 262.28V32.98z" id="a"/><path d="M.765 267.088a329.19 329.19 0 0 0 9.55 12.422c66.022 81.751 183.035 97.672 267.997 39.03V.203H.765v266.885z" id="c"/><path d="M.39 333.2c71.545 68.109 184.083 74.12 262.799 10.164 35.88-29.154 67.679-71.62 87.412-117.443V54.743a129.017 129.017 0 0 0-8.768-12.251C327.91 25.25 307.803 11.436 283.865.928H5.681a226.3 226.3 0 0 0-5.29 2.341V333.2z" id="e"/><path d="M.293 320.937c71.095 50.046 169.332 49.158 240.176-8.401 24.046-19.538 46.259-45.055 64.235-73.555V.281H.293v320.656z" id="g"/><path id="i" d="M0 .648v46.305h48.172V.648z"/></defs><g fill="none" fill-rule="evenodd"><path d="M50.419 250.689c0 110.535 89.335 200.14 199.538 200.14 110.203 0 199.538-89.605 199.538-200.14 0-110.536-89.335-200.14-199.538-200.14-110.203 0-199.538 89.604-199.538 200.14" fill="#EFEEEE"/><g transform="translate(63.61 67.163)"><mask id="b" fill="#fff"><use xlink:href="#a"/></mask><path d="M307.228 404.54L56.573 432.055c-7.44.814-14.194-4.622-15.007-12.085L.56 44.139c-.889-8.149 5.031-15.543 13.153-16.434L263.514.286c8.694-.954 16.59 5.402 17.541 14.126l40.597 372.106c.976 8.933-5.514 17.044-14.424 18.023" fill="#09836A" mask="url(#b)"/></g><path d="M275.932 106.5l-138.66 15.22c-2.21.244-4.216-1.372-4.46-3.59l-1.982-18.173c-.243-2.215 1.368-4.228 3.58-4.472l138.661-15.219c2.208-.244 4.215 1.372 4.458 3.59l1.983 18.173c.24 2.219-1.368 4.228-3.58 4.472" fill="#CECDCD"/><g transform="translate(85.517 96.916)"><mask id="d" fill="#fff"><use xlink:href="#c"/></mask><path fill="#FEFEFE" mask="url(#d)" d="M278.312 350.975L39.035 377.238.765 26.469 240.042.203z"/></g><path fill="#E5E4E4" d="M302.188 173.201l-176.386 19.36-.996-9.155 176.382-19.36zM307.429 221.863l-176.386 19.36-.997-9.156 176.383-19.36zM304.872 198.117l-176.386 19.36-1-9.156 176.386-19.36zM309.96 245.362l-176.387 19.36-.996-9.156 176.382-19.36zM315.2 294.023l-176.386 19.36-.997-9.156 176.383-19.36zM312.643 270.277l-176.386 19.36-1-9.156 176.386-19.36z"/><path d="M259.78 117.124l-104.484 11.468c-1.635.181-3.122-1.017-3.302-2.66l-1.469-13.46a3.013 3.013 0 0 1 2.653-3.313l104.48-11.468a3.007 3.007 0 0 1 3.306 2.657l1.469 13.464a3.013 3.013 0 0 1-2.653 3.312" fill="#AAA9A9"/><g transform="translate(113.295 62.605)"><mask id="f" fill="#fff"><use xlink:href="#e"/></mask><path d="M258.714 448.95L11.357 399.86C4.013 398.403-.803 391.187.65 383.82L73.811 12.937C75.398 4.896 83.255-.38 91.269 1.211l246.513 48.92c8.583 1.707 14.215 10.142 12.517 18.751L277.86 436.09c-1.739 8.818-10.353 14.606-19.145 12.861" fill="#1AA487" mask="url(#f)"/></g><path d="M390.57 134.61l-136.834-27.158c-2.181-.432-3.615-2.578-3.18-4.765l3.534-17.932c.434-2.187 2.57-3.625 4.753-3.19l136.835 27.154c2.18.432 3.61 2.577 3.18 4.764l-3.538 17.936c-.43 2.187-2.57 3.622-4.75 3.19" fill="#CECDCD"/><g transform="translate(136.015 93.433)"><mask id="h" fill="#fff"><use xlink:href="#g"/></mask><path fill="#FEFEFE" mask="url(#h)" d="M236.42 393.297L.294 346.434 68.576.281l236.128 46.862z"/></g><path fill="#E5E4E4" d="M395.693 206.136L221.63 171.592l1.78-9.034 174.064 34.544zM386.154 254.137l-174.063-34.544 1.781-9.034 174.063 34.544zM390.809 230.713L216.746 196.17l1.781-9.034 174.063 34.544zM381.548 277.316l-174.063-34.544 1.781-9.034 174.063 34.544zM372.01 325.317l-174.063-34.544 1.78-9.034 174.064 34.544zM376.664 301.893l-174.063-34.544 1.782-9.034 174.063 34.544z"/><path d="M371.987 139.89l-103.106-20.464a3.01 3.01 0 0 1-2.357-3.528l2.621-13.287a3.002 3.002 0 0 1 3.517-2.36l103.11 20.46c1.614.32 2.673 1.912 2.354 3.531l-2.622 13.283a3.002 3.002 0 0 1-3.517 2.365" fill="#AAA9A9"/><path fill="#3A589F" d="M210.571 337.257l-19.208-3.504 3.584-19.76 19.208 3.503z"/><path fill="#E0445D" d="M217.858 318.172l37.812 6.896-.833 4.607-37.816-6.896zM216.524 325.53l37.812 6.896-.833 4.608-37.816-6.896zM215.111 333.324l37.812 6.896-.833 4.607-37.816-6.896zM190.865 336.504l60.724 11.074-.833 4.608-60.728-11.075zM189.444 344.343l60.724 11.075-.833 4.608-60.728-11.075z"/><path d="M334.424 349.716l8.132 18.883-4.792-1.035 29-17.74-25.104 22.954a2.961 2.961 0 0 1-4.434-.509l-.361-.526-11.566-16.988a5.257 5.257 0 0 1 1.371-7.293 5.22 5.22 0 0 1 7.271 1.376c.188.272.354.585.483.878" fill="#F1AA27"/><g><path d="M110.135 47.764l3.143 6.384a2.42 2.42 0 0 0 1.826 1.33l7.024 1.024c1.99.292 2.785 2.744 1.344 4.155l-5.083 4.966c-.57.56-.83 1.365-.698 2.156l1.201 7.017c.34 1.989-1.743 3.504-3.52 2.567l-6.285-3.312a2.398 2.398 0 0 0-2.257 0l-6.281 3.312c-1.782.937-3.865-.578-3.525-2.567l1.202-7.017a2.438 2.438 0 0 0-.698-2.156l-5.083-4.966c-1.441-1.41-.646-3.863 1.347-4.155l7.02-1.024a2.43 2.43 0 0 0 1.83-1.33l3.14-6.384c.891-1.811 3.464-1.811 4.353 0M37.557 123.836l2.806 5.7c.316.642.927 1.087 1.632 1.188l6.27.916c1.778.258 2.49 2.452 1.202 3.71l-4.538 4.436a2.176 2.176 0 0 0-.622 1.926l1.07 6.265c.305 1.776-1.556 3.131-3.146 2.292l-5.608-2.96a2.174 2.174 0 0 0-2.017 0l-5.611 2.96c-1.59.84-3.448-.516-3.146-2.292l1.073-6.265a2.188 2.188 0 0 0-.625-1.926l-4.538-4.437c-1.288-1.257-.576-3.451 1.201-3.709l6.271-.916a2.154 2.154 0 0 0 1.632-1.187l2.805-5.701c.796-1.616 3.094-1.616 3.89 0" fill="#F1AA27"/><g transform="translate(15 38.226)"><mask id="j" fill="#fff"><use xlink:href="#i"/></mask><path d="M27.312 2.66l4.656 9.462a3.6 3.6 0 0 0 2.708 1.974l10.41 1.515c2.951.432 4.132 4.068 1.997 6.158l-7.535 7.365a3.613 3.613 0 0 0-1.035 3.194l1.778 10.4c.503 2.945-2.58 5.195-5.219 3.802l-9.312-4.91a3.6 3.6 0 0 0-3.347 0L13.1 46.53c-2.638 1.393-5.725-.857-5.222-3.803L9.66 32.328a3.623 3.623 0 0 0-1.035-3.194L1.09 21.77c-2.135-2.09-.958-5.726 1.993-6.158l10.413-1.515a3.6 3.6 0 0 0 2.709-1.974l4.656-9.463c1.32-2.681 5.132-2.681 6.451 0" fill="#E46555" mask="url(#j)"/></g></g></g></svg>