<svg width="350" height="350" viewBox="0 0 350 350" xmlns="http://www.w3.org/2000/svg" xmlns:xlink="http://www.w3.org/1999/xlink"><title>DD879E69-62D6-4620-8317-EFABB027D7AD</title><defs><path id="a" d="M51.163.166H.938v48.49h50.225V.166z"/><path id="c" d="M0 251.834h273.064V1H0z"/></defs><g transform="translate(38 49)" fill="none" fill-rule="evenodd"><g transform="translate(118 .834)"><mask id="b" fill="#fff"><use xlink:href="#a"/></mask><path d="M26.918.166C13.528.166 2.673 11.02 2.673 24.41c0 3.347.679 6.536 1.905 9.437a24.242 24.242 0 0 0 2.102 3.89L.938 43.74l9.575-1.483a24.155 24.155 0 0 0 16.405 6.399c13.39 0 24.245-10.855 24.245-24.245S40.308.166 26.918.166" fill="#C2CAD0" mask="url(#b)"/></g><path d="M109.889 55.83h.417c3.087 0 5.589 1.82 5.589 4.925h-6.006V55.83z" fill="#ED8826"/><path d="M91.34 59.484c0-5.68 4.498-9.994 9.993-9.994 5.496 0 9.953 4.315 9.953 9.994 0 5.68-4.457 9.92-9.953 9.92-5.495 0-9.992-4.24-9.992-9.92" fill="#FBDBD8"/><path d="M111.286 60.726c0 5.334-4.297 11.39-9.596 11.39H67.884c-5.3 0-9.596-6.056-9.596-11.39h52.998z" fill="#FBDBD8"/><path d="M88.546 60.488c0 3.573-2.878 7.63-6.428 7.63H64.781c-3.55 0-6.428-4.057-6.428-7.63h30.193z" fill="#EF817C"/><path d="M105.838 70.003c0 4.44-3.576 9.481-7.987 9.481H71.724c-4.413 0-7.989-5.041-7.989-9.481h42.103z" fill="#FBDBD8"/><mask id="d" fill="#fff"><use xlink:href="#c"/></mask><path fill="#ED8826" mask="url(#d)" d="M87.629 91.125h1.835V79.484h-1.835zM81.914 91.125h1.835V79.484h-1.835z"/><path d="M102.018 57.332a1.905 1.905 0 1 0 3.81 0 1.905 1.905 0 0 0-3.81 0" fill="#1D1C1B" mask="url(#d)"/><path d="M225.17 209.543s48.103-11.204 37.625-53.27c0 0-2.083 36.868-44.623 36.087l6.999 17.183z" fill="#ED8826" mask="url(#d)"/><path d="M138.677 140.118H131c-6.634 0-12.063-5.428-12.063-12.063V95.877c0-10.856 8.883-19.738 19.739-19.738h21.11l-9.047 51.916c0 6.635-5.428 12.063-12.063 12.063M253.326 140.118h7.676c6.633 0 12.063-5.428 12.063-12.063V95.877c0-10.856-8.883-19.738-19.74-19.738h-21.11l9.047 51.916c0 6.635 5.428 12.063 12.064 12.063" fill="#6A3287" mask="url(#d)"/><path d="M245.402 241.631h-1.836c5.176-5.558 8.377-12.977 8.377-21.125 0-17.099-13.99-31.088-31.088-31.088h-50.54c-17.099 0-31.088 13.989-31.088 31.088 0 8.149 3.202 15.569 8.38 21.128-6.224.019-11.26 3.691-11.26 9.96H256.707c0-6.284-5.062-9.963-11.305-9.963" fill="#D97428" mask="url(#d)"/><path d="M247.813 111.622c0-28.414-23.034-51.447-51.447-51.447-28.414 0-51.448 23.033-51.448 51.447v6.254l27.399 125.182c-1.464.752-2.481 2.261-2.481 4.012a4.536 4.536 0 0 0 4.523 4.523h6.032c.225 0 .44-.035.657-.067 1.206-.082 2.502-.23 3.867-.388V204.83c.223.01.44.034.666.034h21.91v46.274c1.366.158 2.662.306 3.868.388.216.032.432.067.657.067h6.03a4.537 4.537 0 0 0 4.525-4.523c0-1.75-1.018-3.26-2.482-4.012l27.724-125.182v-6.254z" fill="#ED8826" mask="url(#d)"/><path d="M209.973 142.93c0 5.76-4.713 10.474-10.473 10.474h-7.704c-5.76 0-10.473-4.713-10.473-10.473" stroke="#1A1514" stroke-linecap="round" stroke-linejoin="round" mask="url(#d)"/><path d="M217.67 64.918c-6.998 7.73-11.275 17.967-11.275 29.216 0 21.074 16.611 41.94 36.492 45.984 3.06-8.382 4.925-19.281 4.925-28.412 0-20.805-12.374-38.682-30.142-46.788M144.918 111.706c0 9.257 1.846 20.37 4.868 28.412 20.848-3.254 38.705-24.224 38.705-45.984 0-11.594-4.552-22.106-11.935-29.912-18.578 7.76-31.638 26.093-31.638 47.484" fill="#F6AB17" mask="url(#d)"/><path d="M195.648 140.118v12.189" stroke="#1A1514" stroke-linecap="round" stroke-linejoin="round" mask="url(#d)"/><path d="M170.451 110.156a7.72 7.72 0 1 1-15.441 0 7.72 7.72 0 0 1 15.441 0M239.935 110.156a7.72 7.72 0 1 1-15.441 0 7.72 7.72 0 0 1 15.441 0" fill="#1D1C1B" mask="url(#d)"/><path d="M207.129 141.34h-21.705a3.483 3.483 0 0 1-3.473-3.473v-14a3.483 3.483 0 0 1 3.473-3.472h21.705a3.483 3.483 0 0 1 3.473 3.472v14a3.483 3.483 0 0 1-3.473 3.473" fill="#4A277A" mask="url(#d)"/><path fill="#E7534F" mask="url(#d)" d="M196.622 163.343h41.624l-2.526 11.44h-78.196l-2.526-11.44z"/><path d="M202.68 181.286c0 3.696-2.926 6.456-6.502 6.456-3.576 0-6.477-2.76-6.477-6.456 0-3.696 2.9-6.504 6.477-6.504 3.576 0 6.502 2.808 6.502 6.504m-3.326.024c0-2.136-1.425-3.624-3.176-3.624-1.751 0-3.176 1.488-3.176 3.624 0 2.088 1.425 3.528 3.176 3.528 1.75 0 3.176-1.44 3.176-3.528M202.673 191.532c0-1.593-1.284-2.526-2.867-2.526h-7.232c-1.583 0-2.867.933-2.867 2.526h12.966z" fill="#4A277A" mask="url(#d)"/><path d="M87.972 241.874a6.276 6.276 0 0 0 1.074-12.46c-.316-.053-31.773-5.817-44.35-26.603-6.954-11.501-6.165-21.275-5.33-31.623.75-9.294 1.526-18.902-3.674-28.905-11.748-22.596-29.14-21.544-29.902-21.473a6.275 6.275 0 0 0-5.771 6.742c.267 3.457 3.29 6.06 6.742 5.77.299-.021 10.059-.13 17.796 14.752 3.533 6.798 2.96 13.89 2.297 22.104-.914 11.326-1.95 24.16 7.102 39.129 15.563 25.725 51.417 32.212 52.935 32.474.363.064.726.093 1.08.093M84.325 93.395c-1.545 0-2.995.383-4.306 1.014-1.311-.631-2.76-1.014-4.306-1.014l-43.216-7.532v17.573c0 9.037 7.394 16.43 16.43 16.43h26.786c1.546 0 2.995-.382 4.306-1.013 1.31.63 2.76 1.014 4.306 1.014h26.785c9.037 0 16.43-7.394 16.43-16.431V85.863l-43.215 7.532z" fill="#E7534F" mask="url(#d)"/><path d="M83.676 99.323c-1.383 0-2.679.343-3.852.907-1.173-.564-2.47-.907-3.852-.907L37.31 92.585v15.72c0 8.086 6.615 14.7 14.7 14.7h23.963c1.382 0 2.68-.342 3.852-.906 1.173.564 2.47.907 3.852.907h23.963c8.085 0 14.7-6.615 14.7-14.7V92.585l-38.663 6.738zM127.67 243.54h-1.792c5.05-4.626 8.174-10.802 8.174-17.584 0-14.233-13.651-25.878-30.336-25.878H54.399c-16.685 0-30.336 11.645-30.336 25.878 0 6.784 3.124 12.96 8.177 17.588-6.073.015-10.988 3.072-10.988 8.29H138.702c0-5.231-4.94-8.293-11.032-8.293" fill="#B1423C" mask="url(#d)"/><path d="M119.969 245.469c3.98-3.551-14.588-96.371-14.588-96.371 8.456-3.647 14.417-12.073 14.417-21.827v-12.63c0-13.065-10.691-23.756-23.758-23.756H62.945c-13.066 0-23.757 10.69-23.757 23.757v12.629c0 9.65 5.84 17.99 14.153 21.699 0 0-17.441 92.949-13.46 96.5-4.785.013-6.042 2.359-6.042 6.364h92.563c0-4.015-1.632-6.365-6.433-6.365" fill="#E7534F" mask="url(#d)"/><path d="M92 135.72a4.372 4.372 0 0 1-4.358 4.358h-3.207a4.372 4.372 0 0 1-4.358-4.359M79.824 135.72a4.372 4.372 0 0 1-4.359 4.358h-3.207a4.372 4.372 0 0 1-4.358-4.359M80.076 126.508v10.146" stroke="#1A1514" stroke-linecap="round" stroke-linejoin="round" mask="url(#d)"/><path fill="#4A277A" mask="url(#d)" d="M107.647 161.372H51.194l2.147-11.71 52.039.128z"/><path d="M103.945 114.311a5.028 5.028 0 0 1-4.886-3.433 5.058 5.058 0 0 0-.19 1.5 5.028 5.028 0 0 0 5.144 4.913 5.027 5.027 0 0 0 4.912-5.141 5.024 5.024 0 0 0-.258-1.49 5.033 5.033 0 0 1-4.722 3.651M55.8 115.58a5.03 5.03 0 0 1-4.886-3.433 5.058 5.058 0 0 0-.19 1.5 5.029 5.029 0 0 0 5.144 4.913 5.028 5.028 0 0 0 4.913-5.142 5.088 5.088 0 0 0-.257-1.49 5.036 5.036 0 0 1-4.724 3.653" fill="#1A1514" mask="url(#d)"/><path d="M86.269 129.053h-12.28a2.445 2.445 0 0 1-2.437-2.438v-6.042c0-.859.703-1.563 1.563-1.563h14.029c.859 0 1.563.704 1.563 1.563v6.042a2.445 2.445 0 0 1-2.438 2.438" fill="#B1423C" mask="url(#d)"/><path fill="#D04646" mask="url(#d)" d="M96.725 200.146h-33.21l-7.078 51.688h48.326z"/><path d="M83.138 154.565c0 1.882-1.49 3.287-3.31 3.287-1.822 0-3.299-1.405-3.299-3.287a3.272 3.272 0 0 1 3.298-3.312 3.283 3.283 0 0 1 3.311 3.312m-1.694.012c0-1.087-.725-1.845-1.617-1.845-.89 0-1.617.758-1.617 1.845 0 1.064.726 1.797 1.617 1.797.892 0 1.617-.733 1.617-1.797M83.135 159.782c0-.811-.654-1.286-1.46-1.286h-3.682c-.807 0-1.46.475-1.46 1.286h6.602zM154.662 21.044c.607-5.154-9.212-6.136-9.212-6.136v11.8a8.683 8.683 0 0 0-3.92-.941c-3.525 0-6.383 2.197-6.383 4.907s2.858 4.907 6.383 4.907c3.526 0 6.875-2.198 6.875-4.908a3.37 3.37 0 0 0-.184-1.073V17.66c2.772.298 6.441 3.383 6.441 3.383" fill="#FEFEFE" mask="url(#d)"/></g></svg>