<svg width="500" height="500" viewBox="0 0 500 500" xmlns="http://www.w3.org/2000/svg" xmlns:xlink="http://www.w3.org/1999/xlink"><title>0CC4ABF6-D262-48D0-91E3-D348422CD53B</title><defs><path d="M81.853.614C55.328 11.157 31.486 24.48 12.863 39.557A140.063 140.063 0 0 0 .982 50.344v230.398c8.978 15.646 19.204 30.553 30.323 44.27 69.09 85.245 194.243 98.368 279.538 29.317 36.889-29.863 60.21-74.687 70.317-123.606v-115.33c-5.441-26.446-14.687-51.636-27.681-73.838-10.118-17.289-24-30.782-40.499-40.941H81.853z" id="a"/><path d="M.677 286.627a327.327 327.327 0 0 0 5.04 6.378c69.089 85.245 194.243 98.369 279.538 29.317 19.104-15.466 34.57-34.944 46.446-56.927V16.342a212.786 212.786 0 0 0-3.81-6.794 115.078 115.078 0 0 0-5.875-9.042H.676v286.12z" id="c"/><path id="e" d="M0 .36v45.956h47.982V.36z"/></defs><g fill="none" fill-rule="evenodd"><path d="M51.434 250.885c0 109.702 88.982 198.631 198.75 198.631 109.766 0 198.748-88.929 198.748-198.63 0-109.703-88.982-198.632-198.749-198.632S51.434 141.184 51.434 250.885" fill="#EFEEEE"/><g transform="translate(61.957 50.592)"><mask id="b" fill="#fff"><use xlink:href="#a"/></mask><path d="M368.525 419.404L106.36 478.916c-7.27 1.652-14.567-2.942-16.22-10.207L1.347 78.025c-1.802-7.933 3.216-15.896 11.154-17.697L273.83 1.006c8.497-1.928 17.03 3.44 18.96 11.932l87.968 387.055c1.975 8.7-3.528 17.434-12.233 19.41" fill="#09836A" mask="url(#b)"/></g><path d="M285.919 98.871l-144.511 32.805a4.038 4.038 0 0 1-4.818-3.032l-4.388-19.304c-.491-2.156.875-4.323 3.036-4.814l144.51-32.805a4.038 4.038 0 0 1 4.818 3.032l4.389 19.303a4.04 4.04 0 0 1-3.036 4.815" fill="#CECDCD"/><g transform="translate(87.544 82.599)"><mask id="d" fill="#fff"><use xlink:href="#c"/></mask><path fill="#FEFEFE" mask="url(#d)" d="M331.7 363.512L83.179 419.927.677 56.92 249.2.506z"/></g><path fill="#E5E4E4" d="M321.323 165.663l-183.2 41.587-2.151-9.474 183.196-41.587zM332.696 216.03l-183.2 41.588-2.151-9.474 183.196-41.587zM327.146 191.452l-183.2 41.587-2.151-9.474 183.197-41.587zM338.188 240.353l-183.2 41.587-2.151-9.474 183.196-41.587zM349.561 290.72l-183.2 41.588-2.15-9.474 183.196-41.587zM344.011 266.142l-183.2 41.587-2.151-9.474 183.197-41.587z"/><path d="M270.145 111.97L161.26 136.685a2.991 2.991 0 0 1-3.57-2.247l-3.247-14.295a2.985 2.985 0 0 1 2.248-3.567l108.882-24.72a2.992 2.992 0 0 1 3.569 2.246l3.25 14.3a2.988 2.988 0 0 1-2.247 3.566" fill="#AAA9A9"/><path d="M324.07 334.855l17.272 13.511-4.693 1.348 18.185-31.432-12.316 34.159a2.975 2.975 0 0 1-4.17 1.628l-.523-.277-19.395-10.234a5.205 5.205 0 1 1 4.863-9.208c.27.142.543.325.778.505" fill="#F1AA27"/><g><path d="M110.043 46.664l3.13 6.335a2.41 2.41 0 0 0 1.82 1.32l6.996 1.017c1.982.29 2.774 2.723 1.338 4.123l-5.063 4.929a2.433 2.433 0 0 0-.695 2.14l1.197 6.964c.339 1.974-1.733 3.477-3.507 2.547l-6.26-3.287a2.396 2.396 0 0 0-2.248 0l-6.256 3.287c-1.774.93-3.85-.573-3.51-2.547l1.196-6.965a2.414 2.414 0 0 0-.695-2.14l-5.063-4.928c-1.436-1.4-.644-3.833 1.342-4.123l6.993-1.017A2.42 2.42 0 0 0 102.58 53l3.127-6.335c.888-1.798 3.451-1.798 4.336 0M38.005 140.628l2.794 5.658a2.157 2.157 0 0 0 1.626 1.178l6.246.91c1.77.255 2.48 2.433 1.196 3.68l-4.52 4.404a2.155 2.155 0 0 0-.619 1.911l1.065 6.218c.305 1.763-1.549 3.107-3.133 2.274l-5.585-2.937a2.172 2.172 0 0 0-2.01 0l-5.588 2.937c-1.584.833-3.435-.511-3.134-2.274l1.069-6.218a2.166 2.166 0 0 0-.623-1.911l-4.52-4.404c-1.283-1.247-.574-3.425 1.197-3.68l6.246-.91a2.145 2.145 0 0 0 1.625-1.178l2.795-5.658c.792-1.604 3.081-1.604 3.873 0" fill="#F1AA27"/><g transform="translate(8 63.235)"><mask id="f" fill="#fff"><use xlink:href="#e"/></mask><path d="M27.204 2.356l4.638 9.39a3.585 3.585 0 0 0 2.697 1.96l10.369 1.504c2.94.429 4.115 4.037 1.988 6.111l-7.504 7.31a3.578 3.578 0 0 0-1.031 3.17l1.77 10.32c.502 2.925-2.569 5.157-5.197 3.775l-9.276-4.874a3.597 3.597 0 0 0-3.334 0l-9.275 4.874c-2.629 1.382-5.703-.85-5.202-3.775l1.774-10.32a3.588 3.588 0 0 0-1.03-3.17l-7.505-7.31c-2.127-2.074-.955-5.682 1.985-6.11l10.372-1.504a3.585 3.585 0 0 0 2.697-1.96l4.638-9.391c1.314-2.662 5.112-2.662 6.426 0" fill="#E46555" mask="url(#f)"/></g></g></g></svg>