<svg width="500" height="500" viewBox="0 0 500 500" xmlns="http://www.w3.org/2000/svg" xmlns:xlink="http://www.w3.org/1999/xlink"><title>B47D61DE-CF4F-4ABC-BEF0-98D3F985F485</title><defs><path id="a" d="M402.041 402.928V.594H.001v402.334h402.04z"/><path id="c" d="M0 405.453h402.041V1.587H0z"/></defs><g transform="translate(50 49)" fill="none" fill-rule="evenodd"><g transform="translate(0 .993)"><mask id="b" fill="#fff"><use xlink:href="#a"/></mask><path d="M402.041 201.76c0 111.1-89.999 201.168-201.022 201.168C90 402.928 0 312.86 0 201.76 0 90.66 90 .594 201.02.594 312.041.594 402.04 90.66 402.04 201.76" fill="#EFEEEE" mask="url(#b)"/></g><path d="M372.603 202.753c0 94.83-76.822 171.707-171.584 171.707-94.761 0-171.58-76.877-171.58-171.707S106.259 31.047 201.02 31.047c94.762 0 171.584 76.876 171.584 171.706" fill="#A4D7F3"/><path d="M308.867 202.753c0 59.604-48.285 107.924-107.846 107.924-59.56 0-107.845-48.32-107.845-107.924 0-59.603 48.284-107.923 107.845-107.923s107.846 48.32 107.846 107.923" fill="#DCEFF8"/><path d="M200.143 376.175L358.07 133.681a171.968 171.968 0 0 0-37.807-53.294L136.1 363.16c19.755 8.201 41.372 12.802 64.043 13.014M240.992 35.407L62.338 309.728c13.02 15.86 28.842 29.31 46.685 39.669L296.11 62.134a170.821 170.821 0 0 0-55.118-26.727" fill="#FEFEFE"/><path d="M264.727 405.453v-66.402c0-11.751-9.612-21.366-21.352-21.366-11.747 0-21.351 9.615-21.351 21.366v66.402h42.703z" fill="#51B39F"/><path d="M264.727 341.737v-46.572c0-11.751-9.612-21.366-21.352-21.366-11.747 0-21.351 9.615-21.351 21.366v66.403l42.703-19.831z" fill="#279F8C"/><path d="M290.145 327.014c-6.775 0-12.268-5.496-12.268-12.277v-43.302c0-6.78 5.493-12.276 12.268-12.276h12.268v55.578c0 6.78-5.492 12.277-12.268 12.277" fill="#C90934"/><path d="M300.206 355.322h-20.122a5.284 5.284 0 0 1-5.28-5.284v-35.276a5.28 5.28 0 0 1 5.28-5.28h20.122a5.28 5.28 0 0 1 5.28 5.28v35.276a5.284 5.284 0 0 1-5.28 5.284" fill="#51B39F"/><mask id="d" fill="#fff"><use xlink:href="#c"/></mask><path fill="#51B39F" mask="url(#d)" d="M270.738 405.453h38.813v-57.995h-38.813z"/><path d="M308.964 351.64h-37.638a4.715 4.715 0 0 1-4.712-4.719v-4.842c0-2.608 2.11-4.72 4.712-4.72h37.638a4.718 4.718 0 0 1 4.716 4.72v4.842a4.718 4.718 0 0 1-4.716 4.72" fill="#279F8C" mask="url(#d)"/><path d="M146.168 221.685l-15.136 2.18c-3.138.453-6.075-1.748-6.528-4.888l-5.11-35.514 26.548-3.828 5.111 35.518c.453 3.14-1.747 6.079-4.885 6.532" fill="#EF9429" mask="url(#d)"/><path d="M145.782 185.854l-24.478 3.53c-6.362.913-12.315-3.544-13.228-9.907l-7.829-54.392 47.606-6.86 7.829 54.392c.913 6.363-3.54 12.32-9.9 13.237" fill="#E46555" mask="url(#d)"/><path d="M162.258 333.504l-15.136 2.18c-3.138.453-6.075-1.748-6.528-4.889l-16.826-116.934 26.55-3.827 16.825 116.938c.453 3.14-1.747 6.079-4.885 6.532" fill="#452E88" mask="url(#d)"/><path d="M163.502 322.55l-6.481-.575a2.555 2.555 0 0 1-2.311-2.763l13.519-152.696a2.554 2.554 0 0 1 2.76-2.313l6.481.576a2.555 2.555 0 0 1 2.311 2.762l-13.519 152.696a2.554 2.554 0 0 1-2.76 2.313" fill="#5C3E8F" mask="url(#d)"/><path fill="#EF9429" mask="url(#d)" d="M181.485 148.289l-11.553-1.025-1.671 18.874 11.552 1.021z"/><path d="M179.077 154.887l-7.933-.705a4.03 4.03 0 0 1-3.663-4.374l8.383-47.982 7.764.69-.176 48.705a4.035 4.035 0 0 1-4.375 3.666" fill="#E46555" mask="url(#d)"/><path d="M173.315 405.453h-43.616c-5.453 0-9.913-4.464-9.913-9.92l-15.863-143.848c0-5.456 4.46-9.92 9.914-9.92h75.34c5.453 0 9.914 4.464 9.914 9.92l-15.863 143.848c0 5.456-4.46 9.92-9.913 9.92" fill="#279F8C" mask="url(#d)"/><path d="M130.188 333.873h-21.707c-4.597 0-8.325-3.73-8.325-8.33l-4.605-38.806c0-4.6 3.728-8.331 8.325-8.331h30.917c4.597 0 8.324 3.73 8.324 8.33l-4.604 38.806c0 4.6-3.728 8.33-8.325 8.33" fill="#E4996D" mask="url(#d)"/><path d="M101.065 339.14v46.925c0 9.025 6.013 17.46 14.885 19.079 11.52 2.104 21.653-6.81 21.653-17.971V339.14h-36.538z" fill="#E13848" mask="url(#d)"/><path d="M137.833 339.14h-36.998a2.248 2.248 0 0 1-2.247-2.247v-6.04a2.248 2.248 0 0 1 2.247-2.248h36.998a2.248 2.248 0 0 1 2.247 2.248v6.04a2.248 2.248 0 0 1-2.247 2.248" fill="#F3A700" mask="url(#d)"/><path d="M130.329 328.605s1.865 10.425-10.996 10.425h19.245v-10.425h-8.25z" fill="#F0980B" mask="url(#d)"/><path d="M229.449 405.453c.028-.55.086-1.093.086-1.65v-40c0-17.27-14.123-31.403-31.38-31.403-17.257 0-31.376 14.133-31.376 31.403v40c0 .557.054 1.1.082 1.65h62.588z" fill="#CBE8F8" mask="url(#d)"/><path d="M212.147 332.401v-43.506c0-7.702-6.298-14-13.99-14-7.696 0-13.99 6.298-13.99 14V332.4h27.98z" fill="#51B39F" mask="url(#d)"/></g></svg>