<svg width="480" height="480" viewBox="0 0 480 480" xmlns="http://www.w3.org/2000/svg" xmlns:xlink="http://www.w3.org/1999/xlink"><title>FF26BB8E-8966-449A-A369-840196AA0FC5</title><defs><path d="M93.529 275.287C38.85 252.738.44 199.569.44 137.57.441 76.257 38.008 23.579 91.724.614h53.763v274.673H93.53z" id="a"/><path d="M117.495 198.767c11.016-20.683 17.248-44.224 17.248-69.196 0-55.307-30.566-103.589-75.981-129.373H.297v198.57h117.198z" id="c"/><path d="M260.562 104.81C236.028 43.748 176.113.62 106.093.62 65.86.62 28.963 14.859.197 38.557v108.954h260.365V104.81z" id="e"/><path d="M.074 154.865c18.064 6.702 37.613 10.365 58.019 10.365 30.107 0 58.345-7.973 82.706-21.917V.337H.074v154.528z" id="g"/><path d="M12.322 186.497C4.405 167.788.017 147.156.017 125.476c0-51.421 24.68-96.952 62.596-124.898h8.482C69.252 3.87 66.58 6.73 63.315 8.95l81.298 101.812-37.254 32.251 31.045-13.078-39.583 37.498 25.607 12.405-8.435 6.66H12.322zm276.595 0c7.917-18.709 12.304-39.341 12.304-61.021 0-44.311-18.352-84.22-47.682-112.299l-40.626 20.512 10.866 18.383-55.792 41.467 26.563 92.958h7.583l9.636-7.475 55.003 7.475h22.145zm-107.797 0l-17.903-64.63-17.576 4.543-18.903 37.675h18.903l-11.628 22.412h47.107zM76.088.578l69.553 101.824L202.8 48.064l-23.284-7.862L236.805.578H76.088z" id="i"/><path d="M53.57 208.155C20.82 179.926.017 137.685.017 90.476c0-33.728 10.618-64.92 28.624-90.28h55.633l60.339 75.565-37.254 32.251 31.045-13.078-39.583 37.498 25.607 12.405-65.63 51.822c1.809 1.934 3.059 4.654 3.423 7.739l61.437-46.635-33.086 50.392H53.57zm194.102 0c32.748-28.23 53.549-70.472 53.549-117.679 0-33.738-10.639-64.924-28.662-90.28h-58.755l9.975 16.876-55.792 41.467 27.852 97.471.871-.677.087.304 14.972-11.615 58.951 8.012a22.454 22.454 0 0 0-.639 5.338c0 3.26.693 6.301 1.877 8.911h-51.627l11.795 41.872h15.546zm-18.844 0a16.597 16.597 0 0 0-.204 0h.204zm-13.162 0l-12.866-47.94-15.523 13.508-24.06-86.856-17.576 4.543-18.903 37.675h18.903l-41.025 79.07h111.05zm-112.287 0a15.339 15.339 0 0 0-.249 0h.25zM99.735.196l45.906 67.206L202.8 13.064l-23.284-7.862 7.237-5.006H99.735z" id="k"/></defs><g fill="none" fill-rule="evenodd"><path d="M440.91 240.455c0 110.708-89.748 200.455-200.456 200.455C129.746 440.91 40 351.163 40 240.455 40 129.747 129.746 40 240.454 40c110.709 0 200.455 89.747 200.455 200.455" fill="#EEEEED"/><g transform="translate(87 101.666)"><mask id="b" fill="#fff"><use xlink:href="#a"/></mask><path fill="#B5BFC3" mask="url(#b)" d="M98.842 182.75l40.32-38.195-31.623 13.322 37.948-32.852L52.197 8.198 33.224.614l-55.342 112.813 45.854 161.86 104.358-82.402z"/></g><g transform="translate(256 109.666)"><mask id="d" fill="#fff"><use xlink:href="#c"/></mask><path fill="#B5BFC3" mask="url(#d)" d="M121.955.198l-75.896 38.32 11.068 18.724L.297 99.483l28.369 99.284 15.81-12.266 90.268 12.266 25.159-105.979z"/></g><g transform="translate(133 70.666)"><mask id="f" fill="#fff"><use xlink:href="#e"/></mask><path fill="#D7DEE1" mask="url(#f)" d="M158.757 92.161l-23.718-8.008L260.562-2.666.197.62l100.337 146.891z"/></g><g transform="translate(181 237.666)"><mask id="h" fill="#fff"><use xlink:href="#g"/></mask><path fill="#D7DEE1" mask="url(#h)" d="M94.945 88.81L70.437.337 52.534 4.965 33.28 43.341h19.255L.074 144.451l26.23 42.55H140.8L110.757 75.05z"/></g><path fill="#B5BFC3" d="M128.13 373.233l83.012-63.013-51.39 78.268z"/><path d="M309.615 318.898l19.114 67.86s51.315-35.794 58.503-67.86h-77.617z" fill="#D7DEE1"/><g><g transform="translate(89 115.666)"><mask id="j" fill="#fff"><use xlink:href="#i"/></mask><path fill="#D6DEE1" mask="url(#j)" d="M404.577.578L-121 170.765l4.879 15.732L409.456 16.311z"/></g><g transform="translate(89 150.666)"><mask id="l" fill="#fff"><use xlink:href="#k"/></mask><path fill="#D6DEE1" mask="url(#l)" d="M417 .196l-525.577 170.187 11.714 37.772L428.713 37.968z"/></g></g></g></svg>