<svg width="550" height="550" viewBox="0 0 300 300" xmlns="http://www.w3.org/2000/svg"><title>HOME_Perda ou pagamento de aluguel</title><g fill="none" fill-rule="evenodd"><path d="M266.581 117.973l-106.58-88.6c-3.257-.24-6.535-.404-9.853-.404-4.395 0-8.738.228-13.024.649L34.414 109.96v116.9c22.622 40.83 65.96 68.463 115.734 68.463 50.275 0 94.007-28.176 116.433-69.685V117.973z" fill="#EFEEED"/><path d="M27.017 142.75l22.648-19.178 100.484-85.09s117.258 101.22 120.993 104.589c0 0 15.442 9.205 25.27-2.24 5.858-6.92 4.99-17.283-1.92-23.131L160.755 4.44a16.422 16.422 0 0 0-21.217 0L5.807 117.7c-6.916 5.848-7.778 16.212-1.92 23.132 5.852 6.917 16.208 7.785 23.13 1.919" fill="#E46555"/><path d="M236.208 190.156a4.244 4.244 0 0 0-6.05 0l-1.008 1.047-7.852-8.472 1.284-1.334a4.376 4.376 0 0 0 0-6.128 4.244 4.244 0 0 0-6.05 0l-6.374 6.616-22.894-22.902c2.898-5.877 4.569-12.466 4.569-19.463 0-24.368-19.75-44.12-44.108-44.12-24.362 0-44.11 19.752-44.11 44.12 0 24.369 19.748 44.12 44.11 44.12 6.611 0 12.859-1.495 18.488-4.101l40.559 40.568c5.717 5.721 15.077 5.721 20.797 0 4.697-4.699 5.473-11.826 2.455-17.403l6.184-6.42a4.376 4.376 0 0 0 0-6.128" fill="#3F1480"/><path d="M142.294 125.51a8.608 8.608 0 0 1-8.607 8.61 8.608 8.608 0 0 1-8.607-8.61 8.608 8.608 0 0 1 8.607-8.61 8.608 8.608 0 0 1 8.607 8.61" fill="#EFEEED"/><path d="M149.192 295.93c.434.004.87.006 1.305.006 50.277 0 94.006-28.178 116.435-69.687v-86.545a704.247 704.247 0 0 1 4.56 3.978s15.442 9.205 25.267-2.24c5.86-6.918 4.991-17.281-1.918-23.132L161.103 5.05a16.396 16.396 0 0 0-11.911-3.834V295.93z" fill-opacity=".5" fill="#D8D8D8" style="mix-blend-mode:multiply" opacity=".5"/><g><path d="M159.62 195.071c0 23.357-18.929 42.292-42.28 42.292-23.35 0-42.277-18.935-42.277-42.292 0-23.357 18.927-42.292 42.277-42.292 23.351 0 42.28 18.935 42.28 42.292" fill="#F6B400"/><path d="M117.34 157.856c-20.515 0-37.206 16.696-37.206 37.217 0 20.522 16.69 37.215 37.207 37.215 20.516 0 37.206-16.693 37.206-37.215 0-20.521-16.69-37.217-37.206-37.217m0 84.582c-26.111 0-47.354-21.247-47.354-47.365 0-26.118 21.243-47.367 47.354-47.367 26.11 0 47.353 21.249 47.353 47.367s-21.242 47.365-47.353 47.365" fill="#F09700"/><path d="M119.329 213.525v7.357h-7.715v-7.416c-5.485-.604-9.825-2.654-13.2-6.994l8.68-6.573c2.291 3.196 5.484 4.52 8.86 4.52 2.831 0 4.402-1.022 4.402-2.47 0-1.809-1.39-2.592-5.85-3.617-8.558-1.93-15.367-4.04-15.367-12.843 0-6.813 4.82-10.79 12.475-11.757v-4.821h7.715v4.882c5.124.664 9.463 2.773 11.995 7.115l-9.281 5.606c-1.506-2.41-3.979-3.737-6.753-3.737-2.953 0-4.278.964-4.278 2.412 0 1.567 1.447 1.867 5.667 2.713 8.315 1.688 15.55 4.4 15.55 13.626 0 6.753-4.34 11.095-12.9 11.997" fill="#FEFEFE"/></g></g></svg>