<svg width="350" height="350" viewBox="0 0 350 350" xmlns="http://www.w3.org/2000/svg" xmlns:xlink="http://www.w3.org/1999/xlink"><title>33CF4E63-FC6B-4B2C-B188-FC360542BC20</title><defs><path id="a" d="M0 247.27h255.98V.38H0z"/><path id="c" d="M.341 7.428h7.607V.033H.341v7.395z"/><path id="e" d="M.691 9.002h7.607V.241H.691z"/><path id="g" d="M.337 13.727h20.838V.122H.337v13.605z"/></defs><g fill="none" fill-rule="evenodd"><path fill="#777F88" d="M145.174 174.239h-17.468l-.107-19.73h17.467z"/><path fill="#C2CCD3" d="M146.926 174.239h-17.47l-.106-19.73h17.468z"/><g transform="translate(47 51.407)"><path d="M125.466 109.554H49.182c-2.842 0-5.166-2.384-5.166-5.3V48.657c0-2.915 2.324-5.3 5.166-5.3h76.284c2.842 0 5.166 2.385 5.166 5.3v55.597c0 2.916-2.324 5.3-5.166 5.3z" fill="#777F88"/><path d="M131.189 109.696H52.65c-2.927 0-5.32-2.39-5.32-5.312V48.67c0-2.922 2.393-5.312 5.32-5.312h78.539c2.926 0 5.319 2.39 5.319 5.312v55.715c0 2.922-2.393 5.312-5.32 5.312" fill="#C2CCD3"/><path d="M131.189 43.226H52.65c-2.927 0-5.32 2.392-5.32 5.314v47.086h89.178V48.54c0-2.922-2.393-5.314-5.32-5.314" fill="#422775"/><path d="M55.907 126.018h77.473a4.374 4.374 0 0 0-4.335-3.76H60.162a4.374 4.374 0 0 0-4.335 3.763c.027 0 .053-.003.08-.003" fill="#C2CCD3"/><mask id="b" fill="#fff"><use xlink:href="#a"/></mask><path fill="#C9C4C7" mask="url(#b)" d="M5.707 227.067H61.2V133.21H5.707z"/><path fill="#98A8AE" mask="url(#b)" d="M46.599 189.231h100.765V133.21H46.6z"/><path fill="#C2CCD3" mask="url(#b)" d="M126.923 227.067h20.441V133.21h-20.441z"/><path fill="#DCDFE2" mask="url(#b)" d="M144.934 227.067h7.786V133.21h-7.786zM39.784 227.067h27.257V133.21H39.784z"/><path fill="#56545C" mask="url(#b)" d="M0 134.264h153.507v-8.084H0z"/><path fill="#79A0C7" mask="url(#b)" d="M207.206 223.681h9.1v-35.66h-9.1z"/><path d="M255.955 107.627c-.26-4.006.524-13.427-7.678-13.427h-43.323c-4.255 0-7.704 3.437-7.704 7.677l.334 60.224H187.09c0 4.24 3.45 7.677 7.704 7.677h53.481c3.973 0 7.244-2.998 7.66-6.848h.045v-55.303h-.025z" fill="#94CCC4" mask="url(#b)"/><path fill="#687E98" mask="url(#b)" d="M205.387 197.986h12.737v-25.385h-12.737z"/><path d="M185.38 169.225c0 4.24 3.448 7.677 7.702 7.677h37.347c4.255 0 7.703-3.436 7.703-7.677H185.38z" fill="#687E98" mask="url(#b)"/><path d="M189.956 231.833c0 3.004-2.443 5.44-5.458 5.44-3.014 0-5.46-2.436-5.46-5.44 0-3.004 2.446-5.44 5.46-5.44 3.015 0 5.458 2.436 5.458 5.44M217.215 231.833c0 3.004-2.445 5.44-5.46 5.44-3.014 0-5.458-2.436-5.458-5.44 0-3.004 2.444-5.44 5.459-5.44 3.014 0 5.46 2.436 5.46 5.44M245.913 231.833c0 3.004-2.445 5.44-5.46 5.44-3.014 0-5.458-2.436-5.458-5.44 0-3.004 2.444-5.44 5.458-5.44 3.015 0 5.46 2.436 5.46 5.44" fill="#777F88" mask="url(#b)"/><path d="M247.24 230.845c0-4.24-3.449-7.677-7.704-7.677h-55.56c-4.255 0-7.704 3.437-7.704 7.677h70.968z" fill="#687E98" mask="url(#b)"/><path d="M221.157 230.845c0-4.24-3.448-7.677-7.703-7.677h-3.395c-4.255 0-7.706 3.437-7.706 7.677h18.804z" fill="#A7C9E8" mask="url(#b)"/><path d="M255.955 107.627c-.26-4.006.524-13.427-7.678-13.427h-.089s-7.705-.77-7.705 7.41v57.921s.008 2.266-2.21 2.179c-1.704-.025-62.525 0-62.525 0-4.254 0-7.704 3.437-7.704 7.678h24.33a7.68 7.68 0 0 0 2.419.39h53.482c3.972 0 7.244-2.998 7.66-6.848h.046v-55.303h-.026z" fill="#58B096" mask="url(#b)"/></g><path d="M156.135 132.837c1.017 6.877-3.86 12.504-10.836 12.504h-13.025c-6.976 0-11.966-5.642-11.086-12.538l2.504-19.666c.878-6.897 7.304-12.539 14.28-12.539h.719c6.976 0 13.514 5.627 14.53 12.504l2.914 19.735z" fill="#F3B138"/><path d="M150.352 131.37c.496 6.427-1.707 12.607-7.566 12.607h-8.31c-6.45 0-8.185-6.674-7.881-12.75l1.308-21.36c.737-5.791 4.325-5.685 10.183-5.685h.603c5.857 0 10.438 4.359 11.29 10.134l.373 17.055z" fill="#C47D11"/><path d="M151.986 117.784c0 7.304-5.955 13.225-13.299 13.225-7.343 0-13.296-5.92-13.296-13.225 0-7.304 5.953-13.225 13.296-13.225 7.344 0 13.299 5.921 13.299 13.225" fill="#F2C08A"/><path d="M136.954 120.503c0-.698.57-1.263 1.27-1.263h.935c.703 0 1.27.565 1.27 1.263h-3.475z" fill="#F19A59"/><path d="M147.002 114.687c2.218 0 4.362-.147 6.39-.42l-.172-1.165c-1.015-6.877-7.553-12.504-14.529-12.504h-.718c-5.057 0-9.825 2.966-12.4 7.225 3.305 4.014 11.653 6.864 21.429 6.864" fill="#F0AD31"/><path d="M128.827 110.788l2.8-.543M128.701 111.33a.556.556 0 0 1 .019-1.088l2.8-.542a.556.556 0 1 1 .213 1.091l-2.798.544a.583.583 0 0 1-.234-.004M145.16 109.82l2.783.62M144.966 110.341a.557.557 0 0 1 .316-1.064l2.782.619a.556.556 0 1 1-.242 1.086l-2.784-.62a.507.507 0 0 1-.072-.02" fill="#AE8E10"/><path d="M131.074 115.839c.628 0 1.158.411 1.333.978a1.392 1.392 0 0 0-1.332-1.803 1.392 1.392 0 0 0-1.332 1.803 1.394 1.394 0 0 1 1.331-.978M146.515 115.839c.628 0 1.157.411 1.334.978a1.392 1.392 0 0 0-1.334-1.803 1.392 1.392 0 0 0-1.331 1.803 1.397 1.397 0 0 1 1.331-.978" fill="#020303"/><path d="M139.036 125.427c1.713.032 3.144-1.442 3.177-3.15l-6.22.002a3.095 3.095 0 0 0 3.043 3.148" fill="#1A0C0C"/><path d="M139.1 125.426c1.019-.02 1.804-.434 2.344-1.086-.512-.65-1.5-1.09-2.504-1.03-.95.057-1.758.514-2.21 1.16.595.62 1.442.972 2.37.956" fill="#DD666D"/><path d="M134.464 119.472H129a1.461 1.461 0 0 1-1.462-1.457v-3.157a1.46 1.46 0 0 1 1.462-1.456h5.463a1.46 1.46 0 0 1 1.463 1.456v3.157c0 .803-.656 1.457-1.463 1.457m14.408 0h-5.465a1.46 1.46 0 0 1-1.46-1.457v-3.157a1.46 1.46 0 0 1 1.46-1.456h5.465a1.46 1.46 0 0 1 1.462 1.456v3.157c0 .803-.656 1.457-1.462 1.457m0-6.85h-5.465a2.243 2.243 0 0 0-2.245 2.236v1.115h-4.45v-1.115a2.244 2.244 0 0 0-2.248-2.237H129a2.243 2.243 0 0 0-2.246 2.237v3.157a2.244 2.244 0 0 0 2.246 2.238h5.463a2.245 2.245 0 0 0 2.248-2.238v-1.261h4.45v1.261a2.244 2.244 0 0 0 2.245 2.238h5.465a2.244 2.244 0 0 0 2.245-2.238v-3.157a2.243 2.243 0 0 0-2.245-2.236" fill="#3E59A2"/><g transform="translate(126.03 139.605)"><mask id="d" fill="#fff"><use xlink:href="#c"/></mask><path d="M2.963 28.504a2.609 2.609 0 0 1-2.581-3.066l2.33-13.079V2.643A2.614 2.614 0 0 1 5.33.033a2.613 2.613 0 0 1 2.618 2.61v10.176l-2.41 13.532a2.618 2.618 0 0 1-2.575 2.153" fill="#F2C08A" mask="url(#d)"/></g><g transform="translate(143.416 138.03)"><mask id="f" fill="#fff"><use xlink:href="#e"/></mask><path d="M5.677 30.079a2.617 2.617 0 0 1-2.575-2.153L.692 14.394V2.85A2.613 2.613 0 0 1 3.308.24a2.614 2.614 0 0 1 2.619 2.61v11.084l2.33 13.079a2.61 2.61 0 0 1-2.581 3.066" fill="#F2C08A" mask="url(#f)"/></g><path d="M134.977 142v-4.29a3.177 3.177 0 0 0-3.182-3.17 3.176 3.176 0 0 0-3.182 3.17V142h6.364zM149.45 142v-4.29a3.176 3.176 0 0 0-3.181-3.17 3.176 3.176 0 0 0-3.18 3.17V142h6.362z" fill="#68368A"/><g transform="translate(128.4 133.305)"><mask id="h" fill="#fff"><use xlink:href="#g"/></mask><path d="M18.804 20.862V7.88c0-4.184-2.647-7.592-5.962-7.755V.122H8.28v.004C4.974.298 2.334 3.702 2.334 7.879v13.993C1.079 25.466.337 29.892.337 34.68c0 3.436.382 6.685 1.062 9.575h18.716c.68-2.89 1.06-6.139 1.06-9.575 0-5.247-.888-10.06-2.37-13.818" fill="#68368A" mask="url(#h)"/></g><path d="M142.626 133.867c0-.892-.726-1.616-1.621-1.616h-4.088c-.896 0-1.621.724-1.621 1.616h7.33z" fill="#422775"/><g><path d="M140.753 153.869a3.484 3.484 0 0 1-3.49 3.478 3.484 3.484 0 0 1-3.492-3.478 3.485 3.485 0 0 1 3.491-3.479 3.485 3.485 0 0 1 3.49 3.479" fill="#777F88"/><path d="M142.612 139.95c0 1.917-1.523 3.35-3.386 3.35-1.862 0-3.372-1.433-3.372-3.35 0-1.918 1.51-3.375 3.372-3.375 1.863 0 3.386 1.457 3.386 3.375m-1.732.012c0-1.108-.743-1.88-1.654-1.88-.912 0-1.654.772-1.654 1.88 0 1.084.742 1.83 1.654 1.83.911 0 1.654-.746 1.654-1.83M142.608 145.266c0-.827-.669-1.311-1.492-1.311h-3.767c-.824 0-1.492.484-1.492 1.311h6.751z" fill="#F19800"/><path d="M239.549 156.353l-12.359 21.72c-1.823 3.203-6.273 5.2-9.89 4.435l-40.446-8.549" stroke="#682C24" stroke-width="15" stroke-linecap="round"/><path d="M239.311 173.033a8.039 8.039 0 0 0 1.54-2.082l5.61-10.926c2.04-3.973.46-8.843-3.528-10.876-3.988-2.033-8.875-.46-10.915 3.514l-5.609 10.927c-.32.623-.54 1.27-.688 1.922l13.59 7.521z" fill="#EF943B"/><path d="M275.83 157.571c0-5.233-4.364-9.516-9.697-9.516h-19.04c-5.333 0-9.695 4.283-9.695 9.516l-6.753 37.396h38.339l6.846-37.396z" fill="#F2AA25"/><path fill="#EF943B" d="M250.966 146.46l6.775 7.057-4.62 1.84-3.849-8.744z"/><path fill="#EF943B" d="M264.437 146.46l-6.774 7.057 4.618 1.84 3.85-8.744z"/><path d="M284.36 115.508c0 15.394-12.55 27.874-28.028 27.874-15.479 0-28.027-12.48-28.027-27.874 0-15.394 12.548-27.873 28.027-27.873 15.478 0 28.027 12.479 28.027 27.873" fill="#803D29"/><path d="M252.184 121.238a2.67 2.67 0 0 1 2.673-2.664h1.975a2.67 2.67 0 0 1 2.675 2.664h-7.323z" fill="#5B281F"/><path d="M277.377 112.968c0-9.455-4.385-17.89-11.238-23.41 10.42 4.063 17.8 14.146 17.8 25.95 0 15.394-12.545 27.874-28.025 27.874-1.811 0-3.58-.178-5.293-.503 15.063-1.74 26.756-14.463 26.756-29.91" fill="#6D3327"/><path d="M244.855 112.412a2.82 2.82 0 0 0-2.826-2.815 2.82 2.82 0 0 0-2.826 2.815 2.822 2.822 0 0 0 2.826 2.816 2.822 2.822 0 0 0 2.826-2.816" fill="#020203"/><path d="M235.632 103.745l5.987-.53M235.25 104.853a1.172 1.172 0 0 1 .277-2.276l5.988-.53a1.175 1.175 0 0 1 1.277 1.063 1.175 1.175 0 0 1-1.068 1.272l-5.99.53a1.169 1.169 0 0 1-.484-.059" fill="#1F1410"/><path d="M275.774 112.412a2.82 2.82 0 0 0-2.828-2.815 2.821 2.821 0 0 0-2.825 2.815 2.822 2.822 0 0 0 2.825 2.816 2.822 2.822 0 0 0 2.828-2.816" fill="#020203"/><path d="M270.11 102.103l5.848 1.385M269.686 103.197a1.17 1.17 0 0 1-.72-1.366 1.174 1.174 0 0 1 1.416-.868l5.848 1.386a1.17 1.17 0 0 1 .873 1.411 1.177 1.177 0 0 1-1.417.87l-5.848-1.387a1.132 1.132 0 0 1-.152-.046" fill="#1F1410"/><path d="M255.724 131.616c3.61.067 6.592-2.795 6.66-6.392l-13.076-.244c-.066 3.597 2.806 6.568 6.416 6.636" fill="#FEFEFE"/><path d="M302.87 89.163c0-3.306-2.192-6.188-5.456-7.765.511-1.038.8-2.165.8-3.35 0-3.613-2.618-6.72-6.393-8.17.004-.11.02-.218.02-.329 0-4.996-4.993-9.045-11.152-9.045-.89 0-1.748.094-2.576.253-.05-4.96-5.02-8.97-11.149-8.97-3.378 0-6.4 1.224-8.444 3.15-2.202-1.286-5.021-2.06-8.096-2.06-6.616 0-12.052 3.58-12.68 8.159a11.916 11.916 0 0 0-4.72-.966c-5.818 0-10.537 4.049-10.537 9.043 0 .584.07 1.154.194 1.707-5.217.541-9.263 4.349-9.263 8.972 0 1.784.611 3.442 1.649 4.844-2.428 1.51-4.025 4.048-4.025 6.925 0 3.338 2.152 6.211 5.258 7.563-.123.528.022 3.484.393 4.576.532 2.555 5.48 12.85 8.241 13.18v4.639l4.9 2.622v-8.888c.907-.908 4.975-8.973 3.835-15.6 1.75.328 3.022.994 8.163-4.378 1.392 1.254 3.396 2.06 5.65 2.06 2.91 0 5.409-1.33 6.685-3.259 1.612 2.577 4.923 4.35 8.755 4.35 4.11 0 7.624-2.036 9.082-4.916.083 2.39 2.461 4.306 5.43 4.386-.032.283.169 9.472 4.116 13.959v9.235h4.9v-6.781c6.107-.271 13.234-10.628 13.234-15.557 0-.991-.204-1.943-.567-2.836 2.298-1.656 3.754-4.064 3.754-6.753" fill="#1F1410"/><path d="M204.496 288.608l-25.371-.113c-5.579-.025-10.123 4.46-10.148 10.021l35.474.16.045-10.068z" fill="#442212"/><path d="M184.505 291.073c.347.376 1.027.318 1.516-.131.488-.45.602-1.118.254-1.495l-3.151-3.407c-.348-.376-1.027-.318-1.515.131-.49.448-.604 1.118-.256 1.494l3.152 3.408zM181.906 291.923c.348.376 1.026.318 1.515-.131.487-.449.602-1.118.253-1.494l-3.15-3.408c-.349-.376-1.026-.317-1.515.132-.49.448-.603 1.118-.255 1.493l3.152 3.408z" fill="#F4AC0C"/><path d="M170.708 286.703l-24.788-3.724c-5.452-.82-10.538 2.919-11.36 8.352l34.66 5.21 1.488-9.838z" fill="#281711"/><path d="M151.075 286.597c.285.416.957.456 1.5.086.541-.37.748-1.006.462-1.423l-2.591-3.782c-.285-.417-.957-.456-1.5-.087-.544.369-.75 1.008-.464 1.425l2.593 3.78zM148.411 287.058c.287.417.959.457 1.5.087s.75-1.006.462-1.425l-2.59-3.78c-.287-.417-.959-.456-1.5-.087-.544.369-.751 1.007-.465 1.424l2.593 3.78z" fill="#AE8214"/><path d="M281.492 126.412c2.726 0 4.937-1.949 4.937-4.352v-10.98c0-2.404-2.21-4.353-4.937-4.353v19.685zM229.861 126.838c-2.727 0-4.937-1.949-4.937-4.352v-10.98c0-2.404 2.21-4.353 4.937-4.353v19.685zM255.735 134.993c-4.83 0-8.226-2.575-8.226-5.675 0-3.102.776-5.832 8.226-5.553 7.203-.472 8.077 2.451 8.077 5.553 0 3.1-3.249 5.675-8.077 5.675m.023-12.475c-8.735-1.45-10.772 3.843-10.772 8.704 0 4.86 4.448 8.896 10.772 8.896s10.577-4.037 10.577-8.896c0-4.86-2.426-10.347-10.577-8.704" fill="#1F1410"/><path d="M184.39 194.73c-10.091 0-18.273 8.152-18.273 18.21h85.031c10.092 0 18.274-8.151 18.274-18.209H184.39z" fill="#0B856B"/><path d="M219.762 194.73c-10.092 0-18.274 8.152-18.274 18.21h49.66c10.093 0 18.275-8.151 18.275-18.209h-49.661z" fill="#009F85"/><path d="M204.307 290.005l-16.909-1.704c.11-.594 9.393-51.728 14.09-75.36l18.416-3.819c-4.677 23.528-15.487 80.29-15.597 80.883" fill="#009F85"/><path d="M170.68 287.733l-16.339-3.407c6.663-38.522 11.19-67.74 11.97-72.505l17.556-1.281c-.773 4.74-6.504 38.557-13.187 77.193" fill="#0B856B"/><path d="M274.953 166.417l-4.042 23.094c-.634 3.628-4.173 6.42-7.863 6.204l-46.582-2.73" stroke="#803D29" stroke-width="15" stroke-linecap="round"/><path d="M266.464 172.417a8.35 8.35 0 0 1-.266-2.68l.817-12.754c.297-4.638 4.312-8.16 8.968-7.863 4.654.296 8.188 4.296 7.89 8.935l-.818 12.754a8.273 8.273 0 0 1-.41 2.084l-16.18-.476z" fill="#EF943B"/></g></g></svg>