<svg width="500" height="500" viewBox="0 0 500 500" xmlns="http://www.w3.org/2000/svg" xmlns:xlink="http://www.w3.org/1999/xlink"><title>DA8679E8-9A28-4F0D-912C-D629A1107703</title><defs><path id="a" d="M0 407.793h400.01V.65H0z"/><path id="c" d="M.433 27.05H33.18V.272H.433z"/><path id="e" d="M.521.65v407.143h371.127V.65z"/></defs><g fill="none" fill-rule="evenodd"><g transform="translate(51 42.06)"><path d="M0 207.678C0 317.363 89.544 406.28 200.005 406.28s200.006-88.917 200.006-198.602c0-109.686-89.545-198.603-200.006-198.603C89.545 9.075 0 97.992 0 207.678z" fill="#EDEBEB"/><path d="M148.43 359.379l7.765-41.834 55.16-45.662c15.633-12.936 38.86-10.838 51.894 4.683l-100.051 82.813H148.43z" fill="#E5A57E"/><path d="M197.685 359.379l7.765-41.834 55.159-45.662c15.633-12.936 38.864-10.838 51.894 4.683l-100.048 82.813h-14.77z" fill="#E5A57E"/><path d="M201.08 273.318c0 20.594-15.87 37.289-35.45 37.289h-29.085c-19.583 0-20.979-16.695-20.979-37.289h85.514z" fill="#F8BD94"/><path d="M275.044 197.445c2.972 3.462 1.685 6.3-2.86 6.3H196.26c-4.542 0-10.698-2.838-13.667-6.3l-48.818-50.726c-2.969-3.462-4.093-3.794.452-3.794l92.733-3.466c4.545 0 12.02-.95 14.554 4.392l33.53 53.594z" fill="#48535B"/><path fill="#89D6C8" d="M231.252 148.242l33.763 50.483-.334 87.759H191.95V200.67"/><mask id="b" fill="#fff"><use xlink:href="#a"/></mask><path fill="#00AE8E" mask="url(#b)" d="M103.911 286.941h88.044v-86.269h-88.044z"/><path d="M212.57 282.169c0 2.287 1.886 4.157 4.187 4.157h30.02c2.305 0 4.188-1.87 4.188-4.157v-63.91c0-2.288-1.883-4.16-4.187-4.16h-30.021c-2.3 0-4.187 1.872-4.187 4.16v63.91z" fill="#10927A" mask="url(#b)"/><path d="M90.649 197.02c-2.938 3.373-1.66 6.13 2.826 6.13H186.3c4.483 0 10.72-1.078 13.476-6.13l33.832-49.046c2.93-3.37 1.653-6.13-2.826-6.13l-89.816-.295c-4.48 0-6.56 3.017-9.491 6.387L90.649 197.02z" fill="#6B7B84" mask="url(#b)"/><path fill="#FEFEFE" mask="url(#b)" d="M129.585 245.972h37.518v-30.858h-37.518z"/><path fill="#BCB8B8" mask="url(#b)" d="M131.97 243.964h32.745V217.28H131.97z"/></g><g transform="translate(182.536 259.07)"><mask id="d" fill="#fff"><use xlink:href="#c"/></mask><path fill="#DBDBDB" mask="url(#d)" d="M37.943 36.123L26.057 47.734-2.686-2.773 9.199-14.388z"/></g><g transform="translate(64.921 42.06)"><mask id="f" fill="#fff"><use xlink:href="#e"/></mask><path fill="#FEFEFE" mask="url(#f)" d="M113.176 247.181h41.934v-2.975h-41.934z"/><path d="M224.67 144.21c0 2.643-2.053 4.785-4.59 4.785h-99.926c-2.537 0-4.587-2.142-4.587-4.786 0-2.64 2.05-4.783 4.587-4.783h99.926c2.537 0 4.59 2.143 4.59 4.783" fill="#48535B" mask="url(#f)"/><path d="M234.4 247.003a.995.995 0 0 1-.995.992h-6.432a.992.992 0 0 1-.991-.992c0-.546.442-.988.991-.988h6.432c.55 0 .995.442.995.988" fill="#FEFEFE" mask="url(#f)"/><path d="M265.64 287.525v-2.45c0-4.44-4.73-8.045-10.562-8.045H85.692c-5.836 0-10.566 3.604-10.566 8.045v2.45H265.64z" fill="#FBDBD8" mask="url(#f)"/><path d="M57.284 310.416C70.008 285.96 76.732 273.36 97.95 273.36h23.395c19.75 0 19.113 16.36 21.09 37.227h-6.324c0 3.452 2.847 6.303 6.55 6.798v2.813c0 23.071-17.366 41.947-38.582 41.947H84.27c-21.223 0-42.912 4.68-42.912-18.389l15.926-33.339z" fill="#F8BD94" mask="url(#f)"/><path d="M54.824 316.938l174.474.598 55.156-45.653c15.63-12.935 38.864-10.84 51.89 4.683l-94.733 78.739s-4.517 4.886-12.038 4.807c-4.653.08-87.394.08-87.394.08l-81.73 47.6L.52 340.95l54.303-24.011z" fill="#F8BD94" mask="url(#f)"/><path d="M125.306 291.79c0-.044-.003-.09-.003-.138h.004c.121-10.194 8.178-18.42 18.118-18.42h44.805c9.933 0 18 8.226 18.115 18.42h.007c0 .032-.003.063-.003.09l.003.135h-.007c-.115 10.198-8.182 18.423-18.115 18.423h-44.809c-9.936 0-17.993-8.225-18.114-18.423h-.004c0-.028.004-.055.004-.086" fill="#F8BD94" mask="url(#f)"/><path d="M182.423 303.894h7.138c6.891 0 12.487-5.71 12.57-12.78h.004l-.003-.063.003-.093h-.007c-.08-7.074-5.676-12.783-12.567-12.783h-7.138v25.719z" fill="#F3E4DB" mask="url(#f)"/><path fill="#FEFEFE" mask="url(#f)" d="M133.563 245.412h2.283v-29.804h-2.283z"/><path d="M250.535 38.335l-7.764 41.836-55.163 45.66c-15.63 12.935-38.865 10.84-51.895-4.683l100.052-82.813h14.77z" fill="#E5A57E" mask="url(#f)"/><path d="M201.278 38.335l-7.76 41.836-55.164 45.66c-15.63 12.935-38.864 10.84-51.898-4.683l100.052-82.813h14.77z" fill="#E5A57E" mask="url(#f)"/><path d="M371.648 54.108L282.263.648l-39.4 36.871s-82.74 0-87.394.083c-7.524-.083-12.041 4.807-12.041 4.807l-94.734 78.739c13.034 15.524 36.265 17.618 51.898 4.683l55.145-45.652 86.642.034v.118c3.7.494 6.54 3.331 6.55 6.777l-52.117.304c-9.936 0-17.997 8.228-18.115 18.423h-.007c0 .048.003.09.003.138l-.003.087h.007c.115 10.195 8.179 18.423 18.115 18.423l86.586-.086v-.104c3.526-.377 9.038-1.697 15.261-5.85 30.418-28.46 72.989-64.335 72.989-64.335" fill="#F8BD94" mask="url(#f)"/><path d="M205.025 93.132h-7.141c-6.895 0-12.487 5.709-12.568 12.78h-.003v.155h.007c.077 7.074 5.67 12.783 12.567 12.783h7.138V93.132z" fill="#F3E4DB" mask="url(#f)"/></g></g></svg>