<svg width="500" height="500" viewBox="0 0 500 500" xmlns="http://www.w3.org/2000/svg" xmlns:xlink="http://www.w3.org/1999/xlink"><title>97F711A2-38FF-4B97-BEF9-027992755339</title><defs><path d="M.826 316.482c36.16 50.78 95.402 83.883 162.35 83.883 73.941 0 138.481-40.378 172.908-100.355V100.641C301.657 40.662 237.117.282 163.176.282 96.228.282 36.986 33.386.826 84.17v232.313z" id="a"/></defs><g fill="none" fill-rule="evenodd"><path d="M51 249.752c0 110.481 89.268 200.042 199.389 200.042 110.12 0 199.389-89.56 199.389-200.042 0-110.48-89.268-200.042-199.389-200.042C140.269 49.71 51 139.271 51 249.752" fill="#EDEBEB"/><g transform="translate(87.213 47.555)"><mask id="b" fill="#fff"><use xlink:href="#a"/></mask><path fill="#DCD9D9" mask="url(#b)" d="M18.613 245.217h128.058V142.523H18.613z"/><path fill="#FEFEFE" mask="url(#b)" d="M135.005 141.4L32.06 243.953h15.554l98.043-96.943v-4.449z"/><path d="M146.995 419.963h-6.46v-19.845h19.78v6.482c0 7.38-5.965 13.363-13.32 13.363M22.522 419.963h-6.46c-7.355 0-13.32-5.984-13.32-13.363v-6.482h19.78v19.845z" fill="#3B3438" mask="url(#b)"/><path d="M160.313 400.118H2.743V274.69c0-16.277 13.153-29.473 29.376-29.473h98.817c16.224 0 29.377 13.196 29.377 29.473v125.428z" fill="#E7534F" mask="url(#b)"/><path fill="#504A4E" mask="url(#b)" d="M12.635 383.995H153.43v-74.569H12.635z"/><path d="M143.225 294.517H22.835c-5.635 0-10.204 4.585-10.204 10.238h140.798c0-5.653-4.57-10.238-10.204-10.238M139.359 133.29H26.702c-5.083 0-9.201 4.132-9.201 9.232h131.06c0-5.1-4.12-9.232-9.202-9.232" fill="#7A2D26" mask="url(#b)"/><path d="M61.364 241.066H26.196a4.145 4.145 0 0 0-4.14 4.15H65.5c0-2.291-1.849-4.15-4.135-4.15M136.395 241.066h-35.167a4.145 4.145 0 0 0-4.14 4.15h43.443c0-2.291-1.85-4.15-4.136-4.15" fill="#3B3438" mask="url(#b)"/><path fill="#1A1414" mask="url(#b)" d="M139.04 309.299l-73.687 73.513h88.446V309.3zM30.74 268.668c-3.768 0-6.821-3.063-6.821-6.843s3.053-6.847 6.82-6.847c3.769 0 6.822 3.066 6.822 6.847 0 3.78-3.053 6.843-6.821 6.843M65.036 268.668c-3.768 0-6.821-3.063-6.821-6.843s3.053-6.847 6.821-6.847 6.821 3.066 6.821 6.847c0 3.78-3.053 6.843-6.82 6.843M98.076 268.668c-3.768 0-6.82-3.063-6.82-6.843s3.052-6.847 6.82-6.847c3.768 0 6.822 3.066 6.822 6.847 0 3.78-3.054 6.843-6.822 6.843M131.116 268.668c-3.768 0-6.821-3.063-6.821-6.843s3.053-6.847 6.821-6.847 6.821 3.066 6.821 6.847c0 3.78-3.053 6.843-6.821 6.843"/><path d="M153.345 277.988H12.144c-.375 0-.68 2.722-.68 0h142.564c0 2.722-.305 0-.683 0z" stroke="#7A2D26" mask="url(#b)"/><path d="M29.942 259.805c-.246 0-1.256-.202-1.256-.45v-4.49c0-.247 1.01-.449 1.256-.449s1.256.202 1.256.45v4.49c0 .247-1.01.449-1.256.449M65.109 269.885c-.246 0-1.256-.201-1.256-.449v-4.49c0-.247 1.01-.449 1.256-.449s1.256.202 1.256.449v4.49c0 .248-1.01.45-1.256.45M97.764 259.805c-.246 0-1.256-.202-1.256-.45v-4.49c0-.247 1.01-.449 1.256-.449s1.256.202 1.256.45v4.49c0 .247-1.01.449-1.256.449M130.419 259.805c-.246 0-1.256-.202-1.256-.45v-4.49c0-.247 1.01-.449 1.256-.449s1.256.202 1.256.45v4.49c0 .247-1.01.449-1.256.449" fill="#ED8726" mask="url(#b)"/><path d="M140.384 301.13H24.424c-.378 0-.683-.985-.683-1.36 0-.38.305-1.362.683-1.362h115.96c.378 0 .683.982.683 1.362 0 .375-.305 1.36-.683 1.36" fill="#E7534F" mask="url(#b)"/><path d="M151.339 80.612a28.042 28.042 0 0 1 8.198 19.859H.826c0-15.511 12.535-28.084 27.992-28.084h102.723c7.734 0 14.732 3.143 19.798 8.225" fill="#F6B7B2" mask="url(#b)"/><path fill="#EF817C" mask="url(#b)" d="M52.893 72.386h54.572v-82.651H52.893z"/><path d="M18.992 89.48a3.245 3.245 0 0 1-3.24 3.25 3.245 3.245 0 0 1-3.241-3.25 3.245 3.245 0 0 1 3.24-3.252c1.79 0 3.241 1.456 3.241 3.252M33.144 89.48a3.245 3.245 0 0 1-3.24 3.25 3.245 3.245 0 0 1-3.241-3.25 3.245 3.245 0 0 1 3.24-3.252c1.79 0 3.241 1.456 3.241 3.252M322.233 419.963h-6.46v-19.845h19.78v6.482c0 7.38-5.965 13.363-13.32 13.363M196.263 419.963h-6.46c-6.53 0-11.825-5.308-11.825-11.86v-6.484a1.5 1.5 0 0 1 1.5-1.5h16.785a1.5 1.5 0 0 1 1.499 1.5v16.84c0 .832-.673 1.504-1.499 1.504" fill="#3B3438" mask="url(#b)"/><path d="M335.55 399.412H177.98V155.538c0-16.277 13.154-29.473 29.377-29.473h98.817c16.224 0 29.377 13.196 29.377 29.473v243.874z" fill="#FBDBD8" mask="url(#b)"/><path d="M195.668 241.82v15.21c0 4.122 3.331 7.467 7.443 7.467v-30.144c-4.112 0-7.443 3.341-7.443 7.466M195.668 186.01v15.211c0 4.122 3.331 7.467 7.443 7.467v-30.145c-4.112 0-7.443 3.342-7.443 7.466" fill="#E7534F" mask="url(#b)"/><path fill="#FEFEFE" mask="url(#b)" d="M300.941 126.044l-97.78 96.13h15.558l98.043-96.13h-6.151zM310.984 222.173L178.182 352.736l-.2 22.95L332.47 222.172h-8.355z"/><path d="M335.165 222.173H178.753c-.51 0-.923-1.04-.923-1.36 0-.321.413-1.362.923-1.362h156.412c.506 0 .92 1.04.92 1.361 0 .32-.414 1.361-.92 1.361" fill="#B1423C" mask="url(#b)"/><path d="M243.843 97.952h-26.802s-.083 10.498 7.487 14.261a1.42 1.42 0 0 0 .944 2.478h9.94a1.42 1.42 0 0 0 .944-2.481c7.57-3.76 7.487-14.258 7.487-14.258" fill="#D54D48" mask="url(#b)"/><path d="M236.832 113.268c0-.422-.187-.798-.475-1.059 7.57-3.759 7.487-14.257 7.487-14.257h-3.747s.482 9.482-8.098 13.836c0 0 1.253 2.127-2.026 2.903h5.44a1.42 1.42 0 0 0 1.42-1.423" fill="#B1423C" mask="url(#b)"/><path d="M243.843 104.139h-26.802s-.083 10.498 7.487 14.26a1.42 1.42 0 0 0 .944 2.478l9.94.001a1.42 1.42 0 0 0 .944-2.482c7.57-3.759 7.487-14.257 7.487-14.257" fill="#4B2F86" mask="url(#b)"/><path d="M236.832 119.455c0-.422-.187-.798-.475-1.059 7.57-3.759 7.487-14.257 7.487-14.257h-3.747s.482 9.482-8.098 13.836c0 0 1.253 2.127-2.026 2.903h5.44a1.42 1.42 0 0 0 1.42-1.423" fill="#5D378B" mask="url(#b)"/><path d="M243.843 110.03h-26.802s-.083 10.499 7.487 14.262a1.42 1.42 0 0 0 .944 2.478h9.94a1.42 1.42 0 0 0 .944-2.482c7.57-3.76 7.487-14.258 7.487-14.258" fill="#F3A521" mask="url(#b)"/><path d="M236.832 125.346c0-.42-.187-.797-.475-1.058 7.57-3.76 7.487-14.258 7.487-14.258h-3.747s.482 9.482-8.098 13.837c0 0 1.253 2.127-2.026 2.903h5.44a1.42 1.42 0 0 0 1.42-1.424" fill="#ED8826" mask="url(#b)"/><path d="M260.746 95.885V83.587h-1.568v12.298a3.331 3.331 0 0 0-2.543 3.237v10.022a3.334 3.334 0 0 0 3.327 3.341 3.334 3.334 0 0 0 3.327-3.341V99.122a3.331 3.331 0 0 0-2.543-3.237" fill="#ED8726" mask="url(#b)"/><path d="M260.746 95.885V83.587h-.513l-.163.191v12.657s1.433.891 1.433 8.246l1.165 2.771.621-.501v-7.829a3.331 3.331 0 0 0-2.543-3.237" fill="#E0A92B" mask="url(#b)"/><path d="M266.213 121.798l40.473-1.51s-15.738-16.26-4.844-42.774c0 0 7.13-13.559-6.172-19.43h-38.613c-4.375 0-7.952 3.591-7.952 7.977v10.297c0 4.386 3.577 7.975 7.952 7.975h19.777v25.696c0 4.146-2.398 11.212-10.62 11.769" fill="#EF817C" mask="url(#b)"/><path d="M266.213 121.798l-1.051.038c.36 0 .711-.014 1.051-.038" fill="#DA203C" mask="url(#b)"/><path d="M289.75 71.036a3.023 3.023 0 0 0 3.019 3.028 3.024 3.024 0 0 0 3.022-3.028 3.024 3.024 0 0 0-3.022-3.028 3.023 3.023 0 0 0-3.019 3.028" fill="#7A2D26" mask="url(#b)"/><path d="M267.952 68.764c0 .422.336.76.756.76h16.643a.76.76 0 0 0 0-1.518h-16.643a.757.757 0 0 0-.756.758M267.952 71.193c0 .418.336.76.756.76h16.643a.76.76 0 0 0 0-1.519h-16.643a.757.757 0 0 0-.756.76M267.952 73.622c0 .42.336.758.756.758h16.643a.76.76 0 0 0 0-1.518h-16.643a.757.757 0 0 0-.756.76" fill="#FBDBD8" mask="url(#b)"/><path d="M273.096 104.681h-26.022s-2.064 15.609 12.89 15.609c14.95 0 13.132-15.609 13.132-15.609" fill="#F0EEEF" mask="url(#b)"/><path d="M256.148 119.893c1.128.254 2.394.397 3.813.397 14.95 0 13.136-15.608 13.136-15.608h-7.612c.291 13.185-9.007 15.256-9.337 15.211" fill="#E1DEDE" mask="url(#b)"/><path d="M301.842 77.514s.653-1.24 1.194-3.133c-14.142 19.6-4.826 45.906-4.826 45.906l.354.307 8.122-.307s-15.738-16.26-4.844-42.773M279.796 112.485v-28.15h-2.963v25.696c0 4.145-2.397 11.208-10.62 11.765l6.967-.257c5.992-3.259 6.616-9.054 6.616-9.054" fill="#E7534F" mask="url(#b)"/><path d="M244.551 123.694a3.4 3.4 0 0 0 3.394 3.404h57.97a3.396 3.396 0 0 0 3.389-3.404 3.396 3.396 0 0 0-3.39-3.405h-57.97a3.4 3.4 0 0 0-3.393 3.405" fill="#504A4E" mask="url(#b)"/></g></g></svg>