<svg id="logo_next" xmlns="http://www.w3.org/2000/svg" viewBox="0 0 76.39 27.43">
    <defs>
        <style>
        .cls-1 {
            fill: #fff;
        }
        </style>
    </defs>
    <title>logo_next</title>
    <path class="cls-1" d="M75.87,10.95l0,0L67.37,2.41a5.57,5.57,0,0,0-7.87,7.87l4.28,4.28-4.14,4.14a5.57,5.57,0,0,0,7.87,7.87l8.06-8.1a5.57,5.57,0,0,0,.3-7.54M62.53,2a4.44,4.44,0,0,1,4,1.2L72.4,9a5.57,5.57,0,0,0-3.77.81L63.4,4.66A3.11,3.11,0,0,1,62.53,2M60.29,9.49a4.44,4.44,0,0,1,1.07-7.07,4.24,4.24,0,0,0,1.24,3l5.12,5.12,0,0-3.12,3.16Zm2.37,14.38a4.27,4.27,0,0,0-.9,2.83,4.43,4.43,0,0,1-1.34-7.19l8.12-8.11,0.14,0.15a4.44,4.44,0,0,1,.22,6L63,23.49l-0.33.38m7.49-1.57-3.45,3.49A4.43,4.43,0,0,1,62.94,27a3.12,3.12,0,0,1,.71-2.58L70,18.12h0a3.11,3.11,0,0,1,.19,4.18m4.61-4.61L72,20.45a4.22,4.22,0,0,0-1.23-3.12l-0.22-.22a5.57,5.57,0,0,0-1.06-6.35l-0.06-.06a4.43,4.43,0,0,1,5.33,7" transform="translate(-0.81 -0.78)" />
    <path class="cls-1" d="M14.19,5.94a8.92,8.92,0,0,0-7.91,4.72H6.09l1-4.35h-3L0.81,22.92h3L5,17.06c0.34-2.13,5.33-8.87,7.9-8.21a1.15,1.15,0,0,1,.85,1.29,6.92,6.92,0,0,1-.06,1.16L11.4,22.92h3l2.29-11.53a11.16,11.16,0,0,0,.25-2.29c0-1.82-.78-3.17-2.76-3.17" transform="translate(-0.81 -0.78)" />
    <path class="cls-1" d="M49.2,8.57h3.57l0.47-2.26h-3.6L50.33,2.9h-3L46.63,6.31H41.87L37,12,34.11,6.31H30.73l3.95,7.93s-2,2.35-2.78,3.06a11.6,11.6,0,0,1-8.5,3.48c-2.36,0-3.38-1.91-3.29-4,4.2-.22,10.5-2.54,10.5-7.52,0-2.29-1.66-3.32-3.7-3.32-7.18,0-10,7.58-10,11.72,0,3.48,2.6,5.64,6.11,5.64A14.26,14.26,0,0,0,33.36,19l2.48-2.52,3.2,6.4h3.38l-4.25-8.49,5-5.86h3L44.5,17a13.6,13.6,0,0,0-.37,2.73c0,2.48,1.91,3.57,4.13,3.57a6.91,6.91,0,0,0,2-.28l0.44-2.29A5,5,0,0,1,49,21a1.63,1.63,0,0,1-1.91-1.69,16.57,16.57,0,0,1,.31-2.07ZM25.75,8.19A1.83,1.83,0,0,1,27.6,9.95c0,2.88-4.42,4.51-7.18,4.57,0.37-2.44,2.63-6.33,5.33-6.33" transform="translate(-0.81 -0.78)" />
</svg>
