<svg id="NEXT" xmlns="http://www.w3.org/2000/svg" viewBox="0 0 38 53.94">
    <defs>
        <style>
        .cls-1 {
            fill: #fff;
        }
        </style>
    </defs>
    <title>next</title>
    <path class="cls-1" d="M35.4,20l0,0L18.68,3.2A10.95,10.95,0,0,0,3.2,18.68l8.42,8.42L3.47,35.25A10.95,10.95,0,0,0,19,50.74L34.8,34.81A11,11,0,0,0,35.4,20M9.16,2.41a8.72,8.72,0,0,1,8,2.36L28.58,16.24a11,11,0,0,0-7.41,1.6L10.88,7.62A6.12,6.12,0,0,1,9.16,2.41M4.77,17.11A8.73,8.73,0,0,1,6.88,3.22a8.33,8.33,0,0,0,2.43,6L19.38,19.27l-0.06.06-6.13,6.21ZM9.44,45.4A8.39,8.39,0,0,0,7.67,51,8.7,8.7,0,0,1,5,36.82l16-16,0.28,0.29A8.73,8.73,0,0,1,21.72,33L10.1,44.64c-0.11.11-.66,0.76-0.66,0.76M24.16,42.3l-6.78,6.86A8.71,8.71,0,0,1,10,51.62a6.14,6.14,0,0,1,1.4-5.07L23.79,34.08h0a6.11,6.11,0,0,1,.37,8.21m9.07-9.07L27.8,38.67a8.29,8.29,0,0,0-2.42-6.14L25,32.09A11,11,0,0,0,22.87,19.6l-0.11-.12A8.72,8.72,0,0,1,33.23,33.23" transform="translate(0 0)" />
</svg>
