<svg id="Layer_1" data-name="Layer 1" xmlns="http://www.w3.org/2000/svg" viewBox="0 0 57.92 31.12">
    <defs>
        <style>
        .cls-1 {
            fill: #fff;
        }
        </style>
    </defs>
    <title>ifood</title>
    <polygon class="cls-1" points="0 17.85 4.39 17.85 6.86 5.5 2.47 5.5 0 17.85" />
    <polygon class="cls-1" points="2.85 3.55 7.24 3.55 7.97 0 3.55 0 2.85 3.55" />
    <path class="cls-1" d="M8.17,22.28h4.39L15.24,8.91h3.2l0.49-2.47H15.71l0.12-.58c0.2-1,.55-2.27,2.21-2.27a7.36,7.36,0,0,1,2.85.49l0.49-2.59A9,9,0,0,0,18.21.94c-3.55,0-6,2.15-6.86,5.5H9.8L9.34,8.91h1.51Z" transform="translate(-2.04 -0.94)" />
    <path class="cls-1" d="M22.13,19.08c5.2,0,8.81-4.83,8.81-8.78,0-2.88-2.68-4.13-5.21-4.13-5.7,0-8.81,5.2-8.81,8.78,0,2.85,2.68,4.13,5.2,4.13" transform="translate(-2.04 -0.94)" />
    <path class="cls-1" d="M36,19.08c5.2,0,8.81-4.83,8.81-8.78,0-2.88-2.68-4.13-5.2-4.13-5.7,0-8.81,5.2-8.81,8.78,0,2.85,2.7,4.13,5.2,4.13" transform="translate(-2.04 -0.94)" />
    <path class="cls-1" d="M52,18.79h4.36L60,0.94H55.57l-1.16,5.5a8.93,8.93,0,0,0-1.77-.2c-4.3,0-8.23,5.58-8.23,9.57a3,3,0,0,0,2.82,3.26,5.79,5.79,0,0,0,5-2.44h0.26Z" transform="translate(-2.04 -0.94)" />
    <path class="cls-1" d="M38.41,28.1A16.83,16.83,0,0,1,26.23,32a11.91,11.91,0,0,1-10.82-9.74h0.29a11,11,0,0,0,8.61,6.25,15.42,15.42,0,0,0,11.46-4l-3-2.3,8.87,0-1.92,9.57Z" transform="translate(-2.04 -0.94)" />
</svg>
