<?xml version="1.0" standalone="no"?>
<!DOCTYPE svg PUBLIC "-//W3C//DTD SVG 1.1//EN" "http://www.w3.org/Graphics/SVG/1.1/DTD/svg11.dtd" >
<svg>
<metadata>
Created by FontForge 20090622 at Mon Nov 16 17:51:20 2015
 By deploy user
Copyright 2009, 2010 Monotype Imaging Inc. All rights reserved.
</metadata>
<defs>
<font id="FelbridgePro-Thin" horiz-adv-x="570" >
  <font-face 
    font-family="Felbridge Pro Thin"
    font-weight="250"
    font-stretch="normal"
    units-per-em="1000"
    panose-1="2 0 2 3 4 0 3 2 3 4"
    ascent="760"
    descent="-240"
    x-height="503"
    cap-height="727"
    bbox="-158 -241 1312 956"
    underline-thickness="50"
    underline-position="-50"
    unicode-range="U+0020-U+FB04"
  />
<missing-glyph horiz-adv-x="500" 
d="M12 0v665h475v-665h-475zM88 618l162 -243l161 243h-323zM60 575v-484l40 61l80 120l41 61zM440 575l-162 -242l162 -243v485zM411 48l-161 242l-162 -242h323z" />
    <glyph glyph-name="f_f" unicode="ff" horiz-adv-x="526" 
d="M594 725l-13 -32q-42 17 -79 17q-55 0 -76.5 -31t-21.5 -97v-79h130v-31h-130v-472h-35v472h-234v-472h-35v472h-83v31h83v79q0 90 35.5 125t106.5 35q45 0 83 -17l-13 -32q-43 17 -79 17q-55 0 -76.5 -31t-21.5 -97v-79h234v79q0 90 35.5 125t106.5 35q45 0 83 -17z" />
    <glyph glyph-name="fi" unicode="fi" horiz-adv-x="496" 
d="M412 641q0 -20 -6.5 -27t-24.5 -7q-14 0 -21.5 6t-8.5 11.5t-1 16.5q0 19 5.5 27t25.5 8q14 0 21.5 -6.5t8.5 -12t1 -16.5zM405 0h-35v472h-235v-472h-35v472h-83v31h83v75q0 96 36 130t109 34q45 0 84 -18l-13 -32q-41 18 -84 18q-41 0 -63.5 -20t-28 -45.5t-5.5 -66.5
v-75h270v-503z" />
    <glyph glyph-name="fl" unicode="fl" horiz-adv-x="531" 
d="M526 -8q-42 -7 -60 -7q-56 0 -79.5 33t-23.5 99v566q-64 27 -136 27q-30 0 -49.5 -11t-28 -32.5t-11.5 -41t-3 -47.5v-75h135v-31h-135v-472h-35v472h-83v31h83v75q0 95 35 129.5t107 34.5q50 0 120 -24l36 32v-621q0 -60 15 -86t56 -26q32 0 50 6z" />
    <glyph glyph-name="f_f_i" unicode="ffi" horiz-adv-x="766" 
d="M675 0h-35v472h-235v-472h-35v472h-235v-472h-35v472h-83v31h83v79q0 90 35.5 125t106.5 35q45 0 83 -17l-13 -32q-43 17 -79 17q-55 0 -76.5 -31t-21.5 -97v-79h235v75q0 96 36 130t109 34q45 0 84 -18l-13 -32q-41 18 -84 18q-41 0 -63.5 -20t-28 -45.5t-5.5 -66.5v-75
h270v-503zM682 641q0 -20 -6.5 -27t-24.5 -7q-14 0 -21.5 6t-8.5 11.5t-1 16.5q0 19 5.5 27t25.5 8q14 0 21.5 -6.5t8.5 -12t1 -16.5z" />
    <glyph glyph-name="f_f_l" unicode="ffl" horiz-adv-x="801" 
d="M796 -8q-42 -7 -60 -7q-56 0 -79.5 33t-23.5 99v566q-64 27 -136 27q-30 0 -49.5 -11t-28 -32.5t-11.5 -41t-3 -47.5v-75h135v-31h-135v-472h-35v472h-235v-472h-35v472h-83v31h83v79q0 90 35.5 125t106.5 35q45 0 83 -17l-13 -32q-43 17 -79 17q-55 0 -76.5 -31
t-21.5 -97v-79h235v75q0 95 35 129.5t107 34.5q50 0 120 -24l36 32v-621q0 -60 15 -86t56 -26q32 0 50 6z" />
    <glyph glyph-name=".notdef" horiz-adv-x="500" 
d="M12 0v665h475v-665h-475zM88 618l162 -243l161 243h-323zM60 575v-484l40 61l80 120l41 61zM440 575l-162 -242l162 -243v485zM411 48l-161 242l-162 -242h323z" />
    <glyph glyph-name=".null" horiz-adv-x="0" 
 />
    <glyph glyph-name="nonmarkingreturn" horiz-adv-x="333" 
 />
    <glyph glyph-name="space" unicode=" " horiz-adv-x="255" 
 />
    <glyph glyph-name="exclam" unicode="!" horiz-adv-x="219" 
d="M130 727l-3 -540h-32l-5 540h40zM147 27q0 -21 -7 -27.5t-30 -6.5t-30.5 7.5t-7.5 26.5q0 20 7.5 28t30.5 8t30 -7.5t7 -28.5z" />
    <glyph glyph-name="quotedbl" unicode="&#x22;" horiz-adv-x="362" 
d="M282 742l-14 -269h-23l-15 269h52zM132 742l-14 -269h-23l-15 269h52z" />
    <glyph glyph-name="numbersign" unicode="#" horiz-adv-x="647" 
d="M610 473h-148l-56 -219h147v-30h-154l-55 -224h-32l55 224h-154l-56 -224h-32l56 224h-144v30h150l57 219h-150v30h157l55 224h32l-55 -224h154l56 224h32l-56 -224h141v-30zM430 473h-154l-57 -219h155z" />
    <glyph glyph-name="dollar" unicode="$" horiz-adv-x="497" 
d="M452 175q0 -162 -198 -175v-120h-31v121q-142 8 -204 119l29 19q60 -99 175 -105v279q-91 22 -124 42q-67 39 -67 117q0 72 49.5 116t141.5 48v106h31v-106q70 -4 112 -29t72 -75l-29 -19q-33 46 -64.5 66t-90.5 24v-261q99 -21 148.5 -60.5t49.5 -106.5zM223 348v255
q-72 -3 -113.5 -37.5t-41.5 -90.5q0 -48 32 -77t123 -50zM414 172q0 33 -13 56.5t-39.5 38.5t-48.5 22.5t-59 16.5v-272q69 4 114.5 36.5t45.5 101.5z" />
    <glyph glyph-name="percent" unicode="%" horiz-adv-x="977" 
d="M923 61q0 -115 -39 -167q-45 -60 -131 -60q-87 0 -132 60q-39 52 -39 167q0 122 39 174q47 60 132 60q83 0 130 -59q40 -50 40 -175zM701 727l-391 -878h-35l391 878h35zM395 508q0 -115 -39 -167q-45 -60 -131 -60q-87 0 -132 60q-39 52 -39 167q0 122 39 174
q47 60 132 60q83 0 130 -59q40 -50 40 -175zM891 61q0 34 -2.5 60.5t-11.5 55t-23.5 46.5t-40 30t-60.5 12q-36 0 -62 -12t-40.5 -30.5t-23 -47t-11 -54t-2.5 -58.5q0 -43 5.5 -75.5t19.5 -62t43 -45.5t71 -16q41 0 69.5 16t43 45.5t20 61.5t5.5 74zM363 508q0 34 -2.5 60.5
t-11.5 55t-23.5 46.5t-40 30t-60.5 12q-36 0 -62 -12t-40.5 -30.5t-23 -47t-11 -54t-2.5 -58.5q0 -43 5.5 -75.5t19.5 -62t43 -45.5t71 -16q41 0 69.5 16t43 45.5t20 61.5t5.5 74z" />
    <glyph glyph-name="ampersand" unicode="&#x26;" horiz-adv-x="656" 
d="M617 292q-24 -107 -92 -188l81 -104h-45l-59 75q-48 -47 -95.5 -68.5t-114.5 -21.5q-107 0 -164.5 54t-57.5 139q0 82 49 138q19 21 51 45q11 8 34.5 23.5t34.5 23.5q-94 118 -94 184q0 72 42 111t123 39q74 0 113.5 -35t39.5 -89q0 -61 -41 -107t-132 -110l216 -273
q57 72 82 171zM427 618q0 45 -34.5 68.5t-87.5 23.5q-62 0 -93 -31.5t-31 -76.5q0 -42 20.5 -78.5t68.5 -98.5q91 62 124 102t33 91zM483 100l-223 281q-86 -56 -118.5 -99t-32.5 -106q0 -43 18 -75t47 -49.5t60 -25.5t62 -8q103 0 187 82z" />
    <glyph glyph-name="quotesingle" unicode="'" horiz-adv-x="212" 
d="M132 742l-14 -269h-23l-15 269h52z" />
    <glyph glyph-name="parenleft" unicode="(" horiz-adv-x="355" 
d="M312 -193h-43q-103 113 -151.5 219t-48.5 248q0 141 48 249t153 219h41q-72 -80 -114 -144t-67.5 -145.5t-25.5 -178.5q0 -140 50.5 -245.5t157.5 -221.5z" />
    <glyph glyph-name="parenright" unicode=")" horiz-adv-x="355" 
d="M286 274q0 -142 -48.5 -248t-151.5 -219h-43q107 116 157.5 221.5t50.5 245.5q0 97 -25.5 178.5t-67.5 145.5t-114 144h41q105 -111 153 -219t48 -249z" />
    <glyph glyph-name="asterisk" unicode="*" horiz-adv-x="408" 
d="M374 497l-15 -27l-140 82l2 -141h-32l1 141l-139 -83l-17 27l148 81l-148 80l17 28l140 -83l-2 140h32l-2 -140l140 82l15 -28l-146 -79z" />
    <glyph glyph-name="plus" unicode="+" horiz-adv-x="649" 
d="M575 269h-235v-235h-31v235h-235v31h235v235h31v-235h235v-31z" />
    <glyph glyph-name="comma" unicode="," horiz-adv-x="219" 
d="M147 16q0 -96 -43 -160h-32q36 56 36 121v16q-11 0 -18 1.5t-13 10.5t-6 26q0 32 35 32q23 0 32 -10.5t9 -36.5z" />
    <glyph glyph-name="hyphen" unicode="-" horiz-adv-x="352" 
d="M317 231h-282v41h282v-41z" />
    <glyph glyph-name="period" unicode="." horiz-adv-x="219" 
d="M147 27q0 -20 -7.5 -27t-29.5 -7q-23 0 -31 7.5t-8 26.5q0 20 8 28t30 8q24 0 31 -7.5t7 -28.5z" />
    <glyph glyph-name="slash" unicode="/" horiz-adv-x="337" 
d="M377 742l-375 -888h-35l375 888h35z" />
    <glyph glyph-name="zero" unicode="0" horiz-adv-x="577" 
d="M527 285q0 -300 -238 -300t-238 299q0 298 238 298t238 -297zM489 285q0 263 -200 263t-200 -264q0 -265 200 -265q109 0 154.5 70.5t45.5 195.5z" />
    <glyph glyph-name="one" unicode="1" horiz-adv-x="429" 
d="M388 0h-297v31h141v468q-68 -52 -155 -72v31q119 36 178 133h13v-560h120v-31z" />
    <glyph glyph-name="two" unicode="2" horiz-adv-x="496" 
d="M462 0h-438v34l197 159q93 76 134 128t41 111q0 54 -44.5 85t-116.5 31q-118 0 -180 -84l-28 25q66 93 211 93q86 0 141 -39t55 -112q0 -90 -90 -176q-91 -86 -270 -221h388v-34z" />
    <glyph glyph-name="three" unicode="3" horiz-adv-x="527" 
d="M478 66q0 -113 -68 -172.5t-176 -59.5q-141 0 -217 101l31 23q62 -90 187 -90q92 0 148.5 50.5t56.5 147.5t-53 138t-151 41q-27 0 -67 -7v8l245 287h-349v34h388v-34l-216 -256h17q106 0 165 -53.5t59 -157.5z" />
    <glyph glyph-name="four" unicode="4" horiz-adv-x="515" 
d="M478 31h-86v-197h-36v197h-342v33l335 527h43v-527h86v-33zM356 64v477l-303 -477h303z" />
    <glyph glyph-name="five" unicode="5" horiz-adv-x="522" 
d="M471 71q0 -110 -67 -173.5t-187 -63.5q-75 0 -126 30t-79 67l32 23q25 -38 71 -62t103 -24q106 0 160.5 56.5t54.5 154.5q0 167 -204 167q-85 0 -158 -55h-11l46 376h331v-34h-304l-35 -289q58 36 152 36q103 0 162 -50t59 -159z" />
    <glyph glyph-name="six" unicode="6" 
d="M528 232q0 -118 -60.5 -182.5t-171.5 -64.5q-122 0 -183.5 84.5t-61.5 246.5q0 123 27.5 216t90 151.5t155.5 58.5q108 0 177 -60l-25 -28q-59 54 -152 54q-60 0 -104.5 -28t-71 -77t-40.5 -107.5t-17 -128.5q108 85 229 85q98 0 153 -54t55 -166zM490 228
q0 190 -181 190q-39 0 -82 -15t-71 -31.5t-66 -42.5q0 -2 -0.5 -7.5t-0.5 -7.5q0 -295 208 -295q91 0 142 55.5t51 153.5z" />
    <glyph glyph-name="seven" unicode="7" horiz-adv-x="497" 
d="M466 533l-285 -699h-41l289 699h-359v-111h-34v145h430v-34z" />
    <glyph glyph-name="eight" unicode="8" horiz-adv-x="554" 
d="M512 183q0 -96 -62 -147t-172 -51q-115 0 -175.5 52t-60.5 146q0 144 183 204q-164 63 -164 177q0 85 55.5 131.5t161.5 46.5q105 0 160 -47t55 -132q0 -112 -162 -176q181 -64 181 -204zM455 567q0 71 -47.5 106t-129.5 35q-85 0 -132 -35.5t-47 -101.5q0 -56 36 -92.5
t141 -76.5q93 35 136 70.5t43 94.5zM474 180q0 42 -15.5 73.5t-47.5 54t-59.5 35.5t-73.5 29q-46 -16 -73.5 -28.5t-60.5 -35t-48.5 -54.5t-15.5 -75q0 -77 52 -118.5t146 -41.5q95 0 145.5 43.5t50.5 117.5z" />
    <glyph glyph-name="nine" unicode="9" 
d="M520 250q0 -186 -69 -301t-202 -115q-106 0 -184 66l24 29q66 -61 160 -61q111 0 167.5 93t63.5 238q-107 -85 -229 -85q-98 0 -153 54t-55 166q0 118 60.5 182.5t169.5 64.5q123 0 185 -84.5t62 -246.5zM482 252q0 295 -208 295q-91 0 -142 -55.5t-51 -153.5
q0 -190 181 -190q39 0 81.5 15t67.5 29.5t70 44.5q1 5 1 15z" />
    <glyph glyph-name="colon" unicode=":" horiz-adv-x="219" 
d="M147 421q0 -20 -7.5 -27t-29.5 -7q-23 0 -31 7.5t-8 26.5q0 20 8 28t30 8q24 0 31 -7.5t7 -28.5zM147 27q0 -20 -7.5 -27t-29.5 -7q-23 0 -31 7.5t-8 26.5q0 20 8 28t30 8q24 0 31 -7.5t7 -28.5z" />
    <glyph glyph-name="semicolon" unicode=";" horiz-adv-x="219" 
d="M147 15q0 -95 -43 -159h-32q36 56 36 121v16q-11 0 -18 1.5t-13 10.5t-6 26q0 32 35 32q22 0 31.5 -11t9.5 -37zM147 421q0 -20 -7.5 -27t-29.5 -7q-23 0 -31 7.5t-8 26.5q0 20 8 28t30 8q24 0 31 -7.5t7 -28.5z" />
    <glyph glyph-name="less" unicode="&#x3c;" horiz-adv-x="649" 
d="M575 53l-501 225v13l501 224v-34l-445 -197l445 -197v-34z" />
    <glyph glyph-name="equal" unicode="=" horiz-adv-x="649" 
d="M575 379h-501v31h501v-31zM575 159h-501v31h501v-31z" />
    <glyph glyph-name="greater" unicode="&#x3e;" horiz-adv-x="649" 
d="M575 278l-501 -225v34l445 197l-445 197v34l501 -224v-13z" />
    <glyph glyph-name="question" unicode="?" horiz-adv-x="452" 
d="M405 565q0 -86 -53 -143q-46 -51 -156 -115v-125h-31v143q87 51 128 86q36 31 55 66t19 87q0 71 -41.5 108.5t-121.5 37.5q-104 0 -155 -72l-28 22q55 82 180 82q99 0 151.5 -44.5t52.5 -132.5zM219 27q0 -20 -7.5 -27t-30.5 -7t-30.5 7.5t-7.5 26.5q0 20 7.5 28t30.5 8
t30.5 -8t7.5 -28z" />
    <glyph glyph-name="at" unicode="@" horiz-adv-x="997" 
d="M931 284q0 -60 -10 -111.5t-32 -95t-60 -68t-90 -24.5q-55 0 -84 29t-31 76q-111 -90 -191 -90q-76 0 -116 56t-40 143q0 86 24.5 156t80 116.5t134.5 46.5q72 0 146 -61l6 47h39l-45 -387q-2 -14 -2 -26q0 -38 25 -57t62 -19q43 0 74.5 27t47 70t22 84.5t6.5 83.5
q0 201 -99.5 316.5t-290.5 115.5q-177 0 -292 -126t-115 -312q0 -196 109.5 -316.5t295.5 -120.5q89 0 212 28l7 -32q-123 -26 -220 -26q-201 0 -319.5 128t-118.5 340q0 200 125 333.5t315 133.5q203 0 314 -121.5t111 -336.5zM659 424q-71 59 -138 59q-46 0 -82 -18
t-58 -46.5t-36.5 -67t-20 -75.5t-5.5 -75q0 -83 30.5 -124.5t99.5 -41.5q65 0 175 91z" />
    <glyph glyph-name="A" unicode="A" horiz-adv-x="615" 
d="M602 0h-38l-91 246h-332l-92 -246h-36l273 727h48zM461 278l-152 417l-156 -417h308z" />
    <glyph glyph-name="B" unicode="B" horiz-adv-x="635" 
d="M578 220q0 -120 -73.5 -170t-217.5 -50h-192v727h209q125 0 175 -44.5t50 -130.5q0 -122 -118 -160q75 -8 121 -51t46 -121zM493 553q0 84 -50.5 113t-163.5 29h-148v-296h145q217 0 217 154zM540 213q0 40 -12 68.5t-32 45t-54.5 25.5t-70 12t-88.5 3h-152v-333h151
q59 0 102.5 8t80.5 27t56 55t19 89z" />
    <glyph glyph-name="C" unicode="C" horiz-adv-x="657" 
d="M616 613l-31 -20q-66 115 -209 115q-148 0 -211 -87t-63 -258q0 -176 64.5 -260t210.5 -84q107 0 192 67l23 -31q-92 -70 -215 -70q-156 0 -234.5 90t-78.5 288q0 197 78.5 288t234.5 91q166 0 239 -129z" />
    <glyph glyph-name="D" unicode="D" horiz-adv-x="723" 
d="M659 363q0 -204 -88.5 -283.5t-282.5 -79.5h-193v727h221q177 0 260 -82t83 -282zM621 364q0 99 -20 164t-63.5 101t-101.5 50t-145 14h-160v-659h160q174 0 252 72t78 258z" />
    <glyph glyph-name="E" unicode="E" horiz-adv-x="579" 
d="M522 0h-427v727h427v-34h-391v-288h359v-34h-359v-337h391v-34z" />
    <glyph glyph-name="F" unicode="F" horiz-adv-x="551" 
d="M514 693h-383v-279h347v-34h-347v-380h-36v727h419v-34z" />
    <glyph glyph-name="G" unicode="G" horiz-adv-x="708" 
d="M625 613l-31 -20q-72 115 -216 115q-138 0 -207 -83t-69 -255q0 -180 67 -265.5t220 -85.5q91 0 199 55v212h-183v32h219v-263q-118 -70 -229 -70q-172 0 -251.5 93t-79.5 288q0 376 317 376q169 0 244 -129z" />
    <glyph glyph-name="H" unicode="H" horiz-adv-x="684" 
d="M589 0h-36v359h-422v-359h-36v727h36v-336h422v336h36v-727z" />
    <glyph glyph-name="I" unicode="I" horiz-adv-x="318" 
d="M265 0h-212v31h88v665h-88v31h212v-31h-88v-665h88v-31z" />
    <glyph glyph-name="J" unicode="J" horiz-adv-x="359" 
d="M270 160q0 -87 -31.5 -131t-124.5 -44q-46 0 -101 25l16 34q42 -25 90 -25q67 0 91 36t24 118v523h-154v31h190v-567z" />
    <glyph glyph-name="K" unicode="K" horiz-adv-x="612" 
d="M597 0h-43l-267 409l-156 -162v-247h-36v727h36v-434l412 434h48l-280 -293z" />
    <glyph glyph-name="L" unicode="L" horiz-adv-x="503" 
d="M490 0h-395v727h36v-693h359v-34z" />
    <glyph glyph-name="M" unicode="M" horiz-adv-x="813" 
d="M718 0h-36v688l-262 -480h-35l-254 481v-689h-36v727h55l254 -481l262 481h52v-727z" />
    <glyph glyph-name="N" unicode="N" horiz-adv-x="690" 
d="M595 0h-53l-411 679v-679h-36v727h48l416 -689v689h36v-727z" />
    <glyph glyph-name="O" unicode="O" horiz-adv-x="732" 
d="M668 363q0 -182 -70.5 -280t-232.5 -98q-161 0 -231 98.5t-70 279.5t70 280t231 99q84 0 143.5 -27t94 -78t50 -118.5t15.5 -155.5zM630 363q0 171 -60.5 258t-204.5 87q-142 0 -202.5 -87.5t-60.5 -257.5t60.5 -257t202.5 -87q144 0 204.5 87t60.5 257z" />
    <glyph glyph-name="P" unicode="P" horiz-adv-x="573" 
d="M531 532q0 -117 -60 -164t-194 -47h-146v-321h-36v727h189q118 0 182.5 -42t64.5 -153zM493 532q0 92 -55 127t-159 35h-148v-340h119q65 0 104 5.5t73.5 23t50 54t15.5 95.5z" />
    <glyph glyph-name="Q" unicode="Q" horiz-adv-x="732" 
d="M668 363q0 -173 -64.5 -270.5t-211.5 -106.5q16 -46 51.5 -74t115.5 -28q36 0 66 5l6 -32q-44 -7 -71 -7q-93 0 -141.5 34t-68.5 101q-153 5 -219.5 103.5t-66.5 274.5q0 181 70 280t231 99q84 0 143.5 -27t94 -78t50 -118.5t15.5 -155.5zM630 363q0 171 -60.5 258
t-204.5 87q-142 0 -202.5 -87.5t-60.5 -257.5t60.5 -257t202.5 -87q144 0 204.5 87t60.5 257z" />
    <glyph glyph-name="R" unicode="R" horiz-adv-x="630" 
d="M582 0h-38l-58 215q-15 56 -38 81t-71 25h-246v-321h-36v727h224q112 0 172 -43.5t60 -151.5q0 -148 -109 -192q49 -19 71 -96zM513 534q0 88 -49.5 124.5t-160.5 36.5h-172v-342h190q104 0 148 42t44 139z" />
    <glyph glyph-name="S" unicode="S" horiz-adv-x="624" 
d="M560 192q0 -48 -15.5 -85t-40 -59.5t-58.5 -37t-66.5 -20t-68.5 -5.5q-184 0 -260 140l31 19q75 -125 228 -125q56 0 101 14.5t78 54t33 99.5q0 63 -45 102t-139 60q-153 34 -212 74t-59 125q0 87 61.5 140.5t173.5 53.5q96 0 151 -33t88 -94l-32 -19q-35 57 -83 84.5
t-124 27.5q-91 0 -145 -42.5t-54 -114.5q0 -64 48 -99t177 -63q116 -26 174 -71t58 -126z" />
    <glyph glyph-name="T" unicode="T" horiz-adv-x="532" 
d="M528 693h-244v-693h-36v693h-244v34h524v-34z" />
    <glyph glyph-name="U" unicode="U" horiz-adv-x="673" 
d="M583 278q0 -165 -55 -229t-191 -64q-135 0 -191 65.5t-56 227.5v449h36v-439q0 -146 44.5 -207.5t166.5 -61.5q65 0 106.5 16t64 51.5t31 82t8.5 117.5v441h36v-449z" />
    <glyph glyph-name="V" unicode="V" horiz-adv-x="571" 
d="M558 727l-251 -727h-44l-250 727h38l234 -688l237 688h36z" />
    <glyph glyph-name="W" unicode="W" horiz-adv-x="854" 
d="M831 727l-183 -727h-49l-175 496l-181 -496h-48l-172 727h36l163 -691l179 494h48l174 -493l174 690h34z" />
    <glyph glyph-name="X" unicode="X" horiz-adv-x="578" 
d="M563 727l-251 -360l250 -367h-44l-229 335l-233 -335h-41l254 365l-247 362h44l225 -331l231 331h41z" />
    <glyph glyph-name="Y" unicode="Y" horiz-adv-x="567" 
d="M561 727l-258 -429v-298h-36v297l-261 430h41l238 -393l237 393h39z" />
    <glyph glyph-name="Z" unicode="Z" horiz-adv-x="554" 
d="M514 0h-482v27l422 666h-405v34h455v-18l-427 -675h437v-34z" />
    <glyph glyph-name="bracketleft" unicode="[" horiz-adv-x="349" 
d="M297 -193h-203v920h203v-30h-169v-860h169v-30z" />
    <glyph glyph-name="backslash" unicode="\" horiz-adv-x="337" 
d="M370 -146h-35l-375 888h35z" />
    <glyph glyph-name="bracketright" unicode="]" horiz-adv-x="349" 
d="M255 -193h-203v30h169v860h-169v30h203v-920z" />
    <glyph glyph-name="asciicircum" unicode="^" horiz-adv-x="577" 
d="M489 347h-31l-169 364l-170 -364h-31l179 386h43z" />
    <glyph glyph-name="underscore" unicode="_" horiz-adv-x="500" 
d="M506 -125h-512v50h512v-50z" />
    <glyph glyph-name="grave" unicode="`" horiz-adv-x="500" 
d="M286 590h-30l-142 176h56z" />
    <glyph glyph-name="a" unicode="a" horiz-adv-x="524" 
d="M441 0h-35v76q-101 -91 -199 -91q-75 0 -116.5 41t-41.5 109q0 43 15 73t43 46.5t58 25t71 12.5q35 3 88.5 7t81.5 7v42q0 76 -39 106.5t-116 30.5q-91 0 -149 -63l-25 26q70 70 175 70q95 0 142 -38.5t47 -134.5v-345zM406 115v159q-50 -5 -114 -9q-38 -2 -63.5 -5.5
t-55 -12t-47 -21.5t-29 -35.5t-11.5 -53.5q0 -58 31.5 -88.5t89.5 -30.5q48 0 100.5 27t98.5 70z" />
    <glyph glyph-name="b" unicode="b" horiz-adv-x="559" 
d="M505 256q0 -45 -10 -88.5t-33 -86.5t-67.5 -69.5t-105.5 -26.5q-82 0 -165 27l-30 -19h-5v734h35v-293q82 84 181 84q102 0 151 -71t49 -191zM468 254q0 39 -7 75t-23 73t-49.5 59.5t-79.5 22.5q-97 0 -185 -91v-345q82 -29 168 -29q79 0 127.5 64t48.5 171z" />
    <glyph glyph-name="c" unicode="c" horiz-adv-x="469" 
d="M445 435l-30 -19q-46 69 -143 69q-87 0 -134 -59.5t-47 -174.5q0 -109 44.5 -171t137.5 -62q67 0 136 48l21 -29q-73 -52 -154 -52q-118 0 -170 72.5t-52 193.5q0 267 224 267q117 0 167 -83z" />
    <glyph glyph-name="d" unicode="d" horiz-adv-x="559" 
d="M470 0h-35v69q-78 -84 -181 -84q-104 0 -152 72t-48 191q0 116 55 193t159 77q85 0 167 -68v277h35v-727zM435 110v301q-84 73 -167 73q-79 0 -128 -63.5t-49 -170.5q0 -39 7 -75.5t23 -73.5t49.5 -59.5t79.5 -22.5q55 0 98 23.5t87 67.5z" />
    <glyph glyph-name="e" unicode="e" horiz-adv-x="505" 
d="M461 256h-370q0 -238 182 -238q60 0 131 47l21 -29q-67 -51 -152 -51q-219 0 -219 261q0 128 52 200t164 72q191 0 191 -225v-37zM424 289q0 99 -34.5 147.5t-122.5 48.5q-81 0 -124.5 -52.5t-49.5 -143.5h331z" />
    <glyph glyph-name="f" unicode="f" horiz-adv-x="257" 
d="M325 725l-13 -32q-43 17 -79 17q-55 0 -76.5 -31t-21.5 -97v-79h130v-31h-130v-472h-35v472h-83v31h83v79q0 90 35.5 125t106.5 35q45 0 83 -17z" />
    <glyph glyph-name="g" unicode="g" horiz-adv-x="557" 
d="M544 472h-81v-472q0 -96 -48 -144.5t-160 -48.5q-46 0 -92 15t-62 26l19 33q64 -40 142 -40q83 0 124.5 38t41.5 122v80q-83 -81 -178 -81q-100 0 -148 67.5t-48 189.5q0 65 19.5 121.5t68 98t118.5 41.5q49 0 86.5 -16.5t81.5 -49.5v51h116v-31zM428 122v291
q-88 71 -168 71q-85 0 -127 -68.5t-42 -156.5q0 -98 37 -161.5t119 -63.5q48 0 90 22t91 66z" />
    <glyph glyph-name="h" unicode="h" horiz-adv-x="563" 
d="M478 0h-35v305q0 180 -122 180q-42 0 -95.5 -32t-101.5 -83v-370h-35v727h35v-318q58 58 106 83.5t99 25.5q76 0 112.5 -50t36.5 -137v-331z" />
    <glyph glyph-name="i" unicode="i" horiz-adv-x="270" 
d="M185 641q0 -20 -6.5 -27t-24.5 -7q-15 0 -22 6t-8 11.5t-1 16.5q0 19 5.5 27t25.5 8q6 0 11 -1t8.5 -2t5.5 -4t3.5 -4.5t2 -6t0.5 -5.5v-6v-6zM178 0h-35v472h-112v31h147v-503z" />
    <glyph glyph-name="j" unicode="j" horiz-adv-x="273" 
d="M185 641q0 -20 -6.5 -27t-24.5 -7q-15 0 -22 6t-8 11.5t-1 16.5q0 19 5.5 27t25.5 8q6 0 11 -1t8.5 -2t5.5 -4t3.5 -4.5t2 -6t0.5 -5.5v-6v-6zM178 -43q0 -78 -29 -114t-100 -36q-55 0 -85 14l11 33q38 -15 76 -15q54 0 73 32.5t19 107.5v493h-112v31h147v-546z" />
    <glyph glyph-name="k" unicode="k" horiz-adv-x="483" 
d="M473 0h-45l-199 269l-105 -103v-166h-35v727h35v-517l298 293h46l-216 -212z" />
    <glyph glyph-name="l" unicode="l" horiz-adv-x="257" 
d="M252 -8q-32 -7 -60 -7q-56 0 -79.5 33t-23.5 99v602l35 31v-621q0 -60 15 -86t56 -26q32 0 50 6z" />
    <glyph glyph-name="m" unicode="m" horiz-adv-x="843" 
d="M758 0h-35v304q0 94 -24.5 137.5t-80.5 43.5q-76 0 -179 -117q2 -32 2 -46v-322h-35v304q0 94 -23.5 137.5t-80.5 43.5q-77 0 -178 -115v-370h-35v503h35v-94q89 109 185 109q107 0 124 -118q96 118 195 118q130 0 130 -185v-333z" />
    <glyph glyph-name="n" unicode="n" horiz-adv-x="563" 
d="M478 0h-35v305q0 86 -27.5 133t-93.5 47q-87 0 -198 -115v-370h-35v503h35v-94q58 57 105.5 83t99.5 26q76 0 112.5 -50t36.5 -137v-331z" />
    <glyph glyph-name="o" unicode="o" horiz-adv-x="545" 
d="M491 251q0 -133 -58 -199.5t-160 -66.5q-103 0 -161 66.5t-58 199.5q0 134 58 200.5t161 66.5q102 0 160 -66.5t58 -200.5zM454 251q0 46 -8.5 85t-28 74t-56.5 55t-88 20q-52 0 -89 -20t-56.5 -55t-28 -74t-8.5 -85q0 -45 8.5 -84t28 -74t56.5 -55t89 -20q51 0 88 20
t56.5 54.5t28 73.5t8.5 85z" />
    <glyph glyph-name="p" unicode="p" horiz-adv-x="559" 
d="M505 256q0 -117 -54.5 -194t-159.5 -77q-83 0 -167 68v-246h-35v696h35v-69q33 36 81 60t100 24q104 0 152 -71.5t48 -190.5zM468 254q0 39 -7 75.5t-23.5 73.5t-49.5 59t-79 22q-53 0 -94.5 -22t-90.5 -69v-301q84 -73 167 -73q79 0 128 64t49 171z" />
    <glyph glyph-name="q" unicode="q" horiz-adv-x="559" 
d="M470 -193h-35v267q-82 -89 -181 -89q-104 0 -152 72t-48 191q0 44 10 87t32.5 86t67 70t104.5 27q81 0 167 -27l30 19h5v-703zM435 115v340q-87 29 -166 29q-82 0 -130 -63.5t-48 -170.5q0 -39 6.5 -75.5t23 -73.5t49.5 -59.5t80 -22.5q53 0 95 24t90 72z" />
    <glyph glyph-name="r" unicode="r" horiz-adv-x="331" 
d="M324 502l-16 -37q-9 6 -27 6q-19 0 -35.5 -4.5t-34.5 -16.5t-27 -19t-31 -27.5t-29 -26.5v-377h-35v503h35v-87q49 47 85.5 71t71.5 24q23 0 43 -9z" />
    <glyph glyph-name="s" unicode="s" horiz-adv-x="454" 
d="M408 132q0 -41 -17 -71.5t-46 -46t-61 -22.5t-68 -7q-49 0 -95.5 19t-75.5 60l29 22q49 -68 151 -68q35 0 66 9t56.5 36t25.5 69q0 40 -32 61.5t-103 39.5q-5 1 -30 7t-32 8t-28.5 9.5t-29 13l-22 16t-20 21.5t-10.5 27.5t-5 36.5q0 71 52.5 108.5t125.5 37.5
q118 0 167 -84l-30 -19q-44 70 -142 70q-28 0 -57.5 -8.5t-55 -34t-25.5 -62.5q0 -47 30 -70t120 -44q40 -9 63 -16.5t49 -22.5t38 -38.5t12 -56.5z" />
    <glyph glyph-name="t" unicode="t" horiz-adv-x="338" 
d="M323 -3q-41 -12 -83 -12q-61 0 -88.5 27t-27.5 102v358h-106v31h106v193l35 31v-224h147v-31h-147v-349q0 -20 1 -32.5t5.5 -28t12 -24.5t23 -15t36.5 -6q35 0 78 13z" />
    <glyph glyph-name="u" unicode="u" horiz-adv-x="563" 
d="M474 0h-35v94q-58 -57 -106 -83t-100 -26q-76 0 -112 51t-36 137v330h35v-305q0 -180 121 -180q87 0 198 116v369h35v-503z" />
    <glyph glyph-name="v" unicode="v" horiz-adv-x="452" 
d="M438 503l-186 -503h-50l-188 503h38l176 -475l174 475h36z" />
    <glyph glyph-name="w" unicode="w" horiz-adv-x="650" 
d="M632 503l-117 -503h-38l-153 354l-146 -354h-44l-116 503h37l104 -461l145 352h41l149 -347l103 456h35z" />
    <glyph glyph-name="x" unicode="x" horiz-adv-x="453" 
d="M441 0h-45l-170 224l-172 -224h-42l193 251l-191 252h45l169 -222l170 222h43l-192 -250z" />
    <glyph glyph-name="y" unicode="y" horiz-adv-x="477" 
d="M463 503l-244 -539q-40 -89 -72 -123t-87 -34q-47 0 -68 12l12 31q29 -11 66 -11q32 0 57.5 30t53.5 92l32 71l-195 471h38l177 -428l193 428h37z" />
    <glyph glyph-name="z" unicode="z" horiz-adv-x="411" 
d="M385 0h-358v39l313 432h-307v32h345v-36l-315 -435h322v-32z" />
    <glyph glyph-name="braceleft" unicode="{" horiz-adv-x="387" 
d="M345 -193h-5q-71 0 -105.5 46t-34.5 125v92q0 92 -39.5 137t-104.5 45h-13v45h12q67 0 106 46t39 137v91q0 80 35.5 125.5t104.5 45.5h5v-30h-7q-105 0 -105 -159v-80q0 -88 -33 -134t-106 -64q73 -18 106 -65.5t33 -133.5v-79q0 -159 105 -159h7v-31z" />
    <glyph glyph-name="bar" unicode="|" horiz-adv-x="362" 
d="M198 -193h-34v935h34v-935z" />
    <glyph glyph-name="braceright" unicode="}" horiz-adv-x="387" 
d="M344 252h-13q-65 0 -104.5 -45t-39.5 -137v-92q0 -79 -34.5 -125t-105.5 -46h-5v31h7q105 0 105 159v79q0 86 33 133.5t106 65.5q-73 18 -106 64t-33 134v80q0 159 -105 159h-7v30h5q69 0 104.5 -45.5t35.5 -125.5v-91q0 -91 39 -137t106 -46h12v-45z" />
    <glyph glyph-name="asciitilde" unicode="~" horiz-adv-x="633" 
d="M567 282q-35 -32 -63.5 -42t-69.5 -10q-46 0 -144 49q-62 30 -93 30q-40 0 -67.5 -13t-63.5 -50v39q49 53 127 53q50 0 139 -46q64 -33 102 -33q78 0 133 62v-39z" />
    <glyph glyph-name="uni00A0" unicode="&#xa0;" horiz-adv-x="255" 
 />
    <glyph glyph-name="exclamdown" unicode="&#xa1;" horiz-adv-x="219" 
d="M147 484q0 -20 -7.5 -28t-30.5 -8t-30 7.5t-7 28.5t7 27.5t30 6.5t30.5 -7.5t7.5 -26.5zM129 -193h-42l5 540h32z" />
    <glyph glyph-name="cent" unicode="&#xa2;" horiz-adv-x="478" 
d="M448 471l-30 -19q-24 36 -61 54l-162 -436q37 -16 81 -16q67 0 136 48l21 -29q-73 -52 -154 -52q-54 0 -96 17l-75 -204h-33l81 218q-99 60 -99 235q0 267 224 267q33 0 58 -6l72 194h33l-75 -203q49 -20 79 -68zM327 516q-27 5 -52 5q-87 0 -134 -59.5t-47 -174.5
q0 -144 74 -201z" />
    <glyph glyph-name="sterling" unicode="&#xa3;" horiz-adv-x="562" 
d="M530 0h-493v37q96 37 96 237q0 34 -2 53h-81v34h76q-5 23 -16 59t-17.5 68t-6.5 69q0 91 64.5 138t154.5 47q147 0 211 -98l-31 -23q-56 87 -177 87q-77 0 -130.5 -38.5t-53.5 -118.5q0 -46 18 -110.5t21 -79.5h214v-34h-209q4 -36 4 -53q0 -177 -83 -240h441v-34z" />
    <glyph glyph-name="currency" unicode="&#xa4;" horiz-adv-x="559" 
d="M519 148l-23 -24l-98 98q-55 -42 -118 -42q-64 0 -117 43l-100 -99l-23 24l98 99q-43 53 -43 117q0 69 42 118l-97 99l23 23l98 -96q54 44 119 44q66 0 119 -43l97 95l23 -23l-95 -97q43 -53 43 -120q0 -60 -43 -119zM431 364q0 63 -42 109t-109 46q-65 0 -107.5 -46
t-42.5 -109q0 -62 44 -107t106 -45q65 0 108 44.5t43 107.5z" />
    <glyph glyph-name="yen" unicode="&#xa5;" horiz-adv-x="567" 
d="M561 727l-211 -351h156v-32h-176l-27 -46v-52h203v-32h-203v-214h-36v214h-204v32h204v51l-28 47h-176v32h156l-213 351h41l238 -393l237 393h39z" />
    <glyph glyph-name="brokenbar" unicode="&#xa6;" horiz-adv-x="362" 
d="M198 431h-34v311h34v-311zM198 -193h-34v311h34v-311z" />
    <glyph glyph-name="section" unicode="&#xa7;" horiz-adv-x="468" 
d="M427 261q0 -56 -36.5 -95t-103.5 -79q53 -35 82 -67t29 -73q0 -68 -47.5 -104t-126.5 -36q-116 0 -167 58l25 24q45 -49 139 -49q57 0 98.5 24t41.5 83q0 27 -26.5 57t-55 48.5t-71.5 43.5t-52 31q-33 23 -54.5 41.5t-41 51t-19.5 68.5q0 55 37 95.5t103 78.5
q-50 34 -77.5 66t-27.5 74q0 67 47 103.5t125 36.5q115 0 162 -58l-25 -23q-47 48 -135 48q-59 0 -98 -24.5t-39 -81.5q0 -28 25.5 -58.5t52 -48.5t70.5 -43.5t52 -31.5q53 -36 83.5 -73t30.5 -87zM392 257q0 53 -64 108q-23 19 -121 81l-21 -14.5t-23 -16.5l-21 -16.5
t-22 -19l-16.5 -18.5t-15 -22t-8.5 -22.5t-4 -25.5q0 -28 21 -59.5t52 -54.5q58 -42 112 -74q3 2 31.5 22.5t38 29t28.5 27.5t26 37t7 38z" />
    <glyph glyph-name="dieresis" unicode="&#xa8;" horiz-adv-x="500" 
d="M363 641q0 -19 -7.5 -26.5t-25.5 -7.5q-12 0 -19.5 3t-10 8.5t-3.5 10t-1 12.5q0 18 6.5 26.5t27.5 8.5q15 0 23 -6.5t9 -12t1 -16.5zM201 641q0 -19 -7 -26.5t-25 -7.5q-12 0 -19.5 3t-10 8.5t-3.5 10t-1 12.5q0 18 6.5 26.5t26.5 8.5q15 0 23 -6.5t9 -12t1 -16.5z" />
    <glyph glyph-name="copyright" unicode="&#xa9;" horiz-adv-x="935" 
d="M882 327q0 -83 -32.5 -159.5t-88.5 -132.5t-133 -89t-160 -33t-160 33t-133 89t-89 132.5t-33 159.5t33 160t88 133q56 56 133 89t161 33t160.5 -33t132.5 -89q55 -56 88 -133t33 -160zM850 327q0 158 -112 270t-270 112t-270.5 -112t-112.5 -270t112 -269t271 -111
q158 0 270 111t112 269zM643 480l-28 -21q-41 71 -124 71q-87 0 -125 -52t-38 -150q0 -100 39.5 -149.5t124.5 -49.5q58 0 116 42l20 -28q-62 -46 -136 -46q-99 0 -149.5 55.5t-50.5 175.5q0 235 200 235q106 0 151 -83z" />
    <glyph glyph-name="ordfeminine" unicode="&#xaa;" horiz-adv-x="362" 
d="M299 405h-30v51q-72 -60 -129 -60q-50 0 -77.5 26.5t-27.5 69.5q0 56 33 78t91 28q60 7 110 12v19q0 85 -98 85q-56 0 -93 -32l-22 24q38 36 116 36q64 0 95.5 -26t31.5 -86v-225zM269 488v94l-86 -10q-65 -8 -85 -19q-31 -17 -31 -58q0 -71 79 -71q48 0 123 64z" />
    <glyph glyph-name="guillemotleft" unicode="&#xab;" horiz-adv-x="478" 
d="M454 26h-46l-207 227l207 226h46l-208 -226zM275 26h-46l-207 227l207 226h46l-208 -226z" />
    <glyph glyph-name="logicalnot" unicode="&#xac;" horiz-adv-x="649" 
d="M575 159h-31v220h-470v31h501v-251z" />
    <glyph glyph-name="uni00AD" unicode="&#xad;" horiz-adv-x="352" 
d="M317 231h-282v41h282v-41z" />
    <glyph glyph-name="registered" unicode="&#xae;" horiz-adv-x="935" 
d="M882 327q0 -83 -32.5 -159.5t-88.5 -132.5t-133 -89t-160 -33t-160 33t-133 89t-89 132.5t-33 159.5t33 160t88 133q56 56 133 89t161 33t160.5 -33t132.5 -89q55 -56 88 -133t33 -160zM850 327q0 158 -112 270t-270 112t-270.5 -112t-112.5 -270t112 -269t271 -111
q158 0 270 111t112 269zM633 105h-36l-37 134q-8 31 -22 45t-39 14h-143v-193h-34v447h133q157 0 157 -123q0 -91 -76 -117q24 -7 35.5 -19t18.5 -37zM578 431q0 49 -30 69t-98 20h-94v-190h93q75 0 102 21t27 80z" />
    <glyph glyph-name="macron" unicode="&#xaf;" horiz-adv-x="500" 
d="M391 612h-282v43h282v-43z" />
    <glyph glyph-name="degree" unicode="&#xb0;" horiz-adv-x="399" 
d="M339 604q0 -58 -41 -98.5t-97 -40.5q-58 0 -99.5 40.5t-41.5 98.5q0 57 41.5 97.5t98.5 40.5q58 0 98.5 -40.5t40.5 -97.5zM306 602q0 44 -30.5 75.5t-74.5 31.5q-46 0 -77 -31.5t-31 -73.5q0 -44 31.5 -75t76.5 -31q44 0 74.5 30t30.5 74z" />
    <glyph glyph-name="plusminus" unicode="&#xb1;" horiz-adv-x="649" 
d="M575 256h-235v-187h-31v187h-235v31h235v213h31v-213h235v-31zM575 0h-501v31h501v-31z" />
    <glyph glyph-name="twosuperior" unicode="&#xb2;" horiz-adv-x="448" 
d="M404 293h-339v33l153 118q77 61 102 93q35 45 35 88q0 38 -33 63t-90 25q-90 0 -146 -64l-22 18q59 75 164 75q71 0 115 -31t44 -87q0 -50 -31 -90.5t-102 -96.5l-153 -116h303v-28z" />
    <glyph glyph-name="threesuperior" unicode="&#xb3;" horiz-adv-x="448" 
d="M389 425q0 -72 -45 -108t-126 -36q-97 0 -147 64l23 18q45 -53 123 -53q140 0 140 113q0 52 -40 75.5t-102 23.5q-36 0 -66 -7v9l188 181h-251v28h287v-29l-161 -155q5 1 16 1q73 0 117 -33.5t44 -91.5z" />
    <glyph glyph-name="acute" unicode="&#xb4;" horiz-adv-x="500" 
d="M380 766l-142 -176h-30l116 176h56z" />
    <glyph glyph-name="mu" unicode="&#xb5;" horiz-adv-x="571" 
d="M478 0h-35v70q-72 -85 -158 -85q-48 0 -85.5 12t-75.5 48v-238h-35v696h35v-408q77 -74 160 -74q71 0 159 88v394h35v-503z" />
    <glyph glyph-name="paragraph" unicode="&#xb6;" horiz-adv-x="556" 
d="M536 699h-106v-892h-35v892h-125v-892h-35v530q-96 0 -153 48.5t-57 148.5q0 89 56.5 141t156.5 52h298v-28z" />
    <glyph glyph-name="periodcentered" unicode="&#xb7;" horiz-adv-x="219" 
d="M147 282q0 -20 -7.5 -27t-29.5 -7q-23 0 -31 7.5t-8 26.5q0 20 8 28t30 8q24 0 31 -7.5t7 -28.5z" />
    <glyph glyph-name="cedilla" unicode="&#xb8;" horiz-adv-x="500" 
d="M337 -103q0 -41 -30.5 -65.5t-85.5 -24.5q-44 0 -103 19l11 30q49 -20 98 -20q76 0 76 63q0 31 -28 48t-63 17l20 45h29l-11 -24q87 -17 87 -88z" />
    <glyph glyph-name="onesuperior" unicode="&#xb9;" horiz-adv-x="448" 
d="M346 293h-230v25h109v348q-60 -41 -120 -53v25q88 29 139 104h11v-424h91v-25z" />
    <glyph glyph-name="ordmasculine" unicode="&#xba;" horiz-adv-x="382" 
d="M338 568q0 -86 -38.5 -129t-109.5 -43q-146 0 -146 172q0 174 146 174q71 0 109.5 -43.5t38.5 -130.5zM306 568q0 146 -116 146q-114 0 -114 -146q0 -144 114 -144q63 0 89.5 41t26.5 103z" />
    <glyph glyph-name="guillemotright" unicode="&#xbb;" horiz-adv-x="478" 
d="M456 253l-207 -227h-46l208 227l-208 226h46zM277 253l-207 -227h-46l208 227l-208 226h46z" />
    <glyph glyph-name="onequarter" unicode="&#xbc;" horiz-adv-x="977" 
d="M912 -33h-73v-133h-28v133h-228v25l234 303h22v-303h73v-25zM711 727l-391 -878h-35l391 878h35zM346 293h-230v25h109v348q-60 -41 -120 -53v25q88 29 139 104h11v-424h91v-25zM811 -8v254l-196 -254h196z" />
    <glyph glyph-name="onehalf" unicode="&#xbd;" horiz-adv-x="977" 
d="M942 -154h-339v33l153 118q77 61 102 93q35 45 35 88q0 38 -33 63t-90 25q-90 0 -146 -64l-22 18q59 75 164 75q71 0 115 -31t44 -87q0 -50 -31 -90.5t-102 -96.5l-153 -116h303v-28zM701 727l-391 -878h-35l391 878h35zM346 293h-230v25h109v348q-60 -41 -120 -53v25
q88 29 139 104h11v-424h91v-25z" />
    <glyph glyph-name="threequarters" unicode="&#xbe;" horiz-adv-x="977" 
d="M912 -33h-73v-133h-28v133h-228v25l234 303h22v-303h73v-25zM731 727l-391 -878h-35l391 878h35zM389 425q0 -72 -45 -108t-126 -36q-97 0 -147 64l23 18q45 -53 123 -53q140 0 140 113q0 52 -40 75.5t-102 23.5q-36 0 -66 -7v9l188 181h-251v28h287v-29l-161 -155
q5 1 16 1q73 0 117 -33.5t44 -91.5zM811 -8v254l-196 -254h196z" />
    <glyph glyph-name="questiondown" unicode="&#xbf;" horiz-adv-x="452" 
d="M309 484q0 -20 -7.5 -27.5t-30.5 -7.5t-30 7.5t-7 27.5q0 21 7 27.5t30 6.5t30.5 -7.5t7.5 -26.5zM431 -111q-55 -82 -180 -82q-98 0 -151 45t-53 133q0 82 54 142q47 52 155 115v113h32v-130q-87 -51 -128 -86q-37 -32 -56 -67t-19 -87q0 -71 41.5 -108.5t122.5 -37.5
q104 0 155 72z" />
    <glyph glyph-name="Agrave" unicode="&#xc0;" horiz-adv-x="615" 
d="M602 0h-38l-91 246h-332l-92 -246h-36l273 727h48zM461 278l-152 417l-156 -417h308zM339 780h-30l-142 176h56z" />
    <glyph glyph-name="Aacute" unicode="&#xc1;" horiz-adv-x="615" 
d="M602 0h-38l-91 246h-332l-92 -246h-36l273 727h48zM461 278l-152 417l-156 -417h308zM445 956l-142 -176h-30l116 176h56z" />
    <glyph glyph-name="Acircumflex" unicode="&#xc2;" horiz-adv-x="615" 
d="M602 0h-38l-91 246h-332l-92 -246h-36l273 727h48zM461 278l-152 417l-156 -417h308zM445 780h-30l-106 134l-102 -134h-28l111 176h42z" />
    <glyph glyph-name="Atilde" unicode="&#xc3;" horiz-adv-x="615" 
d="M602 0h-38l-91 246h-332l-92 -246h-36l273 727h48zM461 278l-152 417l-156 -417h308zM458 907q0 -51 -21 -85.5t-67 -34.5q-41 0 -76 41q-40 47 -63 47q-28 0 -40.5 -28.5t-12.5 -59.5h-29q0 51 21.5 85.5t67.5 34.5q40 0 78 -44q30 -35 45 -41q8 -3 16 -3q27 0 39 28
t13 60h29z" />
    <glyph glyph-name="Adieresis" unicode="&#xc4;" horiz-adv-x="615" 
d="M602 0h-38l-91 246h-332l-92 -246h-36l273 727h48zM461 278l-152 417l-156 -417h308zM423 814q0 -19 -7.5 -26.5t-25.5 -7.5q-12 0 -19.5 3t-10 8.5t-3.5 10t-1 12.5q0 18 6.5 26.5t27.5 8.5q15 0 23 -6.5t9 -12t1 -16.5zM261 814q0 -19 -7 -26.5t-25 -7.5q-12 0 -19.5 3
t-10 8.5t-3.5 10t-1 12.5q0 18 6.5 26.5t26.5 8.5q15 0 23 -6.5t9 -12t1 -16.5z" />
    <glyph glyph-name="Aring" unicode="&#xc5;" horiz-adv-x="615" 
d="M602 0h-38l-91 246h-332l-92 -246h-36l265 705q-65 16 -65 99q0 45 26.5 72.5t70.5 27.5q43 0 70.5 -27t27.5 -73q0 -84 -65 -101zM378 804q0 36 -18.5 54.5t-49.5 18.5q-32 0 -49.5 -19t-17.5 -54q0 -77 67 -77q68 0 68 77zM461 278l-152 417l-156 -417h308z" />
    <glyph glyph-name="AE" unicode="&#xc6;" horiz-adv-x="848" 
d="M791 0h-378v256h-262l-101 -256h-37l290 727h488v-34h-342v-288h310v-34h-310v-337h342v-34zM413 288v405h-88l-161 -405h249z" />
    <glyph glyph-name="Ccedilla" unicode="&#xc7;" horiz-adv-x="657" 
d="M616 613l-31 -20q-66 115 -209 115q-148 0 -211 -87t-63 -258q0 -176 64.5 -260t210.5 -84q107 0 192 67l23 -31q-92 -70 -215 -70h-7q87 -17 87 -88q0 -41 -30.5 -65.5t-85.5 -24.5q-38 0 -103 19l11 30q49 -20 98 -20q76 0 76 63q0 31 -28 48t-63 17l10 22
q-139 9 -208.5 99.5t-69.5 277.5q0 197 78.5 288t234.5 91q166 0 239 -129z" />
    <glyph glyph-name="Egrave" unicode="&#xc8;" horiz-adv-x="579" 
d="M522 0h-427v727h427v-34h-391v-288h359v-34h-359v-337h391v-34zM349 780h-30l-142 176h56z" />
    <glyph glyph-name="Eacute" unicode="&#xc9;" horiz-adv-x="579" 
d="M522 0h-427v727h427v-34h-391v-288h359v-34h-359v-337h391v-34zM421 956l-142 -176h-30l116 176h56z" />
    <glyph glyph-name="Ecircumflex" unicode="&#xca;" horiz-adv-x="579" 
d="M522 0h-427v727h427v-34h-391v-288h359v-34h-359v-337h391v-34zM447 780h-30l-106 134l-102 -134h-28l111 176h42z" />
    <glyph glyph-name="Edieresis" unicode="&#xcb;" horiz-adv-x="579" 
d="M522 0h-427v727h427v-34h-391v-288h359v-34h-359v-337h391v-34zM426 814q0 -19 -7.5 -26.5t-25.5 -7.5q-12 0 -19.5 3t-10 8.5t-3.5 10t-1 12.5q0 18 6.5 26.5t27.5 8.5q15 0 23 -6.5t9 -12t1 -16.5zM264 814q0 -19 -7 -26.5t-25 -7.5q-12 0 -19.5 3t-10 8.5t-3.5 10
t-1 12.5q0 18 6.5 26.5t26.5 8.5q15 0 23 -6.5t9 -12t1 -16.5z" />
    <glyph glyph-name="Igrave" unicode="&#xcc;" horiz-adv-x="318" 
d="M265 0h-212v31h88v665h-88v31h212v-31h-88v-665h88v-31zM202 780h-30l-142 176h56z" />
    <glyph glyph-name="Iacute" unicode="&#xcd;" horiz-adv-x="318" 
d="M265 0h-212v31h88v665h-88v31h212v-31h-88v-665h88v-31zM276 956l-142 -176h-30l116 176h56z" />
    <glyph glyph-name="Icircumflex" unicode="&#xce;" horiz-adv-x="318" 
d="M266 0h-212v31h88v665h-88v31h212v-31h-88v-665h88v-31zM292 780h-30l-106 134l-102 -134h-28l111 176h42z" />
    <glyph glyph-name="Idieresis" unicode="&#xcf;" horiz-adv-x="318" 
d="M267 0h-212v31h88v665h-88v31h212v-31h-88v-665h88v-31zM271 814q0 -19 -7.5 -26.5t-25.5 -7.5q-15 0 -23 6t-9 11.5t-1 16.5q0 18 6.5 26.5t26.5 8.5q16 0 24 -6.5t8.5 -11.5t0.5 -17zM109 814q0 -19 -7 -26.5t-25 -7.5q-12 0 -19.5 3t-10 8.5t-3.5 10t-1 12.5
q0 18 6.5 26.5t27.5 8.5q15 0 22.5 -5.5t8.5 -11t1 -15.5v-3z" />
    <glyph glyph-name="Eth" unicode="&#xd0;" horiz-adv-x="723" 
d="M659 363q0 -204 -88.5 -283.5t-282.5 -79.5h-193v352h-78v34h78v341h221q177 0 260 -82t83 -282zM621 364q0 99 -20 164t-63.5 101t-101.5 50t-145 14h-160v-307h224v-34h-224v-318h160q174 0 252 72t78 258z" />
    <glyph glyph-name="Ntilde" unicode="&#xd1;" horiz-adv-x="690" 
d="M595 0h-53l-411 679v-679h-36v727h48l416 -689v689h36v-727zM503 907q0 -51 -21 -85.5t-67 -34.5q-41 0 -76 41q-40 47 -63 47q-28 0 -40.5 -28.5t-12.5 -59.5h-29q0 51 21 85.5t68 34.5q40 0 78 -44q30 -35 45 -41q8 -3 16 -3q27 0 39 28t13 60h29z" />
    <glyph glyph-name="Ograve" unicode="&#xd2;" horiz-adv-x="732" 
d="M668 363q0 -182 -70.5 -280t-232.5 -98q-161 0 -231 98.5t-70 279.5t70 280t231 99q84 0 143.5 -27t94 -78t50 -118.5t15.5 -155.5zM630 363q0 171 -60.5 258t-204.5 87q-142 0 -202.5 -87.5t-60.5 -257.5t60.5 -257t202.5 -87q144 0 204.5 87t60.5 257zM417 780h-30
l-142 176h56z" />
    <glyph glyph-name="Oacute" unicode="&#xd3;" horiz-adv-x="732" 
d="M668 363q0 -182 -70.5 -280t-232.5 -98q-161 0 -231 98.5t-70 279.5t70 280t231 99q84 0 143.5 -27t94 -78t50 -118.5t15.5 -155.5zM630 363q0 171 -60.5 258t-204.5 87q-142 0 -202.5 -87.5t-60.5 -257.5t60.5 -257t202.5 -87q144 0 204.5 87t60.5 257zM484 956
l-139 -176h-30l115 176h54z" />
    <glyph glyph-name="Ocircumflex" unicode="&#xd4;" horiz-adv-x="732" 
d="M668 363q0 -182 -70.5 -280t-232.5 -98q-161 0 -231 98.5t-70 279.5t70 280t231 99q84 0 143.5 -27t94 -78t50 -118.5t15.5 -155.5zM630 363q0 171 -60.5 258t-204.5 87q-142 0 -202.5 -87.5t-60.5 -257.5t60.5 -257t202.5 -87q144 0 204.5 87t60.5 257zM495 780h-30
l-106 134l-102 -134h-28l111 176h42z" />
    <glyph glyph-name="Otilde" unicode="&#xd5;" horiz-adv-x="732" 
d="M668 363q0 -182 -70.5 -280t-232.5 -98q-161 0 -231 98.5t-70 279.5t70 280t231 99q84 0 143.5 -27t94 -78t50 -118.5t15.5 -155.5zM630 363q0 171 -60.5 258t-204.5 87q-142 0 -202.5 -87.5t-60.5 -257.5t60.5 -257t202.5 -87q144 0 204.5 87t60.5 257zM523 907
q0 -51 -21 -85.5t-67 -34.5q-41 0 -76 41q-40 47 -63 47q-28 0 -40.5 -28.5t-12.5 -59.5h-29q0 51 21 85.5t68 34.5q40 0 78 -44q30 -35 45 -41q8 -3 16 -3q27 0 39 28t13 60h29z" />
    <glyph glyph-name="Odieresis" unicode="&#xd6;" horiz-adv-x="732" 
d="M668 363q0 -182 -70.5 -280t-232.5 -98q-161 0 -231 98.5t-70 279.5t70 280t231 99q84 0 143.5 -27t94 -78t50 -118.5t15.5 -155.5zM630 363q0 171 -60.5 258t-204.5 87q-142 0 -202.5 -87.5t-60.5 -257.5t60.5 -257t202.5 -87q144 0 204.5 87t60.5 257zM481 814
q0 -19 -7.5 -26.5t-25.5 -7.5q-12 0 -19.5 3t-10 8.5t-3.5 10t-1 12.5q0 18 6.5 26.5t27.5 8.5q15 0 23 -6.5t9 -12t1 -16.5zM319 814q0 -19 -7 -26.5t-25 -7.5q-12 0 -19.5 3t-10 8.5t-3.5 10t-1 12.5q0 18 6.5 26.5t26.5 8.5q15 0 23 -6.5t9 -12t1 -16.5z" />
    <glyph glyph-name="multiply" unicode="&#xd7;" horiz-adv-x="649" 
d="M544 88l-22 -22l-198 197l-196 -197l-22 22l197 196l-196 196l22 22l195 -196l196 196l22 -22l-196 -196z" />
    <glyph glyph-name="Oslash" unicode="&#xd8;" horiz-adv-x="732" 
d="M668 363q0 -182 -70.5 -280t-232.5 -98q-126 0 -199 64l-73 -105h-38l89 127q-80 94 -80 292q0 181 70 280t231 99q129 0 203 -66l62 88h38l-78 -111q78 -93 78 -290zM547 646q-64 62 -182 62q-142 0 -202.5 -87.5t-60.5 -257.5q0 -179 64 -261zM630 363q0 177 -61 259
l-382 -544q64 -59 178 -59q144 0 204.5 87t60.5 257z" />
    <glyph glyph-name="Ugrave" unicode="&#xd9;" horiz-adv-x="673" 
d="M583 278q0 -165 -55 -229t-191 -64q-135 0 -191 65.5t-56 227.5v449h36v-439q0 -146 44.5 -207.5t166.5 -61.5q65 0 106.5 16t64 51.5t31 82t8.5 117.5v441h36v-449zM391 780h-30l-142 176h56z" />
    <glyph glyph-name="Uacute" unicode="&#xda;" horiz-adv-x="673" 
d="M583 278q0 -165 -55 -229t-191 -64q-135 0 -191 65.5t-56 227.5v449h36v-439q0 -146 44.5 -207.5t166.5 -61.5q65 0 106.5 16t64 51.5t31 82t8.5 117.5v441h36v-449zM471 956l-142 -176h-30l116 176h56z" />
    <glyph glyph-name="Ucircumflex" unicode="&#xdb;" horiz-adv-x="673" 
d="M583 278q0 -165 -55 -229t-191 -64q-135 0 -191 65.5t-56 227.5v449h36v-439q0 -146 44.5 -207.5t166.5 -61.5q65 0 106.5 16t64 51.5t31 82t8.5 117.5v441h36v-449zM475 780h-30l-106 134l-102 -134h-28l111 176h42z" />
    <glyph glyph-name="Udieresis" unicode="&#xdc;" horiz-adv-x="673" 
d="M583 278q0 -165 -55 -229t-191 -64q-135 0 -191 65.5t-56 227.5v449h36v-439q0 -146 44.5 -207.5t166.5 -61.5q65 0 106.5 16t64 51.5t31 82t8.5 117.5v441h36v-449zM453 814q0 -19 -7.5 -26.5t-25.5 -7.5q-12 0 -19.5 3t-10 8.5t-3.5 10t-1 12.5q0 18 6.5 26.5t27.5 8.5
q15 0 23 -6.5t9 -12t1 -16.5zM291 814q0 -19 -7 -26.5t-25 -7.5q-12 0 -19.5 3t-10 8.5t-3.5 10t-1 12.5q0 18 6.5 26.5t26.5 8.5q15 0 23 -6.5t9 -12t1 -16.5z" />
    <glyph glyph-name="Yacute" unicode="&#xdd;" horiz-adv-x="567" 
d="M561 727l-258 -429v-298h-36v297l-261 430h41l238 -393l237 393h39zM405 956l-142 -176h-30l116 176h56z" />
    <glyph glyph-name="Thorn" unicode="&#xde;" horiz-adv-x="573" 
d="M531 389q0 -117 -60 -164t-194 -47h-146v-178h-36v727h36v-143h153q118 0 182.5 -42t64.5 -153zM493 389q0 92 -55 127t-159 35h-148v-340h119q65 0 104 5.5t73.5 23t50 54t15.5 95.5z" />
    <glyph glyph-name="germandbls" unicode="&#xdf;" horiz-adv-x="555" 
d="M501 218q0 -233 -213 -233q-51 0 -106 15v38q59 -19 115 -19q167 0 167 203q0 46 -15 79.5t-38 52.5t-59.5 29.5t-70.5 13.5t-81 3v37q46 0 81.5 5.5t68 20.5t50 45.5t17.5 75.5q0 124 -145 124q-154 0 -154 -193v-515h-35v511q0 231 191 231q80 0 129 -38t49 -111
q0 -157 -148 -170q95 -5 146 -57t51 -148z" />
    <glyph glyph-name="agrave" unicode="&#xe0;" horiz-adv-x="524" 
d="M441 0h-35v76q-101 -91 -199 -91q-75 0 -116.5 41t-41.5 109q0 43 15 73t43 46.5t58 25t71 12.5q35 3 88.5 7t81.5 7v42q0 76 -39 106.5t-116 30.5q-91 0 -149 -63l-25 26q70 70 175 70q95 0 142 -38.5t47 -134.5v-345zM406 115v159q-50 -5 -114 -9q-38 -2 -63.5 -5.5
t-55 -12t-47 -21.5t-29 -35.5t-11.5 -53.5q0 -58 31.5 -88.5t89.5 -30.5q48 0 100.5 27t98.5 70zM317 590h-30l-142 176h56z" />
    <glyph glyph-name="aacute" unicode="&#xe1;" horiz-adv-x="524" 
d="M441 0h-35v76q-101 -91 -199 -91q-75 0 -116.5 41t-41.5 109q0 43 15 73t43 46.5t58 25t71 12.5q35 3 88.5 7t81.5 7v42q0 76 -39 106.5t-116 30.5q-91 0 -149 -63l-25 26q70 70 175 70q95 0 142 -38.5t47 -134.5v-345zM406 115v159q-50 -5 -114 -9q-38 -2 -63.5 -5.5
t-55 -12t-47 -21.5t-29 -35.5t-11.5 -53.5q0 -58 31.5 -88.5t89.5 -30.5q48 0 100.5 27t98.5 70zM380 766l-142 -176h-30l116 176h56z" />
    <glyph glyph-name="acircumflex" unicode="&#xe2;" horiz-adv-x="524" 
d="M441 0h-35v76q-101 -91 -199 -91q-75 0 -116.5 41t-41.5 109q0 43 15 73t43 46.5t58 25t71 12.5q35 3 88.5 7t81.5 7v42q0 76 -39 106.5t-116 30.5q-91 0 -149 -63l-25 26q70 70 175 70q95 0 142 -38.5t47 -134.5v-345zM406 115v159q-50 -5 -114 -9q-38 -2 -63.5 -5.5
t-55 -12t-47 -21.5t-29 -35.5t-11.5 -53.5q0 -58 31.5 -88.5t89.5 -30.5q48 0 100.5 27t98.5 70zM395 590h-30l-106 134l-102 -134h-28l111 176h42z" />
    <glyph glyph-name="atilde" unicode="&#xe3;" horiz-adv-x="524" 
d="M441 0h-35v76q-101 -91 -199 -91q-75 0 -116.5 41t-41.5 109q0 43 15 73t43 46.5t58 25t71 12.5q35 3 88.5 7t81.5 7v42q0 76 -39 106.5t-116 30.5q-91 0 -149 -63l-25 26q70 70 175 70q95 0 142 -38.5t47 -134.5v-345zM406 115v159q-50 -5 -114 -9q-38 -2 -63.5 -5.5
t-55 -12t-47 -21.5t-29 -35.5t-11.5 -53.5q0 -58 31.5 -88.5t89.5 -30.5q48 0 100.5 27t98.5 70zM414 738q0 -51 -21 -85.5t-67 -34.5q-41 0 -76 41q-40 47 -63 47q-28 0 -40.5 -28.5t-12.5 -59.5h-29q0 51 21.5 85.5t67.5 34.5q40 0 78 -44q30 -35 45 -41q8 -3 16 -3
q27 0 39 28t13 60h29z" />
    <glyph glyph-name="adieresis" unicode="&#xe4;" horiz-adv-x="524" 
d="M441 0h-35v76q-101 -91 -199 -91q-75 0 -116.5 41t-41.5 109q0 43 15 73t43 46.5t58 25t71 12.5q35 3 88.5 7t81.5 7v42q0 76 -39 106.5t-116 30.5q-91 0 -149 -63l-25 26q70 70 175 70q95 0 142 -38.5t47 -134.5v-345zM406 115v159q-50 -5 -114 -9q-38 -2 -63.5 -5.5
t-55 -12t-47 -21.5t-29 -35.5t-11.5 -53.5q0 -58 31.5 -88.5t89.5 -30.5q48 0 100.5 27t98.5 70zM371 641q0 -19 -7.5 -26.5t-25.5 -7.5q-12 0 -19.5 3t-10 8.5t-3.5 10t-1 12.5q0 18 6.5 26.5t27.5 8.5q15 0 23 -6.5t9 -12t1 -16.5zM209 641q0 -19 -7 -26.5t-25 -7.5
q-12 0 -19.5 3t-10 8.5t-3.5 10t-1 12.5q0 18 6.5 26.5t26.5 8.5q15 0 23 -6.5t9 -12t1 -16.5z" />
    <glyph glyph-name="aring" unicode="&#xe5;" horiz-adv-x="524" 
d="M441 0h-35v76q-101 -91 -199 -91q-75 0 -116.5 41t-41.5 109q0 43 15 73t43 46.5t58 25t71 12.5q35 3 88.5 7t81.5 7v42q0 76 -39 106.5t-116 30.5q-91 0 -149 -63l-25 26q70 70 175 70q95 0 142 -38.5t47 -134.5v-345zM406 115v159q-50 -5 -114 -9q-38 -2 -63.5 -5.5
t-55 -12t-47 -21.5t-29 -35.5t-11.5 -53.5q0 -58 31.5 -88.5t89.5 -30.5q48 0 100.5 27t98.5 70zM339 657q0 -39 -20.5 -61t-58.5 -22q-76 0 -76 83t75 83q80 0 80 -83zM312 657q0 58 -52 58q-23 0 -36 -15.5t-13 -42.5q0 -58 48 -58q53 0 53 58z" />
    <glyph glyph-name="ae" unicode="&#xe6;" horiz-adv-x="821" 
d="M777 256h-354q0 -238 174 -238q57 0 125 47l21 -29q-65 -51 -146 -51q-137 0 -185 115l-24 -24q-93 -91 -188 -91q-72 0 -111.5 41t-39.5 109q0 43 14 73t41 46.5t55.5 25t67.5 12.5q33 3 83.5 7t77.5 7v42q0 75 -37 106t-109 31q-86 0 -141 -63l-26 26q67 70 168 70
q74 0 117 -25t57 -84q48 109 177 109q183 0 183 -225v-37zM740 289q0 98 -33 147t-115 49q-77 0 -119 -52.5t-48 -143.5h315zM402 130q-14 50 -14 116v28q-52 -5 -107 -9q-36 -2 -60.5 -5.5t-52 -12t-44 -21.5t-27.5 -35.5t-11 -53.5q0 -58 29.5 -88.5t84.5 -30.5
q99 0 202 112z" />
    <glyph glyph-name="ccedilla" unicode="&#xe7;" horiz-adv-x="469" 
d="M445 435l-30 -19q-46 69 -143 69q-87 0 -134 -59.5t-47 -174.5q0 -109 44.5 -171t137.5 -62q67 0 136 48l21 -29q-73 -52 -154 -52h-18q87 -17 87 -88q0 -41 -30.5 -65.5t-85.5 -24.5q-38 0 -103 19l11 30q49 -20 98 -20q76 0 76 63q0 31 -28 48t-63 17l11 24
q-177 27 -177 263q0 267 224 267q117 0 167 -83z" />
    <glyph glyph-name="egrave" unicode="&#xe8;" horiz-adv-x="505" 
d="M461 256h-370q0 -238 182 -238q60 0 131 47l21 -29q-67 -51 -152 -51q-219 0 -219 261q0 128 52 200t164 72q191 0 191 -225v-37zM424 289q0 99 -34.5 147.5t-122.5 48.5q-81 0 -124.5 -52.5t-49.5 -143.5h331zM314 590h-30l-142 176h56z" />
    <glyph glyph-name="eacute" unicode="&#xe9;" horiz-adv-x="505" 
d="M461 256h-370q0 -238 182 -238q60 0 131 47l21 -29q-67 -51 -152 -51q-219 0 -219 261q0 128 52 200t164 72q191 0 191 -225v-37zM424 289q0 99 -34.5 147.5t-122.5 48.5q-81 0 -124.5 -52.5t-49.5 -143.5h331zM385 766l-142 -176h-30l116 176h56z" />
    <glyph glyph-name="ecircumflex" unicode="&#xea;" horiz-adv-x="505" 
d="M461 256h-370q0 -238 182 -238q60 0 131 47l21 -29q-67 -51 -152 -51q-219 0 -219 261q0 128 52 200t164 72q191 0 191 -225v-37zM424 289q0 99 -34.5 147.5t-122.5 48.5q-81 0 -124.5 -52.5t-49.5 -143.5h331zM403 590h-30l-106 134l-102 -134h-28l111 176h42z" />
    <glyph glyph-name="edieresis" unicode="&#xeb;" horiz-adv-x="505" 
d="M461 256h-370q0 -238 182 -238q60 0 131 47l21 -29q-67 -51 -152 -51q-219 0 -219 261q0 128 52 200t164 72q191 0 191 -225v-37zM424 289q0 99 -34.5 147.5t-122.5 48.5q-81 0 -124.5 -52.5t-49.5 -143.5h331zM374 641q0 -19 -7.5 -26.5t-25.5 -7.5q-12 0 -19.5 3
t-10 8.5t-3.5 10t-1 12.5q0 18 6.5 26.5t27.5 8.5q15 0 23 -6.5t9 -12t1 -16.5zM212 641q0 -19 -7 -26.5t-25 -7.5q-12 0 -19.5 3t-10 8.5t-3.5 10t-1 12.5q0 18 6.5 26.5t26.5 8.5q15 0 23 -6.5t9 -12t1 -16.5z" />
    <glyph glyph-name="igrave" unicode="&#xec;" horiz-adv-x="270" 
d="M178 0h-35v472h-112v31h147v-503zM180 590h-30l-142 176h56z" />
    <glyph glyph-name="iacute" unicode="&#xed;" horiz-adv-x="270" 
d="M178 0h-35v472h-112v31h147v-503zM251 766l-142 -176h-30l116 176h56z" />
    <glyph glyph-name="icircumflex" unicode="&#xee;" horiz-adv-x="270" 
d="M178 0h-35v472h-112v31h147v-503zM268 590h-30l-106 134l-102 -134h-28l111 176h42z" />
    <glyph glyph-name="idieresis" unicode="&#xef;" horiz-adv-x="270" 
d="M178 0h-35v472h-112v31h147v-503zM233 641q0 -19 -7.5 -26.5t-25.5 -7.5q-12 0 -19.5 3t-10 8.5t-3.5 10t-1 12.5q0 18 6.5 26.5t27.5 8.5q15 0 23 -6.5t9 -12t1 -16.5zM71 641q0 -19 -7 -26.5t-25 -7.5q-12 0 -19.5 3t-10 8.5t-3.5 10t-1 12.5q0 18 6.5 26.5t26.5 8.5
q15 0 23 -6.5t9 -12t1 -16.5z" />
    <glyph glyph-name="eth" unicode="&#xf0;" horiz-adv-x="545" 
d="M491 245q0 -120 -53.5 -190t-162.5 -70q-113 0 -167 70t-54 189q0 121 54.5 190t145.5 69q54 0 92.5 -13t75.5 -49q-44 109 -144 209l-100 -69l-15 20l96 67q-48 47 -84 74h40q14 -10 38 -30l31 -26l77 56l15 -20l-73 -53q188 -183 188 -424zM454 245q0 225 -183 225
q-51 0 -88 -19.5t-56 -54t-27.5 -71.5t-8.5 -81q0 -100 44.5 -163t139.5 -63q50 0 86.5 20.5t56 55t28 72t8.5 79.5z" />
    <glyph glyph-name="ntilde" unicode="&#xf1;" horiz-adv-x="563" 
d="M478 0h-35v305q0 86 -27.5 133t-93.5 47q-87 0 -198 -115v-370h-35v503h35v-94q58 57 105.5 83t99.5 26q76 0 112.5 -50t36.5 -137v-331zM445 738q0 -51 -21 -85.5t-67 -34.5q-41 0 -76 41q-40 47 -63 47q-28 0 -40.5 -28.5t-12.5 -59.5h-29q0 51 21.5 85.5t67.5 34.5
q40 0 78 -44q30 -35 45 -41q8 -3 16 -3q27 0 39 28t13 60h29z" />
    <glyph glyph-name="ograve" unicode="&#xf2;" horiz-adv-x="545" 
d="M491 251q0 -133 -58 -199.5t-160 -66.5q-103 0 -161 66.5t-58 199.5q0 134 58 200.5t161 66.5q102 0 160 -66.5t58 -200.5zM454 251q0 46 -8.5 85t-28 74t-56.5 55t-88 20q-52 0 -89 -20t-56.5 -55t-28 -74t-8.5 -85q0 -45 8.5 -84t28 -74t56.5 -55t89 -20q51 0 88 20
t56.5 54.5t28 73.5t8.5 85zM314 590h-30l-142 176h56z" />
    <glyph glyph-name="oacute" unicode="&#xf3;" horiz-adv-x="545" 
d="M491 251q0 -133 -58 -199.5t-160 -66.5q-103 0 -161 66.5t-58 199.5q0 134 58 200.5t161 66.5q102 0 160 -66.5t58 -200.5zM454 251q0 46 -8.5 85t-28 74t-56.5 55t-88 20q-52 0 -89 -20t-56.5 -55t-28 -74t-8.5 -85q0 -45 8.5 -84t28 -74t56.5 -55t89 -20q51 0 88 20
t56.5 54.5t28 73.5t8.5 85zM416 766l-142 -176h-30l116 176h56z" />
    <glyph glyph-name="ocircumflex" unicode="&#xf4;" horiz-adv-x="545" 
d="M491 251q0 -133 -58 -199.5t-160 -66.5q-103 0 -161 66.5t-58 199.5q0 134 58 200.5t161 66.5q102 0 160 -66.5t58 -200.5zM454 251q0 46 -8.5 85t-28 74t-56.5 55t-88 20q-52 0 -89 -20t-56.5 -55t-28 -74t-8.5 -85q0 -45 8.5 -84t28 -74t56.5 -55t89 -20q51 0 88 20
t56.5 54.5t28 73.5t8.5 85zM402 590h-30l-106 134l-102 -134h-28l111 176h42z" />
    <glyph glyph-name="otilde" unicode="&#xf5;" horiz-adv-x="545" 
d="M491 251q0 -133 -58 -199.5t-160 -66.5q-103 0 -161 66.5t-58 199.5q0 134 58 200.5t161 66.5q102 0 160 -66.5t58 -200.5zM454 251q0 46 -8.5 85t-28 74t-56.5 55t-88 20q-52 0 -89 -20t-56.5 -55t-28 -74t-8.5 -85q0 -45 8.5 -84t28 -74t56.5 -55t89 -20q51 0 88 20
t56.5 54.5t28 73.5t8.5 85zM421 738q0 -51 -21 -85.5t-67 -34.5q-41 0 -76 41q-40 47 -63 47q-28 0 -40.5 -28.5t-12.5 -59.5h-29q0 51 21 85.5t68 34.5q40 0 78 -44q30 -35 45 -41q8 -3 16 -3q27 0 39 28t13 60h29z" />
    <glyph glyph-name="odieresis" unicode="&#xf6;" horiz-adv-x="545" 
d="M491 251q0 -133 -58 -199.5t-160 -66.5q-103 0 -161 66.5t-58 199.5q0 134 58 200.5t161 66.5q102 0 160 -66.5t58 -200.5zM454 251q0 46 -8.5 85t-28 74t-56.5 55t-88 20q-52 0 -89 -20t-56.5 -55t-28 -74t-8.5 -85q0 -45 8.5 -84t28 -74t56.5 -55t89 -20q51 0 88 20
t56.5 54.5t28 73.5t8.5 85zM389 641q0 -19 -7.5 -26.5t-25.5 -7.5q-12 0 -19.5 3t-10 8.5t-3.5 10t-1 12.5q0 18 6.5 26.5t27.5 8.5q15 0 23 -6.5t9 -12t1 -16.5zM227 641q0 -19 -7 -26.5t-25 -7.5q-12 0 -19.5 3t-10 8.5t-3.5 10t-1 12.5q0 18 6.5 26.5t26.5 8.5
q15 0 23 -6.5t9 -12t1 -16.5z" />
    <glyph glyph-name="divide" unicode="&#xf7;" horiz-adv-x="649" 
d="M359 498q0 -20 -7.5 -28t-26.5 -8q-16 0 -24 6t-9.5 12.5t-1.5 17.5q0 19 6.5 27.5t28.5 8.5q16 0 24 -6.5t9 -12.5t1 -17zM575 269h-501v31h501v-31zM359 71q0 -20 -7.5 -28t-26.5 -8q-16 0 -24 6t-9.5 12.5t-1.5 17.5q0 19 6.5 27.5t28.5 8.5q16 0 24 -6.5t9 -12.5
t1 -17z" />
    <glyph glyph-name="oslash" unicode="&#xf8;" horiz-adv-x="545" 
d="M491 251q0 -133 -58 -199.5t-160 -66.5q-80 0 -133 40l-41 -62h-36l55 82q-64 67 -64 206q0 134 58 200.5t161 66.5q83 0 134 -41l43 63h36l-56 -84q61 -69 61 -205zM454 251q0 111 -46 173l-248 -369q45 -37 113 -37q51 0 88 20t56.5 54.5t28 73.5t8.5 85zM387 446
q-44 39 -114 39q-52 0 -89 -20t-56.5 -55t-28 -74t-8.5 -85q0 -114 48 -174z" />
    <glyph glyph-name="ugrave" unicode="&#xf9;" horiz-adv-x="563" 
d="M474 0h-35v94q-58 -57 -106 -83t-100 -26q-76 0 -112 51t-36 137v330h35v-305q0 -180 121 -180q87 0 198 116v369h35v-503zM335 590h-30l-142 176h56z" />
    <glyph glyph-name="uacute" unicode="&#xfa;" horiz-adv-x="563" 
d="M474 0h-35v94q-58 -57 -106 -83t-100 -26q-76 0 -112 51t-36 137v330h35v-305q0 -180 121 -180q87 0 198 116v369h35v-503zM418 766l-142 -176h-30l116 176h56z" />
    <glyph glyph-name="ucircumflex" unicode="&#xfb;" horiz-adv-x="563" 
d="M474 0h-35v94q-58 -57 -106 -83t-100 -26q-76 0 -112 51t-36 137v330h35v-305q0 -180 121 -180q87 0 198 116v369h35v-503zM406 590h-30l-106 134l-102 -134h-28l111 176h42z" />
    <glyph glyph-name="udieresis" unicode="&#xfc;" horiz-adv-x="563" 
d="M474 0h-35v94q-58 -57 -106 -83t-100 -26q-76 0 -112 51t-36 137v330h35v-305q0 -180 121 -180q87 0 198 116v369h35v-503zM397 641q0 -19 -7.5 -26.5t-25.5 -7.5q-12 0 -19.5 3t-10 8.5t-3.5 10t-1 12.5q0 18 6.5 26.5t27.5 8.5q15 0 23 -6.5t9 -12t1 -16.5zM235 641
q0 -19 -7 -26.5t-25 -7.5q-12 0 -19.5 3t-10 8.5t-3.5 10t-1 12.5q0 18 6.5 26.5t26.5 8.5q15 0 23 -6.5t9 -12t1 -16.5z" />
    <glyph glyph-name="yacute" unicode="&#xfd;" horiz-adv-x="477" 
d="M463 503l-244 -539q-40 -89 -72 -123t-87 -34q-47 0 -68 12l12 31q29 -11 66 -11q32 0 57.5 30t53.5 92l32 71l-195 471h38l177 -428l193 428h37zM371 766l-142 -176h-30l116 176h56z" />
    <glyph glyph-name="thorn" unicode="&#xfe;" horiz-adv-x="559" 
d="M505 256q0 -117 -54.5 -194t-159.5 -77q-83 0 -167 68v-246h-35v920h35v-293q33 36 81 60t100 24q104 0 152 -71.5t48 -190.5zM468 254q0 39 -7 75.5t-23.5 73.5t-49.5 59t-79 22q-96 0 -185 -91v-301q84 -73 167 -73q79 0 128 64t49 171z" />
    <glyph glyph-name="ydieresis" unicode="&#xff;" horiz-adv-x="477" 
d="M463 503l-244 -539q-40 -89 -72 -123t-87 -34q-47 0 -68 12l12 31q29 -11 66 -11q32 0 57.5 30t53.5 92l32 71l-195 471h38l177 -428l193 428h37zM346 641q0 -19 -7.5 -26.5t-25.5 -7.5q-12 0 -19.5 3t-10 8.5t-3.5 10t-1 12.5q0 18 6.5 26.5t27.5 8.5q15 0 23 -6.5
t9 -12t1 -16.5zM184 641q0 -19 -7 -26.5t-25 -7.5q-12 0 -19.5 3t-10 8.5t-3.5 10t-1 12.5q0 18 6.5 26.5t26.5 8.5q15 0 23 -6.5t9 -12t1 -16.5z" />
    <glyph glyph-name="Amacron" unicode="&#x100;" horiz-adv-x="615" 
d="M602 0h-38l-91 246h-332l-92 -246h-36l273 727h48zM461 278l-152 417l-156 -417h308zM448 780h-282v43h282v-43z" />
    <glyph glyph-name="amacron" unicode="&#x101;" horiz-adv-x="524" 
d="M441 0h-35v76q-101 -91 -199 -91q-75 0 -116.5 41t-41.5 109q0 43 15 73t43 46.5t58 25t71 12.5q35 3 88.5 7t81.5 7v42q0 76 -39 106.5t-116 30.5q-91 0 -149 -63l-25 26q70 70 175 70q95 0 142 -38.5t47 -134.5v-345zM406 115v159q-50 -5 -114 -9q-38 -2 -63.5 -5.5
t-55 -12t-47 -21.5t-29 -35.5t-11.5 -53.5q0 -58 31.5 -88.5t89.5 -30.5q48 0 100.5 27t98.5 70zM403 612h-282v43h282v-43z" />
    <glyph glyph-name="Abreve" unicode="&#x102;" horiz-adv-x="615" 
d="M602 0h-38l-91 246h-332l-92 -246h-36l273 727h48zM461 278l-152 417l-156 -417h308zM440 918q-35 -138 -136 -138q-54 0 -87 44t-43 94h27q17 -45 40.5 -67.5t64.5 -22.5q74 0 105 90h29z" />
    <glyph glyph-name="abreve" unicode="&#x103;" horiz-adv-x="524" 
d="M441 0h-35v76q-101 -91 -199 -91q-75 0 -116.5 41t-41.5 109q0 43 15 73t43 46.5t58 25t71 12.5q35 3 88.5 7t81.5 7v42q0 76 -39 106.5t-116 30.5q-91 0 -149 -63l-25 26q70 70 175 70q95 0 142 -38.5t47 -134.5v-345zM406 115v159q-50 -5 -114 -9q-38 -2 -63.5 -5.5
t-55 -12t-47 -21.5t-29 -35.5t-11.5 -53.5q0 -58 31.5 -88.5t89.5 -30.5q48 0 100.5 27t98.5 70zM395 747q-35 -138 -136 -138q-54 0 -87 44t-43 94h27q17 -45 40.5 -67.5t64.5 -22.5q74 0 105 90h29z" />
    <glyph glyph-name="Aogonek" unicode="&#x104;" horiz-adv-x="615" 
d="M602 0h-4q-16 -46 -16 -83q0 -42 18 -59.5t56 -17.5q29 0 83 23l12 -25q-50 -31 -105 -31q-50 0 -75.5 29t-25.5 75q0 44 18 90l-90 245h-332l-92 -246h-36l273 727h48zM461 278l-152 417l-156 -417h308z" />
    <glyph glyph-name="aogonek" unicode="&#x105;" horiz-adv-x="524" 
d="M582 -162q-50 -31 -105 -31q-50 0 -75.5 29t-25.5 75q0 47 30 117v48q-101 -91 -199 -91q-75 0 -116.5 41t-41.5 109q0 43 15 73t43 46.5t58 25t71 12.5q35 3 88.5 7t81.5 7v42q0 76 -39 106.5t-116 30.5q-91 0 -149 -63l-25 26q70 70 175 70q95 0 142 -38.5t47 -134.5
v-345h-12q-16 -46 -16 -83q0 -42 18 -59.5t56 -17.5q29 0 83 23zM406 115v159q-50 -5 -114 -9q-38 -2 -63.5 -5.5t-55 -12t-47 -21.5t-29 -35.5t-11.5 -53.5q0 -58 31.5 -88.5t89.5 -30.5q48 0 100.5 27t98.5 70z" />
    <glyph glyph-name="Cacute" unicode="&#x106;" horiz-adv-x="657" 
d="M616 613l-31 -20q-66 115 -209 115q-148 0 -211 -87t-63 -258q0 -176 64.5 -260t210.5 -84q107 0 192 67l23 -31q-92 -70 -215 -70q-156 0 -234.5 90t-78.5 288q0 197 78.5 288t234.5 91q166 0 239 -129zM483 956l-142 -176h-30l116 176h56z" />
    <glyph glyph-name="cacute" unicode="&#x107;" horiz-adv-x="469" 
d="M445 435l-30 -19q-46 69 -143 69q-87 0 -134 -59.5t-47 -174.5q0 -109 44.5 -171t137.5 -62q67 0 136 48l21 -29q-73 -52 -154 -52q-118 0 -170 72.5t-52 193.5q0 267 224 267q117 0 167 -83zM382 766l-142 -176h-30l116 176h56z" />
    <glyph glyph-name="Ccircumflex" unicode="&#x108;" horiz-adv-x="657" 
d="M616 613l-31 -20q-66 115 -209 115q-148 0 -211 -87t-63 -258q0 -176 64.5 -260t210.5 -84q107 0 192 67l23 -31q-92 -70 -215 -70q-156 0 -234.5 90t-78.5 288q0 197 78.5 288t234.5 91q166 0 239 -129zM506 780h-30l-106 134l-102 -134h-28l111 176h42z" />
    <glyph glyph-name="ccircumflex" unicode="&#x109;" horiz-adv-x="469" 
d="M445 435l-30 -19q-46 69 -143 69q-87 0 -134 -59.5t-47 -174.5q0 -109 44.5 -171t137.5 -62q67 0 136 48l21 -29q-73 -52 -154 -52q-118 0 -170 72.5t-52 193.5q0 267 224 267q117 0 167 -83zM403 590h-30l-106 134l-102 -134h-28l111 176h42z" />
    <glyph glyph-name="Cdotaccent" unicode="&#x10a;" horiz-adv-x="657" 
d="M616 613l-31 -20q-66 115 -209 115q-148 0 -211 -87t-63 -258q0 -176 64.5 -260t210.5 -84q107 0 192 67l23 -31q-92 -70 -215 -70q-156 0 -234.5 90t-78.5 288q0 197 78.5 288t234.5 91q166 0 239 -129zM399 814q0 -19 -7.5 -26.5t-26.5 -7.5q-21 0 -27.5 9t-6.5 25
q0 18 7 26.5t27 8.5q16 0 24 -6.5t9 -12t1 -16.5z" />
    <glyph glyph-name="cdotaccent" unicode="&#x10b;" horiz-adv-x="469" 
d="M445 435l-30 -19q-46 69 -143 69q-87 0 -134 -59.5t-47 -174.5q0 -109 44.5 -171t137.5 -62q67 0 136 48l21 -29q-73 -52 -154 -52q-118 0 -170 72.5t-52 193.5q0 267 224 267q117 0 167 -83zM300 641q0 -19 -7.5 -26.5t-26.5 -7.5q-22 0 -28 9t-6 25q0 18 7 26.5t27 8.5
q16 0 24 -6.5t9 -12t1 -16.5z" />
    <glyph glyph-name="Ccaron" unicode="&#x10c;" horiz-adv-x="657" 
d="M616 613l-31 -20q-66 115 -209 115q-148 0 -211 -87t-63 -258q0 -176 64.5 -260t210.5 -84q107 0 192 67l23 -31q-92 -70 -215 -70q-156 0 -234.5 90t-78.5 288q0 197 78.5 288t234.5 91q166 0 239 -129zM502 956l-111 -176h-42l-113 176h30l106 -134l102 134h28z" />
    <glyph glyph-name="ccaron" unicode="&#x10d;" horiz-adv-x="469" 
d="M445 435l-30 -19q-46 69 -143 69q-87 0 -134 -59.5t-47 -174.5q0 -109 44.5 -171t137.5 -62q67 0 136 48l21 -29q-73 -52 -154 -52q-118 0 -170 72.5t-52 193.5q0 267 224 267q117 0 167 -83zM401 766l-111 -176h-42l-113 176h30l106 -134l102 134h28z" />
    <glyph glyph-name="Dcaron" unicode="&#x10e;" horiz-adv-x="723" 
d="M659 363q0 -204 -88.5 -283.5t-282.5 -79.5h-193v727h221q177 0 260 -82t83 -282zM621 364q0 99 -20 164t-63.5 101t-101.5 50t-145 14h-160v-659h160q174 0 252 72t78 258zM461 956l-111 -176h-42l-113 176h30l106 -134l102 134h28z" />
    <glyph glyph-name="dcaron" unicode="&#x10f;" horiz-adv-x="559" 
d="M470 0h-35v69q-78 -84 -181 -84q-104 0 -152 72t-48 191q0 116 55 193t159 77q85 0 167 -68v277h35v-727zM435 110v301q-84 73 -167 73q-79 0 -128 -63.5t-49 -170.5q0 -39 7 -75.5t23 -73.5t49.5 -59.5t79.5 -22.5q55 0 98 23.5t87 67.5zM570 680q0 -96 -43 -160h-32
q36 58 36 121v16q-11 0 -18 1.5t-13 11t-6 26.5q0 31 35 31q23 0 32 -10.5t9 -36.5z" />
    <glyph glyph-name="Dcroat" unicode="&#x110;" horiz-adv-x="723" 
d="M659 363q0 -204 -88.5 -283.5t-282.5 -79.5h-193v352h-78v34h78v341h221q177 0 260 -82t83 -282zM621 364q0 99 -20 164t-63.5 101t-101.5 50t-145 14h-160v-307h224v-34h-224v-318h160q174 0 252 72t78 258z" />
    <glyph glyph-name="dcroat" unicode="&#x111;" horiz-adv-x="559" 
d="M470 0h-35v69q-78 -84 -181 -84q-104 0 -152 72t-48 191q0 116 55 193t159 77q85 0 167 -68v175h-185v31h185v71h35v-71h62v-31h-62v-625zM435 110v301q-84 73 -167 73q-79 0 -128 -63.5t-49 -170.5q0 -39 7 -75.5t23 -73.5t49.5 -59.5t79.5 -22.5q55 0 98 23.5t87 67.5z
" />
    <glyph glyph-name="Emacron" unicode="&#x112;" horiz-adv-x="579" 
d="M522 0h-427v727h427v-34h-391v-288h359v-34h-359v-337h391v-34zM452 780h-282v43h282v-43z" />
    <glyph glyph-name="emacron" unicode="&#x113;" horiz-adv-x="505" 
d="M461 256h-370q0 -238 182 -238q60 0 131 47l21 -29q-67 -51 -152 -51q-219 0 -219 261q0 128 52 200t164 72q191 0 191 -225v-37zM424 289q0 99 -34.5 147.5t-122.5 48.5q-81 0 -124.5 -52.5t-49.5 -143.5h331zM408 612h-282v43h282v-43z" />
    <glyph glyph-name="Ebreve" unicode="&#x114;" horiz-adv-x="579" 
d="M522 0h-427v727h427v-34h-391v-288h359v-34h-359v-337h391v-34zM438 918q-35 -138 -136 -138q-54 0 -87 44t-43 94h27q17 -45 40.5 -67.5t64.5 -22.5q74 0 105 90h29z" />
    <glyph glyph-name="ebreve" unicode="&#x115;" horiz-adv-x="505" 
d="M461 256h-370q0 -238 182 -238q60 0 131 47l21 -29q-67 -51 -152 -51q-219 0 -219 261q0 128 52 200t164 72q191 0 191 -225v-37zM424 289q0 99 -34.5 147.5t-122.5 48.5q-81 0 -124.5 -52.5t-49.5 -143.5h331zM402 747q-35 -138 -136 -138q-54 0 -87 44t-43 94h27
q17 -45 40.5 -67.5t64.5 -22.5q74 0 105 90h29z" />
    <glyph glyph-name="Edotaccent" unicode="&#x116;" horiz-adv-x="579" 
d="M522 0h-427v727h427v-34h-391v-288h359v-34h-359v-337h391v-34zM333 814q0 -19 -7.5 -26.5t-26.5 -7.5q-21 0 -27.5 9t-6.5 25q0 18 7 26.5t27 8.5q16 0 24 -6.5t9 -12t1 -16.5z" />
    <glyph glyph-name="edotaccent" unicode="&#x117;" horiz-adv-x="505" 
d="M461 256h-370q0 -238 182 -238q60 0 131 47l21 -29q-67 -51 -152 -51q-219 0 -219 261q0 128 52 200t164 72q191 0 191 -225v-37zM424 289q0 99 -34.5 147.5t-122.5 48.5q-81 0 -124.5 -52.5t-49.5 -143.5h331zM292 641q0 -19 -7.5 -26.5t-26.5 -7.5q-22 0 -28 9t-6 25
q0 18 7 26.5t27 8.5q16 0 24 -6.5t9 -12t1 -16.5z" />
    <glyph glyph-name="Eogonek" unicode="&#x118;" horiz-adv-x="579" 
d="M522 -162q-50 -31 -105 -31q-50 0 -75.5 29t-25.5 75q0 43 18 89h-239v727h427v-34h-391v-288h359v-34h-359v-337h391v-34h-153q-16 -46 -16 -83q0 -42 18 -59.5t56 -17.5q29 0 83 23z" />
    <glyph glyph-name="eogonek" unicode="&#x119;" horiz-adv-x="505" 
d="M461 256h-370q0 -238 182 -238q60 0 131 47l21 -29q-63 -48 -141 -51q-11 -35 -11 -68q0 -42 18 -59.5t56 -17.5q29 0 83 23l12 -25q-50 -31 -105 -31q-50 0 -75.5 29t-25.5 75q0 38 13 75q-195 13 -195 260q0 128 52 200t164 72q191 0 191 -225v-37zM424 289
q0 99 -34.5 147.5t-122.5 48.5q-81 0 -124.5 -52.5t-49.5 -143.5h331z" />
    <glyph glyph-name="Ecaron" unicode="&#x11a;" horiz-adv-x="579" 
d="M522 0h-427v727h427v-34h-391v-288h359v-34h-359v-337h391v-34zM440 956l-111 -176h-42l-113 176h30l106 -134l102 134h28z" />
    <glyph glyph-name="ecaron" unicode="&#x11b;" horiz-adv-x="505" 
d="M461 256h-370q0 -238 182 -238q60 0 131 47l21 -29q-67 -51 -152 -51q-219 0 -219 261q0 128 52 200t164 72q191 0 191 -225v-37zM424 289q0 99 -34.5 147.5t-122.5 48.5q-81 0 -124.5 -52.5t-49.5 -143.5h331zM400 766l-111 -176h-42l-113 176h30l106 -134l102 134h28z
" />
    <glyph glyph-name="Gcircumflex" unicode="&#x11c;" horiz-adv-x="708" 
d="M625 613l-31 -20q-72 115 -216 115q-138 0 -207 -83t-69 -255q0 -180 67 -265.5t220 -85.5q91 0 199 55v212h-183v32h219v-263q-118 -70 -229 -70q-172 0 -251.5 93t-79.5 288q0 376 317 376q169 0 244 -129zM498 780h-30l-106 134l-102 -134h-28l111 176h42z" />
    <glyph glyph-name="gcircumflex" unicode="&#x11d;" horiz-adv-x="557" 
d="M544 472h-81v-472q0 -96 -48 -144.5t-160 -48.5q-46 0 -92 15t-62 26l19 33q64 -40 142 -40q83 0 124.5 38t41.5 122v80q-83 -81 -178 -81q-100 0 -148 67.5t-48 189.5q0 65 19.5 121.5t68 98t118.5 41.5q49 0 86.5 -16.5t81.5 -49.5v51h116v-31zM428 122v291
q-88 71 -168 71q-85 0 -127 -68.5t-42 -156.5q0 -98 37 -161.5t119 -63.5q48 0 90 22t91 66zM396 590h-30l-106 134l-102 -134h-28l111 176h42z" />
    <glyph glyph-name="Gbreve" unicode="&#x11e;" horiz-adv-x="708" 
d="M625 613l-31 -20q-72 115 -216 115q-138 0 -207 -83t-69 -255q0 -180 67 -265.5t220 -85.5q91 0 199 55v212h-183v32h219v-263q-118 -70 -229 -70q-172 0 -251.5 93t-79.5 288q0 376 317 376q169 0 244 -129zM510 918q-35 -138 -136 -138q-54 0 -87 44t-43 94h27
q17 -45 40.5 -67.5t64.5 -22.5q74 0 105 90h29z" />
    <glyph glyph-name="gbreve" unicode="&#x11f;" horiz-adv-x="557" 
d="M544 472h-81v-472q0 -96 -48 -144.5t-160 -48.5q-46 0 -92 15t-62 26l19 33q64 -40 142 -40q83 0 124.5 38t41.5 122v80q-83 -81 -178 -81q-100 0 -148 67.5t-48 189.5q0 65 19.5 121.5t68 98t118.5 41.5q49 0 86.5 -16.5t81.5 -49.5v51h116v-31zM428 122v291
q-88 71 -168 71q-85 0 -127 -68.5t-42 -156.5q0 -98 37 -161.5t119 -63.5q48 0 90 22t91 66zM391 747q-35 -138 -136 -138q-54 0 -87 44t-43 94h27q17 -45 40.5 -67.5t64.5 -22.5q74 0 105 90h29z" />
    <glyph glyph-name="Gdotaccent" unicode="&#x120;" horiz-adv-x="708" 
d="M625 613l-31 -20q-72 115 -216 115q-138 0 -207 -83t-69 -255q0 -180 67 -265.5t220 -85.5q91 0 199 55v212h-183v32h219v-263q-118 -70 -229 -70q-172 0 -251.5 93t-79.5 288q0 376 317 376q169 0 244 -129zM404 814q0 -19 -7.5 -26.5t-26.5 -7.5q-22 0 -28 9t-6 25
q0 18 7 26.5t27 8.5q16 0 24 -6.5t9 -12t1 -16.5z" />
    <glyph glyph-name="gdotaccent" unicode="&#x121;" horiz-adv-x="557" 
d="M544 472h-81v-472q0 -96 -48 -144.5t-160 -48.5q-46 0 -92 15t-62 26l19 33q64 -40 142 -40q83 0 124.5 38t41.5 122v80q-83 -81 -178 -81q-100 0 -148 67.5t-48 189.5q0 65 19.5 121.5t68 98t118.5 41.5q49 0 86.5 -16.5t81.5 -49.5v51h116v-31zM428 122v291
q-88 71 -168 71q-85 0 -127 -68.5t-42 -156.5q0 -98 37 -161.5t119 -63.5q48 0 90 22t91 66zM292 641q0 -19 -7.5 -26.5t-26.5 -7.5q-22 0 -28 9t-6 25q0 18 7 26.5t27 8.5q16 0 24 -6.5t9 -12t1 -16.5z" />
    <glyph glyph-name="Gcommaaccent" unicode="&#x122;" horiz-adv-x="708" 
d="M625 613l-31 -20q-72 115 -216 115q-138 0 -207 -83t-69 -255q0 -180 67 -265.5t220 -85.5q91 0 199 55v212h-183v32h219v-263q-118 -70 -229 -70q-172 0 -251.5 93t-79.5 288q0 376 317 376q169 0 244 -129zM429 -75q0 -78 -29 -118h-32q22 34 22 79v16q-11 0 -18 1.5
t-13 10.5t-6 26q0 32 38 32q21 0 29.5 -11t8.5 -36z" />
    <glyph glyph-name="gcommaaccent" unicode="&#x123;" horiz-adv-x="557" 
d="M544 472h-81v-472q0 -96 -48 -144.5t-160 -48.5q-46 0 -92 15t-62 26l19 33q64 -40 142 -40q83 0 124.5 38t41.5 122v80q-83 -81 -178 -81q-100 0 -148 67.5t-48 189.5q0 65 19.5 121.5t68 98t118.5 41.5q49 0 86.5 -16.5t81.5 -49.5v51h116v-31zM428 122v291
q-88 71 -168 71q-85 0 -127 -68.5t-42 -156.5q0 -98 37 -161.5t119 -63.5q48 0 90 22t91 66zM226 654q0 78 29 118h32q-22 -34 -22 -79v-16q11 0 18 -1.5t13 -10.5t6 -26q0 -32 -38 -32q-21 0 -29.5 11t-8.5 36z" />
    <glyph glyph-name="Hcircumflex" unicode="&#x124;" horiz-adv-x="684" 
d="M589 0h-36v359h-422v-359h-36v727h36v-336h422v336h36v-727zM475 780h-30l-106 134l-102 -134h-28l111 176h42z" />
    <glyph glyph-name="hcircumflex" unicode="&#x125;" horiz-adv-x="563" 
d="M478 0h-35v305q0 180 -122 180q-42 0 -95.5 -32t-101.5 -83v-370h-35v727h35v-318q58 58 106 83.5t99 25.5q76 0 112.5 -50t36.5 -137v-331zM349 780h-30l-106 134l-102 -134h-28l111 176h42z" />
    <glyph glyph-name="Hbar" unicode="&#x126;" horiz-adv-x="684" 
d="M589 0h-36v359h-422v-359h-36v543h-64v34h64v150h36v-150h422v150h36v-150h64v-34h-64v-543zM131 391h422v152h-422v-152z" />
    <glyph glyph-name="hbar" unicode="&#x127;" horiz-adv-x="563" 
d="M478 0h-35v305q0 180 -122 180q-42 0 -95.5 -32t-101.5 -83v-370h-35v625h-62v31h62v71h35v-71h185v-31h-185v-216q58 58 106 83.5t99 25.5q76 0 112.5 -50t36.5 -137v-331z" />
    <glyph glyph-name="Itilde" unicode="&#x128;" horiz-adv-x="318" 
d="M265 0h-212v31h88v665h-88v31h212v-31h-88v-665h88v-31zM314 907q0 -51 -21 -85.5t-67 -34.5q-41 0 -76 41q-40 47 -63 47q-28 0 -40.5 -28.5t-12.5 -59.5h-29q0 51 21 85.5t68 34.5q40 0 78 -44q30 -35 45 -41q8 -3 16 -3q27 0 39 28t13 60h29z" />
    <glyph glyph-name="itilde" unicode="&#x129;" horiz-adv-x="270" 
d="M178 0h-35v472h-112v31h147v-503zM282 738q0 -51 -21 -85.5t-67 -34.5q-41 0 -76 41q-40 47 -63 47q-28 0 -40.5 -28.5t-12.5 -59.5h-29q0 51 21.5 85.5t67.5 34.5q40 0 78 -44q30 -35 45 -41q8 -3 16 -3q27 0 39 28t13 60h29z" />
    <glyph glyph-name="Imacron" unicode="&#x12a;" horiz-adv-x="318" 
d="M265 0h-212v31h88v665h-88v31h212v-31h-88v-665h88v-31zM300 780h-282v43h282v-43z" />
    <glyph glyph-name="imacron" unicode="&#x12b;" horiz-adv-x="270" 
d="M178 0h-35v472h-112v31h147v-503zM276 612h-282v43h282v-43z" />
    <glyph glyph-name="Ibreve" unicode="&#x12c;" horiz-adv-x="318" 
d="M265 0h-212v31h88v665h-88v31h212v-31h-88v-665h88v-31zM292 918q-35 -138 -136 -138q-54 0 -87 44t-43 94h27q17 -45 40.5 -67.5t64.5 -22.5q74 0 105 90h29z" />
    <glyph glyph-name="ibreve" unicode="&#x12d;" horiz-adv-x="270" 
d="M178 0h-35v472h-112v31h147v-503zM268 747q-35 -138 -136 -138q-54 0 -87 44t-43 94h27q17 -45 40.5 -67.5t64.5 -22.5q74 0 105 90h29z" />
    <glyph glyph-name="Iogonek" unicode="&#x12e;" horiz-adv-x="318" 
d="M317 -162q-50 -31 -105 -31q-50 0 -75.5 29t-25.5 75q0 43 18 89h-76v31h88v665h-88v31h212v-31h-88v-665h88v-31h-101q-16 -46 -16 -83q0 -42 18 -59.5t56 -17.5q29 0 83 23z" />
    <glyph glyph-name="iogonek" unicode="&#x12f;" horiz-adv-x="270" 
d="M319 -162q-50 -31 -105 -31q-50 0 -75.5 29t-25.5 75q0 47 30 117v444h-112v31h147v-503h-12q-16 -46 -16 -83q0 -42 18 -59.5t56 -17.5q29 0 83 23zM185 641q0 -20 -6.5 -27t-24.5 -7q-15 0 -22 6t-8 11.5t-1 16.5q0 19 5.5 27t25.5 8q6 0 11 -1t8.5 -2t5.5 -4t3.5 -4.5
t2 -6t0.5 -5.5v-6v-6z" />
    <glyph glyph-name="Idotaccent" unicode="&#x130;" horiz-adv-x="318" 
d="M265 0h-212v31h88v665h-88v31h212v-31h-88v-665h88v-31zM189 814q0 -19 -7.5 -26.5t-26.5 -7.5q-21 0 -27.5 9t-6.5 25q0 18 7 26.5t27 8.5q16 0 24 -6.5t9 -12t1 -16.5z" />
    <glyph glyph-name="dotlessi" unicode="&#x131;" horiz-adv-x="270" 
d="M178 0h-35v472h-112v31h147v-503z" />
    <glyph glyph-name="IJ" unicode="&#x132;" horiz-adv-x="677" 
d="M265 0h-212v31h88v665h-88v31h212v-31h-88v-665h88v-31zM588 160q0 -87 -31.5 -131t-124.5 -44q-46 0 -101 25l16 34q43 -25 90 -25q67 0 91 36t24 118v523h-154v31h190v-567z" />
    <glyph glyph-name="ij" unicode="&#x133;" horiz-adv-x="543" 
d="M185 641q0 -20 -6.5 -27t-24.5 -7q-15 0 -22 6t-8 11.5t-1 16.5q0 19 5.5 27t25.5 8q6 0 11 -1t8.5 -2t5.5 -4t3.5 -4.5t2 -6t0.5 -5.5v-6v-6zM178 0h-35v472h-112v31h147v-503zM455 641q0 -20 -6.5 -27t-24.5 -7q-15 0 -22 6t-8 11.5t-1 16.5q0 19 5.5 27t25.5 8
q6 0 11 -1t8.5 -2t5.5 -4t3.5 -4.5t2 -6t0.5 -5.5v-6v-6zM448 -43q0 -78 -29 -114t-100 -36q-55 0 -85 14l11 33q38 -15 76 -15q54 0 73 32.5t19 107.5v493h-112v31h147v-546z" />
    <glyph glyph-name="Jcircumflex" unicode="&#x134;" horiz-adv-x="359" 
d="M270 160q0 -87 -31.5 -131t-124.5 -44q-46 0 -101 25l16 34q42 -25 90 -25q67 0 91 36t24 118v523h-154v31h190v-567zM313 780h-30l-106 134l-102 -134h-28l111 176h42z" />
    <glyph glyph-name="jcircumflex" unicode="&#x135;" horiz-adv-x="273" 
d="M178 -43q0 -78 -29 -114t-100 -36q-55 0 -85 14l11 33q38 -15 76 -15q54 0 73 32.5t19 107.5v493h-112v31h147v-546zM270 590h-30l-106 134l-102 -134h-28l111 176h42z" />
    <glyph glyph-name="Kcommaaccent" unicode="&#x136;" horiz-adv-x="612" 
d="M597 0h-43l-267 409l-156 -162v-247h-36v727h36v-434l412 434h48l-280 -293zM344 -75q0 -78 -29 -118h-32q22 34 22 79v16q-11 0 -18 1.5t-13 10.5t-6 26q0 32 38 32q21 0 29.5 -11t8.5 -36z" />
    <glyph glyph-name="kcommaaccent" unicode="&#x137;" horiz-adv-x="483" 
d="M473 0h-45l-199 269l-105 -103v-166h-35v727h35v-517l298 293h46l-216 -212zM300 -75q0 -78 -29 -118h-32q22 34 22 79v16q-11 0 -18 1.5t-13 10.5t-6 26q0 32 38 32q21 0 29.5 -11t8.5 -36z" />
    <glyph glyph-name="kgreenlandic" unicode="&#x138;" horiz-adv-x="483" 
d="M473 0h-45l-199 269l-105 -103v-166h-35v503h35v-293l298 293h46l-216 -212z" />
    <glyph glyph-name="Lacute" unicode="&#x139;" horiz-adv-x="503" 
d="M490 0h-395v727h36v-693h359v-34zM316 956l-142 -176h-30l116 176h56z" />
    <glyph glyph-name="lacute" unicode="&#x13a;" horiz-adv-x="257" 
d="M252 -8q-32 -7 -60 -7q-56 0 -79.5 33t-23.5 99v602l35 31v-621q0 -60 15 -86t56 -26q32 0 50 6zM258 956l-142 -176h-30l116 176h56z" />
    <glyph glyph-name="Lcommaaccent" unicode="&#x13b;" horiz-adv-x="503" 
d="M490 0h-395v727h36v-693h359v-34zM337 -75q0 -78 -29 -118h-32q22 34 22 79v16q-11 0 -18 1.5t-13 10.5t-6 26q0 32 38 32q21 0 29.5 -11t8.5 -36z" />
    <glyph glyph-name="lcommaaccent" unicode="&#x13c;" horiz-adv-x="257" 
d="M252 -8q-32 -7 -60 -7q-56 0 -79.5 33t-23.5 99v602l35 31v-621q0 -60 15 -86t56 -26q32 0 50 6zM219 -75q0 -78 -29 -118h-32q22 34 22 79v16q-11 0 -18 1.5t-13 10.5t-6 26q0 32 38 32q21 0 29.5 -11t8.5 -36z" />
    <glyph glyph-name="Lcaron" unicode="&#x13d;" horiz-adv-x="503" 
d="M490 0h-395v727h36v-693h359v-34zM382 680q0 -96 -43 -160h-32q36 58 36 121v16q-11 0 -18 1.5t-13 11t-6 26.5q0 31 35 31q23 0 32 -10.5t9 -36.5z" />
    <glyph glyph-name="lcaron" unicode="&#x13e;" horiz-adv-x="257" 
d="M252 -8q-32 -7 -60 -7q-56 0 -79.5 33t-23.5 99v602l35 31v-621q0 -60 15 -86t56 -26q32 0 50 6zM232 680q0 -96 -43 -160h-32q36 58 36 121v16q-11 0 -18 1.5t-13 11t-6 26.5q0 31 35 31q23 0 32 -10.5t9 -36.5z" />
    <glyph glyph-name="Ldot" unicode="&#x13f;" horiz-adv-x="503" 
d="M490 0h-395v727h36v-693h359v-34zM389 358q0 -20 -7.5 -27t-29.5 -7q-23 0 -31 7.5t-8 26.5q0 20 8 28t30 8q24 0 31 -7.5t7 -28.5z" />
    <glyph glyph-name="ldot" unicode="&#x140;" horiz-adv-x="257" 
d="M252 -8q-32 -7 -60 -7q-56 0 -79.5 33t-23.5 99v602l35 31v-621q0 -60 15 -86t56 -26q32 0 50 6zM264 360q0 -19 -7.5 -26.5t-26.5 -7.5q-22 0 -28 9t-6 25q0 18 7 26.5t27 8.5q16 0 24 -6.5t9 -12t1 -16.5z" />
    <glyph glyph-name="Lslash" unicode="&#x141;" horiz-adv-x="503" 
d="M490 0h-395v296l-95 -83v43l95 83v388h36v-357l130 113v-43l-130 -113v-293h359v-34z" />
    <glyph glyph-name="lslash" unicode="&#x142;" horiz-adv-x="257" 
d="M252 -8q-32 -7 -60 -7q-56 0 -79.5 33t-23.5 99v198l-83 -79v40l83 79v364l35 31v-362l93 89v-40l-93 -89v-219q0 -60 15 -86t56 -26q32 0 50 6z" />
    <glyph glyph-name="Nacute" unicode="&#x143;" horiz-adv-x="690" 
d="M595 0h-53l-411 679v-679h-36v727h48l416 -689v689h36v-727zM468 956l-142 -176h-30l116 176h56z" />
    <glyph glyph-name="nacute" unicode="&#x144;" horiz-adv-x="563" 
d="M478 0h-35v305q0 86 -27.5 133t-93.5 47q-87 0 -198 -115v-370h-35v503h35v-94q58 57 105.5 83t99.5 26q76 0 112.5 -50t36.5 -137v-331zM368 766l-142 -176h-30l116 176h56z" />
    <glyph glyph-name="Ncommaaccent" unicode="&#x145;" horiz-adv-x="690" 
d="M595 0h-53l-411 679v-679h-36v727h48l416 -689v689h36v-727zM383 -75q0 -78 -29 -118h-32q22 34 22 79v16q-11 0 -18 1.5t-13 10.5t-6 26q0 32 38 32q21 0 29.5 -11t8.5 -36z" />
    <glyph glyph-name="ncommaaccent" unicode="&#x146;" horiz-adv-x="563" 
d="M478 0h-35v305q0 86 -27.5 133t-93.5 47q-87 0 -198 -115v-370h-35v503h35v-94q58 57 105.5 83t99.5 26q76 0 112.5 -50t36.5 -137v-331zM319 -75q0 -78 -29 -118h-32q22 34 22 79v16q-11 0 -18 1.5t-13 10.5t-6 26q0 32 38 32q21 0 29.5 -11t8.5 -36z" />
    <glyph glyph-name="Ncaron" unicode="&#x147;" horiz-adv-x="690" 
d="M595 0h-53l-411 679v-679h-36v727h48l416 -689v689h36v-727zM486 956l-111 -176h-42l-113 176h30l106 -134l102 134h28z" />
    <glyph glyph-name="ncaron" unicode="&#x148;" horiz-adv-x="563" 
d="M478 0h-35v305q0 86 -27.5 133t-93.5 47q-87 0 -198 -115v-370h-35v503h35v-94q58 57 105.5 83t99.5 26q76 0 112.5 -50t36.5 -137v-331zM437 766l-111 -176h-42l-113 176h30l106 -134l102 134h28z" />
    <glyph glyph-name="napostrophe" unicode="&#x149;" horiz-adv-x="547" 
d="M462 0h-35v305q0 86 -27.5 133t-93.5 47q-87 0 -198 -115v-370h-35v503h35v-94q58 57 105.5 83t99.5 26q76 0 112.5 -50t36.5 -137v-331zM66 703q0 -95 -43 -160h-32q36 58 36 121v16q-11 0 -18 1.5t-13 11t-6 26.5q0 31 35 31q23 0 32 -10.5t9 -36.5z" />
    <glyph glyph-name="Eng" unicode="&#x14a;" horiz-adv-x="690" 
d="M595 -18q0 -87 -31.5 -131t-124.5 -44q-46 0 -101 25l16 34q42 -25 90 -25q67 0 91 36t24 118v452q0 64 -5.5 106t-21 80t-47.5 56.5t-81 18.5q-118 0 -273 -151v-557h-36v727h36v-128q76 75 141.5 109t141.5 34q54 0 90.5 -19.5t56 -57.5t27 -84t7.5 -110v-489z" />
    <glyph glyph-name="eng" unicode="&#x14b;" horiz-adv-x="563" 
d="M478 -43q0 -78 -29 -114t-100 -36q-55 0 -85 14l11 33q38 -15 76 -15q54 0 73 32.5t19 107.5v326q0 86 -27.5 133t-93.5 47q-87 0 -198 -115v-370h-35v503h35v-94q58 57 105.5 83t99.5 26q76 0 112.5 -50t36.5 -137v-374z" />
    <glyph glyph-name="Omacron" unicode="&#x14c;" horiz-adv-x="732" 
d="M668 363q0 -182 -70.5 -280t-232.5 -98q-161 0 -231 98.5t-70 279.5t70 280t231 99q84 0 143.5 -27t94 -78t50 -118.5t15.5 -155.5zM630 363q0 171 -60.5 258t-204.5 87q-142 0 -202.5 -87.5t-60.5 -257.5t60.5 -257t202.5 -87q144 0 204.5 87t60.5 257zM507 780h-282v43
h282v-43z" />
    <glyph glyph-name="omacron" unicode="&#x14d;" horiz-adv-x="545" 
d="M491 251q0 -133 -58 -199.5t-160 -66.5q-103 0 -161 66.5t-58 199.5q0 134 58 200.5t161 66.5q102 0 160 -66.5t58 -200.5zM454 251q0 46 -8.5 85t-28 74t-56.5 55t-88 20q-52 0 -89 -20t-56.5 -55t-28 -74t-8.5 -85q0 -45 8.5 -84t28 -74t56.5 -55t89 -20q51 0 88 20
t56.5 54.5t28 73.5t8.5 85zM413 612h-282v43h282v-43z" />
    <glyph glyph-name="Obreve" unicode="&#x14e;" horiz-adv-x="732" 
d="M668 363q0 -182 -70.5 -280t-232.5 -98q-161 0 -231 98.5t-70 279.5t70 280t231 99q84 0 143.5 -27t94 -78t50 -118.5t15.5 -155.5zM630 363q0 171 -60.5 258t-204.5 87q-142 0 -202.5 -87.5t-60.5 -257.5t60.5 -257t202.5 -87q144 0 204.5 87t60.5 257zM499 918
q-35 -138 -136 -138q-54 0 -87 44t-43 94h27q17 -45 40.5 -67.5t64.5 -22.5q74 0 105 90h29z" />
    <glyph glyph-name="obreve" unicode="&#x14f;" horiz-adv-x="545" 
d="M491 251q0 -133 -58 -199.5t-160 -66.5q-103 0 -161 66.5t-58 199.5q0 134 58 200.5t161 66.5q102 0 160 -66.5t58 -200.5zM454 251q0 46 -8.5 85t-28 74t-56.5 55t-88 20q-52 0 -89 -20t-56.5 -55t-28 -74t-8.5 -85q0 -45 8.5 -84t28 -74t56.5 -55t89 -20q51 0 88 20
t56.5 54.5t28 73.5t8.5 85zM405 747q-35 -138 -136 -138q-54 0 -87 44t-43 94h27q17 -45 40.5 -67.5t64.5 -22.5q74 0 105 90h29z" />
    <glyph glyph-name="Ohungarumlaut" unicode="&#x150;" horiz-adv-x="732" 
d="M668 363q0 -182 -70.5 -280t-232.5 -98q-161 0 -231 98.5t-70 279.5t70 280t231 99q84 0 143.5 -27t94 -78t50 -118.5t15.5 -155.5zM630 363q0 171 -60.5 258t-204.5 87q-142 0 -202.5 -87.5t-60.5 -257.5t60.5 -257t202.5 -87q144 0 204.5 87t60.5 257zM583 956
l-142 -176h-30l116 176h56zM412 956l-141 -176h-30l115 176h56z" />
    <glyph glyph-name="ohungarumlaut" unicode="&#x151;" horiz-adv-x="545" 
d="M491 251q0 -133 -58 -199.5t-160 -66.5q-103 0 -161 66.5t-58 199.5q0 134 58 200.5t161 66.5q102 0 160 -66.5t58 -200.5zM454 251q0 46 -8.5 85t-28 74t-56.5 55t-88 20q-52 0 -89 -20t-56.5 -55t-28 -74t-8.5 -85q0 -45 8.5 -84t28 -74t56.5 -55t89 -20q51 0 88 20
t56.5 54.5t28 73.5t8.5 85zM475 766l-142 -176h-30l116 176h56zM304 766l-141 -176h-30l115 176h56z" />
    <glyph glyph-name="OE" unicode="&#x152;" horiz-adv-x="929" 
d="M872 0h-395q-53 -15 -112 -15q-158 0 -229.5 97t-71.5 281q0 185 71 282t230 97q60 0 110 -15h397v-34h-333v-288h301v-34h-301v-337h333v-34zM503 42v643q-71 23 -138 23q-142 0 -202.5 -87.5t-60.5 -257.5q0 -169 60.5 -256.5t202.5 -87.5q73 0 138 23z" />
    <glyph glyph-name="oe" unicode="&#x153;" horiz-adv-x="869" 
d="M825 256h-354q0 -238 173 -238q63 0 126 47l21 -29q-65 -51 -144 -51q-143 0 -192 127q-32 -65 -77.5 -96t-114.5 -31q-102 0 -155.5 69t-53.5 197q0 134 54.5 200.5t154.5 66.5q142 0 189 -137q51 137 190 137q183 0 183 -225v-37zM788 289q0 96 -32 146t-115 50
q-74 0 -117.5 -50t-50.5 -146h315zM436 251q0 46 -8 84.5t-26.5 74t-54 55.5t-84.5 20t-84.5 -20.5t-53.5 -55.5t-26 -74t-8 -84t7.5 -83.5t26 -73.5t53.5 -55.5t85 -20.5q49 0 84.5 20t54 55.5t26.5 74t8 83.5z" />
    <glyph glyph-name="Racute" unicode="&#x154;" horiz-adv-x="630" 
d="M582 0h-38l-58 215q-15 56 -38 81t-71 25h-246v-321h-36v727h224q112 0 172 -43.5t60 -151.5q0 -148 -109 -192q49 -19 71 -96zM513 534q0 88 -49.5 124.5t-160.5 36.5h-172v-342h190q104 0 148 42t44 139zM401 956l-142 -176h-30l116 176h56z" />
    <glyph glyph-name="racute" unicode="&#x155;" horiz-adv-x="331" 
d="M324 502l-16 -37q-9 6 -27 6q-19 0 -35.5 -4.5t-34.5 -16.5t-27 -19t-31 -27.5t-29 -26.5v-377h-35v503h35v-87q49 47 85.5 71t71.5 24q23 0 43 -9zM314 766l-142 -176h-30l116 176h56z" />
    <glyph glyph-name="Rcommaaccent" unicode="&#x156;" horiz-adv-x="630" 
d="M582 0h-38l-58 215q-15 56 -38 81t-71 25h-246v-321h-36v727h224q112 0 172 -43.5t60 -151.5q0 -148 -109 -192q49 -19 71 -96zM513 534q0 88 -49.5 124.5t-160.5 36.5h-172v-342h190q104 0 148 42t44 139zM353 -75q0 -78 -29 -118h-32q22 34 22 79v16q-11 0 -18 1.5
t-13 10.5t-6 26q0 32 38 32q21 0 29.5 -11t8.5 -36z" />
    <glyph glyph-name="rcommaaccent" unicode="&#x157;" horiz-adv-x="331" 
d="M324 502l-16 -37q-9 6 -27 6q-19 0 -35.5 -4.5t-34.5 -16.5t-27 -19t-31 -27.5t-29 -26.5v-377h-35v503h35v-87q49 47 85.5 71t71.5 24q23 0 43 -9zM184 -75q0 -78 -29 -118h-32q22 34 22 79v16q-11 0 -18 1.5t-13 10.5t-6 26q0 32 38 32q21 0 29.5 -11t8.5 -36z" />
    <glyph glyph-name="Rcaron" unicode="&#x158;" horiz-adv-x="630" 
d="M582 0h-38l-58 215q-15 56 -38 81t-71 25h-246v-321h-36v727h224q112 0 172 -43.5t60 -151.5q0 -148 -109 -192q49 -19 71 -96zM513 534q0 88 -49.5 124.5t-160.5 36.5h-172v-342h190q104 0 148 42t44 139zM428 956l-111 -176h-42l-113 176h30l106 -134l102 134h28z" />
    <glyph glyph-name="rcaron" unicode="&#x159;" horiz-adv-x="331" 
d="M324 502l-16 -37q-9 6 -27 6q-19 0 -35.5 -4.5t-34.5 -16.5t-27 -19t-31 -27.5t-29 -26.5v-377h-35v503h35v-87q49 47 85.5 71t71.5 24q23 0 43 -9zM324 766l-111 -176h-42l-113 176h30l106 -134l102 134h28z" />
    <glyph glyph-name="Sacute" unicode="&#x15a;" horiz-adv-x="624" 
d="M560 192q0 -48 -15.5 -85t-40 -59.5t-58.5 -37t-66.5 -20t-68.5 -5.5q-184 0 -260 140l31 19q75 -125 228 -125q56 0 101 14.5t78 54t33 99.5q0 63 -45 102t-139 60q-153 34 -212 74t-59 125q0 87 61.5 140.5t173.5 53.5q96 0 151 -33t88 -94l-32 -19q-35 57 -83 84.5
t-124 27.5q-91 0 -145 -42.5t-54 -114.5q0 -64 48 -99t177 -63q116 -26 174 -71t58 -126zM419 956l-142 -176h-30l116 176h56z" />
    <glyph glyph-name="sacute" unicode="&#x15b;" horiz-adv-x="454" 
d="M408 132q0 -41 -17 -71.5t-46 -46t-61 -22.5t-68 -7q-49 0 -95.5 19t-75.5 60l29 22q49 -68 151 -68q35 0 66 9t56.5 36t25.5 69q0 40 -32 61.5t-103 39.5q-5 1 -30 7t-32 8t-28.5 9.5t-29 13l-22 16t-20 21.5t-10.5 27.5t-5 36.5q0 71 52.5 108.5t125.5 37.5
q118 0 167 -84l-30 -19q-44 70 -142 70q-28 0 -57.5 -8.5t-55 -34t-25.5 -62.5q0 -47 30 -70t120 -44q40 -9 63 -16.5t49 -22.5t38 -38.5t12 -56.5zM367 766l-142 -176h-30l116 176h56z" />
    <glyph glyph-name="Scircumflex" unicode="&#x15c;" horiz-adv-x="624" 
d="M560 192q0 -48 -15.5 -85t-40 -59.5t-58.5 -37t-66.5 -20t-68.5 -5.5q-184 0 -260 140l31 19q75 -125 228 -125q56 0 101 14.5t78 54t33 99.5q0 63 -45 102t-139 60q-153 34 -212 74t-59 125q0 87 61.5 140.5t173.5 53.5q96 0 151 -33t88 -94l-32 -19q-35 57 -83 84.5
t-124 27.5q-91 0 -145 -42.5t-54 -114.5q0 -64 48 -99t177 -63q116 -26 174 -71t58 -126zM445 780h-30l-106 134l-102 -134h-28l111 176h42z" />
    <glyph glyph-name="scircumflex" unicode="&#x15d;" horiz-adv-x="454" 
d="M408 132q0 -41 -17 -71.5t-46 -46t-61 -22.5t-68 -7q-49 0 -95.5 19t-75.5 60l29 22q49 -68 151 -68q35 0 66 9t56.5 36t25.5 69q0 40 -32 61.5t-103 39.5q-5 1 -30 7t-32 8t-28.5 9.5t-29 13l-22 16t-20 21.5t-10.5 27.5t-5 36.5q0 71 52.5 108.5t125.5 37.5
q118 0 167 -84l-30 -19q-44 70 -142 70q-28 0 -57.5 -8.5t-55 -34t-25.5 -62.5q0 -47 30 -70t120 -44q40 -9 63 -16.5t49 -22.5t38 -38.5t12 -56.5zM371 590h-30l-106 134l-102 -134h-28l111 176h42z" />
    <glyph glyph-name="Scedilla" unicode="&#x15e;" horiz-adv-x="624" 
d="M421 -103q0 -41 -30.5 -65.5t-85.5 -24.5q-44 0 -103 19l11 30q49 -20 98 -20q76 0 76 63q0 31 -28 48t-63 17l9 21q-181 2 -254 140l31 19q75 -125 228 -125q56 0 101 14.5t78 54t33 99.5q0 63 -45 102t-139 60q-153 34 -212 74t-59 125q0 87 61.5 140.5t173.5 53.5
q96 0 151 -33t88 -94l-32 -19q-35 57 -83 84.5t-124 27.5q-91 0 -145 -42.5t-54 -114.5q0 -64 48 -99t177 -63q116 -26 174 -71t58 -126q0 -55 -20 -96t-54.5 -63.5t-71.5 -33.5t-80 -13v-1q87 -17 87 -88z" />
    <glyph glyph-name="scedilla" unicode="&#x15f;" horiz-adv-x="454" 
d="M337 -103q0 -41 -30.5 -65.5t-85.5 -24.5q-44 0 -103 19l11 30q49 -20 98 -20q76 0 76 63q0 31 -28 48t-63 17l9 21h-5q-49 0 -95.5 19t-75.5 60l29 22q49 -68 151 -68q35 0 66 9t56.5 36t25.5 69q0 40 -32 61.5t-103 39.5q-5 1 -30 7t-32 8t-28.5 9.5t-29 13l-22 16
t-20 21.5t-10.5 27.5t-5 36.5q0 71 52.5 108.5t125.5 37.5q118 0 167 -84l-30 -19q-44 70 -142 70q-28 0 -57.5 -8.5t-55 -34t-25.5 -62.5q0 -47 30 -70t120 -44q40 -9 63 -16.5t49 -22.5t38 -38.5t12 -56.5q0 -70 -45 -104.5t-113 -40.5v-2q87 -17 87 -88z" />
    <glyph glyph-name="Scaron" unicode="&#x160;" horiz-adv-x="624" 
d="M560 192q0 -48 -15.5 -85t-40 -59.5t-58.5 -37t-66.5 -20t-68.5 -5.5q-184 0 -260 140l31 19q75 -125 228 -125q56 0 101 14.5t78 54t33 99.5q0 63 -45 102t-139 60q-153 34 -212 74t-59 125q0 87 61.5 140.5t173.5 53.5q96 0 151 -33t88 -94l-32 -19q-35 57 -83 84.5
t-124 27.5q-91 0 -145 -42.5t-54 -114.5q0 -64 48 -99t177 -63q116 -26 174 -71t58 -126zM447 956l-111 -176h-42l-113 176h30l106 -134l102 134h28z" />
    <glyph glyph-name="scaron" unicode="&#x161;" horiz-adv-x="454" 
d="M408 132q0 -41 -17 -71.5t-46 -46t-61 -22.5t-68 -7q-49 0 -95.5 19t-75.5 60l29 22q49 -68 151 -68q35 0 66 9t56.5 36t25.5 69q0 40 -32 61.5t-103 39.5q-5 1 -30 7t-32 8t-28.5 9.5t-29 13l-22 16t-20 21.5t-10.5 27.5t-5 36.5q0 71 52.5 108.5t125.5 37.5
q118 0 167 -84l-30 -19q-44 70 -142 70q-28 0 -57.5 -8.5t-55 -34t-25.5 -62.5q0 -47 30 -70t120 -44q40 -9 63 -16.5t49 -22.5t38 -38.5t12 -56.5zM363 766l-111 -176h-42l-113 176h30l106 -134l102 134h28z" />
    <glyph glyph-name="uni0162" unicode="&#x162;" horiz-adv-x="532" 
d="M528 693h-244v-693h-36v693h-244v34h524v-34zM304 -75q0 -78 -29 -118h-32q22 34 22 79v16q-11 0 -18 1.5t-13 10.5t-6 26q0 32 38 32q21 0 29.5 -11t8.5 -36z" />
    <glyph glyph-name="uni0163" unicode="&#x163;" horiz-adv-x="338" 
d="M323 -3q-41 -12 -83 -12q-61 0 -88.5 27t-27.5 102v358h-106v31h106v193l35 31v-224h147v-31h-147v-349q0 -20 1 -32.5t5.5 -28t12 -24.5t23 -15t36.5 -6q35 0 78 13zM273 -75q0 -78 -29 -118h-32q22 34 22 79v16q-11 0 -18 1.5t-13 10.5t-6 26q0 32 38 32q21 0 29.5 -11
t8.5 -36z" />
    <glyph glyph-name="Tcaron" unicode="&#x164;" horiz-adv-x="532" 
d="M528 693h-244v-693h-36v693h-244v34h524v-34zM399 956l-111 -176h-42l-113 176h30l106 -134l102 134h28z" />
    <glyph glyph-name="tcaron" unicode="&#x165;" horiz-adv-x="338" 
d="M323 -3q-41 -12 -83 -12q-61 0 -88.5 27t-27.5 102v358h-106v31h106v193l35 31v-224h147v-31h-147v-349q0 -20 1 -32.5t5.5 -28t12 -24.5t23 -15t36.5 -6q35 0 78 13zM293 680q0 -78 -29 -118h-32q22 34 22 79v16q-11 0 -18 1.5t-13 10.5t-6 26q0 32 38 32q21 0 29.5 -11
t8.5 -36z" />
    <glyph glyph-name="Tbar" unicode="&#x166;" horiz-adv-x="532" 
d="M528 693h-244v-287h155v-34h-155v-372h-36v372h-152v34h152v287h-244v34h524v-34z" />
    <glyph glyph-name="tbar" unicode="&#x167;" horiz-adv-x="338" 
d="M323 -3q-41 -12 -83 -12q-61 0 -88.5 27t-27.5 102v195h-103v31h103v132h-106v31h106v193l35 31v-224h147v-31h-147v-132h144v-31h-144v-186q0 -20 1 -32.5t5.5 -28t12 -24.5t23 -15t36.5 -6q35 0 78 13z" />
    <glyph glyph-name="Utilde" unicode="&#x168;" horiz-adv-x="673" 
d="M583 278q0 -165 -55 -229t-191 -64q-135 0 -191 65.5t-56 227.5v449h36v-439q0 -146 44.5 -207.5t166.5 -61.5q65 0 106.5 16t64 51.5t31 82t8.5 117.5v441h36v-449zM491 903q0 -51 -21 -85.5t-67 -34.5q-41 0 -76 41q-40 47 -63 47q-28 0 -40.5 -28.5t-12.5 -59.5h-29
q0 51 21 85.5t68 34.5q40 0 78 -44q30 -35 45 -41q8 -3 16 -3q27 0 39 28t13 60h29z" />
    <glyph glyph-name="utilde" unicode="&#x169;" horiz-adv-x="563" 
d="M474 0h-35v94q-58 -57 -106 -83t-100 -26q-76 0 -112 51t-36 137v330h35v-305q0 -180 121 -180q87 0 198 116v369h35v-503zM436 738q0 -51 -21 -85.5t-67 -34.5q-41 0 -76 41q-40 47 -63 47q-28 0 -40.5 -28.5t-12.5 -59.5h-29q0 51 21.5 85.5t67.5 34.5q40 0 78 -44
q30 -35 45 -41q8 -3 16 -3q27 0 39 28t13 60h29z" />
    <glyph glyph-name="Umacron" unicode="&#x16a;" horiz-adv-x="673" 
d="M583 278q0 -165 -55 -229t-191 -64q-135 0 -191 65.5t-56 227.5v449h36v-439q0 -146 44.5 -207.5t166.5 -61.5q65 0 106.5 16t64 51.5t31 82t8.5 117.5v441h36v-449zM477 780h-282v43h282v-43z" />
    <glyph glyph-name="umacron" unicode="&#x16b;" horiz-adv-x="563" 
d="M474 0h-35v94q-58 -57 -106 -83t-100 -26q-76 0 -112 51t-36 137v330h35v-305q0 -180 121 -180q87 0 198 116v369h35v-503zM422 612h-282v43h282v-43z" />
    <glyph glyph-name="Ubreve" unicode="&#x16c;" horiz-adv-x="673" 
d="M583 278q0 -165 -55 -229t-191 -64q-135 0 -191 65.5t-56 227.5v449h36v-439q0 -146 44.5 -207.5t166.5 -61.5q65 0 106.5 16t64 51.5t31 82t8.5 117.5v441h36v-449zM469 918q-35 -138 -136 -138q-54 0 -87 44t-43 94h27q17 -45 40.5 -67.5t64.5 -22.5q74 0 105 90h29z
" />
    <glyph glyph-name="ubreve" unicode="&#x16d;" horiz-adv-x="563" 
d="M474 0h-35v94q-58 -57 -106 -83t-100 -26q-76 0 -112 51t-36 137v330h35v-305q0 -180 121 -180q87 0 198 116v369h35v-503zM414 747q-35 -138 -136 -138q-54 0 -87 44t-43 94h27q17 -45 40.5 -67.5t64.5 -22.5q74 0 105 90h29z" />
    <glyph glyph-name="Uring" unicode="&#x16e;" horiz-adv-x="673" 
d="M439 802q0 -48 -25.5 -75t-73.5 -27q-96 0 -96 102q0 48 24 75t71 27q100 0 100 -102zM409 802q0 75 -69 75q-31 0 -48.5 -20t-17.5 -55q0 -74 65 -74q70 0 70 74zM583 278q0 -165 -55 -229t-191 -64q-135 0 -191 65.5t-56 227.5v449h36v-439q0 -146 44.5 -207.5
t166.5 -61.5q65 0 106.5 16t64 51.5t31 82t8.5 117.5v441h36v-449z" />
    <glyph glyph-name="uring" unicode="&#x16f;" horiz-adv-x="563" 
d="M474 0h-35v94q-58 -57 -106 -83t-100 -26q-76 0 -112 51t-36 137v330h35v-305q0 -180 121 -180q87 0 198 116v369h35v-503zM359 657q0 -39 -20.5 -61t-58.5 -22q-76 0 -76 83t75 83q80 0 80 -83zM332 657q0 58 -52 58q-23 0 -36 -15.5t-13 -42.5q0 -58 48 -58q53 0 53 58
z" />
    <glyph glyph-name="Uhungarumlaut" unicode="&#x170;" horiz-adv-x="673" 
d="M583 278q0 -165 -55 -229t-191 -64q-135 0 -191 65.5t-56 227.5v449h36v-439q0 -146 44.5 -207.5t166.5 -61.5q65 0 106.5 16t64 51.5t31 82t8.5 117.5v441h36v-449zM531 956l-142 -176h-30l116 176h56zM360 956l-141 -176h-30l115 176h56z" />
    <glyph glyph-name="uhungarumlaut" unicode="&#x171;" horiz-adv-x="563" 
d="M474 0h-35v94q-58 -57 -106 -83t-100 -26q-76 0 -112 51t-36 137v330h35v-305q0 -180 121 -180q87 0 198 116v369h35v-503zM485 766l-142 -176h-30l116 176h56zM314 766l-141 -176h-30l115 176h56z" />
    <glyph glyph-name="Uogonek" unicode="&#x172;" horiz-adv-x="673" 
d="M583 278q0 -165 -55.5 -229t-191.5 -64q-9 -31 -9 -68q0 -42 18 -59.5t56 -17.5q29 0 83 23l12 -25q-50 -31 -105 -31q-50 0 -75.5 29t-25.5 75q0 37 12 75q-115 8 -163.5 74t-48.5 218v449h36v-439q0 -146 44.5 -207.5t166.5 -61.5q65 0 106.5 16t64 51.5t31 82
t8.5 117.5v441h36v-449z" />
    <glyph glyph-name="uogonek" unicode="&#x173;" horiz-adv-x="563" 
d="M615 -162q-50 -31 -105 -31q-50 0 -75.5 29t-25.5 75q0 47 30 117v66q-58 -57 -106 -83t-100 -26q-76 0 -112 51t-36 137v330h35v-305q0 -180 121 -180q87 0 198 116v369h35v-503h-12q-16 -46 -16 -83q0 -42 18 -59.5t56 -17.5q29 0 83 23z" />
    <glyph glyph-name="Wcircumflex" unicode="&#x174;" horiz-adv-x="854" 
d="M831 727l-183 -727h-49l-175 496l-181 -496h-48l-172 727h36l163 -691l179 494h48l174 -493l174 690h34zM560 780h-30l-106 134l-102 -134h-28l111 176h42z" />
    <glyph glyph-name="wcircumflex" unicode="&#x175;" horiz-adv-x="650" 
d="M632 503l-117 -503h-38l-153 354l-146 -354h-44l-116 503h37l104 -461l145 352h41l149 -347l103 456h35zM458 590h-30l-106 134l-102 -134h-28l111 176h42z" />
    <glyph glyph-name="Ycircumflex" unicode="&#x176;" horiz-adv-x="567" 
d="M561 727l-258 -429v-298h-36v297l-261 430h41l238 -393l237 393h39zM416 780h-30l-106 134l-102 -134h-28l111 176h42z" />
    <glyph glyph-name="ycircumflex" unicode="&#x177;" horiz-adv-x="477" 
d="M463 503l-244 -539q-40 -89 -72 -123t-87 -34q-47 0 -68 12l12 31q29 -11 66 -11q32 0 57.5 30t53.5 92l32 71l-195 471h38l177 -428l193 428h37zM372 590h-30l-106 134l-102 -134h-28l111 176h42z" />
    <glyph glyph-name="Ydieresis" unicode="&#x178;" horiz-adv-x="567" 
d="M561 727l-258 -429v-298h-36v297l-261 430h41l238 -393l237 393h39zM393 814q0 -19 -7.5 -26.5t-25.5 -7.5q-12 0 -19.5 3t-10 8.5t-3.5 10t-1 12.5q0 18 6.5 26.5t27.5 8.5q15 0 23 -6.5t9 -12t1 -16.5zM231 814q0 -19 -7 -26.5t-25 -7.5q-12 0 -19.5 3t-10 8.5t-3.5 10
t-1 12.5q0 18 6.5 26.5t26.5 8.5q15 0 23 -6.5t9 -12t1 -16.5z" />
    <glyph glyph-name="Zacute" unicode="&#x179;" horiz-adv-x="554" 
d="M514 0h-482v27l422 666h-405v34h455v-18l-427 -675h437v-34zM363 956l-142 -176h-30l116 176h56z" />
    <glyph glyph-name="zacute" unicode="&#x17a;" horiz-adv-x="411" 
d="M385 0h-358v39l313 432h-307v32h345v-36l-315 -435h322v-32zM321 766l-142 -176h-30l116 176h56z" />
    <glyph glyph-name="Zdotaccent" unicode="&#x17b;" horiz-adv-x="554" 
d="M514 0h-482v27l422 666h-405v34h455v-18l-427 -675h437v-34zM301 814q0 -19 -7.5 -26.5t-26.5 -7.5q-21 0 -27.5 9t-6.5 25q0 18 7 26.5t27 8.5q16 0 24 -6.5t9 -12t1 -16.5z" />
    <glyph glyph-name="zdotaccent" unicode="&#x17c;" horiz-adv-x="411" 
d="M385 0h-358v39l313 432h-307v32h345v-36l-315 -435h322v-32zM235 641q0 -19 -7.5 -26.5t-26.5 -7.5q-21 0 -27.5 9t-6.5 25q0 18 7 26.5t27 8.5q16 0 24 -6.5t9 -12t1 -16.5z" />
    <glyph glyph-name="Zcaron" unicode="&#x17d;" horiz-adv-x="554" 
d="M514 0h-482v27l422 666h-405v34h455v-18l-427 -675h437v-34zM415 956l-111 -176h-42l-113 176h30l106 -134l102 134h28z" />
    <glyph glyph-name="zcaron" unicode="&#x17e;" horiz-adv-x="411" 
d="M385 0h-358v39l313 432h-307v32h345v-36l-315 -435h322v-32zM344 766l-111 -176h-42l-113 176h30l106 -134l102 134h28z" />
    <glyph glyph-name="florin" unicode="&#x192;" horiz-adv-x="427" 
d="M423 721l-11 -30q-36 17 -63 17q-22 0 -33 -22.5t-27 -90.5l-22 -92h88l-5 -31h-90l-110 -538q-6 -28 -11 -46t-15 -40t-25.5 -33.5t-36.5 -11.5q-35 0 -83 23l12 29q39 -18 66 -18q19 0 33 27.5t32 114.5l104 493h-72l7 31h71l32 133q9 36 19 58.5t22.5 32t22 12.5
t23.5 3q13 0 36 -7t36 -14z" />
    <glyph glyph-name="AEacute" unicode="&#x1fc;" horiz-adv-x="848" 
d="M791 0h-378v256h-262l-101 -256h-37l290 727h488v-34h-342v-288h310v-34h-310v-337h342v-34zM413 288v405h-88l-161 -405h249zM618 956l-142 -176h-30l116 176h56z" />
    <glyph glyph-name="aeacute" unicode="&#x1fd;" horiz-adv-x="821" 
d="M777 256h-354q0 -238 174 -238q57 0 125 47l21 -29q-65 -51 -146 -51q-137 0 -185 115l-24 -24q-93 -91 -188 -91q-72 0 -111.5 41t-39.5 109q0 43 14 73t41 46.5t55.5 25t67.5 12.5q33 3 83.5 7t77.5 7v42q0 75 -37 106t-109 31q-86 0 -141 -63l-26 26q67 70 168 70
q74 0 117 -25t57 -84q48 109 177 109q183 0 183 -225v-37zM740 289q0 98 -33 147t-115 49q-77 0 -119 -52.5t-48 -143.5h315zM402 130q-14 50 -14 116v28q-52 -5 -107 -9q-36 -2 -60.5 -5.5t-52 -12t-44 -21.5t-27.5 -35.5t-11 -53.5q0 -58 29.5 -88.5t84.5 -30.5
q99 0 202 112zM651 766l-142 -176h-30l116 176h56z" />
    <glyph glyph-name="Oslashacute" unicode="&#x1fe;" horiz-adv-x="732" 
d="M668 363q0 -182 -70.5 -280t-232.5 -98q-126 0 -199 64l-73 -105h-38l89 127q-80 94 -80 292q0 181 70 280t231 99q129 0 203 -66l62 88h38l-78 -111q78 -93 78 -290zM547 646q-64 62 -182 62q-142 0 -202.5 -87.5t-60.5 -257.5q0 -179 64 -261zM630 363q0 177 -61 259
l-382 -544q64 -59 178 -59q144 0 204.5 87t60.5 257zM463 956l-142 -176h-30l116 176h56z" />
    <glyph glyph-name="oslashacute" unicode="&#x1ff;" horiz-adv-x="545" 
d="M491 251q0 -133 -58 -199.5t-160 -66.5q-80 0 -133 40l-41 -62h-36l55 82q-64 67 -64 206q0 134 58 200.5t161 66.5q83 0 134 -41l43 63h36l-56 -84q61 -69 61 -205zM454 251q0 111 -46 173l-248 -369q45 -37 113 -37q51 0 88 20t56.5 54.5t28 73.5t8.5 85zM387 446
q-44 39 -114 39q-52 0 -89 -20t-56.5 -55t-28 -74t-8.5 -85q0 -114 48 -174zM380 766l-142 -176h-30l116 176h56z" />
    <glyph glyph-name="Scommaaccent" unicode="&#x218;" horiz-adv-x="624" 
d="M560 192q0 -48 -15.5 -85t-40 -59.5t-58.5 -37t-66.5 -20t-68.5 -5.5q-184 0 -260 140l31 19q75 -125 228 -125q56 0 101 14.5t78 54t33 99.5q0 63 -45 102t-139 60q-153 34 -212 74t-59 125q0 87 61.5 140.5t173.5 53.5q96 0 151 -33t88 -94l-32 -19q-35 57 -83 84.5
t-124 27.5q-91 0 -145 -42.5t-54 -114.5q0 -64 48 -99t177 -63q116 -26 174 -71t58 -126zM350 -75q0 -78 -29 -118h-32q22 34 22 79v16q-11 0 -18 1.5t-13 10.5t-6 26q0 32 38 32q21 0 29.5 -11t8.5 -36z" />
    <glyph glyph-name="scommaaccent" unicode="&#x219;" horiz-adv-x="454" 
d="M408 132q0 -41 -17 -71.5t-46 -46t-61 -22.5t-68 -7q-49 0 -95.5 19t-75.5 60l29 22q49 -68 151 -68q35 0 66 9t56.5 36t25.5 69q0 40 -32 61.5t-103 39.5q-5 1 -30 7t-32 8t-28.5 9.5t-29 13l-22 16t-20 21.5t-10.5 27.5t-5 36.5q0 71 52.5 108.5t125.5 37.5
q118 0 167 -84l-30 -19q-44 70 -142 70q-28 0 -57.5 -8.5t-55 -34t-25.5 -62.5q0 -47 30 -70t120 -44q40 -9 63 -16.5t49 -22.5t38 -38.5t12 -56.5zM265 -75q0 -78 -29 -118h-32q22 34 22 79v16q-11 0 -18 1.5t-13 10.5t-6 26q0 32 38 32q21 0 29.5 -11t8.5 -36z" />
    <glyph glyph-name="uni021A" unicode="&#x21a;" horiz-adv-x="532" 
d="M528 693h-244v-693h-36v693h-244v34h524v-34zM304 -75q0 -78 -29 -118h-32q22 34 22 79v16q-11 0 -18 1.5t-13 10.5t-6 26q0 32 38 32q21 0 29.5 -11t8.5 -36z" />
    <glyph glyph-name="uni021B" unicode="&#x21b;" horiz-adv-x="338" 
d="M323 -3q-41 -12 -83 -12q-61 0 -88.5 27t-27.5 102v358h-106v31h106v193l35 31v-224h147v-31h-147v-349q0 -20 1 -32.5t5.5 -28t12 -24.5t23 -15t36.5 -6q35 0 78 13zM273 -75q0 -78 -29 -118h-32q22 34 22 79v16q-11 0 -18 1.5t-13 10.5t-6 26q0 32 38 32q21 0 29.5 -11
t8.5 -36z" />
    <glyph glyph-name="dotlessj" unicode="&#x237;" horiz-adv-x="273" 
d="M178 -43q0 -78 -29 -114t-100 -36q-55 0 -85 14l11 33q38 -15 76 -15q54 0 73 32.5t19 107.5v493h-112v31h147v-546z" />
    <glyph glyph-name="circumflex" unicode="&#x2c6;" horiz-adv-x="500" 
d="M383 590h-30l-106 134l-102 -134h-28l111 176h42z" />
    <glyph glyph-name="caron" unicode="&#x2c7;" horiz-adv-x="500" 
d="M383 766l-111 -176h-42l-113 176h30l106 -134l102 134h28z" />
    <glyph glyph-name="uni02C9" unicode="&#x2c9;" horiz-adv-x="500" 
d="M391 612h-282v43h282v-43z" />
    <glyph glyph-name="breve" unicode="&#x2d8;" horiz-adv-x="500" 
d="M383 747q-35 -138 -136 -138q-54 0 -87 44t-43 94h27q17 -45 40.5 -67.5t64.5 -22.5q74 0 105 90h29z" />
    <glyph glyph-name="dotaccent" unicode="&#x2d9;" horiz-adv-x="500" 
d="M280 641q0 -19 -7.5 -26.5t-26.5 -7.5q-22 0 -28 9t-6 25q0 18 7 26.5t27 8.5q16 0 24 -6.5t9 -12t1 -16.5z" />
    <glyph glyph-name="ring" unicode="&#x2da;" horiz-adv-x="500" 
d="M327 657q0 -39 -20.5 -61t-58.5 -22q-76 0 -76 83t75 83q80 0 80 -83zM300 657q0 58 -52 58q-23 0 -36 -15.5t-13 -42.5q0 -58 48 -58q53 0 53 58z" />
    <glyph glyph-name="ogonek" unicode="&#x2db;" horiz-adv-x="500" 
d="M374 -162q-50 -31 -105 -31q-50 0 -75.5 29t-25.5 75q0 43 31 120h34q-28 -67 -28 -114q0 -42 18 -59.5t56 -17.5q29 0 83 23z" />
    <glyph glyph-name="tilde" unicode="&#x2dc;" horiz-adv-x="500" 
d="M404 738q0 -51 -21 -85.5t-67 -34.5q-41 0 -76 41q-40 47 -63 47q-28 0 -40.5 -28.5t-12.5 -59.5h-29q0 51 21.5 85.5t67.5 34.5q40 0 78 -44q30 -35 45 -41q8 -3 16 -3q27 0 39 28t13 60h29z" />
    <glyph glyph-name="hungarumlaut" unicode="&#x2dd;" horiz-adv-x="500" 
d="M413 766l-142 -176h-30l116 176h56zM242 766l-141 -176h-30l115 176h56z" />
    <glyph glyph-name="uni0394" unicode="&#x394;" horiz-adv-x="638" 
d="M607 0h-576v23l263 691h52l261 -691v-23zM560 33l-237 635h-9l-238 -635h484z" />
    <glyph glyph-name="uni03A9" unicode="&#x3a9;" horiz-adv-x="736" 
d="M369 693q-125 0 -202 -85.5t-77 -221.5q0 -56 13.5 -106.5t30 -83.5t47 -67t48.5 -50t49 -41v-38h-225v32h180q-181 132 -181 350q0 153 87.5 249t228.5 96t228 -96t87 -249q0 -218 -181 -350h180v-32h-225v38q31 25 49 41t48.5 50t47 67t30 83.5t13.5 106.5
q0 135 -77 221t-199 86z" />
    <glyph glyph-name="uni03BC" unicode="&#x3bc;" horiz-adv-x="571" 
d="M478 0h-35v70q-72 -85 -158 -85q-48 0 -85.5 12t-75.5 48v-238h-35v696h35v-408q77 -74 160 -74q71 0 159 88v394h35v-503z" />
    <glyph glyph-name="pi" unicode="&#x3c0;" horiz-adv-x="690" 
d="M617 28l8 -26q-17 -8 -48 -8q-53 0 -79.5 32.5t-26.5 88.5v358h-256v-348q0 -70 -12 -125h-40q12 51 12 127v346q-63 -2 -117 -21l-11 28q56 23 131 23h449v-30h-117v-354q0 -95 80 -95q9 0 27 4z" />
    <glyph glyph-name="Wgrave" unicode="&#x1e80;" horiz-adv-x="854" 
d="M831 727l-183 -727h-49l-175 496l-181 -496h-48l-172 727h36l163 -691l179 494h48l174 -493l174 690h34zM489 780h-30l-142 176h56z" />
    <glyph glyph-name="wgrave" unicode="&#x1e81;" horiz-adv-x="650" 
d="M632 503l-117 -503h-38l-153 354l-146 -354h-44l-116 503h37l104 -461l145 352h41l149 -347l103 456h35zM387 590h-30l-142 176h56z" />
    <glyph glyph-name="Wacute" unicode="&#x1e82;" horiz-adv-x="854" 
d="M831 727l-183 -727h-49l-175 496l-181 -496h-48l-172 727h36l163 -691l179 494h48l174 -493l174 690h34zM535 956l-142 -176h-30l116 176h56z" />
    <glyph glyph-name="wacute" unicode="&#x1e83;" horiz-adv-x="650" 
d="M632 503l-117 -503h-38l-153 354l-146 -354h-44l-116 503h37l104 -461l145 352h41l149 -347l103 456h35zM436 766l-142 -176h-30l116 176h56z" />
    <glyph glyph-name="Wdieresis" unicode="&#x1e84;" horiz-adv-x="854" 
d="M831 727l-183 -727h-49l-175 496l-181 -496h-48l-172 727h36l163 -691l179 494h48l174 -493l174 690h34zM540 814q0 -19 -7.5 -26.5t-25.5 -7.5q-12 0 -19.5 3t-10 8.5t-3.5 10t-1 12.5q0 18 6.5 26.5t27.5 8.5q15 0 23 -6.5t9 -12t1 -16.5zM378 814q0 -19 -7 -26.5
t-25 -7.5q-12 0 -19.5 3t-10 8.5t-3.5 10t-1 12.5q0 18 6.5 26.5t26.5 8.5q15 0 23 -6.5t9 -12t1 -16.5z" />
    <glyph glyph-name="wdieresis" unicode="&#x1e85;" horiz-adv-x="650" 
d="M632 503l-117 -503h-38l-153 354l-146 -354h-44l-116 503h37l104 -461l145 352h41l149 -347l103 456h35zM438 641q0 -19 -7.5 -26.5t-25.5 -7.5q-12 0 -19.5 3t-10 8.5t-3.5 10t-1 12.5q0 18 6.5 26.5t27.5 8.5q15 0 23 -6.5t9 -12t1 -16.5zM276 641q0 -19 -7 -26.5
t-25 -7.5q-12 0 -19.5 3t-10 8.5t-3.5 10t-1 12.5q0 18 6.5 26.5t26.5 8.5q15 0 23 -6.5t9 -12t1 -16.5z" />
    <glyph glyph-name="Ygrave" unicode="&#x1ef2;" horiz-adv-x="567" 
d="M561 727l-258 -429v-298h-36v297l-261 430h41l238 -393l237 393h39zM353 780h-30l-142 176h56z" />
    <glyph glyph-name="ygrave" unicode="&#x1ef3;" horiz-adv-x="477" 
d="M463 503l-244 -539q-40 -89 -72 -123t-87 -34q-47 0 -68 12l12 31q29 -11 66 -11q32 0 57.5 30t53.5 92l32 71l-195 471h38l177 -428l193 428h37zM282 590h-30l-142 176h56z" />
    <glyph glyph-name="endash" unicode="&#x2013;" horiz-adv-x="500" 
d="M506 234h-512v36h512v-36z" />
    <glyph glyph-name="emdash" unicode="&#x2014;" horiz-adv-x="1000" 
d="M1006 234h-1012v36h1012v-36z" />
    <glyph glyph-name="quoteleft" unicode="&#x2018;" horiz-adv-x="219" 
d="M147 567q0 -32 -35 -32q-23 0 -32 11t-9 36q0 96 44 160h32q-37 -57 -37 -121q0 -12 1 -16q11 0 17.5 -1.5t12.5 -10.5t6 -26z" />
    <glyph glyph-name="quoteright" unicode="&#x2019;" horiz-adv-x="219" 
d="M147 695q0 -95 -43 -160h-32q36 58 36 121v16q-11 0 -18 1.5t-13 11t-6 26.5q0 31 35 31q23 0 32 -10.5t9 -36.5z" />
    <glyph glyph-name="quotesinglbase" unicode="&#x201a;" horiz-adv-x="219" 
d="M147 16q0 -96 -43 -160h-32q36 56 36 121v16q-11 0 -18 1.5t-13 10.5t-6 26q0 32 35 32q23 0 32 -10.5t9 -36.5z" />
    <glyph glyph-name="quotedblleft" unicode="&#x201c;" horiz-adv-x="391" 
d="M147 567q0 -32 -35 -32q-23 0 -32 11t-9 36q0 96 44 160h32q-37 -57 -37 -121q0 -12 1 -16q11 0 17.5 -1.5t12.5 -10.5t6 -26zM320 567q0 -32 -35 -32q-23 0 -32 10.5t-9 36.5q0 96 43 160h32q-36 -56 -36 -121v-16q11 0 18 -1.5t13 -10.5t6 -26z" />
    <glyph glyph-name="quotedblright" unicode="&#x201d;" horiz-adv-x="391" 
d="M320 695q0 -96 -44 -160h-32q37 59 37 121q0 13 -1 16q-11 0 -17.5 1.5t-12.5 11t-6 26.5q0 31 35 31q23 0 32 -11t9 -36zM147 695q0 -95 -43 -160h-32q36 58 36 121v16q-11 0 -18 1.5t-13 11t-6 26.5q0 31 35 31q23 0 32 -10.5t9 -36.5z" />
    <glyph glyph-name="quotedblbase" unicode="&#x201e;" horiz-adv-x="391" 
d="M320 15q0 -95 -44 -159h-31q36 56 36 121q0 12 -1 16q-11 0 -17.5 1.5t-12.5 10.5t-6 26q0 31 35 31q23 0 32 -11t9 -36zM147 15q0 -97 -43 -159h-32q37 57 37 121q0 12 -1 16q-11 0 -17.5 1.5t-12.5 10.5t-6 26q0 31 35 31q23 0 31.5 -11t8.5 -36z" />
    <glyph glyph-name="dagger" unicode="&#x2020;" horiz-adv-x="478" 
d="M446 432l-194 11l13 -636h-54l14 636l-193 -11v48l193 -12l-13 274h51l-12 -274l195 12v-48z" />
    <glyph glyph-name="daggerdbl" unicode="&#x2021;" horiz-adv-x="487" 
d="M455 30l-200 12l11 -235h-50l13 235l-197 -12v48l197 -11l-12 207l12 209l-197 -11v48l197 -12l-13 234h50l-11 -234l200 12v-48l-199 11l11 -209l-11 -207l199 11v-48z" />
    <glyph glyph-name="bullet" unicode="&#x2022;" horiz-adv-x="294" 
d="M244 365q0 -41 -28 -69.5t-68 -28.5t-69 28.5t-29 69.5q0 40 28.5 68t69.5 28q40 0 68 -27.5t28 -68.5z" />
    <glyph glyph-name="ellipsis" unicode="&#x2026;" horiz-adv-x="1000" 
d="M871 27q0 -21 -7 -27.5t-30 -6.5t-30.5 7.5t-7.5 26.5q0 20 7.5 28t30.5 8t30 -7.5t7 -28.5zM538 27q0 -21 -7 -27.5t-30 -6.5t-30.5 7.5t-7.5 26.5q0 20 7.5 28t30.5 8t30 -7.5t7 -28.5zM204 27q0 -21 -7 -27.5t-30 -6.5t-30.5 7.5t-7.5 26.5q0 20 7.5 28t30.5 8
t30 -7.5t7 -28.5z" />
    <glyph glyph-name="perthousand" unicode="&#x2030;" horiz-adv-x="1366" 
d="M1312 61q0 -115 -39 -167q-45 -60 -131 -60q-87 0 -132 60q-39 52 -39 167q0 122 39 174q47 60 132 60q83 0 130 -59q40 -50 40 -175zM903 61q0 -115 -39 -167q-45 -60 -131 -60q-87 0 -132 60q-39 52 -39 167q0 122 39 174q47 60 132 60q83 0 130 -59q40 -50 40 -175z
M690 727l-391 -878h-35l391 878h35zM395 508q0 -115 -39 -167q-45 -60 -131 -60q-87 0 -132 60q-39 52 -39 167q0 122 39 174q47 60 132 60q83 0 130 -59q40 -50 40 -175zM1280 61q0 34 -2.5 60.5t-11.5 55t-23.5 46.5t-40 30t-60.5 12q-36 0 -62 -12t-40.5 -30.5t-23 -47
t-11 -54t-2.5 -58.5q0 -43 5.5 -75.5t19.5 -62t43 -45.5t71 -16q41 0 69.5 16t43 45.5t20 61.5t5.5 74zM871 61q0 34 -2.5 60.5t-11.5 55t-23.5 46.5t-40 30t-60.5 12q-36 0 -62 -12t-40.5 -30.5t-23 -47t-11 -54t-2.5 -58.5q0 -43 5.5 -75.5t19.5 -62t43 -45.5t71 -16
q41 0 69.5 16t43 45.5t20 61.5t5.5 74zM363 508q0 34 -2.5 60.5t-11.5 55t-23.5 46.5t-40 30t-60.5 12q-36 0 -62 -12t-40.5 -30.5t-23 -47t-11 -54t-2.5 -58.5q0 -43 5.5 -75.5t19.5 -62t43 -45.5t71 -16q41 0 69.5 16t43 45.5t20 61.5t5.5 74z" />
    <glyph glyph-name="guilsinglleft" unicode="&#x2039;" horiz-adv-x="299" 
d="M275 26h-46l-207 227l207 226h46l-208 -226z" />
    <glyph glyph-name="guilsinglright" unicode="&#x203a;" horiz-adv-x="299" 
d="M277 253l-207 -227h-46l208 227l-208 226h46z" />
    <glyph glyph-name="fraction" unicode="&#x2044;" horiz-adv-x="109" 
d="M268 727l-391 -878h-35l391 878h35z" />
    <glyph glyph-name="zero.superior" unicode="&#x2070;" horiz-adv-x="420" 
d="M383 512q0 -117 -37.5 -174t-135.5 -57q-97 0 -135 57.5t-38 173.5t38 173t135 57q98 0 135.5 -57t37.5 -173zM352 512q0 104 -31 153t-111 49q-79 0 -110 -49.5t-31 -152.5t31 -153t110 -50q80 0 111 49.5t31 153.5z" />
    <glyph glyph-name="i.superior" unicode="&#x2071;" horiz-adv-x="212" 
d="M147 788q0 -14 -5.5 -19.5t-19.5 -5.5q-25 0 -25 25q0 27 25 27t25 -27zM141 293h-28v359h-87v25h115v-384z" />
    <glyph glyph-name="four.superior" unicode="&#x2074;" horiz-adv-x="391" 
d="M367 414h-73v-133h-28v133h-228v25l234 303h22v-303h73v-25zM266 439v254l-196 -254h196z" />
    <glyph glyph-name="five.superior" unicode="&#x2075;" horiz-adv-x="379" 
d="M349 426q0 -67 -48 -106t-136 -39q-98 0 -151 59l31 15q39 -46 120 -46q152 0 152 121q0 100 -141 100q-65 0 -122 -31h-6l35 233h241v-29h-220l-26 -169q50 22 111 22q74 0 117 -31.5t43 -98.5z" />
    <glyph glyph-name="six.superior" unicode="&#x2076;" horiz-adv-x="417" 
d="M384 428q0 -69 -44.5 -108t-123.5 -39q-89 0 -134 52t-45 150q0 114 49.5 186.5t150.5 72.5q72 0 127 -35l-21 -24q-44 31 -106 31q-79 0 -119.5 -55t-48.5 -142q70 48 163 48q70 0 111 -36t41 -101zM353 426q0 111 -131 111q-77 0 -154 -48q0 -35 5.5 -62t20 -56.5
t45.5 -45.5t78 -16q65 0 100.5 31t35.5 86z" />
    <glyph glyph-name="seven.superior" unicode="&#x2077;" horiz-adv-x="369" 
d="M346 697l-206 -416h-35l210 422h-255v-64h-27v93h313v-35z" />
    <glyph glyph-name="eight.superior" unicode="&#x2078;" horiz-adv-x="416" 
d="M379 401q0 -58 -45 -89t-125 -31q-85 0 -128.5 31t-43.5 89q0 80 128 124q-114 43 -114 109q0 108 158 108q76 0 116.5 -26.5t40.5 -73.5q0 -42 -31.5 -69t-83.5 -47q61 -24 94.5 -52t33.5 -73zM336 637q0 79 -127 79q-128 0 -128 -82q0 -29 24 -48.5t102 -48.5
q64 19 96.5 41t32.5 59zM348 400q0 23 -13 42.5t-36.5 33t-43 21.5t-46.5 17q-32 -10 -50.5 -17.5t-42.5 -21.5t-35.5 -33t-11.5 -43q0 -44 36 -67.5t104 -23.5q69 0 104 24.5t35 67.5z" />
    <glyph glyph-name="nine.superior" unicode="&#x2079;" horiz-adv-x="416" 
d="M33 595q0 69 44.5 108t123.5 39q89 0 134 -52t45 -150q0 -114 -49.5 -186.5t-150.5 -72.5q-72 0 -127 35l21 24q44 -31 106 -31q79 0 119.5 55t48.5 141q-72 -50 -163 -50q-70 0 -111 37.5t-41 102.5zM64 597q0 -55 34 -84.5t97 -29.5q74 0 154 50q-2 181 -149 181
q-65 0 -100.5 -31t-35.5 -86z" />
    <glyph glyph-name="parenleft.superior" unicode="&#x207d;" horiz-adv-x="252" 
d="M242 168h-33q-77 82 -117 164t-40 187q0 106 39 187t118 166h33q-165 -162 -165 -353q0 -186 165 -351z" />
    <glyph glyph-name="parenright.superior" unicode="&#x207e;" horiz-adv-x="252" 
d="M43 168h-33q165 165 165 351q0 191 -165 353h33q79 -85 118 -166t39 -187q0 -105 -40 -187t-117 -164z" />
    <glyph glyph-name="n.superior" unicode="&#x207f;" horiz-adv-x="452" 
d="M387 293h-28v232q0 66 -22 100.5t-79 34.5q-74 0 -162 -86v-281h-28v384h28v-71q90 83 172 83q60 0 89.5 -38t29.5 -105v-253z" />
    <glyph glyph-name="zero.inferior" unicode="&#x2080;" horiz-adv-x="420" 
d="M383 102q0 -117 -37.5 -174t-135.5 -57q-97 0 -135 57.5t-38 173.5t38 173t135 57q98 0 135.5 -57t37.5 -173zM352 102q0 104 -31 153t-111 49q-79 0 -110 -49.5t-31 -152.5t31 -153t110 -50q80 0 111 49.5t31 153.5z" />
    <glyph glyph-name="one.inferior" unicode="&#x2081;" horiz-adv-x="306" 
d="M278 -117h-230v25h109v348q-60 -41 -120 -53v25q88 29 139 104h11v-424h91v-25z" />
    <glyph glyph-name="two.inferior" unicode="&#x2082;" horiz-adv-x="398" 
d="M358 -117h-339v33l153 118q28 21 46.5 36.5t42 40t36 51t12.5 53.5q0 38 -33 63t-90 25q-90 0 -146 -64l-22 18q59 75 164 75q71 0 115 -31t44 -87q0 -50 -31 -90.5t-102 -96.5l-153 -116h303v-28z" />
    <glyph glyph-name="three.inferior" unicode="&#x2083;" horiz-adv-x="382" 
d="M357 15q0 -72 -45 -108t-126 -36q-97 0 -147 64l23 18q45 -53 123 -53q140 0 140 113q0 52 -40 75.5t-102 23.5q-36 0 -66 -7v9l188 181h-251v28h287v-29l-161 -155q5 1 16 1q73 0 117 -33.5t44 -91.5z" />
    <glyph glyph-name="four.inferior" unicode="&#x2084;" horiz-adv-x="391" 
d="M367 4h-73v-133h-28v133h-228v25l234 303h22v-303h73v-25zM266 29v254l-196 -254h196z" />
    <glyph glyph-name="five.inferior" unicode="&#x2085;" horiz-adv-x="379" 
d="M349 16q0 -67 -48 -106t-136 -39q-98 0 -151 59l31 15q39 -46 120 -46q152 0 152 121q0 100 -141 100q-65 0 -122 -31h-6l35 233h241v-29h-220l-26 -169q50 22 111 22q74 0 117 -31.5t43 -98.5z" />
    <glyph glyph-name="six.inferior" unicode="&#x2086;" horiz-adv-x="417" 
d="M384 18q0 -69 -44.5 -108t-123.5 -39q-89 0 -134 52t-45 150q0 114 49.5 186.5t150.5 72.5q72 0 127 -35l-21 -24q-44 31 -106 31q-79 0 -119.5 -55t-48.5 -142q70 48 163 48q70 0 111 -36t41 -101zM353 16q0 111 -131 111q-77 0 -154 -48q0 -35 5.5 -62t20 -56.5
t45.5 -45.5t78 -16q65 0 100.5 31t35.5 86z" />
    <glyph glyph-name="seven.inferior" unicode="&#x2087;" horiz-adv-x="369" 
d="M346 287l-206 -416h-35l210 422h-255v-64h-27v93h313v-35z" />
    <glyph glyph-name="eight.inferior" unicode="&#x2088;" horiz-adv-x="416" 
d="M379 -9q0 -58 -45 -89t-125 -31q-85 0 -128.5 31t-43.5 89q0 80 128 124q-114 43 -114 109q0 108 158 108q76 0 116.5 -26.5t40.5 -73.5q0 -42 -31.5 -69t-83.5 -47q61 -24 94.5 -52t33.5 -73zM336 227q0 79 -127 79q-128 0 -128 -82q0 -29 24 -48.5t102 -48.5
q64 19 96.5 41t32.5 59zM348 -10q0 23 -13 42.5t-36.5 33t-43 21.5t-46.5 17q-32 -10 -50.5 -17.5t-42.5 -21.5t-35.5 -33t-11.5 -43q0 -44 36 -67.5t104 -23.5q69 0 104 24.5t35 67.5z" />
    <glyph glyph-name="nine.inferior" unicode="&#x2089;" horiz-adv-x="416" 
d="M33 185q0 69 44.5 108t123.5 39q89 0 134 -52t45 -150q0 -114 -49.5 -186.5t-150.5 -72.5q-72 0 -127 35l21 24q44 -31 106 -31q79 0 119.5 55t48.5 141q-72 -50 -163 -50q-70 0 -111 37.5t-41 102.5zM64 187q0 -55 34 -84.5t97 -29.5q74 0 154 50q-2 181 -149 181
q-65 0 -100.5 -31t-35.5 -86z" />
    <glyph glyph-name="parenleft.inferior" unicode="&#x208d;" horiz-adv-x="252" 
d="M242 -126h-33q-77 82 -117 164t-40 187q0 106 39 187t118 166h33q-165 -162 -165 -353q0 -186 165 -351z" />
    <glyph glyph-name="parenright.inferior" unicode="&#x208e;" horiz-adv-x="252" 
d="M43 -126h-33q165 165 165 351q0 191 -165 353h33q79 -85 118 -166t39 -187q0 -105 -40 -187t-117 -164z" />
    <glyph glyph-name="Euro" unicode="&#x20ac;" horiz-adv-x="599" 
d="M572 612l-31 -19q-63 115 -188 115q-223 0 -239 -273h355l-10 -32h-348q0 -5 -0.5 -19.5t-0.5 -20.5t0.5 -20t0.5 -18h327l-9 -32h-316q9 -137 65.5 -205.5t175.5 -68.5q94 0 174 67l23 -31q-84 -70 -202 -70q-253 0 -274 308h-73l11 32h59v38q0 5 0.5 19.5t0.5 20.5h-70
l10 32h62q9 149 81.5 228t200.5 79q151 0 215 -130z" />
    <glyph glyph-name="afii61289" unicode="&#x2113;" horiz-adv-x="512" 
d="M374 74l23 -19q-53 -70 -112 -70q-63 0 -83 37.5t-20 108.5v130l-74 -81l-21 24l95 104v255q0 83 22 123.5t70 40.5q83 0 83 -102q0 -64 -26.5 -139.5t-75.5 -140.5q-36 -47 -38 -49v-170q0 -54 14 -81.5t54 -27.5q46 0 89 57zM321 620q0 77 -49 77q-55 0 -55 -137v-213
q7 7 27 38q77 117 77 235z" />
    <glyph glyph-name="trademark" unicode="&#x2122;" horiz-adv-x="698" 
d="M658 378h-32v298l-104 -198h-34l-99 201v-301h-32v349h43l106 -214l112 214h40v-349zM264 697h-104v-319h-33v319h-105v30h242v-30z" />
    <glyph glyph-name="Omega" unicode="&#x2126;" horiz-adv-x="736" 
d="M369 693q-125 0 -202 -85.5t-77 -221.5q0 -56 13.5 -106.5t30 -83.5t47 -67t48.5 -50t49 -41v-38h-225v32h180q-181 132 -181 350q0 153 87.5 249t228.5 96t228 -96t87 -249q0 -218 -181 -350h180v-32h-225v38q31 25 49 41t48.5 50t47 67t30 83.5t13.5 106.5
q0 135 -77 221t-199 86z" />
    <glyph glyph-name="estimated" unicode="&#x212e;" horiz-adv-x="676" 
d="M639 305h-470v-210q69 -69 167 -69q78 0 131 36t95 103q8 -4 21 -12t16 -10q-50 -76 -110.5 -115.5t-152.5 -39.5q-133 0 -215 91.5t-82 226.5q0 136 81.5 227t217.5 91q137 0 218 -91t83 -228zM506 344v172q-72 70 -169 70q-102 0 -168 -69v-173h337z" />
    <glyph glyph-name="onethird" unicode="&#x2153;" horiz-adv-x="977" 
d="M711 727l-391 -878h-35l391 878h35zM346 293h-230v25h109v348q-60 -41 -120 -53v25q88 29 139 104h11v-424h91v-25zM919 -22q0 -72 -45 -108t-126 -36q-97 0 -147 64l23 18q45 -53 123 -53q140 0 140 113q0 52 -40 75.5t-102 23.5q-36 0 -66 -7v9l188 181h-251v28h287
v-29l-161 -155q5 1 16 1q73 0 117 -33.5t44 -91.5z" />
    <glyph glyph-name="twothirds" unicode="&#x2154;" horiz-adv-x="977" 
d="M711 727l-391 -878h-35l391 878h35zM919 -22q0 -72 -45 -108t-126 -36q-97 0 -147 64l23 18q45 -53 123 -53q140 0 140 113q0 52 -40 75.5t-102 23.5q-36 0 -66 -7v9l188 181h-251v28h287v-29l-161 -155q5 1 16 1q73 0 117 -33.5t44 -91.5zM400 293h-339v33l153 118
q28 21 46.5 36.5t42 40t36 51t12.5 53.5q0 38 -33 63t-90 25q-90 0 -146 -64l-22 18q59 75 164 75q71 0 115 -31t44 -87q0 -50 -31 -90.5t-102 -96.5l-153 -116h303v-28z" />
    <glyph glyph-name="oneeighth" unicode="&#x215b;" horiz-adv-x="977" 
d="M711 727l-391 -878h-35l391 878h35zM346 293h-230v25h109v348q-60 -41 -120 -53v25q88 29 139 104h11v-424h91v-25zM920 -46q0 -58 -45 -89t-125 -31q-85 0 -128.5 31t-43.5 89q0 80 128 124q-114 43 -114 109q0 108 158 108q76 0 116.5 -26.5t40.5 -73.5
q0 -42 -31.5 -69t-83.5 -47q61 -24 94.5 -52t33.5 -73zM877 190q0 79 -127 79q-128 0 -128 -82q0 -29 24 -48.5t102 -48.5q64 19 96.5 41t32.5 59zM889 -47q0 23 -13 42.5t-36.5 33t-43 21.5t-46.5 17q-32 -10 -50.5 -17.5t-42.5 -21.5t-35.5 -33t-11.5 -43q0 -44 36 -67.5
t104 -23.5q69 0 104 24.5t35 67.5z" />
    <glyph glyph-name="threeeighths" unicode="&#x215c;" horiz-adv-x="977" 
d="M711 727l-391 -878h-35l391 878h35zM920 -46q0 -58 -45 -89t-125 -31q-85 0 -128.5 31t-43.5 89q0 80 128 124q-114 43 -114 109q0 108 158 108q76 0 116.5 -26.5t40.5 -73.5q0 -42 -31.5 -69t-83.5 -47q61 -24 94.5 -52t33.5 -73zM877 190q0 79 -127 79q-128 0 -128 -82
q0 -29 24 -48.5t102 -48.5q64 19 96.5 41t32.5 59zM889 -47q0 23 -13 42.5t-36.5 33t-43 21.5t-46.5 17q-32 -10 -50.5 -17.5t-42.5 -21.5t-35.5 -33t-11.5 -43q0 -44 36 -67.5t104 -23.5q69 0 104 24.5t35 67.5zM390 425q0 -72 -45 -108t-126 -36q-97 0 -147 64l23 18
q46 -54 123 -54q140 0 140 114q0 52 -40 75.5t-102 23.5q-36 0 -66 -7v9l188 181h-251v28h287v-29l-161 -155q5 1 16 1q73 0 117 -33.5t44 -91.5z" />
    <glyph glyph-name="fiveeighths" unicode="&#x215d;" horiz-adv-x="977" 
d="M711 727l-391 -878h-35l391 878h35zM920 -46q0 -58 -45 -89t-125 -31q-85 0 -128.5 31t-43.5 89q0 80 128 124q-114 43 -114 109q0 108 158 108q76 0 116.5 -26.5t40.5 -73.5q0 -42 -31.5 -69t-83.5 -47q61 -24 94.5 -52t33.5 -73zM877 190q0 79 -127 79q-128 0 -128 -82
q0 -29 24 -48.5t102 -48.5q64 19 96.5 41t32.5 59zM889 -47q0 23 -13 42.5t-36.5 33t-43 21.5t-46.5 17q-32 -10 -50.5 -17.5t-42.5 -21.5t-35.5 -33t-11.5 -43q0 -44 36 -67.5t104 -23.5q69 0 104 24.5t35 67.5zM405 426q0 -67 -48 -106t-136 -39q-98 0 -151 59l31 15
q38 -45 120 -45q152 0 152 120q0 100 -141 100q-65 0 -122 -31h-6l35 233h241v-29h-220l-26 -169q50 22 111 22q74 0 117 -31.5t43 -98.5z" />
    <glyph glyph-name="seveneighths" unicode="&#x215e;" horiz-adv-x="977" 
d="M711 727l-391 -878h-35l391 878h35zM920 -46q0 -58 -45 -89t-125 -31q-85 0 -128.5 31t-43.5 89q0 80 128 124q-114 43 -114 109q0 108 158 108q76 0 116.5 -26.5t40.5 -73.5q0 -42 -31.5 -69t-83.5 -47q61 -24 94.5 -52t33.5 -73zM877 190q0 79 -127 79q-128 0 -128 -82
q0 -29 24 -48.5t102 -48.5q64 19 96.5 41t32.5 59zM889 -47q0 23 -13 42.5t-36.5 33t-43 21.5t-46.5 17q-32 -10 -50.5 -17.5t-42.5 -21.5t-35.5 -33t-11.5 -43q0 -44 36 -67.5t104 -23.5q69 0 104 24.5t35 67.5zM448 697l-206 -416h-35l210 422h-255v-64h-27v93h313v-35z
" />
    <glyph glyph-name="partialdiff" unicode="&#x2202;" horiz-adv-x="598" 
d="M537 503q0 -95 -26 -199q-15 -59 -39.5 -112t-58.5 -100t-82 -75t-102 -28q-76 0 -123.5 51t-47.5 136q0 144 83.5 235.5t193.5 91.5t158 -99q6 35 6 102q0 99 -43.5 152t-123.5 53q-53 0 -100 -25l-11 26q52 30 119 30q89 0 143 -62.5t54 -176.5zM484 358v5
q-22 52 -57.5 81.5t-94.5 29.5q-94 0 -164 -86.5t-70 -212.5q0 -71 36 -113t97 -42q86 0 154 91.5t99 246.5z" />
    <glyph glyph-name="Delta" unicode="&#x2206;" horiz-adv-x="638" 
d="M607 0h-576v23l263 691h52l261 -691v-23zM560 33l-237 635h-9l-238 -635h484z" />
    <glyph glyph-name="product" unicode="&#x220f;" horiz-adv-x="753" 
d="M656 -241h-39v922h-480v-922h-40v955h559v-955z" />
    <glyph glyph-name="summation" unicode="&#x2211;" horiz-adv-x="657" 
d="M626 -241h-604v12l377 470l-350 455v18h549v-32h-495l340 -440l-362 -451h545v-32z" />
    <glyph glyph-name="minus" unicode="&#x2212;" horiz-adv-x="649" 
d="M575 269h-501v31h501v-31z" />
    <glyph glyph-name="uni2215" unicode="&#x2215;" horiz-adv-x="109" 
d="M268 727l-391 -878h-35l391 878h35z" />
    <glyph glyph-name="uni2219" unicode="&#x2219;" horiz-adv-x="219" 
d="M147 282q0 -20 -7.5 -27t-29.5 -7q-23 0 -31 7.5t-8 26.5q0 20 8 28t30 8q24 0 31 -7.5t7 -28.5z" />
    <glyph glyph-name="radical" unicode="&#x221a;" horiz-adv-x="536" 
d="M305 28l198 714h30l-211 -757h-35l-160 380l-59 -36l-11 22l89 53z" />
    <glyph glyph-name="infinity" unicode="&#x221e;" horiz-adv-x="825" 
d="M413 319q38 60 90 97t106 37q74 0 116.5 -44t42.5 -112q0 -71 -42 -116t-114 -45q-111 0 -200 136q-38 -60 -90 -97t-106 -37q-74 0 -116.5 44t-42.5 112q0 71 42 116t114 45q111 0 200 -136zM396 296q-35 57 -84 93.5t-96 36.5q-63 0 -95.5 -35t-32.5 -96
q0 -57 36.5 -93t90.5 -36q99 0 181 130zM429 295q35 -57 84 -93.5t96 -36.5q63 0 95.5 35t32.5 96q0 57 -36.5 93t-90.5 36q-99 0 -181 -130z" />
    <glyph glyph-name="integral" unicode="&#x222b;" horiz-adv-x="498" 
d="M426 756l-8 -30q-19 8 -44 8q-53 0 -79.5 -32.5t-26.5 -90.5v-694q0 -75 -38 -115.5t-102 -40.5q-33 0 -57 8q6 23 7 30q23 -7 46 -7q105 0 105 122v697q0 71 37.5 112t103.5 41q28 0 56 -8z" />
    <glyph glyph-name="approxequal" unicode="&#x2248;" horiz-adv-x="649" 
d="M579 435v-36q-59 -61 -133 -61q-43 0 -127 41t-117 41q-73 0 -136 -65v38q61 56 133 56q43 0 127.5 -41.5t120.5 -41.5q70 0 132 69zM579 221v-36q-59 -61 -133 -61q-43 0 -127 41t-117 41q-73 0 -136 -65v38q61 56 133 56q43 0 127.5 -41.5t120.5 -41.5q70 0 132 69z
" />
    <glyph glyph-name="notequal" unicode="&#x2260;" horiz-adv-x="649" 
d="M575 159h-307l-76 -136h-35l76 136h-159v31h176l106 189h-282v31h299l83 148h35l-83 -148h167v-31h-184l-106 -189h290v-31z" />
    <glyph glyph-name="lessequal" unicode="&#x2264;" horiz-adv-x="649" 
d="M575 86l-501 202v13l501 202v-34l-445 -175l445 -174v-34zM575 0h-501v31h501v-31z" />
    <glyph glyph-name="greaterequal" unicode="&#x2265;" horiz-adv-x="649" 
d="M575 288l-501 -202v34l445 174l-445 175v34l501 -202v-13zM575 0h-501v31h501v-31z" />
    <glyph glyph-name="lozenge" unicode="&#x25ca;" horiz-adv-x="581" 
d="M279 714h22l220 -357l-220 -357h-22l-219 356zM486 357l-196 319l-197 -319l196 -319z" />
    <glyph glyph-name="zero.fitted" unicode="&#xe097;" horiz-adv-x="576" 
d="M526 364q0 -189 -54.5 -284t-183.5 -95q-131 0 -184.5 94.5t-53.5 283.5q0 188 54.5 283.5t183.5 95.5t183.5 -95t54.5 -283zM488 364q0 168 -46 256t-154 88t-154 -88.5t-46 -256.5t46.5 -256t154.5 -88t153.5 88t45.5 257z" />
    <glyph glyph-name="two.fitted" unicode="&#xe098;" horiz-adv-x="496" 
d="M467 0h-443v34l190.5 183t114.5 126.5t65.5 105.5t15.5 95q0 19 -4.5 39t-17 43t-32 40.5t-52 29.5t-73.5 12q-123 0 -189 -88l-26 23q24 37 80.5 68t133.5 31q59 0 103 -18t68 -48t35.5 -62.5t11.5 -66.5q0 -72 -33 -136.5t-107 -145t-234 -231.5h393v-34z" />
    <glyph glyph-name="three.fitted" unicode="&#xe099;" horiz-adv-x="527" 
d="M478 217q0 -113 -68 -172.5t-176 -59.5q-141 0 -217 101l31 23q62 -90 187 -90q92 0 148.5 50.5t56.5 147.5t-53 138t-151 41q-27 0 -67 -7v8l245 287h-349v34h388v-34l-216 -256h17q106 0 165 -53.5t59 -157.5z" />
    <glyph glyph-name="four.fitted" unicode="&#xe09a;" horiz-adv-x="519" 
d="M494 182h-86v-197h-36v197h-342v33l335 527h43v-527h86v-33zM372 215v477l-303 -477h303z" />
    <glyph glyph-name="five.fitted" unicode="&#xe09b;" horiz-adv-x="522" 
d="M471 222q0 -110 -67 -173.5t-187 -63.5q-75 0 -126 30t-79 67l32 23q25 -38 71 -62t103 -24q106 0 160.5 56.5t54.5 154.5q0 167 -204 167q-85 0 -158 -55h-11l46 376h331v-34h-304l-35 -289q58 36 152 36q103 0 162 -50t59 -159z" />
    <glyph glyph-name="six.fitted" unicode="&#xe09c;" horiz-adv-x="577" 
d="M527 232q0 -118 -60.5 -182.5t-171.5 -64.5q-122 0 -183.5 84.5t-61.5 246.5q0 123 27.5 216t90 151.5t155.5 58.5q108 0 177 -60l-25 -28q-59 54 -152 54q-60 0 -104.5 -28t-71 -77t-40.5 -107.5t-17 -128.5q108 85 229 85q98 0 153 -54t55 -166zM489 228
q0 190 -181 190q-39 0 -82 -15t-71 -31.5t-66 -42.5q0 -2 -0.5 -7.5t-0.5 -7.5q0 -295 208 -295q91 0 142 55.5t51 153.5z" />
    <glyph glyph-name="seven.fitted" unicode="&#xe09d;" horiz-adv-x="497" 
d="M466 684l-285 -699h-41l289 699h-359v-111h-34v145h430v-34z" />
    <glyph glyph-name="eight.fitted" unicode="&#xe09e;" horiz-adv-x="554" 
d="M512 183q0 -96 -62 -147t-172 -51q-115 0 -175.5 52t-60.5 146q0 144 183 204q-164 63 -164 177q0 85 55.5 131.5t161.5 46.5q105 0 160 -47t55 -132q0 -112 -162 -176q181 -64 181 -204zM455 567q0 71 -47.5 106t-129.5 35q-85 0 -132 -35.5t-47 -101.5q0 -56 36 -92.5
t141 -76.5q93 35 136 70.5t43 94.5zM474 180q0 42 -15.5 73.5t-47.5 54t-59.5 35.5t-73.5 29q-46 -16 -73.5 -28.5t-60.5 -35t-48.5 -54.5t-15.5 -75q0 -77 52 -118.5t146 -41.5q95 0 145.5 43.5t50.5 117.5z" />
    <glyph glyph-name="nine.fitted" unicode="&#xe09f;" horiz-adv-x="577" 
d="M50 495q0 118 60.5 182.5t171.5 64.5q122 0 183.5 -84.5t61.5 -246.5q0 -123 -27.5 -216t-90 -151.5t-155.5 -58.5q-108 0 -177 60l25 28q59 -54 152 -54q60 0 104.5 28t71 77t40.5 107.5t17 128.5q-108 -85 -229 -85q-98 0 -153 54t-55 166zM88 499q0 -190 181 -190
q39 0 82 15t71 31.5t66 42.5q0 2 0.5 7.5t0.5 7.5q0 295 -208 295q-91 0 -142 -55.5t-51 -153.5z" />
    <glyph glyph-name="zero.taboldstyle" unicode="&#xe100;" 
d="M523 285q0 -300 -238 -300t-238 299q0 298 238 298t238 -297zM485 285q0 263 -200 263t-200 -264q0 -265 200 -265q109 0 154.5 70.5t45.5 195.5z" />
    <glyph glyph-name="one.taboldstyle" unicode="&#xe101;" 
d="M453 0h-297v31h141v468q-68 -52 -155 -72v31q119 36 178 133h13v-560h120v-31z" />
    <glyph glyph-name="two.taboldstyle" unicode="&#xe102;" 
d="M510 0h-438v34l197 159q93 76 134 128t41 111q0 54 -44.5 85t-116.5 31q-118 0 -180 -84l-28 25q66 93 211 93q86 0 141 -39t55 -112q0 -90 -90 -176q-91 -86 -270 -221h388v-34z" />
    <glyph glyph-name="three.taboldstyle" unicode="&#xe103;" 
d="M501 66q0 -113 -68 -172.5t-176 -59.5q-141 0 -217 101l31 23q62 -90 187 -90q92 0 148.5 50.5t56.5 147.5t-53 138t-151 41q-27 0 -67 -7v8l245 287h-349v34h388v-34l-216 -256h17q106 0 165 -53.5t59 -157.5z" />
    <glyph glyph-name="four.taboldstyle" unicode="&#xe104;" 
d="M508 31h-86v-197h-36v197h-342v33l335 527h43v-527h86v-33zM386 64v477l-303 -477h303z" />
    <glyph glyph-name="five.taboldstyle" unicode="&#xe105;" 
d="M501 71q0 -110 -67 -173.5t-187 -63.5q-75 0 -126 30t-79 67l32 23q25 -38 71 -62t103 -24q106 0 160.5 56.5t54.5 154.5q0 167 -204 167q-85 0 -158 -55h-11l46 376h331v-34h-304l-35 -289q58 36 152 36q103 0 162 -50t59 -159z" />
    <glyph glyph-name="six.taboldstyle" unicode="&#xe106;" 
d="M523 232q0 -118 -60.5 -182.5t-171.5 -64.5q-122 0 -183.5 84.5t-61.5 246.5q0 123 27.5 216t90 151.5t155.5 58.5q108 0 177 -60l-25 -28q-59 54 -152 54q-60 0 -104.5 -28t-71 -77t-40.5 -107.5t-17 -128.5q108 85 229 85q98 0 153 -54t55 -166zM485 228
q0 190 -181 190q-39 0 -82 -15t-71 -31.5t-66 -42.5q0 -2 -0.5 -7.5t-0.5 -7.5q0 -295 208 -295q91 0 142 55.5t51 153.5z" />
    <glyph glyph-name="seven.taboldstyle" unicode="&#xe107;" 
d="M501 533l-285 -699h-41l289 699h-359v-111h-34v145h430v-34z" />
    <glyph glyph-name="eight.taboldstyle" unicode="&#xe108;" 
d="M520 183q0 -96 -62 -147t-172 -51q-115 0 -175.5 52t-60.5 146q0 144 183 204q-164 63 -164 177q0 85 55.5 131.5t161.5 46.5q105 0 160 -47t55 -132q0 -112 -162 -176q181 -64 181 -204zM463 567q0 71 -47.5 106t-129.5 35q-85 0 -132 -35.5t-47 -101.5q0 -56 36 -92.5
t141 -76.5q93 35 136 70.5t43 94.5zM482 180q0 42 -15.5 73.5t-47.5 54t-59.5 35.5t-73.5 29q-46 -16 -73.5 -28.5t-60.5 -35t-48.5 -54.5t-15.5 -75q0 -77 52 -118.5t146 -41.5q95 0 145.5 43.5t50.5 117.5z" />
    <glyph glyph-name="nine.taboldstyle" unicode="&#xe109;" 
d="M523 250q0 -186 -69 -301t-202 -115q-106 0 -184 66l24 29q66 -61 160 -61q111 0 167.5 93t63.5 238q-107 -85 -229 -85q-98 0 -153 54t-55 166q0 118 60.5 182.5t169.5 64.5q123 0 185 -84.5t62 -246.5zM485 252q0 295 -208 295q-91 0 -142 -55.5t-51 -153.5
q0 -190 181 -190q39 0 81.5 15t67.5 29.5t70 44.5q1 5 1 15z" />
    <glyph glyph-name="zero.denominator" unicode="&#xe10a;" horiz-adv-x="420" 
d="M383 65q0 -117 -37.5 -174t-135.5 -57q-97 0 -135 57.5t-38 173.5t38 173t135 57q98 0 135.5 -57t37.5 -173zM352 65q0 104 -31 153t-111 49q-79 0 -110 -49.5t-31 -152.5t31 -153t110 -50q80 0 111 49.5t31 153.5z" />
    <glyph glyph-name="one.denominator" unicode="&#xe10b;" horiz-adv-x="306" 
d="M250 -154h-230v25h109v348q-60 -41 -120 -53v25q88 29 139 104h11v-424h91v-25z" />
    <glyph glyph-name="two.denominator" unicode="&#xe10c;" horiz-adv-x="398" 
d="M358 -154h-339v33l153 118q28 21 46.5 36.5t42 40t36 51t12.5 53.5q0 38 -33 63t-90 25q-90 0 -146 -64l-22 18q59 75 164 75q71 0 115 -31t44 -87q0 -50 -31 -90.5t-102 -96.5l-153 -116h303v-28z" />
    <glyph glyph-name="three.denominator" unicode="&#xe10d;" horiz-adv-x="382" 
d="M357 -22q0 -72 -45 -108t-126 -36q-97 0 -147 64l23 18q45 -53 123 -53q140 0 140 113q0 52 -40 75.5t-102 23.5q-36 0 -66 -7v9l188 181h-251v28h287v-29l-161 -155q5 1 16 1q73 0 117 -33.5t44 -91.5z" />
    <glyph glyph-name="four.denominator" unicode="&#xe10e;" horiz-adv-x="391" 
d="M367 -33h-73v-133h-28v133h-228v25l234 303h22v-303h73v-25zM266 -8v254l-196 -254h196z" />
    <glyph glyph-name="five.denominator" unicode="&#xe10f;" horiz-adv-x="379" 
d="M349 -21q0 -67 -48 -106t-136 -39q-98 0 -151 59l31 15q39 -46 120 -46q152 0 152 121q0 100 -141 100q-65 0 -122 -31h-6l35 233h241v-29h-220l-26 -169q50 22 111 22q74 0 117 -31.5t43 -98.5z" />
    <glyph glyph-name="six.denominator" unicode="&#xe110;" horiz-adv-x="417" 
d="M384 -19q0 -69 -44.5 -108t-123.5 -39q-89 0 -134 52t-45 150q0 114 49.5 186.5t150.5 72.5q72 0 127 -35l-21 -24q-44 31 -106 31q-79 0 -119.5 -55t-48.5 -142q70 48 163 48q70 0 111 -36t41 -101zM353 -21q0 111 -131 111q-77 0 -154 -48q0 -35 5.5 -62t20 -56.5
t45.5 -45.5t78 -16q65 0 100.5 31t35.5 86z" />
    <glyph glyph-name="seven.denominator" unicode="&#xe111;" horiz-adv-x="369" 
d="M346 250l-206 -416h-35l210 422h-255v-64h-27v93h313v-35z" />
    <glyph glyph-name="eight.denominator" unicode="&#xe112;" horiz-adv-x="416" 
d="M379 -46q0 -58 -45 -89t-125 -31q-85 0 -128.5 31t-43.5 89q0 80 128 124q-114 43 -114 109q0 108 158 108q76 0 116.5 -26.5t40.5 -73.5q0 -42 -31.5 -69t-83.5 -47q61 -24 94.5 -52t33.5 -73zM336 190q0 79 -127 79q-128 0 -128 -82q0 -29 24 -48.5t102 -48.5
q64 19 96.5 41t32.5 59zM348 -47q0 23 -13 42.5t-36.5 33t-43 21.5t-46.5 17q-32 -10 -50.5 -17.5t-42.5 -21.5t-35.5 -33t-11.5 -43q0 -44 36 -67.5t104 -23.5q69 0 104 24.5t35 67.5z" />
    <glyph glyph-name="nine.denominator" unicode="&#xe113;" horiz-adv-x="416" 
d="M33 148q0 69 44.5 108t123.5 39q89 0 134 -52t45 -150q0 -114 -49.5 -186.5t-150.5 -72.5q-72 0 -127 35l21 24q44 -31 106 -31q79 0 119.5 55t48.5 141q-72 -50 -163 -50q-70 0 -111 37.5t-41 102.5zM64 150q0 -55 34 -84.5t97 -29.5q74 0 154 50q-2 181 -149 181
q-65 0 -100.5 -31t-35.5 -86z" />
    <glyph glyph-name="zero.numerator" unicode="&#xe11e;" horiz-adv-x="420" 
d="M383 512q0 -117 -37.5 -174t-135.5 -57q-97 0 -135 57.5t-38 173.5t38 173t135 57q98 0 135.5 -57t37.5 -173zM351 512q0 104 -30.5 152.5t-110.5 48.5q-79 0 -110 -49t-31 -152t31 -152.5t110 -49.5q80 0 110.5 49t30.5 153z" />
    <glyph glyph-name="one.numerator" unicode="&#xe11f;" horiz-adv-x="306" 
d="M278 293h-230v25h109v348q-60 -41 -120 -53v25q88 29 139 104h11v-424h91v-25z" />
    <glyph glyph-name="two.numerator" unicode="&#xe120;" horiz-adv-x="398" 
d="M358 293h-339v33l153 118q28 21 46.5 36.5t42 40t36 51t12.5 53.5q0 38 -33 63t-90 25q-90 0 -146 -64l-22 18q59 75 164 75q71 0 115 -31t44 -87q0 -50 -31 -90.5t-102 -96.5l-153 -116h303v-28z" />
    <glyph glyph-name="three.numerator" unicode="&#xe121;" horiz-adv-x="382" 
d="M357 425q0 -72 -45 -108t-126 -36q-97 0 -147 64l23 18q46 -54 123 -54q140 0 140 114q0 52 -40 75.5t-102 23.5q-36 0 -66 -7v9l188 181h-251v28h287v-29l-161 -155q5 1 16 1q73 0 117 -33.5t44 -91.5z" />
    <glyph glyph-name="four.numerator" unicode="&#xe122;" horiz-adv-x="391" 
d="M367 414h-73v-133h-28v133h-228v25l234 303h22v-303h73v-25zM266 439v254l-196 -254h196z" />
    <glyph glyph-name="five.numerator" unicode="&#xe123;" horiz-adv-x="379" 
d="M349 426q0 -67 -48 -106t-136 -39q-98 0 -151 59l31 15q38 -45 120 -45q152 0 152 120q0 100 -141 100q-65 0 -122 -31h-6l35 233h241v-29h-220l-26 -169q50 22 111 22q74 0 117 -31.5t43 -98.5z" />
    <glyph glyph-name="six.numerator" unicode="&#xe124;" horiz-adv-x="417" 
d="M384 428q0 -69 -44.5 -108t-123.5 -39q-89 0 -134 52t-45 150q0 114 49.5 186.5t150.5 72.5q72 0 127 -35l-21 -25q-44 31 -106 31q-79 0 -119.5 -55t-48.5 -141q70 48 163 48q70 0 111 -36t41 -101zM352 426q0 111 -130 111q-77 0 -154 -48q0 -35 5.5 -62t20 -56
t45.5 -45t78 -16q65 0 100 30.5t35 85.5z" />
    <glyph glyph-name="seven.numerator" unicode="&#xe125;" horiz-adv-x="369" 
d="M346 697l-206 -416h-35l210 422h-255v-64h-27v93h313v-35z" />
    <glyph glyph-name="eight.numerator" unicode="&#xe126;" horiz-adv-x="416" 
d="M379 401q0 -58 -45 -89t-125 -31q-172 0 -172 117q0 83 128 127q-114 43 -114 109q0 108 158 108q76 0 116.5 -26.5t40.5 -73.5q0 -42 -31.5 -69t-83.5 -47q61 -24 94.5 -52t33.5 -73zM334 637q0 76 -125 76q-126 0 -126 -76q0 -30 23.5 -51t100.5 -49q64 18 95.5 40.5
t31.5 59.5zM347 400q0 23 -12.5 42.5t-36.5 33t-43 21.5t-46 17q-32 -10 -50.5 -17.5t-42.5 -21.5t-35.5 -33t-11.5 -43q0 -89 140 -89q138 0 138 90z" />
    <glyph glyph-name="nine.numerator" unicode="&#xe127;" horiz-adv-x="416" 
d="M33 595q0 69 44.5 108t123.5 39q89 0 134 -52t45 -150q0 -114 -49.5 -186.5t-150.5 -72.5q-72 0 -127 35l21 24q44 -31 106 -31q79 0 119.5 55t48.5 141q-72 -50 -163 -50q-70 0 -111 37.5t-41 102.5zM65 597q0 -55 33.5 -84.5t96.5 -29.5q74 0 154 50q0 35 -5.5 62
t-20 56.5t-45.5 45.5t-78 16q-65 0 -100 -30.5t-35 -85.5z" />
    <glyph glyph-name="commaaccent" unicode="&#xf6c3;" horiz-adv-x="255" 
d="M165 -75q0 -78 -29 -118h-32q22 34 22 79v16q-11 0 -18 1.5t-13 10.5t-6 26q0 32 38 32q21 0 29.5 -11t8.5 -36z" />
    <glyph glyph-name="one.fitted" unicode="&#xf6dc;" horiz-adv-x="429" 
d="M373 0h-297v31h141v619q-68 -52 -155 -72v31q119 36 178 133h13v-711h120v-31z" />
    <glyph glyph-name="a.superior" unicode="&#xf6e9;" horiz-adv-x="422" 
d="M357 293h-27v61q-90 -73 -167 -73q-59 0 -92 31.5t-33 82.5q0 23 7 41t16 30t28.5 21.5t32 14.5t40 9.5t39.5 5.5t42 4l87 8v29q0 57 -32.5 80.5t-95.5 23.5q-70 0 -117 -38l-24 22q57 43 142 43q79 0 116.5 -29t37.5 -102v-265zM330 382v123l-80 -7q-43 -3 -71.5 -8
t-56 -16t-41 -30t-13.5 -47q0 -91 102 -91q72 0 160 76z" />
    <glyph glyph-name="b.superior" unicode="&#xf6ea;" horiz-adv-x="451" 
d="M409 487q0 -37 -8.5 -71t-27 -65.5t-53 -50.5t-81.5 -19q-70 0 -141 22l-25 -15h-5v560h28v-223q68 64 146 64q83 0 125 -55.5t42 -146.5zM379 486q0 70 -32 122.5t-105 52.5q-71 0 -146 -69v-257q73 -26 141 -26t105 46t37 131z" />
    <glyph glyph-name="d.superior" unicode="&#xf6eb;" horiz-adv-x="451" 
d="M383 293h-28v58q-79 -70 -153 -70q-83 0 -121.5 54t-38.5 146q0 90 45 149t126 59q75 0 142 -52v212h28v-556zM355 382v222q-70 57 -139 57q-65 0 -105 -47t-40 -131q0 -174 130 -174q44 0 78.5 19t75.5 54z" />
    <glyph glyph-name="e.superior" unicode="&#xf6ec;" horiz-adv-x="408" 
d="M373 485h-300q0 -178 148 -178q59 0 103 33l17 -22q-49 -37 -121 -37q-178 0 -178 204t173 204q81 0 119.5 -47t38.5 -129v-28zM212 662q-67 0 -100 -37t-38 -113h268q-1 75 -30 112.5t-100 37.5z" />
    <glyph glyph-name="l.superior" unicode="&#xf6ee;" horiz-adv-x="201" 
d="M194 310l5 -23q-24 -6 -47 -6q-46 0 -65 25.5t-19 78.5v451l28 22v-465q0 -48 13 -67.5t50 -19.5q11 0 35 4z" />
    <glyph glyph-name="m.superior" unicode="&#xf6ef;" horiz-adv-x="684" 
d="M619 293h-28v231q0 26 -1 42t-6 36t-13.5 31.5t-25.5 19.5t-41 8q-72 0 -147 -91v-277h-27v231q0 25 -1 41t-6 36.5t-14 32t-26 19.5t-41 8q-77 0 -146 -83v-285h-28v384h28v-68q65 80 151 80q85 0 106 -90q74 90 159 90q56 0 81.5 -34t25.5 -105v-257z" />
    <glyph glyph-name="o.superior" unicode="&#xf6f0;" horiz-adv-x="440" 
d="M398 484q0 -203 -178 -203q-87 0 -132.5 51.5t-45.5 151.5q0 101 45.5 153t132.5 52q88 0 133 -52t45 -153zM368 484q0 178 -148 178q-80 0 -114.5 -50t-34.5 -128q0 -79 34.5 -128.5t114.5 -49.5q148 0 148 178z" />
    <glyph glyph-name="r.superior" unicode="&#xf6f1;" horiz-adv-x="267" 
d="M261 676l-12 -30q-11 5 -28 5q-53 0 -125 -75v-283h-28v384h28v-67q73 73 129 73q15 0 36 -7z" />
    <glyph glyph-name="s.superior" unicode="&#xf6f2;" horiz-adv-x="365" 
d="M329 392q0 -59 -45 -85t-108 -26q-38 0 -79 14.5t-62 42.5l24 16q42 -49 121 -49q48 0 84.5 19t36.5 63q0 33 -26.5 50.5t-88.5 32.5q-28 7 -40.5 10.5t-36 12.5t-34 19t-19.5 27.5t-9 39.5q0 54 41.5 82t102.5 28q91 0 134 -60l-24 -14q-39 50 -114 50q-45 0 -78 -20.5
t-33 -62.5q0 -35 25.5 -52t91.5 -33q29 -7 41.5 -10.5t35 -12.5t32.5 -18.5t18.5 -26t8.5 -37.5z" />
    <glyph glyph-name="t.superior" unicode="&#xf6f3;" horiz-adv-x="268" 
d="M194 305q29 0 55 8l7 -23q-26 -9 -63 -9q-51 0 -74 22.5t-23 80.5v267h-82v25h82v146l29 19v-165h117v-25h-117v-260q0 -43 12.5 -64.5t56.5 -21.5z" />
    <glyph glyph-name="h.superior" unicode="&#xf700;" horiz-adv-x="452" 
d="M387 293h-28v232q0 66 -22.5 100.5t-78.5 34.5q-69 0 -162 -86v-281h-28v556h28v-243q87 83 170 83q60 0 90.5 -38t30.5 -105v-253z" />
    <glyph glyph-name="uniF8FF" unicode="&#xf8ff;" horiz-adv-x="500" 
d="M12 0v665h475v-665h-475zM88 618l162 -243l161 243h-323zM60 575v-484l40 61l80 120l41 61zM440 575l-162 -242l162 -243v485zM411 48l-161 242l-162 -242h323z" />
    <glyph glyph-name="I.alt" horiz-adv-x="226" 
d="M131 0h-36v727h36v-727z" />
    <glyph glyph-name="IJ.alt" horiz-adv-x="572" 
d="M538 -18q0 -87 -31.5 -131t-124.5 -44q-46 0 -101 25l16 34q43 -25 90 -25q67 0 91 36t24 118v732h36v-745zM131 0h-36v727h36v-727z" />
    <glyph glyph-name="Iacute.alt" horiz-adv-x="226" 
d="M131 0h-36v727h36v-727zM269 956l-142 -176h-30l116 176h56z" />
    <glyph glyph-name="Ibreve.alt" horiz-adv-x="226" 
d="M131 0h-36v727h36v-727zM246 918q-35 -138 -136 -138q-54 0 -87 44t-43 94h27q17 -45 40.5 -67.5t64.5 -22.5q74 0 105 90h29z" />
    <glyph glyph-name="Icircumflex.alt" horiz-adv-x="226" 
d="M131 0h-36v727h36v-727zM247 780h-30l-106 134l-102 -134h-28l111 176h42z" />
    <glyph glyph-name="Idieresis.alt" horiz-adv-x="226" 
d="M131 0h-36v727h36v-727zM222 814q0 -19 -7.5 -26.5t-25.5 -7.5q-12 0 -19.5 3t-10 8.5t-3.5 10t-1 12.5q0 18 6.5 26.5t27.5 8.5q15 0 23 -6.5t9 -12t1 -16.5zM60 814q0 -19 -7 -26.5t-25 -7.5q-12 0 -19.5 3t-10 8.5t-3.5 10t-1 12.5q0 18 6.5 26.5t26.5 8.5
q15 0 23 -6.5t9 -12t1 -16.5z" />
    <glyph glyph-name="Idotaccent.alt" horiz-adv-x="226" 
d="M131 0h-36v727h36v-727zM147 814q0 -19 -7.5 -26.5t-26.5 -7.5q-21 0 -27.5 9t-6.5 25q0 18 7 26.5t27 8.5q16 0 24 -6.5t9 -12t1 -16.5z" />
    <glyph glyph-name="Igrave.alt" horiz-adv-x="226" 
d="M131 0h-36v727h36v-727zM125 780h-30l-142 176h56z" />
    <glyph glyph-name="Imacron.alt" horiz-adv-x="226" 
d="M131 0h-36v727h36v-727zM254 782h-282v43h282v-43z" />
    <glyph glyph-name="Iogonek.alt" horiz-adv-x="226" 
d="M271 -162q-50 -31 -105 -31q-50 0 -75.5 29t-25.5 75q0 47 30 117v699h36v-727h-13q-16 -46 -16 -83q0 -42 18 -59.5t56 -17.5q29 0 83 23z" />
    <glyph glyph-name="Itilde.alt" horiz-adv-x="226" 
d="M131 0h-36v727h36v-727zM268 907q0 -51 -21 -85.5t-67 -34.5q-41 0 -76 41q-40 47 -63 47q-28 0 -40.5 -28.5t-12.5 -59.5h-29q0 51 21.5 85.5t67.5 34.5q40 0 78 -44q30 -35 45 -41q8 -3 16 -3q27 0 39 28t13 60h29z" />
    <glyph glyph-name="J.alt" horiz-adv-x="286" 
d="M197 -18q0 -87 -31.5 -131t-124.5 -44q-46 0 -101 25l16 34q42 -25 90 -25q67 0 91 36t24 118v732h36v-745z" />
    <glyph glyph-name="Jcircumflex.alt" horiz-adv-x="286" 
d="M197 -18q0 -87 -31.5 -131t-124.5 -44q-46 0 -101 25l16 34q42 -25 90 -25q67 0 91 36t24 118v732h36v-745zM308 780h-30l-106 134l-102 -134h-28l111 176h42z" />
    <glyph glyph-name="dotlessi.alt" horiz-adv-x="219" 
d="M127 0h-35v503h35v-503z" />
    <glyph glyph-name="eight.tab" 
d="M520 183q0 -96 -62 -147t-172 -51q-115 0 -175.5 52t-60.5 146q0 144 183 204q-164 63 -164 177q0 85 55.5 131.5t161.5 46.5q105 0 160 -47t55 -132q0 -112 -162 -176q181 -64 181 -204zM463 567q0 71 -47.5 106t-129.5 35q-85 0 -132 -35.5t-47 -101.5q0 -56 36 -92.5
t141 -76.5q93 35 136 70.5t43 94.5zM482 180q0 42 -15.5 73.5t-47.5 54t-59.5 35.5t-73.5 29q-46 -16 -73.5 -28.5t-60.5 -35t-48.5 -54.5t-15.5 -75q0 -77 52 -118.5t146 -41.5q95 0 145.5 43.5t50.5 117.5z" />
    <glyph glyph-name="f_f_l.alt" horiz-adv-x="757" 
d="M668 0h-35v683q-64 27 -136 27q-30 0 -49.5 -11t-28 -32.5t-11.5 -41t-3 -47.5v-75h135v-31h-135v-472h-35v472h-235v-472h-35v472h-83v31h83v79q0 90 35.5 125t106.5 35q45 0 83 -17l-13 -32q-43 17 -79 17q-55 0 -76.5 -31t-21.5 -97v-79h235v75q0 95 35 129.5
t107 34.5q50 0 120 -24l36 32v-750z" />
    <glyph glyph-name="f_l.alt" horiz-adv-x="487" 
d="M398 0h-35v683q-64 27 -136 27q-30 0 -49.5 -11t-28 -32.5t-11.5 -41t-3 -47.5v-75h135v-31h-135v-472h-35v472h-83v31h83v75q0 95 35 129.5t107 34.5q50 0 120 -24l36 32v-750z" />
    <glyph glyph-name="five.tab" 
d="M501 222q0 -110 -67 -173.5t-187 -63.5q-75 0 -126 30t-79 67l32 23q25 -38 71 -62t103 -24q106 0 160.5 56.5t54.5 154.5q0 167 -204 167q-85 0 -158 -55h-11l46 376h331v-34h-304l-35 -289q58 36 152 36q103 0 162 -50t59 -159z" />
    <glyph glyph-name="four.tab" 
d="M508 182h-86v-197h-36v197h-342v33l335 527h43v-527h86v-33zM386 215v477l-303 -477h303z" />
    <glyph glyph-name="g.alt" horiz-adv-x="552" 
d="M463 503v-503q0 -96 -48 -144.5t-160 -48.5q-46 0 -92 15t-62 26l19 33q64 -40 142 -40q83 0 124.5 38t41.5 122v80q-83 -81 -178 -81q-100 0 -148 67.5t-48 189.5q0 65 19.5 121.5t68 98t118.5 41.5q49 0 86.5 -16.5t81.5 -49.5v51h35zM428 122v291q-88 71 -168 71
q-85 0 -127 -68.5t-42 -156.5q0 -98 37 -161.5t119 -63.5q48 0 90 22t91 66z" />
    <glyph glyph-name="g.alt2" horiz-adv-x="510" 
d="M488 -64q0 -48 -38 -78.5t-85.5 -40.5t-103.5 -10q-231 0 -231 116q0 88 103 124q-73 19 -73 75q0 47 63 86q-29 20 -45 57.5t-16 77.5q0 78 46.5 126t141.5 48q84 0 133 -44q44 40 107 43v-38q-58 -2 -90 -24q33 -43 33 -111q0 -81 -48.5 -127t-137.5 -46q-53 0 -97 22
q-55 -31 -55 -67q0 -30 33.5 -40.5t137.5 -19.5q120 -11 171 -37t51 -92zM396 343q0 68 -37.5 104.5t-107.5 36.5q-75 0 -113.5 -36t-38.5 -104q0 -65 37.5 -103t114.5 -38q74 0 109.5 37.5t35.5 102.5zM452 -65q0 42 -35 64t-121 30q-80 7 -116 9q-114 -38 -114 -113
q0 -46 49 -65.5t151 -19.5q83 0 134.5 23t51.5 72z" />
    <glyph glyph-name="gbreve.alt" horiz-adv-x="552" 
d="M463 503v-503q0 -96 -48 -144.5t-160 -48.5q-46 0 -92 15t-62 26l19 33q64 -40 142 -40q83 0 124.5 38t41.5 122v80q-83 -81 -178 -81q-100 0 -148 67.5t-48 189.5q0 65 19.5 121.5t68 98t118.5 41.5q49 0 86.5 -16.5t81.5 -49.5v51h35zM428 122v291q-88 71 -168 71
q-85 0 -127 -68.5t-42 -156.5q0 -98 37 -161.5t119 -63.5q48 0 90 22t91 66zM397 747q-35 -138 -136 -138q-54 0 -87 44t-43 94h27q17 -45 40.5 -67.5t64.5 -22.5q74 0 105 90h29z" />
    <glyph glyph-name="gbreve.alt2" horiz-adv-x="510" 
d="M488 -64q0 -48 -38 -78.5t-85.5 -40.5t-103.5 -10q-231 0 -231 116q0 88 103 124q-73 19 -73 75q0 47 63 86q-29 20 -45 57.5t-16 77.5q0 78 46.5 126t141.5 48q84 0 133 -44q44 40 107 43v-38q-58 -2 -90 -24q33 -43 33 -111q0 -81 -48.5 -127t-137.5 -46q-53 0 -97 22
q-55 -31 -55 -67q0 -30 33.5 -40.5t137.5 -19.5q120 -11 171 -37t51 -92zM396 343q0 68 -37.5 104.5t-107.5 36.5q-75 0 -113.5 -36t-38.5 -104q0 -65 37.5 -103t114.5 -38q74 0 109.5 37.5t35.5 102.5zM452 -65q0 42 -35 64t-121 30q-80 7 -116 9q-114 -38 -114 -113
q0 -46 49 -65.5t151 -19.5q83 0 134.5 23t51.5 72zM383 747q-35 -138 -136 -138q-54 0 -87 44t-43 94h27q17 -45 40.5 -67.5t64.5 -22.5q74 0 105 90h29z" />
    <glyph glyph-name="gcircumflex.alt" horiz-adv-x="552" 
d="M463 503v-503q0 -96 -48 -144.5t-160 -48.5q-46 0 -92 15t-62 26l19 33q64 -40 142 -40q83 0 124.5 38t41.5 122v80q-83 -81 -178 -81q-100 0 -148 67.5t-48 189.5q0 65 19.5 121.5t68 98t118.5 41.5q49 0 86.5 -16.5t81.5 -49.5v51h35zM428 122v291q-88 71 -168 71
q-85 0 -127 -68.5t-42 -156.5q0 -98 37 -161.5t119 -63.5q48 0 90 22t91 66zM397 590h-30l-106 134l-102 -134h-28l111 176h42z" />
    <glyph glyph-name="gcircumflex.alt2" horiz-adv-x="510" 
d="M488 -64q0 -48 -38 -78.5t-85.5 -40.5t-103.5 -10q-231 0 -231 116q0 88 103 124q-73 19 -73 75q0 47 63 86q-29 20 -45 57.5t-16 77.5q0 78 46.5 126t141.5 48q84 0 133 -44q44 40 107 43v-38q-58 -2 -90 -24q33 -43 33 -111q0 -81 -48.5 -127t-137.5 -46q-53 0 -97 22
q-55 -31 -55 -67q0 -30 33.5 -40.5t137.5 -19.5q120 -11 171 -37t51 -92zM396 343q0 68 -37.5 104.5t-107.5 36.5q-75 0 -113.5 -36t-38.5 -104q0 -65 37.5 -103t114.5 -38q74 0 109.5 37.5t35.5 102.5zM452 -65q0 42 -35 64t-121 30q-80 7 -116 9q-114 -38 -114 -113
q0 -46 49 -65.5t151 -19.5q83 0 134.5 23t51.5 72zM383 590h-30l-106 134l-102 -134h-28l111 176h42z" />
    <glyph glyph-name="gcommaaccent.alt" horiz-adv-x="552" 
d="M463 503v-503q0 -96 -48 -144.5t-160 -48.5q-46 0 -92 15t-62 26l19 33q64 -40 142 -40q83 0 124.5 38t41.5 122v80q-83 -81 -178 -81q-100 0 -148 67.5t-48 189.5q0 65 19.5 121.5t68 98t118.5 41.5q49 0 86.5 -16.5t81.5 -49.5v51h35zM428 122v291q-88 71 -168 71
q-85 0 -127 -68.5t-42 -156.5q0 -98 37 -161.5t119 -63.5q48 0 90 22t91 66zM212 654q0 78 29 118h32q-22 -34 -22 -79v-16q11 0 18 -1.5t13 -10.5t6 -26q0 -32 -38 -32q-21 0 -29.5 11t-8.5 36z" />
    <glyph glyph-name="gcommaaccent.alt2" horiz-adv-x="510" 
d="M488 -64q0 -48 -38 -78.5t-85.5 -40.5t-103.5 -10q-231 0 -231 116q0 88 103 124q-73 19 -73 75q0 47 63 86q-29 20 -45 57.5t-16 77.5q0 78 46.5 126t141.5 48q84 0 133 -44q44 40 107 43v-38q-58 -2 -90 -24q33 -43 33 -111q0 -81 -48.5 -127t-137.5 -46q-53 0 -97 22
q-55 -31 -55 -67q0 -30 33.5 -40.5t137.5 -19.5q120 -11 171 -37t51 -92zM396 343q0 68 -37.5 104.5t-107.5 36.5q-75 0 -113.5 -36t-38.5 -104q0 -65 37.5 -103t114.5 -38q74 0 109.5 37.5t35.5 102.5zM452 -65q0 42 -35 64t-121 30q-80 7 -116 9q-114 -38 -114 -113
q0 -46 49 -65.5t151 -19.5q83 0 134.5 23t51.5 72zM205 654q0 78 29 118h32q-22 -34 -22 -79v-16q11 0 18 -1.5t13 -10.5t6 -26q0 -32 -38 -32q-21 0 -29.5 11t-8.5 36z" />
    <glyph glyph-name="gdotaccent.alt" horiz-adv-x="552" 
d="M463 503v-503q0 -96 -48 -144.5t-160 -48.5q-46 0 -92 15t-62 26l19 33q64 -40 142 -40q83 0 124.5 38t41.5 122v80q-83 -81 -178 -81q-100 0 -148 67.5t-48 189.5q0 65 19.5 121.5t68 98t118.5 41.5q49 0 86.5 -16.5t81.5 -49.5v51h35zM428 122v291q-88 71 -168 71
q-85 0 -127 -68.5t-42 -156.5q0 -98 37 -161.5t119 -63.5q48 0 90 22t91 66zM291 641q0 -19 -7.5 -26.5t-26.5 -7.5q-21 0 -27.5 9t-6.5 25q0 18 7 26.5t27 8.5q16 0 24 -6.5t9 -12t1 -16.5z" />
    <glyph glyph-name="gdotaccent.alt2" horiz-adv-x="510" 
d="M488 -64q0 -48 -38 -78.5t-85.5 -40.5t-103.5 -10q-231 0 -231 116q0 88 103 124q-73 19 -73 75q0 47 63 86q-29 20 -45 57.5t-16 77.5q0 78 46.5 126t141.5 48q84 0 133 -44q44 40 107 43v-38q-58 -2 -90 -24q33 -43 33 -111q0 -81 -48.5 -127t-137.5 -46q-53 0 -97 22
q-55 -31 -55 -67q0 -30 33.5 -40.5t137.5 -19.5q120 -11 171 -37t51 -92zM396 343q0 68 -37.5 104.5t-107.5 36.5q-75 0 -113.5 -36t-38.5 -104q0 -65 37.5 -103t114.5 -38q74 0 109.5 37.5t35.5 102.5zM452 -65q0 42 -35 64t-121 30q-80 7 -116 9q-114 -38 -114 -113
q0 -46 49 -65.5t151 -19.5q83 0 134.5 23t51.5 72zM280 641q0 -19 -7.5 -26.5t-26.5 -7.5q-22 0 -28 9t-6 25q0 18 7 26.5t27 8.5q16 0 24 -6.5t9 -12t1 -16.5z" />
    <glyph glyph-name="i.alt" horiz-adv-x="219" 
d="M140 641q0 -20 -6.5 -27t-24.5 -7q-14 0 -21.5 6t-8.5 11.5t-1 16.5q0 19 5.5 27t25.5 8q14 0 21.5 -6.5t8.5 -12t1 -16.5zM127 0h-35v503h35v-503z" />
    <glyph glyph-name="i.dot" horiz-adv-x="270" 
d="M185 641q0 -20 -6.5 -27t-24.5 -7q-14 0 -21.5 6t-8.5 11.5t-1 16.5q0 19 5.5 27t25.5 8q31 0 31 -35zM178 0h-35v472h-112v31h147v-503z" />
    <glyph glyph-name="iacute.alt" horiz-adv-x="219" 
d="M127 0h-35v503h35v-503zM252 766l-142 -176h-30l116 176h56z" />
    <glyph glyph-name="ibreve.alt" horiz-adv-x="219" 
d="M127 0h-35v503h35v-503zM243 747q-35 -138 -136 -138q-54 0 -87 44t-43 94h27q17 -45 40.5 -67.5t64.5 -22.5q74 0 105 90h29z" />
    <glyph glyph-name="icircumflex.alt" horiz-adv-x="219" 
d="M127 0h-35v503h35v-503zM242 590h-30l-106 134l-102 -134h-28l111 176h42z" />
    <glyph glyph-name="idieresis.alt" horiz-adv-x="219" 
d="M127 0h-35v503h35v-503zM224 641q0 -19 -7.5 -26.5t-25.5 -7.5q-12 0 -19.5 3t-10 8.5t-3.5 10t-1 12.5q0 18 6.5 26.5t27.5 8.5q15 0 23 -6.5t9 -12t1 -16.5zM62 641q0 -19 -7 -26.5t-25 -7.5q-12 0 -19.5 3t-10 8.5t-3.5 10t-1 12.5q0 18 6.5 26.5t26.5 8.5
q15 0 23 -6.5t9 -12t1 -16.5z" />
    <glyph glyph-name="igrave.alt" horiz-adv-x="219" 
d="M127 0h-35v503h35v-503zM133 590h-30l-142 176h56z" />
    <glyph glyph-name="ij.alt" horiz-adv-x="484" 
d="M140 641q0 -20 -6.5 -27t-24.5 -7q-14 0 -21.5 6t-8.5 11.5t-1 16.5q0 19 5.5 27t25.5 8q14 0 21.5 -6.5t8.5 -12t1 -16.5zM127 0h-35v503h35v-503zM389 -43q0 -78 -29 -114t-100 -36q-55 0 -85 14l11 33q38 -15 76 -15q54 0 73 32.5t19 107.5v524h35v-546zM402 641
q0 -20 -6.5 -27t-24.5 -7q-14 0 -21.5 6t-8.5 11.5t-1 16.5q0 19 5.5 27t25.5 8q14 0 21.5 -6.5t8.5 -12t1 -16.5z" />
    <glyph glyph-name="imacron.alt" horiz-adv-x="219" 
d="M127 0h-35v503h35v-503zM251 612h-282v43h282v-43z" />
    <glyph glyph-name="iogonek.alt" horiz-adv-x="219" 
d="M127 0h-12q-16 -46 -16 -83q0 -42 18 -59.5t56 -17.5q29 0 83 23l12 -25q-50 -31 -105 -31q-50 0 -75.5 29t-25.5 75q0 47 30 117v475h35v-503zM140 641q0 -20 -6.5 -27t-24.5 -7q-14 0 -21.5 6t-8.5 11.5t-1 16.5q0 19 5.5 27t25.5 8q14 0 21.5 -6.5t8.5 -12t1 -16.5z
" />
    <glyph glyph-name="itilde.alt" horiz-adv-x="219" 
d="M127 0h-35v503h35v-503zM265 738q0 -51 -21 -85.5t-67 -34.5q-41 0 -76 41q-40 47 -63 47q-28 0 -40.5 -28.5t-12.5 -59.5h-29q0 51 21.5 85.5t67.5 34.5q40 0 78 -44q30 -35 45 -41q8 -3 16 -3q27 0 39 28t13 60h29z" />
    <glyph glyph-name="j.alt" horiz-adv-x="234" 
d="M139 -43q0 -78 -29 -114t-100 -36q-55 0 -85 14l11 33q38 -15 76 -15q54 0 73 32.5t19 107.5v524h35v-546zM152 641q0 -20 -6.5 -27t-24.5 -7q-14 0 -21.5 6t-8.5 11.5t-1 16.5q0 19 5.5 27t25.5 8q14 0 21.5 -6.5t8.5 -12t1 -16.5z" />
    <glyph glyph-name="jcircumflex.alt" horiz-adv-x="234" 
d="M139 -43q0 -78 -29 -114t-100 -36q-55 0 -85 14l11 33q38 -15 76 -15q54 0 73 32.5t19 107.5v524h35v-546zM253 590h-30l-106 134l-102 -134h-28l111 176h42z" />
    <glyph glyph-name="l.alt" horiz-adv-x="213" 
d="M124 0h-35v719l35 31v-750z" />
    <glyph glyph-name="lacute.alt" horiz-adv-x="213" 
d="M124 0h-35v719l35 31v-750zM258 956l-142 -176h-30l116 176h56z" />
    <glyph glyph-name="lcaron.alt" horiz-adv-x="213" 
d="M124 0h-35v719l35 31v-750zM232 680q0 -96 -43 -160h-32q36 58 36 121v16q-11 0 -18 1.5t-13 11t-6 26.5q0 31 35 31q23 0 32 -10.5t9 -36.5z" />
    <glyph glyph-name="lcommaaccent.alt" horiz-adv-x="213" 
d="M124 0h-35v719l35 31v-750zM147 -75q0 -78 -29 -118h-32q22 34 22 79v16q-11 0 -18 1.5t-13 10.5t-6 26q0 32 38 32q21 0 29.5 -11t8.5 -36z" />
    <glyph glyph-name="ldot.alt" horiz-adv-x="213" 
d="M124 0h-35v719l35 31v-750zM244 360q0 -19 -7.5 -26.5t-26.5 -7.5q-22 0 -28 9t-6 25q0 18 7 26.5t27 8.5q16 0 24 -6.5t9 -12t1 -16.5z" />
    <glyph glyph-name="lslash.alt" horiz-adv-x="213" 
d="M124 0h-35v315l-83 -79v40l83 79v364l35 31v-362l83 79v-40l-83 -79v-348z" />
    <glyph glyph-name="nine.tab" 
d="M46 495q0 118 60.5 182.5t171.5 64.5q122 0 183.5 -84.5t61.5 -246.5q0 -123 -27.5 -216t-90 -151.5t-155.5 -58.5q-108 0 -177 60l25 28q59 -54 152 -54q60 0 104.5 28t71 77t40.5 107.5t17 128.5q-108 -85 -229 -85q-98 0 -153 54t-55 166zM84 499q0 -190 181 -190
q39 0 82 15t71 31.5t66 42.5q0 2 0.5 7.5t0.5 7.5q0 295 -208 295q-91 0 -142 -55.5t-51 -153.5z" />
    <glyph glyph-name="one.tab" 
d="M453 0h-297v31h141v619q-68 -52 -155 -72v31q119 36 178 133h13v-711h120v-31z" />
    <glyph glyph-name="seven.tab" 
d="M501 684l-285 -699h-41l289 699h-359v-111h-34v145h430v-34z" />
    <glyph glyph-name="six.tab" 
d="M524 232q0 -118 -60.5 -182.5t-171.5 -64.5q-122 0 -183.5 84.5t-61.5 246.5q0 123 27.5 216t90 151.5t155.5 58.5q108 0 177 -60l-25 -28q-59 54 -152 54q-60 0 -104.5 -28t-71 -77t-40.5 -107.5t-17 -128.5q108 85 229 85q98 0 153 -54t55 -166zM486 228
q0 190 -181 190q-39 0 -82 -15t-71 -31.5t-66 -42.5q0 -2 -0.5 -7.5t-0.5 -7.5q0 -295 208 -295q91 0 142 55.5t51 153.5z" />
    <glyph glyph-name="sterling.tab" horiz-adv-x="562" 
d="M530 0h-493v37q96 37 96 237q0 34 -2 53h-81v34h76q-5 23 -16 59t-17.5 68t-6.5 69q0 91 64.5 138t154.5 47q147 0 211 -98l-31 -23q-56 87 -177 87q-77 0 -130.5 -38.5t-53.5 -118.5q0 -46 18 -110.5t21 -79.5h214v-34h-209q4 -36 4 -53q0 -177 -83 -240h441v-34z" />
    <glyph glyph-name="three.tab" 
d="M501 217q0 -113 -68 -172.5t-176 -59.5q-141 0 -217 101l31 23q62 -90 187 -90q92 0 148.5 50.5t56.5 147.5t-53 138t-151 41q-27 0 -67 -7v8l245 287h-349v34h388v-34l-216 -256h17q106 0 165 -53.5t59 -157.5z" />
    <glyph glyph-name="two.tab" 
d="M510 0h-438v34q93 85 206 203q96 100 134 166.5t38 140.5q0 24 -8 50t-25 52.5t-52 44t-82 17.5q-106 0 -178 -104l-29 21q83 117 208 117q54 0 95 -18t64 -48t34 -62.5t11 -66.5t-4.5 -61t-26.5 -75t-63 -100q-38 -48 -130 -141t-142 -136h388v-34z" />
    <glyph glyph-name="zero.tab" 
d="M523 364q0 -189 -54.5 -284t-183.5 -95q-131 0 -184.5 94.5t-53.5 283.5q0 188 54.5 283.5t183.5 95.5t183.5 -95t54.5 -283zM485 364q0 168 -46 256t-154 88t-154 -88.5t-46 -256.5t46.5 -256t154.5 -88t153.5 88t45.5 257z" />
    <glyph glyph-name="dollar.alt" horiz-adv-x="497" 
d="M451 199q0 -51 -17.5 -89t-47.5 -59t-62.5 -31t-69.5 -12v-133h-31v133q-148 5 -210 129l30 17q59 -109 180 -115v313q-109 29 -152.5 65t-43.5 109q0 79 51 128.5t145 50.5v111h31v-112q70 -5 112 -34.5t68 -81.5l-30 -18q-27 48 -62 73t-88 29v-293q99 -24 148 -65
t49 -115zM260 343q-1 0 -3 0.5t-3 0.5v-305q69 4 115 41.5t46 113.5q0 58 -37.5 93.5t-117.5 55.5zM61 529q0 -55 34.5 -86.5t127.5 -55.5v286q-75 -2 -118.5 -40.5t-43.5 -103.5z" />
    <glyph glyph-name="percent.alt" horiz-adv-x="977" 
d="M382 532q0 -107 -34.5 -159.5t-124.5 -52.5q-89 0 -124 53t-35 159t35 158t124 52q90 0 124.5 -51.5t34.5 -158.5zM351 532q0 93 -28 137.5t-100 44.5q-71 0 -99 -44.5t-28 -137.5q0 -94 28 -139t99 -45q72 0 100 45t28 139zM925 201q0 -107 -34.5 -159.5t-124.5 -52.5
q-89 0 -124 53t-35 159t35 158t124 52q90 0 124.5 -51.5t34.5 -158.5zM894 201q0 93 -28 137.5t-100 44.5q-71 0 -99 -44.5t-28 -137.5q0 -94 28 -139t99 -45q72 0 100 45t28 139zM720 727l-408 -727h-35l408 727h35z" />
    <glyph glyph-name="perthousand.alt" horiz-adv-x="1366" 
d="M382 532q0 -107 -34.5 -159.5t-124.5 -52.5q-89 0 -124 53t-35 159t35 158t124 52q90 0 124.5 -51.5t34.5 -158.5zM351 532q0 93 -28 137.5t-100 44.5q-71 0 -99 -44.5t-28 -137.5q0 -94 28 -139t99 -45q72 0 100 45t28 139zM925 201q0 -107 -34.5 -159.5t-124.5 -52.5
q-89 0 -124 53t-35 159t35 158t124 52q90 0 124.5 -51.5t34.5 -158.5zM894 201q0 93 -28 137.5t-100 44.5q-71 0 -99 -44.5t-28 -137.5q0 -94 28 -139t99 -45q72 0 100 45t28 139zM1306 201q0 -107 -34.5 -159.5t-124.5 -52.5q-89 0 -124 53t-35 159t35 158t124 52
q90 0 124.5 -51.5t34.5 -158.5zM1275 201q0 93 -28 137.5t-100 44.5q-71 0 -99 -44.5t-28 -137.5q0 -94 28 -139t99 -45q72 0 100 45t28 139zM720 727l-408 -727h-35l408 727h35z" />
    <glyph glyph-name="onequarter.alt" horiz-adv-x="977" 
d="M740 727l-408 -727h-35l408 727h35zM337 331h-212v26h99v312q-53 -36 -109 -47v25q80 27 127 95h12v-385h83v-26zM875 110h-66v-121h-29v121h-207v25l213 276h23v-275h66v-26zM780 136v225l-174 -225h174z" />
    <glyph glyph-name="onehalf.alt" horiz-adv-x="977" 
d="M717 727l-408 -727h-35l408 727h35zM337 331h-212v26h99v312q-53 -36 -109 -47v25q80 27 127 95h12v-385h83v-26zM932 0h-311v32l140 108q35 26 56.5 44.5t44 52t22.5 64.5q0 36 -30 58.5t-82 22.5q-46 0 -74.5 -14t-55.5 -45l-23 19q55 69 151 69q66 0 106 -28.5
t40 -79.5q0 -45 -29.5 -83.5t-91.5 -87.5l-136 -104h273v-28z" />
    <glyph glyph-name="threequarters.alt" horiz-adv-x="977" 
d="M740 727l-408 -727h-35l408 727h35zM875 110h-66v-121h-29v121h-207v25l213 276h23v-275h66v-26zM780 136v225l-174 -225h174zM370 451q0 -65 -41.5 -98t-115.5 -33q-88 0 -136 60l24 18q41 -49 111 -49q126 0 126 102q0 46 -36 67.5t-89 21.5q-35 0 -64 -7v10l169 163
h-226v28h263v-28l-144 -139q5 1 14 1q65 0 105 -32t40 -85z" />
    <glyph glyph-name="onethird.alt" horiz-adv-x="977" 
d="M717 727l-408 -727h-35l408 727h35zM337 331h-212v26h99v312q-53 -36 -109 -47v25q80 27 127 95h12v-385h83v-26zM919 120q0 -65 -41.5 -98t-115.5 -33q-88 0 -136 60l24 18q41 -49 111 -49q126 0 126 102q0 46 -36 67.5t-89 21.5q-35 0 -64 -7v10l169 163h-226v28h263
v-28l-144 -139q5 1 14 1q65 0 105 -32t40 -85z" />
    <glyph glyph-name="twothirds.alt" horiz-adv-x="977" 
d="M717 727l-408 -727h-35l408 727h35zM919 120q0 -65 -41.5 -98t-115.5 -33q-88 0 -136 60l24 18q41 -49 111 -49q126 0 126 102q0 46 -36 67.5t-89 21.5q-35 0 -64 -7v10l169 163h-226v28h263v-28l-144 -139q5 1 14 1q65 0 105 -32t40 -85zM355 331h-311v32l140 108
q35 26 56.5 44.5t44 52t22.5 64.5q0 36 -30 58.5t-82 22.5q-46 0 -74.5 -14t-55.5 -45l-23 19q55 69 151 69q66 0 106 -28.5t40 -79.5q0 -45 -29.5 -83.5t-91.5 -87.5l-136 -104h273v-28z" />
    <glyph glyph-name="oneeighth.alt" horiz-adv-x="977" 
d="M717 727l-408 -727h-35l408 727h35zM337 331h-212v26h99v312q-53 -36 -109 -47v25q80 27 127 95h12v-385h83v-26zM923 100q0 -54 -41.5 -82.5t-114.5 -28.5q-78 0 -118 29t-40 82q0 72 114 113q-101 38 -101 99q0 99 145 99q70 0 107 -24.5t37 -67.5q0 -66 -102 -105
q55 -22 84.5 -48t29.5 -66zM881 314q0 71 -114 71q-115 0 -115 -73q0 -26 21.5 -43.5t91.5 -43.5q58 17 87 36.5t29 52.5zM892 99q0 63 -125 102q-29 -9 -45.5 -16t-38 -19.5t-32 -29t-10.5 -38.5q0 -82 126 -82q61 0 93 22t32 61z" />
    <glyph glyph-name="threeeighths.alt" horiz-adv-x="977" 
d="M717 727l-408 -727h-35l408 727h35zM923 100q0 -54 -41.5 -82.5t-114.5 -28.5q-78 0 -118 29t-40 82q0 72 114 113q-101 38 -101 99q0 99 145 99q70 0 107 -24.5t37 -67.5q0 -66 -102 -105q55 -22 84.5 -48t29.5 -66zM881 314q0 71 -114 71q-115 0 -115 -73
q0 -26 21.5 -43.5t91.5 -43.5q58 17 87 36.5t29 52.5zM892 99q0 63 -125 102q-29 -9 -45.5 -16t-38 -19.5t-32 -29t-10.5 -38.5q0 -82 126 -82q61 0 93 22t32 61zM372 451q0 -65 -41.5 -98t-115.5 -33q-88 0 -136 60l24 18q41 -49 111 -49q126 0 126 102q0 46 -36 67.5
t-89 21.5q-35 0 -64 -7v10l169 163h-226v28h263v-28l-144 -139q5 1 14 1q65 0 105 -32t40 -85z" />
    <glyph glyph-name="fiveeighths.alt" horiz-adv-x="977" 
d="M717 727l-408 -727h-35l408 727h35zM923 100q0 -54 -41.5 -82.5t-114.5 -28.5q-78 0 -118 29t-40 82q0 72 114 113q-101 38 -101 99q0 99 145 99q70 0 107 -24.5t37 -67.5q0 -66 -102 -105q55 -22 84.5 -48t29.5 -66zM881 314q0 71 -114 71q-115 0 -115 -73
q0 -26 21.5 -43.5t91.5 -43.5q58 17 87 36.5t29 52.5zM892 99q0 63 -125 102q-29 -9 -45.5 -16t-38 -19.5t-32 -29t-10.5 -38.5q0 -82 126 -82q61 0 93 22t32 61zM380 454q0 -62 -44 -98t-125 -36q-89 0 -139 56l30 15q36 -43 109 -43q137 0 137 109q0 90 -127 90
q-58 0 -111 -28h-7l32 214h222v-29h-200q-17 -106 -23 -150q44 19 99 19q68 0 107.5 -29t39.5 -90z" />
    <glyph glyph-name="seveneighths.alt" horiz-adv-x="977" 
d="M687 727l-408 -727h-35l408 727h35zM923 100q0 -54 -41.5 -82.5t-114.5 -28.5q-78 0 -118 29t-40 82q0 72 114 113q-101 38 -101 99q0 99 145 99q70 0 107 -24.5t37 -67.5q0 -66 -102 -105q55 -22 84.5 -48t29.5 -66zM881 314q0 71 -114 71q-115 0 -115 -73
q0 -26 21.5 -43.5t91.5 -43.5q58 17 87 36.5t29 52.5zM892 99q0 63 -125 102q-29 -9 -45.5 -16t-38 -19.5t-32 -29t-10.5 -38.5q0 -82 126 -82q61 0 93 22t32 61zM411 700l-188 -380h-35l191 384h-228v-58h-27v87h287v-33z" />
    <glyph glyph-name="plus.alt" horiz-adv-x="649" 
d="M575 359h-235v-235h-31v235h-235v31h235v235h31v-235h235v-31z" />
    <glyph glyph-name="minus.alt" horiz-adv-x="649" 
d="M575 359h-501v31h501v-31z" />
    <glyph glyph-name="multiply.alt" horiz-adv-x="649" 
d="M544 178l-22 -22l-198 197l-196 -197l-22 22l197 196l-196 196l22 22l195 -196l196 196l22 -22l-196 -196z" />
    <glyph glyph-name="less.alt" horiz-adv-x="649" 
d="M575 143l-501 225v13l501 224v-34l-445 -197l445 -197v-34z" />
    <glyph glyph-name="greater.alt" horiz-adv-x="649" 
d="M575 368l-501 -225v34l445 197l-445 197v34l501 -224v-13z" />
    <glyph glyph-name="logicalnot.alt" horiz-adv-x="649" 
d="M575 249h-31v220h-470v31h501v-251z" />
    <glyph glyph-name="equal.alt" horiz-adv-x="649" 
d="M575 469h-501v31h501v-31zM575 249h-501v31h501v-31z" />
    <glyph glyph-name="divide.alt" horiz-adv-x="649" 
d="M359 588q0 -20 -7.5 -28t-26.5 -8q-16 0 -24 6t-9.5 12.5t-1.5 17.5q0 19 6.5 27.5t28.5 8.5q16 0 24 -6.5t9 -12.5t1 -17zM575 359h-501v31h501v-31zM359 161q0 -20 -7.5 -28t-26.5 -8q-16 0 -24 6t-9.5 12.5t-1.5 17.5q0 19 6.5 27.5t28.5 8.5q16 0 24 -6.5t9 -12.5
t1 -17z" />
    <glyph glyph-name="plusminus.alt" horiz-adv-x="649" 
d="M575 346h-235v-187h-31v187h-235v31h235v213h31v-213h235v-31zM575 90h-501v31h501v-31z" />
    <glyph glyph-name="periodcentered.alt" horiz-adv-x="219" 
d="M147 372q0 -20 -7.5 -27t-29.5 -7q-23 0 -31 7.5t-8 26.5q0 20 8 28t30 8q24 0 31 -7.5t7 -28.5z" />
    </font>
</defs>
</svg>
