<?xml version="1.0" standalone="no"?>
<!DOCTYPE svg PUBLIC "-//W3C//DTD SVG 1.1//EN" "http://www.w3.org/Graphics/SVG/1.1/DTD/svg11.dtd" >
<svg>
<metadata>
Created by FontForge 20090622 at Mon Nov 16 17:41:02 2015
 By deploy user
Copyright 2009, 2010 Monotype Imaging Inc. All rights reserved.
</metadata>
<defs>
<font id="FelbridgePro-Bold" horiz-adv-x="484" >
  <font-face 
    font-family="Felbridge Pro"
    font-weight="700"
    font-stretch="normal"
    units-per-em="1000"
    panose-1="2 0 8 3 4 0 3 2 3 4"
    ascent="772"
    descent="-228"
    x-height="520"
    cap-height="727"
    bbox="-190 -238 1478 956"
    underline-thickness="50"
    underline-position="-50"
    unicode-range="U+0020-U+FB04"
  />
<missing-glyph horiz-adv-x="500" 
d="M12 0v665h475v-665h-475zM88 618l162 -243l161 243h-323zM60 575v-484l40 61l80 120l41 61zM440 575l-162 -242l162 -243v485zM411 48l-161 242l-162 -242h323z" />
    <glyph glyph-name="f_f" unicode="ff" horiz-adv-x="629" 
d="M676 722l-28 -98q-39 15 -74 15q-38 0 -53.5 -17.5t-15.5 -64.5v-37h117v-96h-117v-424h-129v424h-162v-424h-129v424h-74v96h74v37q0 87 39 136t144 49q53 0 117 -20l-28 -98q-39 15 -74 15q-38 0 -53.5 -17.5t-15.5 -64.5v-37h162v37q0 87 39 136t144 49q53 0 117 -20z
" />
    <glyph glyph-name="fi" unicode="fi" horiz-adv-x="576" 
d="M516 658q0 -64 -70 -64q-71 0 -71 64q0 63 71 63q70 0 70 -63zM505 0h-129v424h-162v-424h-129v424h-74v96h74v37q0 88 39 136.5t140 48.5q43 0 83 -12l-26 -99q-22 8 -47 8q-34 0 -47 -20t-13 -62v-37h291v-520z" />
    <glyph glyph-name="fl" unicode="fl" horiz-adv-x="628" 
d="M628 0q-53 -15 -108 -15q-82 0 -113.5 41t-31.5 128v466q-49 19 -86 19q-44 0 -59.5 -18t-15.5 -64v-37h107v-96h-107v-424h-129v424h-74v96h74v37q0 43 7 73t27 57t60 41t101 14q72 0 145 -26l79 39v-587q0 -44 9.5 -61.5t34.5 -17.5q26 0 50 8z" />
    <glyph glyph-name="f_f_i" unicode="ffi" horiz-adv-x="882" 
d="M385 722l-28 -98q-39 15 -74 15q-38 0 -53.5 -17.5t-15.5 -64.5v-37h177v37q0 88 39 136.5t140 48.5q43 0 83 -12l-26 -99q-22 8 -47 8q-34 0 -47 -20t-13 -62v-37h291v-520h-129v424h-162v-424h-129v424h-177v-424h-129v424h-74v96h74v37q0 87 39 136t144 49
q53 0 117 -20zM822 658q0 -64 -70 -64q-71 0 -71 64q0 63 71 63q70 0 70 -63z" />
    <glyph glyph-name="f_f_l" unicode="ffl" horiz-adv-x="934" 
d="M385 722l-28 -98q-39 15 -74 15q-38 0 -53.5 -17.5t-15.5 -64.5v-37h177v37q0 43 7 73t27 57t60 41t101 14q72 0 145 -26l79 39v-587q0 -44 9.5 -61.5t34.5 -17.5q26 0 50 8l30 -97q-53 -15 -108 -15q-82 0 -113.5 41t-31.5 128v466q-49 19 -86 19q-44 0 -59.5 -18
t-15.5 -64v-37h107v-96h-107v-424h-129v424h-177v-424h-129v424h-74v96h74v37q0 87 39 136t144 49q53 0 117 -20z" />
    <glyph glyph-name=".notdef" horiz-adv-x="500" 
d="M12 0v665h475v-665h-475zM88 618l162 -243l161 243h-323zM60 575v-484l40 61l80 120l41 61zM440 575l-162 -242l162 -243v485zM411 48l-161 242l-162 -242h323z" />
    <glyph glyph-name=".null" horiz-adv-x="0" 
 />
    <glyph glyph-name="nonmarkingreturn" horiz-adv-x="333" 
 />
    <glyph glyph-name="space" unicode=" " horiz-adv-x="229" 
 />
    <glyph glyph-name="exclam" unicode="!" horiz-adv-x="286" 
d="M215 727l-19 -516h-105l-22 516h146zM221 62q0 -73 -79 -73q-77 0 -77 73t77 73q79 0 79 -73z" />
    <glyph glyph-name="quotedbl" unicode="&#x22;" horiz-adv-x="468" 
d="M398 742l-25 -269h-84l-24 269h133zM202 742l-24 -269h-84l-24 269h132z" />
    <glyph glyph-name="numbersign" unicode="#" horiz-adv-x="692" 
d="M672 445h-133l-41 -163h117v-88h-139l-48 -194h-89l48 194h-151l-49 -194h-89l48 194h-111v88h133l41 163h-117v88h139l48 194h89l-48 -194h151l49 194h89l-48 -194h111v-88zM449 445h-151l-41 -163h152z" />
    <glyph glyph-name="dollar" unicode="$" horiz-adv-x="579" 
d="M538 183q0 -79 -54 -126.5t-150 -55.5v-121h-88v121q-137 13 -209 125l100 61q40 -65 109 -81v183q-101 23 -148 64t-47 121q0 76 51 124.5t144 57.5v86h88v-87q122 -14 184 -113l-97 -59q-34 54 -87 69v-165q45 -11 77.5 -24t63.5 -35.5t47 -59t16 -85.5zM246 408v146
q-73 -15 -73 -76q0 -26 17.5 -42t55.5 -28zM416 180q0 32 -19 52.5t-63 34.5v-164q36 7 59 26t23 51z" />
    <glyph glyph-name="percent" unicode="%" horiz-adv-x="1059" 
d="M1023 63q0 -118 -56 -175q-52 -54 -151 -54t-150 54q-56 59 -56 175q0 117 57 175q54 54 149 54q100 0 151 -54q56 -59 56 -175zM783 727l-393 -878h-113l393 878h113zM448 513q0 -118 -56 -175q-52 -54 -150 -54q-100 0 -151 54q-55 58 -55 175q0 118 56 175
q54 54 150 54q100 0 151 -54q55 -58 55 -175zM900 63q0 71 -22 102q-20 28 -62 28q-40 0 -61 -29q-22 -32 -22 -102t22 -101q20 -28 61 -28q42 0 62 28q22 31 22 102zM325 513q0 73 -21 102q-20 28 -62 28q-41 0 -62 -29q-21 -31 -21 -102q0 -72 21 -101q20 -28 62 -28
q41 0 61 28q22 31 22 102z" />
    <glyph glyph-name="ampersand" unicode="&#x26;" horiz-adv-x="684" 
d="M689 0h-167l-36 42q-79 -57 -189 -57q-123 0 -191 56.5t-68 153.5q0 70 35 117.5t109 92.5q-77 94 -77 160q0 86 55.5 131.5t150.5 45.5q89 0 141.5 -42t52.5 -111q0 -64 -34.5 -111.5t-104.5 -92.5l136 -163q34 48 53 126l116 -28q-31 -122 -89 -192zM382 587
q0 21 -17.5 39t-54.5 18q-42 0 -59.5 -20.5t-17.5 -47.5q0 -35 61 -106q88 57 88 117zM411 131l-155 185q-48 -33 -66 -58.5t-18 -64.5q0 -44 34.5 -71t89.5 -27q65 0 115 36z" />
    <glyph glyph-name="quotesingle" unicode="'" horiz-adv-x="272" 
d="M202 742l-24 -269h-84l-24 269h132z" />
    <glyph glyph-name="parenleft" unicode="(" horiz-adv-x="376" 
d="M365 -193h-140q-81 86 -127 210q-46 125 -46 257q0 137 45 257q46 124 128 211h140q-131 -131 -176 -319q-17 -71 -17 -149t17 -148q43 -186 176 -319z" />
    <glyph glyph-name="parenright" unicode=")" horiz-adv-x="376" 
d="M325 274q0 -132 -46 -257q-46 -124 -127 -210h-141q134 134 177 319q17 70 17 148t-17 149q-45 187 -177 319h141q81 -85 127 -211q46 -123 46 -257z" />
    <glyph glyph-name="asterisk" unicode="*" horiz-adv-x="475" 
d="M450 599l-127 -67l126 -68l-46 -79l-124 76l4 -140h-92l3 139l-122 -76l-46 79l126 69l-127 67l47 80l122 -75l-3 138h92l-4 -138l124 75z" />
    <glyph glyph-name="plus" unicode="+" horiz-adv-x="682" 
d="M624 239h-230v-230h-106v230h-230v107h230v230h106v-230h230v-107z" />
    <glyph glyph-name="comma" unicode="," horiz-adv-x="266" 
d="M211 56q0 -105 -74 -215h-74q24 34 43 75.5t19 58.5q0 10 -1 14q-69 0 -69 70q0 76 77 76q79 0 79 -79z" />
    <glyph glyph-name="hyphen" unicode="-" horiz-adv-x="380" 
d="M347 204h-314v114h314v-114z" />
    <glyph glyph-name="period" unicode="." horiz-adv-x="266" 
d="M211 62q0 -73 -79 -73q-77 0 -77 73t77 73q79 0 79 -73z" />
    <glyph glyph-name="slash" unicode="/" horiz-adv-x="476" 
d="M458 742l-352 -888h-114l352 888h114z" />
    <glyph glyph-name="zero" unicode="0" horiz-adv-x="621" 
d="M579 293q0 -51 -6.5 -93t-24.5 -83t-47.5 -69.5t-78 -45.5t-112.5 -17q-79 0 -134 25t-83 70.5t-39.5 96.5t-11.5 115t11.5 115t39.5 96.5t83 70.5t134 25t134.5 -25t83.5 -70.5t39.5 -96t11.5 -114.5zM442 293q0 100 -29 148t-103 48t-102.5 -48t-28.5 -149t28.5 -149
t102.5 -48q75 0 103.5 48t28.5 150z" />
    <glyph glyph-name="one" unicode="1" horiz-adv-x="509" 
d="M465 0h-377v106h133v301q-66 -36 -147 -49v105q124 38 187 128h90v-485h114v-106z" />
    <glyph glyph-name="two" unicode="2" horiz-adv-x="575" 
d="M536 0h-501v97q80 54 192 140q87 67 119 102.5t32 73.5q0 31 -27 53t-85 22q-87 0 -147 -65l-88 75q84 101 246 101q103 0 170 -43.5t67 -130.5q0 -65 -27 -106.5t-74 -79.5q-26 -21 -171 -127h294v-112z" />
    <glyph glyph-name="three" unicode="3" horiz-adv-x="560" 
d="M518 82q0 -124 -73.5 -186t-202.5 -62q-70 0 -137 26t-107 82l92 76q61 -74 147 -74q70 0 107.5 35t37.5 103q0 60 -39 92t-107 32q-42 0 -79 -10v62l177 215h-293v111h452v-99l-155 -193q86 -9 133 -67.5t47 -142.5z" />
    <glyph glyph-name="four" unicode="4" horiz-adv-x="622" 
d="M584 9h-86v-175h-130v175h-339v117l349 465h120v-473h86v-109zM368 118v271l-205 -271h205z" />
    <glyph glyph-name="five" unicode="5" horiz-adv-x="575" 
d="M534 88q0 -119 -69 -186.5t-207 -67.5q-82 0 -146.5 30.5t-100.5 81.5l90 76q62 -78 152 -78q68 0 105.5 36.5t37.5 100.5t-42.5 97t-108.5 33t-127 -29h-67l44 402h403v-111h-300l-19 -173q51 17 101 17q113 0 183.5 -56t70.5 -173z" />
    <glyph glyph-name="six" unicode="6" horiz-adv-x="619" 
d="M580 240q0 -121 -69.5 -188t-192.5 -67q-138 0 -207 88.5t-69 247.5q0 69 8.5 128t30 114t55 94t87.5 62t123 23q122 0 205 -66l-71 -91q-61 49 -134 49q-77 0 -118 -58t-47 -156q75 54 170 54q104 0 166.5 -59t62.5 -175zM444 236q0 127 -128 127q-62 0 -126 -32
q-11 -20 -11 -56q0 -84 38.5 -132t101.5 -48q60 0 92.5 35.5t32.5 105.5z" />
    <glyph glyph-name="seven" unicode="7" horiz-adv-x="550" 
d="M534 485l-282 -651h-148l291 638h-238v-99h-119v211h496v-99z" />
    <glyph glyph-name="eight" unicode="8" horiz-adv-x="610" 
d="M571 189q0 -101 -71.5 -152.5t-194.5 -51.5q-129 0 -197.5 51.5t-68.5 152.5q0 134 141 197q-54 27 -88 65.5t-34 104.5q0 88 64 137t183 49t183 -47.5t64 -137.5q0 -111 -123 -172q70 -36 106 -79.5t36 -116.5zM419 553q0 38 -27.5 62.5t-86.5 24.5q-61 0 -87.5 -24.5
t-26.5 -61.5q0 -30 25 -54.5t90 -54.5q58 25 85.5 50.5t27.5 57.5zM436 191q0 42 -31.5 73t-99.5 62q-131 -57 -131 -136q0 -46 31.5 -74.5t99.5 -28.5t99.5 28.5t31.5 75.5z" />
    <glyph glyph-name="nine" unicode="9" horiz-adv-x="619" 
d="M577 260q0 -426 -306 -426q-124 0 -217 69l68 94q72 -55 146 -55q157 0 170 218q-73 -53 -170 -53q-107 0 -168 59t-61 176q0 120 71.5 188.5t192.5 68.5q138 0 206 -89.5t68 -249.5zM433 251q7 21 7 57q0 80 -36.5 130.5t-101.5 50.5q-60 0 -93.5 -37t-33.5 -106
q0 -129 128 -129q60 0 130 34z" />
    <glyph glyph-name="colon" unicode=":" horiz-adv-x="266" 
d="M211 424q0 -73 -79 -73q-77 0 -77 73t77 73q79 0 79 -73zM211 62q0 -73 -79 -73q-77 0 -77 73t77 73q79 0 79 -73z" />
    <glyph glyph-name="semicolon" unicode=";" horiz-adv-x="266" 
d="M211 424q0 -73 -79 -73q-77 0 -77 73t77 73q79 0 79 -73zM211 56q0 -105 -74 -215h-74q24 34 43 75.5t19 58.5q0 10 -1 14q-69 0 -69 70q0 76 77 76q79 0 79 -79z" />
    <glyph glyph-name="less" unicode="&#x3c;" horiz-adv-x="682" 
d="M625 14l-567 228v101l567 227v-109l-425 -169l425 -169v-109z" />
    <glyph glyph-name="equal" unicode="=" horiz-adv-x="682" 
d="M625 348h-567v106h567v-106zM625 120h-567v106h567v-106z" />
    <glyph glyph-name="greater" unicode="&#x3e;" horiz-adv-x="682" 
d="M625 242l-567 -228v109l425 169l-425 169v109l567 -227v-101z" />
    <glyph glyph-name="question" unicode="?" horiz-adv-x="529" 
d="M493 550q0 -89 -66 -152q-44 -41 -135 -91v-98h-125v154q8 5 30.5 16t36.5 18.5t33 19.5t33 24q59 49 59 103q0 41 -27 64t-77 23q-82 0 -126 -68l-107 63q70 116 233 116q106 0 172 -47t66 -145zM310 62q0 -39 -19.5 -56t-58.5 -17q-78 0 -78 73t78 73t78 -73z" />
    <glyph glyph-name="at" unicode="@" horiz-adv-x="1015" 
d="M970 284q0 -127 -65 -213t-186 -86q-53 0 -88.5 18.5t-45.5 53.5q-73 -57 -157 -57q-92 0 -138 56.5t-46 151.5q0 61 16 118t47.5 104.5t85.5 76t122 28.5q61 0 118 -36l42 28h80l-48 -390q0 -2 -0.5 -6t-0.5 -6q0 -30 11.5 -42.5t41.5 -12.5q51 0 83.5 66.5t32.5 147.5
q0 180 -90 276.5t-268 96.5q-164 0 -270.5 -108.5t-106.5 -273.5q0 -174 101 -278.5t274 -104.5q134 0 235 25l19 -86q-100 -24 -255 -24q-212 0 -340.5 128.5t-128.5 340.5q0 200 135 333t336 133q214 0 334 -121.5t120 -336.5zM610 403q-45 33 -87 33q-50 0 -84.5 -38.5
t-47.5 -87t-13 -99.5q0 -58 20 -84t71 -26q53 0 110 49z" />
    <glyph glyph-name="A" unicode="A" horiz-adv-x="691" 
d="M678 0h-146l-55 168h-271l-54 -168h-139l239 727h183zM441 281l-100 310l-101 -310h201z" />
    <glyph glyph-name="B" unicode="B" horiz-adv-x="666" 
d="M624 213q0 -103 -69 -158t-208 -55h-277v727h253q134 0 194.5 -40t60.5 -129q0 -121 -110 -160q156 -25 156 -185zM432 528q0 47 -30 65.5t-98 18.5h-93v-174h84q137 0 137 90zM478 221q0 58 -35.5 81.5t-111.5 23.5h-120v-210h105q78 0 120 23t42 82z" />
    <glyph glyph-name="C" unicode="C" horiz-adv-x="683" 
d="M663 594l-114 -63q-55 96 -161 96q-104 0 -149 -65t-45 -199q0 -135 45.5 -199t148.5 -64q40 0 76.5 13t53 25t40.5 32l85 -98q-98 -87 -255 -87q-179 0 -260.5 95t-81.5 283t81.5 283.5t260.5 95.5q193 0 275 -148z" />
    <glyph glyph-name="D" unicode="D" horiz-adv-x="719" 
d="M673 363q0 -106 -24 -177t-74.5 -112t-118.5 -57.5t-166 -16.5h-220v727h218q200 0 292.5 -82t92.5 -282zM525 364q0 133 -53.5 189.5t-192.5 56.5h-68v-493h68q143 0 194.5 56t51.5 191z" />
    <glyph glyph-name="E" unicode="E" horiz-adv-x="596" 
d="M546 0h-476v727h476v-118h-335v-173h303v-116h-303v-202h335v-118z" />
    <glyph glyph-name="F" unicode="F" horiz-adv-x="584" 
d="M546 609h-335v-181h302v-116h-302v-312h-141v727h476v-118z" />
    <glyph glyph-name="G" unicode="G" horiz-adv-x="746" 
d="M680 594l-114 -63q-55 96 -168 96q-106 0 -155 -64.5t-49 -197.5q0 -134 49 -199.5t164 -65.5q65 0 131 27v123h-135v119h276v-312q-52 -30 -126 -51t-147 -21q-189 0 -274.5 95.5t-85.5 282.5q0 185 83.5 282t268.5 97q199 0 282 -148z" />
    <glyph glyph-name="H" unicode="H" horiz-adv-x="706" 
d="M636 0h-141v316h-284v-316h-141v727h141v-293h284v293h141v-727z" />
    <glyph glyph-name="I" unicode="I" horiz-adv-x="409" 
d="M369 0h-329v109h94v509h-94v109h329v-109h-94v-509h94v-109z" />
    <glyph glyph-name="J" unicode="J" horiz-adv-x="461" 
d="M396 204q0 -115 -56 -167t-168 -52q-89 0 -162 29l41 110q57 -24 109 -24q56 0 75.5 33t19.5 112v373h-161v109h302v-523z" />
    <glyph glyph-name="K" unicode="K" horiz-adv-x="674" 
d="M660 0h-161l-190 351l-98 -110v-241h-141v727h141v-307l264 307h165l-235 -267z" />
    <glyph glyph-name="L" unicode="L" horiz-adv-x="564" 
d="M537 0h-467v727h141v-609h326v-118z" />
    <glyph glyph-name="M" unicode="M" horiz-adv-x="823" 
d="M753 0h-134v532l-167 -348h-73l-175 347v-531h-134v727h176l170 -347l164 347h173v-727z" />
    <glyph glyph-name="N" unicode="N" horiz-adv-x="725" 
d="M655 0h-154l-299 533v-533h-132v727h170l283 -501v501h132v-727z" />
    <glyph glyph-name="O" unicode="O" horiz-adv-x="769" 
d="M723 363q0 -185 -79 -281.5t-259 -96.5t-259.5 97t-79.5 281q0 186 79.5 282.5t259.5 96.5t259 -96.5t79 -282.5zM575 363q0 135 -44 199.5t-146 64.5q-103 0 -147 -64.5t-44 -199.5q0 -134 44 -198.5t147 -64.5q102 0 146 64.5t44 198.5z" />
    <glyph glyph-name="P" unicode="P" horiz-adv-x="623" 
d="M585 491q0 -124 -66.5 -183.5t-216.5 -59.5h-91v-248h-141v727h233q147 0 214.5 -56.5t67.5 -179.5zM437 490q0 63 -33.5 91t-105.5 28h-87v-242h86q78 0 109 27t31 96z" />
    <glyph glyph-name="Q" unicode="Q" horiz-adv-x="769" 
d="M723 363q0 -164 -61 -258.5t-199 -114.5q16 -38 41 -54t78 -16q38 0 89 14l35 -99q-64 -21 -129 -21q-108 0 -165.5 40.5t-88.5 133.5q-145 17 -211 111t-66 264q0 186 79 282.5t260 96.5q180 0 259 -97t79 -282zM575 363q0 135 -44 199.5t-146 64.5q-103 0 -147 -64.5
t-44 -199.5q0 -134 44 -198.5t147 -64.5q102 0 146 65t44 198z" />
    <glyph glyph-name="R" unicode="R" horiz-adv-x="659" 
d="M620 0h-142l-47 213q-10 44 -30 63.5t-60 19.5h-130v-296h-141v727h261q135 0 201 -42.5t66 -155.5q0 -148 -118 -181q39 -8 57.5 -35.5t30.5 -80.5zM454 512q0 53 -29.5 76.5t-94.5 23.5h-119v-203h109q71 0 102.5 23t31.5 80z" />
    <glyph glyph-name="S" unicode="S" horiz-adv-x="625" 
d="M596 196q0 -101 -75 -156t-205 -55q-109 0 -178 36t-117 110l115 69q63 -100 183 -100q55 0 96 23.5t41 69.5q0 48 -38 73.5t-135 46.5q-127 27 -186.5 74t-59.5 144t71 154t200 57q182 0 266 -133l-112 -68q-55 86 -154 86q-64 0 -97.5 -25.5t-33.5 -66.5
q0 -39 35.5 -59.5t118.5 -38.5q47 -10 79.5 -19.5t70.5 -28t61 -42.5t38.5 -63t15.5 -88z" />
    <glyph glyph-name="T" unicode="T" horiz-adv-x="605" 
d="M593 609h-220v-609h-141v609h-220v118h581v-118z" />
    <glyph glyph-name="U" unicode="U" horiz-adv-x="697" 
d="M632 286q0 -163 -63 -232t-221 -69q-157 0 -220 69t-63 232v441h141v-431q0 -110 30.5 -153t111.5 -43q83 0 113 43.5t30 150.5v433h141v-441z" />
    <glyph glyph-name="V" unicode="V" horiz-adv-x="670" 
d="M657 727l-249 -727h-149l-246 727h146l178 -552l182 552h138z" />
    <glyph glyph-name="W" unicode="W" horiz-adv-x="917" 
d="M899 727l-167 -727h-129l-144 385l-142 -385h-134l-165 727h141l110 -519l133 358h118l135 -354l110 515h134z" />
    <glyph glyph-name="X" unicode="X" horiz-adv-x="649" 
d="M635 0h-159l-155 261l-159 -261h-148l235 362l-228 365h158l151 -254l156 254h148l-231 -357z" />
    <glyph glyph-name="Y" unicode="Y" horiz-adv-x="647" 
d="M639 727l-246 -433v-294h-141v286l-244 441h154l164 -304l169 304h144z" />
    <glyph glyph-name="Z" unicode="Z" horiz-adv-x="637" 
d="M593 0h-554v104l361 505h-344v118h527v-99l-366 -510h376v-118z" />
    <glyph glyph-name="bracketleft" unicode="[" horiz-adv-x="367" 
d="M336 -193h-267v920h267v-94h-147v-732h147v-94z" />
    <glyph glyph-name="backslash" unicode="\" horiz-adv-x="476" 
d="M484 -146h-114l-352 888h114z" />
    <glyph glyph-name="bracketright" unicode="]" horiz-adv-x="367" 
d="M298 -193h-267v94h147v732h-147v94h267v-920z" />
    <glyph glyph-name="asciicircum" unicode="^" horiz-adv-x="577" 
d="M550 348h-117l-144 262l-145 -262h-117l214 386h95z" />
    <glyph glyph-name="underscore" unicode="_" horiz-adv-x="500" 
d="M506 -125h-512v50h512v-50z" />
    <glyph glyph-name="grave" unicode="`" horiz-adv-x="500" 
d="M345 590h-97l-161 176h138z" />
    <glyph glyph-name="a" unicode="a" horiz-adv-x="551" 
d="M491 0h-121v53q-87 -68 -168 -68q-75 0 -119.5 46.5t-44.5 120.5q0 88 57.5 128t162.5 50l104 9v21q0 42 -25.5 60t-76.5 18q-84 0 -140 -49l-63 86q72 60 210 60q114 0 169 -42.5t55 -141.5v-351zM362 139v114l-67 -7q-67 -7 -97 -28t-30 -64q0 -69 75 -69q47 0 119 54z
" />
    <glyph glyph-name="b" unicode="b" horiz-adv-x="586" 
d="M548 264q0 -128 -58.5 -203.5t-164.5 -75.5q-73 0 -132 24l-76 -16h-53v734h129v-244q65 52 147 52q103 0 155.5 -72.5t52.5 -198.5zM414 262q0 88 -25.5 132t-83.5 44q-65 0 -112 -51v-278q50 -27 110 -27q111 0 111 180z" />
    <glyph glyph-name="c" unicode="c" horiz-adv-x="501" 
d="M487 434l-94 -58q-36 56 -101 56q-68 0 -94 -45t-26 -128q0 -81 27.5 -126t98.5 -45q55 0 108 38l66 -88q-79 -53 -182 -53q-252 0 -252 274q0 276 252 276q132 0 197 -101z" />
    <glyph glyph-name="d" unicode="d" horiz-adv-x="586" 
d="M522 0h-121v47q-67 -62 -155 -62q-102 0 -155 72.5t-53 198.5q0 133 57.5 206t161.5 73q74 0 136 -39v231h129v-727zM393 134v268q-55 36 -111 36q-110 0 -110 -180q0 -176 110 -176q61 0 111 52z" />
    <glyph glyph-name="e" unicode="e" horiz-adv-x="544" 
d="M508 216h-336q3 -60 35 -94t89 -34q63 0 113 40l65 -89q-76 -54 -187 -54q-249 0 -249 272q0 278 246 278q224 0 224 -242v-77zM384 310q0 129 -99 129q-53 0 -80.5 -31t-32.5 -98h212z" />
    <glyph glyph-name="f" unicode="f" horiz-adv-x="338" 
d="M385 722l-28 -98q-39 15 -74 15q-38 0 -53.5 -17.5t-15.5 -64.5v-37h117v-96h-117v-424h-129v424h-74v96h74v37q0 87 39 136t144 49q53 0 117 -20z" />
    <glyph glyph-name="g" unicode="g" horiz-adv-x="588" 
d="M568 424h-56v-405q0 -111 -59 -161.5t-178 -50.5q-113 0 -197 42l42 93q71 -39 149 -39q60 0 87 25.5t27 80.5v36q-67 -45 -140 -45q-102 0 -153.5 73t-51.5 192q0 117 55 193.5t160 76.5q78 0 137 -52v37h178v-96zM383 139v260q-58 39 -102 39q-109 0 -109 -171
q0 -170 101 -170q55 0 110 42z" />
    <glyph glyph-name="h" unicode="h" horiz-adv-x="578" 
d="M518 0h-129v306q0 66 -14 91.5t-53 25.5q-51 0 -129 -65v-358h-129v727h129v-263q86 71 167 71q158 0 158 -189v-346z" />
    <glyph glyph-name="i" unicode="i" horiz-adv-x="305" 
d="M245 652q0 -68 -79 -68t-79 68q0 69 79 69q34 0 56.5 -16t22.5 -53zM236 0h-129v424h-82v96h211v-520z" />
    <glyph glyph-name="j" unicode="j" horiz-adv-x="302" 
d="M245 652q0 -68 -79 -68t-79 68q0 69 79 69q34 0 56.5 -16t22.5 -53zM236 -5q0 -95 -39.5 -141.5t-135.5 -46.5q-58 0 -116 18l32 97q36 -13 77 -13q30 0 41.5 21.5t11.5 70.5v423h-82v96h211v-525z" />
    <glyph glyph-name="k" unicode="k" horiz-adv-x="527" 
d="M522 0h-147l-130 229l-52 -58v-171h-129v727h129v-401l167 194h146l-176 -195z" />
    <glyph glyph-name="l" unicode="l" horiz-adv-x="313" 
d="M313 0q-55 -15 -108 -15q-82 0 -113 41t-31 128v538l129 70v-594q0 -45 9 -62t34 -17q28 0 50 8z" />
    <glyph glyph-name="m" unicode="m" horiz-adv-x="859" 
d="M799 0h-129v306q0 69 -11.5 93t-44.5 24q-23 0 -56.5 -19.5t-61.5 -45.5v-358h-129v306q0 70 -12 93.5t-44 23.5q-24 0 -58 -20t-60 -45v-358h-129v520h121v-63q82 78 165 78q104 0 130 -83q90 83 174 83q80 0 112.5 -47.5t32.5 -137.5v-350z" />
    <glyph glyph-name="n" unicode="n" horiz-adv-x="578" 
d="M518 0h-129v306q0 66 -14 91.5t-53 25.5q-51 0 -129 -65v-358h-129v520h121v-62q91 77 175 77q158 0 158 -189v-346z" />
    <glyph glyph-name="o" unicode="o" horiz-adv-x="579" 
d="M541 259q0 -57 -12 -103.5t-39.5 -86.5t-78 -62t-121.5 -22t-122 22t-78.5 62t-39.5 86.5t-12 103.5q0 276 252 276q71 0 121.5 -22t78 -62t39.5 -87t12 -105zM407 259q0 90 -28.5 131.5t-88.5 41.5t-89 -41.5t-29 -131.5q0 -88 29 -129.5t89 -41.5q117 0 117 171z" />
    <glyph glyph-name="p" unicode="p" horiz-adv-x="586" 
d="M548 264q0 -133 -57 -206t-162 -73q-76 0 -136 35v-213h-129v713h121v-47q67 62 155 62q102 0 155 -72.5t53 -198.5zM414 262q0 176 -109 176q-62 0 -112 -52v-272q56 -32 111 -32q110 0 110 180z" />
    <glyph glyph-name="q" unicode="q" horiz-adv-x="586" 
d="M522 -193h-129v225q-61 -47 -146 -47q-104 0 -156.5 72t-52.5 199q0 131 59.5 205t170.5 74q72 0 125 -24l76 16h53v-720zM393 128v283q-52 27 -108 27q-113 0 -113 -180q0 -89 25.5 -132.5t84.5 -43.5q63 0 111 46z" />
    <glyph glyph-name="r" unicode="r" horiz-adv-x="402" 
d="M395 518l-19 -124q-19 6 -46 6q-68 0 -137 -65v-335h-129v520h121v-86q81 94 156 94q34 0 54 -10z" />
    <glyph glyph-name="s" unicode="s" horiz-adv-x="498" 
d="M465 151q0 -58 -33 -96.5t-81 -54t-108 -15.5q-158 0 -215 100l94 57q38 -60 122 -60q97 0 97 55q0 22 -20 34.5t-70 24.5q-40 10 -64.5 17.5t-54.5 22t-47 31.5t-28.5 44.5t-11.5 62.5q0 81 61 121t149 40q143 0 203 -95l-94 -56q-35 54 -111 54q-84 0 -84 -53
q0 -14 7 -23.5t26.5 -18t33.5 -12.5t49 -13q33 -9 52.5 -15t47 -19.5t42.5 -29.5t26.5 -42.5t11.5 -60.5z" />
    <glyph glyph-name="t" unicode="t" horiz-adv-x="363" 
d="M355 3q-58 -18 -114 -18q-89 0 -124 43t-35 140v256h-74v96h74v144l129 63v-207h121v-96h-121v-241q0 -56 10 -76t45 -20q28 0 58 12z" />
    <glyph glyph-name="u" unicode="u" horiz-adv-x="578" 
d="M514 0h-121v62q-91 -77 -175 -77q-158 0 -158 190v345h129v-306q0 -66 14 -91.5t53 -25.5q51 0 129 65v358h129v-520z" />
    <glyph glyph-name="v" unicode="v" horiz-adv-x="515" 
d="M504 520l-196 -520h-102l-195 520h133l116 -345l117 345h127z" />
    <glyph glyph-name="w" unicode="w" horiz-adv-x="743" 
d="M729 520l-146 -520h-94l-117 254l-120 -254h-89l-149 520h127l86 -342l111 238h77l108 -236l85 340h121z" />
    <glyph glyph-name="x" unicode="x" horiz-adv-x="513" 
d="M501 0h-144l-103 177l-102 -177h-140l167 260l-165 260h143l105 -176l103 176h136l-166 -259z" />
    <glyph glyph-name="y" unicode="y" horiz-adv-x="543" 
d="M533 520l-219 -562q-32 -83 -83 -117t-126 -34q-61 0 -114 17l29 99q45 -17 85 -17q32 0 54.5 21.5t42.5 68.5l10 24l-198 500h133l128 -344l130 344h128z" />
    <glyph glyph-name="z" unicode="z" horiz-adv-x="502" 
d="M464 0h-423v79l254 345h-248v96h409v-77l-255 -346h263v-97z" />
    <glyph glyph-name="braceleft" unicode="{" horiz-adv-x="448" 
d="M421 -193h-58q-106 0 -157 48t-51 150v72q0 76 -23 112t-88 36h-17v100h17q66 0 88.5 35.5t22.5 112.5v71q0 102 51.5 150t156.5 48h58v-94h-51q-52 0 -73 -25t-21 -79v-88q0 -130 -105 -182q105 -49 105 -181v-88q0 -54 21 -79t73 -25h51v-94z" />
    <glyph glyph-name="bar" unicode="|" horiz-adv-x="364" 
d="M238 -224h-112v970h112v-970z" />
    <glyph glyph-name="braceright" unicode="}" horiz-adv-x="448" 
d="M421 225h-17q-65 0 -88 -36t-23 -112v-72q0 -102 -51 -150t-157 -48h-58v94h50q52 0 73.5 25t21.5 79v88q0 132 105 181q-105 52 -105 182v88q0 54 -21.5 79t-73.5 25h-50v94h58q105 0 156.5 -48t51.5 -150v-71q0 -77 22.5 -112.5t88.5 -35.5h17v-100z" />
    <glyph glyph-name="asciitilde" unicode="~" horiz-adv-x="667" 
d="M617 273q-92 -70 -167 -70q-46 0 -126 35t-122 35q-53 0 -152 -65v104q95 70 171 70q43 0 122.5 -35t121.5 -35q56 0 152 65v-104z" />
    <glyph glyph-name="uni00A0" unicode="&#xa0;" horiz-adv-x="229" 
 />
    <glyph glyph-name="exclamdown" unicode="&#xa1;" horiz-adv-x="286" 
d="M221 462q0 -74 -78 -74t-78 74q0 73 78 73t78 -73zM215 -193h-146l21 518h105z" />
    <glyph glyph-name="cent" unicode="&#xa2;" horiz-adv-x="509" 
d="M487 466l-94 -58q-2 4 -18 22l-90 -310h13q55 0 108 38l66 -88q-79 -53 -182 -53q-23 0 -34 1l-54 -184h-89l59 203q-134 56 -134 254q0 276 252 276q14 0 36 -2l51 177h89l-58 -201q47 -26 79 -75zM296 464h-4q-68 0 -94 -45.5t-26 -127.5q0 -93 35 -135z" />
    <glyph glyph-name="sterling" unicode="&#xa3;" horiz-adv-x="636" 
d="M598 0h-556v109q52 12 74.5 59.5t22.5 102.5q0 17 -1 24h-83v95h66q-1 5 -7 25l-9 30t-7 28t-5.5 34.5t-1.5 33.5q0 101 69 151t186 50q81 0 146.5 -33t102.5 -96l-103 -60q-48 78 -143 78q-121 0 -121 -107q0 -21 5.5 -45t14.5 -51t12 -38h185v-95h-172q0 -121 -75 -183
h400v-112z" />
    <glyph glyph-name="currency" unicode="&#xa4;" horiz-adv-x="642" 
d="M495 241l70 -66l-61 -61l-69 68q-50 -35 -115 -35q-64 0 -115 35l-69 -68l-60 61l69 66q-35 57 -35 113q0 61 35 113l-69 67l60 61l69 -68q53 35 115 35q64 0 115 -35l69 68l61 -61l-70 -67q35 -52 35 -113q0 -58 -35 -113zM444 355q0 52 -37.5 87t-85.5 35
q-53 0 -89 -36t-36 -86t36.5 -86.5t87.5 -36.5t87.5 36.5t36.5 86.5z" />
    <glyph glyph-name="yen" unicode="&#xa5;" horiz-adv-x="639" 
d="M629 727l-178 -315h148v-81h-194l-15 -27v-42h209v-81h-209v-181h-141v181h-208v81h208v35l-19 34h-189v81h144l-175 315h155l158 -293l163 293h143z" />
    <glyph glyph-name="brokenbar" unicode="&#xa6;" horiz-adv-x="364" 
d="M238 431h-112v311h112v-311zM238 -193h-112v311h112v-311z" />
    <glyph glyph-name="section" unicode="&#xa7;" horiz-adv-x="501" 
d="M477 263q0 -52 -27 -89t-74 -70q74 -60 74 -126q0 -61 -32 -101t-77 -55t-101 -15q-135 0 -208 94l89 66q46 -54 119 -54q83 0 83 55q0 25 -28 46.5t-113 68.5q-158 87 -158 202q0 91 101 162q-71 59 -71 125q0 88 60 129t148 41q137 0 208 -94l-90 -70q-48 58 -116 58
q-83 0 -83 -56q0 -26 38 -54q20 -15 59.5 -38.5l70 -43t62 -46.5t49 -61.5t17.5 -73.5zM355 259q0 30 -49 68q-24 20 -83 55q-77 -47 -77 -94q0 -23 28 -50t47.5 -38.5t56.5 -31.5q24 16 36.5 25.5t26.5 28.5t14 37z" />
    <glyph glyph-name="dieresis" unicode="&#xa8;" horiz-adv-x="500" 
d="M428 651q0 -34 -16.5 -48.5t-51.5 -14.5q-67 0 -67 63q0 65 67 65q36 0 52 -15.5t16 -49.5zM209 651q0 -34 -16.5 -48.5t-51.5 -14.5q-66 0 -66 63q0 33 15.5 49t50.5 16q36 0 52 -15.5t16 -49.5z" />
    <glyph glyph-name="copyright" unicode="&#xa9;" horiz-adv-x="944" 
d="M901 313q0 -179 -125 -304q-126 -126 -304 -126t-304 126q-125 125 -125 304q0 176 125 303q126 126 304 126t304 -126q125 -127 125 -303zM815 313q0 143 -100.5 243.5t-242.5 100.5t-242.5 -100.5t-100.5 -243.5t100.5 -243.5t242.5 -100.5t242.5 100.5t100.5 243.5z
M668 452l-86 -46q-35 61 -96 61q-59 0 -84.5 -36t-25.5 -113q0 -78 26 -112.5t85 -34.5q53 0 105 44l64 -70q-69 -59 -169 -59q-114 0 -166.5 58.5t-52.5 173.5q0 234 219 234q123 0 181 -100z" />
    <glyph glyph-name="ordfeminine" unicode="&#xaa;" horiz-adv-x="365" 
d="M325 394h-87v30q-53 -39 -103 -39t-79.5 30.5t-29.5 79.5q0 104 145 117l62 5v9q0 24 -14 35t-47 11q-52 0 -90 -32l-45 60q49 42 141 42q74 0 110.5 -28t36.5 -93v-227zM233 489v63l-37 -2q-78 -4 -78 -54q0 -39 43 -39q28 0 72 32z" />
    <glyph glyph-name="guillemotleft" unicode="&#xab;" horiz-adv-x="643" 
d="M624 27h-137l-179 233l179 234h137l-178 -234zM334 27h-137l-178 233l178 234h137l-178 -234z" />
    <glyph glyph-name="logicalnot" unicode="&#xac;" horiz-adv-x="682" 
d="M625 121h-106v227h-461v107h567v-334z" />
    <glyph glyph-name="uni00AD" unicode="&#xad;" horiz-adv-x="380" 
d="M347 204h-314v114h314v-114z" />
    <glyph glyph-name="registered" unicode="&#xae;" horiz-adv-x="944" 
d="M901 313q0 -179 -125 -304q-126 -126 -304 -126t-304 126q-125 125 -125 304q0 176 125 303q126 126 304 126t304 -126q125 -127 125 -303zM815 313q0 143 -100.5 243.5t-242.5 100.5t-242.5 -100.5t-100.5 -243.5t100.5 -243.5t242.5 -100.5t242.5 100.5t100.5 243.5z
M664 98h-103l-30 132q-10 44 -47 44h-75v-176h-101v448h168q86 0 129.5 -28t43.5 -97q0 -85 -65 -108q31 -9 44 -65zM545 410q0 27 -15 39.5t-51 12.5h-70v-105h64q41 0 56.5 12t15.5 41z" />
    <glyph glyph-name="macron" unicode="&#xaf;" horiz-adv-x="500" 
d="M409 606h-318v89h318v-89z" />
    <glyph glyph-name="degree" unicode="&#xb0;" horiz-adv-x="393" 
d="M349 590q0 -64 -45 -109t-107 -45q-63 0 -108 45t-45 109q0 63 44.5 107.5t107.5 44.5q64 0 108.5 -44.5t44.5 -107.5zM267 589q0 29 -20.5 50t-49.5 21q-30 0 -50.5 -21t-20.5 -49q0 -29 20.5 -50t50.5 -21q29 0 49.5 20.5t20.5 49.5z" />
    <glyph glyph-name="plusminus" unicode="&#xb1;" horiz-adv-x="682" 
d="M625 349h-231v-187h-106v187h-230v106h230v210h106v-210h231v-106zM625 0h-567v106h567v-106z" />
    <glyph glyph-name="twosuperior" unicode="&#xb2;" 
d="M446 293h-393v83q41 26 147 105q57 43 69 55q35 34 35 65q0 44 -69 44q-58 0 -111 -50l-78 65q36 38 80 60t116 22q78 0 133 -32.5t55 -99.5t-62 -124q-48 -43 -125 -96h203v-97z" />
    <glyph glyph-name="threesuperior" unicode="&#xb3;" 
d="M416 437q0 -77 -52 -116.5t-137 -39.5q-111 0 -172 82l80 54q34 -45 85 -45q73 0 73 66q0 26 -20 42t-54 16q-27 0 -53 -6v46l99 105h-176v92h312v-77l-85 -94q50 -10 75 -43.5t25 -81.5z" />
    <glyph glyph-name="acute" unicode="&#xb4;" horiz-adv-x="500" 
d="M413 766l-161 -176h-97l120 176h138z" />
    <glyph glyph-name="mu" unicode="&#xb5;" horiz-adv-x="581" 
d="M517 0h-118l-2 54q-46 -69 -112 -69q-51 0 -92 33v-211h-129v713h129v-373q13 -19 38.5 -33.5t51.5 -14.5q62 0 106 58v363h128v-520z" />
    <glyph glyph-name="paragraph" unicode="&#xb6;" horiz-adv-x="624" 
d="M604 635h-81v-828h-109v828h-75v-828h-109v494q-98 5 -154 58.5t-56 154.5q0 98 68 155.5t180 57.5h336v-92z" />
    <glyph glyph-name="periodcentered" unicode="&#xb7;" horiz-adv-x="266" 
d="M211 292q0 -73 -79 -73q-77 0 -77 73q0 74 77 74q79 0 79 -74z" />
    <glyph glyph-name="cedilla" unicode="&#xb8;" horiz-adv-x="500" 
d="M358 -104q0 -43 -36.5 -66t-100.5 -23q-79 0 -133 27l35 60q44 -16 95 -16q41 0 41 24q0 37 -79 40l39 67h78l-14 -26q33 -7 54 -30.5t21 -56.5z" />
    <glyph glyph-name="onesuperior" unicode="&#xb9;" 
d="M403 293h-299v93h98v202q-53 -24 -109 -32v92q99 28 144 94h81v-356h85v-93z" />
    <glyph glyph-name="ordmasculine" unicode="&#xba;" horiz-adv-x="387" 
d="M359 563q0 -178 -165 -178q-166 0 -166 178q0 179 166 179q165 0 165 -179zM264 563q0 104 -70 104q-36 0 -53.5 -24.5t-17.5 -79.5q0 -103 71 -103q70 0 70 103z" />
    <glyph glyph-name="guillemotright" unicode="&#xbb;" horiz-adv-x="643" 
d="M624 260l-178 -233h-137l178 233l-178 234h137zM335 260l-178 -233h-138l179 233l-179 234h138z" />
    <glyph glyph-name="onequarter" unicode="&#xbc;" horiz-adv-x="1058" 
d="M1002 -72h-58v-94h-114v94h-219v90l218 277h115v-279h58v-88zM795 727l-394 -878h-113l393 878h114zM403 293h-299v93h98v202q-53 -24 -109 -32v92q99 28 144 94h81v-356h85v-93zM833 12v145l-113 -145h113z" />
    <glyph glyph-name="onehalf" unicode="&#xbd;" horiz-adv-x="1058" 
d="M998 -154h-393v83q49 32 148 105q51 39 68 55q35 34 35 65q0 44 -68 44q-58 0 -111 -50l-79 65q35 38 80 60t117 22q77 0 132 -32.5t55 -99.5q0 -68 -61 -124q-45 -40 -126 -96h203v-97zM762 727l-394 -878h-113l393 878h114zM383 293h-299v93h98v202q-53 -24 -109 -32
v92q99 28 144 94h81v-356h85v-93z" />
    <glyph glyph-name="threequarters" unicode="&#xbe;" horiz-adv-x="1058" 
d="M1002 -71h-58v-95h-114v95h-219v90l218 276h115v-278h58v-88zM803 727l-394 -878h-113l393 878h114zM426 437q0 -77 -52 -116.5t-137 -39.5q-111 0 -172 82l80 54q34 -45 84 -45q74 0 74 66q0 26 -20 42t-54 16q-29 0 -54 -6v46l100 105h-177v92h312v-77l-85 -94
q51 -10 76 -43.5t25 -81.5zM833 13v144l-113 -144h113z" />
    <glyph glyph-name="questiondown" unicode="&#xbf;" horiz-adv-x="529" 
d="M375 462q0 -73 -77 -73q-79 0 -79 73t79 73q77 0 77 -73zM507 -77q-70 -116 -233 -116q-106 0 -172 47t-66 145q0 89 66 152q44 41 135 91v88h125v-144q-8 -5 -30.5 -16t-36.5 -18.5t-33 -19.5t-33 -24q-59 -49 -59 -103q0 -41 27 -64t77 -23q82 0 126 68z" />
    <glyph glyph-name="Agrave" unicode="&#xc0;" horiz-adv-x="691" 
d="M447 780h-97l-161 176h138zM678 0h-146l-55 168h-271l-54 -168h-139l239 727h183zM441 281l-100 310l-101 -310h201z" />
    <glyph glyph-name="Aacute" unicode="&#xc1;" horiz-adv-x="691" 
d="M506 956l-161 -176h-97l120 176h138zM678 0h-146l-55 168h-271l-54 -168h-139l239 727h183zM441 281l-100 310l-101 -310h201z" />
    <glyph glyph-name="Acircumflex" unicode="&#xc2;" horiz-adv-x="691" 
d="M529 780h-103l-83 98l-88 -98h-98l126 176h120zM678 0h-146l-55 168h-271l-54 -168h-139l239 727h183zM441 281l-100 310l-101 -310h201z" />
    <glyph glyph-name="Atilde" unicode="&#xc3;" horiz-adv-x="691" 
d="M539 914q-12 -134 -124 -134q-38 0 -81.5 24t-58.5 24q-19 0 -30.5 -14.5t-11.5 -33.5h-83q2 60 33.5 97t89.5 37q37 0 82 -23.5t59 -23.5q17 0 29 14.5t14 32.5h82zM678 0h-146l-55 168h-271l-54 -168h-139l239 727h183zM441 281l-100 310l-101 -310h201z" />
    <glyph glyph-name="Adieresis" unicode="&#xc4;" horiz-adv-x="691" 
d="M520 843q0 -34 -16.5 -48.5t-51.5 -14.5q-67 0 -67 63q0 65 67 65q36 0 52 -15.5t16 -49.5zM301 843q0 -34 -16.5 -48.5t-51.5 -14.5q-66 0 -66 63q0 33 15.5 49t50.5 16q36 0 52 -15.5t16 -49.5zM678 0h-146l-55 168h-271l-54 -168h-139l239 727h183zM441 281l-100 310
l-101 -310h201z" />
    <glyph glyph-name="Aring" unicode="&#xc5;" horiz-adv-x="691" 
d="M678 0h-146l-55 168h-271l-54 -168h-139l234 711q-27 29 -27 77q0 54 30.5 86t91.5 32q62 0 92.5 -31.5t30.5 -86.5q0 -50 -25 -76zM407 788q0 61 -65 61q-63 0 -63 -61t63 -61q65 0 65 61zM441 281l-100 310l-101 -310h201z" />
    <glyph glyph-name="AE" unicode="&#xc6;" horiz-adv-x="924" 
d="M874 0h-445v168h-220l-60 -168h-142l270 727h597v-118h-304v-173h272v-116h-272v-202h304v-118zM429 281v328h-58l-121 -328h179z" />
    <glyph glyph-name="Ccedilla" unicode="&#xc7;" horiz-adv-x="683" 
d="M663 594l-114 -63q-55 96 -161 96q-104 0 -149 -65t-45 -199q0 -135 45.5 -199t148.5 -64q40 0 76.5 13t53 25t40.5 32l85 -98q-93 -82 -234 -87l-1 -2q33 -7 54 -30.5t21 -56.5q0 -43 -36.5 -66t-100.5 -23q-79 0 -133 27l35 60q44 -16 95 -16q41 0 41 24q0 37 -79 40
l27 46q-149 15 -217.5 108.5t-68.5 266.5q0 188 81.5 283.5t260.5 95.5q193 0 275 -148z" />
    <glyph glyph-name="Egrave" unicode="&#xc8;" horiz-adv-x="596" 
d="M384 780h-97l-161 176h138zM546 0h-476v727h476v-118h-335v-173h303v-116h-303v-202h335v-118z" />
    <glyph glyph-name="Eacute" unicode="&#xc9;" horiz-adv-x="596" 
d="M494 956l-161 -176h-97l120 176h138zM546 0h-476v727h476v-118h-335v-173h303v-116h-303v-202h335v-118z" />
    <glyph glyph-name="Ecircumflex" unicode="&#xca;" horiz-adv-x="596" 
d="M493 780h-103l-83 98l-88 -98h-98l126 176h120zM546 0h-476v727h476v-118h-335v-173h303v-116h-303v-202h335v-118z" />
    <glyph glyph-name="Edieresis" unicode="&#xcb;" horiz-adv-x="596" 
d="M486 843q0 -34 -16.5 -48.5t-51.5 -14.5q-67 0 -67 63q0 65 67 65q36 0 52 -15.5t16 -49.5zM267 843q0 -34 -16.5 -48.5t-51.5 -14.5q-66 0 -66 63q0 33 15.5 49t50.5 16q36 0 52 -15.5t16 -49.5zM546 0h-476v727h476v-118h-335v-173h303v-116h-303v-202h335v-118z" />
    <glyph glyph-name="Igrave" unicode="&#xcc;" horiz-adv-x="409" 
d="M286 780h-97l-161 176h138zM369 0h-329v109h94v509h-94v109h329v-109h-94v-509h94v-109z" />
    <glyph glyph-name="Iacute" unicode="&#xcd;" horiz-adv-x="409" 
d="M383 956l-161 -176h-97l120 176h138zM369 0h-329v109h94v509h-94v109h329v-109h-94v-509h94v-109z" />
    <glyph glyph-name="Icircumflex" unicode="&#xce;" horiz-adv-x="409" 
d="M389 780h-103l-83 98l-88 -98h-98l126 176h120zM369 0h-329v109h94v509h-94v109h329v-109h-94v-509h94v-109z" />
    <glyph glyph-name="Idieresis" unicode="&#xcf;" horiz-adv-x="409" 
d="M381 843q0 -34 -16.5 -48.5t-51.5 -14.5q-67 0 -67 63q0 65 67 65q36 0 52 -15.5t16 -49.5zM162 843q0 -34 -16.5 -48.5t-51.5 -14.5q-66 0 -66 63q0 33 15.5 49t50.5 16q36 0 52 -15.5t16 -49.5zM369 0h-329v109h94v509h-94v109h329v-109h-94v-509h94v-109z" />
    <glyph glyph-name="Eth" unicode="&#xd0;" horiz-adv-x="719" 
d="M673 363q0 -106 -24 -177t-74.5 -112t-118.5 -57.5t-166 -16.5h-220v317h-60v96h60v314h218q200 0 292.5 -82t92.5 -282zM525 364q0 133 -53.5 189.5t-192.5 56.5h-68v-197h163v-96h-163v-200h68q143 0 194.5 56t51.5 191z" />
    <glyph glyph-name="Ntilde" unicode="&#xd1;" horiz-adv-x="725" 
d="M556 914q-9 -134 -124 -134q-38 0 -81.5 24t-58.5 24q-19 0 -30 -14t-12 -34h-83q2 60 33.5 97t89.5 37q37 0 82 -23.5t59 -23.5q17 0 30 15t13 32h82zM655 0h-154l-299 533v-533h-132v727h170l283 -501v501h132v-727z" />
    <glyph glyph-name="Ograve" unicode="&#xd2;" horiz-adv-x="769" 
d="M468 780h-97l-161 176h138zM723 363q0 -185 -79 -281.5t-259 -96.5t-259.5 97t-79.5 281q0 186 79.5 282.5t259.5 96.5t259 -96.5t79 -282.5zM575 363q0 135 -44 199.5t-146 64.5q-103 0 -147 -64.5t-44 -199.5q0 -134 44 -198.5t147 -64.5q102 0 146 64.5t44 198.5z" />
    <glyph glyph-name="Oacute" unicode="&#xd3;" horiz-adv-x="769" 
d="M551 956l-160 -176h-96l119 176h137zM723 363q0 -185 -79 -281.5t-259 -96.5t-259.5 97t-79.5 281q0 186 79.5 282.5t259.5 96.5t259 -96.5t79 -282.5zM575 363q0 135 -44 199.5t-146 64.5q-103 0 -147 -64.5t-44 -199.5q0 -134 44 -198.5t147 -64.5q102 0 146 64.5
t44 198.5z" />
    <glyph glyph-name="Ocircumflex" unicode="&#xd4;" horiz-adv-x="769" 
d="M568 780h-103l-83 98l-88 -98h-98l126 176h120zM723 363q0 -185 -79 -281.5t-259 -96.5t-259.5 97t-79.5 281q0 186 79.5 282.5t259.5 96.5t259 -96.5t79 -282.5zM575 363q0 135 -44 199.5t-146 64.5q-103 0 -147 -64.5t-44 -199.5q0 -134 44 -198.5t147 -64.5
q102 0 146 64.5t44 198.5z" />
    <glyph glyph-name="Otilde" unicode="&#xd5;" horiz-adv-x="769" 
d="M577 914q-9 -134 -124 -134q-38 0 -81.5 24t-58.5 24q-19 0 -30 -14t-12 -34h-83q2 60 33.5 97t89.5 37q37 0 82 -23.5t59 -23.5q17 0 30 15t13 32h82zM723 363q0 -185 -79 -281.5t-259 -96.5t-259.5 97t-79.5 281q0 186 79.5 282.5t259.5 96.5t259 -96.5t79 -282.5z
M575 363q0 135 -44 199.5t-146 64.5q-103 0 -147 -64.5t-44 -199.5q0 -134 44 -198.5t147 -64.5q102 0 146 64.5t44 198.5z" />
    <glyph glyph-name="Odieresis" unicode="&#xd6;" horiz-adv-x="769" 
d="M558 843q0 -34 -16.5 -48.5t-51.5 -14.5q-67 0 -67 63q0 65 67 65q36 0 52 -15.5t16 -49.5zM339 843q0 -34 -16.5 -48.5t-51.5 -14.5q-66 0 -66 63q0 33 15.5 49t50.5 16q36 0 52 -15.5t16 -49.5zM723 363q0 -185 -79 -281.5t-259 -96.5t-259.5 97t-79.5 281
q0 186 79.5 282.5t259.5 96.5t259 -96.5t79 -282.5zM575 363q0 135 -44 199.5t-146 64.5q-103 0 -147 -64.5t-44 -199.5q0 -134 44 -198.5t147 -64.5q102 0 146 64.5t44 198.5z" />
    <glyph glyph-name="multiply" unicode="&#xd7;" horiz-adv-x="682" 
d="M615 94l-75 -75l-199 199l-199 -199l-75 75l199 198l-199 199l75 75l199 -198l199 197l75 -75l-198 -198z" />
    <glyph glyph-name="Oslash" unicode="&#xd8;" horiz-adv-x="769" 
d="M732 764l-86 -121q77 -93 77 -280q0 -185 -79 -281.5t-259 -96.5q-106 0 -180 36l-55 -77h-118l96 135q-82 92 -82 284q0 186 79.5 282.5t259.5 96.5q111 0 186 -39l43 61h118zM496 598q-41 29 -111 29q-103 0 -147 -64.5t-44 -199.5q0 -99 23 -158zM575 363
q0 94 -20 151l-276 -388q41 -26 106 -26q102 0 146 64.5t44 198.5z" />
    <glyph glyph-name="Ugrave" unicode="&#xd9;" horiz-adv-x="697" 
d="M441 780h-97l-161 176h138zM632 286q0 -163 -63 -232t-221 -69q-157 0 -220 69t-63 232v441h141v-431q0 -110 30.5 -153t111.5 -43q83 0 113 43.5t30 150.5v433h141v-441z" />
    <glyph glyph-name="Uacute" unicode="&#xda;" horiz-adv-x="697" 
d="M522 956l-161 -176h-97l120 176h138zM632 286q0 -163 -63 -232t-221 -69q-157 0 -220 69t-63 232v441h141v-431q0 -110 30.5 -153t111.5 -43q83 0 113 43.5t30 150.5v433h141v-441z" />
    <glyph glyph-name="Ucircumflex" unicode="&#xdb;" horiz-adv-x="697" 
d="M535 780h-103l-83 98l-88 -98h-98l126 176h120zM632 286q0 -163 -63 -232t-221 -69q-157 0 -220 69t-63 232v441h141v-431q0 -110 30.5 -153t111.5 -43q83 0 113 43.5t30 150.5v433h141v-441z" />
    <glyph glyph-name="Udieresis" unicode="&#xdc;" horiz-adv-x="697" 
d="M525 843q0 -34 -16.5 -48.5t-51.5 -14.5q-37 0 -52 16t-15 47q0 65 67 65q68 0 68 -65zM306 843q0 -34 -16.5 -48.5t-51.5 -14.5q-36 0 -51 16t-15 47q0 33 15.5 49t50.5 16q68 0 68 -65zM632 286q0 -163 -63 -232t-221 -69q-157 0 -220 69t-63 232v441h141v-431
q0 -110 30.5 -153t111.5 -43q83 0 113 43.5t30 150.5v433h141v-441z" />
    <glyph glyph-name="Yacute" unicode="&#xdd;" horiz-adv-x="647" 
d="M504 956l-161 -176h-97l120 176h138zM639 727l-246 -433v-294h-141v286l-244 441h154l164 -304l169 304h144z" />
    <glyph glyph-name="Thorn" unicode="&#xde;" horiz-adv-x="623" 
d="M585 371q0 -124 -66.5 -183.5t-216.5 -59.5h-91v-128h-141v727h141v-120h92q147 0 214.5 -56.5t67.5 -179.5zM437 370q0 63 -33.5 91t-105.5 28h-87v-242h86q78 0 109 27t31 96z" />
    <glyph glyph-name="germandbls" unicode="&#xdf;" horiz-adv-x="581" 
d="M543 229q0 -244 -206 -244q-40 0 -92 13v101q41 -13 76 -13q89 0 89 147q0 77 -39 105t-119 28v98q110 0 110 104q0 34 -20 55.5t-60 21.5q-53 0 -73 -34.5t-20 -106.5v-504h-129v500q0 116 49 179t175 63q95 0 152 -41.5t57 -124.5q0 -118 -109 -150q78 -13 118.5 -64.5
t40.5 -132.5z" />
    <glyph glyph-name="agrave" unicode="&#xe0;" horiz-adv-x="551" 
d="M491 0h-121v53q-87 -68 -168 -68q-75 0 -119.5 46.5t-44.5 120.5q0 88 57.5 128t162.5 50l104 9v21q0 42 -25.5 60t-76.5 18q-84 0 -140 -49l-63 86q72 60 210 60q114 0 169 -42.5t55 -141.5v-351zM362 139v114l-67 -7q-67 -7 -97 -28t-30 -64q0 -69 75 -69q47 0 119 54z
M361 590h-97l-161 176h138z" />
    <glyph glyph-name="aacute" unicode="&#xe1;" horiz-adv-x="551" 
d="M491 0h-121v53q-87 -68 -168 -68q-75 0 -119.5 46.5t-44.5 120.5q0 88 57.5 128t162.5 50l104 9v21q0 42 -25.5 60t-76.5 18q-84 0 -140 -49l-63 86q72 60 210 60q114 0 169 -42.5t55 -141.5v-351zM362 139v114l-67 -7q-67 -7 -97 -28t-30 -64q0 -69 75 -69q47 0 119 54z
M449 766l-161 -176h-97l120 176h138z" />
    <glyph glyph-name="acircumflex" unicode="&#xe2;" horiz-adv-x="551" 
d="M491 0h-121v53q-87 -68 -168 -68q-75 0 -119.5 46.5t-44.5 120.5q0 88 57.5 128t162.5 50l104 9v21q0 42 -25.5 60t-76.5 18q-84 0 -140 -49l-63 86q72 60 210 60q114 0 169 -42.5t55 -141.5v-351zM457 590h-103l-83 98l-88 -98h-98l126 176h120zM362 139v114l-67 -7
q-67 -7 -97 -28t-30 -64q0 -69 75 -69q47 0 119 54z" />
    <glyph glyph-name="atilde" unicode="&#xe3;" horiz-adv-x="551" 
d="M491 0h-121v53q-87 -68 -168 -68q-75 0 -119.5 46.5t-44.5 120.5q0 88 57.5 128t162.5 50l104 9v21q0 42 -25.5 60t-76.5 18q-84 0 -140 -49l-63 86q72 60 210 60q114 0 169 -42.5t55 -141.5v-351zM464 745q-9 -134 -124 -134q-38 0 -81.5 24t-58.5 24q-19 0 -30.5 -14.5
t-11.5 -33.5h-83q2 60 33.5 97t89.5 37q37 0 82 -23.5t59 -23.5q17 0 29 14.5t14 32.5h82zM362 139v114l-67 -7q-67 -7 -97 -28t-30 -64q0 -69 75 -69q47 0 119 54z" />
    <glyph glyph-name="adieresis" unicode="&#xe4;" horiz-adv-x="551" 
d="M491 0h-121v53q-87 -68 -168 -68q-75 0 -119.5 46.5t-44.5 120.5q0 88 57.5 128t162.5 50l104 9v21q0 42 -25.5 60t-76.5 18q-84 0 -140 -49l-63 86q72 60 210 60q114 0 169 -42.5t55 -141.5v-351zM362 139v114l-67 -7q-67 -7 -97 -28t-30 -64q0 -69 75 -69q47 0 119 54z
M448 651q0 -34 -16.5 -48.5t-51.5 -14.5q-67 0 -67 63q0 65 67 65q36 0 52 -15.5t16 -49.5zM229 651q0 -34 -16.5 -48.5t-51.5 -14.5q-66 0 -66 63q0 33 15.5 49t50.5 16q36 0 52 -15.5t16 -49.5z" />
    <glyph glyph-name="aring" unicode="&#xe5;" horiz-adv-x="551" 
d="M491 0h-121v53q-87 -68 -168 -68q-75 0 -119.5 46.5t-44.5 120.5q0 88 57.5 128t162.5 50l104 9v21q0 42 -25.5 60t-76.5 18q-84 0 -140 -49l-63 86q72 60 210 60q114 0 169 -42.5t55 -141.5v-351zM372 672q0 -46 -26.5 -72.5t-78.5 -26.5q-54 0 -79.5 27t-25.5 72
q0 46 26 72.5t79 26.5q52 0 78.5 -26.5t26.5 -72.5zM362 139v114l-67 -7q-67 -7 -97 -28t-30 -64q0 -69 75 -69q47 0 119 54zM314 672q0 43 -47 43t-47 -43t47 -43t47 43z" />
    <glyph glyph-name="ae" unicode="&#xe6;" horiz-adv-x="854" 
d="M818 216h-332q2 -57 33 -92.5t87 -35.5q63 0 113 40l64 -89q-76 -54 -187 -54q-132 0 -193 88q-104 -88 -203 -88q-74 0 -118 46.5t-44 120.5q0 88 57.5 128t160.5 50l102 9v21q0 42 -25 59.5t-76 17.5q-83 0 -137 -48l-63 86q72 60 208 60q128 0 172 -65q58 65 160 65
q221 0 221 -242v-77zM370 142q-12 34 -12 78v33q-4 0 -28.5 -3t-33.5 -4q-67 -6 -97.5 -26.5t-30.5 -66.5q0 -34 20 -51t53 -17q59 0 129 57zM694 310q0 129 -98 129q-51 0 -78 -30.5t-31 -98.5h207z" />
    <glyph glyph-name="ccedilla" unicode="&#xe7;" horiz-adv-x="501" 
d="M487 434l-94 -58q-36 56 -101 56q-68 0 -94 -45t-26 -128q0 -81 27.5 -126t98.5 -45q55 0 108 38l66 -88q-71 -48 -161 -52l-1 -3q33 -7 54 -30.5t21 -56.5q0 -43 -36.5 -66t-100.5 -23q-79 0 -133 27l35 60q44 -16 95 -16q41 0 41 24q0 37 -79 40l27 47
q-196 30 -196 270q0 276 252 276q132 0 197 -101z" />
    <glyph glyph-name="egrave" unicode="&#xe8;" horiz-adv-x="544" 
d="M367 590h-97l-161 176h138zM508 216h-336q3 -60 35 -94t89 -34q63 0 113 40l65 -89q-76 -54 -187 -54q-249 0 -249 272q0 278 246 278q224 0 224 -242v-77zM384 310q0 129 -99 129q-53 0 -80.5 -31t-32.5 -98h212z" />
    <glyph glyph-name="eacute" unicode="&#xe9;" horiz-adv-x="544" 
d="M451 766l-161 -176h-97l120 176h138zM508 216h-336q3 -60 35 -94t89 -34q63 0 113 40l65 -89q-76 -54 -187 -54q-249 0 -249 272q0 278 246 278q224 0 224 -242v-77zM384 310q0 129 -99 129q-53 0 -80.5 -31t-32.5 -98h212z" />
    <glyph glyph-name="ecircumflex" unicode="&#xea;" horiz-adv-x="544" 
d="M465 590h-103l-83 98l-88 -98h-98l126 176h120zM508 216h-336q3 -60 35 -94t89 -34q63 0 113 40l65 -89q-76 -54 -187 -54q-249 0 -249 272q0 278 246 278q224 0 224 -242v-77zM384 310q0 129 -99 129q-53 0 -80.5 -31t-32.5 -98h212z" />
    <glyph glyph-name="edieresis" unicode="&#xeb;" horiz-adv-x="544" 
d="M456 651q0 -34 -16.5 -48.5t-51.5 -14.5q-37 0 -52 16t-15 47q0 65 67 65q36 0 52 -15.5t16 -49.5zM237 651q0 -34 -16.5 -48.5t-51.5 -14.5q-36 0 -51 16t-15 47q0 33 15.5 49t50.5 16q36 0 52 -15.5t16 -49.5zM508 216h-336q3 -60 35 -94t89 -34q63 0 113 40l65 -89
q-76 -54 -187 -54q-249 0 -249 272q0 278 246 278q224 0 224 -242v-77zM384 310q0 129 -99 129q-53 0 -80.5 -31t-32.5 -98h212z" />
    <glyph glyph-name="igrave" unicode="&#xec;" horiz-adv-x="305" 
d="M236 590h-97l-161 176h138zM236 0h-129v424h-82v96h211v-520z" />
    <glyph glyph-name="iacute" unicode="&#xed;" horiz-adv-x="305" 
d="M323 766l-161 -176h-97l120 176h138zM236 0h-129v424h-82v96h211v-520z" />
    <glyph glyph-name="icircumflex" unicode="&#xee;" horiz-adv-x="305" 
d="M335 590h-103l-83 98l-88 -98h-98l126 176h120zM236 0h-129v424h-82v96h211v-520z" />
    <glyph glyph-name="idieresis" unicode="&#xef;" horiz-adv-x="305" 
d="M325 651q0 -34 -16.5 -48.5t-51.5 -14.5q-67 0 -67 63q0 65 67 65q36 0 52 -15.5t16 -49.5zM106 651q0 -34 -16.5 -48.5t-51.5 -14.5q-66 0 -66 63q0 33 15.5 49t50.5 16q36 0 52 -15.5t16 -49.5zM236 0h-129v424h-82v96h211v-520z" />
    <glyph glyph-name="eth" unicode="&#xf0;" horiz-adv-x="579" 
d="M541 253q0 -121 -60.5 -194.5t-191.5 -73.5q-130 0 -190.5 73t-60.5 194t59.5 195t171.5 74q41 0 73 -19q-25 55 -77 109l-109 -39l-29 70l84 30q-46 44 -91 70h146q30 -16 50 -33l92 33l34 -68l-64 -23q163 -165 163 -398zM407 253q0 165 -117 165q-118 0 -118 -166
q0 -164 117 -164q118 0 118 165z" />
    <glyph glyph-name="ntilde" unicode="&#xf1;" horiz-adv-x="578" 
d="M483 745q-9 -134 -124 -134q-38 0 -81 24t-59 24q-19 0 -30 -14t-12 -34h-83q4 60 34.5 97t88.5 37q36 0 81.5 -23.5t59.5 -23.5q17 0 30 15t13 32h82zM518 0h-129v306q0 66 -14 91.5t-53 25.5q-51 0 -129 -65v-358h-129v520h121v-62q91 77 175 77q158 0 158 -189v-346z
" />
    <glyph glyph-name="ograve" unicode="&#xf2;" horiz-adv-x="579" 
d="M385 590h-97l-161 176h138zM541 259q0 -57 -12 -103.5t-39.5 -86.5t-78 -62t-121.5 -22t-122 22t-78.5 62t-39.5 86.5t-12 103.5q0 276 252 276q71 0 121.5 -22t78 -62t39.5 -87t12 -105zM407 259q0 90 -28.5 131.5t-88.5 41.5t-89 -41.5t-29 -131.5q0 -88 29 -129.5
t89 -41.5q117 0 117 171z" />
    <glyph glyph-name="oacute" unicode="&#xf3;" horiz-adv-x="579" 
d="M458 766l-161 -176h-97l120 176h138zM541 259q0 -57 -12 -103.5t-39.5 -86.5t-78 -62t-121.5 -22t-122 22t-78.5 62t-39.5 86.5t-12 103.5q0 276 252 276q71 0 121.5 -22t78 -62t39.5 -87t12 -105zM407 259q0 90 -28.5 131.5t-88.5 41.5t-89 -41.5t-29 -131.5
q0 -88 29 -129.5t89 -41.5q117 0 117 171z" />
    <glyph glyph-name="ocircumflex" unicode="&#xf4;" horiz-adv-x="579" 
d="M475 590h-103l-83 98l-88 -98h-98l126 176h120zM541 259q0 -57 -12 -103.5t-39.5 -86.5t-78 -62t-121.5 -22t-122 22t-78.5 62t-39.5 86.5t-12 103.5q0 276 252 276q71 0 121.5 -22t78 -62t39.5 -87t12 -105zM407 259q0 90 -28.5 131.5t-88.5 41.5t-89 -41.5t-29 -131.5
q0 -88 29 -129.5t89 -41.5q117 0 117 171z" />
    <glyph glyph-name="otilde" unicode="&#xf5;" horiz-adv-x="579" 
d="M484 745q-9 -134 -124 -134q-38 0 -81 24t-59 24q-19 0 -30 -14t-12 -34h-83q4 60 34.5 97t88.5 37q36 0 81.5 -23.5t59.5 -23.5q17 0 30 15t13 32h82zM541 259q0 -57 -12 -103.5t-39.5 -86.5t-78 -62t-121.5 -22t-122 22t-78.5 62t-39.5 86.5t-12 103.5q0 276 252 276
q71 0 121.5 -22t78 -62t39.5 -87t12 -105zM407 259q0 90 -28.5 131.5t-88.5 41.5t-89 -41.5t-29 -131.5q0 -88 29 -129.5t89 -41.5q117 0 117 171z" />
    <glyph glyph-name="odieresis" unicode="&#xf6;" horiz-adv-x="579" 
d="M465 651q0 -34 -16.5 -48.5t-51.5 -14.5q-37 0 -52 16t-15 47q0 65 67 65q68 0 68 -65zM246 651q0 -34 -16.5 -48.5t-51.5 -14.5q-36 0 -51 16t-15 47q0 33 15.5 49t50.5 16q68 0 68 -65zM541 259q0 -57 -12 -103.5t-39.5 -86.5t-78 -62t-121.5 -22t-122 22t-78.5 62
t-39.5 86.5t-12 103.5q0 276 252 276q71 0 121.5 -22t78 -62t39.5 -87t12 -105zM407 259q0 90 -28.5 131.5t-88.5 41.5t-89 -41.5t-29 -131.5q0 -88 29 -129.5t89 -41.5q117 0 117 171z" />
    <glyph glyph-name="divide" unicode="&#xf7;" horiz-adv-x="682" 
d="M408 516q0 -34 -16.5 -49t-51.5 -15q-66 0 -66 64q0 66 66 66q36 0 52 -16t16 -50zM625 239h-567v107h567v-107zM408 67q0 -34 -16.5 -49t-51.5 -15q-66 0 -66 64q0 66 66 66q36 0 52 -16t16 -50z" />
    <glyph glyph-name="oslash" unicode="&#xf8;" horiz-adv-x="579" 
d="M547 557l-67 -94q61 -70 61 -204q0 -57 -12 -103.5t-39.5 -86.5t-78 -62t-121.5 -22q-79 0 -131 26l-34 -48h-87l64 91q-64 69 -64 205q0 276 252 276q78 0 134 -29l36 51h87zM357 413q-26 19 -67 19q-60 0 -89 -41.5t-29 -131.5q0 -54 11 -92zM407 259q0 48 -10 88
l-171 -242q26 -17 64 -17q117 0 117 171z" />
    <glyph glyph-name="ugrave" unicode="&#xf9;" horiz-adv-x="578" 
d="M377 590h-97l-161 176h138zM514 0h-121v62q-91 -77 -175 -77q-158 0 -158 190v345h129v-306q0 -66 14 -91.5t53 -25.5q51 0 129 65v358h129v-520z" />
    <glyph glyph-name="uacute" unicode="&#xfa;" horiz-adv-x="578" 
d="M467 766l-161 -176h-97l120 176h138zM514 0h-121v62q-91 -77 -175 -77q-158 0 -158 190v345h129v-306q0 -66 14 -91.5t53 -25.5q51 0 129 65v358h129v-520z" />
    <glyph glyph-name="ucircumflex" unicode="&#xfb;" horiz-adv-x="578" 
d="M471 590h-103l-83 98l-88 -98h-98l126 176h120zM514 0h-121v62q-91 -77 -175 -77q-158 0 -158 190v345h129v-306q0 -66 14 -91.5t53 -25.5q51 0 129 65v358h129v-520z" />
    <glyph glyph-name="udieresis" unicode="&#xfc;" horiz-adv-x="578" 
d="M461 651q0 -34 -16.5 -48.5t-51.5 -14.5q-67 0 -67 63q0 65 67 65q36 0 52 -15.5t16 -49.5zM242 651q0 -34 -16.5 -48.5t-51.5 -14.5q-66 0 -66 63q0 33 15.5 49t50.5 16q36 0 52 -15.5t16 -49.5zM514 0h-121v62q-91 -77 -175 -77q-158 0 -158 190v345h129v-306
q0 -66 14 -91.5t53 -25.5q51 0 129 65v358h129v-520z" />
    <glyph glyph-name="yacute" unicode="&#xfd;" horiz-adv-x="543" 
d="M448 766l-161 -176h-97l120 176h138zM533 520l-219 -562q-32 -83 -83 -117t-126 -34q-61 0 -114 17l29 99q45 -17 85 -17q32 0 54.5 21.5t42.5 68.5l10 24l-198 500h133l128 -344l130 344h128z" />
    <glyph glyph-name="thorn" unicode="&#xfe;" horiz-adv-x="586" 
d="M548 264q0 -133 -57 -206t-162 -73q-76 0 -136 35v-213h-129v920h129v-247q68 55 147 55q102 0 155 -72.5t53 -198.5zM414 262q0 176 -109 176q-62 0 -112 -52v-272q56 -32 111 -32q110 0 110 180z" />
    <glyph glyph-name="ydieresis" unicode="&#xff;" horiz-adv-x="543" 
d="M451 651q0 -34 -16.5 -48.5t-51.5 -14.5q-67 0 -67 63q0 65 67 65q36 0 52 -15.5t16 -49.5zM232 651q0 -34 -16.5 -48.5t-51.5 -14.5q-66 0 -66 63q0 33 15.5 49t50.5 16q36 0 52 -15.5t16 -49.5zM533 520l-219 -562q-32 -83 -83 -117t-126 -34q-61 0 -114 17l29 99
q45 -17 85 -17q32 0 54.5 21.5t42.5 68.5l10 24l-198 500h133l128 -344l130 344h128z" />
    <glyph glyph-name="Amacron" unicode="&#x100;" horiz-adv-x="691" 
d="M678 0h-146l-55 168h-271l-54 -168h-139l239 727h183zM441 281l-100 310l-101 -310h201zM504 780h-318v89h318v-89z" />
    <glyph glyph-name="amacron" unicode="&#x101;" horiz-adv-x="551" 
d="M491 0h-121v53q-87 -68 -168 -68q-75 0 -119.5 46.5t-44.5 120.5q0 88 57.5 128t162.5 50l104 9v21q0 42 -25.5 60t-76.5 18q-84 0 -140 -49l-63 86q72 60 210 60q114 0 169 -42.5t55 -141.5v-351zM434 606h-318v89h318v-89zM362 139v114l-67 -7q-67 -7 -97 -28t-30 -64
q0 -69 75 -69q47 0 119 54z" />
    <glyph glyph-name="Abreve" unicode="&#x102;" horiz-adv-x="691" 
d="M678 0h-146l-55 168h-271l-54 -168h-139l239 727h183zM441 281l-100 310l-101 -310h201zM530 918q-39 -138 -186 -138q-145 0 -184 138h91q31 -52 93 -52q55 0 82 33q7 8 13 19h91z" />
    <glyph glyph-name="abreve" unicode="&#x103;" horiz-adv-x="551" 
d="M491 0h-121v53q-87 -68 -168 -68q-75 0 -119.5 46.5t-44.5 120.5q0 88 57.5 128t162.5 50l104 9v21q0 42 -25.5 60t-76.5 18q-84 0 -140 -49l-63 86q72 60 210 60q114 0 169 -42.5t55 -141.5v-351zM456 747q-39 -138 -186 -138q-145 0 -184 138h91q31 -52 93 -52
q55 0 82 33q7 8 13 19h91zM362 139v114l-67 -7q-67 -7 -97 -28t-30 -64q0 -69 75 -69q47 0 119 54z" />
    <glyph glyph-name="Aogonek" unicode="&#x104;" horiz-adv-x="691" 
d="M775 -156q-70 -37 -135 -37q-60 0 -92 30t-32 77q0 43 16 86l-55 168h-271l-54 -168h-139l239 727h183l243 -727h-54q-8 -26 -8 -57q0 -24 13 -39t37 -15q32 0 72 21zM441 281l-100 310l-101 -310h201z" />
    <glyph glyph-name="aogonek" unicode="&#x105;" horiz-adv-x="551" 
d="M613 -156q-70 -37 -135 -37q-60 0 -92 30t-32 77q0 44 16 87v52q-87 -68 -168 -68q-75 0 -119.5 46.5t-44.5 120.5q0 88 57.5 128t162.5 50l104 9v21q0 42 -25.5 60t-76.5 18q-84 0 -140 -49l-63 86q72 60 210 60q114 0 169 -42.5t55 -141.5v-351h-29q-8 -26 -8 -57
q0 -24 13 -39t37 -15q32 0 72 21zM362 139v114l-67 -7q-67 -7 -97 -28t-30 -64q0 -69 75 -69q47 0 119 54z" />
    <glyph glyph-name="Cacute" unicode="&#x106;" horiz-adv-x="683" 
d="M663 594l-114 -63q-55 96 -161 96q-104 0 -149 -65t-45 -199q0 -135 45.5 -199t148.5 -64q40 0 76.5 13t53 25t40.5 32l85 -98q-98 -87 -255 -87q-179 0 -260.5 95t-81.5 283t81.5 283.5t260.5 95.5q193 0 275 -148zM533 956l-161 -176h-97l120 176h138z" />
    <glyph glyph-name="cacute" unicode="&#x107;" horiz-adv-x="501" 
d="M487 434l-94 -58q-36 56 -101 56q-68 0 -94 -45t-26 -128q0 -81 27.5 -126t98.5 -45q55 0 108 38l66 -88q-79 -53 -182 -53q-252 0 -252 274q0 276 252 276q132 0 197 -101zM437 766l-161 -176h-97l120 176h138z" />
    <glyph glyph-name="Ccircumflex" unicode="&#x108;" horiz-adv-x="683" 
d="M663 594l-114 -63q-55 96 -161 96q-104 0 -149 -65t-45 -199q0 -135 45.5 -199t148.5 -64q40 0 76.5 13t53 25t40.5 32l85 -98q-98 -87 -255 -87q-179 0 -260.5 95t-81.5 283t81.5 283.5t260.5 95.5q193 0 275 -148zM570 780h-103l-83 98l-88 -98h-98l126 176h120z" />
    <glyph glyph-name="ccircumflex" unicode="&#x109;" horiz-adv-x="501" 
d="M487 434l-94 -58q-36 56 -101 56q-68 0 -94 -45t-26 -128q0 -81 27.5 -126t98.5 -45q55 0 108 38l66 -88q-79 -53 -182 -53q-252 0 -252 274q0 276 252 276q132 0 197 -101zM463 590h-103l-83 98l-88 -98h-98l126 176h120z" />
    <glyph glyph-name="Cdotaccent" unicode="&#x10a;" horiz-adv-x="683" 
d="M663 594l-114 -63q-55 96 -161 96q-104 0 -149 -65t-45 -199q0 -135 45.5 -199t148.5 -64q40 0 76.5 13t53 25t40.5 32l85 -98q-98 -87 -255 -87q-179 0 -260.5 95t-81.5 283t81.5 283.5t260.5 95.5q193 0 275 -148zM438 844q0 -34 -16 -49t-51 -15q-67 0 -67 64
q0 33 16 48.5t51 15.5t51 -15t16 -49z" />
    <glyph glyph-name="cdotaccent" unicode="&#x10b;" horiz-adv-x="501" 
d="M487 434l-94 -58q-36 56 -101 56q-68 0 -94 -45t-26 -128q0 -81 27.5 -126t98.5 -45q55 0 108 38l66 -88q-79 -53 -182 -53q-252 0 -252 274q0 276 252 276q132 0 197 -101zM349 652q0 -34 -16 -49t-51 -15q-67 0 -67 64q0 33 16 48.5t51 15.5t51 -15t16 -49z" />
    <glyph glyph-name="Ccaron" unicode="&#x10c;" horiz-adv-x="683" 
d="M663 594l-114 -63q-55 96 -161 96q-104 0 -149 -65t-45 -199q0 -135 45.5 -199t148.5 -64q40 0 76.5 13t53 25t40.5 32l85 -98q-98 -87 -255 -87q-179 0 -260.5 95t-81.5 283t81.5 283.5t260.5 95.5q193 0 275 -148zM558 956l-127 -176h-119l-127 176h99l88 -98l88 98h98
z" />
    <glyph glyph-name="ccaron" unicode="&#x10d;" horiz-adv-x="501" 
d="M487 434l-94 -58q-36 56 -101 56q-68 0 -94 -45t-26 -128q0 -81 27.5 -126t98.5 -45q55 0 108 38l66 -88q-79 -53 -182 -53q-252 0 -252 274q0 276 252 276q132 0 197 -101zM458 766l-127 -176h-119l-127 176h99l88 -98l88 98h98z" />
    <glyph glyph-name="Dcaron" unicode="&#x10e;" horiz-adv-x="719" 
d="M673 363q0 -106 -24 -177t-74.5 -112t-118.5 -57.5t-166 -16.5h-220v727h218q200 0 292.5 -82t92.5 -282zM525 364q0 133 -53.5 189.5t-192.5 56.5h-68v-493h68q143 0 194.5 56t51.5 191zM540 956l-127 -176h-119l-127 176h99l88 -98l88 98h98z" />
    <glyph glyph-name="dcaron" unicode="&#x10f;" horiz-adv-x="670" 
d="M522 0h-121v47q-67 -62 -155 -62q-102 0 -155 72.5t-53 198.5q0 133 57.5 206t161.5 73q74 0 136 -39v231h129v-727zM393 134v268q-55 36 -111 36q-110 0 -110 -180q0 -176 110 -176q61 0 111 52zM705 647q0 -104 -74 -214h-74q64 94 64 140q0 3 -11 8q-61 5 -61 69
q0 77 77 77q79 0 79 -80z" />
    <glyph glyph-name="Dcroat" unicode="&#x110;" horiz-adv-x="719" 
d="M673 363q0 -106 -24 -177t-74.5 -112t-118.5 -57.5t-166 -16.5h-220v317h-60v96h60v314h218q200 0 292.5 -82t92.5 -282zM525 364q0 133 -53.5 189.5t-192.5 56.5h-68v-197h163v-96h-163v-200h68q143 0 194.5 56t51.5 191z" />
    <glyph glyph-name="dcroat" unicode="&#x111;" horiz-adv-x="586" 
d="M522 0h-121v47q-67 -62 -155 -62q-102 0 -155 72.5t-53 198.5q0 133 57.5 206t161.5 73q74 0 136 -39v94h-152v86h152v51h129v-51h63v-86h-63v-590zM393 134v268q-55 36 -111 36q-110 0 -110 -180q0 -176 110 -176q61 0 111 52z" />
    <glyph glyph-name="Emacron" unicode="&#x112;" horiz-adv-x="596" 
d="M546 0h-476v727h476v-118h-335v-173h303v-116h-303v-202h335v-118zM466 780h-318v89h318v-89z" />
    <glyph glyph-name="emacron" unicode="&#x113;" horiz-adv-x="544" 
d="M508 216h-336q3 -60 35 -94t89 -34q63 0 113 40l65 -89q-76 -54 -187 -54q-249 0 -249 272q0 278 246 278q224 0 224 -242v-77zM384 310q0 129 -99 129q-53 0 -80.5 -31t-32.5 -98h212zM447 606h-318v89h318v-89z" />
    <glyph glyph-name="Ebreve" unicode="&#x114;" horiz-adv-x="596" 
d="M546 0h-476v727h476v-118h-335v-173h303v-116h-303v-202h335v-118zM496 918q-39 -138 -186 -138q-145 0 -184 138h91q31 -52 93 -52q55 0 82 33q7 8 13 19h91z" />
    <glyph glyph-name="ebreve" unicode="&#x115;" horiz-adv-x="544" 
d="M508 216h-336q3 -60 35 -94t89 -34q63 0 113 40l65 -89q-76 -54 -187 -54q-249 0 -249 272q0 278 246 278q224 0 224 -242v-77zM384 310q0 129 -99 129q-53 0 -80.5 -31t-32.5 -98h212zM457 747q-39 -138 -186 -138q-145 0 -184 138h91q31 -52 93 -52q55 0 82 33
q7 8 13 19h91z" />
    <glyph glyph-name="Edotaccent" unicode="&#x116;" horiz-adv-x="596" 
d="M546 0h-476v727h476v-118h-335v-173h303v-116h-303v-202h335v-118zM377 844q0 -34 -16 -49t-51 -15q-67 0 -67 64q0 33 16 48.5t51 15.5t51 -15t16 -49z" />
    <glyph glyph-name="edotaccent" unicode="&#x117;" horiz-adv-x="544" 
d="M508 216h-336q3 -60 35 -94t89 -34q63 0 113 40l65 -89q-76 -54 -187 -54q-249 0 -249 272q0 278 246 278q224 0 224 -242v-77zM384 310q0 129 -99 129q-53 0 -80.5 -31t-32.5 -98h212zM343 652q0 -34 -16 -49t-51 -15q-67 0 -67 64q0 33 16 48.5t51 15.5t51 -15t16 -49z
" />
    <glyph glyph-name="Eogonek" unicode="&#x118;" horiz-adv-x="596" 
d="M562 -156q-70 -37 -135 -37q-60 0 -92 30t-32 77q0 41 15 86h-248v727h476v-118h-335v-173h303v-116h-303v-202h335v-118h-135q-8 -26 -8 -57q0 -24 13 -39t37 -15q32 0 72 21z" />
    <glyph glyph-name="eogonek" unicode="&#x119;" horiz-adv-x="544" 
d="M495 -156q-70 -37 -135 -37q-60 0 -92 30t-32 77q0 34 11 73q-209 21 -209 270q0 278 246 278q224 0 224 -242v-77h-336q3 -60 35 -94t89 -34q63 0 113 40l65 -89q-56 -40 -133 -50q-5 -23 -5 -46q0 -24 13 -39t37 -15q32 0 72 21zM384 310q0 129 -99 129
q-53 0 -80.5 -31t-32.5 -98h212z" />
    <glyph glyph-name="Ecaron" unicode="&#x11a;" horiz-adv-x="596" 
d="M546 0h-476v727h476v-118h-335v-173h303v-116h-303v-202h335v-118zM498 956l-127 -176h-119l-127 176h99l88 -98l88 98h98z" />
    <glyph glyph-name="ecaron" unicode="&#x11b;" horiz-adv-x="544" 
d="M508 216h-336q3 -60 35 -94t89 -34q63 0 113 40l65 -89q-76 -54 -187 -54q-249 0 -249 272q0 278 246 278q224 0 224 -242v-77zM384 310q0 129 -99 129q-53 0 -80.5 -31t-32.5 -98h212zM458 766l-127 -176h-119l-127 176h99l88 -98l88 98h98z" />
    <glyph glyph-name="Gcircumflex" unicode="&#x11c;" horiz-adv-x="746" 
d="M680 594l-114 -63q-55 96 -168 96q-106 0 -155 -64.5t-49 -197.5q0 -134 49 -199.5t164 -65.5q65 0 131 27v123h-135v119h276v-312q-52 -30 -126 -51t-147 -21q-189 0 -274.5 95.5t-85.5 282.5q0 185 83.5 282t268.5 97q199 0 282 -148zM574 780h-103l-83 98l-88 -98h-98
l126 176h120z" />
    <glyph glyph-name="gcircumflex" unicode="&#x11d;" horiz-adv-x="588" 
d="M568 424h-56v-405q0 -111 -59 -161.5t-178 -50.5q-113 0 -197 42l42 93q71 -39 149 -39q60 0 87 25.5t27 80.5v36q-67 -45 -140 -45q-102 0 -153.5 73t-51.5 192q0 117 55 193.5t160 76.5q78 0 137 -52v37h178v-96zM383 139v260q-58 39 -102 39q-109 0 -109 -171
q0 -170 101 -170q55 0 110 42zM498 590h-103l-83 98l-88 -98h-98l126 176h120z" />
    <glyph glyph-name="Gbreve" unicode="&#x11e;" horiz-adv-x="746" 
d="M680 594l-114 -63q-55 96 -168 96q-106 0 -155 -64.5t-49 -197.5q0 -134 49 -199.5t164 -65.5q65 0 131 27v123h-135v119h276v-312q-52 -30 -126 -51t-147 -21q-189 0 -274.5 95.5t-85.5 282.5q0 185 83.5 282t268.5 97q199 0 282 -148zM558 918q-39 -138 -186 -138
q-145 0 -184 138h91q31 -52 93 -52q55 0 82 33q7 8 13 19h91z" />
    <glyph glyph-name="gbreve" unicode="&#x11f;" horiz-adv-x="588" 
d="M568 424h-56v-405q0 -111 -59 -161.5t-178 -50.5q-113 0 -197 42l42 93q71 -39 149 -39q60 0 87 25.5t27 80.5v36q-67 -45 -140 -45q-102 0 -153.5 73t-51.5 192q0 117 55 193.5t160 76.5q78 0 137 -52v37h178v-96zM383 139v260q-58 39 -102 39q-109 0 -109 -171
q0 -170 101 -170q55 0 110 42zM484 747q-39 -138 -186 -138q-145 0 -184 138h91q31 -52 93 -52q55 0 82 33q7 8 13 19h91z" />
    <glyph glyph-name="Gdotaccent" unicode="&#x120;" horiz-adv-x="746" 
d="M680 594l-114 -63q-55 96 -168 96q-106 0 -155 -64.5t-49 -197.5q0 -134 49 -199.5t164 -65.5q65 0 131 27v123h-135v119h276v-312q-52 -30 -126 -51t-147 -21q-189 0 -274.5 95.5t-85.5 282.5q0 185 83.5 282t268.5 97q199 0 282 -148zM438 844q0 -34 -16 -49t-51 -15
q-67 0 -67 64q0 33 16 48.5t51 15.5t51 -15t16 -49z" />
    <glyph glyph-name="gdotaccent" unicode="&#x121;" horiz-adv-x="588" 
d="M568 424h-56v-405q0 -111 -59 -161.5t-178 -50.5q-113 0 -197 42l42 93q71 -39 149 -39q60 0 87 25.5t27 80.5v36q-67 -45 -140 -45q-102 0 -153.5 73t-51.5 192q0 117 55 193.5t160 76.5q78 0 137 -52v37h178v-96zM383 139v260q-58 39 -102 39q-109 0 -109 -171
q0 -170 101 -170q55 0 110 42zM361 652q0 -34 -16 -49t-51 -15q-67 0 -67 64q0 33 16 48.5t51 15.5t51 -15t16 -49z" />
    <glyph glyph-name="Gcommaaccent" unicode="&#x122;" horiz-adv-x="746" 
d="M680 594l-114 -63q-55 96 -168 96q-106 0 -155 -64.5t-49 -197.5q0 -134 49 -199.5t164 -65.5q65 0 131 27v123h-135v119h276v-312q-52 -30 -126 -51t-147 -21q-189 0 -274.5 95.5t-85.5 282.5q0 185 83.5 282t268.5 97q199 0 282 -148zM467 -104q0 -27 -13.5 -52.5
t-28.5 -38.5h-74q22 22 24 54q-28 0 -42.5 16t-14.5 36q0 28 18.5 46.5t56.5 18.5q74 0 74 -80z" />
    <glyph glyph-name="gcommaaccent" unicode="&#x123;" horiz-adv-x="588" 
d="M568 424h-56v-405q0 -111 -59 -161.5t-178 -50.5q-113 0 -197 42l42 93q71 -39 149 -39q60 0 87 25.5t27 80.5v36q-67 -45 -140 -45q-102 0 -153.5 73t-51.5 192q0 117 55 193.5t160 76.5q78 0 137 -52v37h178v-96zM383 139v260q-58 39 -102 39q-109 0 -109 -171
q0 -170 101 -170q55 0 110 42zM227 668q0 27 13.5 52.5t28.5 38.5h74q-22 -22 -24 -54q28 0 42.5 -16t14.5 -36q0 -28 -18.5 -46.5t-56.5 -18.5q-74 0 -74 80z" />
    <glyph glyph-name="Hcircumflex" unicode="&#x124;" horiz-adv-x="706" 
d="M636 0h-141v316h-284v-316h-141v727h141v-293h284v293h141v-727zM539 780h-103l-83 98l-88 -98h-98l126 176h120z" />
    <glyph glyph-name="hcircumflex" unicode="&#x125;" horiz-adv-x="578" 
d="M518 0h-129v306q0 66 -14 91.5t-53 25.5q-51 0 -129 -65v-358h-129v727h129v-263q86 71 167 71q158 0 158 -189v-346zM437 780h-103l-83 98l-88 -98h-98l126 176h120z" />
    <glyph glyph-name="Hbar" unicode="&#x126;" horiz-adv-x="706" 
d="M636 0h-141v316h-284v-316h-141v520h-60v89h60v118h141v-118h284v118h141v-118h61v-89h-61v-520zM211 434h284v86h-284v-86z" />
    <glyph glyph-name="hbar" unicode="&#x127;" horiz-adv-x="578" 
d="M518 0h-129v306q0 66 -14 91.5t-53 25.5q-51 0 -129 -65v-358h-129v590h-64v86h64v51h129v-51h151v-86h-151v-126q86 71 167 71q158 0 158 -189v-346z" />
    <glyph glyph-name="Itilde" unicode="&#x128;" horiz-adv-x="409" 
d="M369 0h-329v109h94v509h-94v109h329v-109h-94v-509h94v-109zM398 914q-5 -69 -39 -103q-31 -31 -85 -31q-41 0 -78 22l-20 11q-12 7 -14 8q-16 7 -28 7q-16 0 -27 -11q-15 -15 -15 -37h-83q3 68 40 103q33 31 83 31q40 0 78 -21q48 -26 63 -26t27 12q16 16 16 35h82z" />
    <glyph glyph-name="itilde" unicode="&#x129;" horiz-adv-x="305" 
d="M236 0h-129v424h-82v96h211v-520zM347 745q-5 -69 -39 -103q-31 -31 -85 -31q-41 0 -78 22l-20 11q-12 7 -14 8q-16 7 -28 7q-16 0 -27 -11q-15 -15 -15 -37h-83q3 68 40 103q33 31 83 31q39 0 78 -21q48 -26 63 -26t27 12q16 16 16 35h82z" />
    <glyph glyph-name="Imacron" unicode="&#x12a;" horiz-adv-x="409" 
d="M369 0h-329v109h94v509h-94v109h329v-109h-94v-509h94v-109zM364 780h-318v89h318v-89z" />
    <glyph glyph-name="imacron" unicode="&#x12b;" horiz-adv-x="305" 
d="M236 0h-129v424h-82v96h211v-520zM312 606h-318v89h318v-89z" />
    <glyph glyph-name="Ibreve" unicode="&#x12c;" horiz-adv-x="409" 
d="M369 0h-329v109h94v509h-94v109h329v-109h-94v-509h94v-109zM390 918q-39 -138 -186 -138q-145 0 -184 138h91q31 -52 93 -52q55 0 82 33q7 8 13 19h91z" />
    <glyph glyph-name="ibreve" unicode="&#x12d;" horiz-adv-x="305" 
d="M236 0h-129v424h-82v96h211v-520zM338 747q-39 -138 -186 -138q-145 0 -184 138h91q31 -52 93 -52q55 0 82 33q7 8 13 19h91z" />
    <glyph glyph-name="Iogonek" unicode="&#x12e;" horiz-adv-x="409" 
d="M405 -156q-70 -37 -135 -37q-60 0 -92 30t-32 77q0 41 15 86h-121v109h94v509h-94v109h329v-109h-94v-509h94v-109h-115q-8 -26 -8 -57q0 -24 13 -39t37 -15q32 0 72 21z" />
    <glyph glyph-name="iogonek" unicode="&#x12f;" horiz-adv-x="305" 
d="M369 -156q-70 -37 -135 -37q-60 0 -92 30t-32 77q0 41 15 86h-18v424h-82v96h211v-520h-18q-8 -26 -8 -57q0 -24 13 -39t37 -15q32 0 72 21zM245 652q0 -68 -79 -68t-79 68q0 69 79 69q34 0 56.5 -16t22.5 -53z" />
    <glyph glyph-name="Idotaccent" unicode="&#x130;" horiz-adv-x="409" 
d="M369 0h-329v109h94v509h-94v109h329v-109h-94v-509h94v-109zM270 844q0 -34 -16 -49t-51 -15q-67 0 -67 64q0 33 16 48.5t51 15.5t51 -15t16 -49z" />
    <glyph glyph-name="dotlessi" unicode="&#x131;" horiz-adv-x="305" 
d="M236 0h-129v424h-82v96h211v-520z" />
    <glyph glyph-name="IJ" unicode="&#x132;" horiz-adv-x="870" 
d="M369 0h-329v109h94v509h-94v109h329v-109h-94v-509h94v-109zM805 204q0 -115 -56 -167t-168 -52q-89 0 -162 29l41 110q57 -24 109 -24q56 0 75.5 33t19.5 112v373h-161v109h302v-523z" />
    <glyph glyph-name="ij" unicode="&#x133;" horiz-adv-x="607" 
d="M245 652q0 -68 -79 -68t-79 68q0 69 79 69q34 0 56.5 -16t22.5 -53zM236 0h-129v424h-82v96h211v-520zM550 652q0 -68 -79 -68t-79 68q0 69 79 69q34 0 56.5 -16t22.5 -53zM541 -5q0 -95 -39.5 -141.5t-135.5 -46.5q-58 0 -116 18l32 97q36 -13 77 -13q30 0 41.5 21.5
t11.5 70.5v423h-82v96h211v-525z" />
    <glyph glyph-name="Jcircumflex" unicode="&#x134;" horiz-adv-x="461" 
d="M396 204q0 -115 -56 -167t-168 -52q-89 0 -162 29l41 110q57 -24 109 -24q56 0 75.5 33t19.5 112v373h-161v109h302v-523zM430 780h-103l-83 98l-88 -98h-98l126 176h120z" />
    <glyph glyph-name="jcircumflex" unicode="&#x135;" horiz-adv-x="302" 
d="M236 -5q0 -95 -39.5 -141.5t-135.5 -46.5q-58 0 -116 18l32 97q36 -13 77 -13q30 0 41.5 21.5t11.5 70.5v423h-82v96h211v-525zM337 590h-103l-83 98l-88 -98h-98l126 176h120z" />
    <glyph glyph-name="Kcommaaccent" unicode="&#x136;" horiz-adv-x="674" 
d="M660 0h-161l-190 351l-98 -110v-241h-141v727h141v-307l264 307h165l-235 -267zM411 -104q0 -27 -13.5 -52.5t-28.5 -38.5h-74q22 22 24 54q-28 0 -42.5 16t-14.5 36q0 28 18.5 46.5t56.5 18.5q74 0 74 -80z" />
    <glyph glyph-name="kcommaaccent" unicode="&#x137;" horiz-adv-x="527" 
d="M522 0h-147l-130 229l-52 -58v-171h-129v727h129v-401l167 194h146l-176 -195zM359 -104q0 -27 -13.5 -52.5t-28.5 -38.5h-74q22 22 24 54q-28 0 -42.5 16t-14.5 36q0 28 18.5 46.5t56.5 18.5q74 0 74 -80z" />
    <glyph glyph-name="kgreenlandic" unicode="&#x138;" horiz-adv-x="527" 
d="M522 0h-147l-130 229l-52 -58v-171h-129v520h129v-194l167 194h146l-176 -195z" />
    <glyph glyph-name="Lacute" unicode="&#x139;" horiz-adv-x="564" 
d="M537 0h-467v727h141v-609h326v-118zM418 956l-161 -176h-97l120 176h138z" />
    <glyph glyph-name="lacute" unicode="&#x13a;" horiz-adv-x="313" 
d="M313 0q-55 -15 -108 -15q-82 0 -113 41t-31 128v538l129 70v-594q0 -45 9 -62t34 -17q28 0 50 8zM351 956l-161 -176h-97l120 176h138z" />
    <glyph glyph-name="Lcommaaccent" unicode="&#x13b;" horiz-adv-x="564" 
d="M537 0h-467v727h141v-609h326v-118zM356 -104q0 -27 -13.5 -52.5t-28.5 -38.5h-74q22 22 24 54q-28 0 -42.5 16t-14.5 36q0 28 18.5 46.5t56.5 18.5q74 0 74 -80z" />
    <glyph glyph-name="lcommaaccent" unicode="&#x13c;" horiz-adv-x="313" 
d="M313 0q-55 -15 -108 -15q-82 0 -113 41t-31 128v538l129 70v-594q0 -45 9 -62t34 -17q28 0 50 8zM275 -104q0 -27 -13.5 -52.5t-28.5 -38.5h-74q22 22 24 54q-28 0 -42.5 16t-14.5 36q0 28 18.5 46.5t56.5 18.5q74 0 74 -80z" />
    <glyph glyph-name="Lcaron" unicode="&#x13d;" horiz-adv-x="564" 
d="M537 0h-467v727h141v-609h326v-118zM465 647q0 -104 -74 -214h-74q64 94 64 140q0 3 -11 8q-61 5 -61 69q0 77 77 77q79 0 79 -80z" />
    <glyph glyph-name="lcaron" unicode="&#x13e;" horiz-adv-x="370" 
d="M313 0q-55 -15 -108 -15q-82 0 -113 41t-31 128v538l129 70v-594q0 -45 9 -62t34 -17q28 0 50 8zM388 647q0 -104 -74 -214h-74q64 94 64 140q0 3 -11 8q-61 5 -61 69q0 77 77 77q79 0 79 -80z" />
    <glyph glyph-name="Ldot" unicode="&#x13f;" horiz-adv-x="564" 
d="M537 0h-467v727h141v-609h326v-118zM454 360q0 -73 -79 -73q-77 0 -77 73q0 74 77 74q79 0 79 -74z" />
    <glyph glyph-name="ldot" unicode="&#x140;" horiz-adv-x="340" 
d="M313 0q-55 -15 -108 -15q-82 0 -113 41t-31 128v538l129 70v-594q0 -45 9 -62t34 -17q28 0 50 8zM359 351q0 -34 -16 -49t-51 -15q-67 0 -67 64q0 33 16 48.5t51 15.5t51 -15t16 -49z" />
    <glyph glyph-name="Lslash" unicode="&#x141;" horiz-adv-x="564" 
d="M537 0h-467v246l-69 -54v116l69 54v365h141v-256l140 110v-117l-140 -110v-236h326v-118z" />
    <glyph glyph-name="lslash" unicode="&#x142;" horiz-adv-x="313" 
d="M313 0q-55 -15 -108 -15q-82 0 -113 41t-31 128v108l-58 -47v110l58 47v320l129 70v-287l87 70v-111l-87 -70v-196q0 -45 9 -62t34 -17q26 0 50 8z" />
    <glyph glyph-name="Nacute" unicode="&#x143;" horiz-adv-x="725" 
d="M655 0h-154l-299 533v-533h-132v727h170l283 -501v501h132v-727zM549 956l-161 -176h-97l120 176h138z" />
    <glyph glyph-name="nacute" unicode="&#x144;" horiz-adv-x="578" 
d="M518 0h-129v306q0 66 -14 91.5t-53 25.5q-51 0 -129 -65v-358h-129v520h121v-62q91 77 175 77q158 0 158 -189v-346zM453 766l-161 -176h-97l120 176h138z" />
    <glyph glyph-name="Ncommaaccent" unicode="&#x145;" horiz-adv-x="725" 
d="M655 0h-154l-299 533v-533h-132v727h170l283 -501v501h132v-727zM437 -104q0 -27 -13.5 -52.5t-28.5 -38.5h-74q22 22 24 54q-28 0 -42.5 16t-14.5 36q0 28 18.5 46.5t56.5 18.5q74 0 74 -80z" />
    <glyph glyph-name="ncommaaccent" unicode="&#x146;" horiz-adv-x="578" 
d="M518 0h-129v306q0 66 -14 91.5t-53 25.5q-51 0 -129 -65v-358h-129v520h121v-62q91 77 175 77q158 0 158 -189v-346zM363 -104q0 -27 -13.5 -52.5t-28.5 -38.5h-74q22 22 24 54q-28 0 -42.5 16t-14.5 36q0 28 18.5 46.5t56.5 18.5q74 0 74 -80z" />
    <glyph glyph-name="Ncaron" unicode="&#x147;" horiz-adv-x="725" 
d="M655 0h-154l-299 533v-533h-132v727h170l283 -501v501h132v-727zM572 956l-127 -176h-119l-127 176h99l88 -98l88 98h98z" />
    <glyph glyph-name="ncaron" unicode="&#x148;" horiz-adv-x="578" 
d="M518 0h-129v306q0 66 -14 91.5t-53 25.5q-51 0 -129 -65v-358h-129v520h121v-62q91 77 175 77q158 0 158 -189v-346zM475 766l-127 -176h-119l-127 176h99l88 -98l88 98h98z" />
    <glyph glyph-name="napostrophe" unicode="&#x149;" horiz-adv-x="686" 
d="M626 0h-129v306q0 66 -14 91.5t-53 25.5q-51 0 -129 -65v-358h-129v520h121v-62q91 77 175 77q158 0 158 -189v-346zM146 682q0 -104 -74 -214h-74q64 94 64 140q0 2 -11 8q-61 5 -61 69q0 77 77 77q79 0 79 -80z" />
    <glyph glyph-name="Eng" unicode="&#x14a;" horiz-adv-x="725" 
d="M652 -19q0 -115 -56 -167t-168 -52q-89 0 -162 29l41 110q57 -24 109 -24q57 0 80.5 34t23.5 111v442q0 94 -31 128.5t-85 34.5q-46 0 -101 -25.5t-102 -64.5v-537h-133v727h122v-92q124 107 243 107q111 0 165 -64t54 -198v-499z" />
    <glyph glyph-name="eng" unicode="&#x14b;" horiz-adv-x="578" 
d="M518 -5q0 -95 -39.5 -141.5t-135.5 -46.5q-58 0 -116 18l32 97q36 -13 77 -13q30 0 41.5 21.5t11.5 70.5v305q0 66 -14 91.5t-53 25.5q-51 0 -129 -65v-358h-129v520h121v-62q91 77 175 77q158 0 158 -189v-351z" />
    <glyph glyph-name="Omacron" unicode="&#x14c;" horiz-adv-x="769" 
d="M723 363q0 -185 -79 -281.5t-259 -96.5t-259.5 97t-79.5 281q0 186 79.5 282.5t259.5 96.5t259 -96.5t79 -282.5zM575 363q0 135 -44 199.5t-146 64.5q-103 0 -147 -64.5t-44 -199.5q0 -134 44 -198.5t147 -64.5q102 0 146 64.5t44 198.5zM543 780h-318v89h318v-89z" />
    <glyph glyph-name="omacron" unicode="&#x14d;" horiz-adv-x="579" 
d="M541 259q0 -57 -12 -103.5t-39.5 -86.5t-78 -62t-121.5 -22t-122 22t-78.5 62t-39.5 86.5t-12 103.5q0 276 252 276q71 0 121.5 -22t78 -62t39.5 -87t12 -105zM407 259q0 90 -28.5 131.5t-88.5 41.5t-89 -41.5t-29 -131.5q0 -88 29 -129.5t89 -41.5q117 0 117 171z
M450 606h-318v89h318v-89z" />
    <glyph glyph-name="Obreve" unicode="&#x14e;" horiz-adv-x="769" 
d="M723 363q0 -185 -79 -281.5t-259 -96.5t-259.5 97t-79.5 281q0 186 79.5 282.5t259.5 96.5t259 -96.5t79 -282.5zM575 363q0 135 -44 199.5t-146 64.5q-103 0 -147 -64.5t-44 -199.5q0 -134 44 -198.5t147 -64.5q102 0 146 64.5t44 198.5zM569 918q-39 -138 -186 -138
q-145 0 -184 138h91q31 -52 93 -52q55 0 82 33q7 8 13 19h91z" />
    <glyph glyph-name="obreve" unicode="&#x14f;" horiz-adv-x="579" 
d="M541 259q0 -57 -12 -103.5t-39.5 -86.5t-78 -62t-121.5 -22t-122 22t-78.5 62t-39.5 86.5t-12 103.5q0 276 252 276q71 0 121.5 -22t78 -62t39.5 -87t12 -105zM407 259q0 90 -28.5 131.5t-88.5 41.5t-89 -41.5t-29 -131.5q0 -88 29 -129.5t89 -41.5q117 0 117 171z
M474 747q-39 -138 -186 -138q-145 0 -184 138h91q31 -52 93 -52q55 0 82 33q7 8 13 19h91z" />
    <glyph glyph-name="Ohungarumlaut" unicode="&#x150;" horiz-adv-x="769" 
d="M723 363q0 -185 -79 -281.5t-259 -96.5t-259.5 97t-79.5 281q0 186 79.5 282.5t259.5 96.5t259 -96.5t79 -282.5zM575 363q0 135 -44 199.5t-146 64.5q-103 0 -147 -64.5t-44 -199.5q0 -134 44 -198.5t147 -64.5q102 0 146 64.5t44 198.5zM660 956l-141 -176h-97l99 176
h139zM473 956l-142 -176h-97l100 176h139z" />
    <glyph glyph-name="ohungarumlaut" unicode="&#x151;" horiz-adv-x="579" 
d="M541 259q0 -57 -12 -103.5t-39.5 -86.5t-78 -62t-121.5 -22t-122 22t-78.5 62t-39.5 86.5t-12 103.5q0 276 252 276q71 0 121.5 -22t78 -62t39.5 -87t12 -105zM407 259q0 90 -28.5 131.5t-88.5 41.5t-89 -41.5t-29 -131.5q0 -88 29 -129.5t89 -41.5q117 0 117 171z
M531 766l-141 -176h-97l99 176h139zM344 766l-142 -176h-97l100 176h139z" />
    <glyph glyph-name="OE" unicode="&#x152;" horiz-adv-x="967" 
d="M917 0h-407q-51 -15 -125 -15q-180 0 -259.5 97t-79.5 281q0 186 79.5 282.5t259.5 96.5q71 0 125 -15h407v-118h-311v-173h279v-116h-279v-202h311v-118zM465 113v501q-35 13 -80 13q-103 0 -147 -64.5t-44 -199.5q0 -134 44 -198.5t147 -64.5q49 0 80 13z" />
    <glyph glyph-name="oe" unicode="&#x153;" horiz-adv-x="898" 
d="M862 216h-331q2 -58 34 -93t88 -35q57 0 110 40l65 -89q-74 -54 -181 -54q-122 0 -182 77q-62 -77 -178 -77q-70 0 -120.5 22t-77.5 62t-39 86.5t-12 103.5q0 276 249 276q119 0 178 -78q59 78 177 78q220 0 220 -242v-77zM738 310q0 129 -96 129q-53 0 -80 -30.5
t-31 -98.5h207zM402 259q0 90 -27.5 131.5t-87.5 41.5q-59 0 -87 -41.5t-28 -131.5q0 -88 28 -129.5t87 -41.5t87 41.5t28 129.5z" />
    <glyph glyph-name="Racute" unicode="&#x154;" horiz-adv-x="659" 
d="M620 0h-142l-47 213q-10 44 -30 63.5t-60 19.5h-130v-296h-141v727h261q135 0 201 -42.5t66 -155.5q0 -148 -118 -181q39 -8 57.5 -35.5t30.5 -80.5zM454 512q0 53 -29.5 76.5t-94.5 23.5h-119v-203h109q71 0 102.5 23t31.5 80zM496 956l-161 -176h-97l120 176h138z" />
    <glyph glyph-name="racute" unicode="&#x155;" horiz-adv-x="402" 
d="M395 518l-19 -124q-19 6 -46 6q-68 0 -137 -65v-335h-129v520h121v-86q81 94 156 94q34 0 54 -10zM351 766l-161 -176h-97l120 176h138z" />
    <glyph glyph-name="Rcommaaccent" unicode="&#x156;" horiz-adv-x="659" 
d="M620 0h-142l-47 213q-10 44 -30 63.5t-60 19.5h-130v-296h-141v727h261q135 0 201 -42.5t66 -155.5q0 -148 -118 -181q39 -8 57.5 -35.5t30.5 -80.5zM454 512q0 53 -29.5 76.5t-94.5 23.5h-119v-203h109q71 0 102.5 23t31.5 80zM404 -104q0 -27 -13.5 -52.5t-28.5 -38.5
h-74q22 22 24 54q-28 0 -42.5 16t-14.5 36q0 28 18.5 46.5t56.5 18.5q74 0 74 -80z" />
    <glyph glyph-name="rcommaaccent" unicode="&#x157;" horiz-adv-x="402" 
d="M395 518l-19 -124q-19 6 -46 6q-68 0 -137 -65v-335h-129v520h121v-86q81 94 156 94q34 0 54 -10zM277 -104q0 -27 -13.5 -52.5t-28.5 -38.5h-74q22 22 24 54q-28 0 -42.5 16t-14.5 36q0 28 18.5 46.5t56.5 18.5q74 0 74 -80z" />
    <glyph glyph-name="Rcaron" unicode="&#x158;" horiz-adv-x="659" 
d="M620 0h-142l-47 213q-10 44 -30 63.5t-60 19.5h-130v-296h-141v727h261q135 0 201 -42.5t66 -155.5q0 -148 -118 -181q39 -8 57.5 -35.5t30.5 -80.5zM454 512q0 53 -29.5 76.5t-94.5 23.5h-119v-203h109q71 0 102.5 23t31.5 80zM504 956l-127 -176h-119l-127 176h99
l88 -98l88 98h98z" />
    <glyph glyph-name="rcaron" unicode="&#x159;" horiz-adv-x="402" 
d="M395 518l-19 -124q-19 6 -46 6q-68 0 -137 -65v-335h-129v520h121v-86q81 94 156 94q34 0 54 -10zM388 766l-127 -176h-119l-127 176h99l88 -98l88 98h98z" />
    <glyph glyph-name="Sacute" unicode="&#x15a;" horiz-adv-x="625" 
d="M596 196q0 -101 -75 -156t-205 -55q-109 0 -178 36t-117 110l115 69q63 -100 183 -100q55 0 96 23.5t41 69.5q0 48 -38 73.5t-135 46.5q-127 27 -186.5 74t-59.5 144t71 154t200 57q182 0 266 -133l-112 -68q-55 86 -154 86q-64 0 -97.5 -25.5t-33.5 -66.5
q0 -39 35.5 -59.5t118.5 -38.5q47 -10 79.5 -19.5t70.5 -28t61 -42.5t38.5 -63t15.5 -88zM483 956l-161 -176h-97l120 176h138z" />
    <glyph glyph-name="sacute" unicode="&#x15b;" horiz-adv-x="498" 
d="M465 151q0 -58 -33 -96.5t-81 -54t-108 -15.5q-158 0 -215 100l94 57q38 -60 122 -60q97 0 97 55q0 22 -20 34.5t-70 24.5q-40 10 -64.5 17.5t-54.5 22t-47 31.5t-28.5 44.5t-11.5 62.5q0 81 61 121t149 40q143 0 203 -95l-94 -56q-35 54 -111 54q-84 0 -84 -53
q0 -14 7 -23.5t26.5 -18t33.5 -12.5t49 -13q33 -9 52.5 -15t47 -19.5t42.5 -29.5t26.5 -42.5t11.5 -60.5zM419 766l-161 -176h-97l120 176h138z" />
    <glyph glyph-name="Scircumflex" unicode="&#x15c;" horiz-adv-x="625" 
d="M596 196q0 -101 -75 -156t-205 -55q-109 0 -178 36t-117 110l115 69q63 -100 183 -100q55 0 96 23.5t41 69.5q0 48 -38 73.5t-135 46.5q-127 27 -186.5 74t-59.5 144t71 154t200 57q182 0 266 -133l-112 -68q-55 86 -154 86q-64 0 -97.5 -25.5t-33.5 -66.5
q0 -39 35.5 -59.5t118.5 -38.5q47 -10 79.5 -19.5t70.5 -28t61 -42.5t38.5 -63t15.5 -88zM498 780h-103l-83 98l-88 -98h-98l126 176h120z" />
    <glyph glyph-name="scircumflex" unicode="&#x15d;" horiz-adv-x="498" 
d="M465 151q0 -58 -33 -96.5t-81 -54t-108 -15.5q-158 0 -215 100l94 57q38 -60 122 -60q97 0 97 55q0 22 -20 34.5t-70 24.5q-40 10 -64.5 17.5t-54.5 22t-47 31.5t-28.5 44.5t-11.5 62.5q0 81 61 121t149 40q143 0 203 -95l-94 -56q-35 54 -111 54q-84 0 -84 -53
q0 -14 7 -23.5t26.5 -18t33.5 -12.5t49 -13q33 -9 52.5 -15t47 -19.5t42.5 -29.5t26.5 -42.5t11.5 -60.5zM435 590h-103l-83 98l-88 -98h-98l126 176h120z" />
    <glyph glyph-name="Scedilla" unicode="&#x15e;" horiz-adv-x="625" 
d="M425 -104q0 -43 -36.5 -66t-100.5 -23q-79 0 -133 27l35 60q44 -16 95 -16q41 0 41 24q0 37 -79 40l26 45q-90 7 -149.5 42t-102.5 102l115 69q63 -100 183 -100q55 0 96 23.5t41 69.5q0 48 -38 73.5t-135 46.5q-127 27 -186.5 74t-59.5 144t71 154t200 57
q182 0 266 -133l-112 -68q-55 86 -154 86q-64 0 -97.5 -25.5t-33.5 -66.5q0 -39 35.5 -59.5t118.5 -38.5q47 -10 79.5 -19.5t70.5 -28t61 -42.5t38.5 -63t15.5 -88q0 -94 -65 -148t-180 -62l-1 -3q33 -7 54 -30.5t21 -56.5z" />
    <glyph glyph-name="scedilla" unicode="&#x15f;" horiz-adv-x="498" 
d="M351 -104q0 -43 -36.5 -66t-100.5 -23q-79 0 -133 27l35 60q44 -16 95 -16q41 0 41 24q0 37 -79 40l26 46q-124 14 -171 97l94 57q38 -60 122 -60q97 0 97 55q0 22 -20 34.5t-70 24.5q-40 10 -64.5 17.5t-54.5 22t-47 31.5t-28.5 44.5t-11.5 62.5q0 81 61 121t149 40
q143 0 203 -95l-94 -56q-35 54 -111 54q-84 0 -84 -53q0 -14 7 -23.5t26.5 -18t33.5 -12.5t49 -13q33 -9 52.5 -15t47 -19.5t42.5 -29.5t26.5 -42.5t11.5 -60.5q0 -77 -52.5 -117t-134.5 -47l-2 -4q33 -7 54 -30.5t21 -56.5z" />
    <glyph glyph-name="Scaron" unicode="&#x160;" horiz-adv-x="625" 
d="M500 956l-127 -176h-119l-127 176h99l88 -98l88 98h98zM596 196q0 -101 -75 -156t-205 -55q-109 0 -178 36t-117 110l115 69q63 -100 183 -100q55 0 96 23.5t41 69.5q0 48 -38 73.5t-135 46.5q-127 27 -186.5 74t-59.5 144t71 154t200 57q182 0 266 -133l-112 -68
q-55 86 -154 86q-64 0 -97.5 -25.5t-33.5 -66.5q0 -39 35.5 -59.5t118.5 -38.5q47 -10 79.5 -19.5t70.5 -28t61 -42.5t38.5 -63t15.5 -88z" />
    <glyph glyph-name="scaron" unicode="&#x161;" horiz-adv-x="498" 
d="M443 766l-127 -176h-119l-127 176h99l88 -98l88 98h98zM465 151q0 -58 -33 -96.5t-81 -54t-108 -15.5q-158 0 -215 100l94 57q38 -60 122 -60q97 0 97 55q0 22 -20 34.5t-70 24.5q-40 10 -64.5 17.5t-54.5 22t-47 31.5t-28.5 44.5t-11.5 62.5q0 81 61 121t149 40
q143 0 203 -95l-94 -56q-35 54 -111 54q-84 0 -84 -53q0 -14 7 -23.5t26.5 -18t33.5 -12.5t49 -13q33 -9 52.5 -15t47 -19.5t42.5 -29.5t26.5 -42.5t11.5 -60.5z" />
    <glyph glyph-name="uni0162" unicode="&#x162;" horiz-adv-x="605" 
d="M593 609h-220v-609h-141v609h-220v118h581v-118zM377 -104q0 -27 -13.5 -52.5t-28.5 -38.5h-74q22 22 24 54q-28 0 -42.5 16t-14.5 36q0 28 18.5 46.5t56.5 18.5q74 0 74 -80z" />
    <glyph glyph-name="uni0163" unicode="&#x163;" horiz-adv-x="363" 
d="M355 3q-58 -18 -114 -18q-89 0 -124 43t-35 140v256h-74v96h74v144l129 63v-207h121v-96h-121v-241q0 -56 10 -76t45 -20q28 0 58 12zM302 -104q0 -27 -13.5 -52.5t-28.5 -38.5h-74q22 22 24 54q-28 0 -42.5 16t-14.5 36q0 28 18.5 46.5t56.5 18.5q74 0 74 -80z" />
    <glyph glyph-name="Tcaron" unicode="&#x164;" horiz-adv-x="605" 
d="M593 609h-220v-609h-141v609h-220v118h581v-118zM489 956l-127 -176h-119l-127 176h99l88 -98l88 98h98z" />
    <glyph glyph-name="tcaron" unicode="&#x165;" horiz-adv-x="363" 
d="M397 648q0 -58 -43 -113h-75q32 40 32 76q-32 1 -47.5 16t-15.5 35q0 65 73 65q76 0 76 -79zM355 3q-58 -18 -114 -18q-89 0 -124 43t-35 140v256h-74v96h74v144l129 63v-207h121v-96h-121v-241q0 -56 10 -76t45 -20q28 0 58 12z" />
    <glyph glyph-name="Tbar" unicode="&#x166;" horiz-adv-x="605" 
d="M593 609h-220v-217h135v-89h-135v-303h-141v303h-135v89h135v217h-220v118h581v-118z" />
    <glyph glyph-name="tbar" unicode="&#x167;" horiz-adv-x="363" 
d="M355 3q-58 -18 -114 -18q-89 0 -124 43t-35 140v42h-74v96h74v118h-74v96h74v144l129 63v-207h121v-96h-121v-118h121v-96h-121v-27q0 -56 10 -76t45 -20q28 0 58 12z" />
    <glyph glyph-name="Utilde" unicode="&#x168;" horiz-adv-x="697" 
d="M632 286q0 -163 -63 -232t-221 -69q-157 0 -220 69t-63 232v441h141v-431q0 -110 30.5 -153t111.5 -43q83 0 113 43.5t30 150.5v433h141v-441zM543 914q-5 -69 -39 -103q-31 -31 -85 -31q-41 0 -78 22l-20 11q-12 7 -14 8q-16 7 -28 7q-16 0 -27 -11q-15 -15 -15 -37h-83
q3 68 40 103q33 31 83 31q39 0 78 -21q48 -26 63 -26t27 12q16 16 16 35h82z" />
    <glyph glyph-name="utilde" unicode="&#x169;" horiz-adv-x="578" 
d="M514 0h-121v62q-91 -77 -175 -77q-158 0 -158 190v345h129v-306q0 -66 14 -91.5t53 -25.5q51 0 129 65v358h129v-520zM483 745q-5 -69 -39 -103q-31 -31 -85 -31q-41 0 -78 22l-20 11q-12 7 -14 8q-16 7 -28 7q-16 0 -27 -11q-15 -15 -15 -37h-83q3 68 40 103
q33 31 83 31q39 0 78 -21q48 -26 63 -26t27 12q16 16 16 35h82z" />
    <glyph glyph-name="Umacron" unicode="&#x16a;" horiz-adv-x="697" 
d="M632 286q0 -163 -63 -232t-221 -69q-157 0 -220 69t-63 232v441h141v-431q0 -110 30.5 -153t111.5 -43q83 0 113 43.5t30 150.5v433h141v-441zM507 780h-318v89h318v-89z" />
    <glyph glyph-name="umacron" unicode="&#x16b;" horiz-adv-x="578" 
d="M514 0h-121v62q-91 -77 -175 -77q-158 0 -158 190v345h129v-306q0 -66 14 -91.5t53 -25.5q51 0 129 65v358h129v-520zM448 606h-318v89h318v-89z" />
    <glyph glyph-name="Ubreve" unicode="&#x16c;" horiz-adv-x="697" 
d="M632 286q0 -163 -63 -232t-221 -69q-157 0 -220 69t-63 232v441h141v-431q0 -110 30.5 -153t111.5 -43q83 0 113 43.5t30 150.5v433h141v-441zM533 918q-39 -138 -186 -138q-145 0 -184 138h91q31 -52 93 -52q55 0 82 33q7 8 13 19h91z" />
    <glyph glyph-name="ubreve" unicode="&#x16d;" horiz-adv-x="578" 
d="M514 0h-121v62q-91 -77 -175 -77q-158 0 -158 190v345h129v-306q0 -66 14 -91.5t53 -25.5q51 0 129 65v358h129v-520zM474 747q-39 -138 -186 -138q-145 0 -184 138h91q31 -52 93 -52q55 0 82 33q7 8 13 19h91z" />
    <glyph glyph-name="Uring" unicode="&#x16e;" horiz-adv-x="697" 
d="M466 790q0 -54 -31 -85.5t-93 -31.5q-63 0 -93 32t-30 85t31 84.5t92 31.5q62 0 93 -31.5t31 -84.5zM408 789q0 61 -65 61q-64 0 -64 -61t64 -61q65 0 65 61zM632 286q0 -163 -63 -232t-221 -69q-157 0 -220 69t-63 232v441h141v-431q0 -110 30.5 -153t111.5 -43
q83 0 113 43.5t30 150.5v433h141v-441z" />
    <glyph glyph-name="uring" unicode="&#x16f;" horiz-adv-x="578" 
d="M514 0h-121v62q-91 -77 -175 -77q-158 0 -158 190v345h129v-306q0 -66 14 -91.5t53 -25.5q51 0 129 65v358h129v-520zM394 672q0 -46 -26.5 -72.5t-78.5 -26.5q-53 0 -79 27t-26 72t26.5 72t78.5 27q53 0 79 -26.5t26 -72.5zM336 672q0 43 -47 43t-47 -43t47 -43t47 43z
" />
    <glyph glyph-name="Uhungarumlaut" unicode="&#x170;" horiz-adv-x="697" 
d="M632 286q0 -163 -63 -232t-221 -69q-157 0 -220 69t-63 232v441h141v-431q0 -110 30.5 -153t111.5 -43q83 0 113 43.5t30 150.5v433h141v-441zM623 956l-141 -176h-97l99 176h139zM436 956l-142 -176h-97l100 176h139z" />
    <glyph glyph-name="uhungarumlaut" unicode="&#x171;" horiz-adv-x="578" 
d="M514 0h-121v62q-91 -77 -175 -77q-158 0 -158 190v345h129v-306q0 -66 14 -91.5t53 -25.5q51 0 129 65v358h129v-520zM558 766l-141 -176h-97l99 176h139zM371 766l-142 -176h-97l100 176h139z" />
    <glyph glyph-name="Uogonek" unicode="&#x172;" horiz-adv-x="697" 
d="M565 -156q-70 -37 -135 -37q-60 0 -92 30t-32 77q0 37 11 72q-139 6 -195.5 75t-56.5 225v441h141v-431q0 -110 30.5 -153t111.5 -43q83 0 113 43.5t30 150.5v433h141v-441q0 -146 -50 -215.5t-171 -82.5q-5 -21 -5 -45t13 -39t37 -15q32 0 72 21z" />
    <glyph glyph-name="uogonek" unicode="&#x173;" horiz-adv-x="578" 
d="M636 -156q-70 -37 -135 -37q-60 0 -92 30t-32 77q0 44 16 87v61q-91 -77 -175 -77q-158 0 -158 190v345h129v-306q0 -66 14 -91.5t53 -25.5q51 0 129 65v358h129v-520h-29q-8 -26 -8 -57q0 -24 13 -39t37 -15q32 0 72 21z" />
    <glyph glyph-name="Wcircumflex" unicode="&#x174;" horiz-adv-x="917" 
d="M899 727l-167 -727h-129l-144 385l-142 -385h-134l-165 727h141l110 -519l133 358h118l135 -354l110 515h134zM644 780h-103l-83 98l-88 -98h-98l126 176h120z" />
    <glyph glyph-name="wcircumflex" unicode="&#x175;" horiz-adv-x="743" 
d="M729 520l-146 -520h-94l-117 254l-120 -254h-89l-149 520h127l86 -342l111 238h77l108 -236l85 340h121zM557 590h-103l-83 98l-88 -98h-98l126 176h120z" />
    <glyph glyph-name="Ycircumflex" unicode="&#x176;" horiz-adv-x="647" 
d="M639 727l-246 -433v-294h-141v286l-244 441h154l164 -304l169 304h144zM509 780h-103l-83 98l-88 -98h-98l126 176h120z" />
    <glyph glyph-name="ycircumflex" unicode="&#x177;" horiz-adv-x="543" 
d="M533 520l-219 -562q-32 -83 -83 -117t-126 -34q-61 0 -114 17l29 99q45 -17 85 -17q32 0 54.5 21.5t42.5 68.5l10 24l-198 500h133l128 -344l130 344h128zM457 590h-103l-83 98l-88 -98h-98l126 176h120z" />
    <glyph glyph-name="Ydieresis" unicode="&#x178;" horiz-adv-x="647" 
d="M500 843q0 -34 -16.5 -48.5t-51.5 -14.5q-67 0 -67 63q0 65 67 65q36 0 52 -15.5t16 -49.5zM281 843q0 -34 -16.5 -48.5t-51.5 -14.5q-66 0 -66 63q0 33 15.5 49t50.5 16q36 0 52 -15.5t16 -49.5zM639 727l-246 -433v-294h-141v286l-244 441h154l164 -304l169 304h144z
" />
    <glyph glyph-name="Zacute" unicode="&#x179;" horiz-adv-x="637" 
d="M593 0h-554v104l361 505h-344v118h527v-99l-366 -510h376v-118zM447 956l-161 -176h-97l120 176h138z" />
    <glyph glyph-name="zacute" unicode="&#x17a;" horiz-adv-x="502" 
d="M464 0h-423v79l254 345h-248v96h409v-77l-255 -346h263v-97zM446 766l-161 -176h-97l120 176h138z" />
    <glyph glyph-name="Zdotaccent" unicode="&#x17b;" horiz-adv-x="637" 
d="M593 0h-554v104l361 505h-344v118h527v-99l-366 -510h376v-118zM383 844q0 -34 -16 -49t-51 -15q-67 0 -67 64q0 33 16 48.5t51 15.5t51 -15t16 -49z" />
    <glyph glyph-name="zdotaccent" unicode="&#x17c;" horiz-adv-x="502" 
d="M464 0h-423v79l254 345h-248v96h409v-77l-255 -346h263v-97zM316 652q0 -34 -16 -49t-51 -15q-67 0 -67 64q0 33 16 48.5t51 15.5t51 -15t16 -49z" />
    <glyph glyph-name="Zcaron" unicode="&#x17d;" horiz-adv-x="637" 
d="M505 956l-127 -176h-119l-127 176h99l88 -98l88 98h98zM593 0h-554v104l361 505h-344v118h527v-99l-366 -510h376v-118z" />
    <glyph glyph-name="zcaron" unicode="&#x17e;" horiz-adv-x="502" 
d="M449 766l-127 -176h-119l-127 176h99l88 -98l88 98h98zM464 0h-423v79l254 345h-248v96h409v-77l-255 -346h263v-97z" />
    <glyph glyph-name="florin" unicode="&#x192;" horiz-adv-x="498" 
d="M523 723l-39 -104q-46 19 -85 19q-65 0 -82 -75l-15 -66h127l-20 -97h-127q-90 -426 -92 -427q-6 -28 -18.5 -54t-36 -53t-65 -43t-95.5 -16q-65 0 -116 19l36 101q42 -16 86 -16q40 0 58.5 21t30.5 79l83 389h-81l21 97h81l15 68q38 177 222 177q29 0 64 -7
q33 -7 48 -12z" />
    <glyph glyph-name="AEacute" unicode="&#x1fc;" horiz-adv-x="924" 
d="M874 0h-445v168h-220l-60 -168h-142l270 727h597v-118h-304v-173h272v-116h-272v-202h304v-118zM429 281v328h-58l-121 -328h179zM694 956l-161 -176h-97l120 176h138z" />
    <glyph glyph-name="aeacute" unicode="&#x1fd;" horiz-adv-x="854" 
d="M818 216h-332q2 -57 33 -92.5t87 -35.5q63 0 113 40l64 -89q-76 -54 -187 -54q-132 0 -193 88q-104 -88 -203 -88q-74 0 -118 46.5t-44 120.5q0 88 57.5 128t160.5 50l102 9v21q0 42 -25 59.5t-76 17.5q-83 0 -137 -48l-63 86q72 60 208 60q128 0 172 -65q58 65 160 65
q221 0 221 -242v-77zM370 142q-12 34 -12 78v33q-4 0 -28.5 -3t-33.5 -4q-67 -6 -97.5 -26.5t-30.5 -66.5q0 -34 20 -51t53 -17q59 0 129 57zM694 310q0 129 -98 129q-51 0 -78 -30.5t-31 -98.5h207zM687 766l-161 -176h-97l120 176h138z" />
    <glyph glyph-name="Oslashacute" unicode="&#x1fe;" horiz-adv-x="769" 
d="M560 956l-161 -176h-97l120 176h138zM732 764l-86 -121q77 -93 77 -280q0 -185 -79 -281.5t-259 -96.5q-106 0 -180 36l-55 -77h-118l96 135q-82 92 -82 284q0 186 79.5 282.5t259.5 96.5q111 0 186 -39l43 61h118zM496 598q-41 29 -111 29q-103 0 -147 -64.5t-44 -199.5
q0 -99 23 -158zM575 363q0 94 -20 151l-276 -388q41 -26 106 -26q102 0 146 64.5t44 198.5z" />
    <glyph glyph-name="oslashacute" unicode="&#x1ff;" horiz-adv-x="579" 
d="M457 766l-161 -176h-97l120 176h138zM547 557l-67 -94q61 -70 61 -204q0 -57 -12 -103.5t-39.5 -86.5t-78 -62t-121.5 -22q-79 0 -131 26l-34 -48h-87l64 91q-64 69 -64 205q0 276 252 276q78 0 134 -29l36 51h87zM357 413q-26 19 -67 19q-60 0 -89 -41.5t-29 -131.5
q0 -54 11 -92zM407 259q0 48 -10 88l-171 -242q26 -17 64 -17q117 0 117 171z" />
    <glyph glyph-name="Scommaaccent" unicode="&#x218;" horiz-adv-x="625" 
d="M596 196q0 -101 -75 -156t-205 -55q-109 0 -178 36t-117 110l115 69q63 -100 183 -100q55 0 96 23.5t41 69.5q0 48 -38 73.5t-135 46.5q-127 27 -186.5 74t-59.5 144t71 154t200 57q182 0 266 -133l-112 -68q-55 86 -154 86q-64 0 -97.5 -25.5t-33.5 -66.5
q0 -39 35.5 -59.5t118.5 -38.5q47 -10 79.5 -19.5t70.5 -28t61 -42.5t38.5 -63t15.5 -88zM386 -104q0 -27 -13.5 -52.5t-28.5 -38.5h-74q22 22 24 54q-28 0 -42.5 16t-14.5 36q0 28 18.5 46.5t56.5 18.5q74 0 74 -80z" />
    <glyph glyph-name="scommaaccent" unicode="&#x219;" horiz-adv-x="498" 
d="M465 151q0 -58 -33 -96.5t-81 -54t-108 -15.5q-158 0 -215 100l94 57q38 -60 122 -60q97 0 97 55q0 22 -20 34.5t-70 24.5q-40 10 -64.5 17.5t-54.5 22t-47 31.5t-28.5 44.5t-11.5 62.5q0 81 61 121t149 40q143 0 203 -95l-94 -56q-35 54 -111 54q-84 0 -84 -53
q0 -14 7 -23.5t26.5 -18t33.5 -12.5t49 -13q33 -9 52.5 -15t47 -19.5t42.5 -29.5t26.5 -42.5t11.5 -60.5zM323 -104q0 -27 -13.5 -52.5t-28.5 -38.5h-74q22 22 24 54q-28 0 -42.5 16t-14.5 36q0 28 18.5 46.5t56.5 18.5q74 0 74 -80z" />
    <glyph glyph-name="uni021A" unicode="&#x21a;" horiz-adv-x="605" 
d="M593 609h-220v-609h-141v609h-220v118h581v-118zM377 -104q0 -27 -13.5 -52.5t-28.5 -38.5h-74q22 22 24 54q-28 0 -42.5 16t-14.5 36q0 28 18.5 46.5t56.5 18.5q74 0 74 -80z" />
    <glyph glyph-name="uni021B" unicode="&#x21b;" horiz-adv-x="363" 
d="M355 3q-58 -18 -114 -18q-89 0 -124 43t-35 140v256h-74v96h74v144l129 63v-207h121v-96h-121v-241q0 -56 10 -76t45 -20q28 0 58 12zM302 -104q0 -27 -13.5 -52.5t-28.5 -38.5h-74q22 22 24 54q-28 0 -42.5 16t-14.5 36q0 28 18.5 46.5t56.5 18.5q74 0 74 -80z" />
    <glyph glyph-name="circumflex" unicode="&#x2c6;" horiz-adv-x="500" 
d="M436 590h-103l-83 98l-88 -98h-98l126 176h120z" />
    <glyph glyph-name="caron" unicode="&#x2c7;" horiz-adv-x="500" 
d="M436 766l-127 -176h-119l-127 176h99l88 -98l88 98h98z" />
    <glyph glyph-name="uni02C9" unicode="&#x2c9;" horiz-adv-x="500" 
d="M409 633h-318v89h318v-89z" />
    <glyph glyph-name="breve" unicode="&#x2d8;" horiz-adv-x="500" 
d="M435 747q-39 -138 -186 -138q-145 0 -184 138h91q31 -52 93 -52q55 0 82 33q7 8 13 19h91z" />
    <glyph glyph-name="dotaccent" unicode="&#x2d9;" horiz-adv-x="500" 
d="M315 652q0 -34 -16 -49t-51 -15q-67 0 -67 64q0 33 16 48.5t51 15.5t51 -15t16 -49z" />
    <glyph glyph-name="ring" unicode="&#x2da;" horiz-adv-x="500" 
d="M355 672q0 -46 -26.5 -72.5t-78.5 -26.5q-53 0 -79 27t-26 72t26.5 72t78.5 27q53 0 79 -26.5t26 -72.5zM297 672q0 43 -47 43t-47 -43t47 -43t47 43z" />
    <glyph glyph-name="ogonek" unicode="&#x2db;" horiz-adv-x="500" 
d="M404 -156q-70 -37 -135 -37q-60 0 -92 30t-32 77q0 52 28 117h93q-21 -46 -21 -88q0 -24 13 -39t37 -15q32 0 72 21z" />
    <glyph glyph-name="tilde" unicode="&#x2dc;" horiz-adv-x="500" 
d="M444 745q-5 -69 -39 -103q-31 -31 -85 -31q-41 0 -78 22l-20 11q-12 7 -14 8q-16 7 -28 7q-16 0 -27 -11q-15 -15 -15 -37h-83q3 68 40 103q33 31 83 31q40 0 78 -21q48 -26 63 -26t27 12q16 16 16 35h82z" />
    <glyph glyph-name="hungarumlaut" unicode="&#x2dd;" horiz-adv-x="500" 
d="M500 766l-141 -176h-97l99 176h139zM313 766l-142 -176h-97l100 176h139z" />
    <glyph glyph-name="uni03A9" unicode="&#x3a9;" horiz-adv-x="763" 
d="M714 0h-274v112q127 112 127 263q0 95 -48.5 155.5t-133.5 60.5q-83 0 -136 -60.5t-53 -159.5q0 -148 127 -259v-112h-275v112h161q-162 107 -162 290q0 135 94 222.5t244 87.5q159 0 245 -86.5t86 -220.5q0 -187 -166 -293h164v-112z" />
    <glyph glyph-name="uni03BC" unicode="&#x3bc;" horiz-adv-x="581" 
d="M517 0h-118l-2 54q-46 -69 -112 -69q-51 0 -92 33v-211h-129v713h129v-373q13 -19 38.5 -33.5t51.5 -14.5q62 0 106 58v363h128v-520z" />
    <glyph glyph-name="pi" unicode="&#x3c0;" horiz-adv-x="738" 
d="M672 100l23 -87q-36 -22 -100 -22q-78 0 -114 44.5t-36 116.5v248h-127v-249q0 -96 -20 -151h-141q22 66 22 162v238q-54 0 -99 -25l-38 87q62 38 169 38h478v-100h-105v-229q0 -81 52 -81q16 0 36 10z" />
    <glyph glyph-name="Wgrave" unicode="&#x1e80;" horiz-adv-x="917" 
d="M899 727l-167 -727h-129l-144 385l-142 -385h-134l-165 727h141l110 -519l133 358h118l135 -354l110 515h134zM555 780h-97l-161 176h138z" />
    <glyph glyph-name="wgrave" unicode="&#x1e81;" horiz-adv-x="743" 
d="M729 520l-146 -520h-94l-117 254l-120 -254h-89l-149 520h127l86 -342l111 238h77l108 -236l85 340h121zM490 590h-97l-161 176h138z" />
    <glyph glyph-name="Wacute" unicode="&#x1e82;" horiz-adv-x="917" 
d="M899 727l-167 -727h-129l-144 385l-142 -385h-134l-165 727h141l110 -519l133 358h118l135 -354l110 515h134zM633 956l-161 -176h-97l120 176h138z" />
    <glyph glyph-name="wacute" unicode="&#x1e83;" horiz-adv-x="743" 
d="M729 520l-146 -520h-94l-117 254l-120 -254h-89l-149 520h127l86 -342l111 238h77l108 -236l85 340h121zM540 766l-161 -176h-97l120 176h138z" />
    <glyph glyph-name="Wdieresis" unicode="&#x1e84;" horiz-adv-x="917" 
d="M899 727l-167 -727h-129l-144 385l-142 -385h-134l-165 727h141l110 -519l133 358h118l135 -354l110 515h134zM635 843q0 -34 -16.5 -48.5t-51.5 -14.5q-67 0 -67 63q0 65 67 65q36 0 52 -15.5t16 -49.5zM416 843q0 -34 -16.5 -48.5t-51.5 -14.5q-66 0 -66 63
q0 33 15.5 49t50.5 16q36 0 52 -15.5t16 -49.5z" />
    <glyph glyph-name="wdieresis" unicode="&#x1e85;" horiz-adv-x="743" 
d="M729 520l-146 -520h-94l-117 254l-120 -254h-89l-149 520h127l86 -342l111 238h77l108 -236l85 340h121zM548 651q0 -34 -16.5 -48.5t-51.5 -14.5q-67 0 -67 63q0 65 67 65q36 0 52 -15.5t16 -49.5zM329 651q0 -34 -16.5 -48.5t-51.5 -14.5q-66 0 -66 63q0 33 15.5 49
t50.5 16q36 0 52 -15.5t16 -49.5z" />
    <glyph glyph-name="Ygrave" unicode="&#x1ef2;" horiz-adv-x="647" 
d="M639 727l-246 -433v-294h-141v286l-244 441h154l164 -304l169 304h144zM429 780h-97l-161 176h138z" />
    <glyph glyph-name="ygrave" unicode="&#x1ef3;" horiz-adv-x="543" 
d="M533 520l-219 -562q-32 -83 -83 -117t-126 -34q-61 0 -114 17l29 99q45 -17 85 -17q32 0 54.5 21.5t42.5 68.5l10 24l-198 500h133l128 -344l130 344h128zM383 590h-97l-161 176h138z" />
    <glyph glyph-name="endash" unicode="&#x2013;" horiz-adv-x="500" 
d="M506 211h-512v98h512v-98z" />
    <glyph glyph-name="emdash" unicode="&#x2014;" horiz-adv-x="1000" 
d="M1006 211h-1012v98h1012v-98z" />
    <glyph glyph-name="quoteleft" unicode="&#x2018;" horiz-adv-x="266" 
d="M211 524q0 -76 -78 -76t-78 79q0 105 74 215h73q-64 -94 -64 -140q0 -2 11 -8q62 -5 62 -70z" />
    <glyph glyph-name="quoteright" unicode="&#x2019;" horiz-adv-x="266" 
d="M211 662q0 -104 -74 -214h-74q64 94 64 140q0 2 -11 8q-61 5 -61 69q0 77 77 77q79 0 79 -80z" />
    <glyph glyph-name="quotesinglbase" unicode="&#x201a;" horiz-adv-x="266" 
d="M211 56q0 -105 -74 -215h-74q64 94 64 140q0 3 -11 8q-61 5 -61 70q0 76 77 76q79 0 79 -79z" />
    <glyph glyph-name="quotedblleft" unicode="&#x201c;" horiz-adv-x="495" 
d="M440 524q0 -76 -77 -76q-79 0 -79 79q0 105 74 215h74q-64 -94 -64 -140q0 -2 11 -8q61 -5 61 -70zM211 524q0 -76 -78 -76t-78 79q0 105 74 215h73q-64 -94 -64 -140q0 -2 11 -8q62 -5 62 -70z" />
    <glyph glyph-name="quotedblright" unicode="&#x201d;" horiz-adv-x="495" 
d="M440 662q0 -104 -74 -214h-74q64 94 64 140q0 2 -11 8q-61 5 -61 69q0 77 78 77t78 -80zM211 662q0 -104 -74 -214h-74q64 94 64 140q0 2 -11 8q-61 5 -61 69q0 77 77 77q79 0 79 -80z" />
    <glyph glyph-name="quotedblbase" unicode="&#x201e;" horiz-adv-x="495" 
d="M440 56q0 -105 -74 -215h-74q64 94 64 140q0 3 -11 8q-61 5 -61 70q0 76 78 76t78 -79zM211 56q0 -105 -74 -215h-74q64 94 64 140q0 3 -11 8q-61 5 -61 70q0 76 77 76q79 0 79 -79z" />
    <glyph glyph-name="dagger" unicode="&#x2020;" horiz-adv-x="544" 
d="M514 394l-194 11l15 -598h-128l16 598l-193 -11v120l193 -12l-13 240h123l-12 -240l193 12v-120z" />
    <glyph glyph-name="daggerdbl" unicode="&#x2021;" horiz-adv-x="544" 
d="M505 23l-184 12l13 -228h-124l13 228l-184 -12v122l184 -12l-8 141l8 141l-184 -12v122l184 -12l-13 229h124l-13 -229l184 12v-122l-184 12l8 -141l-8 -141l184 12v-122z" />
    <glyph glyph-name="bullet" unicode="&#x2022;" horiz-adv-x="389" 
d="M340 365q0 -60 -43 -102.5t-103 -42.5t-102.5 42.5t-42.5 102.5t42.5 102.5t102.5 42.5t103 -42.5t43 -102.5z" />
    <glyph glyph-name="ellipsis" unicode="&#x2026;" horiz-adv-x="1000" 
d="M911 62q0 -39 -19.5 -56t-58.5 -17q-78 0 -78 73t78 73t78 -73zM578 62q0 -39 -19.5 -56t-58.5 -17q-78 0 -78 73t78 73t78 -73zM245 62q0 -39 -19.5 -56t-58.5 -17q-78 0 -78 73t78 73t78 -73z" />
    <glyph glyph-name="perthousand" unicode="&#x2030;" horiz-adv-x="1514" 
d="M1478 63q0 -118 -56 -175q-52 -54 -151 -54t-150 54q-56 59 -56 175q0 117 57 175q54 54 149 54q100 0 151 -54q56 -59 56 -175zM1005 63q0 -118 -56 -175q-53 -54 -150 -54q-100 0 -151 54q-55 58 -55 175q0 118 56 175q54 54 150 54q100 0 151 -54q55 -58 55 -175z
M775 727l-394 -878h-113l393 878h114zM449 513q0 -117 -57 -175q-52 -54 -150 -54q-100 0 -151 54q-55 58 -55 175q0 118 56 175q54 54 150 54q100 0 151 -54q56 -59 56 -175zM1355 63q0 71 -22 102q-20 28 -62 28q-40 0 -61 -29q-22 -32 -22 -102t22 -101q20 -28 61 -28
q42 0 62 28q22 31 22 102zM882 63q0 73 -21 102q-20 28 -62 28q-41 0 -62 -29q-22 -32 -22 -102t22 -101q20 -28 62 -28q41 0 61 28q22 31 22 102zM326 513q0 71 -22 102q-20 28 -62 28q-40 0 -61 -29q-22 -32 -22 -102t22 -101q20 -28 61 -28q42 0 62 28q22 31 22 102z" />
    <glyph glyph-name="guilsinglleft" unicode="&#x2039;" horiz-adv-x="353" 
d="M334 27h-137l-178 233l178 234h137l-178 -234z" />
    <glyph glyph-name="guilsinglright" unicode="&#x203a;" horiz-adv-x="353" 
d="M334 260l-178 -233h-137l178 233l-178 234h137z" />
    <glyph glyph-name="fraction" unicode="&#x2044;" horiz-adv-x="132" 
d="M321 727l-394 -878h-117l393 878h118z" />
    <glyph glyph-name="zero.superior" unicode="&#x2070;" 
d="M438 513q0 -52 -9 -91t-30 -71.5t-60.5 -49.5t-96.5 -17q-110 0 -153 60.5t-43 168.5q0 52 9 91t30 71.5t60.5 49.5t96.5 17t96.5 -17t60.5 -49.5t30 -71.5t9 -91zM318 513q0 78 -16 107t-60 29q-43 0 -59 -29.5t-16 -106.5q0 -76 16.5 -106t58.5 -30q43 0 59.5 29.5
t16.5 106.5z" />
    <glyph glyph-name="i.superior" unicode="&#x2071;" horiz-adv-x="244" 
d="M200 762q0 -57 -68 -57q-69 0 -69 57q0 58 69 58q68 0 68 -58zM193 293h-115v299h-60v86h175v-385z" />
    <glyph glyph-name="four.superior" unicode="&#x2074;" 
d="M434 375h-58v-94h-114v94h-219v90l218 277h115v-279h58v-88zM265 459v145l-113 -145h113z" />
    <glyph glyph-name="five.superior" unicode="&#x2075;" 
d="M424 442q0 -66 -50 -112t-144 -46q-115 0 -184 84l75 56q45 -48 106 -48q36 0 56 17t20 45q0 27 -23 42.5t-58 15.5q-40 0 -80 -20h-64l33 257h290v-90h-199l-7 -62q25 5 62 5q70 0 118.5 -35.5t48.5 -108.5z" />
    <glyph glyph-name="six.superior" unicode="&#x2076;" 
d="M432 444q0 -72 -49.5 -116t-135.5 -44q-96 0 -145.5 56.5t-49.5 148.5q0 53 10 95.5t33.5 79.5t66.5 57.5t103 20.5q84 0 152 -47l-54 -75q-47 32 -99 32q-39 0 -65 -21.5t-26 -64.5q39 21 95 21q67 0 115.5 -36t48.5 -107zM312 442q0 58 -67 58q-39 0 -71 -19
q-1 -8 -1 -17q2 -38 22 -61t52 -23q65 0 65 62z" />
    <glyph glyph-name="seven.superior" unicode="&#x2077;" 
d="M425 657l-174 -373h-128l172 357h-133v-60h-89v152h352v-76z" />
    <glyph glyph-name="eight.superior" unicode="&#x2078;" 
d="M430 416q0 -60 -51.5 -96t-136.5 -36q-90 0 -139 33.5t-49 93.5q0 32 22 63.5t57 51.5q-67 40 -67 100q0 53 46 84.5t130 31.5q85 0 130.5 -29.5t45.5 -86.5q0 -59 -65 -100q77 -44 77 -110zM300 612q0 19 -14 32.5t-44 13.5t-44 -13.5t-14 -31.5t13 -30.5t46 -24.5
q57 19 57 54zM311 420q0 19 -18 38t-51 31q-69 -28 -69 -70q0 -22 16.5 -36.5t52.5 -14.5t52.5 14.5t16.5 37.5z" />
    <glyph glyph-name="nine.superior" unicode="&#x2079;" 
d="M52 582q0 72 49.5 116t135.5 44q96 0 145.5 -56.5t49.5 -148.5q0 -53 -10 -95.5t-33.5 -79.5t-66.5 -57.5t-103 -20.5q-84 0 -152 47l54 75q47 -32 99 -32q39 0 65 22.5t26 65.5q-39 -21 -95 -21q-68 0 -116 35t-48 106zM172 584q0 -56 67 -56q42 0 71 17q1 8 1 19
q-1 38 -21.5 60t-52.5 22q-65 0 -65 -62z" />
    <glyph glyph-name="parenleft.superior" unicode="&#x207d;" horiz-adv-x="260" 
d="M274 166h-122q-112 124 -112 312q0 179 118 313h122q-135 -144 -135 -313q0 -159 129 -312z" />
    <glyph glyph-name="parenright.superior" unicode="&#x207e;" horiz-adv-x="260" 
d="M108 166h-122q129 153 129 312q0 169 -135 313h122q118 -134 118 -313q0 -188 -112 -312z" />
    <glyph glyph-name="n.superior" unicode="&#x207f;" horiz-adv-x="447" 
d="M403 293h-115v225q0 41 -9.5 57.5t-33.5 16.5q-38 0 -82 -41v-258h-116v385h110v-34q62 45 119 45q127 0 127 -143v-253z" />
    <glyph glyph-name="zero.inferior" unicode="&#x2080;" 
d="M438 103q0 -52 -9 -91t-30 -71.5t-60.5 -49.5t-96.5 -17q-110 0 -153 60.5t-43 168.5q0 52 9 91t30 71.5t60.5 49.5t96.5 17t96.5 -17t60.5 -49.5t30 -71.5t9 -91zM318 103q0 78 -16 107t-60 29q-43 0 -59 -29.5t-16 -106.5q0 -76 16.5 -106t58.5 -30q43 0 59.5 29.5
t16.5 106.5z" />
    <glyph glyph-name="one.inferior" unicode="&#x2081;" 
d="M403 -117h-299v93h98v202q-53 -24 -109 -32v92q99 28 144 94h81v-356h85v-93z" />
    <glyph glyph-name="two.inferior" unicode="&#x2082;" 
d="M446 -117h-393v83q41 26 147 105q57 43 69 55q35 34 35 65q0 44 -69 44q-58 0 -111 -50l-78 65q36 38 80 60t116 22q78 0 133 -32.5t55 -99.5t-62 -124q-48 -43 -125 -96h203v-97z" />
    <glyph glyph-name="three.inferior" unicode="&#x2083;" 
d="M416 30q0 -77 -52 -116.5t-137 -39.5q-111 0 -172 82l80 54q34 -45 85 -45q73 0 73 66q0 26 -20 42t-54 16q-27 0 -53 -6v46l99 105h-176v92h312v-77l-85 -94q50 -10 75 -43.5t25 -81.5z" />
    <glyph glyph-name="four.inferior" unicode="&#x2084;" 
d="M434 -35h-58v-94h-114v94h-219v90l218 277h115v-279h58v-88zM265 49v145l-113 -145h113z" />
    <glyph glyph-name="five.inferior" unicode="&#x2085;" 
d="M424 35q0 -66 -50 -112t-144 -46q-115 0 -184 84l75 56q45 -48 106 -48q36 0 56 17t20 45q0 27 -23 42.5t-58 15.5q-40 0 -80 -20h-64l33 257h290v-90h-199l-7 -62q25 5 62 5q70 0 118.5 -35.5t48.5 -108.5z" />
    <glyph glyph-name="six.inferior" unicode="&#x2086;" 
d="M432 34q0 -72 -49.5 -116t-135.5 -44q-96 0 -145.5 56.5t-49.5 148.5q0 53 10 95.5t33.5 79.5t66.5 57.5t103 20.5q84 0 152 -47l-54 -75q-47 32 -99 32q-39 0 -65 -21.5t-26 -64.5q39 21 95 21q67 0 115.5 -36t48.5 -107zM312 32q0 58 -67 58q-39 0 -71 -19
q-1 -8 -1 -17q2 -38 22 -61t52 -23q65 0 65 62z" />
    <glyph glyph-name="seven.inferior" unicode="&#x2087;" 
d="M425 250l-174 -373h-128l172 357h-133v-60h-89v152h352v-76z" />
    <glyph glyph-name="eight.inferior" unicode="&#x2088;" 
d="M430 6q0 -60 -51.5 -96t-136.5 -36q-90 0 -139 33.5t-49 93.5q0 32 22 63.5t57 51.5q-67 40 -67 100q0 53 46 84.5t130 31.5q85 0 130.5 -29.5t45.5 -86.5q0 -59 -65 -100q77 -44 77 -110zM300 202q0 19 -14 32.5t-44 13.5t-44 -13.5t-14 -31.5t13 -30.5t46 -24.5
q57 19 57 54zM311 10q0 19 -18 38t-51 31q-69 -28 -69 -70q0 -22 16.5 -36.5t52.5 -14.5t52.5 14.5t16.5 37.5z" />
    <glyph glyph-name="nine.inferior" unicode="&#x2089;" 
d="M52 172q0 72 49.5 116t135.5 44q96 0 145.5 -56.5t49.5 -148.5q0 -53 -10 -95.5t-33.5 -79.5t-66.5 -57.5t-103 -20.5q-84 0 -152 47l54 75q47 -32 99 -32q39 0 65 22.5t26 65.5q-39 -21 -95 -21q-68 0 -116 35t-48 106zM172 174q0 -56 67 -56q42 0 71 17q1 8 1 19
q-1 38 -21.5 60t-52.5 22q-65 0 -65 -62z" />
    <glyph glyph-name="parenleft.inferior" unicode="&#x208d;" horiz-adv-x="260" 
d="M274 -91h-122q-112 124 -112 312q0 179 118 313h122q-135 -144 -135 -313q0 -159 129 -312z" />
    <glyph glyph-name="parenright.inferior" unicode="&#x208e;" horiz-adv-x="260" 
d="M108 -90h-122q129 153 129 312q0 169 -135 313h122q118 -134 118 -313q0 -188 -112 -312z" />
    <glyph glyph-name="Euro" unicode="&#x20ac;" horiz-adv-x="626" 
d="M623 603l-99 -63q-50 90 -145 90q-139 0 -159 -156h261l-25 -79h-245q0 -5 -0.5 -16t-0.5 -16q0 -4 0.5 -15.5t0.5 -15.5h229l-26 -79h-194q20 -156 160 -156q82 0 153 71l76 -95q-32 -26 -57.5 -42t-74 -31t-105.5 -15q-134 0 -203 67t-88 201h-70l26 79h37v63h-63
l26 79h44q37 268 296 268q177 0 246 -139z" />
    <glyph glyph-name="litre" unicode="&#x2113;" horiz-adv-x="532" 
d="M465 48q-73 -64 -155 -64q-67 0 -107 40q-43 44 -43 133v62l-56 -54l-37 62l93 89v198q0 100 42 157t119 57q61 0 91 -38t30 -87q0 -68 -31.5 -128t-91.5 -126q-4 -4 -17 -19t-18 -20v-135q0 -96 63 -96q37 0 80 41q12 -24 38 -72zM364 586q0 47 -34 47q-46 0 -46 -93
v-129q18 22 19 23q61 79 61 152z" />
    <glyph glyph-name="trademark" unicode="&#x2122;" horiz-adv-x="785" 
d="M745 378h-86v209l-64 -126h-45l-65 122v-205h-86v349h98l75 -147l73 147h100v-349zM324 652h-110v-274h-89v274h-110v75h309v-75z" />
    <glyph glyph-name="Omega" unicode="&#x2126;" horiz-adv-x="763" 
d="M714 0h-274v112q127 112 127 263q0 95 -48.5 155.5t-133.5 60.5q-83 0 -136 -60.5t-53 -159.5q0 -148 127 -259v-112h-275v112h161q-162 107 -162 290q0 135 94 222.5t244 87.5q159 0 245 -86.5t86 -220.5q0 -187 -166 -293h164v-112z" />
    <glyph glyph-name="estimated" unicode="&#x212e;" horiz-adv-x="692" 
d="M645 304h-468v-210q70 -68 166 -68q78 0 131 36t95 103l36 -23q-50 -76 -110.5 -115t-151.5 -39q-133 0 -214.5 91.5t-81.5 225.5q0 135 81 225.5t217 90.5q137 0 217.5 -90.5t82.5 -226.5zM512 343v172q-72 69 -168 69q-101 0 -167 -68v-173h335z" />
    <glyph glyph-name="onethird" unicode="&#x2153;" horiz-adv-x="1058" 
d="M798 727l-394 -878h-117l393 878h118zM403 293h-299v93h98v202q-53 -24 -109 -32v92q99 28 144 94h81v-356h85v-93zM1001 -10q0 -77 -52 -116.5t-137 -39.5q-111 0 -172 82l80 54q34 -45 85 -45q73 0 73 66q0 26 -20 42t-54 16q-28 0 -53 -6v46l99 105h-176v92h312v-77
l-85 -94q50 -10 75 -43.5t25 -81.5z" />
    <glyph glyph-name="twothirds" unicode="&#x2154;" horiz-adv-x="1058" 
d="M798 727l-394 -878h-117l393 878h118zM1001 -10q0 -77 -52 -116.5t-137 -39.5q-111 0 -172 82l80 54q34 -45 85 -45q73 0 73 66q0 26 -20 42t-54 16q-28 0 -53 -6v46l99 105h-176v92h312v-77l-85 -94q50 -10 75 -43.5t25 -81.5zM429 293h-393v83q41 26 147 105
q57 43 69 55q35 34 35 65q0 44 -69 44q-58 0 -111 -50l-78 65q36 38 80 60t116 22q78 0 133 -32.5t55 -99.5t-62 -124q-48 -43 -125 -96h203v-97z" />
    <glyph glyph-name="oneeighth" unicode="&#x215b;" horiz-adv-x="1058" 
d="M1004 -34q0 -60 -51.5 -96t-136.5 -36q-90 0 -139 33.5t-49 93.5q0 32 22 63.5t57 51.5q-67 40 -67 100q0 53 46 84.5t130 31.5q85 0 130.5 -29.5t45.5 -86.5q0 -59 -65 -100q77 -44 77 -110zM874 162q0 19 -14 32.5t-44 13.5t-44 -13.5t-14 -31.5t13 -30.5t46 -24.5
q57 19 57 54zM885 -30q0 19 -18 38t-51 31q-69 -28 -69 -70q0 -22 16.5 -36.5t52.5 -14.5t52.5 14.5t16.5 37.5zM798 727l-394 -878h-117l393 878h118zM403 293h-299v93h98v202q-53 -24 -109 -32v92q99 28 144 94h81v-356h85v-93z" />
    <glyph glyph-name="threeeighths" unicode="&#x215c;" horiz-adv-x="1058" 
d="M1004 -34q0 -60 -51.5 -96t-136.5 -36q-90 0 -139 33.5t-49 93.5q0 32 22 63.5t57 51.5q-67 40 -67 100q0 53 46 84.5t130 31.5q85 0 130.5 -29.5t45.5 -86.5q0 -59 -65 -100q77 -44 77 -110zM874 162q0 19 -14 32.5t-44 13.5t-44 -13.5t-14 -31.5t13 -30.5t46 -24.5
q57 19 57 54zM885 -30q0 19 -18 38t-51 31q-69 -28 -69 -70q0 -22 16.5 -36.5t52.5 -14.5t52.5 14.5t16.5 37.5zM798 727l-394 -878h-117l393 878h118zM421 437q0 -77 -52 -116.5t-137 -39.5q-111 0 -172 82l80 54q34 -45 85 -45q73 0 73 66q0 26 -20 42t-54 16
q-28 0 -53 -6v46l99 105h-176v92h312v-77l-85 -94q50 -10 75 -43.5t25 -81.5z" />
    <glyph glyph-name="fiveeighths" unicode="&#x215d;" horiz-adv-x="1058" 
d="M1004 -34q0 -60 -51.5 -96t-136.5 -36q-90 0 -139 33.5t-49 93.5q0 32 22 63.5t57 51.5q-67 40 -67 100q0 53 46 84.5t130 31.5q85 0 130.5 -29.5t45.5 -86.5q0 -59 -65 -100q77 -44 77 -110zM874 162q0 19 -14 32.5t-44 13.5t-44 -13.5t-14 -31.5t13 -30.5t46 -24.5
q57 19 57 54zM885 -30q0 19 -18 38t-51 31q-69 -28 -69 -70q0 -22 16.5 -36.5t52.5 -14.5t52.5 14.5t16.5 37.5zM798 727l-394 -878h-117l393 878h118zM439 442q0 -66 -50 -112t-144 -46q-115 0 -184 84l75 56q45 -48 106 -48q36 0 56 17t20 45q0 27 -23 42.5t-58 15.5
q-40 0 -80 -20h-64l33 257h290v-90h-199l-7 -62q25 5 62 5q70 0 118.5 -35.5t48.5 -108.5z" />
    <glyph glyph-name="seveneighths" unicode="&#x215e;" horiz-adv-x="1058" 
d="M1004 -34q0 -60 -51.5 -96t-136.5 -36q-90 0 -139 33.5t-49 93.5q0 32 22 63.5t57 51.5q-67 40 -67 100q0 53 46 84.5t130 31.5q85 0 130.5 -29.5t45.5 -86.5q0 -59 -65 -100q77 -44 77 -110zM874 162q0 19 -14 32.5t-44 13.5t-44 -13.5t-14 -31.5t13 -30.5t46 -24.5
q57 19 57 54zM885 -30q0 19 -18 38t-51 31q-69 -28 -69 -70q0 -22 16.5 -36.5t52.5 -14.5t52.5 14.5t16.5 37.5zM798 727l-394 -878h-117l393 878h118zM487 657l-174 -373h-128l172 357h-133v-60h-89v152h352v-76z" />
    <glyph glyph-name="partialdiff" unicode="&#x2202;" horiz-adv-x="628" 
d="M583 459q0 -95 -26 -187q-36 -127 -113 -205.5t-185 -78.5q-95 0 -155 58t-60 148q0 72 23.5 130.5t62 94t84.5 54.5t93 19t83.5 -18.5t53.5 -46.5h2q3 24 3 51q0 70 -34.5 111t-98.5 41q-56 0 -104 -30l-29 90q60 41 156 41q115 0 179.5 -73t64.5 -199zM429 328
q-23 70 -94 70q-62 0 -107.5 -61t-45.5 -148q0 -44 22 -70.5t60 -26.5q59 0 103 68t62 168z" />
    <glyph glyph-name="Delta" unicode="&#x2206;" horiz-adv-x="674" 
d="M663 0h-653v58l235 642h186l232 -642v-58zM497 112l-146 416q-4 12 -7.5 25t-6 24t-3.5 14h-4q-1 -3 -3.5 -14t-5.5 -23t-7 -24l-148 -418h331z" />
    <glyph glyph-name="product" unicode="&#x220f;" horiz-adv-x="786" 
d="M707 -230h-140v810h-348v-810h-140v930h628v-930z" />
    <glyph glyph-name="summation" unicode="&#x2211;" horiz-adv-x="687" 
d="M652 -230h-617v74l314 396l-296 380v80h578v-112h-398l267 -345l-283 -361h435v-112z" />
    <glyph glyph-name="minus" unicode="&#x2212;" horiz-adv-x="682" 
d="M624 239h-566v107h566v-107z" />
    <glyph glyph-name="uni2215" unicode="&#x2215;" horiz-adv-x="132" 
d="M321 727l-394 -878h-117l393 878h118z" />
    <glyph glyph-name="uni2219" unicode="&#x2219;" horiz-adv-x="266" 
d="M211 292q0 -73 -79 -73q-77 0 -77 73q0 74 77 74q79 0 79 -74z" />
    <glyph glyph-name="radical" unicode="&#x221a;" horiz-adv-x="584" 
d="M565 729l-211 -741h-101l-136 308l-59 -37l-39 66l154 99l130 -300l171 605h91z" />
    <glyph glyph-name="infinity" unicode="&#x221e;" horiz-adv-x="862" 
d="M814 294q0 -82 -52 -134.5t-135 -52.5q-58 0 -109 29.5t-85 80.5h-2q-35 -49 -85.5 -79.5t-108.5 -30.5q-82 0 -136 50t-54 134q0 83 54 133.5t134 50.5q116 0 195 -110h2q32 45 81 77.5t112 32.5q83 0 136 -50.5t53 -130.5zM711 292q0 39 -24 65t-70 26q-74 0 -134 -91
q56 -93 135 -93q45 0 69 27t24 66zM379 292q-61 91 -136 91q-42 0 -67 -26t-25 -66q0 -39 26.5 -65.5t67.5 -26.5q75 0 134 93z" />
    <glyph glyph-name="integral" unicode="&#x222b;" horiz-adv-x="529" 
d="M454 636q-25 10 -49 10q-72 0 -72 -87v-590q0 -97 -48.5 -151.5t-141.5 -54.5q-60 0 -96 16l26 98q24 -10 48 -10q35 0 54 22.5t19 64.5v589q0 98 47.5 152.5t141.5 54.5q63 0 99 -18q-10 -32 -28 -96z" />
    <glyph glyph-name="approxequal" unicode="&#x2248;" horiz-adv-x="682" 
d="M624 147q-92 -70 -167 -70q-45 0 -125 35t-123 35q-53 0 -152 -65v104q95 70 171 70q43 0 122.5 -35t121.5 -35q56 0 152 65v-104zM624 377q-92 -70 -167 -70q-45 0 -125 35t-123 35q-53 0 -152 -65v104q95 70 171 70q43 0 122.5 -35t121.5 -35q56 0 152 65v-104z" />
    <glyph glyph-name="notequal" unicode="&#x2260;" horiz-adv-x="682" 
d="M624 119h-315l-55 -109h-117l55 109h-135v106h189l66 124h-255v106h309l63 127h117l-63 -127h141v-106h-196l-65 -124h261v-106z" />
    <glyph glyph-name="lessequal" unicode="&#x2264;" horiz-adv-x="682" 
d="M625 0h-567v106h567v-106zM625 162l-567 189v101l567 213v-109l-425 -155l425 -130v-109z" />
    <glyph glyph-name="greaterequal" unicode="&#x2265;" horiz-adv-x="682" 
d="M626 351l-567 -189v109l425 130l-425 155v109l567 -213v-101zM626 0h-567v106h567v-106z" />
    <glyph glyph-name="lozenge" unicode="&#x25ca;" horiz-adv-x="617" 
d="M340 700l222 -350l-222 -350h-64l-222 349l222 351h64zM308 109l152 241l-152 241l-152 -241z" />
    <glyph glyph-name="zero.fitted" unicode="&#xe097;" horiz-adv-x="622" 
d="M580 364q0 -87 -11.5 -151t-39.5 -118t-82.5 -82t-135.5 -28t-135.5 28t-82.5 82t-39.5 117.5t-11.5 150.5t11.5 151t39.5 118t82.5 82t135.5 28t135.5 -28t82.5 -82t39.5 -117.5t11.5 -150.5zM443 364q0 139 -27.5 203.5t-104.5 64.5t-104.5 -64.5t-27.5 -204.5
q0 -138 27.5 -203t104.5 -65t104.5 65t27.5 204z" />
    <glyph glyph-name="two.fitted" unicode="&#xe098;" horiz-adv-x="610" 
d="M566 0h-521v102q93 76 200 174q157 144 157 248q0 45 -28 76t-88 31q-90 0 -156 -88l-89 75q46 59 103 91.5t153 32.5q113 0 180 -51.5t67 -157.5q0 -136 -105 -237q-73 -70 -210 -184h337v-112z" />
    <glyph glyph-name="three.fitted" unicode="&#xe099;" horiz-adv-x="585" 
d="M545 231q0 -124 -73.5 -185t-202.5 -61q-70 0 -137 26t-107 82l92 76q61 -74 147 -74q145 0 145 136q0 60 -39 91t-107 31q-42 0 -79 -10v62l177 211h-293v111h452v-99l-155 -189q86 -9 133 -66.5t47 -141.5z" />
    <glyph glyph-name="four.fitted" unicode="&#xe09a;" horiz-adv-x="620" 
d="M585 160h-86v-175h-130v175h-339v117l349 465h120v-473h86v-109zM369 269v271l-205 -271h205z" />
    <glyph glyph-name="five.fitted" unicode="&#xe09b;" horiz-adv-x="590" 
d="M548 236q0 -119 -69 -185t-207 -66q-82 0 -146.5 30.5t-100.5 81.5l90 76q62 -78 152 -78q68 0 105.5 35t37.5 99t-42 96t-109 32q-66 0 -127 -29h-67l44 399h403v-111h-300l-19 -170q51 17 101 17q114 0 184 -55t70 -172z" />
    <glyph glyph-name="six.fitted" unicode="&#xe09c;" horiz-adv-x="622" 
d="M580 240q0 -121 -69.5 -188t-192.5 -67q-138 0 -207 88.5t-69 247.5q0 69 8.5 128t30 114t55 94t87.5 62t123 23q122 0 205 -66l-71 -91q-61 49 -134 49q-77 0 -118 -58t-47 -156q75 54 170 54q104 0 166.5 -59t62.5 -175zM444 236q0 127 -128 127q-65 0 -131 -33
q-6 -22 -6 -55q0 -84 38.5 -132t101.5 -48q60 0 92.5 35.5t32.5 105.5z" />
    <glyph glyph-name="seven.fitted" unicode="&#xe09d;" horiz-adv-x="565" 
d="M531 628l-278 -643h-148l287 630h-238v-99h-119v211h496v-99z" />
    <glyph glyph-name="eight.fitted" unicode="&#xe09e;" horiz-adv-x="622" 
d="M572 189q0 -101 -71.5 -152.5t-194.5 -51.5q-129 0 -197.5 51.5t-68.5 152.5q0 134 141 197q-54 27 -88 65.5t-34 104.5q0 88 64 137t183 49t183 -47.5t64 -137.5q0 -111 -123 -172q70 -36 106 -79.5t36 -116.5zM420 553q0 38 -27.5 62.5t-86.5 24.5q-61 0 -87.5 -24.5
t-26.5 -61.5q0 -30 25 -54.5t90 -54.5q58 25 85.5 50.5t27.5 57.5zM437 191q0 42 -31.5 73t-99.5 62q-131 -57 -131 -136q0 -46 31.5 -74.5t99.5 -28.5t99.5 28.5t31.5 75.5z" />
    <glyph glyph-name="nine.fitted" unicode="&#xe09f;" horiz-adv-x="622" 
d="M580 409q0 -424 -306 -424q-124 0 -217 69l68 94q72 -55 146 -55q158 0 170 216q-73 -53 -170 -53q-107 0 -168 58t-61 174q0 120 71.5 187t192.5 67q138 0 206 -86.5t68 -246.5zM444 430q0 38 -6 70.5t-20.5 64t-43.5 49.5t-69 18q-61 0 -94 -36t-33 -104
q0 -126 128 -126q70 0 136 37q2 8 2 27z" />
    <glyph glyph-name="zero.taboldstyle" unicode="&#xe100;" horiz-adv-x="622" 
d="M579 293q0 -51 -6.5 -93t-24.5 -83t-47.5 -69.5t-78 -45.5t-112.5 -17q-79 0 -134 25t-83 70.5t-39.5 96.5t-11.5 115t11.5 115t39.5 96.5t83 70.5t134 25t134.5 -25t83.5 -70.5t39.5 -96t11.5 -114.5zM442 293q0 100 -29 148t-103 48t-102.5 -48t-28.5 -149t28.5 -149
t102.5 -48q75 0 103.5 48t28.5 150z" />
    <glyph glyph-name="one.taboldstyle" unicode="&#xe101;" horiz-adv-x="622" 
d="M514 0h-377v106h133v301q-66 -36 -147 -49v105q124 38 187 128h90v-485h114v-106z" />
    <glyph glyph-name="two.taboldstyle" unicode="&#xe102;" horiz-adv-x="622" 
d="M560 0h-501v97q80 54 192 140q87 67 119 102.5t32 73.5q0 31 -27 53t-85 22q-87 0 -147 -65l-88 75q84 101 246 101q103 0 170 -43.5t67 -130.5q0 -65 -27 -106.5t-74 -79.5q-26 -21 -171 -127h294v-112z" />
    <glyph glyph-name="three.taboldstyle" unicode="&#xe103;" horiz-adv-x="622" 
d="M555 82q0 -124 -73.5 -186t-202.5 -62q-70 0 -137 26t-107 82l92 76q61 -74 147 -74q70 0 107.5 35t37.5 103q0 60 -39 92t-107 32q-42 0 -79 -10v62l177 215h-293v111h452v-99l-155 -193q86 -9 133 -67.5t47 -142.5z" />
    <glyph glyph-name="four.taboldstyle" unicode="&#xe104;" horiz-adv-x="622" 
d="M585 9h-86v-175h-130v175h-339v117l349 465h120v-473h86v-109zM369 118v271l-205 -271h205z" />
    <glyph glyph-name="five.taboldstyle" unicode="&#xe105;" horiz-adv-x="622" 
d="M568 88q0 -119 -69 -186.5t-207 -67.5q-82 0 -146.5 30.5t-100.5 81.5l90 76q62 -78 152 -78q68 0 105.5 36.5t37.5 100.5t-42.5 97t-108.5 33t-127 -29h-67l44 402h403v-111h-300l-19 -173q51 17 101 17q113 0 183.5 -56t70.5 -173z" />
    <glyph glyph-name="six.taboldstyle" unicode="&#xe106;" horiz-adv-x="622" 
d="M583 240q0 -121 -69.5 -188t-192.5 -67q-138 0 -207 88.5t-69 247.5q0 69 8.5 128t30 114t55 94t87.5 62t123 23q122 0 205 -66l-71 -91q-61 49 -134 49q-77 0 -118 -58t-47 -156q75 54 170 54q104 0 166.5 -59t62.5 -175zM447 236q0 127 -128 127q-62 0 -126 -32
q-11 -20 -11 -56q0 -84 38.5 -132t101.5 -48q60 0 92.5 35.5t32.5 105.5z" />
    <glyph glyph-name="seven.taboldstyle" unicode="&#xe107;" horiz-adv-x="622" 
d="M560 485l-282 -651h-148l291 638h-238v-99h-119v211h496v-99z" />
    <glyph glyph-name="eight.taboldstyle" unicode="&#xe108;" horiz-adv-x="622" 
d="M577 189q0 -101 -71.5 -152.5t-194.5 -51.5q-129 0 -197.5 51.5t-68.5 152.5q0 134 141 197q-54 27 -88 65.5t-34 104.5q0 88 64 137t183 49t183 -47.5t64 -137.5q0 -111 -123 -172q70 -36 106 -79.5t36 -116.5zM425 553q0 38 -27.5 62.5t-86.5 24.5q-61 0 -87.5 -24.5
t-26.5 -61.5q0 -30 25 -54.5t90 -54.5q58 25 85.5 50.5t27.5 57.5zM442 191q0 42 -31.5 73t-99.5 62q-131 -57 -131 -136q0 -46 31.5 -74.5t99.5 -28.5t99.5 28.5t31.5 75.5z" />
    <glyph glyph-name="nine.taboldstyle" unicode="&#xe109;" horiz-adv-x="622" 
d="M577 260q0 -426 -306 -426q-124 0 -217 69l68 94q72 -55 146 -55q157 0 170 218q-73 -53 -170 -53q-107 0 -168 59t-61 176q0 120 71.5 188.5t192.5 68.5q138 0 206 -89.5t68 -249.5zM433 251q7 21 7 57q0 80 -36.5 130.5t-101.5 50.5q-60 0 -93.5 -37t-33.5 -106
q0 -129 128 -129q60 0 130 34z" />
    <glyph glyph-name="zero.denominator" unicode="&#xe10a;" 
d="M438 63q0 -52 -9 -91t-30 -71.5t-60.5 -49.5t-96.5 -17q-110 0 -153 60.5t-43 168.5q0 52 9 91t30 71.5t60.5 49.5t96.5 17t96.5 -17t60.5 -49.5t30 -71.5t9 -91zM318 63q0 78 -16 107t-60 29q-43 0 -59 -29.5t-16 -106.5q0 -76 16.5 -106t58.5 -30q43 0 59.5 29.5
t16.5 106.5z" />
    <glyph glyph-name="one.denominator" unicode="&#xe10b;" 
d="M403 -154h-299v93h98v202q-53 -24 -109 -32v92q99 28 144 94h81v-356h85v-93z" />
    <glyph glyph-name="two.denominator" unicode="&#xe10c;" 
d="M446 -154h-393v83q41 26 147 105q57 43 69 55q35 34 35 65q0 44 -69 44q-58 0 -111 -50l-78 65q36 38 80 60t116 22q78 0 133 -32.5t55 -99.5t-62 -124q-48 -43 -125 -96h203v-97z" />
    <glyph glyph-name="three.denominator" unicode="&#xe10d;" 
d="M416 -10q0 -77 -52 -116.5t-137 -39.5q-111 0 -172 82l80 54q34 -45 85 -45q73 0 73 66q0 26 -20 42t-54 16q-27 0 -53 -6v46l99 105h-176v92h312v-77l-85 -94q50 -10 75 -43.5t25 -81.5z" />
    <glyph glyph-name="four.denominator" unicode="&#xe10e;" 
d="M434 -72h-58v-94h-114v94h-219v90l218 277h115v-279h58v-88zM265 12v145l-113 -145h113z" />
    <glyph glyph-name="five.denominator" unicode="&#xe10f;" 
d="M424 -8q0 -66 -50 -112t-144 -46q-115 0 -184 84l75 56q45 -48 106 -48q36 0 56 17t20 45q0 27 -23 42.5t-58 15.5q-40 0 -80 -20h-64l33 257h290v-90h-199l-7 -62q25 5 62 5q70 0 118.5 -35.5t48.5 -108.5z" />
    <glyph glyph-name="six.denominator" unicode="&#xe110;" 
d="M432 -6q0 -72 -49.5 -116t-135.5 -44q-96 0 -145.5 56.5t-49.5 148.5q0 53 10 95.5t33.5 79.5t66.5 57.5t103 20.5q84 0 152 -47l-54 -75q-47 32 -99 32q-39 0 -65 -21.5t-26 -64.5q39 21 95 21q67 0 115.5 -36t48.5 -107zM312 -8q0 58 -67 58q-39 0 -71 -19
q-1 -8 -1 -17q2 -38 22 -61t52 -23q65 0 65 62z" />
    <glyph glyph-name="seven.denominator" unicode="&#xe111;" 
d="M425 207l-174 -373h-128l172 357h-133v-60h-89v152h352v-76z" />
    <glyph glyph-name="eight.denominator" unicode="&#xe112;" 
d="M430 -34q0 -60 -51.5 -96t-136.5 -36q-90 0 -139 33.5t-49 93.5q0 32 22 63.5t57 51.5q-67 40 -67 100q0 53 46 84.5t130 31.5q85 0 130.5 -29.5t45.5 -86.5q0 -59 -65 -100q77 -44 77 -110zM300 162q0 19 -14 32.5t-44 13.5t-44 -13.5t-14 -31.5t13 -30.5t46 -24.5
q57 19 57 54zM311 -30q0 19 -18 38t-51 31q-69 -28 -69 -70q0 -22 16.5 -36.5t52.5 -14.5t52.5 14.5t16.5 37.5z" />
    <glyph glyph-name="nine.denominator" unicode="&#xe113;" 
d="M52 132q0 72 49.5 116t135.5 44q96 0 145.5 -56.5t49.5 -148.5q0 -53 -10 -95.5t-33.5 -79.5t-66.5 -57.5t-103 -20.5q-84 0 -152 47l54 75q47 -32 99 -32q39 0 65 22.5t26 65.5q-39 -21 -95 -21q-68 0 -116 35t-48 106zM172 134q0 -56 67 -56q42 0 71 17q1 8 1 19
q-1 38 -21.5 60t-52.5 22q-65 0 -65 -62z" />
    <glyph glyph-name="zero.numerator" unicode="&#xe11e;" 
d="M438 513q0 -52 -9 -91t-30 -71.5t-60.5 -49.5t-96.5 -17q-110 0 -153 60.5t-43 168.5q0 52 9 91t30 71.5t60.5 49.5t96.5 17t96.5 -17t60.5 -49.5t30 -71.5t9 -91zM318 513q0 78 -16 107t-60 29q-43 0 -59 -29.5t-16 -106.5q0 -76 16.5 -106t58.5 -30q43 0 59.5 29.5
t16.5 106.5z" />
    <glyph glyph-name="one.numerator" unicode="&#xe11f;" 
d="M403 293h-299v93h98v202q-53 -24 -109 -32v92q99 28 144 94h81v-356h85v-93z" />
    <glyph glyph-name="two.numerator" unicode="&#xe120;" 
d="M446 293h-393v83q41 26 147 105q57 43 69 55q35 34 35 65q0 44 -69 44q-58 0 -111 -50l-78 65q36 38 80 60t116 22q78 0 133 -32.5t55 -99.5t-62 -124q-48 -43 -125 -96h203v-97z" />
    <glyph glyph-name="three.numerator" unicode="&#xe121;" 
d="M416 437q0 -77 -52 -116.5t-137 -39.5q-111 0 -172 82l80 54q34 -45 85 -45q73 0 73 66q0 26 -20 42t-54 16q-27 0 -53 -6v46l99 105h-176v92h312v-77l-85 -94q50 -10 75 -43.5t25 -81.5z" />
    <glyph glyph-name="four.numerator" unicode="&#xe122;" 
d="M434 375h-58v-94h-114v94h-219v90l218 277h115v-279h58v-88zM265 459v145l-113 -145h113z" />
    <glyph glyph-name="five.numerator" unicode="&#xe123;" 
d="M424 442q0 -66 -50 -112t-144 -46q-115 0 -184 84l75 56q45 -48 106 -48q36 0 56 17t20 45q0 27 -23 42.5t-58 15.5q-40 0 -80 -20h-64l33 257h290v-90h-199l-7 -62q25 5 62 5q70 0 118.5 -35.5t48.5 -108.5z" />
    <glyph glyph-name="six.numerator" unicode="&#xe124;" 
d="M432 444q0 -72 -49.5 -116t-135.5 -44q-96 0 -145.5 56.5t-49.5 148.5q0 53 10 95.5t33.5 79.5t66.5 57.5t103 20.5q84 0 152 -47l-54 -75q-47 32 -99 32q-39 0 -65 -21.5t-26 -64.5q39 21 95 21q67 0 115.5 -36t48.5 -107zM312 442q0 58 -67 58q-39 0 -71 -19
q-1 -8 -1 -17q2 -38 22 -61t52 -23q65 0 65 62z" />
    <glyph glyph-name="seven.numerator" unicode="&#xe125;" 
d="M425 657l-174 -373h-128l172 357h-133v-60h-89v152h352v-76z" />
    <glyph glyph-name="eight.numerator" unicode="&#xe126;" 
d="M430 416q0 -60 -51.5 -96t-136.5 -36q-90 0 -139 33.5t-49 93.5q0 32 22 63.5t57 51.5q-67 40 -67 100q0 53 46 84.5t130 31.5q85 0 130.5 -29.5t45.5 -86.5q0 -59 -65 -100q77 -44 77 -110zM300 612q0 19 -14 32.5t-44 13.5t-44 -13.5t-14 -31.5t13 -30.5t46 -24.5
q57 19 57 54zM311 420q0 19 -18 38t-51 31q-69 -28 -69 -70q0 -22 16.5 -36.5t52.5 -14.5t52.5 14.5t16.5 37.5z" />
    <glyph glyph-name="nine.numerator" unicode="&#xe127;" 
d="M52 582q0 72 49.5 116t135.5 44q96 0 145.5 -56.5t49.5 -148.5q0 -53 -10 -95.5t-33.5 -79.5t-66.5 -57.5t-103 -20.5q-84 0 -152 47l54 75q47 -32 99 -32q39 0 65 22.5t26 65.5q-39 -21 -95 -21q-68 0 -116 35t-48 106zM172 584q0 -56 67 -56q42 0 71 17q1 8 1 19
q-1 38 -21.5 60t-52.5 22q-65 0 -65 -62z" />
    <glyph glyph-name="commaaccent" unicode="&#xf6c3;" horiz-adv-x="229" 
d="M189 -104q0 -27 -13.5 -52.5t-28.5 -38.5h-74q22 22 24 54q-28 0 -42.5 16t-14.5 36q0 28 18.5 46.5t56.5 18.5q74 0 74 -80z" />
    <glyph glyph-name="one.fitted" unicode="&#xf6dc;" horiz-adv-x="485" 
d="M446 0h-377v106h133v452q-66 -36 -147 -49v105q124 38 187 128h90v-636h114v-106z" />
    <glyph glyph-name="a.superior" unicode="&#xf6e9;" horiz-adv-x="427" 
d="M383 293h-109v32q-63 -43 -115 -43q-60 0 -95.5 34.5t-35.5 92.5q0 63 44.5 92.5t127.5 39.5q39 4 68 5v10q0 49 -66 49q-60 0 -107 -39l-54 70q74 53 169 53q89 0 131 -32t42 -107v-257zM268 404v67l-39 -4q-44 -5 -64.5 -17.5t-20.5 -38.5q0 -40 46 -40q28 0 78 33z
" />
    <glyph glyph-name="b.superior" unicode="&#xf6ea;" horiz-adv-x="453" 
d="M425 490q0 -94 -45.5 -150t-125.5 -56q-57 0 -104 22l-53 -16h-50v536h116v-163q46 28 98 28q82 0 123 -53.5t41 -147.5zM306 489q0 58 -16.5 86.5t-54.5 28.5q-40 0 -72 -30v-188q32 -15 71 -15q72 0 72 118z" />
    <glyph glyph-name="d.superior" unicode="&#xf6eb;" horiz-adv-x="453" 
d="M406 293h-110v23q-48 -34 -104 -34q-80 0 -122 54t-42 147q0 98 45 152t127 54q47 0 91 -21v156h115v-531zM291 400v181q-36 21 -73 21q-71 0 -71 -118q0 -115 71 -115q40 0 73 31z" />
    <glyph glyph-name="e.superior" unicode="&#xf6ec;" horiz-adv-x="422" 
d="M395 448h-247q4 -34 25 -53.5t56 -19.5q45 0 93 29l52 -74q-68 -46 -152 -46q-194 0 -194 201q0 95 46.5 150.5t145.5 55.5q175 0 175 -180v-63zM221 608q-64 0 -73 -76h136q-3 76 -63 76z" />
    <glyph glyph-name="l.superior" unicode="&#xf6ee;" horiz-adv-x="251" 
d="M226 384l27 -86q-50 -14 -91 -14q-67 0 -92 31t-25 98v385l115 59v-434q0 -47 25 -47q16 0 41 8z" />
    <glyph glyph-name="m.superior" unicode="&#xf6ef;" horiz-adv-x="654" 
d="M610 293h-115v225q0 44 -6.5 59t-28.5 15q-35 0 -74 -36v-263h-115v225q0 44 -8 59t-27 15q-33 0 -73 -36v-263h-116v385h110v-40q51 51 112 51q73 0 98 -59q62 59 126 59q65 0 91 -35.5t26 -104.5v-256z" />
    <glyph glyph-name="o.superior" unicode="&#xf6f0;" horiz-adv-x="448" 
d="M415 487q0 -203 -196 -203t-196 203q0 204 196 204t196 -204zM296 487q0 113 -77 113t-77 -113q0 -112 77 -112t77 112z" />
    <glyph glyph-name="r.superior" unicode="&#xf6f1;" horiz-adv-x="318" 
d="M313 673l-17 -105q-22 7 -42 7q-47 0 -91 -40v-242h-116v385h110v-46q52 52 105 52q26 0 51 -11z" />
    <glyph glyph-name="s.superior" unicode="&#xf6f2;" horiz-adv-x="391" 
d="M367 411q0 -64 -50.5 -95.5t-123.5 -31.5q-123 0 -175 78l74 56q15 -23 47.5 -36.5t62.5 -13.5q53 0 53 30q0 15 -13 22.5t-46 15.5q-32 8 -49.5 13t-42 16t-37 23.5t-22 33t-9.5 46.5q0 62 48 92.5t117 30.5q51 0 96 -20t69 -55l-69 -52q-38 43 -102 43q-47 0 -47 -31
q0 -6 1.5 -10t6 -7.5t8.5 -6t12 -5t14 -4t17.5 -4t18.5 -4.5q34 -8 51.5 -14t42 -19.5t36 -36t11.5 -54.5z" />
    <glyph glyph-name="t.superior" unicode="&#xf6f3;" horiz-adv-x="288" 
d="M256 386l28 -84q-57 -18 -96 -18q-71 0 -99 32.5t-28 106.5v171h-55v86h55v98l115 54v-152h89v-86h-89v-161q0 -35 5.5 -47t25.5 -12q17 0 49 12z" />
    <glyph glyph-name="h.superior" unicode="&#xf700;" horiz-adv-x="447" 
d="M403 293h-115v225q0 41 -9.5 57.5t-32.5 16.5q-38 0 -83 -41v-258h-116v531h116v-176q57 41 113 41q127 0 127 -143v-253z" />
    <glyph glyph-name="I.alt" horiz-adv-x="281" 
d="M211 0h-141v727h141v-727z" />
    <glyph glyph-name="J.alt" horiz-adv-x="336" 
d="M266 26q0 -115 -56 -167t-168 -52q-89 0 -162 29l41 110q57 -24 109 -24q56 0 75.5 33t19.5 112v660h141v-701z" />
    <glyph glyph-name="g.alt" horiz-adv-x="576" 
d="M512 527v-508q0 -111 -59 -161.5t-178 -50.5q-113 0 -197 42l42 93q71 -39 149 -39q60 0 87 25.5t27 80.5v36q-67 -45 -140 -45q-102 0 -153.5 73t-51.5 192q0 117 54.5 193.5t160.5 76.5q79 0 130 -44v36h129zM383 139v262q-44 37 -97 37q-59 0 -86.5 -47.5
t-27.5 -123.5q0 -170 101 -170q55 0 110 42z" />
    <glyph glyph-name="i.alt" horiz-adv-x="278" 
d="M218 652q0 -68 -79 -68t-79 68q0 69 79 69q34 0 56.5 -16t22.5 -53zM203 0h-129v520h129v-520z" />
    <glyph glyph-name="j.alt" horiz-adv-x="287" 
d="M234 652q0 -68 -79 -68t-79 68q0 69 79 69q34 0 56.5 -16t22.5 -53zM221 -5q0 -95 -39.5 -141.5t-135.5 -46.5q-58 0 -116 18l32 97q36 -13 77 -13q30 0 41.5 21.5t11.5 70.5v519h129v-525z" />
    <glyph glyph-name="l.alt" horiz-adv-x="279" 
d="M204 0h-129v692l129 70v-762z" />
    <glyph glyph-name="g.alt2" horiz-adv-x="562" 
d="M547 -38q0 -155 -254 -155q-44 0 -75 2t-69 9.5t-62 20.5t-40.5 38t-16.5 60q0 40 22 69t54 42q-48 26 -48 78q0 51 50 90q-50 53 -50 131q0 85 54.5 136.5t166.5 51.5q86 0 132 -33q44 33 100 33h36v-94h-30q-26 0 -44 -6q25 -42 25 -89q0 -90 -57.5 -140t-162.5 -50
q-54 0 -93 13q-10 -13 -10 -28q0 -17 21.5 -22.5t76.5 -8.5q15 0 24 -1q50 -3 85 -8t68 -15t53 -25.5t32 -40t12 -58.5zM366 347q0 88 -87 88q-89 0 -89 -91q0 -88 90 -88q86 0 86 91zM421 -39q0 29 -43.5 37.5t-179.5 16.5q-42 -19 -42 -59q0 -32 33 -42t104 -10
q128 0 128 57z" />
    <glyph glyph-name="Iacute.alt" horiz-adv-x="281" 
d="M211 0h-141v727h141v-727zM311 956l-161 -176h-97l120 176h138z" />
    <glyph glyph-name="Icircumflex.alt" horiz-adv-x="281" 
d="M211 0h-141v727h141v-727zM327 780h-103l-83 98l-88 -98h-98l126 176h120z" />
    <glyph glyph-name="Idieresis.alt" horiz-adv-x="281" 
d="M211 0h-141v727h141v-727zM319 843q0 -34 -16.5 -48.5t-51.5 -14.5q-67 0 -67 63q0 65 67 65q36 0 52 -15.5t16 -49.5zM100 843q0 -34 -16.5 -48.5t-51.5 -14.5q-66 0 -66 63q0 33 15.5 49t50.5 16q36 0 52 -15.5t16 -49.5z" />
    <glyph glyph-name="Igrave.alt" horiz-adv-x="281" 
d="M211 0h-141v727h141v-727zM230 780h-97l-161 176h138z" />
    <glyph glyph-name="dotlessi.alt" horiz-adv-x="278" 
d="M203 0h-129v520h129v-520z" />
    <glyph glyph-name="iacute.alt" horiz-adv-x="278" 
d="M203 0h-129v520h129v-520zM312 766l-161 -176h-97l120 176h138z" />
    <glyph glyph-name="icircumflex.alt" horiz-adv-x="278" 
d="M203 0h-129v520h129v-520zM330 590h-103l-83 98l-88 -98h-98l126 176h120z" />
    <glyph glyph-name="idieresis.alt" horiz-adv-x="278" 
d="M203 0h-129v520h129v-520zM316 651q0 -34 -16.5 -48.5t-51.5 -14.5q-67 0 -67 63q0 65 67 65q36 0 52 -15.5t16 -49.5zM97 651q0 -34 -16.5 -48.5t-51.5 -14.5q-66 0 -66 63q0 33 15.5 49t50.5 16q36 0 52 -15.5t16 -49.5z" />
    <glyph glyph-name="igrave.alt" horiz-adv-x="278" 
d="M203 0h-129v520h129v-520zM218 590h-97l-161 176h138z" />
    <glyph glyph-name="lslash.alt" horiz-adv-x="279" 
d="M204 0h-129v262l-64 -51v110l64 51v320l129 70v-287l73 58v-111l-73 -58v-364z" />
    <glyph glyph-name="f_l.alt" horiz-adv-x="579" 
d="M504 0h-129v620q-49 19 -86 19q-44 0 -59.5 -18t-15.5 -64v-37h107v-96h-107v-424h-129v424h-74v96h74v37q0 43 7 73t27 57t60 41t101 14q72 0 145 -26l79 39v-755z" />
    <glyph glyph-name="zero.tab" horiz-adv-x="622" 
d="M580 364q0 -87 -11.5 -151t-39.5 -118t-82.5 -82t-135.5 -28t-135.5 28t-82.5 82t-39.5 117.5t-11.5 150.5t11.5 151t39.5 118t82.5 82t135.5 28t135.5 -28t82.5 -82t39.5 -117.5t11.5 -150.5zM443 364q0 139 -27.5 203.5t-104.5 64.5t-104.5 -64.5t-27.5 -204.5
q0 -138 27.5 -203t104.5 -65t104.5 65t27.5 204z" />
    <glyph glyph-name="one.tab" horiz-adv-x="622" 
d="M525 0h-377v106h133v452q-66 -36 -147 -49v105q124 38 187 128h90v-636h114v-106z" />
    <glyph glyph-name="two.tab" horiz-adv-x="622" 
d="M566 0h-521v102q93 76 200 174q157 144 157 248q0 45 -28 76t-88 31q-90 0 -156 -88l-89 75q46 59 103 91.5t153 32.5q113 0 180 -51.5t67 -157.5q0 -136 -105 -237q-73 -70 -210 -184h337v-112z" />
    <glyph glyph-name="three.tab" horiz-adv-x="622" 
d="M546 231q0 -124 -73.5 -185t-202.5 -61q-70 0 -137 26t-107 82l92 76q61 -74 147 -74q145 0 145 136q0 60 -39 91t-107 31q-42 0 -79 -10v62l177 211h-293v111h452v-99l-155 -189q86 -9 133 -66.5t47 -141.5z" />
    <glyph glyph-name="four.tab" horiz-adv-x="622" 
d="M584 160h-86v-175h-130v175h-339v117l349 465h120v-473h86v-109zM368 269v271l-205 -271h205z" />
    <glyph glyph-name="five.tab" horiz-adv-x="622" 
d="M552 236q0 -119 -69 -185t-207 -66q-82 0 -146.5 30.5t-100.5 81.5l90 76q62 -78 152 -78q68 0 105.5 35t37.5 99t-42 96t-109 32q-66 0 -127 -29h-67l44 399h403v-111h-300l-19 -170q51 17 101 17q114 0 184 -55t70 -172z" />
    <glyph glyph-name="seven.tab" horiz-adv-x="622" 
d="M571 628l-278 -643h-148l287 630h-238v-99h-119v211h496v-99z" />
    <glyph glyph-name="six.tab" horiz-adv-x="622" 
d="M580 240q0 -121 -69.5 -188t-192.5 -67q-138 0 -207 88.5t-69 247.5q0 69 8.5 128t30 114t55 94t87.5 62t123 23q122 0 205 -66l-71 -91q-61 49 -134 49q-77 0 -118 -58t-47 -156q75 54 170 54q104 0 166.5 -59t62.5 -175zM444 236q0 127 -128 127q-62 0 -126 -32
q-11 -20 -11 -56q0 -84 38.5 -132t101.5 -48q60 0 92.5 35.5t32.5 105.5z" />
    <glyph glyph-name="eight.tab" horiz-adv-x="622" 
d="M577 189q0 -101 -71.5 -152.5t-194.5 -51.5q-129 0 -197.5 51.5t-68.5 152.5q0 134 141 197q-54 27 -88 65.5t-34 104.5q0 88 64 137t183 49t183 -47.5t64 -137.5q0 -111 -123 -172q70 -36 106 -79.5t36 -116.5zM425 553q0 38 -27.5 62.5t-86.5 24.5q-61 0 -87.5 -24.5
t-26.5 -61.5q0 -30 25 -54.5t90 -54.5q58 25 85.5 50.5t27.5 57.5zM442 191q0 42 -31.5 73t-99.5 62q-131 -57 -131 -136q0 -46 31.5 -74.5t99.5 -28.5t99.5 28.5t31.5 75.5z" />
    <glyph glyph-name="nine.tab" horiz-adv-x="622" 
d="M578 409q0 -424 -306 -424q-124 0 -217 69l68 94q72 -55 146 -55q158 0 170 216q-73 -53 -170 -53q-107 0 -168 58t-61 174q0 120 71.5 187t192.5 67q138 0 206 -86.5t68 -246.5zM442 430q0 38 -6 70.5t-20.5 64t-43.5 49.5t-69 18q-61 0 -94 -36t-33 -104
q0 -126 128 -126q70 0 136 37q2 9 2 27z" />
    <glyph glyph-name="IJ.alt" horiz-adv-x="584" 
d="M211 0h-141v727h141v-727zM589 26q0 -115 -56 -167t-168 -52q-89 0 -162 29l41 110q57 -24 109 -24q56 0 75.5 33t19.5 112v660h141v-701z" />
    <glyph glyph-name="Ibreve.alt" horiz-adv-x="281" 
d="M211 0h-141v727h141v-727zM326 918q-39 -138 -186 -138q-145 0 -184 138h91q31 -52 93 -52q55 0 82 33q7 8 13 19h91z" />
    <glyph glyph-name="Idotaccent.alt" horiz-adv-x="281" 
d="M211 0h-141v727h141v-727zM206 844q0 -34 -16 -49t-51 -15q-67 0 -67 64q0 33 16 48.5t51 15.5t51 -15t16 -49z" />
    <glyph glyph-name="Imacron.alt" horiz-adv-x="281" 
d="M211 0h-141v727h141v-727zM298 752h-318v89h318v-89z" />
    <glyph glyph-name="Iogonek.alt" horiz-adv-x="281" 
d="M334 -156q-70 -37 -135 -37q-60 0 -92 30t-32 77q0 41 15 86h-20v727h141v-727h-28q-8 -26 -8 -57q0 -24 13 -39t37 -15q32 0 72 21z" />
    <glyph glyph-name="Itilde.alt" horiz-adv-x="281" 
d="M211 0h-141v727h141v-727zM318 913q-5 -69 -39 -103q-31 -31 -85 -31q-41 0 -78 22l-20 11q-12 7 -14 8q-16 7 -28 7q-16 0 -27 -11q-15 -15 -15 -37h-83q3 68 40 103q33 31 83 31q40 0 78 -21q48 -26 63 -26t27 12q16 16 16 35h82z" />
    <glyph glyph-name="Jcircumflex.alt" horiz-adv-x="336" 
d="M266 26q0 -115 -56 -167t-168 -52q-89 0 -162 29l41 110q57 -24 109 -24q56 0 75.5 33t19.5 112v660h141v-701zM365 780h-103l-83 98l-88 -98h-98l126 176h120z" />
    <glyph glyph-name="f_f_l.alt" horiz-adv-x="885" 
d="M385 722l-28 -98q-39 15 -74 15q-38 0 -53.5 -17.5t-15.5 -64.5v-37h177v37q0 43 7 73t27 57t60 41t101 14q72 0 145 -26l79 39v-755h-129v620q-49 19 -86 19q-44 0 -59.5 -18t-15.5 -64v-37h107v-96h-107v-424h-129v424h-177v-424h-129v424h-74v96h74v37q0 87 39 136
t144 49q53 0 117 -20z" />
    <glyph glyph-name="gbreve.alt" horiz-adv-x="576" 
d="M473 728q-39 -138 -186 -138q-145 0 -184 138h91q31 -52 93 -52q55 0 82 33q7 8 13 19h91zM512 527v-508q0 -111 -59 -161.5t-178 -50.5q-113 0 -197 42l42 93q71 -39 149 -39q60 0 87 25.5t27 80.5v36q-67 -45 -140 -45q-102 0 -153.5 73t-51.5 192q0 117 54.5 193.5
t160.5 76.5q79 0 130 -44v36h129zM383 139v262q-44 37 -97 37q-59 0 -86.5 -47.5t-27.5 -123.5q0 -170 101 -170q55 0 110 42z" />
    <glyph glyph-name="gbreve.alt2" horiz-adv-x="562" 
d="M547 -38q0 -155 -254 -155q-44 0 -75 2t-69 9.5t-62 20.5t-40.5 38t-16.5 60q0 40 22 69t54 42q-48 26 -48 78q0 51 50 90q-50 53 -50 131q0 85 54.5 136.5t166.5 51.5q86 0 132 -33q44 33 100 33h36v-94h-30q-26 0 -44 -6q25 -42 25 -89q0 -90 -57.5 -140t-162.5 -50
q-54 0 -93 13q-10 -13 -10 -28q0 -17 21.5 -22.5t76.5 -8.5q15 0 24 -1q50 -3 85 -8t68 -15t53 -25.5t32 -40t12 -58.5zM366 347q0 88 -87 88q-89 0 -89 -91q0 -88 90 -88q86 0 86 91zM421 -39q0 29 -43.5 37.5t-179.5 16.5q-42 -19 -42 -59q0 -32 33 -42t104 -10
q128 0 128 57zM460 728q-39 -138 -186 -138q-145 0 -184 138h91q31 -52 93 -52q55 0 82 33q7 8 13 19h91z" />
    <glyph glyph-name="gcircumflex.alt" horiz-adv-x="576" 
d="M473 590h-103l-83 98l-88 -98h-98l126 176h120zM512 527v-508q0 -111 -59 -161.5t-178 -50.5q-113 0 -197 42l42 93q71 -39 149 -39q60 0 87 25.5t27 80.5v36q-67 -45 -140 -45q-102 0 -153.5 73t-51.5 192q0 117 54.5 193.5t160.5 76.5q79 0 130 -44v36h129zM383 139
v262q-44 37 -97 37q-59 0 -86.5 -47.5t-27.5 -123.5q0 -170 101 -170q55 0 110 42z" />
    <glyph glyph-name="gcircumflex.alt2" horiz-adv-x="562" 
d="M547 -38q0 -155 -254 -155q-44 0 -75 2t-69 9.5t-62 20.5t-40.5 38t-16.5 60q0 40 22 69t54 42q-48 26 -48 78q0 51 50 90q-50 53 -50 131q0 85 54.5 136.5t166.5 51.5q86 0 132 -33q44 33 100 33h36v-94h-30q-26 0 -44 -6q25 -42 25 -89q0 -90 -57.5 -140t-162.5 -50
q-54 0 -93 13q-10 -13 -10 -28q0 -17 21.5 -22.5t76.5 -8.5q15 0 24 -1q50 -3 85 -8t68 -15t53 -25.5t32 -40t12 -58.5zM366 347q0 88 -87 88q-89 0 -89 -91q0 -88 90 -88q86 0 86 91zM421 -39q0 29 -43.5 37.5t-179.5 16.5q-42 -19 -42 -59q0 -32 33 -42t104 -10
q128 0 128 57zM465 590h-103l-83 98l-88 -98h-98l126 176h120z" />
    <glyph glyph-name="gcommaaccent.alt" horiz-adv-x="576" 
d="M184 668q0 27 13.5 52.5t28.5 38.5h74q-22 -22 -24 -54q28 0 42.5 -16t14.5 -36q0 -28 -18.5 -46.5t-56.5 -18.5q-74 0 -74 80zM512 527v-508q0 -111 -59 -161.5t-178 -50.5q-113 0 -197 42l42 93q71 -39 149 -39q60 0 87 25.5t27 80.5v36q-67 -45 -140 -45
q-102 0 -153.5 73t-51.5 192q0 117 54.5 193.5t160.5 76.5q79 0 130 -44v36h129zM383 139v262q-44 37 -97 37q-59 0 -86.5 -47.5t-27.5 -123.5q0 -170 101 -170q55 0 110 42z" />
    <glyph glyph-name="gcommaaccent.alt2" horiz-adv-x="562" 
d="M547 -38q0 -155 -254 -155q-44 0 -75 2t-69 9.5t-62 20.5t-40.5 38t-16.5 60q0 40 22 69t54 42q-48 26 -48 78q0 51 50 90q-50 53 -50 131q0 85 54.5 136.5t166.5 51.5q86 0 132 -33q44 33 100 33h36v-94h-30q-26 0 -44 -6q25 -42 25 -89q0 -90 -57.5 -140t-162.5 -50
q-54 0 -93 13q-10 -13 -10 -28q0 -17 21.5 -22.5t76.5 -8.5q15 0 24 -1q50 -3 85 -8t68 -15t53 -25.5t32 -40t12 -58.5zM366 347q0 88 -87 88q-89 0 -89 -91q0 -88 90 -88q86 0 86 91zM421 -39q0 29 -43.5 37.5t-179.5 16.5q-42 -19 -42 -59q0 -32 33 -42t104 -10
q128 0 128 57zM203 668q0 27 13.5 52.5t28.5 38.5h74q-22 -22 -24 -54q28 0 42.5 -16t14.5 -36q0 -28 -18.5 -46.5t-56.5 -18.5q-74 0 -74 80z" />
    <glyph glyph-name="gdotaccent.alt" horiz-adv-x="576" 
d="M340 652q0 -34 -16 -49t-51 -15q-67 0 -67 64q0 33 16 48.5t51 15.5t51 -15t16 -49zM512 527v-508q0 -111 -59 -161.5t-178 -50.5q-113 0 -197 42l42 93q71 -39 149 -39q60 0 87 25.5t27 80.5v36q-67 -45 -140 -45q-102 0 -153.5 73t-51.5 192q0 117 54.5 193.5
t160.5 76.5q79 0 130 -44v36h129zM383 139v262q-44 37 -97 37q-59 0 -86.5 -47.5t-27.5 -123.5q0 -170 101 -170q55 0 110 42z" />
    <glyph glyph-name="gdotaccent.alt2" horiz-adv-x="562" 
d="M547 -38q0 -155 -254 -155q-44 0 -75 2t-69 9.5t-62 20.5t-40.5 38t-16.5 60q0 40 22 69t54 42q-48 26 -48 78q0 51 50 90q-50 53 -50 131q0 85 54.5 136.5t166.5 51.5q86 0 132 -33q44 33 100 33h36v-94h-30q-26 0 -44 -6q25 -42 25 -89q0 -90 -57.5 -140t-162.5 -50
q-54 0 -93 13q-10 -13 -10 -28q0 -17 21.5 -22.5t76.5 -8.5q15 0 24 -1q50 -3 85 -8t68 -15t53 -25.5t32 -40t12 -58.5zM366 347q0 88 -87 88q-89 0 -89 -91q0 -88 90 -88q86 0 86 91zM421 -39q0 29 -43.5 37.5t-179.5 16.5q-42 -19 -42 -59q0 -32 33 -42t104 -10
q128 0 128 57zM342 652q0 -34 -16 -49t-51 -15q-67 0 -67 64q0 33 16 48.5t51 15.5t51 -15t16 -49z" />
    <glyph glyph-name="i.dot" horiz-adv-x="305" 
d="M245 652q0 -68 -79 -68t-79 68q0 69 79 69q34 0 56.5 -16t22.5 -53zM236 0h-129v424h-82v96h211v-520z" />
    <glyph glyph-name="ibreve.alt" horiz-adv-x="278" 
d="M204 0h-129v520h129v-520zM326 728q-39 -138 -186 -138q-145 0 -184 138h91q31 -52 93 -52q55 0 82 33q7 8 13 19h91z" />
    <glyph glyph-name="ij.alt" horiz-adv-x="555" 
d="M218 652q0 -68 -79 -68t-79 68q0 69 79 69q34 0 56.5 -16t22.5 -53zM203 0h-129v520h129v-520zM502 652q0 -68 -79 -68t-79 68q0 69 79 69q34 0 56.5 -16t22.5 -53zM489 -5q0 -95 -39.5 -141.5t-135.5 -46.5q-58 0 -116 18l32 97q36 -13 77 -13q30 0 41.5 21.5t11.5 70.5
v519h129v-525z" />
    <glyph glyph-name="imacron.alt" horiz-adv-x="278" 
d="M204 0h-129v520h129v-520zM299 563h-318v89h318v-89z" />
    <glyph glyph-name="iogonek.alt" horiz-adv-x="278" 
d="M329 -156q-70 -37 -135 -37q-60 0 -92 30t-32 77q0 41 15 86h-11v520h129v-520h-25q-8 -26 -8 -57q0 -24 13 -39t37 -15q32 0 72 21zM218 652q0 -68 -79 -68t-79 68q0 69 79 69q34 0 56.5 -16t22.5 -53z" />
    <glyph glyph-name="itilde.alt" horiz-adv-x="278" 
d="M204 0h-129v520h129v-520zM333 745q-5 -69 -39 -103q-31 -31 -85 -31q-41 0 -78 22l-20 11q-12 7 -14 8q-16 7 -28 7q-16 0 -27 -11q-15 -15 -15 -37h-83q3 68 40 103q33 31 83 31q39 0 78 -21q48 -26 63 -26t27 12q16 16 16 35h82z" />
    <glyph glyph-name="jcircumflex.alt" horiz-adv-x="287" 
d="M221 -5q0 -95 -39.5 -141.5t-135.5 -46.5q-58 0 -116 18l32 97q36 -13 77 -13q30 0 41.5 21.5t11.5 70.5v519h129v-525zM342 590h-103l-83 98l-88 -98h-98l126 176h120z" />
    <glyph glyph-name="lacute.alt" horiz-adv-x="279" 
d="M204 0h-129v692l129 70v-762zM298 956l-161 -176h-97l120 176h138z" />
    <glyph glyph-name="lcaron.alt" horiz-adv-x="356" 
d="M204 0h-129v692l129 70v-762zM395 647q0 -104 -74 -214h-74q64 94 64 140q0 3 -11 8q-61 5 -61 69q0 77 77 77q79 0 79 -80z" />
    <glyph glyph-name="lcommaaccent.alt" horiz-adv-x="279" 
d="M204 0h-129v692l129 70v-762zM213 -104q0 -27 -13.5 -52.5t-28.5 -38.5h-74q22 22 24 54q-28 0 -42.5 16t-14.5 36q0 28 18.5 46.5t56.5 18.5q74 0 74 -80z" />
    <glyph glyph-name="ldot.alt" horiz-adv-x="331" 
d="M204 0h-129v692l129 70v-762zM368 351q0 -34 -16 -49t-51 -15q-67 0 -67 64q0 33 16 48.5t51 15.5t51 -15t16 -49z" />
    <glyph glyph-name="perthousand.tab" horiz-adv-x="1391" 
d="M220 339q-83 0 -131 51q-53 59 -53 153q0 97 52 152q45 47 132 47t132 -47q52 -55 52 -152q0 -94 -53 -153q-48 -51 -131 -51zM219 649q-32 0 -48 -23q-20 -26 -20 -84q0 -59 24 -89q14 -18 44 -18q31 0 45 18q24 30 24 89q0 58 -20 84q-16 23 -49 23zM751 727l-410 -742
h-128l409 742h129zM756 -15q-83 0 -131 51q-53 59 -53 153q0 97 52 152q45 47 132 47t132 -47q52 -55 52 -152q0 -94 -53 -153q-48 -51 -131 -51zM755 295q-32 0 -48 -23q-20 -26 -20 -84q0 -59 24 -89q14 -18 44 -18q31 0 45 18q24 30 24 89q0 58 -20 84q-16 23 -49 23z
M1171 -15q-83 0 -131 51q-53 59 -53 153q0 97 52 152q45 47 132 47t132 -47q52 -55 52 -152q0 -94 -53 -153q-48 -51 -131 -51zM1170 295q-32 0 -48 -23q-20 -26 -20 -84q0 -59 24 -89q14 -18 44 -18q31 0 45 18q24 30 24 89q0 58 -20 84q-16 23 -49 23z" />
    <glyph glyph-name="dollar.alt" horiz-adv-x="682" 
d="M584 208q0 -85 -56 -140t-153 -64v-134h-88v134q-76 8 -125 40t-88 89l99 75q49 -86 114 -96v201q-102 29 -151 74t-49 128t52 134.5t148 63.5v93h88v-94q126 -21 187 -118l-92 -69q-42 62 -95 82v-191q38 -11 62 -20t55 -26.5t49 -37.5t30.5 -52t12.5 -72zM287 438v168
q-38 -9 -58 -32.5t-20 -54.5q0 -28 17.5 -45.5t60.5 -35.5zM463 198q0 34 -20.5 53.5t-67.5 36.5v-179q39 3 63.5 26.5t24.5 62.5z" />
    <glyph glyph-name="percent.alt" horiz-adv-x="1004" 
d="M234 339q-83 0 -131 51q-53 59 -53 153q0 97 52 152q45 47 132 47t132 -47q52 -55 52 -152q0 -94 -53 -153q-48 -51 -131 -51zM233 649q-32 0 -48 -23q-20 -26 -20 -84q0 -59 24 -89q14 -18 44 -18q31 0 45 18q24 30 24 89q0 58 -20 84q-16 23 -49 23zM765 727l-410 -742
h-128l409 742h129zM770 -15q-83 0 -131 51q-53 59 -53 153q0 97 52 152q45 47 132 47t132 -47q52 -55 52 -152q0 -94 -53 -153q-48 -51 -131 -51zM769 295q-32 0 -48 -23q-20 -26 -20 -84q0 -59 24 -89q14 -18 44 -18q31 0 45 18q24 30 24 89q0 58 -20 84q-16 23 -49 23z
" />
    <glyph glyph-name="perthousand.alt" horiz-adv-x="1391" 
d="M220 339q-83 0 -131 51q-53 59 -53 153q0 97 52 152q45 47 132 47t132 -47q52 -55 52 -152q0 -94 -53 -153q-48 -51 -131 -51zM219 649q-32 0 -48 -23q-20 -26 -20 -84q0 -59 24 -89q14 -18 44 -18q31 0 45 18q24 30 24 89q0 58 -20 84q-16 23 -49 23zM751 727l-410 -742
h-128l409 742h129zM756 -15q-83 0 -131 51q-53 59 -53 153q0 97 52 152q45 47 132 47t132 -47q52 -55 52 -152q0 -94 -53 -153q-48 -51 -131 -51zM755 295q-32 0 -48 -23q-20 -26 -20 -84q0 -59 24 -89q14 -18 44 -18q31 0 45 18q24 30 24 89q0 58 -20 84q-16 23 -49 23z
M1171 -15q-83 0 -131 51q-53 59 -53 153q0 97 52 152q45 47 132 47t132 -47q52 -55 52 -152q0 -94 -53 -153q-48 -51 -131 -51zM1170 295q-32 0 -48 -23q-20 -26 -20 -84q0 -59 24 -89q14 -18 44 -18q31 0 45 18q24 30 24 89q0 58 -20 84q-16 23 -49 23z" />
    <glyph glyph-name="onequarter.alt" horiz-adv-x="1058" 
d="M768 730l-410 -742h-128l409 742h129zM366 346h-269v88h82v162q-50 -22 -92 -28v91q91 27 130 83h78v-308h71v-88zM939 69h-47v-83h-108v83h-197v88l197 232h108v-238h47v-82zM785 150v115l-98 -115h98z" />
    <glyph glyph-name="onehalf.alt" horiz-adv-x="1058" 
d="M728 730l-410 -742h-128l409 742h129zM326 346h-269v88h82v162q-50 -22 -92 -28v91q91 27 130 83h78v-308h71v-88zM966 0h-350v82q36 25 117 76q94 60 94 105q0 38 -54 38q-47 0 -94 -44l-72 62q68 77 181 77q70 0 117 -29t47 -91q0 -52 -57 -109q-13 -13 -91 -70h162
v-97z" />
    <glyph glyph-name="threequarters.alt" horiz-adv-x="1058" 
d="M808 730l-410 -742h-128l409 742h129zM979 69h-47v-83h-108v83h-197v88l197 232h108v-238h47v-82zM825 150v115l-98 -115h98zM393 478q0 -68 -49 -103.5t-125 -35.5q-97 0 -153 80l79 50q28 -39 68 -39q58 0 58 49q0 20 -15.5 32t-43.5 12q-24 0 -49 -5v46l84 80h-151v89
h281v-70l-71 -72q42 -12 64.5 -42t22.5 -71z" />
    <glyph glyph-name="onethird.alt" horiz-adv-x="1058" 
d="M808 730l-410 -742h-128l409 742h129zM406 346h-269v88h82v162q-50 -22 -92 -28v91q91 27 130 83h78v-308h71v-88zM1006 124q0 -68 -49 -103.5t-125 -35.5q-97 0 -153 80l79 50q28 -39 68 -39q58 0 58 49q0 20 -15.5 32t-43.5 12q-24 0 -49 -5v46l84 80h-151v89h281v-70
l-71 -72q42 -12 64.5 -42t22.5 -71z" />
    <glyph glyph-name="twothirds.alt" horiz-adv-x="1058" 
d="M808 730l-410 -742h-128l409 742h129zM1006 124q0 -68 -49 -103.5t-125 -35.5q-97 0 -153 80l79 50q28 -39 68 -39q58 0 58 49q0 20 -15.5 32t-43.5 12q-24 0 -49 -5v46l84 80h-151v89h281v-70l-71 -72q42 -12 64.5 -42t22.5 -71zM391 346h-350v82q36 25 117 76
q94 60 94 105q0 38 -54 38q-47 0 -94 -44l-72 62q68 77 181 77q70 0 117 -29t47 -91q0 -52 -57 -109q-13 -13 -91 -70h162v-97z" />
    <glyph glyph-name="oneeighth.alt" horiz-adv-x="1058" 
d="M808 730l-410 -742h-128l409 742h129zM406 346h-269v88h82v162q-50 -22 -92 -28v91q91 27 130 83h78v-308h71v-88zM992 104q0 -59 -45.5 -89t-123.5 -30q-168 0 -168 119q0 64 66 94q-55 37 -55 84q0 48 41 77t116 29t116.5 -28t41.5 -77q0 -22 -9.5 -39.5t-19 -25.5
t-26.5 -20q66 -27 66 -94zM867 280q0 11 -11 21t-34 10q-22 0 -32 -9.5t-10 -20.5q0 -31 45 -48q42 14 42 47zM878 102q0 36 -55 58q-28 -11 -41 -24.5t-13 -34.5q0 -16 13.5 -29.5t40.5 -13.5q28 0 41.5 13.5t13.5 30.5z" />
    <glyph glyph-name="threeeighths.alt" horiz-adv-x="1058" 
d="M808 730l-410 -742h-128l409 742h129zM992 104q0 -59 -45.5 -89t-123.5 -30q-168 0 -168 119q0 64 66 94q-55 37 -55 84q0 48 41 77t116 29t116.5 -28t41.5 -77q0 -22 -9.5 -39.5t-19 -25.5t-26.5 -20q66 -27 66 -94zM867 280q0 11 -11 21t-34 10q-22 0 -32 -9.5
t-10 -20.5q0 -31 45 -48q42 14 42 47zM878 102q0 36 -55 58q-28 -11 -41 -24.5t-13 -34.5q0 -16 13.5 -29.5t40.5 -13.5q28 0 41.5 13.5t13.5 30.5zM405 478q0 -68 -49 -103.5t-125 -35.5q-97 0 -153 80l79 50q28 -39 68 -39q58 0 58 49q0 20 -15.5 32t-43.5 12
q-24 0 -49 -5v46l84 80h-151v89h281v-70l-71 -72q42 -12 64.5 -42t22.5 -71z" />
    <glyph glyph-name="fiveeighths.alt" horiz-adv-x="1058" 
d="M808 730l-410 -742h-128l409 742h129zM992 104q0 -59 -45.5 -89t-123.5 -30q-168 0 -168 119q0 64 66 94q-55 37 -55 84q0 48 41 77t116 29t116.5 -28t41.5 -77q0 -22 -9.5 -39.5t-19 -25.5t-26.5 -20q66 -27 66 -94zM867 280q0 11 -11 21t-34 10q-22 0 -32 -9.5
t-10 -20.5q0 -31 45 -48q42 14 42 47zM878 102q0 36 -55 58q-28 -11 -41 -24.5t-13 -34.5q0 -16 13.5 -29.5t40.5 -13.5q28 0 41.5 13.5t13.5 30.5zM422 480q0 -63 -44 -102t-130 -39q-102 0 -167 79l74 54q44 -50 89 -50q31 0 45.5 15t14.5 38t-19 36.5t-50 13.5
q-39 0 -69 -16h-57l30 226h263v-90h-177l-7 -48q21 4 49 4q64 0 109.5 -29.5t45.5 -91.5z" />
    <glyph glyph-name="seveneighths.alt" horiz-adv-x="1058" 
d="M808 730l-410 -742h-128l409 742h129zM992 104q0 -59 -45.5 -89t-123.5 -30q-168 0 -168 119q0 64 66 94q-55 37 -55 84q0 48 41 77t116 29t116.5 -28t41.5 -77q0 -22 -9.5 -39.5t-19 -25.5t-26.5 -20q66 -27 66 -94zM867 280q0 11 -11 21t-34 10q-22 0 -32 -9.5
t-10 -20.5q0 -31 45 -48q42 14 42 47zM878 102q0 36 -55 58q-28 -11 -41 -24.5t-13 -34.5q0 -16 13.5 -29.5t40.5 -13.5q28 0 41.5 13.5t13.5 30.5zM451 661l-148 -322h-122l148 306h-108v-49h-86v139h316v-74z" />
    <glyph glyph-name="plus.alt" horiz-adv-x="682" 
d="M624 314h-230v-230h-106v230h-230v107h230v230h106v-230h230v-107z" />
    <glyph glyph-name="minus.alt" horiz-adv-x="682" 
d="M624 314h-566v107h566v-107z" />
    <glyph glyph-name="multiply.alt" horiz-adv-x="682" 
d="M615 169l-75 -75l-199 199l-199 -199l-75 75l199 198l-199 199l75 75l199 -198l199 197l75 -75l-198 -198z" />
    <glyph glyph-name="less.alt" horiz-adv-x="682" 
d="M625 89l-567 228v101l567 227v-109l-425 -169l425 -169v-109z" />
    <glyph glyph-name="greater.alt" horiz-adv-x="682" 
d="M625 317l-567 -228v109l425 169l-425 169v109l567 -227v-101z" />
    <glyph glyph-name="logicalnot.alt" horiz-adv-x="682" 
d="M625 196h-106v227h-461v107h567v-334z" />
    <glyph glyph-name="equal.alt" horiz-adv-x="682" 
d="M625 423h-567v106h567v-106zM625 195h-567v106h567v-106z" />
    <glyph glyph-name="divide.alt" horiz-adv-x="682" 
d="M408 591q0 -34 -16.5 -49t-51.5 -15q-66 0 -66 64q0 66 66 66q36 0 52 -16t16 -50zM625 314h-567v107h567v-107zM408 142q0 -34 -16.5 -49t-51.5 -15q-66 0 -66 64q0 66 66 66q36 0 52 -16t16 -50z" />
    <glyph glyph-name="plusminus.alt" horiz-adv-x="682" 
d="M625 424h-231v-187h-106v187h-230v106h230v210h106v-210h231v-106zM625 75h-567v106h567v-106z" />
    <glyph glyph-name="periodcentered.alt" horiz-adv-x="266" 
d="M211 367q0 -73 -79 -73q-77 0 -77 73q0 74 77 74q79 0 79 -74z" />
    </font>
</defs>
</svg>
