<?xml version="1.0" standalone="no"?>
<!DOCTYPE svg PUBLIC "-//W3C//DTD SVG 1.1//EN" "http://www.w3.org/Graphics/SVG/1.1/DTD/svg11.dtd" >
<svg>
<metadata>
Created by FontForge 20090622 at Mon Nov 16 17:35:34 2015
 By deploy user
Copyright 2009, 2010 Monotype Imaging Inc. All rights reserved.
</metadata>
<defs>
<font id="FelbridgePro-Light" horiz-adv-x="655" >
  <font-face 
    font-family="Felbridge Pro Light"
    font-weight="300"
    font-stretch="normal"
    units-per-em="1000"
    panose-1="2 0 3 3 4 0 3 2 3 4"
    ascent="760"
    descent="-240"
    x-height="506"
    cap-height="727"
    bbox="-171 -230 1367 957"
    underline-thickness="50"
    underline-position="-50"
    unicode-range="U+0020-U+FB04"
  />
<missing-glyph horiz-adv-x="500" 
d="M12 0v665h475v-665h-475zM88 618l162 -243l161 243h-323zM60 575v-484l40 61l80 120l41 61zM440 575l-162 -242l162 -243v485zM411 48l-161 242l-162 -242h323z" />
    <glyph glyph-name="f_f" unicode="ff" horiz-adv-x="553" 
d="M613 724l-20 -48q-39 17 -82 17q-54 0 -71 -30t-17 -97v-60h130v-47h-130v-459h-54v459h-220v-459h-54v459h-81v47h81v60q0 102 36 139t115 37q53 0 93 -18l-20 -48q-39 17 -82 17q-54 0 -71 -30t-17 -97v-60h220v60q0 102 36 139t115 37q53 0 93 -18z" />
    <glyph glyph-name="fi" unicode="fi" horiz-adv-x="509" 
d="M431 641q0 -22 -9 -31t-31 -9q-24 0 -32 10.5t-8 29.5q0 21 8.5 31t31.5 10q25 0 32.5 -10.5t7.5 -30.5zM423 0h-54v459h-220v-459h-54v459h-81v47h81v60q0 102 36 139t115 37q46 0 86 -16l-20 -48q-34 15 -75 15q-54 0 -71 -30t-17 -97v-60h274v-506z" />
    <glyph glyph-name="fl" unicode="fl" horiz-adv-x="542" 
d="M540 -7q-32 -8 -69 -8q-61 0 -86.5 35t-25.5 107v536q-65 30 -122 30q-54 0 -71 -30t-17 -97v-60h130v-47h-130v-459h-54v459h-81v47h81v60q0 102 36 139t115 37q51 0 121 -26l46 34v-614q0 -57 13.5 -81.5t51.5 -24.5q30 0 50 7z" />
    <glyph glyph-name="f_f_i" unicode="ffi" horiz-adv-x="783" 
d="M697 0h-54v459h-220v-459h-54v459h-220v-459h-54v459h-81v47h81v60q0 102 36 139t115 37q53 0 93 -18l-20 -48q-39 17 -82 17q-54 0 -71 -30t-17 -97v-60h220v60q0 102 36 139t115 37q46 0 86 -16l-20 -48q-34 15 -75 15q-54 0 -71 -30t-17 -97v-60h274v-506zM705 641
q0 -22 -9 -31t-31 -9q-24 0 -32 10.5t-8 29.5q0 21 8.5 31t31.5 10q25 0 32.5 -10.5t7.5 -30.5z" />
    <glyph glyph-name="f_f_l" unicode="ffl" horiz-adv-x="816" 
d="M339 724l-20 -48q-39 17 -82 17q-54 0 -71 -30t-17 -97v-60h220v60q0 102 36 139t115 37q51 0 121 -26l46 34v-614q0 -57 13.5 -81.5t51.5 -24.5q30 0 50 7l12 -44q-32 -8 -69 -8q-61 0 -86.5 35t-25.5 107v536q-65 30 -122 30q-54 0 -71 -30t-17 -97v-60h130v-47h-130
v-459h-54v459h-220v-459h-54v459h-81v47h81v60q0 102 36 139t115 37q53 0 93 -18z" />
    <glyph glyph-name=".notdef" horiz-adv-x="500" 
d="M12 0v665h475v-665h-475zM88 618l162 -243l161 243h-323zM60 575v-484l40 61l80 120l41 61zM440 575l-162 -242l162 -243v485zM411 48l-161 242l-162 -242h323z" />
    <glyph glyph-name=".null" horiz-adv-x="0" 
 />
    <glyph glyph-name="nonmarkingreturn" horiz-adv-x="333" 
 />
    <glyph glyph-name="space" unicode=" " horiz-adv-x="250" 
 />
    <glyph glyph-name="exclam" unicode="!" horiz-adv-x="228" 
d="M145 727l-6 -536h-47l-8 536h61zM160 35q0 -24 -10 -33t-36 -9q-27 0 -36.5 10t-9.5 32q0 24 10 33.5t36 9.5q27 0 36.5 -9.5t9.5 -33.5z" />
    <glyph glyph-name="quotedbl" unicode="&#x22;" horiz-adv-x="391" 
d="M315 742l-16 -269h-40l-17 269h73zM149 742l-16 -269h-40l-17 269h73z" />
    <glyph glyph-name="numbersign" unicode="#" horiz-adv-x="657" 
d="M621 466h-146l-52 -205h141v-44h-151l-54 -217h-46l53 217h-148l-53 -217h-46l54 217h-137v44h147l53 205h-143v44h153l54 217h46l-55 -217h148l55 217h46l-54 -217h135v-44zM430 466h-150l-52 -205h149z" />
    <glyph glyph-name="dollar" unicode="$" horiz-adv-x="527" 
d="M477 177q0 -89 -56.5 -131t-141.5 -46v-120h-43v121q-145 9 -205 120l44 29q55 -94 161 -101v258q-45 10 -71.5 19.5t-58 27.5t-46.5 47.5t-15 70.5q0 73 50 118.5t141 49.5v102h43v-103q73 -5 115.5 -32t72.5 -77l-44 -28q-26 42 -58 63t-86 25v-239q98 -22 148 -61.5
t50 -112.5zM236 361v230q-64 -4 -100.5 -35t-36.5 -81q0 -44 29.5 -69t107.5 -45zM422 173q0 54 -36.5 80.5t-106.5 43.5v-248q61 4 102 34t41 90z" />
    <glyph glyph-name="percent" unicode="%" horiz-adv-x="1017" 
d="M968 62q0 -116 -43 -169q-47 -59 -135 -59q-90 0 -136 59q-43 55 -43 169q0 121 43 174q47 59 136 59q86 0 135 -59q43 -53 43 -174zM731 727l-391 -878h-52l391 878h52zM406 509q0 -116 -43 -169q-47 -59 -135 -59q-90 0 -136 59q-43 55 -43 169q0 121 43 174
q47 59 136 59q86 0 135 -59q43 -53 43 -174zM917 62q0 43 -5 74t-18 58t-39 41t-65 14q-75 0 -101.5 -48.5t-26.5 -137.5q0 -42 5 -72t18 -56.5t39.5 -40.5t65.5 -14q74 0 100.5 48t26.5 134zM355 509q0 43 -5 74t-18 58t-39 41t-65 14q-75 0 -101.5 -48.5t-26.5 -137.5
q0 -42 5 -72t18 -56.5t39.5 -40.5t65.5 -14q74 0 100.5 48t26.5 134z" />
    <glyph glyph-name="ampersand" unicode="&#x26;" horiz-adv-x="656" 
d="M628 300q-24 -113 -91 -190l89 -110h-70l-55 68q-46 -43 -91.5 -63t-117.5 -20q-111 0 -171.5 55.5t-60.5 142.5q0 100 78 166q19 15 87 60q-90 110 -90 177q0 75 45 115.5t130 40.5q77 0 119.5 -36t42.5 -94q0 -63 -41.5 -109.5t-126.5 -104.5l202 -249q49 55 76 164z
M417 612q0 40 -31.5 63t-80.5 23q-58 0 -86.5 -30.5t-28.5 -71.5q0 -38 19 -71.5t63 -88.5q85 57 115 93t30 83zM470 107l-212 261q-80 -51 -110 -90t-30 -97q0 -74 55 -110.5t123 -36.5q98 0 174 73z" />
    <glyph glyph-name="quotesingle" unicode="'" horiz-adv-x="225" 
d="M149 742l-16 -269h-40l-17 269h73z" />
    <glyph glyph-name="parenleft" unicode="(" horiz-adv-x="359" 
d="M323 -193h-64q-93 103 -141 207q-52 110 -52 260q0 151 51 261q48 102 142 207h64q-68 -65 -119 -151t-71 -166q-17 -74 -17 -151q0 -84 17 -150q22 -86 74.5 -171t115.5 -146z" />
    <glyph glyph-name="parenright" unicode=")" horiz-adv-x="359" 
d="M293 274q0 -152 -51 -260q-47 -102 -142 -207h-64q63 61 115.5 146t74.5 171q17 66 17 150q0 77 -17 151q-20 80 -71 166t-119 151h64q94 -105 142 -207q51 -110 51 -261z" />
    <glyph glyph-name="asterisk" unicode="*" horiz-adv-x="418" 
d="M388 493l-22 -39l-136 79l2 -135h-45l1 135l-135 -80l-23 39l143 78l-143 78l23 39l136 -80l-2 135h45l-2 -135l136 79l22 -39l-142 -77z" />
    <glyph glyph-name="plus" unicode="+" 
d="M584 265h-236v-236h-41v236h-236v41h236v236h41v-236h236v-41z" />
    <glyph glyph-name="comma" unicode="," horiz-adv-x="228" 
d="M160 24q0 -100 -50 -173h-40q42 67 42 126q0 12 -1 16q-21 0 -32 9.5t-11 35.5q0 40 44 40q26 0 37 -13t11 -41z" />
    <glyph glyph-name="hyphen" unicode="-" horiz-adv-x="368" 
d="M332 225h-296v58h296v-58z" />
    <glyph glyph-name="period" unicode="." horiz-adv-x="228" 
d="M160 35q0 -24 -10 -33t-36 -9q-27 0 -36.5 10t-9.5 32q0 24 10 33.5t36 9.5q27 0 36.5 -9.5t9.5 -33.5z" />
    <glyph glyph-name="slash" unicode="/" horiz-adv-x="362" 
d="M393 742l-370 -888h-54l370 888h54z" />
    <glyph glyph-name="zero" unicode="0" horiz-adv-x="585" 
d="M536 286q0 -301 -244 -301q-243 0 -243 300t243 300q244 0 244 -299zM478 286q0 118 -41.5 182.5t-144.5 64.5q-102 0 -143.5 -65t-41.5 -183t41.5 -183t143.5 -65q103 0 144.5 65t41.5 184z" />
    <glyph glyph-name="one" unicode="1" horiz-adv-x="443" 
d="M402 0h-312v45h138v432q-62 -43 -152 -60v42q121 38 180 132h28v-546h118v-45z" />
    <glyph glyph-name="two" unicode="2" horiz-adv-x="507" 
d="M473 0h-449v53l196 153q93 75 131 122t38 101q0 48 -41.5 75t-108.5 27q-58 0 -96.5 -18.5t-69.5 -57.5l-48 35q70 95 217 95q89 0 147 -39.5t58 -115.5q0 -96 -89 -178q-81 -74 -251 -200h366v-52z" />
    <glyph glyph-name="three" unicode="3" horiz-adv-x="535" 
d="M487 69q0 -117 -69 -176t-189 -59q-65 0 -124.5 26.5t-92.5 76.5l54 32q24 -42 69 -62.5t94 -20.5q93 0 146.5 46.5t53.5 136.5q0 163 -197 163q-34 0 -69 -5v17l236 274h-337v52h400v-59l-197 -228q106 0 164 -56t58 -158z" />
    <glyph glyph-name="four" unicode="4" horiz-adv-x="529" 
d="M493 27h-86v-193h-56v193h-339v50l338 514h57v-514h86v-50zM351 77v427l-281 -427h281z" />
    <glyph glyph-name="five" unicode="5" horiz-adv-x="532" 
d="M482 74q0 -111 -67.5 -175.5t-190.5 -64.5q-77 0 -133 30t-82 69l54 31q21 -35 63 -56.5t98 -21.5q98 0 149 52t51 141q0 159 -192 159q-85 0 -156 -48h-21l49 380h344v-52h-300l-34 -263q58 33 141 33q105 0 166 -52t61 -162z" />
    <glyph glyph-name="six" unicode="6" horiz-adv-x="579" 
d="M537 233q0 -119 -62 -183.5t-175 -64.5q-125 0 -188 85.5t-63 246.5q0 90 16 165t48.5 134t87 92.5t127.5 33.5q113 0 182 -59l-36 -47q-59 54 -146 54q-55 0 -97 -25t-67 -69t-38 -97.5t-17 -118.5q103 76 214 76q101 0 157.5 -55t56.5 -168zM479 229q0 91 -43 133
t-128 42q-92 0 -202 -75q0 -292 195 -292q85 0 131.5 50t46.5 142z" />
    <glyph glyph-name="seven" unicode="7" horiz-adv-x="507" 
d="M477 511l-279 -677h-63l284 684h-332v-105h-52v157h442v-59z" />
    <glyph glyph-name="eight" unicode="8" horiz-adv-x="565" 
d="M523 184q0 -97 -63.5 -148t-176.5 -51q-118 0 -179.5 52t-61.5 147q0 147 175 202q-31 13 -52.5 24.5t-48.5 32.5t-41 50t-14 65q0 88 56 136t166 48q108 0 164.5 -47t56.5 -136q0 -63 -43 -103t-112 -69q84 -35 129 -79t45 -124zM448 558q0 65 -44 100.5t-121 35.5
q-80 0 -123 -34t-43 -95q0 -47 31 -78.5t134 -77.5q80 29 123 64.5t43 84.5zM465 182q0 38 -14.5 67.5t-46 51.5t-54.5 33.5t-67 29.5q-40 -15 -65.5 -27t-56 -34t-46 -52.5t-15.5 -69.5q0 -71 46.5 -108.5t136.5 -37.5q91 0 136.5 39t45.5 108z" />
    <glyph glyph-name="nine" unicode="9" horiz-adv-x="579" 
d="M530 252q0 -90 -16 -164t-48.5 -132t-87 -90t-127.5 -32q-112 0 -192 66l38 47q66 -61 154 -61q107 0 159.5 83.5t59.5 219.5q-103 -76 -214 -76q-101 0 -157.5 55t-56.5 168q0 118 63 183t174 65q251 0 251 -332zM473 240q0 44 -3 79t-15 77t-32 70t-57 47t-88 19
q-85 0 -131.5 -50t-46.5 -142q0 -91 43 -133t128 -42q92 0 202 75z" />
    <glyph glyph-name="colon" unicode=":" horiz-adv-x="228" 
d="M160 422q0 -24 -10 -33t-36 -9q-27 0 -36.5 10t-9.5 32q0 24 10 33.5t36 9.5q27 0 36.5 -9.5t9.5 -33.5zM160 35q0 -24 -10 -33t-36 -9q-27 0 -36.5 10t-9.5 32q0 24 10 33.5t36 9.5q27 0 36.5 -9.5t9.5 -33.5z" />
    <glyph glyph-name="semicolon" unicode=";" horiz-adv-x="228" 
d="M160 422q0 -24 -10 -33t-36 -9q-27 0 -36.5 10t-9.5 32q0 24 10 33.5t36 9.5q27 0 36.5 -9.5t9.5 -33.5zM160 24q0 -100 -50 -173h-40q42 67 42 126q0 12 -1 16q-21 0 -32 9.5t-11 35.5q0 40 44 40q26 0 37 -13t11 -41z" />
    <glyph glyph-name="less" unicode="&#x3c;" 
d="M584 46l-513 225v29l513 225v-47l-446 -193l446 -192v-47z" />
    <glyph glyph-name="equal" unicode="=" 
d="M584 376h-513v41h513v-41zM584 154h-513v41h513v-41z" />
    <glyph glyph-name="greater" unicode="&#x3e;" 
d="M584 271l-513 -225v47l446 192l-446 193v47l513 -225v-29z" />
    <glyph glyph-name="question" unicode="?" horiz-adv-x="466" 
d="M422 563q0 -87 -56 -146q-44 -46 -154 -110v-121h-48v145q99 57 130 85q35 32 52 63.5t17 75.5q0 68 -39 103.5t-112 35.5q-99 0 -147 -69l-45 32q21 36 68.5 60.5t121.5 24.5q99 0 155.5 -45t56.5 -134zM236 35q0 -24 -10 -33t-36 -9q-27 0 -36.5 10t-9.5 32
q0 24 10 33.5t36 9.5q27 0 36.5 -9.5t9.5 -33.5z" />
    <glyph glyph-name="at" unicode="@" horiz-adv-x="1003" 
d="M943 284q0 -59 -10.5 -110.5t-33 -95t-63 -68.5t-94.5 -25q-109 0 -124 96q-103 -81 -182 -81q-81 0 -123 56t-42 144q0 134 63.5 227t184.5 93q36 0 66 -12t71 -42l4 40h62l-46 -387q-2 -14 -2 -23q0 -64 76 -64q40 0 69.5 24t44 63.5t21 79.5t6.5 81q0 194 -97 304
t-284 110q-174 0 -286 -120t-112 -300q0 -189 106.5 -304.5t289.5 -115.5q105 0 219 27l11 -49q-110 -25 -231 -25q-204 0 -325.5 128t-121.5 340q0 200 127.5 333t321.5 133q207 0 320.5 -121t113.5 -336zM651 415q-68 52 -127 52q-51 0 -90 -24.5t-59.5 -65t-30.5 -84.5
t-10 -91q0 -75 28.5 -111t94.5 -36q60 0 160 76z" />
    <glyph glyph-name="A" unicode="A" horiz-adv-x="627" 
d="M615 0h-59l-83 231h-320l-84 -231h-57l267 727h72zM455 281l-142 395l-142 -395h284z" />
    <glyph glyph-name="B" unicode="B" horiz-adv-x="639" 
d="M586 219q0 -118 -73 -168.5t-216 -50.5h-207v727h211q131 0 183.5 -43t52.5 -129q0 -125 -116 -161q72 -6 118.5 -51t46.5 -124zM482 549q0 77 -45.5 102.5t-153.5 25.5h-138v-269h134q203 0 203 141zM528 208q0 39 -11 66.5t-29.5 44t-51.5 25t-67 11.5t-86 3h-138v-306
h125q51 0 86 3t70 12.5t55.5 26t33.5 45.5t13 69z" />
    <glyph glyph-name="C" unicode="C" horiz-adv-x="663" 
d="M623 610l-46 -30q-25 44 -74.5 77t-125.5 33q-140 0 -199.5 -81.5t-59.5 -245.5q0 -169 61 -247.5t199 -78.5q105 0 187 64l35 -44q-91 -72 -222 -72q-161 0 -239.5 90.5t-78.5 287.5q0 196 78.5 287.5t239.5 91.5q87 0 150 -35.5t95 -96.5z" />
    <glyph glyph-name="D" unicode="D" horiz-adv-x="721" 
d="M661 363q0 -105 -22.5 -176t-71 -112t-115.5 -58t-164 -17h-198v727h216q184 0 269.5 -82t85.5 -282zM603 364q0 93 -18.5 154t-59.5 95.5t-97 48t-140 13.5h-143v-623h143q171 0 243 67.5t72 244.5z" />
    <glyph glyph-name="E" unicode="E" horiz-adv-x="581" 
d="M526 0h-436v727h436v-52h-381v-263h349v-52h-349v-308h381v-52z" />
    <glyph glyph-name="F" unicode="F" horiz-adv-x="554" 
d="M519 675h-374v-257h339v-52h-339v-366h-55v727h429v-52z" />
    <glyph glyph-name="G" unicode="G" horiz-adv-x="714" 
d="M634 610l-46 -30q-68 110 -207 110q-134 0 -198.5 -78.5t-64.5 -242.5q0 -169 63 -250.5t206 -81.5q90 0 191 47v194h-174v50h229v-273q-122 -70 -237 -70q-175 0 -255.5 93t-80.5 287q0 184 77.5 280.5t245.5 96.5q176 0 251 -132z" />
    <glyph glyph-name="H" unicode="H" horiz-adv-x="687" 
d="M597 0h-55v350h-397v-350h-55v727h55v-327h397v327h55v-727z" />
    <glyph glyph-name="I" unicode="I" horiz-adv-x="333" 
d="M283 0h-233v47h89v633h-89v47h233v-47h-89v-633h89v-47z" />
    <glyph glyph-name="J" unicode="J" horiz-adv-x="377" 
d="M292 168q0 -92 -36.5 -137.5t-135.5 -45.5q-54 0 -108 25l22 49q40 -22 92 -22q69 0 90 35t21 130v478h-155v47h210v-559z" />
    <glyph glyph-name="K" unicode="K" horiz-adv-x="622" 
d="M608 0h-65l-252 400l-146 -154v-246h-55v727h55v-412l383 412h71l-271 -286z" />
    <glyph glyph-name="L" unicode="L" horiz-adv-x="510" 
d="M498 0h-408v727h55v-675h353v-52z" />
    <glyph glyph-name="M" unicode="M" horiz-adv-x="814" 
d="M724 0h-53v669l-244 -456h-50l-234 456v-669h-53v727h80l234 -456l243 456h77v-727z" />
    <glyph glyph-name="N" unicode="N" horiz-adv-x="695" 
d="M605 0h-79l-381 661v-661h-55v727h78l382 -662v662h55v-727z" />
    <glyph glyph-name="O" unicode="O" horiz-adv-x="737" 
d="M677 363q0 -183 -71.5 -280.5t-237.5 -97.5q-165 0 -236.5 98t-71.5 280q0 183 71.5 281t236.5 98t237 -98t72 -281zM619 363q0 164 -57.5 245.5t-193.5 81.5t-193 -81.5t-57 -245.5q0 -162 57 -244t193 -82t193.5 82t57.5 244z" />
    <glyph glyph-name="P" unicode="P" horiz-adv-x="580" 
d="M540 525q0 -120 -61 -169.5t-198 -49.5h-136v-306h-55v727h197q123 0 188 -44.5t65 -157.5zM482 524q0 87 -50.5 119t-149.5 32h-137v-317h113q61 0 97.5 5.5t68 22t45 50.5t13.5 88z" />
    <glyph glyph-name="Q" unicode="Q" horiz-adv-x="737" 
d="M677 363q0 -84 -14 -148.5t-45 -114.5t-83.5 -78.5t-126.5 -34.5q16 -49 50.5 -71t104.5 -22q40 0 70 7l12 -48q-44 -10 -83 -10q-89 0 -143.5 32.5t-78.5 110.5q-150 9 -215 106t-65 271q0 183 71.5 281t236.5 98t237 -98t72 -281zM619 363q0 164 -57.5 245.5
t-193.5 81.5t-193 -81.5t-57 -245.5q0 -162 57 -244t193 -82t193.5 82t57.5 244z" />
    <glyph glyph-name="R" unicode="R" horiz-adv-x="633" 
d="M588 0h-58l-56 214q-14 53 -37.5 77t-67.5 24h-224v-315h-55v727h228q118 0 179.5 -43.5t61.5 -152.5q0 -148 -109 -191q51 -19 72 -98zM503 530q0 82 -45 114.5t-151 32.5h-162v-312h159q112 0 155.5 37t43.5 128z" />
    <glyph glyph-name="S" unicode="S" horiz-adv-x="625" 
d="M567 193q0 -47 -15 -83.5t-39.5 -59.5t-58.5 -38t-68.5 -21t-73.5 -6q-191 0 -266 141l48 30q71 -119 218 -119q51 0 92.5 12.5t72.5 48t31 90.5q0 61 -44 97.5t-136 55.5q-147 30 -206.5 73t-59.5 131q0 89 63 143t179 54q95 0 152 -33.5t91 -94.5l-46 -29
q-32 54 -78.5 79.5t-119.5 25.5q-85 0 -134.5 -38.5t-49.5 -103.5q0 -59 45 -91t165 -58q119 -26 178.5 -72t59.5 -134z" />
    <glyph glyph-name="T" unicode="T" horiz-adv-x="545" 
d="M540 675h-240v-675h-55v675h-240v52h535v-52z" />
    <glyph glyph-name="U" unicode="U" horiz-adv-x="677" 
d="M592 279q0 -164 -56.5 -229t-196.5 -65q-139 0 -196.5 65.5t-57.5 228.5v448h55v-438q0 -138 42 -195t157 -57q117 0 157.5 57t40.5 193v440h55v-448z" />
    <glyph glyph-name="V" unicode="V" horiz-adv-x="587" 
d="M575 727l-247 -727h-71l-245 727h58l223 -670l225 670h57z" />
    <glyph glyph-name="W" unicode="W" horiz-adv-x="865" 
d="M843 727l-172 -727h-79l-162 474l-164 -474h-79l-165 727h56l152 -676l167 481h67l166 -482l159 677h54z" />
    <glyph glyph-name="X" unicode="X" horiz-adv-x="589" 
d="M575 727l-246 -361l245 -366h-68l-211 321l-215 -321h-66l249 365l-242 362h68l208 -317l212 317h66z" />
    <glyph glyph-name="Y" unicode="Y" horiz-adv-x="581" 
d="M575 727l-256 -431v-296h-55v295l-258 432h64l222 -377l221 377h62z" />
    <glyph glyph-name="Z" unicode="Z" horiz-adv-x="567" 
d="M527 0h-495v47l413 628h-396v52h468v-40l-417 -635h427v-52z" />
    <glyph glyph-name="bracketleft" unicode="[" horiz-adv-x="354" 
d="M304 -193h-215v920h215v-42h-167v-836h167v-42z" />
    <glyph glyph-name="backslash" unicode="\" horiz-adv-x="362" 
d="M393 -146h-54l-370 888h54z" />
    <glyph glyph-name="bracketright" unicode="]" horiz-adv-x="354" 
d="M265 -193h-215v42h167v836h-167v42h215v-920z" />
    <glyph glyph-name="asciicircum" unicode="^" horiz-adv-x="577" 
d="M500 347h-42l-169 350l-170 -350h-42l185 386h53z" />
    <glyph glyph-name="underscore" unicode="_" horiz-adv-x="500" 
d="M506 -125h-512v50h512v-50z" />
    <glyph glyph-name="grave" unicode="`" horiz-adv-x="500" 
d="M297 590h-45l-148 176h79z" />
    <glyph glyph-name="a" unicode="a" horiz-adv-x="526" 
d="M448 0h-54v72q-100 -87 -190 -87q-75 0 -117 42.5t-42 110.5q0 44 15 75.5t44 48.5t60 26t74 14q47 5 156 13v31q0 70 -36 98t-107 28q-86 0 -142 -54l-39 41q68 62 182 62q103 0 149.5 -38.5t46.5 -136.5v-346zM394 124v144q-31 -3 -103 -9q-45 -4 -73 -9t-58 -17
t-44.5 -35t-14.5 -58q0 -106 112 -106q85 0 181 90z" />
    <glyph glyph-name="b" unicode="b" horiz-adv-x="562" 
d="M512 257q0 -38 -6 -74t-21.5 -73t-39 -64t-61.5 -44t-86 -17q-82 0 -162 26l-44 -18h-10v734h54v-284q78 78 175 78q103 0 152 -72t49 -192zM456 255q0 215 -145 215q-90 0 -175 -85v-317q74 -32 160 -32q77 0 118.5 57t41.5 162z" />
    <glyph glyph-name="c" unicode="c" horiz-adv-x="477" 
d="M452 434l-45 -28q-42 66 -133 66q-168 0 -168 -220q0 -218 170 -218q65 0 130 47l32 -44q-72 -52 -161 -52q-124 0 -175.5 71t-51.5 196q0 269 229 269q121 0 173 -87z" />
    <glyph glyph-name="d" unicode="d" horiz-adv-x="562" 
d="M480 0h-54v63q-74 -78 -172 -78q-105 0 -154.5 71.5t-49.5 192.5q0 118 55 195t153 77q90 0 168 -63v269h54v-727zM426 121v281q-86 68 -164 68q-73 0 -114.5 -57t-41.5 -162q0 -215 145 -215q84 0 175 85z" />
    <glyph glyph-name="e" unicode="e" horiz-adv-x="510" 
d="M468 246h-362q0 -212 170 -212q62 0 125 46l32 -44q-67 -51 -156 -51q-111 0 -169 62.5t-58 200.5q0 273 221 273q197 0 197 -228v-47zM411 295q0 88 -32.5 132.5t-113.5 44.5q-71 0 -111 -46t-46 -131h303z" />
    <glyph glyph-name="f" unicode="f" horiz-adv-x="279" 
d="M339 724l-20 -48q-39 17 -82 17q-54 0 -71 -30t-17 -97v-60h130v-47h-130v-459h-54v459h-81v47h81v60q0 102 36 139t115 37q53 0 93 -18z" />
    <glyph glyph-name="g" unicode="g" horiz-adv-x="560" 
d="M545 459h-73v-456q0 -100 -51.5 -148t-171.5 -48q-44 0 -89 14t-64 27l24 49q23 -16 61.5 -28.5t72.5 -12.5q84 0 124 34t40 112v69q-78 -71 -168 -71q-100 0 -150 68.5t-50 189.5q0 47 11 91.5t34 84t64.5 63.5t96.5 24q81 0 165 -61v46h124v-47zM418 129v277
q-85 64 -159 64q-79 0 -116 -62.5t-37 -147.5q0 -94 33.5 -152t109.5 -58q80 0 169 79z" />
    <glyph glyph-name="h" unicode="h" horiz-adv-x="564" 
d="M486 0h-54v304q0 81 -24.5 123t-86.5 42q-38 0 -88 -28.5t-97 -75.5v-365h-54v727h54v-309q103 103 196 103q78 0 116 -50t38 -140v-331z" />
    <glyph glyph-name="i" unicode="i" horiz-adv-x="276" 
d="M198 641q0 -22 -9 -31t-31 -9q-24 0 -32 10.5t-8 29.5q0 21 8.5 31t31.5 10q25 0 32.5 -10.5t7.5 -30.5zM190 0h-54v459h-104v47h158v-506z" />
    <glyph glyph-name="j" unicode="j" horiz-adv-x="276" 
d="M198 641q0 -22 -9 -31t-31 -9q-24 0 -32 10.5t-8 29.5q0 21 8.5 31t31.5 10q25 0 32.5 -10.5t7.5 -30.5zM190 -36q0 -82 -33.5 -119.5t-116.5 -37.5q-46 0 -80 13l15 50q38 -15 76 -15q49 0 67 29.5t18 97.5v477h-104v47h158v-542z" />
    <glyph glyph-name="k" unicode="k" horiz-adv-x="491" 
d="M481 0h-69l-183 261l-93 -94v-167h-54v727h54v-491l264 270h74l-208 -209z" />
    <glyph glyph-name="l" unicode="l" horiz-adv-x="265" 
d="M263 -7q-32 -8 -69 -8q-61 0 -86.5 35t-25.5 107v583l54 40v-614q0 -57 13.5 -81.5t51.5 -24.5q30 0 50 7z" />
    <glyph glyph-name="m" unicode="m" horiz-adv-x="844" 
d="M766 0h-54v303q0 39 -2.5 63t-11 50.5t-29 39.5t-52.5 13q-69 0 -167 -105l1 -29v-335h-54v303q0 31 -1 50t-6.5 43.5t-15 38.5t-28 24t-44.5 10q-68 0 -166 -104v-365h-54v506h54v-88q83 103 177 103q111 0 129 -112q50 57 92 84.5t94 27.5q138 0 138 -185v-336z" />
    <glyph glyph-name="n" unicode="n" horiz-adv-x="564" 
d="M486 0h-54v304q0 81 -24.5 123t-86.5 42q-38 0 -88 -28.5t-97 -75.5v-365h-54v506h54v-88q103 103 196 103q78 0 116 -50t38 -140v-331z" />
    <glyph glyph-name="o" unicode="o" horiz-adv-x="549" 
d="M499 252q0 -131 -57 -199t-167 -68t-167.5 68t-57.5 199q0 133 57 201t168 68q110 0 167 -68.5t57 -200.5zM443 252q0 45 -8 82.5t-26.5 69.5t-52.5 50t-81 18q-169 0 -169 -220q0 -96 39 -157t130 -61q47 0 81 18t52.5 49.5t26.5 68.5t8 82z" />
    <glyph glyph-name="p" unicode="p" horiz-adv-x="562" 
d="M512 257q0 -118 -55 -195t-153 -77q-90 0 -168 63v-241h-54v699h54v-63q78 78 175 78q103 0 152 -72t49 -192zM456 255q0 215 -145 215q-90 0 -175 -85v-281q93 -68 164 -68q73 0 114.5 57t41.5 162z" />
    <glyph glyph-name="q" unicode="q" horiz-adv-x="562" 
d="M480 -193h-54v256q-74 -78 -172 -78q-105 0 -154.5 71.5t-49.5 192.5q0 49 10.5 93.5t34 86.5t68 67t104.5 25q79 0 159 -26l44 18h10v-706zM426 121v321q-79 28 -160 28q-77 0 -118.5 -57t-41.5 -162q0 -215 145 -215q85 0 175 85z" />
    <glyph glyph-name="r" unicode="r" horiz-adv-x="343" 
d="M336 504l-19 -52q-12 6 -28 6q-15 0 -30.5 -4.5t-25.5 -8t-27 -16t-21.5 -16.5l-25 -22.5t-23.5 -21.5v-369h-54v506h54v-82q50 46 84.5 68t70.5 22q25 0 45 -10z" />
    <glyph glyph-name="s" unicode="s" horiz-adv-x="461" 
d="M418 135q0 -80 -57.5 -115t-139.5 -35q-52 0 -104 21t-76 62l45 30q40 -64 142 -64q54 0 95.5 22.5t41.5 76.5q0 38 -28.5 56t-103.5 37q-89 23 -119 41q-56 35 -56 105q0 73 54.5 111t129.5 38q125 0 173 -86l-45 -28q-40 65 -133 65q-45 0 -85.5 -23t-40.5 -70
q0 -44 28.5 -63.5t106.5 -37.5q42 -10 65.5 -17.5t52 -23.5t41.5 -41t13 -61z" />
    <glyph glyph-name="t" unicode="t" horiz-adv-x="343" 
d="M329 -2q-41 -13 -89 -13q-66 0 -96 30.5t-30 110.5v333h-98v47h98v181l54 40v-221h142v-47h-142v-325q0 -34 3.5 -53.5t20.5 -35t50 -15.5q37 0 74 13z" />
    <glyph glyph-name="u" unicode="u" horiz-adv-x="564" 
d="M482 0h-54v88q-103 -103 -196 -103q-78 0 -116 50t-38 140v331h54v-304q0 -81 24.5 -123t86.5 -42q38 0 88 28.5t97 75.5v365h54v-506z" />
    <glyph glyph-name="v" unicode="v" horiz-adv-x="469" 
d="M455 506l-185 -506h-68l-188 506h58l164 -451l162 451h57z" />
    <glyph glyph-name="w" unicode="w" horiz-adv-x="682" 
d="M664 506l-121 -506h-60l-143 342l-137 -342h-65l-120 506h56l101 -449l135 341h60l140 -336l101 444h53z" />
    <glyph glyph-name="x" unicode="x" horiz-adv-x="464" 
d="M452 0h-66l-155 215l-157 -215h-62l189 253l-187 253h66l154 -213l156 213h62l-188 -251z" />
    <glyph glyph-name="y" unicode="y" horiz-adv-x="490" 
d="M472 506l-239 -543q-38 -87 -73.5 -121.5t-94.5 -34.5q-46 0 -77 13l16 45q17 -11 70 -11t106 120l27 62l-193 470h59l165 -406l176 406h58z" />
    <glyph glyph-name="z" unicode="z" horiz-adv-x="422" 
d="M396 0h-370v52l302 406h-296v48h357v-49l-304 -409h311v-48z" />
    <glyph glyph-name="braceleft" unicode="{" horiz-adv-x="399" 
d="M359 -193h-15q-77 0 -114.5 46.5t-37.5 129.5v72q0 193 -152 193v52q152 0 152 195v71q0 84 38 130t114 46h15v-42h-12q-58 0 -82 -37.5t-24 -111.5v-81q0 -84 -32.5 -130t-102.5 -66q70 -20 102.5 -66.5t32.5 -128.5v-81q0 -74 24 -111.5t82 -37.5h12v-42z" />
    <glyph glyph-name="bar" unicode="|" horiz-adv-x="370" 
d="M210 -193h-50v935h50v-935z" />
    <glyph glyph-name="braceright" unicode="}" horiz-adv-x="399" 
d="M359 248q-152 0 -152 -193v-72q0 -83 -37.5 -129.5t-114.5 -46.5h-15v42h12q58 0 82 37.5t24 111.5v81q0 82 32.5 128.5t102.5 66.5q-70 20 -102.5 66t-32.5 130v81q0 74 -24 111.5t-82 37.5h-12v42h15q76 0 114 -46t38 -130v-71q0 -195 152 -195v-52z" />
    <glyph glyph-name="asciitilde" unicode="~" horiz-adv-x="645" 
d="M579 280q-63 -55 -133 -55q-44 0 -126.5 41t-110.5 41q-76 0 -143 -69v52q61 56 133 56q44 0 126.5 -41.5t114.5 -41.5q77 0 139 69v-52z" />
    <glyph glyph-name="uni00A0" unicode="&#xa0;" horiz-adv-x="250" 
 />
    <glyph glyph-name="exclamdown" unicode="&#xa1;" horiz-adv-x="228" 
d="M160 479q0 -24 -10 -33.5t-36 -9.5q-27 0 -36.5 9.5t-9.5 33.5t10 33t36 9q27 0 36.5 -10t9.5 -32zM144 -193h-61l6 536h47z" />
    <glyph glyph-name="cent" unicode="&#xa2;" horiz-adv-x="483" 
d="M454 469l-45 -28q-20 31 -52 49l-146 -410q30 -11 67 -11q65 0 130 47l32 -44q-72 -52 -161 -52q-49 0 -84 13l-71 -199h-46l76 214q-102 57 -102 239q0 269 229 269q31 0 52 -4l68 190h46l-72 -203q50 -22 79 -70zM316 504q-20 3 -40 3q-168 0 -168 -220q0 -134 65 -186
z" />
    <glyph glyph-name="sterling" unicode="&#xa3;" horiz-adv-x="576" 
d="M542 0h-504v52q28 8 48 33.5t29.5 59.5t14 65.5t4.5 60.5q0 33 -3 49h-80v47h74q-2 13 -10 36.5t-10 31.5q-18 64 -18 119q0 92 64.5 140t160.5 48q75 0 127.5 -23t90.5 -81l-49 -36q-55 86 -166 86q-77 0 -122.5 -34t-45.5 -108q0 -36 17.5 -101t19.5 -78h205v-47h-197
q3 -16 3 -48q0 -156 -84 -220h431v-52z" />
    <glyph glyph-name="currency" unicode="&#xa4;" horiz-adv-x="627" 
d="M462 237l67 -64l-33 -34l-66 67q-50 -41 -118 -41q-69 0 -118 41l-66 -67l-33 34l67 64q-40 56 -40 117q0 69 40 117l-67 65l33 34l66 -67q54 41 118 41q69 0 117 -41l67 67l33 -34l-67 -65q40 -52 40 -117q0 -64 -40 -117zM455 355q0 61 -43 101.5t-99 40.5
q-61 0 -102.5 -42t-41.5 -100q0 -59 42 -101.5t101 -42.5t101 42.5t42 101.5z" />
    <glyph glyph-name="yen" unicode="&#xa5;" horiz-adv-x="581" 
d="M575 727l-202 -340h150v-47h-178l-26 -44v-45h204v-47h-204v-204h-55v204h-205v47h205v44l-27 45h-178v47h150l-203 340h64l222 -377l221 377h62z" />
    <glyph glyph-name="brokenbar" unicode="&#xa6;" horiz-adv-x="370" 
d="M210 431h-50v311h50v-311zM210 -193h-50v311h50v-311z" />
    <glyph glyph-name="section" unicode="&#xa7;" horiz-adv-x="479" 
d="M439 261q0 -56 -33 -92.5t-99 -78.5q48 -32 75.5 -63.5t27.5 -72.5q0 -73 -50 -110t-131 -37q-121 0 -174 65l38 37q45 -50 132 -50q127 0 127 95q0 38 -53 78q-25 19 -76.5 49.5t-71.5 44.5q-51 35 -81 72.5t-30 88.5q0 54 35 94.5t97 77.5q-47 33 -73.5 64.5
t-26.5 72.5q0 72 50 109t131 37q120 0 171 -65l-38 -37q-43 50 -131 50q-52 0 -88.5 -21t-36.5 -72q0 -32 33 -63q28 -27 93.5 -66.5t72.5 -44.5q53 -37 81.5 -74t28.5 -88zM387 257q0 50 -61 101q-16 14 -34.5 26l-45 28.5l-36.5 22.5l-36 -26q-82 -62 -82 -119
q0 -49 69 -105q44 -35 108 -71q3 2 24.5 17.5l28.5 20.5t23.5 20.5t22.5 26t12.5 26.5t6.5 32z" />
    <glyph glyph-name="dieresis" unicode="&#xa8;" horiz-adv-x="500" 
d="M376 641q0 -22 -9 -31t-31 -9q-24 0 -32 10.5t-8 29.5q0 21 8.5 31t31.5 10q25 0 32.5 -10.5t7.5 -30.5zM204 641q0 -22 -9 -31t-31 -9q-24 0 -32 10.5t-8 29.5q0 21 8.5 31t31.5 10q25 0 32.5 -10.5t7.5 -30.5z" />
    <glyph glyph-name="copyright" unicode="&#xa9;" horiz-adv-x="938" 
d="M886 325q0 -113 -56 -209t-152 -152t-209 -56t-209 56t-152 152t-56 209t56 209t152 152t209 56t209 -56t152 -152t56 -209zM838 325q0 153 -108 261t-261 108t-261 -108t-108 -261t108 -261t261 -108t261 108t108 261zM652 471l-44 -32q-40 71 -118 71q-80 0 -115 -46.5
t-35 -137.5q0 -93 36 -137.5t115 -44.5q57 0 115 44l32 -44q-66 -50 -147 -50q-104 0 -155.5 56.5t-51.5 175.5q0 234 207 234q112 0 161 -89z" />
    <glyph glyph-name="ordfeminine" unicode="&#xaa;" horiz-adv-x="369" 
d="M310 403h-48v42q-62 -51 -120 -51q-51 0 -80 27.5t-29 72.5q0 59 35 83t96 29q43 4 98 8v13q0 40 -23 55.5t-65 15.5q-56 0 -92 -33l-34 38q39 39 128 39q71 0 102.5 -25t31.5 -90v-224zM262 493v79l-62 -7q-27 -3 -38.5 -5t-30.5 -6.5t-27 -11t-14.5 -18t-6.5 -27.5
q0 -32 17 -45.5t54 -13.5q35 0 82 35q2 1 26 20z" />
    <glyph glyph-name="guillemotleft" unicode="&#xab;" horiz-adv-x="508" 
d="M485 26h-63l-202 228l202 227h63l-203 -227zM286 26h-63l-202 228l202 227h63l-203 -227z" />
    <glyph glyph-name="logicalnot" unicode="&#xac;" 
d="M584 154h-41v222h-472v41h513v-263z" />
    <glyph glyph-name="uni00AD" unicode="&#xad;" horiz-adv-x="368" 
d="M332 225h-296v58h296v-58z" />
    <glyph glyph-name="registered" unicode="&#xae;" horiz-adv-x="938" 
d="M886 325q0 -113 -56 -209t-152 -152t-209 -56t-209 56t-152 152t-56 209t56 209t152 152t209 56t209 -56t152 -152t56 -209zM838 325q0 153 -108 261t-261 108t-261 -108t-108 -261t108 -261t261 -108t261 108t108 261zM644 105h-56l-36 134q-13 51 -55 51h-127v-185h-54
v447h143q79 0 121.5 -28t42.5 -97q0 -88 -65 -113q30 -10 43 -56zM569 427q0 42 -25.5 59t-87.5 17h-86v-163h84q67 0 91 18t24 69z" />
    <glyph glyph-name="macron" unicode="&#xaf;" horiz-adv-x="500" 
d="M394 607h-288v57h288v-57z" />
    <glyph glyph-name="degree" unicode="&#xb0;" horiz-adv-x="398" 
d="M338 604q0 -58 -41 -98.5t-97 -40.5q-57 0 -98.5 40.5t-41.5 98.5q0 57 41 97.5t98 40.5q58 0 98.5 -40.5t40.5 -97.5zM293 602q0 39 -27 67t-66 28q-40 0 -67.5 -27.5t-27.5 -65.5q0 -39 27.5 -66.5t67.5 -27.5q39 0 66 27t27 65z" />
    <glyph glyph-name="plusminus" unicode="&#xb1;" 
d="M584 274h-236v-188h-41v188h-236v41h236v215h41v-215h236v-41zM584 0h-513v41h513v-41z" />
    <glyph glyph-name="twosuperior" unicode="&#xb2;" horiz-adv-x="455" 
d="M417 293h-351v45q65 46 151 116q7 6 25.5 20.5l25.5 20t21.5 18.5t20.5 20l15.5 19t13.5 21t7 21.5t3 24.5q0 34 -29.5 55.5t-82.5 21.5q-85 0 -135 -59l-38 28q61 77 171 77q72 0 118.5 -31.5t46.5 -89.5q0 -47 -28 -86.5t-87 -84.5l-147 -112h279v-45z" />
    <glyph glyph-name="threesuperior" unicode="&#xb3;" horiz-adv-x="455" 
d="M392 427q0 -73 -48 -109.5t-131 -36.5q-48 0 -90 19t-65 53l41 28q37 -54 113 -54q129 0 129 99q0 89 -128 89q-29 0 -64 -7v19l168 164h-234v42h293v-43l-138 -134q71 -1 112.5 -36.5t41.5 -92.5z" />
    <glyph glyph-name="acute" unicode="&#xb4;" horiz-adv-x="500" 
d="M392 766l-148 -176h-45l114 176h79z" />
    <glyph glyph-name="mu" unicode="&#xb5;" horiz-adv-x="568" 
d="M486 0h-54v65q-69 -80 -150 -80q-47 0 -80.5 9t-65.5 37v-224h-54v699h54v-397q63 -66 145 -66q79 0 151 80v383h54v-506z" />
    <glyph glyph-name="paragraph" unicode="&#xb6;" horiz-adv-x="572" 
d="M552 680h-101v-873h-57v873h-107v-873h-57v519q-94 0 -152 50.5t-58 151.5q0 92 60 145.5t163 53.5h309v-47z" />
    <glyph glyph-name="periodcentered" unicode="&#xb7;" horiz-adv-x="228" 
d="M160 284q0 -24 -10 -33t-36 -9q-27 0 -36.5 10t-9.5 32q0 24 10 33.5t36 9.5q27 0 36.5 -9.5t9.5 -33.5z" />
    <glyph glyph-name="cedilla" unicode="&#xb8;" horiz-adv-x="500" 
d="M339 -105q0 -41 -31 -64.5t-87 -23.5q-50 0 -108 21l16 36q49 -19 98 -19q71 0 71 55q0 27 -29.5 43t-62.5 16l24 50h37l-11 -24q83 -20 83 -90z" />
    <glyph glyph-name="onesuperior" unicode="&#xb9;" horiz-adv-x="455" 
d="M347 293h-244v38h107v315q-51 -31 -118 -43v37q90 28 141 102h24v-411h90v-38z" />
    <glyph glyph-name="ordmasculine" unicode="&#xba;" horiz-adv-x="389" 
d="M348 567q0 -85 -39 -129t-115 -44q-153 0 -153 173q0 175 153 175q76 0 115 -44.5t39 -130.5zM298 567q0 132 -104 132q-103 0 -103 -132t103 -132q104 0 104 132z" />
    <glyph glyph-name="guillemotright" unicode="&#xbb;" horiz-adv-x="508" 
d="M487 254l-202 -228h-63l203 228l-203 227h63zM288 254l-202 -228h-63l203 228l-203 227h63z" />
    <glyph glyph-name="onequarter" unicode="&#xbc;" horiz-adv-x="1017" 
d="M928 -42h-69v-124h-45v124h-234v31l251 306h28v-295h69v-42zM731 727l-391 -878h-52l392 878h51zM347 293h-244v38h107v315q-51 -31 -118 -43v37q90 28 141 102h24v-411h90v-38zM814 0v206l-170 -206h170z" />
    <glyph glyph-name="onehalf" unicode="&#xbd;" horiz-adv-x="1017" 
d="M954 -154h-351v45q65 46 151 116q7 6 25.5 20.5l25.5 20t21.5 18.5t20.5 20l15.5 19t13.5 21t7 21.5t3 24.5q0 34 -29.5 55.5t-82.5 21.5q-85 0 -135 -59l-38 28q61 77 171 77q72 0 118.5 -31.5t46.5 -89.5q0 -47 -28 -86.5t-87 -84.5l-147 -112h279v-45zM711 727
l-391 -878h-52l392 878h51zM327 293h-244v38h107v315q-51 -31 -118 -43v37q90 28 141 102h24v-411h90v-38z" />
    <glyph glyph-name="threequarters" unicode="&#xbe;" horiz-adv-x="1017" 
d="M928 -42h-69v-124h-45v124h-234v31l251 306h28v-295h69v-42zM731 727l-391 -878h-52l392 878h51zM392 427q0 -73 -48 -109.5t-131 -36.5q-48 0 -90 19t-65 53l41 28q37 -54 113 -54q129 0 129 99q0 89 -128 89q-29 0 -64 -7v19l168 164h-234v42h293v-43l-138 -134
q71 -1 112.5 -36.5t41.5 -92.5zM814 0v206l-170 -206h170z" />
    <glyph glyph-name="questiondown" unicode="&#xbf;" horiz-adv-x="466" 
d="M322 479q0 -24 -10 -33.5t-36 -9.5q-27 0 -36.5 9.5t-9.5 33.5t10 33t36 9q27 0 36.5 -10t9.5 -32zM446 -108q-19 -35 -68.5 -60t-121.5 -25q-99 0 -155.5 45t-56.5 134q0 87 56 146q44 46 154 110v106h48v-130q-99 -57 -130 -85q-35 -32 -52 -63.5t-17 -75.5
q0 -68 39 -103.5t112 -35.5q102 0 147 69z" />
    <glyph glyph-name="Agrave" unicode="&#xc0;" horiz-adv-x="627" 
d="M359 780h-45l-148 176h79zM615 0h-59l-83 231h-320l-84 -231h-57l267 727h72zM455 281l-142 395l-142 -395h284z" />
    <glyph glyph-name="Aacute" unicode="&#xc1;" horiz-adv-x="627" 
d="M456 956l-148 -176h-45l114 176h79zM615 0h-59l-83 231h-320l-84 -231h-57l267 727h72zM455 281l-142 395l-142 -395h284z" />
    <glyph glyph-name="Acircumflex" unicode="&#xc2;" horiz-adv-x="627" 
d="M462 780h-47l-102 129l-99 -129h-46l111 176h75zM615 0h-59l-83 231h-320l-84 -231h-57l267 727h72zM455 281l-142 395l-142 -395h284z" />
    <glyph glyph-name="Atilde" unicode="&#xc3;" horiz-adv-x="627" 
d="M486 914q0 -54 -27 -94t-78 -40q-49 0 -88 41q-2 2 -8 9t-9 9.5t-8.5 8t-9.5 8l-9 5.5t-9.5 4.5t-9.5 1.5q-51 0 -56 -87h-43q0 54 27 94t79 40q49 0 88 -42q2 -2 8 -9t9.5 -10l10 -9t11.5 -9t12 -5.5t13 -2.5q28 0 40.5 27.5t13.5 59.5h43zM615 0h-59l-83 231h-320
l-84 -231h-57l267 727h72zM455 281l-142 395l-142 -395h284z" />
    <glyph glyph-name="Adieresis" unicode="&#xc4;" horiz-adv-x="627" 
d="M439 820q0 -22 -9 -31t-31 -9q-24 0 -32 10.5t-8 29.5q0 21 8.5 31t31.5 10q25 0 32.5 -10.5t7.5 -30.5zM267 820q0 -22 -9 -31t-31 -9q-24 0 -32 10.5t-8 29.5q0 21 8.5 31t31.5 10q25 0 32.5 -10.5t7.5 -30.5zM615 0h-59l-83 231h-320l-84 -231h-57l267 727h72z
M455 281l-142 395l-142 -395h284z" />
    <glyph glyph-name="Aring" unicode="&#xc5;" horiz-adv-x="627" 
d="M615 0h-59l-83 231h-320l-84 -231h-57l259 703q-58 21 -58 98q0 47 27 75t75 28q47 0 74.5 -27.5t27.5 -75.5q0 -77 -58 -98zM382 801q0 35 -18 53t-49 18q-32 0 -49.5 -18.5t-17.5 -52.5q0 -74 67 -74t67 74zM455 281l-142 395l-142 -395h284z" />
    <glyph glyph-name="AE" unicode="&#xc6;" horiz-adv-x="861" 
d="M806 0h-390v236h-254l-92 -236h-58l287 727h507v-52h-335v-263h303v-52h-303v-308h335v-52zM416 288v387h-83l-151 -387h234z" />
    <glyph glyph-name="Ccedilla" unicode="&#xc7;" horiz-adv-x="663" 
d="M623 610l-46 -30q-25 44 -74.5 77t-125.5 33q-140 0 -199.5 -81.5t-59.5 -245.5q0 -169 61 -247.5t199 -78.5q105 0 187 64l35 -44q-91 -72 -222 -72h-2q83 -20 83 -90q0 -41 -31 -64.5t-87 -23.5q-50 0 -108 21l16 36q49 -19 98 -19q71 0 71 55q0 27 -29.5 43t-62.5 16
l13 27q-141 10 -210 101t-69 276q0 196 78.5 287.5t239.5 91.5q87 0 150 -35.5t95 -96.5z" />
    <glyph glyph-name="Egrave" unicode="&#xc8;" horiz-adv-x="581" 
d="M356 780h-45l-148 176h79zM526 0h-436v727h436v-52h-381v-263h349v-52h-349v-308h381v-52z" />
    <glyph glyph-name="Eacute" unicode="&#xc9;" horiz-adv-x="581" 
d="M443 956l-148 -176h-45l114 176h79zM526 0h-436v727h436v-52h-381v-263h349v-52h-349v-308h381v-52z" />
    <glyph glyph-name="Ecircumflex" unicode="&#xca;" horiz-adv-x="581" 
d="M460 780h-47l-102 129l-99 -129h-46l111 176h75zM526 0h-436v727h436v-52h-381v-263h349v-52h-349v-308h381v-52z" />
    <glyph glyph-name="Edieresis" unicode="&#xcb;" horiz-adv-x="581" 
d="M438 820q0 -22 -9 -31t-31 -9q-24 0 -32 10.5t-8 29.5q0 21 8.5 31t31.5 10q25 0 32.5 -10.5t7.5 -30.5zM266 820q0 -22 -9 -31t-31 -9q-24 0 -32 10.5t-8 29.5q0 21 8.5 31t31.5 10q25 0 32.5 -10.5t7.5 -30.5zM526 0h-436v727h436v-52h-381v-263h349v-52h-349v-308h381
v-52z" />
    <glyph glyph-name="Igrave" unicode="&#xcc;" horiz-adv-x="333" 
d="M218 780h-45l-148 176h79zM283 0h-233v47h89v633h-89v47h233v-47h-89v-633h89v-47z" />
    <glyph glyph-name="Iacute" unicode="&#xcd;" horiz-adv-x="333" 
d="M300 956l-148 -176h-45l114 176h79zM283 0h-233v47h89v633h-89v47h233v-47h-89v-633h89v-47z" />
    <glyph glyph-name="Icircumflex" unicode="&#xce;" horiz-adv-x="333" 
d="M313 780h-47l-102 129l-99 -129h-46l111 176h75zM283 0h-233v47h89v633h-89v47h233v-47h-89v-633h89v-47z" />
    <glyph glyph-name="Idieresis" unicode="&#xcf;" horiz-adv-x="333" 
d="M291 820q0 -22 -9 -31t-31 -9q-24 0 -32 10.5t-8 29.5q0 21 8.5 31t31.5 10q25 0 32.5 -10.5t7.5 -30.5zM119 820q0 -22 -9 -31t-31 -9q-24 0 -32 10.5t-8 29.5q0 21 8.5 31t31.5 10q25 0 32.5 -10.5t7.5 -30.5zM283 0h-233v47h89v633h-89v47h233v-47h-89v-633h89v-47z
" />
    <glyph glyph-name="Eth" unicode="&#xd0;" horiz-adv-x="721" 
d="M661 363q0 -105 -22.5 -176t-71 -112t-115.5 -58t-164 -17h-198v344h-72v48h72v335h216q184 0 269.5 -82t85.5 -282zM603 364q0 93 -18.5 154t-59.5 95.5t-97 48t-140 13.5h-143v-283h213v-48h-213v-292h143q171 0 243 67.5t72 244.5z" />
    <glyph glyph-name="Ntilde" unicode="&#xd1;" horiz-adv-x="695" 
d="M526 914q0 -54 -27 -94t-78 -40q-49 0 -88 41q-2 2 -8 9t-9 9.5t-8.5 8t-9.5 8l-9 5.5t-9.5 4.5t-9.5 1.5q-51 0 -56 -87h-43q0 54 27 94t79 40q49 0 88 -42q1 -1 12 -13t16.5 -16.5t16 -10t19.5 -5.5q28 0 40.5 27.5t13.5 59.5h43zM605 0h-79l-381 661v-661h-55v727h78
l382 -662v662h55v-727z" />
    <glyph glyph-name="Ograve" unicode="&#xd2;" horiz-adv-x="737" 
d="M425 780h-45l-148 176h79zM677 363q0 -183 -71.5 -280.5t-237.5 -97.5q-165 0 -236.5 98t-71.5 280q0 183 71.5 281t236.5 98t237 -98t72 -281zM619 363q0 164 -57.5 245.5t-193.5 81.5t-193 -81.5t-57 -245.5q0 -162 57 -244t193 -82t193.5 82t57.5 244z" />
    <glyph glyph-name="Oacute" unicode="&#xd3;" horiz-adv-x="737" 
d="M500 956l-146 -176h-44l112 176h78zM677 363q0 -183 -71.5 -280.5t-237.5 -97.5q-165 0 -236.5 98t-71.5 280q0 183 71.5 281t236.5 98t237 -98t72 -281zM619 363q0 164 -57.5 245.5t-193.5 81.5t-193 -81.5t-57 -245.5q0 -162 57 -244t193 -82t193.5 82t57.5 244z" />
    <glyph glyph-name="Ocircumflex" unicode="&#xd4;" horiz-adv-x="737" 
d="M513 780h-47l-102 129l-99 -129h-46l111 176h75zM677 363q0 -183 -71.5 -280.5t-237.5 -97.5q-165 0 -236.5 98t-71.5 280q0 183 71.5 281t236.5 98t237 -98t72 -281zM619 363q0 164 -57.5 245.5t-193.5 81.5t-193 -81.5t-57 -245.5q0 -162 57 -244t193 -82t193.5 82
t57.5 244z" />
    <glyph glyph-name="Otilde" unicode="&#xd5;" horiz-adv-x="737" 
d="M546 914q0 -54 -27 -94t-78 -40q-49 0 -88 41q-35 39 -52 44q-6 2 -11 2q-51 0 -56 -87h-43q0 54 27 94t79 40q49 0 88 -42q1 -1 12 -13t16.5 -16.5t16 -10t19.5 -5.5q28 0 40.5 27.5t13.5 59.5h43zM677 363q0 -183 -71.5 -280.5t-237.5 -97.5q-165 0 -236.5 98
t-71.5 280q0 183 71.5 281t236.5 98t237 -98t72 -281zM619 363q0 164 -57.5 245.5t-193.5 81.5t-193 -81.5t-57 -245.5q0 -162 57 -244t193 -82t193.5 82t57.5 244z" />
    <glyph glyph-name="Odieresis" unicode="&#xd6;" horiz-adv-x="737" 
d="M495 820q0 -22 -9 -31t-31 -9q-24 0 -32 10.5t-8 29.5q0 21 8.5 31t31.5 10q25 0 32.5 -10.5t7.5 -30.5zM323 820q0 -22 -9 -31t-31 -9q-24 0 -32 10.5t-8 29.5q0 21 8.5 31t31.5 10q25 0 32.5 -10.5t7.5 -30.5zM677 363q0 -183 -71.5 -280.5t-237.5 -97.5
q-165 0 -236.5 98t-71.5 280q0 183 71.5 281t236.5 98t237 -98t72 -281zM619 363q0 164 -57.5 245.5t-193.5 81.5t-193 -81.5t-57 -245.5q0 -162 57 -244t193 -82t193.5 82t57.5 244z" />
    <glyph glyph-name="multiply" unicode="&#xd7;" 
d="M555 87l-28 -30l-199 199l-198 -199l-30 30l199 198l-198 199l29 29l198 -199l199 199l28 -28l-198 -200z" />
    <glyph glyph-name="Oslash" unicode="&#xd8;" horiz-adv-x="737" 
d="M677 363q0 -183 -71.5 -280.5t-237.5 -97.5q-117 0 -190 53l-65 -94h-60l88 128q-81 92 -81 291q0 183 71.5 281t236.5 98q122 0 195 -56l53 78h60l-77 -112q78 -92 78 -289zM619 363q0 160 -54 240l-356 -519q58 -47 159 -47q136 0 193.5 82t57.5 244zM531 641
q-60 49 -163 49q-136 0 -193 -81.5t-57 -245.5t56 -242z" />
    <glyph glyph-name="Ugrave" unicode="&#xd9;" horiz-adv-x="677" 
d="M401 780h-45l-148 176h79zM592 279q0 -164 -56.5 -229t-196.5 -65q-139 0 -196.5 65.5t-57.5 228.5v448h55v-438q0 -138 42 -195t157 -57q117 0 157.5 57t40.5 193v440h55v-448z" />
    <glyph glyph-name="Uacute" unicode="&#xda;" horiz-adv-x="677" 
d="M487 956l-148 -176h-45l114 176h79zM592 279q0 -164 -56.5 -229t-196.5 -65q-139 0 -196.5 65.5t-57.5 228.5v448h55v-438q0 -138 42 -195t157 -57q117 0 157.5 57t40.5 193v440h55v-448z" />
    <glyph glyph-name="Ucircumflex" unicode="&#xdb;" horiz-adv-x="677" 
d="M490 780h-47l-102 129l-99 -129h-46l111 176h75zM592 279q0 -164 -56.5 -229t-196.5 -65q-139 0 -196.5 65.5t-57.5 228.5v448h55v-438q0 -138 42 -195t157 -57q117 0 157.5 57t40.5 193v440h55v-448z" />
    <glyph glyph-name="Udieresis" unicode="&#xdc;" horiz-adv-x="677" 
d="M466 820q0 -22 -9 -31t-31 -9q-24 0 -32 10.5t-8 29.5q0 21 8.5 31t31.5 10q25 0 32.5 -10.5t7.5 -30.5zM294 820q0 -22 -9 -31t-31 -9q-24 0 -32 10.5t-8 29.5q0 21 8.5 31t31.5 10q25 0 32.5 -10.5t7.5 -30.5zM592 279q0 -164 -56.5 -229t-196.5 -65
q-139 0 -196.5 65.5t-57.5 228.5v448h55v-438q0 -138 42 -195t157 -57q117 0 157.5 57t40.5 193v440h55v-448z" />
    <glyph glyph-name="Yacute" unicode="&#xdd;" horiz-adv-x="581" 
d="M429 957l-148 -176h-45l114 176h79zM575 727l-256 -431v-296h-55v295l-258 432h64l222 -377l221 377h62z" />
    <glyph glyph-name="Thorn" unicode="&#xde;" horiz-adv-x="580" 
d="M540 387q0 -120 -61 -169.5t-198 -49.5h-136v-168h-55v727h55v-138h142q123 0 188 -44.5t65 -157.5zM482 386q0 87 -50.5 119t-149.5 32h-137v-317h113q61 0 97.5 5.5t68 22t45 50.5t13.5 88z" />
    <glyph glyph-name="germandbls" unicode="&#xdf;" horiz-adv-x="558" 
d="M508 220q0 -235 -212 -235q-50 0 -103 15v56q57 -22 110 -22q149 0 149 190q0 44 -13.5 75t-34 48.5t-54.5 27.5t-65.5 13t-75.5 3v55q43 0 75 5t61 19t44 42t15 69q0 112 -131 112q-79 0 -110 -48t-31 -132v-513h-54v509q0 111 45 172t152 61q84 0 134 -38.5t50 -113.5
q0 -153 -149 -164q97 -6 147.5 -59.5t50.5 -146.5z" />
    <glyph glyph-name="agrave" unicode="&#xe0;" horiz-adv-x="526" 
d="M326 590h-45l-148 176h79zM448 0h-54v72q-100 -87 -190 -87q-75 0 -117 42.5t-42 110.5q0 44 15 75.5t44 48.5t60 26t74 14q47 5 156 13v31q0 70 -36 98t-107 28q-86 0 -142 -54l-39 41q68 62 182 62q103 0 149.5 -38.5t46.5 -136.5v-346zM394 124v144q-31 -3 -103 -9
q-45 -4 -73 -9t-58 -17t-44.5 -35t-14.5 -58q0 -106 112 -106q85 0 181 90z" />
    <glyph glyph-name="aacute" unicode="&#xe1;" horiz-adv-x="526" 
d="M399 766l-148 -176h-45l114 176h79zM448 0h-54v72q-100 -87 -190 -87q-75 0 -117 42.5t-42 110.5q0 44 15 75.5t44 48.5t60 26t74 14q47 5 156 13v31q0 70 -36 98t-107 28q-86 0 -142 -54l-39 41q68 62 182 62q103 0 149.5 -38.5t46.5 -136.5v-346zM394 124v144
q-31 -3 -103 -9q-45 -4 -73 -9t-58 -17t-44.5 -35t-14.5 -58q0 -106 112 -106q85 0 181 90z" />
    <glyph glyph-name="acircumflex" unicode="&#xe2;" horiz-adv-x="526" 
d="M411 590h-47l-102 129l-99 -129h-46l111 176h75zM448 0h-54v72q-100 -87 -190 -87q-75 0 -117 42.5t-42 110.5q0 44 15 75.5t44 48.5t60 26t74 14q47 5 156 13v31q0 70 -36 98t-107 28q-86 0 -142 -54l-39 41q68 62 182 62q103 0 149.5 -38.5t46.5 -136.5v-346zM394 124
v144q-31 -3 -103 -9q-45 -4 -73 -9t-58 -17t-44.5 -35t-14.5 -58q0 -106 112 -106q85 0 181 90z" />
    <glyph glyph-name="atilde" unicode="&#xe3;" horiz-adv-x="526" 
d="M437 745q0 -54 -27 -94t-78 -40q-49 0 -88 41q-2 2 -7.5 8t-8 8.5l-7.5 7.5t-8 7t-7.5 5.5t-8 5t-8 3t-8.5 1.5q-51 0 -56 -87h-43q0 54 27 94t79 40q49 0 88 -42q2 -2 8 -9t9.5 -10l10 -9t11.5 -9t12 -5.5t13 -2.5q28 0 40.5 27.5t13.5 59.5h43zM448 0h-54v72
q-100 -87 -190 -87q-75 0 -117 42.5t-42 110.5q0 44 15 75.5t44 48.5t60 26t74 14q47 5 156 13v31q0 70 -36 98t-107 28q-86 0 -142 -54l-39 41q68 62 182 62q103 0 149.5 -38.5t46.5 -136.5v-346zM394 124v144q-31 -3 -103 -9q-45 -4 -73 -9t-58 -17t-44.5 -35t-14.5 -58
q0 -106 112 -106q85 0 181 90z" />
    <glyph glyph-name="adieresis" unicode="&#xe4;" horiz-adv-x="526" 
d="M381 641q0 -22 -9 -31t-31 -9q-24 0 -32 10.5t-8 29.5q0 21 8.5 31t31.5 10q25 0 32.5 -10.5t7.5 -30.5zM209 641q0 -22 -9 -31t-31 -9q-24 0 -32 10.5t-8 29.5q0 21 8.5 31t31.5 10q25 0 32.5 -10.5t7.5 -30.5zM448 0h-54v72q-100 -87 -190 -87q-75 0 -117 42.5
t-42 110.5q0 44 15 75.5t44 48.5t60 26t74 14q47 5 156 13v31q0 70 -36 98t-107 28q-86 0 -142 -54l-39 41q68 62 182 62q103 0 149.5 -38.5t46.5 -136.5v-346zM394 124v144q-31 -3 -103 -9q-45 -4 -73 -9t-58 -17t-44.5 -35t-14.5 -58q0 -106 112 -106q85 0 181 90z" />
    <glyph glyph-name="aring" unicode="&#xe5;" horiz-adv-x="526" 
d="M342 657q0 -40 -21.5 -63t-62.5 -23q-81 0 -81 86t81 86q84 0 84 -86zM448 0h-54v72q-100 -87 -190 -87q-75 0 -117 42.5t-42 110.5q0 44 15 75.5t44 48.5t60 26t74 14q47 5 156 13v31q0 70 -36 98t-107 28q-86 0 -142 -54l-39 41q68 62 182 62q103 0 149.5 -38.5
t46.5 -136.5v-346zM309 657q0 55 -51 55q-48 0 -48 -55t48 -55q51 0 51 55zM394 124v144q-31 -3 -103 -9q-45 -4 -73 -9t-58 -17t-44.5 -35t-14.5 -58q0 -106 112 -106q85 0 181 90z" />
    <glyph glyph-name="ae" unicode="&#xe6;" horiz-adv-x="822" 
d="M780 246h-348q0 -94 38.5 -153t126.5 -59q58 0 116 46l32 -44q-23 -20 -63 -35t-73 -15q-30 0 -51.5 2.5t-50.5 11t-54 29.5t-44 54q-67 -53 -113.5 -75.5t-96.5 -22.5q-69 0 -111.5 43t-42.5 110q0 45 15 77t43.5 49t58 25.5t69.5 13.5q39 4 147 12v31q0 68 -34 97
t-100 29q-81 0 -135 -54l-39 41q62 62 174 62q74 0 114 -20.5t61 -67.5q32 46 71 67t100 21q190 0 190 -228v-47zM391 125q-13 39 -13 99v44q-47 -5 -97 -9q-34 -3 -55.5 -6t-48 -11t-41 -19.5t-25 -32.5t-10.5 -50q0 -106 111 -106q29 0 65.5 17t57.5 32zM723 295
q0 89 -32 133t-108 44q-63 0 -104 -43.5t-45 -133.5h289z" />
    <glyph glyph-name="ccedilla" unicode="&#xe7;" horiz-adv-x="477" 
d="M452 434l-45 -28q-42 66 -133 66q-168 0 -168 -220q0 -218 170 -218q65 0 130 47l32 -44q-72 -52 -161 -52h-11q83 -20 83 -90q0 -41 -31 -64.5t-87 -23.5q-50 0 -108 21l16 36q49 -19 98 -19q71 0 71 55q0 27 -29.5 43t-62.5 16l14 29q-180 25 -180 264q0 269 229 269
q121 0 173 -87z" />
    <glyph glyph-name="egrave" unicode="&#xe8;" horiz-adv-x="510" 
d="M324 590h-45l-148 176h79zM468 246h-362q0 -212 170 -212q62 0 125 46l32 -44q-67 -51 -156 -51q-111 0 -169 62.5t-58 200.5q0 273 221 273q197 0 197 -228v-47zM411 295q0 88 -32.5 132.5t-113.5 44.5q-71 0 -111 -46t-46 -131h303z" />
    <glyph glyph-name="eacute" unicode="&#xe9;" horiz-adv-x="510" 
d="M403 766l-148 -176h-45l114 176h79zM468 246h-362q0 -212 170 -212q62 0 125 46l32 -44q-67 -51 -156 -51q-111 0 -169 62.5t-58 200.5q0 273 221 273q197 0 197 -228v-47zM411 295q0 88 -32.5 132.5t-113.5 44.5q-71 0 -111 -46t-46 -131h303z" />
    <glyph glyph-name="ecircumflex" unicode="&#xea;" horiz-adv-x="510" 
d="M419 590h-47l-102 129l-99 -129h-46l111 176h75zM468 246h-362q0 -212 170 -212q62 0 125 46l32 -44q-67 -51 -156 -51q-111 0 -169 62.5t-58 200.5q0 273 221 273q197 0 197 -228v-47zM411 295q0 88 -32.5 132.5t-113.5 44.5q-71 0 -111 -46t-46 -131h303z" />
    <glyph glyph-name="edieresis" unicode="&#xeb;" horiz-adv-x="510" 
d="M390 641q0 -22 -9 -31t-31 -9q-24 0 -32 10.5t-8 29.5q0 21 8.5 31t31.5 10q25 0 32.5 -10.5t7.5 -30.5zM218 641q0 -22 -9 -31t-31 -9q-24 0 -32 10.5t-8 29.5q0 21 8.5 31t31.5 10q25 0 32.5 -10.5t7.5 -30.5zM468 246h-362q0 -212 170 -212q62 0 125 46l32 -44
q-67 -51 -156 -51q-111 0 -169 62.5t-58 200.5q0 273 221 273q197 0 197 -228v-47zM411 295q0 88 -32.5 132.5t-113.5 44.5q-71 0 -111 -46t-46 -131h303z" />
    <glyph glyph-name="igrave" unicode="&#xec;" horiz-adv-x="276" 
d="M191 590h-45l-148 176h79zM190 0h-54v459h-104v47h158v-506z" />
    <glyph glyph-name="iacute" unicode="&#xed;" horiz-adv-x="276" 
d="M272 766l-148 -176h-45l114 176h79zM190 0h-54v459h-104v47h158v-506z" />
    <glyph glyph-name="icircumflex" unicode="&#xee;" horiz-adv-x="276" 
d="M287 590h-47l-102 129l-99 -129h-46l111 176h75zM190 0h-54v459h-104v47h158v-506z" />
    <glyph glyph-name="idieresis" unicode="&#xef;" horiz-adv-x="276" 
d="M262 641q0 -22 -9 -31t-31 -9q-24 0 -32 10.5t-8 29.5q0 21 8.5 31t31.5 10q25 0 32.5 -10.5t7.5 -30.5zM90 641q0 -22 -9 -31t-31 -9q-24 0 -32 10.5t-8 29.5q0 21 8.5 31t31.5 10q25 0 32.5 -10.5t7.5 -30.5zM190 0h-54v459h-104v47h158v-506z" />
    <glyph glyph-name="eth" unicode="&#xf0;" horiz-adv-x="549" 
d="M499 246q0 -121 -55 -191t-168 -70q-116 0 -171 70t-55 190q0 124 54.5 192.5t149.5 68.5q88 0 150 -50q-31 82 -130 188l-100 -65l-19 28l95 62q-38 38 -84 73h54q37 -24 66 -49l76 49l20 -27l-69 -45q186 -173 186 -424zM443 246q0 211 -170 211q-50 0 -84 -17
t-51.5 -48.5t-24.5 -66.5t-7 -80q0 -93 40 -152t130 -59t128.5 60.5t38.5 151.5z" />
    <glyph glyph-name="ntilde" unicode="&#xf1;" horiz-adv-x="564" 
d="M467 745q0 -54 -27 -94t-78 -40q-49 0 -88 41q-35 39 -52 44q-6 2 -11 2q-51 0 -56 -87h-43q0 54 27 94t79 40q49 0 88 -42q1 -1 12 -13t16.5 -16.5t16 -10t19.5 -5.5q28 0 40.5 27.5t13.5 59.5h43zM486 0h-54v304q0 81 -24.5 123t-86.5 42q-38 0 -88 -28.5t-97 -75.5
v-365h-54v506h54v-88q103 103 196 103q78 0 116 -50t38 -140v-331z" />
    <glyph glyph-name="ograve" unicode="&#xf2;" horiz-adv-x="549" 
d="M328 590h-45l-148 176h79zM499 252q0 -131 -57 -199t-167 -68t-167.5 68t-57.5 199q0 133 57 201t168 68q110 0 167 -68.5t57 -200.5zM443 252q0 45 -8 82.5t-26.5 69.5t-52.5 50t-81 18q-169 0 -169 -220q0 -96 39 -157t130 -61q47 0 81 18t52.5 49.5t26.5 68.5t8 82z
" />
    <glyph glyph-name="oacute" unicode="&#xf3;" horiz-adv-x="549" 
d="M419 766l-148 -176h-45l114 176h79zM499 252q0 -131 -57 -199t-167 -68t-167.5 68t-57.5 199q0 133 57 201t168 68q110 0 167 -68.5t57 -200.5zM443 252q0 45 -8 82.5t-26.5 69.5t-52.5 50t-81 18q-169 0 -169 -220q0 -96 39 -157t130 -61q47 0 81 18t52.5 49.5
t26.5 68.5t8 82z" />
    <glyph glyph-name="ocircumflex" unicode="&#xf4;" horiz-adv-x="549" 
d="M420 590h-47l-102 129l-99 -129h-46l111 176h75zM499 252q0 -131 -57 -199t-167 -68t-167.5 68t-57.5 199q0 133 57 201t168 68q110 0 167 -68.5t57 -200.5zM443 252q0 45 -8 82.5t-26.5 69.5t-52.5 50t-81 18q-169 0 -169 -220q0 -96 39 -157t130 -61q47 0 81 18
t52.5 49.5t26.5 68.5t8 82z" />
    <glyph glyph-name="otilde" unicode="&#xf5;" horiz-adv-x="549" 
d="M449 745q0 -54 -27 -94t-78 -40q-50 0 -88 41q-2 2 -7.5 8t-8 8.5l-7.5 7.5t-8 7t-7.5 5.5t-8 5t-8 3t-8.5 1.5q-53 0 -56 -87h-43q0 54 27 94t79 40q49 0 88 -42q2 -2 8 -9t9.5 -10l10 -9t11.5 -9t12 -5.5t13 -2.5q28 0 40.5 27.5t13.5 59.5h43zM499 252
q0 -131 -57 -199t-167 -68t-167.5 68t-57.5 199q0 133 57 201t168 68q110 0 167 -68.5t57 -200.5zM443 252q0 45 -8 82.5t-26.5 69.5t-52.5 50t-81 18q-169 0 -169 -220q0 -96 39 -157t130 -61q47 0 81 18t52.5 49.5t26.5 68.5t8 82z" />
    <glyph glyph-name="odieresis" unicode="&#xf6;" horiz-adv-x="549" 
d="M402 641q0 -22 -9 -31t-31 -9q-24 0 -32 10.5t-8 29.5q0 21 8.5 31t31.5 10q25 0 32.5 -10.5t7.5 -30.5zM230 641q0 -22 -9 -31t-31 -9q-24 0 -32 10.5t-8 29.5q0 21 8.5 31t31.5 10q25 0 32.5 -10.5t7.5 -30.5zM499 252q0 -131 -57 -199t-167 -68t-167.5 68t-57.5 199
q0 133 57 201t168 68q110 0 167 -68.5t57 -200.5zM443 252q0 45 -8 82.5t-26.5 69.5t-52.5 50t-81 18q-169 0 -169 -220q0 -96 39 -157t130 -61q47 0 81 18t52.5 49.5t26.5 68.5t8 82z" />
    <glyph glyph-name="divide" unicode="&#xf7;" 
d="M367 501q0 -22 -9 -31t-31 -9q-24 0 -32 10.5t-8 29.5q0 21 8.5 31t31.5 10q25 0 32.5 -10.5t7.5 -30.5zM584 265h-513v41h513v-41zM367 69q0 -22 -9 -31t-31 -9q-24 0 -32 10.5t-8 29.5q0 21 8.5 31t31.5 10q25 0 32.5 -10.5t7.5 -30.5z" />
    <glyph glyph-name="oslash" unicode="&#xf8;" horiz-adv-x="549" 
d="M499 252q0 -131 -57 -199t-167 -68q-77 0 -128 33l-37 -55h-54l56 84q-62 68 -62 205q0 133 57 201t168 68q78 0 130 -35l38 57h54l-58 -87q60 -68 60 -204zM443 252q0 99 -37 155l-230 -344q40 -29 99 -29q47 0 81 18t52.5 49.5t26.5 68.5t8 82zM375 441q-41 31 -100 31
q-169 0 -169 -220q0 -99 39 -156z" />
    <glyph glyph-name="ugrave" unicode="&#xf9;" horiz-adv-x="564" 
d="M343 590h-45l-148 176h79zM482 0h-54v88q-103 -103 -196 -103q-78 0 -116 50t-38 140v331h54v-304q0 -81 24.5 -123t86.5 -42q38 0 88 28.5t97 75.5v365h54v-506z" />
    <glyph glyph-name="uacute" unicode="&#xfa;" horiz-adv-x="564" 
d="M431 766l-148 -176h-45l114 176h79zM482 0h-54v88q-103 -103 -196 -103q-78 0 -116 50t-38 140v331h54v-304q0 -81 24.5 -123t86.5 -42q38 0 88 28.5t97 75.5v365h54v-506z" />
    <glyph glyph-name="ucircumflex" unicode="&#xfb;" horiz-adv-x="564" 
d="M423 590h-47l-102 129l-99 -129h-46l111 176h75zM482 0h-54v88q-103 -103 -196 -103q-78 0 -116 50t-38 140v331h54v-304q0 -81 24.5 -123t86.5 -42q38 0 88 28.5t97 75.5v365h54v-506z" />
    <glyph glyph-name="udieresis" unicode="&#xfc;" horiz-adv-x="564" 
d="M403 641q0 -22 -9 -31t-31 -9q-24 0 -32 10.5t-8 29.5q0 21 8.5 31t31.5 10q25 0 32.5 -10.5t7.5 -30.5zM231 641q0 -22 -9 -31t-31 -9q-24 0 -32 10.5t-8 29.5q0 21 8.5 31t31.5 10q25 0 32.5 -10.5t7.5 -30.5zM482 0h-54v88q-103 -103 -196 -103q-78 0 -116 50t-38 140
v331h54v-304q0 -81 24.5 -123t86.5 -42q38 0 88 28.5t97 75.5v365h54v-506z" />
    <glyph glyph-name="yacute" unicode="&#xfd;" horiz-adv-x="490" 
d="M391 766l-148 -176h-45l114 176h79zM472 506l-239 -543q-38 -87 -73.5 -121.5t-94.5 -34.5q-46 0 -77 13l16 45q17 -11 70 -11t106 120l27 62l-193 470h59l165 -406l176 406h58z" />
    <glyph glyph-name="thorn" unicode="&#xfe;" horiz-adv-x="562" 
d="M512 257q0 -118 -55 -195t-153 -77q-90 0 -168 63v-241h-54v920h54v-284q78 78 175 78q103 0 152 -72t49 -192zM456 255q0 215 -145 215q-90 0 -175 -85v-281q93 -68 164 -68q73 0 114.5 57t41.5 162z" />
    <glyph glyph-name="ydieresis" unicode="&#xff;" horiz-adv-x="490" 
d="M367 641q0 -22 -9 -31t-31 -9q-24 0 -32 10.5t-8 29.5q0 21 8.5 31t31.5 10q25 0 32.5 -10.5t7.5 -30.5zM195 641q0 -22 -9 -31t-31 -9q-24 0 -32 10.5t-8 29.5q0 21 8.5 31t31.5 10q25 0 32.5 -10.5t7.5 -30.5zM472 506l-239 -543q-38 -87 -73.5 -121.5t-94.5 -34.5
q-46 0 -77 13l16 45q17 -11 70 -11t106 120l27 62l-193 470h59l165 -406l176 406h58z" />
    <glyph glyph-name="Amacron" unicode="&#x100;" horiz-adv-x="627" 
d="M615 0h-59l-83 231h-320l-84 -231h-57l267 727h72zM455 281l-142 395l-142 -395h284zM457 780h-288v57h288v-57z" />
    <glyph glyph-name="amacron" unicode="&#x101;" horiz-adv-x="526" 
d="M448 0h-54v72q-100 -87 -190 -87q-75 0 -117 42.5t-42 110.5q0 44 15 75.5t44 48.5t60 26t74 14q47 5 156 13v31q0 70 -36 98t-107 28q-86 0 -142 -54l-39 41q68 62 182 62q103 0 149.5 -38.5t46.5 -136.5v-346zM394 124v144q-31 -3 -103 -9q-45 -4 -73 -9t-58 -17
t-44.5 -35t-14.5 -58q0 -106 112 -106q85 0 181 90zM407 607h-288v57h288v-57z" />
    <glyph glyph-name="Abreve" unicode="&#x102;" horiz-adv-x="627" 
d="M615 0h-59l-83 231h-320l-84 -231h-57l267 727h72zM455 281l-142 395l-142 -395h284zM457 918q-38 -138 -147 -138q-41 0 -73 25.5t-46.5 54t-21.5 58.5h41q18 -39 40.5 -57.5t61.5 -18.5t62 18t41 58h42z" />
    <glyph glyph-name="abreve" unicode="&#x103;" horiz-adv-x="526" 
d="M448 0h-54v72q-100 -87 -190 -87q-75 0 -117 42.5t-42 110.5q0 44 15 75.5t44 48.5t60 26t74 14q47 5 156 13v31q0 70 -36 98t-107 28q-86 0 -142 -54l-39 41q68 62 182 62q103 0 149.5 -38.5t46.5 -136.5v-346zM394 124v144q-31 -3 -103 -9q-45 -4 -73 -9t-58 -17
t-44.5 -35t-14.5 -58q0 -106 112 -106q85 0 181 90zM407 747q-38 -138 -147 -138q-41 0 -73 25.5t-46.5 54t-21.5 58.5h41q18 -39 40.5 -57.5t61.5 -18.5t62 18t41 58h42z" />
    <glyph glyph-name="Aogonek" unicode="&#x104;" horiz-adv-x="627" 
d="M615 0h-11q-13 -39 -13 -74q0 -37 16 -54t51 -17q42 0 79 17l18 -33q-49 -32 -110 -32q-52 0 -78.5 29t-26.5 76q0 42 16 88l-83 231h-320l-84 -231h-57l267 727h72zM455 281l-142 395l-142 -395h284z" />
    <glyph glyph-name="aogonek" unicode="&#x105;" horiz-adv-x="526" 
d="M448 0h-6q-13 -41 -13 -74q0 -37 16 -54t51 -17q42 0 79 17l18 -33q-49 -32 -110 -32q-52 0 -78.5 29t-26.5 76q0 42 16 88v72q-100 -87 -190 -87q-75 0 -117 42.5t-42 110.5q0 44 15 75.5t44 48.5t60 26t74 14q47 5 156 13v31q0 70 -36 98t-107 28q-86 0 -142 -54
l-39 41q68 62 182 62q103 0 149.5 -38.5t46.5 -136.5v-346zM394 124v144q-31 -3 -103 -9q-45 -4 -73 -9t-58 -17t-44.5 -35t-14.5 -58q0 -106 112 -106q85 0 181 90z" />
    <glyph glyph-name="Cacute" unicode="&#x106;" horiz-adv-x="663" 
d="M623 610l-46 -30q-25 44 -74.5 77t-125.5 33q-140 0 -199.5 -81.5t-59.5 -245.5q0 -169 61 -247.5t199 -78.5q105 0 187 64l35 -44q-91 -72 -222 -72q-161 0 -239.5 90.5t-78.5 287.5q0 196 78.5 287.5t239.5 91.5q87 0 150 -35.5t95 -96.5zM500 956l-148 -176h-45
l114 176h79z" />
    <glyph glyph-name="cacute" unicode="&#x107;" horiz-adv-x="477" 
d="M452 434l-45 -28q-42 66 -133 66q-168 0 -168 -220q0 -218 170 -218q65 0 130 47l32 -44q-72 -52 -161 -52q-124 0 -175.5 71t-51.5 196q0 269 229 269q121 0 173 -87zM397 766l-148 -176h-45l114 176h79z" />
    <glyph glyph-name="Ccircumflex" unicode="&#x108;" horiz-adv-x="663" 
d="M623 610l-46 -30q-25 44 -74.5 77t-125.5 33q-140 0 -199.5 -81.5t-59.5 -245.5q0 -169 61 -247.5t199 -78.5q105 0 187 64l35 -44q-91 -72 -222 -72q-161 0 -239.5 90.5t-78.5 287.5q0 196 78.5 287.5t239.5 91.5q87 0 150 -35.5t95 -96.5zM515 780h-47l-102 129
l-99 -129h-46l111 176h75z" />
    <glyph glyph-name="ccircumflex" unicode="&#x109;" horiz-adv-x="477" 
d="M452 434l-45 -28q-42 66 -133 66q-168 0 -168 -220q0 -218 170 -218q65 0 130 47l32 -44q-72 -52 -161 -52q-124 0 -175.5 71t-51.5 196q0 269 229 269q121 0 173 -87zM413 590h-47l-102 129l-99 -129h-46l111 176h75z" />
    <glyph glyph-name="Cdotaccent" unicode="&#x10a;" horiz-adv-x="663" 
d="M623 610l-46 -30q-25 44 -74.5 77t-125.5 33q-140 0 -199.5 -81.5t-59.5 -245.5q0 -169 61 -247.5t199 -78.5q105 0 187 64l35 -44q-91 -72 -222 -72q-161 0 -239.5 90.5t-78.5 287.5q0 196 78.5 287.5t239.5 91.5q87 0 150 -35.5t95 -96.5zM406 820q0 -22 -9 -31t-31 -9
q-25 0 -32.5 10t-7.5 30q0 21 8.5 31t31.5 10q25 0 32.5 -10.5t7.5 -30.5z" />
    <glyph glyph-name="cdotaccent" unicode="&#x10b;" horiz-adv-x="477" 
d="M452 434l-45 -28q-42 66 -133 66q-168 0 -168 -220q0 -218 170 -218q65 0 130 47l32 -44q-72 -52 -161 -52q-124 0 -175.5 71t-51.5 196q0 269 229 269q121 0 173 -87zM307 641q0 -22 -9 -31t-31 -9q-25 0 -32.5 10t-7.5 30q0 21 8.5 31t31.5 10q25 0 32.5 -10.5
t7.5 -30.5z" />
    <glyph glyph-name="Ccaron" unicode="&#x10c;" horiz-adv-x="663" 
d="M623 610l-46 -30q-25 44 -74.5 77t-125.5 33q-140 0 -199.5 -81.5t-59.5 -245.5q0 -169 61 -247.5t199 -78.5q105 0 187 64l35 -44q-91 -72 -222 -72q-161 0 -239.5 90.5t-78.5 287.5q0 196 78.5 287.5t239.5 91.5q87 0 150 -35.5t95 -96.5zM524 956l-111 -176h-75
l-108 176h47l102 -129l99 129h46z" />
    <glyph glyph-name="ccaron" unicode="&#x10d;" horiz-adv-x="477" 
d="M452 434l-45 -28q-42 66 -133 66q-168 0 -168 -220q0 -218 170 -218q65 0 130 47l32 -44q-72 -52 -161 -52q-124 0 -175.5 71t-51.5 196q0 269 229 269q121 0 173 -87zM415 766l-111 -176h-75l-108 176h47l102 -129l99 129h46z" />
    <glyph glyph-name="Dcaron" unicode="&#x10e;" horiz-adv-x="721" 
d="M661 363q0 -105 -22.5 -176t-71 -112t-115.5 -58t-164 -17h-198v727h216q184 0 269.5 -82t85.5 -282zM603 364q0 93 -18.5 154t-59.5 95.5t-97 48t-140 13.5h-143v-623h143q171 0 243 67.5t72 244.5zM485 956l-111 -176h-75l-108 176h47l102 -129l99 129h46z" />
    <glyph glyph-name="dcaron" unicode="&#x10f;" horiz-adv-x="562" 
d="M480 0h-54v63q-74 -78 -172 -78q-105 0 -154.5 71.5t-49.5 192.5q0 118 55 195t153 77q90 0 168 -63v269h54v-727zM426 121v281q-86 68 -164 68q-73 0 -114.5 -57t-41.5 -162q0 -215 145 -215q84 0 175 85zM603 673q0 -100 -50 -173h-40q42 67 42 126q0 12 -1 16
q-21 0 -32 9.5t-11 35.5q0 40 44 40q26 0 37 -13t11 -41z" />
    <glyph glyph-name="Dcroat" unicode="&#x110;" horiz-adv-x="721" 
d="M661 363q0 -105 -22.5 -176t-71 -112t-115.5 -58t-164 -17h-198v344h-72v48h72v335h216q184 0 269.5 -82t85.5 -282zM603 364q0 93 -18.5 154t-59.5 95.5t-97 48t-140 13.5h-143v-283h213v-48h-213v-292h143q171 0 243 67.5t72 244.5z" />
    <glyph glyph-name="dcroat" unicode="&#x111;" horiz-adv-x="562" 
d="M480 0h-54v63q-74 -78 -172 -78q-105 0 -154.5 71.5t-49.5 192.5q0 118 55 195t153 77q90 0 168 -63v137h-213v49h213v83h54v-83h57v-49h-57v-595zM426 121v281q-86 68 -164 68q-73 0 -114.5 -57t-41.5 -162q0 -215 145 -215q84 0 175 85z" />
    <glyph glyph-name="Emacron" unicode="&#x112;" horiz-adv-x="581" 
d="M526 0h-436v727h436v-52h-381v-263h349v-52h-349v-308h381v-52zM452 780h-288v57h288v-57z" />
    <glyph glyph-name="emacron" unicode="&#x113;" horiz-adv-x="510" 
d="M468 246h-362q0 -212 170 -212q62 0 125 46l32 -44q-67 -51 -156 -51q-111 0 -169 62.5t-58 200.5q0 273 221 273q197 0 197 -228v-47zM411 295q0 88 -32.5 132.5t-113.5 44.5q-71 0 -111 -46t-46 -131h303zM416 607h-288v57h288v-57z" />
    <glyph glyph-name="Ebreve" unicode="&#x114;" horiz-adv-x="581" 
d="M526 0h-436v727h436v-52h-381v-263h349v-52h-349v-308h381v-52zM457 918q-38 -138 -147 -138q-41 0 -73 25.5t-46.5 54t-21.5 58.5h41q18 -39 40.5 -57.5t61.5 -18.5t62 18t41 58h42z" />
    <glyph glyph-name="ebreve" unicode="&#x115;" horiz-adv-x="510" 
d="M468 246h-362q0 -212 170 -212q62 0 125 46l32 -44q-67 -51 -156 -51q-111 0 -169 62.5t-58 200.5q0 273 221 273q197 0 197 -228v-47zM411 295q0 88 -32.5 132.5t-113.5 44.5q-71 0 -111 -46t-46 -131h303zM409 747q-38 -138 -147 -138q-41 0 -73 25.5t-46.5 54
t-21.5 58.5h41q18 -39 40.5 -57.5t61.5 -18.5t62 18t41 58h42z" />
    <glyph glyph-name="Edotaccent" unicode="&#x116;" horiz-adv-x="581" 
d="M526 0h-436v727h436v-52h-381v-263h349v-52h-349v-308h381v-52zM345 820q0 -22 -9 -31t-31 -9q-25 0 -32.5 10t-7.5 30q0 21 8.5 31t31.5 10q25 0 32.5 -10.5t7.5 -30.5z" />
    <glyph glyph-name="edotaccent" unicode="&#x117;" horiz-adv-x="510" 
d="M468 246h-362q0 -212 170 -212q62 0 125 46l32 -44q-67 -51 -156 -51q-111 0 -169 62.5t-58 200.5q0 273 221 273q197 0 197 -228v-47zM411 295q0 88 -32.5 132.5t-113.5 44.5q-71 0 -111 -46t-46 -131h303zM307 641q0 -22 -9 -31t-31 -9q-25 0 -32.5 10t-7.5 30
q0 21 8.5 31t31.5 10q25 0 32.5 -10.5t7.5 -30.5z" />
    <glyph glyph-name="Eogonek" unicode="&#x118;" horiz-adv-x="581" 
d="M526 -161q-49 -32 -110 -32q-52 0 -78.5 29t-26.5 76q0 42 16 88h-237v727h436v-52h-381v-263h349v-52h-349v-308h381v-52h-152q-12 -36 -12 -74q0 -37 16 -54t51 -17q42 0 79 17z" />
    <glyph glyph-name="eogonek" unicode="&#x119;" horiz-adv-x="510" 
d="M468 -161q-49 -32 -110 -32q-52 0 -78.5 29t-26.5 76q0 34 11 73q-105 4 -159.5 66.5t-54.5 196.5q0 273 221 273q197 0 197 -228v-47h-362q0 -212 170 -212q62 0 125 46l32 -44q-54 -41 -120 -49q-9 -32 -9 -61q0 -37 16 -54t51 -17q42 0 79 17zM411 295
q0 88 -32.5 132.5t-113.5 44.5q-71 0 -111 -46t-46 -131h303z" />
    <glyph glyph-name="Ecaron" unicode="&#x11a;" horiz-adv-x="581" 
d="M526 0h-436v727h436v-52h-381v-263h349v-52h-349v-308h381v-52zM462 956l-111 -176h-75l-108 176h47l102 -129l99 129h46z" />
    <glyph glyph-name="ecaron" unicode="&#x11b;" horiz-adv-x="510" 
d="M468 246h-362q0 -212 170 -212q62 0 125 46l32 -44q-67 -51 -156 -51q-111 0 -169 62.5t-58 200.5q0 273 221 273q197 0 197 -228v-47zM411 295q0 88 -32.5 132.5t-113.5 44.5q-71 0 -111 -46t-46 -131h303zM416 766l-111 -176h-75l-108 176h47l102 -129l99 129h46z" />
    <glyph glyph-name="Gcircumflex" unicode="&#x11c;" horiz-adv-x="714" 
d="M634 610l-46 -30q-68 110 -207 110q-134 0 -198.5 -78.5t-64.5 -242.5q0 -169 63 -250.5t206 -81.5q90 0 191 47v194h-174v50h229v-273q-122 -70 -237 -70q-175 0 -255.5 93t-80.5 287q0 184 77.5 280.5t245.5 96.5q176 0 251 -132zM517 780h-47l-102 129l-99 -129h-46
l111 176h75z" />
    <glyph glyph-name="gcircumflex" unicode="&#x11d;" horiz-adv-x="560" 
d="M545 459h-73v-456q0 -100 -51.5 -148t-171.5 -48q-44 0 -89 14t-64 27l24 49q23 -16 61.5 -28.5t72.5 -12.5q84 0 124 34t40 112v69q-78 -71 -168 -71q-100 0 -150 68.5t-50 189.5q0 47 11 91.5t34 84t64.5 63.5t96.5 24q81 0 165 -61v46h124v-47zM418 129v277
q-85 64 -159 64q-79 0 -116 -62.5t-37 -147.5q0 -94 33.5 -152t109.5 -58q80 0 169 79zM411 590h-47l-102 129l-99 -129h-46l111 176h75z" />
    <glyph glyph-name="Gbreve" unicode="&#x11e;" horiz-adv-x="714" 
d="M634 610l-46 -30q-68 110 -207 110q-134 0 -198.5 -78.5t-64.5 -242.5q0 -169 63 -250.5t206 -81.5q90 0 191 47v194h-174v50h229v-273q-122 -70 -237 -70q-175 0 -255.5 93t-80.5 287q0 184 77.5 280.5t245.5 96.5q176 0 251 -132zM509 918q-38 -138 -147 -138
q-41 0 -73 25.5t-46.5 54t-21.5 58.5h41q18 -39 40.5 -57.5t61.5 -18.5t62 18t41 58h42z" />
    <glyph glyph-name="gbreve" unicode="&#x11f;" horiz-adv-x="560" 
d="M545 459h-73v-456q0 -100 -51.5 -148t-171.5 -48q-44 0 -89 14t-64 27l24 49q23 -16 61.5 -28.5t72.5 -12.5q84 0 124 34t40 112v69q-78 -71 -168 -71q-100 0 -150 68.5t-50 189.5q0 47 11 91.5t34 84t64.5 63.5t96.5 24q81 0 165 -61v46h124v-47zM418 129v277
q-85 64 -159 64q-79 0 -116 -62.5t-37 -147.5q0 -94 33.5 -152t109.5 -58q80 0 169 79zM403 747q-38 -138 -147 -138q-41 0 -73 25.5t-46.5 54t-21.5 58.5h41q18 -39 40.5 -57.5t61.5 -18.5t62 18t41 58h42z" />
    <glyph glyph-name="Gdotaccent" unicode="&#x120;" horiz-adv-x="714" 
d="M634 610l-46 -30q-68 110 -207 110q-134 0 -198.5 -78.5t-64.5 -242.5q0 -169 63 -250.5t206 -81.5q90 0 191 47v194h-174v50h229v-273q-122 -70 -237 -70q-175 0 -255.5 93t-80.5 287q0 184 77.5 280.5t245.5 96.5q176 0 251 -132zM417 820q0 -22 -9 -31t-31 -9
q-25 0 -32.5 10t-7.5 30q0 21 8.5 31t31.5 10q25 0 32.5 -10.5t7.5 -30.5z" />
    <glyph glyph-name="gdotaccent" unicode="&#x121;" horiz-adv-x="560" 
d="M545 459h-73v-456q0 -100 -51.5 -148t-171.5 -48q-44 0 -89 14t-64 27l24 49q23 -16 61.5 -28.5t72.5 -12.5q84 0 124 34t40 112v69q-78 -71 -168 -71q-100 0 -150 68.5t-50 189.5q0 47 11 91.5t34 84t64.5 63.5t96.5 24q81 0 165 -61v46h124v-47zM418 129v277
q-85 64 -159 64q-79 0 -116 -62.5t-37 -147.5q0 -94 33.5 -152t109.5 -58q80 0 169 79zM295 641q0 -22 -9 -31t-31 -9q-25 0 -32.5 10t-7.5 30q0 21 8.5 31t31.5 10q25 0 32.5 -10.5t7.5 -30.5z" />
    <glyph glyph-name="Gcommaaccent" unicode="&#x122;" horiz-adv-x="714" 
d="M634 610l-46 -30q-68 110 -207 110q-134 0 -198.5 -78.5t-64.5 -242.5q0 -169 63 -250.5t206 -81.5q90 0 191 47v194h-174v50h229v-273q-122 -70 -237 -70q-175 0 -255.5 93t-80.5 287q0 184 77.5 280.5t245.5 96.5q176 0 251 -132zM438 -82q0 -55 -31 -111h-40
q22 39 22 80q-43 0 -43 45q0 40 44 40q26 0 37 -13t11 -41z" />
    <glyph glyph-name="gcommaaccent" unicode="&#x123;" horiz-adv-x="560" 
d="M545 459h-73v-456q0 -100 -51.5 -148t-171.5 -48q-44 0 -89 14t-64 27l24 49q23 -16 61.5 -28.5t72.5 -12.5q84 0 124 34t40 112v69q-78 -71 -168 -71q-100 0 -150 68.5t-50 189.5q0 47 11 91.5t34 84t64.5 63.5t96.5 24q81 0 165 -61v46h124v-47zM418 129v277
q-85 64 -159 64q-79 0 -116 -62.5t-37 -147.5q0 -94 33.5 -152t109.5 -58q80 0 169 79zM211 655q0 55 31 111h40q-22 -38 -22 -80q43 0 43 -45q0 -40 -44 -40q-26 0 -37 13t-11 41z" />
    <glyph glyph-name="Hcircumflex" unicode="&#x124;" horiz-adv-x="687" 
d="M597 0h-55v350h-397v-350h-55v727h55v-327h397v327h55v-727zM485 780h-47l-102 129l-99 -129h-46l111 176h75z" />
    <glyph glyph-name="hcircumflex" unicode="&#x125;" horiz-adv-x="564" 
d="M486 0h-54v304q0 81 -24.5 123t-86.5 42q-38 0 -88 -28.5t-97 -75.5v-365h-54v727h54v-309q103 103 196 103q78 0 116 -50t38 -140v-331zM375 780h-47l-102 129l-99 -129h-46l111 176h75z" />
    <glyph glyph-name="Hbar" unicode="&#x126;" horiz-adv-x="687" 
d="M597 0h-55v350h-397v-350h-55v521h-53v48h53v158h55v-158h397v158h55v-158h53v-48h-53v-521zM145 400h397v121h-397v-121z" />
    <glyph glyph-name="hbar" unicode="&#x127;" horiz-adv-x="564" 
d="M486 0h-54v304q0 81 -24.5 123t-86.5 42q-38 0 -88 -28.5t-97 -75.5v-365h-54v595h-60v49h60v83h54v-83h210v-49h-210v-177q103 103 196 103q78 0 116 -50t38 -140v-331z" />
    <glyph glyph-name="Itilde" unicode="&#x128;" horiz-adv-x="333" 
d="M283 0h-233v47h89v633h-89v47h233v-47h-89v-633h89v-47zM344 914q0 -54 -27 -94t-78 -40q-49 0 -88 41q-2 2 -7.5 8t-8 8.5l-7.5 7.5t-8 7t-7.5 5.5t-8 5t-8 3t-8.5 1.5q-51 0 -56 -87h-43q0 54 27 94t79 40q49 0 88 -42q2 -2 8 -9t9.5 -10l10 -9t11.5 -9t12 -5.5
t13 -2.5q28 0 40.5 27.5t13.5 59.5h43z" />
    <glyph glyph-name="itilde" unicode="&#x129;" horiz-adv-x="276" 
d="M190 0h-54v459h-104v47h158v-506zM316 745q0 -54 -27 -94t-78 -40q-49 0 -88 41q-2 2 -7.5 8t-8 8.5l-7.5 7.5t-8 7t-7.5 5.5t-8 5t-8 3t-8.5 1.5q-51 0 -56 -87h-43q0 54 27 94t79 40q49 0 88 -42q2 -2 8 -9t9.5 -10l10 -9t11.5 -9t12 -5.5t13 -2.5q28 0 40.5 27.5
t13.5 59.5h43z" />
    <glyph glyph-name="Imacron" unicode="&#x12a;" horiz-adv-x="333" 
d="M283 0h-233v47h89v633h-89v47h233v-47h-89v-633h89v-47zM311 780h-288v57h288v-57z" />
    <glyph glyph-name="imacron" unicode="&#x12b;" horiz-adv-x="276" 
d="M190 0h-54v459h-104v47h158v-506zM282 607h-288v57h288v-57z" />
    <glyph glyph-name="Ibreve" unicode="&#x12c;" horiz-adv-x="333" 
d="M283 0h-233v47h89v633h-89v47h233v-47h-89v-633h89v-47zM311 918q-38 -138 -147 -138q-41 0 -73 25.5t-46.5 54t-21.5 58.5h41q18 -39 40.5 -57.5t61.5 -18.5t62 18t41 58h42z" />
    <glyph glyph-name="ibreve" unicode="&#x12d;" horiz-adv-x="276" 
d="M190 0h-54v459h-104v47h158v-506zM282 747q-38 -138 -147 -138q-41 0 -73 25.5t-46.5 54t-21.5 58.5h41q18 -39 40.5 -57.5t61.5 -18.5t62 18t41 58h42z" />
    <glyph glyph-name="Iogonek" unicode="&#x12e;" horiz-adv-x="333" 
d="M329 -161q-49 -32 -110 -32q-52 0 -78.5 29t-26.5 76q0 42 16 88h-80v47h89v633h-89v47h233v-47h-89v-633h89v-47h-106q-12 -36 -12 -74q0 -37 16 -54t51 -17q42 0 79 17z" />
    <glyph glyph-name="iogonek" unicode="&#x12f;" horiz-adv-x="276" 
d="M190 0h-6q-13 -41 -13 -74q0 -37 16 -54t51 -17q42 0 79 17l18 -33q-49 -32 -110 -32q-52 0 -78.5 29t-26.5 76q0 42 16 88v459h-104v47h158v-506zM198 641q0 -22 -9 -31t-31 -9q-24 0 -32 10.5t-8 29.5q0 21 8.5 31t31.5 10q25 0 32.5 -10.5t7.5 -30.5z" />
    <glyph glyph-name="Idotaccent" unicode="&#x130;" horiz-adv-x="333" 
d="M283 0h-233v47h89v633h-89v47h233v-47h-89v-633h89v-47zM203 820q0 -22 -9 -31t-31 -9q-25 0 -32.5 10t-7.5 30q0 21 8.5 31t31.5 10q25 0 32.5 -10.5t7.5 -30.5z" />
    <glyph glyph-name="dotlessi" unicode="&#x131;" horiz-adv-x="276" 
d="M190 0h-54v459h-104v47h158v-506z" />
    <glyph glyph-name="IJ" unicode="&#x132;" horiz-adv-x="710" 
d="M283 0h-233v47h89v633h-89v47h233v-47h-89v-633h89v-47zM625 168q0 -92 -36.5 -137.5t-135.5 -45.5q-54 0 -108 25l22 49q40 -22 92 -22q69 0 90 35t21 130v478h-155v47h210v-559z" />
    <glyph glyph-name="ij" unicode="&#x133;" horiz-adv-x="552" 
d="M198 641q0 -22 -9 -31t-31 -9q-24 0 -32 10.5t-8 29.5q0 21 8.5 31t31.5 10q25 0 32.5 -10.5t7.5 -30.5zM190 0h-54v459h-104v47h158v-506zM474 641q0 -22 -9 -31t-31 -9q-24 0 -32 10.5t-8 29.5q0 21 8.5 31t31.5 10q25 0 32.5 -10.5t7.5 -30.5zM466 -36
q0 -82 -33.5 -119.5t-116.5 -37.5q-46 0 -80 13l15 50q38 -15 76 -15q49 0 67 29.5t18 97.5v477h-104v47h158v-542z" />
    <glyph glyph-name="Jcircumflex" unicode="&#x134;" horiz-adv-x="377" 
d="M292 168q0 -92 -36.5 -137.5t-135.5 -45.5q-54 0 -108 25l22 49q40 -22 92 -22q69 0 90 35t21 130v478h-155v47h210v-559zM338 780h-47l-102 129l-99 -129h-46l111 176h75z" />
    <glyph glyph-name="jcircumflex" unicode="&#x135;" horiz-adv-x="276" 
d="M190 -36q0 -82 -33.5 -119.5t-116.5 -37.5q-46 0 -80 13l15 50q38 -15 76 -15q49 0 67 29.5t18 97.5v477h-104v47h158v-542zM260 590h-47l-102 129l-99 -129h-46l111 176h75z" />
    <glyph glyph-name="Kcommaaccent" unicode="&#x136;" horiz-adv-x="622" 
d="M608 0h-65l-252 400l-146 -154v-246h-55v727h55v-412l383 412h71l-271 -286zM357 -82q0 -55 -31 -111h-40q22 39 22 80q-43 0 -43 45q0 40 44 40q26 0 37 -13t11 -41z" />
    <glyph glyph-name="kcommaaccent" unicode="&#x137;" horiz-adv-x="491" 
d="M481 0h-69l-183 261l-93 -94v-167h-54v727h54v-491l264 270h74l-208 -209zM291 -82q0 -55 -31 -111h-40q22 39 22 80q-43 0 -43 45q0 40 44 40q26 0 37 -13t11 -41z" />
    <glyph glyph-name="kgreenlandic" unicode="&#x138;" horiz-adv-x="491" 
d="M481 0h-69l-183 261l-93 -94v-167h-54v507h54v-271l264 270h74l-208 -209z" />
    <glyph glyph-name="Lacute" unicode="&#x139;" horiz-adv-x="510" 
d="M498 0h-408v727h55v-675h353v-52zM322 956l-148 -176h-45l114 176h79z" />
    <glyph glyph-name="lacute" unicode="&#x13a;" horiz-adv-x="265" 
d="M263 -7q-32 -8 -69 -8q-61 0 -86.5 35t-25.5 107v583l54 40v-614q0 -57 13.5 -81.5t51.5 -24.5q30 0 50 7zM280 956l-148 -176h-45l114 176h79z" />
    <glyph glyph-name="Lcommaaccent" unicode="&#x13b;" horiz-adv-x="510" 
d="M498 0h-408v727h55v-675h353v-52zM352 -82q0 -55 -31 -111h-40q22 39 22 80q-43 0 -43 45q0 40 44 40q26 0 37 -13t11 -41z" />
    <glyph glyph-name="lcommaaccent" unicode="&#x13c;" horiz-adv-x="265" 
d="M263 -7q-32 -8 -69 -8q-61 0 -86.5 35t-25.5 107v583l54 40v-614q0 -57 13.5 -81.5t51.5 -24.5q30 0 50 7zM232 -82q0 -55 -31 -111h-40q22 39 22 80q-43 0 -43 45q0 40 44 40q26 0 37 -13t11 -41z" />
    <glyph glyph-name="Lcaron" unicode="&#x13d;" horiz-adv-x="510" 
d="M498 0h-408v727h55v-675h353v-52zM402 673q0 -100 -50 -173h-40q42 67 42 126q0 12 -1 16q-21 0 -32 9.5t-11 35.5q0 40 44 40q26 0 37 -13t11 -41z" />
    <glyph glyph-name="lcaron" unicode="&#x13e;" horiz-adv-x="265" 
d="M263 -7q-32 -8 -69 -8q-61 0 -86.5 35t-25.5 107v583l54 40v-614q0 -57 13.5 -81.5t51.5 -24.5q30 0 50 7zM270 673q0 -100 -50 -173h-40q42 67 42 126q0 12 -1 16q-21 0 -32 9.5t-11 35.5q0 40 44 40q26 0 37 -13t11 -41z" />
    <glyph glyph-name="Ldot" unicode="&#x13f;" horiz-adv-x="510" 
d="M498 0h-408v727h55v-675h353v-52zM413 360q0 -24 -10 -33t-36 -9q-27 0 -36.5 10t-9.5 32q0 24 10 33.5t36 9.5q27 0 36.5 -9.5t9.5 -33.5z" />
    <glyph glyph-name="ldot" unicode="&#x140;" horiz-adv-x="265" 
d="M263 -7q-32 -8 -69 -8q-61 0 -86.5 35t-25.5 107v583l54 40v-614q0 -57 13.5 -81.5t51.5 -24.5q30 0 50 7zM276 359q0 -22 -9 -31t-31 -9q-25 0 -32.5 10t-7.5 30q0 21 8.5 31t31.5 10q25 0 32.5 -10.5t7.5 -30.5z" />
    <glyph glyph-name="Lslash" unicode="&#x141;" horiz-adv-x="510" 
d="M498 0h-408v285l-90 -76v58l90 76v384h55v-337l125 106v-58l-125 -106v-280h353v-52z" />
    <glyph glyph-name="lslash" unicode="&#x142;" horiz-adv-x="265" 
d="M263 -7q-32 -8 -69 -8q-61 0 -86.5 35t-25.5 107v174l-77 -71v56l77 71v353l54 40v-344l92 85v-56l-92 -85v-214q0 -57 13.5 -81.5t51.5 -24.5q30 0 50 7z" />
    <glyph glyph-name="Nacute" unicode="&#x143;" horiz-adv-x="695" 
d="M605 0h-79l-381 661v-661h-55v727h78l382 -662v662h55v-727zM498 956l-148 -176h-45l114 176h79z" />
    <glyph glyph-name="nacute" unicode="&#x144;" horiz-adv-x="564" 
d="M486 0h-54v304q0 81 -24.5 123t-86.5 42q-38 0 -88 -28.5t-97 -75.5v-365h-54v506h54v-88q103 103 196 103q78 0 116 -50t38 -140v-331zM379 766l-148 -176h-45l114 176h79z" />
    <glyph glyph-name="Ncommaaccent" unicode="&#x145;" horiz-adv-x="695" 
d="M605 0h-79l-381 661v-661h-55v727h78l382 -662v662h55v-727zM393 -82q0 -55 -31 -111h-40q22 39 22 80q-43 0 -43 45q0 40 44 40q26 0 37 -13t11 -41z" />
    <glyph glyph-name="ncommaaccent" unicode="&#x146;" horiz-adv-x="564" 
d="M486 0h-54v304q0 81 -24.5 123t-86.5 42q-38 0 -88 -28.5t-97 -75.5v-365h-54v506h54v-88q103 103 196 103q78 0 116 -50t38 -140v-331zM328 -82q0 -55 -31 -111h-40q22 39 22 80q-43 0 -43 45q0 40 44 40q26 0 37 -13t11 -41z" />
    <glyph glyph-name="Ncaron" unicode="&#x147;" horiz-adv-x="695" 
d="M605 0h-79l-381 661v-661h-55v727h78l382 -662v662h55v-727zM520 956l-111 -176h-75l-108 176h47l102 -129l99 129h46z" />
    <glyph glyph-name="ncaron" unicode="&#x148;" horiz-adv-x="564" 
d="M486 0h-54v304q0 81 -24.5 123t-86.5 42q-38 0 -88 -28.5t-97 -75.5v-365h-54v506h54v-88q103 103 196 103q78 0 116 -50t38 -140v-331zM448 766l-111 -176h-75l-108 176h47l102 -129l99 129h46z" />
    <glyph glyph-name="napostrophe" unicode="&#x149;" horiz-adv-x="582" 
d="M504 0h-54v304q0 81 -24.5 123t-86.5 42q-38 0 -88 -28.5t-97 -75.5v-365h-54v506h54v-88q103 103 196 103q78 0 116 -50t38 -140v-331zM82 708q0 -100 -50 -173h-40q42 67 42 126q0 12 -1 16q-21 0 -32 9.5t-11 35.5q0 40 44 40q26 0 37 -13t11 -41z" />
    <glyph glyph-name="Eng" unicode="&#x14a;" horiz-adv-x="695" 
d="M605 -10q0 -92 -36.5 -137.5t-135.5 -45.5q-54 0 -108 25l22 49q40 -22 92 -22q64 0 87.5 31t23.5 110v479q0 106 -37 160.5t-119 54.5q-110 0 -249 -137v-557h-55v727h55v-116q67 66 129.5 98.5t133.5 32.5q100 0 148.5 -64t48.5 -178v-510z" />
    <glyph glyph-name="eng" unicode="&#x14b;" horiz-adv-x="564" 
d="M486 -36q0 -82 -33.5 -119.5t-116.5 -37.5q-46 0 -80 13l15 50q38 -15 76 -15q49 0 67 29.5t18 97.5v322q0 81 -24.5 123t-86.5 42q-38 0 -88 -28.5t-97 -75.5v-365h-54v506h54v-88q103 103 196 103q78 0 116 -50t38 -140v-367z" />
    <glyph glyph-name="Omacron" unicode="&#x14c;" horiz-adv-x="737" 
d="M677 363q0 -183 -71.5 -280.5t-237.5 -97.5q-165 0 -236.5 98t-71.5 280q0 183 71.5 281t236.5 98t237 -98t72 -281zM619 363q0 164 -57.5 245.5t-193.5 81.5t-193 -81.5t-57 -245.5q0 -162 57 -244t193 -82t193.5 82t57.5 244zM512 780h-288v57h288v-57z" />
    <glyph glyph-name="omacron" unicode="&#x14d;" horiz-adv-x="549" 
d="M499 252q0 -131 -57 -199t-167 -68t-167.5 68t-57.5 199q0 133 57 201t168 68q110 0 167 -68.5t57 -200.5zM443 252q0 45 -8 82.5t-26.5 69.5t-52.5 50t-81 18q-169 0 -169 -220q0 -96 39 -157t130 -61q47 0 81 18t52.5 49.5t26.5 68.5t8 82zM420 607h-288v57h288v-57z
" />
    <glyph glyph-name="Obreve" unicode="&#x14e;" horiz-adv-x="737" 
d="M677 363q0 -183 -71.5 -280.5t-237.5 -97.5q-165 0 -236.5 98t-71.5 280q0 183 71.5 281t236.5 98t237 -98t72 -281zM619 363q0 164 -57.5 245.5t-193.5 81.5t-193 -81.5t-57 -245.5q0 -162 57 -244t193 -82t193.5 82t57.5 244zM512 918q-38 -138 -147 -138
q-41 0 -73 25.5t-46.5 54t-21.5 58.5h41q18 -39 40.5 -57.5t61.5 -18.5t62 18t41 58h42z" />
    <glyph glyph-name="obreve" unicode="&#x14f;" horiz-adv-x="549" 
d="M499 252q0 -131 -57 -199t-167 -68t-167.5 68t-57.5 199q0 133 57 201t168 68q110 0 167 -68.5t57 -200.5zM443 252q0 45 -8 82.5t-26.5 69.5t-52.5 50t-81 18q-169 0 -169 -220q0 -96 39 -157t130 -61q47 0 81 18t52.5 49.5t26.5 68.5t8 82zM425 747q-38 -138 -147 -138
q-41 0 -73 25.5t-46.5 54t-21.5 58.5h41q18 -39 40.5 -57.5t61.5 -18.5t62 18t41 58h42z" />
    <glyph glyph-name="Ohungarumlaut" unicode="&#x150;" horiz-adv-x="737" 
d="M677 363q0 -183 -71.5 -280.5t-237.5 -97.5q-165 0 -236.5 98t-71.5 280q0 183 71.5 281t236.5 98t237 -98t72 -281zM619 363q0 164 -57.5 245.5t-193.5 81.5t-193 -81.5t-57 -245.5q0 -162 57 -244t193 -82t193.5 82t57.5 244zM569 956l-148 -176h-45l114 176h79z
M399 956l-148 -176h-45l114 176h79z" />
    <glyph glyph-name="ohungarumlaut" unicode="&#x151;" horiz-adv-x="549" 
d="M499 252q0 -131 -57 -199t-167 -68t-167.5 68t-57.5 199q0 133 57 201t168 68q110 0 167 -68.5t57 -200.5zM443 252q0 45 -8 82.5t-26.5 69.5t-52.5 50t-81 18q-169 0 -169 -220q0 -96 39 -157t130 -61q47 0 81 18t52.5 49.5t26.5 68.5t8 82zM503 766l-148 -176h-45
l114 176h79zM333 766l-148 -176h-45l114 176h79z" />
    <glyph glyph-name="OE" unicode="&#x152;" horiz-adv-x="934" 
d="M879 0h-397q-52 -15 -114 -15q-163 0 -235.5 97t-72.5 281q0 185 72.5 282t235.5 97q64 0 113 -15h398v-52h-329v-263h297v-52h-297v-308h329v-52zM495 59v609q-59 22 -127 22q-136 0 -193 -81.5t-57 -245.5q0 -162 57 -244t193 -82q69 0 127 22z" />
    <glyph glyph-name="oe" unicode="&#x153;" horiz-adv-x="873" 
d="M831 246h-347q0 -212 163 -212q60 0 117 46l32 -44q-24 -20 -62.5 -35.5t-77.5 -15.5q-76 0 -123 25.5t-77 84.5q-31 -57 -75 -83.5t-112 -26.5q-219 0 -219 267q0 133 56 201t163 68q71 0 115 -28t72 -84q52 112 185 112q103 0 146.5 -60t43.5 -168v-47zM774 295
q0 88 -30.5 132.5t-108.5 44.5q-66 0 -106 -46t-43 -131h288zM429 252q0 220 -160 220q-46 0 -79 -18t-50.5 -50t-25.5 -69.5t-8 -82.5q0 -218 163 -218q160 0 160 218z" />
    <glyph glyph-name="Racute" unicode="&#x154;" horiz-adv-x="633" 
d="M588 0h-58l-56 214q-14 53 -37.5 77t-67.5 24h-224v-315h-55v727h228q118 0 179.5 -43.5t61.5 -152.5q0 -148 -109 -191q51 -19 72 -98zM503 530q0 82 -45 114.5t-151 32.5h-162v-312h159q112 0 155.5 37t43.5 128zM444 956l-148 -176h-45l114 176h79z" />
    <glyph glyph-name="racute" unicode="&#x155;" horiz-adv-x="343" 
d="M336 504l-19 -52q-12 6 -28 6q-15 0 -30.5 -4.5t-25.5 -8t-27 -16t-21.5 -16.5l-25 -22.5t-23.5 -21.5v-369h-54v506h54v-82q50 46 84.5 68t70.5 22q25 0 45 -10zM311 766l-148 -176h-45l114 176h79z" />
    <glyph glyph-name="Rcommaaccent" unicode="&#x156;" horiz-adv-x="633" 
d="M588 0h-58l-56 214q-14 53 -37.5 77t-67.5 24h-224v-315h-55v727h228q118 0 179.5 -43.5t61.5 -152.5q0 -148 -109 -191q51 -19 72 -98zM503 530q0 82 -45 114.5t-151 32.5h-162v-312h159q112 0 155.5 37t43.5 128zM379 -82q0 -55 -31 -111h-40q22 39 22 80q-43 0 -43 45
q0 40 44 40q26 0 37 -13t11 -41z" />
    <glyph glyph-name="rcommaaccent" unicode="&#x157;" horiz-adv-x="343" 
d="M336 504l-19 -52q-12 6 -28 6q-15 0 -30.5 -4.5t-25.5 -8t-27 -16t-21.5 -16.5l-25 -22.5t-23.5 -21.5v-369h-54v506h54v-82q50 46 84.5 68t70.5 22q25 0 45 -10zM198 -82q0 -55 -31 -111h-40q22 39 22 80q-43 0 -43 45q0 40 44 40q26 0 37 -13t11 -41z" />
    <glyph glyph-name="Rcaron" unicode="&#x158;" horiz-adv-x="633" 
d="M588 0h-58l-56 214q-14 53 -37.5 77t-67.5 24h-224v-315h-55v727h228q118 0 179.5 -43.5t61.5 -152.5q0 -148 -109 -191q51 -19 72 -98zM503 530q0 82 -45 114.5t-151 32.5h-162v-312h159q112 0 155.5 37t43.5 128zM448 956l-111 -176h-75l-108 176h47l102 -129l99 129
h46z" />
    <glyph glyph-name="rcaron" unicode="&#x159;" horiz-adv-x="343" 
d="M336 504l-19 -52q-12 6 -28 6q-15 0 -30.5 -4.5t-25.5 -8t-27 -16t-21.5 -16.5l-25 -22.5t-23.5 -21.5v-369h-54v506h54v-82q50 46 84.5 68t70.5 22q25 0 45 -10zM353 766l-111 -176h-75l-108 176h47l102 -129l99 129h46z" />
    <glyph glyph-name="Sacute" unicode="&#x15a;" horiz-adv-x="625" 
d="M567 193q0 -47 -15 -83.5t-39.5 -59.5t-58.5 -38t-68.5 -21t-73.5 -6q-191 0 -266 141l48 30q71 -119 218 -119q51 0 92.5 12.5t72.5 48t31 90.5q0 61 -44 97.5t-136 55.5q-147 30 -206.5 73t-59.5 131q0 89 63 143t179 54q95 0 152 -33.5t91 -94.5l-46 -29
q-32 54 -78.5 79.5t-119.5 25.5q-85 0 -134.5 -38.5t-49.5 -103.5q0 -59 45 -91t165 -58q119 -26 178.5 -72t59.5 -134zM438 956l-148 -176h-45l114 176h79z" />
    <glyph glyph-name="sacute" unicode="&#x15b;" horiz-adv-x="461" 
d="M418 135q0 -80 -57.5 -115t-139.5 -35q-52 0 -104 21t-76 62l45 30q40 -64 142 -64q54 0 95.5 22.5t41.5 76.5q0 38 -28.5 56t-103.5 37q-89 23 -119 41q-56 35 -56 105q0 73 54.5 111t129.5 38q125 0 173 -86l-45 -28q-40 65 -133 65q-45 0 -85.5 -23t-40.5 -70
q0 -44 28.5 -63.5t106.5 -37.5q42 -10 65.5 -17.5t52 -23.5t41.5 -41t13 -61zM381 766l-148 -176h-45l114 176h79z" />
    <glyph glyph-name="Scircumflex" unicode="&#x15c;" horiz-adv-x="625" 
d="M567 193q0 -47 -15 -83.5t-39.5 -59.5t-58.5 -38t-68.5 -21t-73.5 -6q-191 0 -266 141l48 30q71 -119 218 -119q51 0 92.5 12.5t72.5 48t31 90.5q0 61 -44 97.5t-136 55.5q-147 30 -206.5 73t-59.5 131q0 89 63 143t179 54q95 0 152 -33.5t91 -94.5l-46 -29
q-32 54 -78.5 79.5t-119.5 25.5q-85 0 -134.5 -38.5t-49.5 -103.5q0 -59 45 -91t165 -58q119 -26 178.5 -72t59.5 -134zM449 780h-47l-102 129l-99 -129h-46l111 176h75z" />
    <glyph glyph-name="scircumflex" unicode="&#x15d;" horiz-adv-x="461" 
d="M418 135q0 -80 -57.5 -115t-139.5 -35q-52 0 -104 21t-76 62l45 30q40 -64 142 -64q54 0 95.5 22.5t41.5 76.5q0 38 -28.5 56t-103.5 37q-89 23 -119 41q-56 35 -56 105q0 73 54.5 111t129.5 38q125 0 173 -86l-45 -28q-40 65 -133 65q-45 0 -85.5 -23t-40.5 -70
q0 -44 28.5 -63.5t106.5 -37.5q42 -10 65.5 -17.5t52 -23.5t41.5 -41t13 -61zM380 590h-47l-102 129l-99 -129h-46l111 176h75z" />
    <glyph glyph-name="Scedilla" unicode="&#x15e;" horiz-adv-x="625" 
d="M425 -105q0 -41 -31 -64.5t-87 -23.5q-50 0 -108 21l16 36q49 -19 98 -19q71 0 71 55q0 27 -29.5 43t-62.5 16l12 26q-186 4 -258 141l48 30q71 -119 218 -119q51 0 92.5 12.5t72.5 48t31 90.5q0 61 -44 97.5t-136 55.5q-147 30 -206.5 73t-59.5 131q0 89 63 143t179 54
q95 0 152 -33.5t91 -94.5l-46 -29q-32 54 -78.5 79.5t-119.5 25.5q-85 0 -134.5 -38.5t-49.5 -103.5q0 -59 45 -91t165 -58q119 -26 178.5 -72t59.5 -134q0 -54 -19 -94t-52 -63t-71 -35t-83 -15v-1q83 -20 83 -90z" />
    <glyph glyph-name="scedilla" unicode="&#x15f;" horiz-adv-x="461" 
d="M343 -105q0 -41 -31 -64.5t-87 -23.5q-50 0 -108 21l16 36q49 -19 98 -19q71 0 71 55q0 27 -29.5 43t-62.5 16l12 26h-1q-52 0 -104 21t-76 62l45 30q40 -64 142 -64q54 0 95.5 22.5t41.5 76.5q0 38 -28.5 56t-103.5 37q-89 23 -119 41q-56 35 -56 105q0 73 54.5 111
t129.5 38q125 0 173 -86l-45 -28q-40 65 -133 65q-45 0 -85.5 -23t-40.5 -70q0 -44 28.5 -63.5t106.5 -37.5q42 -10 65.5 -17.5t52 -23.5t41.5 -41t13 -61q0 -70 -44 -105t-113 -43l-1 -2q83 -20 83 -90z" />
    <glyph glyph-name="Scaron" unicode="&#x160;" horiz-adv-x="625" 
d="M461 956l-111 -176h-75l-108 176h47l102 -129l99 129h46zM567 193q0 -47 -15 -83.5t-39.5 -59.5t-58.5 -38t-68.5 -21t-73.5 -6q-191 0 -266 141l48 30q71 -119 218 -119q51 0 92.5 12.5t72.5 48t31 90.5q0 61 -44 97.5t-136 55.5q-147 30 -206.5 73t-59.5 131
q0 89 63 143t179 54q95 0 152 -33.5t91 -94.5l-46 -29q-32 54 -78.5 79.5t-119.5 25.5q-85 0 -134.5 -38.5t-49.5 -103.5q0 -59 45 -91t165 -58q119 -26 178.5 -72t59.5 -134z" />
    <glyph glyph-name="scaron" unicode="&#x161;" horiz-adv-x="461" 
d="M382 766l-111 -176h-75l-108 176h47l102 -129l99 129h46zM418 135q0 -80 -57.5 -115t-139.5 -35q-52 0 -104 21t-76 62l45 30q40 -64 142 -64q54 0 95.5 22.5t41.5 76.5q0 38 -28.5 56t-103.5 37q-89 23 -119 41q-56 35 -56 105q0 73 54.5 111t129.5 38q125 0 173 -86
l-45 -28q-40 65 -133 65q-45 0 -85.5 -23t-40.5 -70q0 -44 28.5 -63.5t106.5 -37.5q42 -10 65.5 -17.5t52 -23.5t41.5 -41t13 -61z" />
    <glyph glyph-name="uni0162" unicode="&#x162;" horiz-adv-x="545" 
d="M540 675h-240v-675h-55v675h-240v52h535v-52zM318 -82q0 -55 -31 -111h-40q22 39 22 80q-43 0 -43 45q0 40 44 40q26 0 37 -13t11 -41z" />
    <glyph glyph-name="uni0163" unicode="&#x163;" horiz-adv-x="343" 
d="M329 -2q-41 -13 -89 -13q-66 0 -96 30.5t-30 110.5v333h-98v47h98v181l54 40v-221h142v-47h-142v-325q0 -34 3.5 -53.5t20.5 -35t50 -15.5q37 0 74 13zM285 -82q0 -55 -31 -111h-40q22 39 22 80q-43 0 -43 45q0 40 44 40q26 0 37 -13t11 -41z" />
    <glyph glyph-name="Tcaron" unicode="&#x164;" horiz-adv-x="545" 
d="M540 675h-240v-675h-55v675h-240v52h535v-52zM419 956l-111 -176h-75l-108 176h47l102 -129l99 129h46z" />
    <glyph glyph-name="tcaron" unicode="&#x165;" horiz-adv-x="343" 
d="M329 -2q-41 -13 -89 -13q-66 0 -96 30.5t-30 110.5v333h-98v47h98v181l54 40v-221h142v-47h-142v-325q0 -34 3.5 -53.5t20.5 -35t50 -15.5q37 0 74 13zM309 673q0 -55 -31 -111h-40q22 38 22 80q-43 0 -43 45q0 40 44 40q26 0 37 -13t11 -41z" />
    <glyph glyph-name="Tbar" unicode="&#x166;" horiz-adv-x="545" 
d="M540 675h-240v-249h158v-48h-158v-378h-55v378h-158v48h158v249h-240v52h535v-52z" />
    <glyph glyph-name="tbar" unicode="&#x167;" horiz-adv-x="343" 
d="M329 -2q-41 -13 -89 -13q-66 0 -96 30.5t-30 110.5v159h-98v47h98v127h-98v47h98v181l54 40v-221h142v-47h-142v-127h142v-47h-142v-151q0 -34 3.5 -53.5t20.5 -35t50 -15.5q37 0 74 13z" />
    <glyph glyph-name="Utilde" unicode="&#x168;" horiz-adv-x="677" 
d="M592 279q0 -164 -56.5 -229t-196.5 -65q-139 0 -196.5 65.5t-57.5 228.5v448h55v-438q0 -138 42 -195t157 -57q117 0 157.5 57t40.5 193v440h55v-448zM516 914q0 -54 -27 -94t-78 -40q-49 0 -88 41q-2 2 -7.5 8t-8 8.5l-7.5 7.5t-8 7t-7.5 5.5t-8 5t-8 3t-8.5 1.5
q-51 0 -56 -87h-43q0 54 27 94t79 40q49 0 88 -42q2 -2 8 -9t9.5 -10l10 -9t11.5 -9t12 -5.5t13 -2.5q28 0 40.5 27.5t13.5 59.5h43z" />
    <glyph glyph-name="utilde" unicode="&#x169;" horiz-adv-x="564" 
d="M482 0h-54v88q-103 -103 -196 -103q-78 0 -116 50t-38 140v331h54v-304q0 -81 24.5 -123t86.5 -42q38 0 88 28.5t97 75.5v365h54v-506zM447 745q0 -54 -27 -94t-78 -40q-49 0 -88 41q-2 2 -7.5 8t-8 8.5l-7.5 7.5t-8 7t-7.5 5.5t-8 5t-8 3t-8.5 1.5q-51 0 -56 -87h-43
q0 54 27 94t79 40q49 0 88 -42q2 -2 8 -9t9.5 -10l10 -9t11.5 -9t12 -5.5t13 -2.5q28 0 40.5 27.5t13.5 59.5h43z" />
    <glyph glyph-name="Umacron" unicode="&#x16a;" horiz-adv-x="677" 
d="M592 279q0 -164 -56.5 -229t-196.5 -65q-139 0 -196.5 65.5t-57.5 228.5v448h55v-438q0 -138 42 -195t157 -57q117 0 157.5 57t40.5 193v440h55v-448zM482 780h-288v57h288v-57z" />
    <glyph glyph-name="umacron" unicode="&#x16b;" horiz-adv-x="564" 
d="M482 0h-54v88q-103 -103 -196 -103q-78 0 -116 50t-38 140v331h54v-304q0 -81 24.5 -123t86.5 -42q38 0 88 28.5t97 75.5v365h54v-506zM426 607h-288v57h288v-57z" />
    <glyph glyph-name="Ubreve" unicode="&#x16c;" horiz-adv-x="677" 
d="M592 279q0 -164 -56.5 -229t-196.5 -65q-139 0 -196.5 65.5t-57.5 228.5v448h55v-438q0 -138 42 -195t157 -57q117 0 157.5 57t40.5 193v440h55v-448zM482 918q-38 -138 -147 -138q-41 0 -73 25.5t-46.5 54t-21.5 58.5h41q18 -39 40.5 -57.5t61.5 -18.5t62 18t41 58h42z
" />
    <glyph glyph-name="ubreve" unicode="&#x16d;" horiz-adv-x="564" 
d="M482 0h-54v88q-103 -103 -196 -103q-78 0 -116 50t-38 140v331h54v-304q0 -81 24.5 -123t86.5 -42q38 0 88 28.5t97 75.5v365h54v-506zM426 747q-38 -138 -147 -138q-41 0 -73 25.5t-46.5 54t-21.5 58.5h41q18 -39 40.5 -57.5t61.5 -18.5t62 18t41 58h42z" />
    <glyph glyph-name="Uring" unicode="&#x16e;" horiz-adv-x="677" 
d="M442 798q0 -50 -26.5 -78.5t-76.5 -28.5q-51 0 -76 29t-25 78t25.5 77.5t75.5 28.5q51 0 77 -28t26 -78zM407 797q0 75 -69 75q-30 0 -47.5 -19.5t-17.5 -55.5q0 -75 65 -75q69 0 69 75zM592 279q0 -164 -56.5 -229t-196.5 -65q-139 0 -196.5 65.5t-57.5 228.5v448h55
v-438q0 -138 42 -195t157 -57q117 0 157.5 57t40.5 193v440h55v-448z" />
    <glyph glyph-name="uring" unicode="&#x16f;" horiz-adv-x="564" 
d="M482 0h-54v88q-103 -103 -196 -103q-78 0 -116 50t-38 140v331h54v-304q0 -81 24.5 -123t86.5 -42q38 0 88 28.5t97 75.5v365h54v-506zM364 657q0 -40 -21.5 -63t-62.5 -23t-61 23t-20 63t20.5 63t60.5 23q84 0 84 -86zM331 657q0 55 -51 55q-23 0 -35.5 -14.5
t-12.5 -40.5q0 -55 48 -55q51 0 51 55z" />
    <glyph glyph-name="Uhungarumlaut" unicode="&#x170;" horiz-adv-x="677" 
d="M592 279q0 -164 -56.5 -229t-196.5 -65q-139 0 -196.5 65.5t-57.5 228.5v448h55v-438q0 -138 42 -195t157 -57q117 0 157.5 57t40.5 193v440h55v-448zM567 956l-148 -176h-45l114 176h79zM397 956l-148 -176h-45l114 176h79z" />
    <glyph glyph-name="uhungarumlaut" unicode="&#x171;" horiz-adv-x="564" 
d="M482 0h-54v88q-103 -103 -196 -103q-78 0 -116 50t-38 140v331h54v-304q0 -81 24.5 -123t86.5 -42q38 0 88 28.5t97 75.5v365h54v-506zM504 766l-148 -176h-45l114 176h79zM334 766l-148 -176h-45l114 176h79z" />
    <glyph glyph-name="Uogonek" unicode="&#x172;" horiz-adv-x="677" 
d="M523 -161q-49 -32 -110 -32q-52 0 -78.5 29t-26.5 76q0 34 11 73q-128 5 -181 71t-53 223v448h55v-438q0 -138 42 -195t157 -57q117 0 157.5 57t40.5 193v440h55v-448q0 -156 -51 -222t-174 -71q-8 -30 -8 -60q0 -37 16 -54t51 -17q42 0 79 17z" />
    <glyph glyph-name="uogonek" unicode="&#x173;" horiz-adv-x="564" 
d="M482 0h-6q-13 -41 -13 -74q0 -37 16 -54t51 -17q42 0 79 17l18 -33q-49 -32 -110 -32q-52 0 -78.5 29t-26.5 76q0 42 16 88v88q-103 -103 -196 -103q-78 0 -116 50t-38 140v331h54v-304q0 -81 24.5 -123t86.5 -42q38 0 88 28.5t97 75.5v365h54v-506z" />
    <glyph glyph-name="Wcircumflex" unicode="&#x174;" horiz-adv-x="865" 
d="M843 727l-172 -727h-79l-162 474l-164 -474h-79l-165 727h56l152 -676l167 481h67l166 -482l159 677h54zM579 780h-47l-102 129l-99 -129h-46l111 176h75z" />
    <glyph glyph-name="wcircumflex" unicode="&#x175;" horiz-adv-x="682" 
d="M664 506l-121 -506h-60l-143 342l-137 -342h-65l-120 506h56l101 -449l135 341h60l140 -336l101 444h53zM488 590h-47l-102 129l-99 -129h-46l111 176h75z" />
    <glyph glyph-name="Ycircumflex" unicode="&#x176;" horiz-adv-x="581" 
d="M575 727l-256 -431v-296h-55v295l-258 432h64l222 -377l221 377h62zM437 780h-47l-102 129l-99 -129h-46l111 176h75z" />
    <glyph glyph-name="ycircumflex" unicode="&#x177;" horiz-adv-x="490" 
d="M472 506l-239 -543q-38 -87 -73.5 -121.5t-94.5 -34.5q-46 0 -77 13l16 45q17 -11 70 -11t106 120l27 62l-193 470h59l165 -406l176 406h58zM392 590h-47l-102 129l-99 -129h-46l111 176h75z" />
    <glyph glyph-name="Ydieresis" unicode="&#x178;" horiz-adv-x="581" 
d="M414 820q0 -22 -9 -31t-31 -9q-24 0 -32 10.5t-8 29.5q0 21 8.5 31t31.5 10q25 0 32.5 -10.5t7.5 -30.5zM242 820q0 -22 -9 -31t-31 -9q-24 0 -32 10.5t-8 29.5q0 21 8.5 31t31.5 10q25 0 32.5 -10.5t7.5 -30.5zM575 727l-256 -431v-296h-55v295l-258 432h64l222 -377
l221 377h62z" />
    <glyph glyph-name="Zacute" unicode="&#x179;" horiz-adv-x="567" 
d="M527 0h-495v47l413 628h-396v52h468v-40l-417 -635h427v-52zM400 956l-148 -176h-45l114 176h79z" />
    <glyph glyph-name="zacute" unicode="&#x17a;" horiz-adv-x="422" 
d="M396 0h-370v52l302 406h-296v48h357v-49l-304 -409h311v-48zM320 766l-148 -176h-45l114 176h79z" />
    <glyph glyph-name="Zdotaccent" unicode="&#x17b;" horiz-adv-x="567" 
d="M527 0h-495v47l413 628h-396v52h468v-40l-417 -635h427v-52zM324 820q0 -22 -9 -31t-31 -9q-25 0 -32.5 10t-7.5 30q0 21 8.5 31t31.5 10q25 0 32.5 -10.5t7.5 -30.5z" />
    <glyph glyph-name="zdotaccent" unicode="&#x17c;" horiz-adv-x="422" 
d="M396 0h-370v52l302 406h-296v48h357v-49l-304 -409h311v-48zM247 641q0 -22 -9 -31t-31 -9q-25 0 -32.5 10t-7.5 30q0 21 8.5 31t31.5 10q25 0 32.5 -10.5t7.5 -30.5z" />
    <glyph glyph-name="Zcaron" unicode="&#x17d;" horiz-adv-x="567" 
d="M426 956l-111 -176h-75l-108 176h47l102 -129l99 129h46zM527 0h-495v47l413 628h-396v52h468v-40l-417 -635h427v-52z" />
    <glyph glyph-name="zcaron" unicode="&#x17e;" horiz-adv-x="422" 
d="M365 766l-111 -176h-75l-108 176h47l102 -129l99 129h46zM396 0h-370v52l302 406h-296v48h357v-49l-304 -409h311v-48z" />
    <glyph glyph-name="florin" unicode="&#x192;" horiz-adv-x="454" 
d="M453 721l-16 -50q-44 18 -70 18q-22 0 -34 -21t-26 -80l-19 -82h92l-10 -52h-94l-108 -516q-16 -78 -46.5 -105.5t-70.5 -27.5q-36 0 -83 21l15 49q40 -17 71 -17q23 0 37 24t31 104l99 468h-76l12 52h75l27 111q18 74 43 99.5t67 25.5q37 0 84 -21z" />
    <glyph glyph-name="AEacute" unicode="&#x1fc;" horiz-adv-x="861" 
d="M806 0h-390v236h-254l-92 -236h-58l287 727h507v-52h-335v-263h303v-52h-303v-308h335v-52zM416 288v387h-83l-151 -387h234zM621 956l-148 -176h-45l114 176h79z" />
    <glyph glyph-name="aeacute" unicode="&#x1fd;" horiz-adv-x="822" 
d="M780 246h-348q0 -94 38.5 -153t126.5 -59q58 0 116 46l32 -44q-23 -20 -63 -35t-73 -15q-30 0 -51.5 2.5t-50.5 11t-54 29.5t-44 54q-67 -53 -113.5 -75.5t-96.5 -22.5q-69 0 -111.5 43t-42.5 110q0 45 15 77t43.5 49t58 25.5t69.5 13.5q39 4 147 12v31q0 68 -34 97
t-100 29q-81 0 -135 -54l-39 41q62 62 174 62q74 0 114 -20.5t61 -67.5q32 46 71 67t100 21q190 0 190 -228v-47zM391 125q-13 39 -13 99v44q-47 -5 -97 -9q-34 -3 -55.5 -6t-48 -11t-41 -19.5t-25 -32.5t-10.5 -50q0 -106 111 -106q29 0 65.5 17t57.5 32zM723 295
q0 89 -32 133t-108 44q-63 0 -104 -43.5t-45 -133.5h289zM636 766l-148 -176h-45l114 176h79z" />
    <glyph glyph-name="Oslashacute" unicode="&#x1fe;" horiz-adv-x="737" 
d="M677 363q0 -183 -71.5 -280.5t-237.5 -97.5q-117 0 -190 53l-65 -94h-60l88 128q-81 92 -81 291q0 183 71.5 281t236.5 98q122 0 195 -56l53 78h60l-77 -112q78 -92 78 -289zM619 363q0 160 -54 240l-356 -519q58 -47 159 -47q136 0 193.5 82t57.5 244zM531 641
q-60 49 -163 49q-136 0 -193 -81.5t-57 -245.5t56 -242zM490 956l-148 -176h-45l114 176h79z" />
    <glyph glyph-name="oslashacute" unicode="&#x1ff;" horiz-adv-x="549" 
d="M499 252q0 -131 -57 -199t-167 -68q-77 0 -128 33l-37 -55h-54l56 84q-62 68 -62 205q0 133 57 201t168 68q78 0 130 -35l38 57h54l-58 -87q60 -68 60 -204zM443 252q0 99 -37 155l-230 -344q40 -29 99 -29q47 0 81 18t52.5 49.5t26.5 68.5t8 82zM375 441q-41 31 -100 31
q-169 0 -169 -220q0 -99 39 -156zM392 766l-148 -176h-45l114 176h79z" />
    <glyph glyph-name="Scommaaccent" unicode="&#x218;" horiz-adv-x="625" 
d="M567 193q0 -47 -15 -83.5t-39.5 -59.5t-58.5 -38t-68.5 -21t-73.5 -6q-191 0 -266 141l48 30q71 -119 218 -119q51 0 92.5 12.5t72.5 48t31 90.5q0 61 -44 97.5t-136 55.5q-147 30 -206.5 73t-59.5 131q0 89 63 143t179 54q95 0 152 -33.5t91 -94.5l-46 -29
q-32 54 -78.5 79.5t-119.5 25.5q-85 0 -134.5 -38.5t-49.5 -103.5q0 -59 45 -91t165 -58q119 -26 178.5 -72t59.5 -134zM366 -82q0 -55 -31 -111h-40q22 39 22 80q-43 0 -43 45q0 40 44 40q26 0 37 -13t11 -41z" />
    <glyph glyph-name="scommaaccent" unicode="&#x219;" horiz-adv-x="461" 
d="M418 135q0 -80 -57.5 -115t-139.5 -35q-52 0 -104 21t-76 62l45 30q40 -64 142 -64q54 0 95.5 22.5t41.5 76.5q0 38 -28.5 56t-103.5 37q-89 23 -119 41q-56 35 -56 105q0 73 54.5 111t129.5 38q125 0 173 -86l-45 -28q-40 65 -133 65q-45 0 -85.5 -23t-40.5 -70
q0 -44 28.5 -63.5t106.5 -37.5q42 -10 65.5 -17.5t52 -23.5t41.5 -41t13 -61zM276 -82q0 -55 -31 -111h-40q22 39 22 80q-43 0 -43 45q0 40 44 40q26 0 37 -13t11 -41z" />
    <glyph glyph-name="uni021A" unicode="&#x21a;" horiz-adv-x="545" 
d="M540 675h-240v-675h-55v675h-240v52h535v-52zM318 -82q0 -55 -31 -111h-40q22 39 22 80q-43 0 -43 45q0 40 44 40q26 0 37 -13t11 -41z" />
    <glyph glyph-name="uni021B" unicode="&#x21b;" horiz-adv-x="343" 
d="M329 -2q-41 -13 -89 -13q-66 0 -96 30.5t-30 110.5v333h-98v47h98v181l54 40v-221h142v-47h-142v-325q0 -34 3.5 -53.5t20.5 -35t50 -15.5q37 0 74 13zM285 -82q0 -55 -31 -111h-40q22 39 22 80q-43 0 -43 45q0 40 44 40q26 0 37 -13t11 -41z" />
    <glyph glyph-name="circumflex" unicode="&#x2c6;" horiz-adv-x="500" 
d="M397 590h-47l-102 129l-99 -129h-46l111 176h75z" />
    <glyph glyph-name="caron" unicode="&#x2c7;" horiz-adv-x="500" 
d="M397 766l-111 -176h-75l-108 176h47l102 -129l99 129h46z" />
    <glyph glyph-name="uni02C9" unicode="&#x2c9;" horiz-adv-x="500" 
d="M394 607h-288v57h288v-57z" />
    <glyph glyph-name="breve" unicode="&#x2d8;" horiz-adv-x="500" 
d="M394 747q-38 -138 -147 -138q-41 0 -73 25.5t-46.5 54t-21.5 58.5h41q18 -39 40.5 -57.5t61.5 -18.5t62 18t41 58h42z" />
    <glyph glyph-name="dotaccent" unicode="&#x2d9;" horiz-adv-x="500" 
d="M286 641q0 -22 -9 -31t-31 -9q-25 0 -32.5 10t-7.5 30q0 21 8.5 31t31.5 10q25 0 32.5 -10.5t7.5 -30.5z" />
    <glyph glyph-name="ring" unicode="&#x2da;" horiz-adv-x="500" 
d="M332 657q0 -40 -21.5 -63t-62.5 -23t-61 23t-20 63t20.5 63t60.5 23q84 0 84 -86zM299 657q0 55 -51 55q-23 0 -35.5 -14.5t-12.5 -40.5q0 -55 48 -55q51 0 51 55z" />
    <glyph glyph-name="ogonek" unicode="&#x2db;" horiz-adv-x="500" 
d="M379 -161q-49 -32 -110 -32q-52 0 -78.5 29t-26.5 76q0 42 27 119h48q-24 -61 -24 -105q0 -37 16 -54t51 -17q42 0 79 17z" />
    <glyph glyph-name="tilde" unicode="&#x2dc;" horiz-adv-x="500" 
d="M427 745q0 -54 -27 -94t-78 -40q-49 0 -88 41q-2 2 -7.5 8t-8 8.5l-7.5 7.5t-8 7t-7.5 5.5t-8 5t-8 3t-8.5 1.5q-51 0 -56 -87h-43q0 54 27 94t79 40q49 0 88 -42q2 -2 8 -9t9.5 -10l10 -9t11.5 -9t12 -5.5t13 -2.5q28 0 40.5 27.5t13.5 59.5h43z" />
    <glyph glyph-name="hungarumlaut" unicode="&#x2dd;" horiz-adv-x="500" 
d="M427 766l-148 -176h-45l114 176h79zM257 766l-148 -176h-45l114 176h79z" />
    <glyph glyph-name="uni03A9" unicode="&#x3a9;" horiz-adv-x="735" 
d="M683 0h-229v50q169 135 169 327q0 124 -67 204t-188 80q-114 0 -186.5 -79t-72.5 -204q0 -195 171 -328v-50h-230v50h164q-165 126 -165 333q0 143 89.5 236t230.5 93q146 0 229.5 -90.5t83.5 -236.5q0 -111 -49 -197.5t-116 -137.5h166v-50z" />
    <glyph glyph-name="uni03BC" unicode="&#x3bc;" horiz-adv-x="568" 
d="M486 0h-54v65q-69 -80 -150 -80q-47 0 -80.5 9t-65.5 37v-224h-54v699h54v-397q63 -66 145 -66q79 0 151 80v383h54v-506z" />
    <glyph glyph-name="pi" unicode="&#x3c0;" horiz-adv-x="694" 
d="M620 49l13 -43q-21 -12 -59 -12q-56 0 -84.5 34t-28.5 91v333h-228v-323q0 -73 -14 -129h-60q15 50 15 131v321q-59 -2 -110 -23l-18 44q58 27 141 27h446v-48h-114v-329q0 -81 68 -81q15 0 33 7z" />
    <glyph glyph-name="Wgrave" unicode="&#x1e80;" horiz-adv-x="865" 
d="M843 727l-172 -727h-79l-162 474l-164 -474h-79l-165 727h56l152 -676l167 481h67l166 -482l159 677h54zM493 780h-45l-148 176h79z" />
    <glyph glyph-name="wgrave" unicode="&#x1e81;" horiz-adv-x="682" 
d="M664 506l-121 -506h-60l-143 342l-137 -342h-65l-120 506h56l101 -449l135 341h60l140 -336l101 444h53zM406 590h-45l-148 176h79z" />
    <glyph glyph-name="Wacute" unicode="&#x1e82;" horiz-adv-x="865" 
d="M843 727l-172 -727h-79l-162 474l-164 -474h-79l-165 727h56l152 -676l167 481h67l166 -482l159 677h54zM564 956l-148 -176h-45l114 176h79z" />
    <glyph glyph-name="wacute" unicode="&#x1e83;" horiz-adv-x="682" 
d="M664 506l-121 -506h-60l-143 342l-137 -342h-65l-120 506h56l101 -449l135 341h60l140 -336l101 444h53zM466 766l-148 -176h-45l114 176h79z" />
    <glyph glyph-name="Wdieresis" unicode="&#x1e84;" horiz-adv-x="865" 
d="M843 727l-172 -727h-79l-162 474l-164 -474h-79l-165 727h56l152 -676l167 481h67l166 -482l159 677h54zM558 820q0 -22 -9 -31t-31 -9q-24 0 -32 10.5t-8 29.5q0 21 8.5 31t31.5 10q25 0 32.5 -10.5t7.5 -30.5zM386 820q0 -22 -9 -31t-31 -9q-24 0 -32 10.5t-8 29.5
q0 21 8.5 31t31.5 10q25 0 32.5 -10.5t7.5 -30.5z" />
    <glyph glyph-name="wdieresis" unicode="&#x1e85;" horiz-adv-x="682" 
d="M664 506l-121 -506h-60l-143 342l-137 -342h-65l-120 506h56l101 -449l135 341h60l140 -336l101 444h53zM467 641q0 -22 -9 -31t-31 -9q-24 0 -32 10.5t-8 29.5q0 21 8.5 31t31.5 10q25 0 32.5 -10.5t7.5 -30.5zM295 641q0 -22 -9 -31t-31 -9q-24 0 -32 10.5t-8 29.5
q0 21 8.5 31t31.5 10q25 0 32.5 -10.5t7.5 -30.5z" />
    <glyph glyph-name="Ygrave" unicode="&#x1ef2;" horiz-adv-x="581" 
d="M575 727l-256 -431v-296h-55v295l-258 432h64l222 -377l221 377h62zM376 780h-45l-148 176h79z" />
    <glyph glyph-name="ygrave" unicode="&#x1ef3;" horiz-adv-x="490" 
d="M472 506l-239 -543q-38 -87 -73.5 -121.5t-94.5 -34.5q-46 0 -77 13l16 45q17 -11 70 -11t106 120l27 62l-193 470h59l165 -406l176 406h58zM318 590h-45l-148 176h79z" />
    <glyph glyph-name="endash" unicode="&#x2013;" horiz-adv-x="500" 
d="M506 228h-512v51h512v-51z" />
    <glyph glyph-name="emdash" unicode="&#x2014;" horiz-adv-x="1000" 
d="M1006 228h-1012v51h1012v-51z" />
    <glyph glyph-name="quoteleft" unicode="&#x2018;" horiz-adv-x="228" 
d="M160 555q0 -40 -44 -40q-26 0 -37 13t-11 41q0 100 50 173h40q-42 -67 -42 -126q0 -12 1 -16q21 0 32 -9.5t11 -35.5z" />
    <glyph glyph-name="quoteright" unicode="&#x2019;" horiz-adv-x="228" 
d="M160 688q0 -100 -50 -173h-40q42 67 42 126q0 12 -1 16q-21 0 -32 9.5t-11 35.5q0 40 44 40q26 0 37 -13t11 -41z" />
    <glyph glyph-name="quotesinglbase" unicode="&#x201a;" horiz-adv-x="228" 
d="M160 24q0 -100 -50 -173h-40q42 67 42 126q0 12 -1 16q-21 0 -32 9.5t-11 35.5q0 40 44 40q26 0 37 -13t11 -41z" />
    <glyph glyph-name="quotedblleft" unicode="&#x201c;" horiz-adv-x="425" 
d="M357 555q0 -40 -44 -40q-26 0 -37 13t-11 41q0 100 50 173h40q-42 -67 -42 -126q0 -12 1 -16q21 0 32 -9.5t11 -35.5zM160 555q0 -40 -44 -40q-26 0 -37 13t-11 41q0 100 50 173h40q-42 -67 -42 -126q0 -12 1 -16q21 0 32 -9.5t11 -35.5z" />
    <glyph glyph-name="quotedblright" unicode="&#x201d;" horiz-adv-x="425" 
d="M357 688q0 -100 -50 -173h-40q42 67 42 126q0 12 -1 16q-21 0 -32 9.5t-11 35.5q0 40 44 40q26 0 37 -13t11 -41zM160 688q0 -100 -50 -173h-40q42 67 42 126q0 12 -1 16q-21 0 -32 9.5t-11 35.5q0 40 44 40q26 0 37 -13t11 -41z" />
    <glyph glyph-name="quotedblbase" unicode="&#x201e;" horiz-adv-x="425" 
d="M357 24q0 -100 -50 -173h-40q42 67 42 126q0 12 -1 16q-21 0 -32 9.5t-11 35.5q0 40 44 40q26 0 37 -13t11 -41zM160 24q0 -100 -50 -173h-40q42 67 42 126q0 12 -1 16q-21 0 -32 9.5t-11 35.5q0 40 44 40q26 0 37 -13t11 -41z" />
    <glyph glyph-name="dagger" unicode="&#x2020;" horiz-adv-x="492" 
d="M460 424l-194 11l15 -628h-72l16 628l-193 -11v62l193 -12l-13 268h65l-12 -268l195 12v-62z" />
    <glyph glyph-name="daggerdbl" unicode="&#x2021;" horiz-adv-x="492" 
d="M460 28l-195 12l12 -233h-65l13 233l-193 -12v62l193 -11l-11 195l11 196l-193 -11v62l193 -12l-13 233h65l-12 -233l195 12v-62l-194 11l10 -196l-10 -195l194 11v-62z" />
    <glyph glyph-name="bullet" unicode="&#x2022;" horiz-adv-x="333" 
d="M282 365q0 -48 -33.5 -82t-81.5 -34t-82 34t-34 82t34 81.5t82 33.5t81.5 -33.5t33.5 -81.5z" />
    <glyph glyph-name="ellipsis" unicode="&#x2026;" horiz-adv-x="1000" 
d="M879 35q0 -24 -10 -33t-36 -9q-27 0 -36.5 10t-9.5 32q0 24 10 33.5t36 9.5q27 0 36.5 -9.5t9.5 -33.5zM546 35q0 -24 -10 -33t-36 -9q-27 0 -36.5 10t-9.5 32q0 24 10 33.5t36 9.5q27 0 36.5 -9.5t9.5 -33.5zM213 35q0 -24 -10 -33t-36 -9q-27 0 -36.5 10t-9.5 32
q0 24 10 33.5t36 9.5q27 0 36.5 -9.5t9.5 -33.5z" />
    <glyph glyph-name="perthousand" unicode="&#x2030;" horiz-adv-x="1416" 
d="M1367 62q0 -116 -43 -169q-47 -59 -135 -59q-90 0 -136 59q-43 55 -43 169q0 121 43 174q47 59 136 59q86 0 135 -59q43 -53 43 -174zM928 62q0 -116 -43 -169q-47 -59 -135 -59q-90 0 -136 59q-43 55 -43 169q0 121 43 174q47 59 136 59q86 0 135 -59q43 -53 43 -174z
M711 727l-391 -878h-52l391 878h52zM406 509q0 -116 -43 -169q-47 -59 -135 -59q-90 0 -136 59q-43 55 -43 169q0 121 43 174q47 59 136 59q86 0 135 -59q43 -53 43 -174zM1316 62q0 43 -5 74t-18 58t-39 41t-65 14q-75 0 -101.5 -48.5t-26.5 -137.5q0 -42 5 -72t18 -56.5
t39.5 -40.5t65.5 -14q74 0 100.5 48t26.5 134zM877 62q0 43 -5 74t-18 58t-39 41t-65 14q-75 0 -101.5 -48.5t-26.5 -137.5q0 -42 5 -72t18 -56.5t39.5 -40.5t65.5 -14q74 0 100.5 48t26.5 134zM355 509q0 43 -5 74t-18 58t-39 41t-65 14q-75 0 -101.5 -48.5t-26.5 -137.5
q0 -42 5 -72t18 -56.5t39.5 -40.5t65.5 -14q74 0 100.5 48t26.5 134z" />
    <glyph glyph-name="guilsinglleft" unicode="&#x2039;" horiz-adv-x="309" 
d="M286 26h-63l-202 228l202 227h63l-203 -227z" />
    <glyph glyph-name="guilsinglright" unicode="&#x203a;" horiz-adv-x="309" 
d="M288 254l-202 -228h-63l203 228l-203 227h63z" />
    <glyph glyph-name="fraction" unicode="&#x2044;" horiz-adv-x="100" 
d="M271 727l-391 -878h-51l391 878h51z" />
    <glyph glyph-name="zero.superior" unicode="&#x2070;" horiz-adv-x="428" 
d="M392 513q0 -116 -38.5 -172.5t-139.5 -56.5q-100 0 -139 57t-39 172t39 172t139 57t139 -56.5t39 -172.5zM344 513q0 95 -28 139.5t-102 44.5q-73 0 -101 -45t-28 -139t28 -139t101 -45q74 0 102 44.5t28 139.5z" />
    <glyph glyph-name="i.superior" unicode="&#x2071;" horiz-adv-x="221" 
d="M159 778q0 -19 -7.5 -26t-25.5 -7q-33 0 -33 33q0 17 7 25.5t26 8.5q15 0 22.5 -5.5t9 -11.5t1.5 -17zM153 295h-45v344h-83v41h128v-385z" />
    <glyph glyph-name="four.superior" unicode="&#x2074;" horiz-adv-x="399" 
d="M374 405h-69v-124h-45v124h-234v31l251 306h28v-295h69v-42zM260 447v206l-170 -206h170z" />
    <glyph glyph-name="five.superior" unicode="&#x2075;" horiz-adv-x="394" 
d="M365 432q0 -69 -49.5 -108.5t-139.5 -39.5q-56 0 -99 20.5t-63 47.5l47 23q34 -46 115 -46q140 0 140 106q0 86 -134 86q-62 0 -112 -29h-19l37 241h252v-45h-216l-22 -141q41 17 97 17q77 0 121.5 -32t44.5 -100z" />
    <glyph glyph-name="six.superior" unicode="&#x2076;" horiz-adv-x="425" 
d="M393 436q0 -73 -45.5 -112.5t-127.5 -39.5q-91 0 -137.5 52t-46.5 150q0 113 50.5 184.5t153.5 71.5q81 0 138 -41l-33 -36q-42 32 -105 32q-73 0 -109.5 -46t-43.5 -119q72 42 149 42q74 0 115.5 -34t41.5 -104zM345 434q0 95 -119 95q-68 0 -142 -42q2 -158 137 -158
q59 0 91.5 27.5t32.5 77.5z" />
    <glyph glyph-name="seven.superior" unicode="&#x2077;" horiz-adv-x="378" 
d="M356 689l-205 -405h-54l205 404h-226v-62h-44v107h324v-44z" />
    <glyph glyph-name="eight.superior" unicode="&#x2078;" horiz-adv-x="424" 
d="M388 408q0 -61 -46.5 -92.5t-128.5 -31.5q-87 0 -132 32t-45 92q0 83 107 119q-93 35 -93 104q0 111 163 111q79 0 120.5 -27.5t41.5 -76.5q0 -75 -95 -111q51 -19 79.5 -46t28.5 -73zM328 629q0 70 -115 70q-116 0 -116 -68q0 -24 21.5 -41t93.5 -43q59 17 87.5 34.5
t28.5 47.5zM340 407q0 20 -10 35.5t-33 28t-37.5 18.5t-46.5 17q-28 -8 -46 -15.5t-39 -19t-32 -28t-11 -37.5q0 -78 128 -78q63 0 95 21t32 58z" />
    <glyph glyph-name="nine.superior" unicode="&#x2079;" horiz-adv-x="424" 
d="M388 537q0 -113 -49.5 -183t-153.5 -70q-80 0 -146 45l36 36q45 -36 110 -36q73 0 109.5 44.5t43.5 117.5q-74 -43 -149 -43q-74 0 -115.5 35t-41.5 104q0 73 46 114t127 41q183 0 183 -205zM199 493q65 0 142 42q0 24 -2.5 44t-11 43t-23 38.5t-40 26t-60.5 10.5
q-59 0 -91.5 -28.5t-32.5 -78.5q0 -97 119 -97z" />
    <glyph glyph-name="parenleft.superior" unicode="&#x207d;" horiz-adv-x="272" 
d="M262 153h-57q-155 163 -155 353q0 105 39 188.5t116 165.5h57q-170 -156 -170 -354q0 -191 170 -353z" />
    <glyph glyph-name="parenright.superior" unicode="&#x207e;" horiz-adv-x="272" 
d="M67 153h-57q170 162 170 353q0 198 -170 354h57q77 -82 116 -165.5t39 -188.5q0 -190 -155 -353z" />
    <glyph glyph-name="n.superior" unicode="&#x207f;" horiz-adv-x="450" 
d="M388 295h-45v231q0 59 -19 89.5t-68 30.5q-63 0 -146 -76v-275h-45v385h45v-65q81 76 155 76q62 0 92.5 -38.5t30.5 -106.5v-251z" />
    <glyph glyph-name="zero.inferior" unicode="&#x2080;" horiz-adv-x="428" 
d="M392 103q0 -116 -38.5 -172.5t-139.5 -56.5q-100 0 -139 57t-39 172t39 172t139 57t139 -56.5t39 -172.5zM344 103q0 95 -28 139.5t-102 44.5q-73 0 -101 -45t-28 -139t28 -139t101 -45q74 0 102 44.5t28 139.5z" />
    <glyph glyph-name="one.inferior" unicode="&#x2081;" horiz-adv-x="316" 
d="M290 -117h-244v38h107v315q-51 -31 -118 -43v37q90 28 141 102h24v-411h90v-38z" />
    <glyph glyph-name="two.inferior" unicode="&#x2082;" horiz-adv-x="408" 
d="M377 -117h-351v45q65 46 151 116q7 6 25.5 20.5l25.5 20t21.5 18.5t20.5 20l15.5 19t13.5 21t7 21.5t3 24.5q0 34 -29.5 55.5t-82.5 21.5q-85 0 -135 -59l-38 28q61 77 171 77q72 0 118.5 -31.5t46.5 -89.5q0 -47 -28 -86.5t-87 -84.5l-147 -112h279v-45z" />
    <glyph glyph-name="three.inferior" unicode="&#x2083;" horiz-adv-x="395" 
d="M367 20q0 -73 -48 -109.5t-131 -36.5q-48 0 -90 19t-65 53l41 28q37 -54 113 -54q129 0 129 99q0 89 -128 89q-29 0 -64 -7v19l168 164h-234v42h293v-43l-138 -134q71 -1 112.5 -36.5t41.5 -92.5z" />
    <glyph glyph-name="four.inferior" unicode="&#x2084;" horiz-adv-x="399" 
d="M376 -5h-69v-124h-45v124h-234v31l251 306h28v-295h69v-42zM262 37v206l-170 -206h170z" />
    <glyph glyph-name="five.inferior" unicode="&#x2085;" horiz-adv-x="394" 
d="M365 22q0 -69 -49.5 -108.5t-139.5 -39.5q-56 0 -99 20.5t-63 47.5l47 23q34 -46 115 -46q140 0 140 106q0 86 -134 86q-62 0 -112 -29h-19l37 241h252v-45h-216l-22 -141q41 17 97 17q77 0 121.5 -32t44.5 -100z" />
    <glyph glyph-name="six.inferior" unicode="&#x2086;" horiz-adv-x="425" 
d="M393 26q0 -73 -45.5 -112.5t-127.5 -39.5q-91 0 -137.5 52t-46.5 150q0 113 50.5 184.5t153.5 71.5q81 0 138 -41l-33 -36q-42 32 -105 32q-73 0 -109.5 -46t-43.5 -119q72 42 149 42q74 0 115.5 -34t41.5 -104zM345 24q0 95 -119 95q-68 0 -142 -42q2 -158 137 -158
q59 0 91.5 27.5t32.5 77.5z" />
    <glyph glyph-name="seven.inferior" unicode="&#x2087;" horiz-adv-x="378" 
d="M356 288l-205 -405h-54l205 404h-226v-62h-44v107h324v-44z" />
    <glyph glyph-name="eight.inferior" unicode="&#x2088;" horiz-adv-x="424" 
d="M388 -2q0 -61 -46.5 -92.5t-128.5 -31.5q-87 0 -132 32t-45 92q0 83 107 119q-93 35 -93 104q0 111 163 111q79 0 120.5 -27.5t41.5 -76.5q0 -75 -95 -111q51 -19 79.5 -46t28.5 -73zM328 219q0 70 -115 70q-116 0 -116 -68q0 -24 21.5 -41t93.5 -43q59 17 87.5 34.5
t28.5 47.5zM340 -3q0 20 -10 35.5t-33 28t-37.5 18.5t-46.5 17q-28 -8 -46 -15.5t-39 -19t-32 -28t-11 -37.5q0 -78 128 -78q63 0 95 21t32 58z" />
    <glyph glyph-name="nine.inferior" unicode="&#x2089;" horiz-adv-x="424" 
d="M388 127q0 -113 -49.5 -183t-153.5 -70q-80 0 -146 45l36 36q45 -36 110 -36q73 0 109.5 44.5t43.5 117.5q-74 -43 -149 -43q-74 0 -115.5 35t-41.5 104q0 73 46 114t127 41q183 0 183 -205zM199 83q65 0 142 42q0 24 -2.5 44t-11 43t-23 38.5t-40 26t-60.5 10.5
q-59 0 -91.5 -28.5t-32.5 -78.5q0 -97 119 -97z" />
    <glyph glyph-name="parenleft.inferior" unicode="&#x208d;" horiz-adv-x="272" 
d="M262 -128h-57q-155 163 -155 353q0 105 39 188.5t116 165.5h57q-170 -156 -170 -354q0 -191 170 -353z" />
    <glyph glyph-name="parenright.inferior" unicode="&#x208e;" horiz-adv-x="272" 
d="M67 -128h-57q170 162 170 353q0 198 -170 354h57q77 -82 116 -165.5t39 -188.5q0 -190 -155 -353z" />
    <glyph glyph-name="Euro" unicode="&#x20ac;" horiz-adv-x="604" 
d="M589 605l-50 -25q-61 110 -174 110q-108 0 -161 -64t-62 -184h337l-14 -42h-325q0 -5 -0.5 -18.5t-0.5 -18.5v-35h308l-13 -42h-292q9 -126 61.5 -187.5t162.5 -61.5q85 0 167 65l34 -43q-89 -74 -206 -74q-254 0 -278 301h-72l15 42h54v35q0 5 0.5 18.5t0.5 18.5h-70
l14 42h58q11 146 83.5 223t201.5 77q159 0 221 -137z" />
    <glyph glyph-name="litre" unicode="&#x2113;" horiz-adv-x="512" 
d="M392 91l27 -33q-60 -70 -134 -70q-51 0 -79 31q-34 35 -34 112v127l-64 -69l-31 32l95 104v238q0 81 30 123t83 42q47 0 69.5 -31.5t22.5 -68.5q0 -136 -149 -309v-193q0 -46 18.5 -68.5t49.5 -22.5q44 0 96 56zM326 620q0 60 -40 60q-58 0 -58 -120v-170q9 10 25 34
q73 111 73 196z" />
    <glyph glyph-name="trademark" unicode="&#x2122;" horiz-adv-x="722" 
d="M682 378h-49v265l-91 -170h-40l-87 171v-266h-49v349h64l93 -188l101 188h58v-349zM283 678h-105v-300h-50v300h-106v49h261v-49z" />
    <glyph glyph-name="Omega" unicode="&#x2126;" horiz-adv-x="735" 
d="M683 0h-229v50q169 135 169 327q0 124 -67 204t-188 80q-114 0 -186.5 -79t-72.5 -204q0 -195 171 -328v-50h-230v50h164q-165 126 -165 333q0 143 89.5 236t230.5 93q146 0 229.5 -90.5t83.5 -236.5q0 -111 -49 -197.5t-116 -137.5h166v-50z" />
    <glyph glyph-name="estimated" unicode="&#x212e;" horiz-adv-x="676" 
d="M639 305h-470v-210q69 -69 167 -69q78 0 131 36t95 103q8 -4 21 -12t16 -10q-50 -76 -110.5 -115.5t-152.5 -39.5q-133 0 -215 91.5t-82 226.5q0 136 81.5 227t217.5 91q137 0 218 -91t83 -228zM506 344v172q-72 70 -169 70q-102 0 -168 -69v-173h337z" />
    <glyph glyph-name="onethird" unicode="&#x2153;" horiz-adv-x="1017" 
d="M731 727l-391 -878h-51l391 878h51zM347 293h-244v38h107v315q-51 -31 -118 -43v37q90 28 141 102h24v-411h90v-38zM947 -18q0 -73 -48 -109.5t-131 -36.5q-48 0 -90 19t-65 53l41 28q37 -54 113 -54q129 0 129 99q0 89 -128 89q-29 0 -64 -7v19l168 164h-234v42h293v-43
l-138 -134q71 -1 112.5 -36.5t41.5 -92.5z" />
    <glyph glyph-name="twothirds" unicode="&#x2154;" horiz-adv-x="1017" 
d="M731 727l-391 -878h-51l391 878h51zM947 -18q0 -73 -48 -109.5t-131 -36.5q-48 0 -90 19t-65 53l41 28q37 -54 113 -54q129 0 129 99q0 89 -128 89q-29 0 -64 -7v19l168 164h-234v42h293v-43l-138 -134q71 -1 112.5 -36.5t41.5 -92.5zM377 293h-351v45q65 46 151 116
q7 6 25.5 20.5l25.5 20t21.5 18.5t20.5 20l15.5 19t13.5 21t7 21.5t3 24.5q0 34 -29.5 55.5t-82.5 21.5q-85 0 -135 -59l-38 28q61 77 171 77q72 0 118.5 -31.5t46.5 -89.5q0 -47 -28 -86.5t-87 -84.5l-147 -112h279v-45z" />
    <glyph glyph-name="oneeighth" unicode="&#x215b;" horiz-adv-x="1017" 
d="M942 -39q0 -61 -46.5 -92.5t-128.5 -31.5q-87 0 -132 32t-45 92q0 83 107 119q-93 35 -93 104q0 111 163 111q79 0 120.5 -27.5t41.5 -76.5q0 -75 -95 -111q51 -19 79.5 -46t28.5 -73zM882 182q0 70 -115 70q-116 0 -116 -68q0 -24 21.5 -41t93.5 -43q59 17 87.5 34.5
t28.5 47.5zM894 -40q0 20 -10 35.5t-33 28t-37.5 18.5t-46.5 17q-28 -8 -46 -15.5t-39 -19t-32 -28t-11 -37.5q0 -78 128 -78q63 0 95 21t32 58zM731 727l-391 -878h-51l391 878h51zM347 293h-244v38h107v315q-51 -31 -118 -43v37q90 28 141 102h24v-411h90v-38z" />
    <glyph glyph-name="threeeighths" unicode="&#x215c;" horiz-adv-x="1017" 
d="M942 -39q0 -61 -46.5 -92.5t-128.5 -31.5q-87 0 -132 32t-45 92q0 83 107 119q-93 35 -93 104q0 111 163 111q79 0 120.5 -27.5t41.5 -76.5q0 -75 -95 -111q51 -19 79.5 -46t28.5 -73zM882 182q0 70 -115 70q-116 0 -116 -68q0 -24 21.5 -41t93.5 -43q59 17 87.5 34.5
t28.5 47.5zM894 -40q0 20 -10 35.5t-33 28t-37.5 18.5t-46.5 17q-28 -8 -46 -15.5t-39 -19t-32 -28t-11 -37.5q0 -78 128 -78q63 0 95 21t32 58zM731 727l-391 -878h-51l391 878h51zM392 427q0 -73 -48 -109.5t-131 -36.5q-48 0 -90 19t-65 53l41 28q37 -54 113 -54
q129 0 129 99q0 89 -128 89q-29 0 -64 -7v19l168 164h-234v42h293v-43l-138 -134q71 -1 112.5 -36.5t41.5 -92.5z" />
    <glyph glyph-name="fiveeighths" unicode="&#x215d;" horiz-adv-x="1017" 
d="M942 -39q0 -61 -46.5 -92.5t-128.5 -31.5q-87 0 -132 32t-45 92q0 83 107 119q-93 35 -93 104q0 111 163 111q79 0 120.5 -27.5t41.5 -76.5q0 -75 -95 -111q51 -19 79.5 -46t28.5 -73zM882 182q0 70 -115 70q-116 0 -116 -68q0 -24 21.5 -41t93.5 -43q59 17 87.5 34.5
t28.5 47.5zM894 -40q0 20 -10 35.5t-33 28t-37.5 18.5t-46.5 17q-28 -8 -46 -15.5t-39 -19t-32 -28t-11 -37.5q0 -78 128 -78q63 0 95 21t32 58zM731 727l-391 -878h-51l391 878h51zM393 432q0 -69 -49.5 -108.5t-139.5 -39.5q-56 0 -99 20.5t-63 47.5l47 23q34 -46 115 -46
q140 0 140 106q0 86 -134 86q-62 0 -112 -29h-19l37 241h252v-45h-216l-22 -141q41 17 97 17q77 0 121.5 -32t44.5 -100z" />
    <glyph glyph-name="seveneighths" unicode="&#x215e;" horiz-adv-x="1017" 
d="M942 -39q0 -61 -46.5 -92.5t-128.5 -31.5q-87 0 -132 32t-45 92q0 83 107 119q-93 35 -93 104q0 111 163 111q79 0 120.5 -27.5t41.5 -76.5q0 -75 -95 -111q51 -19 79.5 -46t28.5 -73zM882 182q0 70 -115 70q-116 0 -116 -68q0 -24 21.5 -41t93.5 -43q59 17 87.5 34.5
t28.5 47.5zM894 -40q0 20 -10 35.5t-33 28t-37.5 18.5t-46.5 17q-28 -8 -46 -15.5t-39 -19t-32 -28t-11 -37.5q0 -78 128 -78q63 0 95 21t32 58zM731 727l-391 -878h-51l391 878h51zM450 689l-205 -405h-54l205 404h-226v-62h-44v107h324v-44z" />
    <glyph glyph-name="partialdiff" unicode="&#x2202;" horiz-adv-x="601" 
d="M542 489q0 -91 -26 -192q-15 -58 -39.5 -110t-59 -98t-82.5 -73t-103 -27q-78 0 -127 51.5t-49 136.5q0 141 84.5 232t189.5 91q55 0 93 -24t55 -58h2q5 35 5 74q0 90 -40 137.5t-113 47.5q-57 0 -102 -28l-18 43q54 34 128 34q92 0 147 -61.5t55 -175.5zM470 353
q-12 43 -47.5 71t-90.5 28q-87 0 -152 -80t-65 -196q0 -62 32.5 -100t86.5 -38q80 0 143.5 85t92.5 230z" />
    <glyph glyph-name="Delta" unicode="&#x2206;" horiz-adv-x="640" 
d="M612 0h-580v33l258 667h65l257 -667v-33zM542 51l-203 532l-19 54l-16 -53l-204 -533h442z" />
    <glyph glyph-name="product" unicode="&#x220f;" horiz-adv-x="751" 
d="M657 -230h-58v879h-446v-879h-59v930h563v-930z" />
    <glyph glyph-name="summation" unicode="&#x2211;" horiz-adv-x="658" 
d="M628 -230h-607v24l364 445l-338 431v30h554v-50h-471l323 -410l-344 -420h519v-50z" />
    <glyph glyph-name="minus" unicode="&#x2212;" 
d="M584 265h-513v41h513v-41z" />
    <glyph glyph-name="uni2215" unicode="&#x2215;" horiz-adv-x="100" 
d="M271 727l-391 -878h-51l391 878h51z" />
    <glyph glyph-name="uni2219" unicode="&#x2219;" horiz-adv-x="228" 
d="M160 284q0 -24 -10 -33t-36 -9q-27 0 -36.5 10t-9.5 32q0 24 10 33.5t36 9.5q27 0 36.5 -9.5t9.5 -33.5z" />
    <glyph glyph-name="radical" unicode="&#x221a;" horiz-adv-x="547" 
d="M545 729l-212 -741h-48l-154 355l-56 -33l-20 38l104 61l148 -340l188 660h50z" />
    <glyph glyph-name="infinity" unicode="&#x221e;" horiz-adv-x="821" 
d="M765 294q0 -68 -43.5 -115.5t-118.5 -47.5q-60 0 -110 33.5t-83 86.5h-2q-36 -55 -85 -87.5t-104 -32.5q-77 0 -121 45t-44 114q0 72 43.5 117.5t118.5 45.5q113 0 193 -119h2q79 119 188 119q74 0 120 -43.5t46 -115.5zM712 293q0 49 -28.5 81t-83.5 32q-90 0 -165 -114
q32 -54 75 -84t89 -30q56 0 84.5 33t28.5 82zM384 292q-31 52 -76 83t-89 31q-55 0 -83 -33t-28 -83q0 -49 31 -80.5t79 -31.5q91 0 166 114z" />
    <glyph glyph-name="integral" unicode="&#x222b;" horiz-adv-x="509" 
d="M438 736l-14 -47q-22 11 -49 11q-93 0 -93 -108v-662q0 -76 -39.5 -117t-106.5 -41q-44 0 -68 12q4 11 13 46q23 -9 51 -9q92 0 92 107v664q0 73 39 114.5t108 41.5q43 0 67 -12z" />
    <glyph glyph-name="approxequal" unicode="&#x2248;" 
d="M584 174q-63 -55 -133 -55q-44 0 -126.5 41t-110.5 41q-76 0 -143 -69v52q61 56 133 56q44 0 126.5 -41.5t114.5 -41.5q77 0 139 69v-52zM584 390q-63 -55 -133 -55q-44 0 -126.5 41t-110.5 41q-76 0 -143 -69v52q61 56 133 56q44 0 126.5 -41.5t114.5 -41.5q77 0 139 69
v-52z" />
    <glyph glyph-name="notequal" unicode="&#x2260;" 
d="M584 154h-297l-63 -131h-46l63 131h-170v41h190l87 181h-277v41h297l68 141h46l-68 -141h170v-41h-190l-87 -181h277v-41z" />
    <glyph glyph-name="lessequal" unicode="&#x2264;" 
d="M584 86l-513 194v29l513 194v-47l-446 -162l446 -161v-47zM584 0h-513v41h513v-41z" />
    <glyph glyph-name="greaterequal" unicode="&#x2265;" 
d="M585 0h-513v41h513v-41zM585 280l-513 -194v47l446 161l-446 162v47l513 -194v-29z" />
    <glyph glyph-name="lozenge" unicode="&#x25ca;" horiz-adv-x="587" 
d="M308 700l220 -350l-220 -350h-33l-219 349l219 351h33zM291 64l180 286l-179 285l-180 -285z" />
    <glyph glyph-name="zero.fitted" unicode="&#xe097;" horiz-adv-x="587" 
d="M537 364q0 -192 -53 -285.5t-191 -93.5q-137 0 -190 93.5t-53 284.5q0 192 53 285.5t190 93.5q71 0 119.5 -25t75.5 -75.5t38 -117t11 -160.5zM479 364q0 168 -40.5 247t-145.5 79q-104 0 -144.5 -79.5t-40.5 -247.5q0 -167 40.5 -246.5t144.5 -79.5q105 0 145.5 79
t40.5 248z" />
    <glyph glyph-name="two.fitted" unicode="&#xe098;" horiz-adv-x="556" 
d="M501 0h-459v61l176 153.5t118 119t74.5 106t21.5 93.5q0 71 -40 113t-119 42q-103 0 -166 -81l-50 31q80 104 222 104q96 0 156 -54t60 -152q0 -40 -12 -79t-40 -80t-56.5 -75.5t-78.5 -82t-88 -80l-103 -87.5h384v-52z" />
    <glyph glyph-name="three.fitted" unicode="&#xe099;" horiz-adv-x="535" 
d="M495 220q0 -117 -69 -176t-189 -59q-65 0 -124.5 26.5t-92.5 76.5l54 32q24 -42 69 -62.5t94 -20.5q93 0 146.5 46.5t53.5 136.5q0 163 -197 163q-34 0 -69 -5v17l236 280h-337v52h400v-59l-197 -234q106 0 164 -56t58 -158z" />
    <glyph glyph-name="four.fitted" unicode="&#xe09a;" horiz-adv-x="546" 
d="M511 178h-86v-193h-56v193h-339v50l338 514h57v-514h86v-50zM369 228v427l-281 -427h281z" />
    <glyph glyph-name="five.fitted" unicode="&#xe09b;" horiz-adv-x="533" 
d="M493 225q0 -111 -67.5 -175.5t-190.5 -64.5q-77 0 -133 30t-82 69l54 31q21 -35 63 -56.5t98 -21.5q98 0 149 52t51 141q0 159 -192 159q-85 0 -156 -48h-21l49 386h344v-52h-300l-34 -269q58 33 141 33q105 0 166 -52t61 -162z" />
    <glyph glyph-name="six.fitted" unicode="&#xe09c;" horiz-adv-x="583" 
d="M538 233q0 -119 -62 -183.5t-175 -64.5q-125 0 -188 85.5t-63 246.5q0 90 16 165t48.5 134t87 92.5t127.5 33.5q113 0 182 -59l-36 -47q-59 54 -146 54q-55 0 -97 -25t-67 -69t-38 -97.5t-17 -118.5q103 76 214 76q101 0 157.5 -55t56.5 -168zM480 229q0 91 -43 133
t-128 42q-92 0 -202 -75q0 -292 195 -292q85 0 131.5 50t46.5 142z" />
    <glyph glyph-name="seven.fitted" unicode="&#xe09d;" horiz-adv-x="517" 
d="M487 668l-282 -683h-63l287 690h-332v-105h-52v157h442v-59z" />
    <glyph glyph-name="eight.fitted" unicode="&#xe09e;" horiz-adv-x="581" 
d="M531 184q0 -97 -63.5 -148t-176.5 -51q-118 0 -179.5 52t-61.5 147q0 147 175 202q-31 13 -52.5 24.5t-48.5 32.5t-41 50t-14 65q0 88 56 136t166 48q108 0 164.5 -47t56.5 -136q0 -63 -43 -103t-112 -69q84 -35 129 -79t45 -124zM456 558q0 65 -44 100.5t-121 35.5
q-80 0 -123 -34t-43 -95q0 -47 31 -78.5t134 -77.5q80 29 123 64.5t43 84.5zM473 182q0 38 -14.5 67.5t-46 51.5t-54.5 33.5t-67 29.5q-40 -15 -65.5 -27t-56 -34t-46 -52.5t-15.5 -69.5q0 -71 46.5 -108.5t136.5 -37.5q91 0 136.5 39t45.5 108z" />
    <glyph glyph-name="nine.fitted" unicode="&#xe09f;" horiz-adv-x="583" 
d="M533 405q0 -121 -27 -212.5t-91.5 -149.5t-160.5 -58q-112 0 -192 66l38 47q66 -61 154 -61q55 0 97 24t67 67.5t38 96t17 117.5q-103 -76 -214 -76q-100 0 -157 56t-57 169q0 119 63 185t174 66q251 0 251 -337zM476 393q0 44 -3 79.5t-15 78.5t-32 71.5t-57 48
t-88 19.5q-85 0 -131.5 -51.5t-46.5 -143.5q0 -177 171 -177q92 0 202 75z" />
    <glyph glyph-name="zero.taboldstyle" unicode="&#xe100;" horiz-adv-x="585" 
d="M536 286q0 -301 -244 -301q-243 0 -243 300t243 300q244 0 244 -299zM478 286q0 118 -41.5 182.5t-144.5 64.5q-102 0 -143.5 -65t-41.5 -183t41.5 -183t143.5 -65q103 0 144.5 65t41.5 184z" />
    <glyph glyph-name="one.taboldstyle" unicode="&#xe101;" horiz-adv-x="585" 
d="M457 0h-312v45h138v432q-62 -43 -152 -60v42q121 38 180 132h28v-546h118v-45z" />
    <glyph glyph-name="two.taboldstyle" unicode="&#xe102;" horiz-adv-x="585" 
d="M513 0h-449v53l196 153q93 75 131 122t38 101q0 48 -41.5 75t-108.5 27q-58 0 -96.5 -18.5t-69.5 -57.5l-48 35q70 95 217 95q89 0 147 -39.5t58 -115.5q0 -96 -89 -178q-81 -74 -251 -200h366v-52z" />
    <glyph glyph-name="three.taboldstyle" unicode="&#xe103;" horiz-adv-x="585" 
d="M517 69q0 -117 -69 -176t-189 -59q-65 0 -124.5 26.5t-92.5 76.5l54 32q24 -42 69 -62.5t94 -20.5q93 0 146.5 46.5t53.5 136.5q0 163 -197 163q-34 0 -69 -5v17l236 274h-337v52h400v-59l-197 -228q106 0 164 -56t58 -158z" />
    <glyph glyph-name="four.taboldstyle" unicode="&#xe104;" horiz-adv-x="585" 
d="M523 27h-86v-193h-56v193h-339v50l338 514h57v-514h86v-50zM381 77v427l-281 -427h281z" />
    <glyph glyph-name="five.taboldstyle" unicode="&#xe105;" horiz-adv-x="585" 
d="M517 74q0 -111 -67.5 -175.5t-190.5 -64.5q-77 0 -133 30t-82 69l54 31q21 -35 63 -56.5t98 -21.5q98 0 149 52t51 141q0 159 -192 159q-85 0 -156 -48h-21l49 380h344v-52h-300l-34 -263q58 33 141 33q105 0 166 -52t61 -162z" />
    <glyph glyph-name="six.taboldstyle" unicode="&#xe106;" horiz-adv-x="585" 
d="M538 233q0 -119 -62 -183.5t-175 -64.5q-125 0 -188 85.5t-63 246.5q0 90 16 165t48.5 134t87 92.5t127.5 33.5q113 0 182 -59l-36 -47q-59 54 -146 54q-55 0 -97 -25t-67 -69t-38 -97.5t-17 -118.5q103 76 214 76q101 0 157.5 -55t56.5 -168zM480 229q0 91 -43 133
t-128 42q-92 0 -202 -75q0 -292 195 -292q85 0 131.5 50t46.5 142z" />
    <glyph glyph-name="seven.taboldstyle" unicode="&#xe107;" horiz-adv-x="585" 
d="M527 511l-279 -677h-63l284 684h-332v-105h-52v157h442v-59z" />
    <glyph glyph-name="eight.taboldstyle" unicode="&#xe108;" horiz-adv-x="585" 
d="M533 184q0 -97 -63.5 -148t-176.5 -51q-118 0 -179.5 52t-61.5 147q0 147 175 202q-31 13 -52.5 24.5t-48.5 32.5t-41 50t-14 65q0 88 56 136t166 48q108 0 164.5 -47t56.5 -136q0 -63 -43 -103t-112 -69q84 -35 129 -79t45 -124zM458 558q0 65 -44 100.5t-121 35.5
q-80 0 -123 -34t-43 -95q0 -47 31 -78.5t134 -77.5q80 29 123 64.5t43 84.5zM475 182q0 38 -14.5 67.5t-46 51.5t-54.5 33.5t-67 29.5q-40 -15 -65.5 -27t-56 -34t-46 -52.5t-15.5 -69.5q0 -71 46.5 -108.5t136.5 -37.5q91 0 136.5 39t45.5 108z" />
    <glyph glyph-name="nine.taboldstyle" unicode="&#xe109;" horiz-adv-x="585" 
d="M535 252q0 -90 -16 -164t-48.5 -132t-87 -90t-127.5 -32q-112 0 -192 66l38 47q66 -61 154 -61q107 0 159.5 83.5t59.5 219.5q-103 -76 -214 -76q-101 0 -157.5 55t-56.5 168q0 118 63 183t174 65q251 0 251 -332zM478 240q0 44 -3 79t-15 77t-32 70t-57 47t-88 19
q-85 0 -131.5 -50t-46.5 -142q0 -91 43 -133t128 -42q92 0 202 75z" />
    <glyph glyph-name="zero.denominator" unicode="&#xe10a;" horiz-adv-x="428" 
d="M392 65q0 -116 -38.5 -172.5t-139.5 -56.5q-100 0 -139 57t-39 172t39 172t139 57t139 -56.5t39 -172.5zM344 65q0 95 -28 139.5t-102 44.5q-73 0 -101 -45t-28 -139t28 -139t101 -45q74 0 102 44.5t28 139.5z" />
    <glyph glyph-name="one.denominator" unicode="&#xe10b;" horiz-adv-x="316" 
d="M290 -154h-244v38h107v315q-51 -31 -118 -43v37q90 29 141 102h24v-411h90v-38z" />
    <glyph glyph-name="two.denominator" unicode="&#xe10c;" horiz-adv-x="408" 
d="M377 -154h-351v45q65 46 151 116q7 6 25.5 20.5l25.5 20t21.5 18.5t20.5 20l15.5 19t13.5 21t7 21.5t3 24.5q0 34 -29.5 55.5t-82.5 21.5q-85 0 -135 -59l-38 28q61 77 171 77q72 0 118.5 -31.5t46.5 -89.5q0 -47 -28 -86.5t-87 -84.5l-147 -112h279v-45z" />
    <glyph glyph-name="three.denominator" unicode="&#xe10d;" horiz-adv-x="395" 
d="M367 -18q0 -73 -48 -109.5t-131 -36.5q-48 0 -90 19t-65 53l41 28q37 -54 113 -54q129 0 129 99q0 89 -128 89q-29 0 -64 -7v19l168 164h-234v42h293v-43l-138 -134q71 -1 112.5 -36.5t41.5 -92.5z" />
    <glyph glyph-name="four.denominator" unicode="&#xe10e;" horiz-adv-x="399" 
d="M376 -42h-69v-124h-45v124h-234v31l251 306h28v-295h69v-42zM262 0v206l-170 -206h170z" />
    <glyph glyph-name="five.denominator" unicode="&#xe10f;" horiz-adv-x="394" 
d="M365 -16q0 -69 -49.5 -108.5t-139.5 -39.5q-56 0 -99 20.5t-63 47.5l47 23q34 -46 115 -46q140 0 140 106q0 86 -134 86q-62 0 -112 -29h-19l37 241h252v-45h-216l-22 -141q41 17 97 17q77 0 121.5 -32t44.5 -100z" />
    <glyph glyph-name="six.denominator" unicode="&#xe110;" horiz-adv-x="425" 
d="M393 -11q0 -73 -45.5 -112.5t-127.5 -39.5q-91 0 -137.5 52t-46.5 150q0 113 50.5 184.5t153.5 71.5q81 0 138 -41l-33 -36q-42 32 -105 32q-73 0 -109.5 -46t-43.5 -119q72 42 149 42q74 0 115.5 -34t41.5 -104zM345 -13q0 95 -119 95q-68 0 -142 -42q2 -158 137 -158
q59 0 91.5 27.5t32.5 77.5z" />
    <glyph glyph-name="seven.denominator" unicode="&#xe111;" horiz-adv-x="378" 
d="M356 241l-205 -405h-54l205 404h-226v-62h-44v107h324v-44z" />
    <glyph glyph-name="eight.denominator" unicode="&#xe112;" horiz-adv-x="424" 
d="M388 -39q0 -61 -46.5 -92.5t-128.5 -31.5q-87 0 -132 32t-45 92q0 83 107 119q-93 35 -93 104q0 111 163 111q79 0 120.5 -27.5t41.5 -76.5q0 -75 -95 -111q51 -19 79.5 -46t28.5 -73zM328 182q0 70 -115 70q-116 0 -116 -68q0 -24 21.5 -41t93.5 -43q59 17 87.5 34.5
t28.5 47.5zM340 -40q0 20 -10 35.5t-33 28t-37.5 18.5t-46.5 17q-28 -8 -46 -15.5t-39 -19t-32 -28t-11 -37.5q0 -78 128 -78q63 0 95 21t32 58z" />
    <glyph glyph-name="nine.denominator" unicode="&#xe113;" horiz-adv-x="424" 
d="M388 90q0 -113 -49.5 -183t-153.5 -70q-80 0 -146 45l36 36q45 -36 110 -36q73 0 109.5 44.5t43.5 117.5q-74 -43 -149 -43q-74 0 -115.5 35t-41.5 104q0 73 46 114t127 41q183 0 183 -205zM199 46q65 0 142 42q0 24 -2.5 44t-11 43t-23 38.5t-40 26t-60.5 10.5
q-59 0 -91.5 -28.5t-32.5 -78.5q0 -97 119 -97z" />
    <glyph glyph-name="zero.numerator" unicode="&#xe11e;" horiz-adv-x="428" 
d="M392 513q0 -116 -38.5 -172.5t-139.5 -56.5q-100 0 -139 57t-39 172t39 172t139 57t139 -56.5t39 -172.5zM344 513q0 95 -28 139.5t-102 44.5q-73 0 -101 -45t-28 -139t28 -139t101 -45q74 0 102 44.5t28 139.5z" />
    <glyph glyph-name="one.numerator" unicode="&#xe11f;" horiz-adv-x="316" 
d="M290 293h-244v38h107v315q-51 -31 -118 -43v37q90 28 141 102h24v-411h90v-38z" />
    <glyph glyph-name="two.numerator" unicode="&#xe120;" horiz-adv-x="408" 
d="M377 293h-351v45q65 46 151 116q7 6 25.5 20.5l25.5 20t21.5 18.5t20.5 20l15.5 19t13.5 21t7 21.5t3 24.5q0 34 -29.5 55.5t-82.5 21.5q-85 0 -135 -59l-38 28q61 77 171 77q72 0 118.5 -31.5t46.5 -89.5q0 -47 -28 -86.5t-87 -84.5l-147 -112h279v-45z" />
    <glyph glyph-name="three.numerator" unicode="&#xe121;" horiz-adv-x="395" 
d="M367 427q0 -73 -48 -109.5t-131 -36.5q-48 0 -90 19t-65 53l41 28q37 -54 113 -54q129 0 129 99q0 89 -128 89q-29 0 -64 -7v19l168 164h-234v42h293v-43l-138 -134q71 -1 112.5 -36.5t41.5 -92.5z" />
    <glyph glyph-name="four.numerator" unicode="&#xe122;" horiz-adv-x="399" 
d="M374 405h-69v-124h-45v124h-234v31l251 306h28v-295h69v-42zM260 447v206l-170 -206h170z" />
    <glyph glyph-name="five.numerator" unicode="&#xe123;" horiz-adv-x="394" 
d="M365 432q0 -69 -49.5 -108.5t-139.5 -39.5q-56 0 -99 20.5t-63 47.5l47 23q34 -46 115 -46q140 0 140 106q0 86 -134 86q-62 0 -112 -29h-19l37 241h252v-45h-216l-22 -141q41 17 97 17q77 0 121.5 -32t44.5 -100z" />
    <glyph glyph-name="six.numerator" unicode="&#xe124;" horiz-adv-x="425" 
d="M393 436q0 -73 -45.5 -112.5t-127.5 -39.5q-91 0 -137.5 52t-46.5 150q0 113 50.5 184.5t153.5 71.5q81 0 138 -41l-33 -36q-42 32 -105 32q-73 0 -109.5 -46t-43.5 -119q72 42 149 42q74 0 115.5 -34t41.5 -104zM345 434q0 95 -119 95q-68 0 -142 -42q2 -158 137 -158
q59 0 91.5 27.5t32.5 77.5z" />
    <glyph glyph-name="seven.numerator" unicode="&#xe125;" horiz-adv-x="378" 
d="M356 689l-205 -405h-54l205 404h-226v-62h-44v107h324v-44z" />
    <glyph glyph-name="eight.numerator" unicode="&#xe126;" horiz-adv-x="424" 
d="M388 408q0 -61 -46.5 -92.5t-128.5 -31.5q-87 0 -132 32t-45 92q0 83 107 119q-93 35 -93 104q0 111 163 111q79 0 120.5 -27.5t41.5 -76.5q0 -75 -95 -111q51 -19 79.5 -46t28.5 -73zM328 629q0 70 -115 70q-116 0 -116 -68q0 -24 21.5 -41t93.5 -43q59 17 87.5 34.5
t28.5 47.5zM340 407q0 20 -10 35.5t-33 28t-37.5 18.5t-46.5 17q-28 -8 -46 -15.5t-39 -19t-32 -28t-11 -37.5q0 -78 128 -78q63 0 95 21t32 58z" />
    <glyph glyph-name="nine.numerator" unicode="&#xe127;" horiz-adv-x="424" 
d="M388 537q0 -113 -49.5 -183t-153.5 -70q-80 0 -146 45l36 36q45 -36 110 -36q73 0 109.5 44.5t43.5 117.5q-74 -43 -149 -43q-74 0 -115.5 35t-41.5 104q0 73 46 114t127 41q183 0 183 -205zM199 493q65 0 142 42q0 24 -2.5 44t-11 43t-23 38.5t-40 26t-60.5 10.5
q-59 0 -91.5 -28.5t-32.5 -78.5q0 -97 119 -97z" />
    <glyph glyph-name="commaaccent" unicode="&#xf6c3;" horiz-adv-x="250" 
d="M171 -82q0 -55 -31 -111h-40q22 39 22 80q-43 0 -43 45q0 40 44 40q26 0 37 -13t11 -41z" />
    <glyph glyph-name="one.fitted" unicode="&#xf6dc;" horiz-adv-x="430" 
d="M387 0h-312v45h138v583q-62 -43 -152 -60v42q121 38 180 132h28v-697h118v-45z" />
    <glyph glyph-name="a.superior" unicode="&#xf6e9;" horiz-adv-x="421" 
d="M359 295h-45v53q-78 -64 -150 -64q-60 0 -94 32.5t-34 84.5q0 24 6.5 42.5t15.5 31t26.5 22t31.5 15t39 9.5t41 5.5t44.5 3.5t43.5 4l30 3v20q0 51 -28.5 71t-84.5 20q-69 0 -112 -40l-35 34q57 49 148 49q82 0 119.5 -29.5t37.5 -104.5v-262zM314 393v103l-66 -5
q-81 -6 -123 -24t-42 -64q0 -77 88 -77q66 0 143 67z" />
    <glyph glyph-name="b.superior" unicode="&#xf6ea;" horiz-adv-x="449" 
d="M409 490q0 -50 -14 -94t-54.5 -78t-102.5 -34q-65 0 -129 19l-35 -13h-9v555h45v-211q61 57 138 57q82 0 121.5 -54.5t39.5 -146.5zM362 489q0 158 -114 158q-71 0 -138 -62v-234q61 -23 126 -23q60 0 93 42t33 119z" />
    <glyph glyph-name="d.superior" unicode="&#xf6eb;" horiz-adv-x="449" 
d="M384 295h-45v46q-59 -57 -135 -57q-85 0 -124.5 54t-39.5 146q0 90 44 148.5t123 58.5q71 0 132 -46v200h45v-550zM339 390v207q-68 50 -129 50q-57 0 -90 -42t-33 -119q0 -158 114 -158q66 0 138 62z" />
    <glyph glyph-name="e.superior" unicode="&#xf6ec;" horiz-adv-x="408" 
d="M375 479h-288q2 -153 134 -153q50 0 100 35l28 -37q-56 -40 -127 -40q-89 0 -135.5 47.5t-46.5 152.5q0 207 177 207q158 0 158 -174v-38zM212 648q-55 0 -86.5 -33t-36.5 -93h238q-1 63 -26.5 94.5t-88.5 31.5z" />
    <glyph glyph-name="l.superior" unicode="&#xf6ee;" horiz-adv-x="213" 
d="M201 329l10 -36q-25 -9 -56 -9q-49 0 -69.5 26.5t-20.5 82.5v439l45 31v-463q0 -41 10.5 -59t40.5 -18q22 0 40 6z" />
    <glyph glyph-name="m.superior" unicode="&#xf6ef;" horiz-adv-x="672" 
d="M610 295h-45v230q0 28 -2 45.5t-8.5 37t-22.5 29t-41 9.5q-56 0 -131 -77v-274h-45v230q0 29 -2 46t-8.5 36.5t-22.5 29t-41 9.5q-55 0 -131 -76v-275h-45v385h45v-65q67 76 139 76q88 0 104 -83q39 42 72.5 62.5t74.5 20.5q110 0 110 -141v-255z" />
    <glyph glyph-name="o.superior" unicode="&#xf6f0;" horiz-adv-x="439" 
d="M399 487q0 -100 -45.5 -151.5t-133.5 -51.5t-134 51.5t-46 151.5q0 101 46 152.5t134 51.5t133.5 -52t45.5 -152zM352 487q0 161 -132 161q-133 0 -133 -161t133 -161q132 0 132 161z" />
    <glyph glyph-name="r.superior" unicode="&#xf6f1;" horiz-adv-x="276" 
d="M270 677l-17 -44q-12 5 -23 5q-23 0 -47 -11.5t-37 -22.5l-36 -32v-277h-45v385h45v-60q39 34 66.5 50t55.5 16q18 0 38 -9z" />
    <glyph glyph-name="s.superior" unicode="&#xf6f2;" horiz-adv-x="370" 
d="M336 399q0 -62 -46 -88.5t-112 -26.5q-41 0 -83 17t-62 49l38 24q35 -51 113 -51q43 0 75 16t32 56q0 27 -23 41.5t-80 27.5q-28 7 -41 10.5t-36 13t-34 19.5t-20 28.5t-9 41.5q0 56 43 85t104 29q100 0 140 -69l-38 -22q-35 51 -106 51q-35 0 -67 -17.5t-32 -51.5
q0 -31 23 -45t84 -28q27 -6 41.5 -10t36 -13t32 -19.5t19 -27.5t8.5 -40z" />
    <glyph glyph-name="t.superior" unicode="&#xf6f3;" horiz-adv-x="275" 
d="M264 297q-26 -13 -71 -13q-53 0 -77.5 23.5t-24.5 84.5v247h-78v41h78v135l46 31v-166h112v-41h-112v-241q0 -25 3 -39t16 -25t38 -11q27 0 59 10z" />
    <glyph glyph-name="h.superior" unicode="&#xf700;" horiz-adv-x="450" 
d="M388 284h-45v231q0 59 -19 89.5t-68 30.5q-63 0 -146 -76v-275h-45v550h45v-230q81 76 155 76q62 0 92.5 -38.5t30.5 -106.5v-251z" />
    <glyph glyph-name="I.alt" horiz-adv-x="235" 
d="M145 0h-55v727h55v-727z" />
    <glyph glyph-name="IJ.alt" horiz-adv-x="503" 
d="M145 0h-55v727h55v-727zM418 -10q0 -92 -36.5 -137.5t-135.5 -45.5q-54 0 -108 25l22 49q40 -22 92 -22q69 0 90 35t21 130v703h55v-737z" />
    <glyph glyph-name="Iacute.alt" horiz-adv-x="235" 
d="M145 0h-55v727h55v-727zM284 956l-148 -176h-45l114 176h79z" />
    <glyph glyph-name="Ibreve.alt" horiz-adv-x="235" 
d="M145 0h-55v727h55v-727zM262 918q-38 -138 -147 -138q-41 0 -73 25.5t-46.5 54t-21.5 58.5h41q18 -39 40.5 -57.5t61.5 -18.5t62 18t41 58h42z" />
    <glyph glyph-name="Icircumflex.alt" horiz-adv-x="235" 
d="M145 0h-55v727h55v-727zM264 780h-47l-102 129l-99 -129h-46l111 176h75z" />
    <glyph glyph-name="Idieresis.alt" horiz-adv-x="235" 
d="M145 0h-55v727h55v-727zM243 820q0 -22 -9 -31t-31 -9q-24 0 -32 10.5t-8 29.5q0 21 8.5 31t31.5 10q25 0 32.5 -10.5t7.5 -30.5zM71 820q0 -22 -9 -31t-31 -9q-24 0 -32 10.5t-8 29.5q0 21 8.5 31t31.5 10q25 0 32.5 -10.5t7.5 -30.5z" />
    <glyph glyph-name="Idotaccent.alt" horiz-adv-x="235" 
d="M145 0h-55v727h55v-727zM154 820q0 -22 -9 -31t-31 -9q-25 0 -32.5 10t-7.5 30q0 21 8.5 31t31.5 10q25 0 32.5 -10.5t7.5 -30.5z" />
    <glyph glyph-name="Igrave.alt" horiz-adv-x="235" 
d="M145 0h-55v727h55v-727zM144 780h-45l-148 176h79z" />
    <glyph glyph-name="Imacron.alt" horiz-adv-x="235" 
d="M145 0h-55v727h55v-727zM262 739h-288v57h288v-57z" />
    <glyph glyph-name="Iogonek.alt" horiz-adv-x="235" 
d="M279 -161q-49 -32 -110 -32q-52 0 -78.5 29t-26.5 76q0 44 26 116v699h55v-727h-18q-12 -36 -12 -74q0 -37 16 -54t51 -17q42 0 79 17z" />
    <glyph glyph-name="Itilde.alt" horiz-adv-x="235" 
d="M145 0h-55v727h55v-727zM295 914q0 -54 -27 -94t-78 -40q-49 0 -88 41q-2 2 -7.5 8t-8 8.5l-7.5 7.5t-8 7t-7.5 5.5t-8 5t-8 3t-8.5 1.5q-51 0 -56 -87h-43q0 54 27 94t79 40q49 0 88 -42q2 -2 8 -9t9.5 -10l10 -9t11.5 -9t12 -5.5t13 -2.5q28 0 40.5 27.5t13.5 59.5h43z
" />
    <glyph glyph-name="J.alt" horiz-adv-x="275" 
d="M190 -10q0 -92 -36.5 -137.5t-135.5 -45.5q-54 0 -108 25l22 49q40 -22 92 -22q69 0 90 35t21 130v703h55v-737z" />
    <glyph glyph-name="Jcircumflex.alt" horiz-adv-x="275" 
d="M190 -10q0 -92 -36.5 -137.5t-135.5 -45.5q-54 0 -108 25l22 49q40 -22 92 -22q69 0 90 35t21 130v703h55v-737zM292 780h-47l-102 129l-99 -129h-46l111 176h75z" />
    <glyph glyph-name="dotlessi.alt" horiz-adv-x="218" 
d="M136 0h-54v506h54v-506z" />
    <glyph glyph-name="eight.tab" horiz-adv-x="585" 
d="M533 184q0 -97 -63.5 -148t-176.5 -51q-118 0 -179.5 52t-61.5 147q0 147 175 202q-31 13 -52.5 24.5t-48.5 32.5t-41 50t-14 65q0 88 56 136t166 48q108 0 164.5 -47t56.5 -136q0 -63 -43 -103t-112 -69q84 -35 129 -79t45 -124zM458 558q0 65 -44 100.5t-121 35.5
q-80 0 -123 -34t-43 -95q0 -47 31 -78.5t134 -77.5q80 29 123 64.5t43 84.5zM475 182q0 38 -14.5 67.5t-46 51.5t-54.5 33.5t-67 29.5q-40 -15 -65.5 -27t-56 -34t-46 -52.5t-15.5 -69.5q0 -71 46.5 -108.5t136.5 -37.5q91 0 136.5 39t45.5 108z" />
    <glyph glyph-name="equal.tab" 
d="M584 456h-513v41h513v-41zM584 234h-513v41h513v-41z" />
    <glyph glyph-name="f_f_l.alt" horiz-adv-x="786" 
d="M356 724l-20 -48q-39 17 -82 17q-54 0 -71 -30t-17 -97v-60h220v60q0 102 36 139t115 37q51 0 121 -26l46 34v-750h-54v663q-65 30 -122 30q-54 0 -71 -30t-17 -97v-60h130v-47h-130v-459h-54v459h-220v-459h-54v459h-81v47h81v60q0 102 36 139t115 37q53 0 93 -18z" />
    <glyph glyph-name="f_l.alt" horiz-adv-x="495" 
d="M413 0h-54v663q-65 30 -122 30q-54 0 -71 -30t-17 -97v-60h130v-47h-130v-459h-54v459h-81v47h81v60q0 102 36 139t115 37q51 0 121 -26l46 34v-750z" />
    <glyph glyph-name="five.tab" horiz-adv-x="585" 
d="M512 225q0 -111 -67.5 -175.5t-190.5 -64.5q-77 0 -133 30t-82 69l54 31q21 -35 63 -56.5t98 -21.5q98 0 149 52t51 141q0 159 -192 159q-85 0 -156 -48h-21l49 386h344v-52h-300l-34 -269q58 33 141 33q105 0 166 -52t61 -162z" />
    <glyph glyph-name="four.tab" horiz-adv-x="585" 
d="M493 178h-86v-193h-56v193h-339v50l338 514h57v-514h86v-50zM351 228v427l-281 -427h281z" />
    <glyph glyph-name="fraction.tab" horiz-adv-x="249" 
d="M357 727l-450 -727h-51l450 727h51z" />
    <glyph glyph-name="g.alt" horiz-adv-x="554" 
d="M472 506v-503q0 -100 -51.5 -148t-171.5 -48q-44 0 -89 14t-64 27l24 49q23 -16 61.5 -28.5t72.5 -12.5q84 0 124 34t40 112v69q-78 -71 -168 -71q-100 0 -150 68.5t-50 189.5q0 47 11 91.5t34 84t64.5 63.5t96.5 24q81 0 165 -61v46h51zM418 129v277q-85 64 -159 64
q-79 0 -116 -62.5t-37 -147.5q0 -94 33.5 -152t109.5 -58q80 0 169 79z" />
    <glyph glyph-name="g.alt2" horiz-adv-x="517" 
d="M502 -56q0 -40 -22 -69t-59 -42.5t-73 -19.5t-77 -6q-50 0 -88.5 4.5t-75.5 16.5t-57 36.5t-20 61.5t28.5 68.5t73.5 49.5q-71 24 -71 76q0 45 59 86q-58 55 -58 137q0 79 48.5 128.5t146.5 49.5q78 0 132 -43q47 43 112 43v-49q-50 0 -88 -19q35 -46 35 -110
q0 -84 -50.5 -130.5t-143.5 -46.5q-56 0 -98 21q-46 -31 -46 -61q0 -26 33.5 -37.5t130.5 -18.5l52 -4.5t46.5 -5.5t43.5 -9t34.5 -14.5t28.5 -21.5t16 -30t7 -41zM394 343q0 62 -35.5 97t-100.5 35q-70 0 -106 -34t-36 -97q0 -62 35 -97t107 -35q69 0 102.5 34.5t33.5 96.5
zM447 -57q0 47 -51 61t-212 22l-10 -4q-89 -37 -89 -91q0 -42 46.5 -59t143.5 -17q172 0 172 88z" />
    <glyph glyph-name="gbreve.alt" horiz-adv-x="554" 
d="M472 506v-503q0 -100 -51.5 -148t-171.5 -48q-44 0 -89 14t-64 27l24 49q23 -16 61.5 -28.5t72.5 -12.5q84 0 124 34t40 112v69q-78 -71 -168 -71q-100 0 -150 68.5t-50 189.5q0 47 11 91.5t34 84t64.5 63.5t96.5 24q81 0 165 -61v46h51zM418 129v277q-85 64 -159 64
q-79 0 -116 -62.5t-37 -147.5q0 -94 33.5 -152t109.5 -58q80 0 169 79zM403 747q-38 -138 -147 -138q-41 0 -73 25.5t-46.5 54t-21.5 58.5h41q18 -39 40.5 -57.5t61.5 -18.5t62 18t41 58h42z" />
    <glyph glyph-name="gbreve.alt2" horiz-adv-x="517" 
d="M502 -56q0 -40 -22 -69t-59 -42.5t-73 -19.5t-77 -6q-50 0 -88.5 4.5t-75.5 16.5t-57 36.5t-20 61.5t28.5 68.5t73.5 49.5q-71 24 -71 76q0 45 59 86q-58 55 -58 137q0 79 48.5 128.5t146.5 49.5q78 0 132 -43q47 43 112 43v-49q-50 0 -88 -19q35 -46 35 -110
q0 -84 -50.5 -130.5t-143.5 -46.5q-56 0 -98 21q-46 -31 -46 -61q0 -26 33.5 -37.5t130.5 -18.5l52 -4.5t46.5 -5.5t43.5 -9t34.5 -14.5t28.5 -21.5t16 -30t7 -41zM394 343q0 62 -35.5 97t-100.5 35q-70 0 -106 -34t-36 -97q0 -62 35 -97t107 -35q69 0 102.5 34.5t33.5 96.5
zM447 -57q0 47 -51 61t-212 22l-10 -4q-89 -37 -89 -91q0 -42 46.5 -59t143.5 -17q172 0 172 88zM399 747q-38 -138 -147 -138q-41 0 -73 25.5t-46.5 54t-21.5 58.5h41q18 -39 40.5 -57.5t61.5 -18.5t62 18t41 58h42z" />
    <glyph glyph-name="gcircumflex.alt" horiz-adv-x="554" 
d="M472 506v-503q0 -100 -51.5 -148t-171.5 -48q-44 0 -89 14t-64 27l24 49q23 -16 61.5 -28.5t72.5 -12.5q84 0 124 34t40 112v69q-78 -71 -168 -71q-100 0 -150 68.5t-50 189.5q0 47 11 91.5t34 84t64.5 63.5t96.5 24q81 0 165 -61v46h51zM418 129v277q-85 64 -159 64
q-79 0 -116 -62.5t-37 -147.5q0 -94 33.5 -152t109.5 -58q80 0 169 79zM411 590h-47l-102 129l-99 -129h-46l111 176h75z" />
    <glyph glyph-name="gcircumflex.alt2" horiz-adv-x="517" 
d="M502 -56q0 -40 -22 -69t-59 -42.5t-73 -19.5t-77 -6q-50 0 -88.5 4.5t-75.5 16.5t-57 36.5t-20 61.5t28.5 68.5t73.5 49.5q-71 24 -71 76q0 45 59 86q-58 55 -58 137q0 79 48.5 128.5t146.5 49.5q78 0 132 -43q47 43 112 43v-49q-50 0 -88 -19q35 -46 35 -110
q0 -84 -50.5 -130.5t-143.5 -46.5q-56 0 -98 21q-46 -31 -46 -61q0 -26 33.5 -37.5t130.5 -18.5l52 -4.5t46.5 -5.5t43.5 -9t34.5 -14.5t28.5 -21.5t16 -30t7 -41zM394 343q0 62 -35.5 97t-100.5 35q-70 0 -106 -34t-36 -97q0 -62 35 -97t107 -35q69 0 102.5 34.5t33.5 96.5
zM447 -57q0 47 -51 61t-212 22l-10 -4q-89 -37 -89 -91q0 -42 46.5 -59t143.5 -17q172 0 172 88zM397 590h-47l-102 129l-99 -129h-46l111 176h75z" />
    <glyph glyph-name="gcommaaccent.alt" horiz-adv-x="554" 
d="M472 506v-503q0 -100 -51.5 -148t-171.5 -48q-44 0 -89 14t-64 27l24 49q23 -16 61.5 -28.5t72.5 -12.5q84 0 124 34t40 112v69q-78 -71 -168 -71q-100 0 -150 68.5t-50 189.5q0 47 11 91.5t34 84t64.5 63.5t96.5 24q81 0 165 -61v46h51zM418 129v277q-85 64 -159 64
q-79 0 -116 -62.5t-37 -147.5q0 -94 33.5 -152t109.5 -58q80 0 169 79zM211 655q0 55 31 111h40q-22 -38 -22 -80q43 0 43 -45q0 -40 -44 -40q-26 0 -37 13t-11 41z" />
    <glyph glyph-name="gcommaaccent.alt2" horiz-adv-x="517" 
d="M502 -56q0 -40 -22 -69t-59 -42.5t-73 -19.5t-77 -6q-50 0 -88.5 4.5t-75.5 16.5t-57 36.5t-20 61.5t28.5 68.5t73.5 49.5q-71 24 -71 76q0 45 59 86q-58 55 -58 137q0 79 48.5 128.5t146.5 49.5q78 0 132 -43q47 43 112 43v-49q-50 0 -88 -19q35 -46 35 -110
q0 -84 -50.5 -130.5t-143.5 -46.5q-56 0 -98 21q-46 -31 -46 -61q0 -26 33.5 -37.5t130.5 -18.5l52 -4.5t46.5 -5.5t43.5 -9t34.5 -14.5t28.5 -21.5t16 -30t7 -41zM394 343q0 62 -35.5 97t-100.5 35q-70 0 -106 -34t-36 -97q0 -62 35 -97t107 -35q69 0 102.5 34.5t33.5 96.5
zM447 -57q0 47 -51 61t-212 22l-10 -4q-89 -37 -89 -91q0 -42 46.5 -59t143.5 -17q172 0 172 88zM211 655q0 55 31 111h40q-22 -38 -22 -80q43 0 43 -45q0 -40 -44 -40q-26 0 -37 13t-11 41z" />
    <glyph glyph-name="gdotaccent.alt" horiz-adv-x="554" 
d="M472 506v-503q0 -100 -51.5 -148t-171.5 -48q-44 0 -89 14t-64 27l24 49q23 -16 61.5 -28.5t72.5 -12.5q84 0 124 34t40 112v69q-78 -71 -168 -71q-100 0 -150 68.5t-50 189.5q0 47 11 91.5t34 84t64.5 63.5t96.5 24q81 0 165 -61v46h51zM418 129v277q-85 64 -159 64
q-79 0 -116 -62.5t-37 -147.5q0 -94 33.5 -152t109.5 -58q80 0 169 79zM295 641q0 -22 -9 -31t-31 -9q-25 0 -32.5 10t-7.5 30q0 21 8.5 31t31.5 10q25 0 32.5 -10.5t7.5 -30.5z" />
    <glyph glyph-name="gdotaccent.alt2" horiz-adv-x="517" 
d="M502 -56q0 -40 -22 -69t-59 -42.5t-73 -19.5t-77 -6q-50 0 -88.5 4.5t-75.5 16.5t-57 36.5t-20 61.5t28.5 68.5t73.5 49.5q-71 24 -71 76q0 45 59 86q-58 55 -58 137q0 79 48.5 128.5t146.5 49.5q78 0 132 -43q47 43 112 43v-49q-50 0 -88 -19q35 -46 35 -110
q0 -84 -50.5 -130.5t-143.5 -46.5q-56 0 -98 21q-46 -31 -46 -61q0 -26 33.5 -37.5t130.5 -18.5l52 -4.5t46.5 -5.5t43.5 -9t34.5 -14.5t28.5 -21.5t16 -30t7 -41zM394 343q0 62 -35.5 97t-100.5 35q-70 0 -106 -34t-36 -97q0 -62 35 -97t107 -35q69 0 102.5 34.5t33.5 96.5
zM447 -57q0 47 -51 61t-212 22l-10 -4q-89 -37 -89 -91q0 -42 46.5 -59t143.5 -17q172 0 172 88zM293 641q0 -22 -9 -31t-31 -9q-25 0 -32.5 10t-7.5 30q0 21 8.5 31t31.5 10q25 0 32.5 -10.5t7.5 -30.5z" />
    <glyph glyph-name="i.alt" horiz-adv-x="218" 
d="M149 641q0 -22 -9 -31t-31 -9q-24 0 -32 10.5t-8 29.5q0 21 8.5 31t31.5 10q25 0 32.5 -10.5t7.5 -30.5zM136 0h-54v506h54v-506z" />
    <glyph glyph-name="i.dot" horiz-adv-x="276" 
d="M198 641q0 -22 -9 -31t-31 -9q-24 0 -32 10.5t-8 29.5q0 21 8.5 31t31.5 10q25 0 32.5 -10.5t7.5 -30.5zM190 0h-54v459h-104v47h158v-506z" />
    <glyph glyph-name="iacute.alt" horiz-adv-x="218" 
d="M269 766l-148 -176h-45l114 176h79zM136 0h-54v506h54v-506z" />
    <glyph glyph-name="ibreve.alt" horiz-adv-x="218" 
d="M136 0h-54v506h54v-506zM254 747q-38 -138 -147 -138q-41 0 -73 25.5t-46.5 54t-21.5 58.5h41q18 -39 40.5 -57.5t61.5 -18.5t62 18t41 58h42z" />
    <glyph glyph-name="icircumflex.alt" horiz-adv-x="218" 
d="M136 0h-54v506h54v-506zM256 590h-47l-102 129l-99 -129h-46l111 176h75z" />
    <glyph glyph-name="idieresis.alt" horiz-adv-x="218" 
d="M136 0h-54v506h54v-506zM236 641q0 -22 -9 -31t-31 -9q-24 0 -32 10.5t-8 29.5q0 21 8.5 31t31.5 10q25 0 32.5 -10.5t7.5 -30.5zM64 641q0 -22 -9 -31t-31 -9q-24 0 -32 10.5t-8 29.5q0 21 8.5 31t31.5 10q25 0 32.5 -10.5t7.5 -30.5z" />
    <glyph glyph-name="igrave.alt" horiz-adv-x="218" 
d="M136 0h-54v506h54v-506zM135 590h-45l-148 176h79z" />
    <glyph glyph-name="ij.alt" horiz-adv-x="435" 
d="M149 641q0 -22 -9 -31t-31 -9q-24 0 -32 10.5t-8 29.5q0 21 8.5 31t31.5 10q25 0 32.5 -10.5t7.5 -30.5zM136 0h-54v506h54v-506zM362 641q0 -22 -9 -31t-31 -9q-24 0 -32 10.5t-8 29.5q0 21 8.5 31t31.5 10q25 0 32.5 -10.5t7.5 -30.5zM349 -36q0 -82 -33.5 -119.5
t-116.5 -37.5q-46 0 -80 13l15 50q38 -15 76 -15q49 0 67 29.5t18 97.5v524h54v-542z" />
    <glyph glyph-name="imacron.alt" horiz-adv-x="218" 
d="M136 0h-54v506h54v-506zM253 607h-288v57h288v-57z" />
    <glyph glyph-name="iogonek.alt" horiz-adv-x="218" 
d="M136 0h-4q-13 -41 -13 -74q0 -37 16 -54t51 -17q42 0 79 17l18 -33q-49 -32 -110 -32q-52 0 -78.5 29t-26.5 76q0 34 14 88v506h54v-506zM149 641q0 -22 -9 -31t-31 -9q-24 0 -32 10.5t-8 29.5q0 21 8.5 31t31.5 10q25 0 32.5 -10.5t7.5 -30.5z" />
    <glyph glyph-name="itilde.alt" horiz-adv-x="218" 
d="M284 745q0 -54 -27 -94t-78 -40q-49 0 -88 41q-2 2 -7.5 8t-8 8.5l-7.5 7.5t-8 7t-7.5 5.5t-8 5t-8 3t-8.5 1.5q-51 0 -56 -87h-43q0 54 27 94t79 40q49 0 88 -42q2 -2 8 -9t9.5 -10l10 -9t11.5 -9t12 -5.5t13 -2.5q28 0 40.5 27.5t13.5 59.5h43zM136 0h-54v506h54v-506z
" />
    <glyph glyph-name="j.alt" horiz-adv-x="236" 
d="M163 641q0 -22 -9 -31t-31 -9q-24 0 -32 10.5t-8 29.5q0 21 8.5 31t31.5 10q25 0 32.5 -10.5t7.5 -30.5zM150 -36q0 -82 -33.5 -119.5t-116.5 -37.5q-46 0 -80 13l15 50q38 -15 76 -15q49 0 67 29.5t18 97.5v524h54v-542z" />
    <glyph glyph-name="jcircumflex.alt" horiz-adv-x="236" 
d="M150 -36q0 -82 -33.5 -119.5t-116.5 -37.5q-46 0 -80 13l15 50q38 -15 76 -15q49 0 67 29.5t18 97.5v524h54v-542zM270 590h-47l-102 129l-99 -129h-46l111 176h75z" />
    <glyph glyph-name="l.alt" horiz-adv-x="218" 
d="M136 0h-54v710l54 40v-750z" />
    <glyph glyph-name="lacute.alt" horiz-adv-x="218" 
d="M136 0h-54v710l54 40v-750zM280 956l-148 -176h-45l114 176h79z" />
    <glyph glyph-name="lcaron.alt" horiz-adv-x="218" 
d="M136 0h-54v710l54 40v-750zM257 673q0 -100 -50 -173h-40q42 67 42 126q0 12 -1 16q-21 0 -32 9.5t-11 35.5q0 40 44 40q26 0 37 -13t11 -41z" />
    <glyph glyph-name="lcommaaccent.alt" horiz-adv-x="218" 
d="M136 0h-54v710l54 40v-750zM158 -82q0 -55 -31 -111h-40q22 39 22 80q-43 0 -43 45q0 40 44 40q26 0 37 -13t11 -41z" />
    <glyph glyph-name="ldot.alt" horiz-adv-x="218" 
d="M136 0h-54v710l54 40v-750zM254 359q0 -22 -9 -31t-31 -9q-25 0 -32.5 10t-7.5 30q0 21 8.5 31t31.5 10q25 0 32.5 -10.5t7.5 -30.5z" />
    <glyph glyph-name="lslash.alt" horiz-adv-x="218" 
d="M136 0h-54v304l-79 -74v56l79 74v350l54 40v-340l79 74v-56l-79 -74v-354z" />
    <glyph glyph-name="nine.tab" horiz-adv-x="585" 
d="M533 405q0 -121 -27 -212.5t-91.5 -149.5t-160.5 -58q-112 0 -192 66l38 47q66 -61 154 -61q55 0 97 24t67 67.5t38 96t17 117.5q-103 -76 -214 -76q-100 0 -157 56t-57 169q0 119 63 185t174 66q251 0 251 -337zM476 393q0 44 -3 79.5t-15 78.5t-32 71.5t-57 48
t-88 19.5q-85 0 -131.5 -51.5t-46.5 -143.5q0 -177 171 -177q92 0 202 75z" />
    <glyph glyph-name="one.tab" horiz-adv-x="585" 
d="M467 0h-312v45h138v583q-62 -43 -152 -60v42q121 38 180 132h28v-697h118v-45z" />
    <glyph glyph-name="seven.tab" horiz-adv-x="585" 
d="M515 668l-282 -683h-63l287 690h-332v-105h-52v157h442v-59z" />
    <glyph glyph-name="six.tab" horiz-adv-x="585" 
d="M540 233q0 -119 -62 -183.5t-175 -64.5q-125 0 -188 85.5t-63 246.5q0 90 16 165t48.5 134t87 92.5t127.5 33.5q113 0 182 -59l-36 -47q-59 54 -146 54q-55 0 -97 -25t-67 -69t-38 -97.5t-17 -118.5q103 76 214 76q101 0 157.5 -55t56.5 -168zM482 229q0 91 -43 133
t-128 42q-92 0 -202 -75q0 -292 195 -292q85 0 131.5 50t46.5 142z" />
    <glyph glyph-name="three.tab" horiz-adv-x="585" 
d="M509 220q0 -117 -69 -176t-189 -59q-65 0 -124.5 26.5t-92.5 76.5l54 32q24 -42 69 -62.5t94 -20.5q93 0 146.5 46.5t53.5 136.5q0 163 -197 163q-34 0 -69 -5v17l236 280h-337v52h400v-59l-197 -234q106 0 164 -56t58 -158z" />
    <glyph glyph-name="two.tab" horiz-adv-x="585" 
d="M508 0h-459v61l176 153.5t118 119t74.5 106t21.5 93.5q0 71 -40 113t-119 42q-103 0 -166 -81l-50 31q80 104 222 104q96 0 156 -54t60 -152q0 -40 -12 -79t-40 -80t-56.5 -75.5t-78.5 -82t-88 -80l-103 -87.5h384v-52z" />
    <glyph glyph-name="zero.tab" horiz-adv-x="585" 
d="M536 364q0 -192 -53 -285.5t-191 -93.5q-137 0 -190 93.5t-53 284.5q0 192 53 285.5t190 93.5q71 0 119.5 -25t75.5 -75.5t38 -117t11 -160.5zM478 364q0 168 -40.5 247t-145.5 79q-104 0 -144.5 -79.5t-40.5 -247.5q0 -167 40.5 -246.5t144.5 -79.5q105 0 145.5 79
t40.5 248z" />
    <glyph glyph-name="dollar.alt" horiz-adv-x="527" 
d="M485 199q0 -93 -59 -141t-143 -52v-131h-43v132q-141 10 -205 129l42 29q57 -102 163 -110v285q-44 11 -72 21.5t-59 30.5t-46 52.5t-15 77.5q0 80 49.5 129.5t142.5 53.5v111h43v-112q73 -6 116 -35t74 -82l-43 -29q-26 45 -58.5 68.5t-88.5 27.5v-266q99 -24 150.5 -67
t51.5 -122zM240 398v257q-67 -4 -102.5 -38.5t-35.5 -91.5q0 -49 28.5 -76.5t109.5 -50.5zM430 194q0 61 -37 89.5t-110 48.5v-277q64 5 105.5 38.5t41.5 100.5z" />
    <glyph glyph-name="percent.alt" horiz-adv-x="900" 
d="M361 531q0 -107 -35.5 -158.5t-128.5 -51.5q-92 0 -128 52t-36 158q0 107 36 159t128 52q93 0 128.5 -52t35.5 -159zM313 531q0 85 -25 125.5t-91 40.5q-65 0 -90.5 -40.5t-25.5 -125.5t25.5 -125t90.5 -40q66 0 91 40t25 125zM841 201q0 -107 -35.5 -158.5t-128.5 -51.5
q-92 0 -128 52t-36 158q0 107 36 159t128 52q93 0 128.5 -52t35.5 -159zM793 201q0 85 -25 125.5t-91 40.5q-65 0 -90.5 -40.5t-25.5 -125.5t25.5 -125t90.5 -40q66 0 91 40t25 125zM683 727l-450 -727h-51l450 727h51z" />
    <glyph glyph-name="perthousand.alt" horiz-adv-x="1255" 
d="M361 531q0 -107 -35.5 -158.5t-128.5 -51.5q-92 0 -128 52t-36 158q0 107 36 159t128 52q93 0 128.5 -52t35.5 -159zM313 531q0 85 -25 125.5t-91 40.5q-65 0 -90.5 -40.5t-25.5 -125.5t25.5 -125t90.5 -40q66 0 91 40t25 125zM841 201q0 -107 -35.5 -158.5t-128.5 -51.5
q-92 0 -128 52t-36 158q0 107 36 159t128 52q93 0 128.5 -52t35.5 -159zM793 201q0 85 -25 125.5t-91 40.5q-65 0 -90.5 -40.5t-25.5 -125.5t25.5 -125t90.5 -40q66 0 91 40t25 125zM1224 201q0 -107 -35.5 -158.5t-128.5 -51.5q-92 0 -128 52t-36 158q0 107 36 159t128 52
q93 0 128.5 -52t35.5 -159zM1176 201q0 85 -25 125.5t-91 40.5q-65 0 -90.5 -40.5t-25.5 -125.5t25.5 -125t90.5 -40q66 0 91 40t25 125zM683 727l-450 -727h-51l450 727h51z" />
    <glyph glyph-name="onequarter.alt" horiz-adv-x="900" 
d="M717 727l-450 -727h-51l450 727h51zM346 329h-226v39h97v281q-45 -27 -107 -38v37q83 27 129 94h25v-374h82v-39zM800 103h-63v-113h-45v113h-213v31l229 280h29v-269h63v-42zM692 145v180l-149 -180h149z" />
    <glyph glyph-name="onehalf.alt" horiz-adv-x="900" 
d="M674 727l-450 -727h-51l450 727h51zM842 0h-323v44q98 73 158 122l26 21t25.5 21t18.5 18t17 21.5t8 21.5t4 28q0 34 -26.5 52.5t-75.5 18.5q-73 0 -120 -56l-38 28q57 73 159 73q66 0 109 -29t43 -83q0 -44 -26 -81t-80 -77l-129 -98h250v-45zM303 329h-226v39h97v281
q-45 -27 -107 -38v37q83 27 129 94h25v-374h82v-39z" />
    <glyph glyph-name="threequarters.alt" horiz-adv-x="900" 
d="M717 727l-450 -727h-51l450 727h51zM800 103h-63v-113h-45v113h-213v31l229 280h29v-269h63v-42zM692 145v180l-149 -180h149zM372 456q0 -68 -44 -101.5t-121 -33.5q-44 0 -83 18t-61 50l41 28q34 -50 102 -50q116 0 116 88q0 79 -115 79q-26 0 -60 -7v21l150 146h-210
v43h271v-42l-123 -120q63 -2 100 -34.5t37 -84.5z" />
    <glyph glyph-name="onethird.alt" horiz-adv-x="900" 
d="M674 727l-450 -727h-51l450 727h51zM303 329h-226v39h97v281q-45 -27 -107 -38v37q83 27 129 94h25v-374h82v-39zM838 126q0 -68 -44 -101.5t-121 -33.5q-44 0 -83 18t-61 50l41 28q34 -50 102 -50q116 0 116 88q0 79 -115 79q-26 0 -60 -7v21l150 146h-210v43h271v-42
l-123 -120q63 -2 100 -34.5t37 -84.5z" />
    <glyph glyph-name="twothirds.alt" horiz-adv-x="900" 
d="M693 727l-450 -727h-51l450 727h51zM838 126q0 -68 -44 -101.5t-121 -33.5q-44 0 -83 18t-61 50l41 28q34 -50 102 -50q116 0 116 88q0 79 -115 79q-26 0 -60 -7v21l150 146h-210v43h271v-42l-123 -120q63 -2 100 -34.5t37 -84.5zM348 329h-323v44q98 73 158 122l26 21
t25.5 21t18.5 18t17 21.5t8 21.5t4 28q0 34 -26.5 52.5t-75.5 18.5q-73 0 -120 -56l-38 28q57 73 159 73q66 0 109 -29t43 -83q0 -44 -26 -81t-80 -77l-129 -98h250v-45z" />
    <glyph glyph-name="oneeighth.alt" horiz-adv-x="900" 
d="M674 727l-450 -727h-51l450 727h51zM303 329h-226v39h97v281q-45 -27 -107 -38v37q83 27 129 94h25v-374h82v-39zM852 115q0 -61 -46.5 -92.5t-128.5 -31.5q-87 0 -132 32t-45 92q0 83 107 119q-93 35 -93 104q0 111 163 111q79 0 120.5 -27.5t41.5 -76.5q0 -75 -95 -111
q51 -19 79.5 -46t28.5 -73zM792 336q0 70 -115 70q-116 0 -116 -68q0 -24 21.5 -41t93.5 -43q59 17 87.5 34.5t28.5 47.5zM804 114q0 20 -10 35.5t-33 28t-37.5 18.5t-46.5 17q-28 -8 -46 -15.5t-39 -19t-32 -28t-11 -37.5q0 -78 128 -78q63 0 95 21t32 58z" />
    <glyph glyph-name="threeeighths.alt" horiz-adv-x="900" 
d="M674 727l-450 -727h-51l450 727h51zM852 115q0 -61 -46.5 -92.5t-128.5 -31.5q-87 0 -132 32t-45 92q0 83 107 119q-93 35 -93 104q0 111 163 111q79 0 120.5 -27.5t41.5 -76.5q0 -75 -95 -111q51 -19 79.5 -46t28.5 -73zM792 336q0 70 -115 70q-116 0 -116 -68
q0 -24 21.5 -41t93.5 -43q59 17 87.5 34.5t28.5 47.5zM804 114q0 20 -10 35.5t-33 28t-37.5 18.5t-46.5 17q-28 -8 -46 -15.5t-39 -19t-32 -28t-11 -37.5q0 -78 128 -78q63 0 95 21t32 58zM339 456q0 -68 -44 -101.5t-121 -33.5q-44 0 -83 18t-61 50l41 28q34 -50 102 -50
q116 0 116 88q0 79 -115 79q-26 0 -60 -7v21l150 146h-210v43h271v-42l-123 -120q63 -2 100 -34.5t37 -84.5z" />
    <glyph glyph-name="fiveeighths.alt" horiz-adv-x="900" 
d="M674 727l-450 -727h-51l450 727h51zM852 115q0 -61 -46.5 -92.5t-128.5 -31.5q-87 0 -132 32t-45 92q0 83 107 119q-93 35 -93 104q0 111 163 111q79 0 120.5 -27.5t41.5 -76.5q0 -75 -95 -111q51 -19 79.5 -46t28.5 -73zM792 336q0 70 -115 70q-116 0 -116 -68
q0 -24 21.5 -41t93.5 -43q59 17 87.5 34.5t28.5 47.5zM804 114q0 20 -10 35.5t-33 28t-37.5 18.5t-46.5 17q-28 -8 -46 -15.5t-39 -19t-32 -28t-11 -37.5q0 -78 128 -78q63 0 95 21t32 58zM349 458q0 -64 -45 -100.5t-129 -36.5q-51 0 -91 19.5t-59 44.5l46 23
q32 -42 104 -42q126 0 126 94q0 78 -120 78q-53 0 -102 -28h-20l34 224h234v-45h-197q-9 -54 -19 -124q37 15 85 15q71 0 112 -30t41 -92z" />
    <glyph glyph-name="seveneighths.alt" horiz-adv-x="900" 
d="M655 727l-450 -727h-51l450 727h51zM852 115q0 -61 -46.5 -92.5t-128.5 -31.5q-87 0 -132 32t-45 92q0 83 107 119q-93 35 -93 104q0 111 163 111q79 0 120.5 -27.5t41.5 -76.5q0 -75 -95 -111q51 -19 79.5 -46t28.5 -73zM792 336q0 70 -115 70q-116 0 -116 -68
q0 -24 21.5 -41t93.5 -43q59 17 87.5 34.5t28.5 47.5zM804 114q0 20 -10 35.5t-33 28t-37.5 18.5t-46.5 17q-28 -8 -46 -15.5t-39 -19t-32 -28t-11 -37.5q0 -78 128 -78q63 0 95 21t32 58zM390 691l-187 -370h-54l187 368h-201v-57h-44v102h299v-43z" />
    <glyph glyph-name="plus.alt" 
d="M584 345h-236v-236h-41v236h-236v41h236v236h41v-236h236v-41z" />
    <glyph glyph-name="minus.alt" 
d="M584 345h-513v41h513v-41z" />
    <glyph glyph-name="multiply.alt" 
d="M555 167l-28 -30l-199 199l-198 -199l-30 30l199 198l-198 199l29 29l198 -199l199 199l28 -28l-198 -200z" />
    <glyph glyph-name="less.alt" 
d="M584 126l-513 225v29l513 225v-47l-446 -193l446 -192v-47z" />
    <glyph glyph-name="greater.alt" 
d="M584 351l-513 -225v47l446 192l-446 193v47l513 -225v-29z" />
    <glyph glyph-name="logicalnot.alt" 
d="M584 234h-41v222h-472v41h513v-263z" />
    <glyph glyph-name="equal.alt" 
d="M584 456h-513v41h513v-41zM584 234h-513v41h513v-41z" />
    <glyph glyph-name="divide.alt" 
d="M367 581q0 -22 -9 -31t-31 -9q-24 0 -32 10.5t-8 29.5q0 21 8.5 31t31.5 10q25 0 32.5 -10.5t7.5 -30.5zM584 345h-513v41h513v-41zM367 149q0 -22 -9 -31t-31 -9q-24 0 -32 10.5t-8 29.5q0 21 8.5 31t31.5 10q25 0 32.5 -10.5t7.5 -30.5z" />
    <glyph glyph-name="plusminus.alt" 
d="M584 354h-236v-188h-41v188h-236v41h236v215h41v-215h236v-41zM584 80h-513v41h513v-41z" />
    <glyph glyph-name="periodcentered.alt" horiz-adv-x="228" 
d="M160 364q0 -24 -10 -33t-36 -9q-27 0 -36.5 10t-9.5 32q0 24 10 33.5t36 9.5q27 0 36.5 -9.5t9.5 -33.5z" />
    </font>
</defs>
</svg>
