<svg id="Layer_1" data-name="Layer 1" xmlns="http://www.w3.org/2000/svg" xmlns:xlink="http://www.w3.org/1999/xlink" viewBox="0 0 1248.24 491.94">
    <defs>
        <style>
        .cls-1 {
            fill: none;
        }
        
        .cls-2 {
            clip-path: url(#clip-path);
        }
        
        .cls-3 {
            fill: url(#linear-gradient);
        }
        </style>
        <clipPath id="clip-path" transform="translate(-215.92 -281.8)">
            <path class="cls-1" d="M452.77,561.59c-19.23-6.73-25.47-.63-25.47-0.63a0.42,0.42,0,0,1-.68,0s-4.31-6.47-25.47.63c0,0-6.86.93-9,0,0,0,4.7,23.3,34.77,23.82,29.27-.94,34.77-23.82,34.77-23.82C459.63,562.52,452.77,561.59,452.77,561.59Zm99.67-78.53c-5.77-86.52-19-113.75-41.45-141.81-35.7-44.62-128-57.75-176.87,1.89-25.36,30.93-40.78,94.92-38.56,152,1,95.63-2.55,168.37-47.53,196,117.29,77.83,314.34,121,353.29,3C553.72,687.69,556.6,537.47,552.44,483.06ZM506.08,681.69c-24,37.37-160.07,32.5-163.49-19.17-2.18-7.22,5.66-44.62,8-50.19,2.49-6.84,3.57-6.84,6.87-4,7.75,6.4,37,38,107.52,51.29h0c14.91,3.62,31,5.94,33.49,6.25C515.59,666.87,506.91,680.25,506.08,681.69Zm22.63-208.39c-2.28,11.43-22,144.07-93.19,151.68,0,0-58.9,7.36-84.64-42.22-11.92-24.11-16-29.44-24.69-59.74-12.62-43.77-16.62-71.11-.46-130.93,18.66-69.1,127.38-103,185-29.11C529.92,389.84,533.84,434,528.72,473.31ZM425.61,348C359,346.85,328.17,420,328.17,420c-1,1.22,1.21.34,1.21,0.34s36.65-61.46,73.47-62.38c55.48-1.38,51.89,53.92,119.37,91,0,0.07,2.75,1.41,2.75-4.24A78.76,78.76,0,0,0,522,425S503.42,349.37,425.61,348ZM523.45,459s-45.92-12.67-82.93.86c0,0-4.24,2.19-15.87,2.19H424.4c-11.63,0-15.9-1.93-15.9-1.93-37-13.52-83.1-1-83.1-1-1.68.41-2.16,6.89-.65,7.7s2.61,1,4.73,10.31,9.61,18.27,15.53,21.11,20.77,4.88,39.88,4.47,26.06-1.82,31.9-21.18c2.36-7.82,6.06-8.47,7.48-8.47h0.13c1.42,0,5.13.53,7.49,8.35,5.84,19.37,12.79,20.54,31.9,20.94s34-1.56,39.89-4.4,13.43-11.73,15.55-21.06,3.26-9.45,4.77-10.26S525.14,459.37,523.45,459Zm-113,20.17c-1.85,18.71-19.56,19.35-21.41,19.37-3.49,0-24.11.93-34.51-1.89-10.76-2.92-14.35-10.72-15.7-24.33s23.46-12.75,32.18-12.36c0,0,22,.92,32.38,5C412.58,468.61,411.08,473,410.47,479.13ZM509.83,472c-1.36,13.61-4.94,21.41-15.7,24.33-10.4,2.82-31,1.93-34.51,1.89-1.84,0-19.55-.66-21.41-19.37-0.61-6.14-2.11-10.52,7.06-14.16,10.38-4.12,32.38-5,32.38-5C486.37,459.3,511.19,458.45,509.83,472ZM617.08,602.66a16,16,0,0,0,8.15,2,18.05,18.05,0,0,0,8.71-2.32,42.38,42.38,0,0,0,8.15-5.84,55.38,55.38,0,0,0,7-7.69,76.21,76.21,0,0,0,5.37-8.06,27.19,27.19,0,0,0-.65,7.88,26.65,26.65,0,0,0,1.2,6.39,22.38,22.38,0,0,0,2.13,4.73,6.57,6.57,0,0,0,2.32,2.5,16.34,16.34,0,0,0,8,2.41c3,0,5.64-1.23,8.62-2.5,6-2.58,7.74-17.13-5.19-12.6-2.22.78-3.55,1.2-4.17,0.83s-0.87-1.14-1.11-2.69a20.56,20.56,0,0,1,.37-6.49,61.54,61.54,0,0,1,3.06-10.38,99.38,99.38,0,0,1,7.13-14.55,11.31,11.31,0,0,1,1.11-2,6.93,6.93,0,1,0-12-6.86c-0.25.37-.46,0.71-0.65,1s-0.4.71-.65,1.2a161.92,161.92,0,0,1-12.14,18.44,131.57,131.57,0,0,1-11.67,13.43,47.65,47.65,0,0,1-9.82,7.78q-4.35,2.41-6.58,1.11a5.68,5.68,0,0,1-1.67-1.48q-0.93-1.11-.74-4.26,0.18-4.82,3.61-11.77a82.36,82.36,0,0,1,8.89-14,101.91,101.91,0,0,1,12.23-13.16,58.93,58.93,0,0,1,13.62-9.45q11.12-5.56,18.16-.19,2.41,1.85,4.45,1.39a4.47,4.47,0,0,0,3-1.95,5.2,5.2,0,0,0,.56-3.71A6.64,6.64,0,0,0,683,527.8a25.69,25.69,0,0,0-14.92-5.37,37,37,0,0,0-17.7,4.08,67.77,67.77,0,0,0-15.84,10.75A96.81,96.81,0,0,0,621,552.17a85.61,85.61,0,0,0-9.64,16.58,42.6,42.6,0,0,0-3.89,15.75,21.4,21.4,0,0,0,2.32,10.84A17.44,17.44,0,0,0,617.08,602.66Zm792.06-51.18q-2.1-1.13-5.48,0t-6.29,5.32a179.82,179.82,0,0,1-26.13,28.06A157.65,157.65,0,0,1,1342.54,605q-14.2,7.58-26.45,9t-19-5.32a14.6,14.6,0,0,1-3.87-7.58,31.62,31.62,0,0,1-.32-10.16,59.23,59.23,0,0,1,2.74-11.77,97.44,97.44,0,0,1,5.32-12.74,59.46,59.46,0,0,0,13.06,7.26,43.89,43.89,0,0,0,12.1,2.9,44.56,44.56,0,0,0,10.81-.32,83,83,0,0,0,8.55-1.77,58.38,58.38,0,0,0,15.16-7.42A59.31,59.31,0,0,0,1373,555.83a67.48,67.48,0,0,0,8.87-13.87,43.32,43.32,0,0,0,4.19-15.16,30.1,30.1,0,0,0-2.58-17.58,28.33,28.33,0,0,0-11.93-12.42,32.59,32.59,0,0,0-20.8-4,59.63,59.63,0,0,0-22.42,8.06,108.45,108.45,0,0,0-21.77,17.1A143.86,143.86,0,0,0,1288,540.67a139.07,139.07,0,0,0-11.93,21.61c-0.22.5-.42,1-0.63,1.49a233.74,233.74,0,0,1-16.23,22.54,148.91,148.91,0,0,1-15.32,16.29q-6.29,5.49-9.84,6.93a17.38,17.38,0,0,1-4.52,1.45q-0.65-.64-0.48-3.39a40.59,40.59,0,0,1,1.77-8.22,81.7,81.7,0,0,1,7.58-17.58q5.32-9.51,15-25.64,9.35-15.8,11-27.58t-3.87-20.16a24,24,0,0,0-12.26-9.19,55.59,55.59,0,0,0-14.84-2.74q2.25-8.38,0-12.58t-6.13-4.51q-3.87-.32-7.74,3.06t-4.84,9.84a93.32,93.32,0,0,1-3.71,14.84,179.59,179.59,0,0,1-6.61,17.1q-3.87,8.71-8.39,17.1t-9,15.48a25.4,25.4,0,0,0-1.3,2.26q-6.4,8.42-13.92,18.22a161.36,161.36,0,0,1-17.9,19.84q-9.36,9.36-15,11.77t-7.26,1.45q-1-.64-1.77-4.68t0.81-11.77q2.58-16.12,13.87-36.77,1.61-2.58,2.9-5.16a41.1,41.1,0,0,1,2.58-4.52l0.65-1.29q21-35.8,33.87-60.16T1200,448.42a12.34,12.34,0,0,0-1.77-9.35,11.43,11.43,0,0,0-7.58-5.16,11.74,11.74,0,0,0-9,1.77,11.41,11.41,0,0,0-5.16,7.58,65.9,65.9,0,0,1-3.55,10.32q-2.58,6.13-6.29,13.71t-8.23,16l-9,16.77q-21-13.86-47.74-1-12.58,5.81-25.16,17.42a171.78,171.78,0,0,0-23.55,27.09,168,168,0,0,0-16.29,30.32,98.79,98.79,0,0,0-4.18,12.72q-5,5.62-10.25,10.5-9.36,9.36-15,11.77t-7.26,1.45q-1.29-.64-1.94-4.68t0.65-11.29a107.22,107.22,0,0,1,5.32-18.06A173,173,0,0,1,1016.36,551a19.69,19.69,0,0,1,1.94-3.55,12.06,12.06,0,1,0-21-11.93c-0.43.65-.81,1.24-1.13,1.77s-0.7,1.24-1.13,2.1a281.93,281.93,0,0,1-21.13,32.09,228.93,228.93,0,0,1-20.32,23.38q-9.52,9.36-17.1,13.55t-11.45,1.94a9.89,9.89,0,0,1-2.9-2.58q-1.62-1.94-1.29-7.42,0.32-8.38,6.29-20.48a143.38,143.38,0,0,1,15.48-24.35,177.41,177.41,0,0,1,21.29-22.9,102.58,102.58,0,0,1,23.71-16.45q19.35-9.68,31.61-.32,4.19,3.23,7.74,2.42a7.78,7.78,0,0,0,5.16-3.39,9.05,9.05,0,0,0,1-6.45q-0.65-3.87-4.84-7.1a44.72,44.72,0,0,0-26-9.35q-14.68-.64-30.8,7.1a118,118,0,0,0-27.58,18.71,168.5,168.5,0,0,0-23.71,26,149,149,0,0,0-16.77,28.87Q897,587.45,896.69,600a37.25,37.25,0,0,0,4,18.87,30.36,30.36,0,0,0,12.74,12.74,27.82,27.82,0,0,0,14.19,3.55,31.42,31.42,0,0,0,15.16-4A73.78,73.78,0,0,0,957,621a96.38,96.38,0,0,0,12.26-13.39,132.68,132.68,0,0,0,9.35-14,47.35,47.35,0,0,0-1.13,13.71,46.38,46.38,0,0,0,2.1,11.13,39,39,0,0,0,3.71,8.23q2.09,3.39,4,4.35,7.42,4.19,13.87,4.19a28.78,28.78,0,0,0,15-4.35,63.45,63.45,0,0,0,13.71-11.29c0.91-1,1.8-2,2.69-3a28.4,28.4,0,0,0,13.19,15.1,30.85,30.85,0,0,0,14.52,3.55q11.29,0,23.06-7.58a127.28,127.28,0,0,0,22.42-18.55q1.29,9,5,14.19A26.46,26.46,0,0,0,1119,631a26.07,26.07,0,0,0,13.87,4.19q6.45,0,13.23-4.35a70,70,0,0,0,13.22-11.29,157.36,157.36,0,0,0,12.58-15.48q6.12-8.54,11.29-16.61t9.19-14.68a100.24,100.24,0,0,1,6.61-9.84,13.68,13.68,0,0,0,1.71-3.42q0.87-1.33,1.9-3,2.74-4.51,6-10.16t6.77-12.1q3.54-6.45,6.77-12.58,10.32-1.61,14-.81t4.35,1.45q0,0.33-.65,5.16t-7.42,16.13Q1222.78,560,1216,573.25a128.44,128.44,0,0,0-9.68,23.71q-2.9,10.49-1.29,18.39t8.71,14q6.13,5.8,15.81,5.8,8.06,0,16.93-8.39a141.32,141.32,0,0,0,17.26-20q2.32-3.22,4.57-6.52a53.89,53.89,0,0,0,1.17,7.8,36.72,36.72,0,0,0,11.13,19c6.45,5.81,15.91,9,28.38,9h3.87a24.34,24.34,0,0,0,3.87-.57c13.76-1.29,28.55-8.35,44.35-20.93s31.66-29.79,47.58-51.51c2.15-2.79,3.11-5.27,2.9-7.32A5,5,0,0,0,1409.14,551.48Zm-82.09-21.29a88.81,88.81,0,0,1,13.87-11.29,47.91,47.91,0,0,1,12.42-6q5.64-1.61,8.55.32,3.22,1.93,2.74,7.1a29.37,29.37,0,0,1-3.87,11.29,50.67,50.67,0,0,1-9.19,11.77,32,32,0,0,1-13.55,7.9q-12.9,3.87-23.87-5.48A97.14,97.14,0,0,1,1327.06,530.19ZM1106.91,569.7a244.88,244.88,0,0,1-20.8,24.68q-9.68,9.84-17.26,14t-11.45,1.94c-0.43-.43-1.08-1.13-1.94-2.1s-1.18-3.28-1-6.93q0.32-8.71,5.32-20.32a138.4,138.4,0,0,1,13.06-23.38,141.71,141.71,0,0,1,18.39-21.77,81.82,81.82,0,0,1,21-15.16,41.43,41.43,0,0,1,9.84-3.23,21.85,21.85,0,0,1,6.93-.16,12.56,12.56,0,0,1,4.68,1.61c1.18,0.76,2.1,1.34,2.74,1.77a1.78,1.78,0,0,0,1,.65l-7.1,11.93-1.61,2.26A289.54,289.54,0,0,1,1106.91,569.7ZM889.06,550.58a253.12,253.12,0,0,1,22.74-41,185,185,0,0,1,26-31.93q13.71-13.22,25-18.06a11.69,11.69,0,0,0,9.35-9.35,11.89,11.89,0,0,0-9-14.52q-30.65-6.77-63.22,8.39-27.42,12.58-54.83,40-6.77,6.77-14,15.64t-14.52,19q-7.26,10.16-13.87,21.45t-12.1,22.9q1-3.87,3.06-10.48t4.84-14.19q2.74-7.58,5.32-14.68t4.52-11.93q4.19-11.61,8.87-22.09t8.55-18.39q3.87-7.9,9-17.26a15.16,15.16,0,0,0,.81-10.48v0c-3.06-6.36-6.28-9.25-9.48-9.82C796.26,423.2,737.95,583.24,676.7,623c-13.73,8.92-27.39,8.89-43.8,11a19.83,19.83,0,0,0-15.14,9.65,36.49,36.49,0,0,0-5.59,17.73,26,26,0,0,0,4.25,16.22q4.67,6.89,14.33,5.59c20.67-3,35.47-7.23,55.18-24.06,35.54-30.35,98.8-152.77,111.51-175,1.88-2.55,1.75-.76.92,1-3.37,7.16-5.37,10-11,24.78C770,556,765.69,583,777.3,604.12a11.36,11.36,0,0,0,5.16,4.68,12.85,12.85,0,0,0,6.61,1.13,13.44,13.44,0,0,0,6.29-2.26,10.8,10.8,0,0,0,4.19-5.81,222.29,222.29,0,0,1,10.64-25.48q6.45-13.22,14.52-26.45a311.41,311.41,0,0,1,17.58-25.8,222.54,222.54,0,0,1,20.16-23.22q4.84-4.84,11.45-10.64A175.3,175.3,0,0,1,888.26,479a157.4,157.4,0,0,1,16.45-10.16,102.26,102.26,0,0,1,18.06-7.58,223.54,223.54,0,0,0-24,27.09,314.65,314.65,0,0,0-21.93,33.06,333.26,333.26,0,0,0-18.06,36.13,236.47,236.47,0,0,0-12.26,36.29,134.37,134.37,0,0,0-4.19,33.38q0.16,15.64,6,27.26,4.19,8.71,11.93,10.16a20.69,20.69,0,0,0,14-1.94,18.75,18.75,0,0,0,8.87-10.16q2.58-6.77-3.23-14.52-4.84-6.13-6.77-18.06T875,591.22A237.71,237.71,0,0,1,889.06,550.58Zm532.44-12a6.32,6.32,0,0,0-8.44-2.93c-3.14,1.52-6.79,6.44-5.27,9.58s7.14,5.25,10.28,3.73S1423,541.71,1421.5,538.57Z" />
        </clipPath>
        <linearGradient id="linear-gradient" y1="245.97" x2="1248.24" y2="245.97" gradientUnits="userSpaceOnUse">
            <stop offset="0" stop-color="#859093" />
            <stop offset="1" stop-color="#636e72" />
        </linearGradient>
    </defs>
    <title>logo-mob-a-madre</title>
    <g class="cls-2">
        <rect class="cls-3" width="1248.24" height="491.94" />
    </g>
</svg>
