<svg id="Layer_1" data-name="Layer 1" xmlns="http://www.w3.org/2000/svg" viewBox="0 0 120 60"><defs><style>.cls-1,.cls-2{fill:#fff}.cls-1,.cls-3{fill-rule:evenodd}.cls-3,.cls-4{fill:#fbae18}.cls-5{fill:none}</style></defs><title>YOUSE_IconsSocial</title><path class="cls-1" d="M80.73 19.51a1.37 1.37 0 0 1-1.36 1.38h-8.73a1.37 1.37 0 0 1-1.36-1.38v-5.9h2.12a3.89 3.89 0 1 0 7.2 0h2.12v5.9zM73 13.61a2.48 2.48 0 0 1 4.06 0 2.5 2.5 0 1 1-4.06 0zm7.18-4.06h.31V12h-2.4V9.56h2.1zm-.82-1.66h-8.72a2.77 2.77 0 0 0-2.75 2.78v8.84a2.77 2.77 0 0 0 2.75 2.78h8.73a2.77 2.77 0 0 0 2.75-2.78v-8.84a2.77 2.77 0 0 0-2.76-2.78zm-63.13 15h-3.3V15h-1.66v-2.72h1.65v-1.63c0-2.22.93-3.54 3.58-3.54h2.2v2.72h-1.37c-1 0-1.1.38-1.1 1.09v1.36h2.5l-.3 2.72h-2.2v7.89z"/><path class="cls-2" d="M111.2 7.9H98.79a1.06 1.06 0 0 0-1.08 1v12.36a1.06 1.06 0 0 0 1.08 1h12.41a1.06 1.06 0 0 0 1.08-1V8.94a1.06 1.06 0 0 0-1.08-1.04zM102 20.17h-2.12V13.3H102v6.87zm-1-7.81a1.24 1.24 0 1 1 1.25-1.24 1.25 1.25 0 0 1-1.25 1.24zm9.17 7.81H108v-3.34c0-.8 0-1.82-1.12-1.82s-1.3.87-1.3 1.76v3.4h-2.16V13.3h2.07v.94a2.27 2.27 0 0 1 2-1.11c2.19 0 2.59 1.42 2.59 3.27v3.77z"/><path class="cls-1" d="M50.44 10.78a3.09 3.09 0 0 0 1.28-1.72 5.62 5.62 0 0 1-1.85.76 2.83 2.83 0 0 0-2.13-1 3 3 0 0 0-2.92 3.12 3.3 3.3 0 0 0 .07.71 8.12 8.12 0 0 1-6-3.26 3.27 3.27 0 0 0-.41 1.61 3.18 3.18 0 0 0 1.3 2.6 2.79 2.79 0 0 1-1.32-.39 3.07 3.07 0 0 0 2.34 3.06 2.75 2.75 0 0 1-1.32.05 3 3 0 0 0 2.73 2.16 5.62 5.62 0 0 1-3.62 1.33 5.44 5.44 0 0 1-.7 0 7.89 7.89 0 0 0 4.47 1.4c5.37 0 8.3-4.75 8.3-8.87v-.4a6.15 6.15 0 0 0 1.46-1.61 5.54 5.54 0 0 1-1.68.45z"/><path class="cls-3" d="M80.73 49.51a1.37 1.37 0 0 1-1.36 1.38h-8.73a1.37 1.37 0 0 1-1.36-1.38v-5.9h2.12a3.89 3.89 0 1 0 7.2 0h2.12v5.9zM73 43.61a2.48 2.48 0 0 1 4.06 0 2.5 2.5 0 1 1-4.06 0zm7.18-4.06h.31V42h-2.4v-2.44h2.1zm-.79-1.66h-8.75a2.77 2.77 0 0 0-2.75 2.78v8.84a2.77 2.77 0 0 0 2.75 2.78h8.73a2.77 2.77 0 0 0 2.75-2.78v-8.84a2.77 2.77 0 0 0-2.76-2.78zm-63.16 15h-3.3V45h-1.66v-2.72h1.65v-1.63c0-2.22.93-3.54 3.58-3.54h2.2v2.72h-1.37c-1 0-1.1.38-1.1 1.09v1.36h2.5l-.3 2.72h-2.2v7.89z"/><path class="cls-4" d="M111.2 37.9H98.79a1.06 1.06 0 0 0-1.08 1v12.36a1.06 1.06 0 0 0 1.08 1h12.41a1.06 1.06 0 0 0 1.08-1V38.94a1.06 1.06 0 0 0-1.08-1.04zM102 50.17h-2.12V43.3H102v6.87zm-1-7.81a1.24 1.24 0 1 1 1.25-1.24 1.25 1.25 0 0 1-1.25 1.24zm9.17 7.81H108v-3.34c0-.8 0-1.82-1.12-1.82s-1.3.87-1.3 1.76v3.4h-2.16V43.3h2.07v.94a2.27 2.27 0 0 1 2-1.11c2.19 0 2.59 1.42 2.59 3.27v3.77z"/><path class="cls-3" d="M50.44 40.78a3.09 3.09 0 0 0 1.28-1.72 5.62 5.62 0 0 1-1.85.76 2.83 2.83 0 0 0-2.13-1 3 3 0 0 0-2.92 3.12 3.3 3.3 0 0 0 .07.71 8.12 8.12 0 0 1-6-3.26 3.27 3.27 0 0 0-.41 1.61 3.18 3.18 0 0 0 1.3 2.6 2.79 2.79 0 0 1-1.32-.39 3.07 3.07 0 0 0 2.34 3.06 2.75 2.75 0 0 1-1.32.05 3 3 0 0 0 2.73 2.16 5.62 5.62 0 0 1-3.62 1.33 5.44 5.44 0 0 1-.7 0 7.89 7.89 0 0 0 4.47 1.4c5.37 0 8.3-4.75 8.3-8.87v-.4a6.15 6.15 0 0 0 1.46-1.61 5.54 5.54 0 0 1-1.68.45z"/><path class="cls-5" d="M0 0h120v60H0z"/></svg>