<svg id="Layer_1" data-name="Layer 1" xmlns="http://www.w3.org/2000/svg" viewBox="0 0 350 280"><defs><style>.cls-1{fill:#e46455}.cls-2{fill:#fff}.cls-3{fill:#d7d9dd}.cls-4{fill:#c3c4ca}.cls-5{fill:#1f140f;opacity:.2}.cls-6{fill:#7fc0b7}.cls-7{fill:#e17558}.cls-8{fill:#54a861}.cls-9{fill:#375499}.cls-10{fill:#ee355c}.cls-11{fill:#c2c1c1}.cls-12{fill:#ed8b26}.cls-13{fill:#eeaf23}.cls-14{fill:none}.cls-15{fill:#d83d57}.cls-16{fill:#f3ac67}.cls-17{fill:#f1bf89}.cls-18{fill:#f0e1d8}</style></defs><title>product-home-section-about-icon</title><circle class="cls-1" cx="176.8" cy="139.8" r="97"/><path class="cls-2" d="M146.9 187.3l-51 13.7a8.3 8.3 0 0 1-10.2-5.9l-23.2-86.3a8.3 8.3 0 0 1 5.9-10.2l51.1-13.7a8.3 8.3 0 0 1 10.2 5.9l23.2 86.4a8.3 8.3 0 0 1-6 10.1z"/><circle class="cls-3" cx="103.5" cy="123.5" r="22.3"/><path class="cls-4" d="M99 110.4a10.3 10.3 0 1 1-6.2 13.2 10.2 10.2 0 0 1 6.2-13.2zm5.4 15c2.6-.9 4-3.9 2.8-7s-4.1-4.6-6.7-3.7-3.9 3.9-2.8 7.1 4.1 4.5 6.8 3.6zM115.6 129.9a4.5 4.5 0 0 1 2.3 2.6l-19.4 7a4.6 4.6 0 0 1 2.7-5.8l10.8-3.9a4.5 4.5 0 0 1 3.5.2"/><path class="cls-5" d="M126.7 192.7l4-3.3a7.3 7.3 0 0 0 .1-1.2l-.6-96.9c0-4-6-8-9.9-7.1l-1.4.5s0 98.4.1 110.1z"/><path class="cls-2" d="M194.8 185.6l56.7 15.2a9.3 9.3 0 0 0 11.3-6.5l25.7-96A9.3 9.3 0 0 0 282 87l-56.7-15.2a9.3 9.3 0 0 0-11.3 6.6l-25.7 96a9.3 9.3 0 0 0 6.5 11.2z"/><circle class="cls-6" cx="244.4" cy="114.3" r="23"/><path class="cls-7" d="M248.1 101.1a11.3 11.3 0 1 1-14.2 7.3 11.2 11.2 0 0 1 14.2-7.3zm-5.3 16.7c2.9.9 6-.7 7.1-4.2s-.4-6.8-3.3-7.7-6.1.8-7.2 4.3.5 6.7 3.4 7.6zM249.4 129.1a5 5 0 0 1 .3 3.8l-21.4-6.9a5 5 0 0 1 6.3-3.2l12 3.9a5 5 0 0 1 2.9 2.5"/><circle cx="237.2" cy="108.2" r="1.2" transform="rotate(-72.2 237.118 108.213)"/><circle cx="253.1" cy="113.3" r="1.2" transform="rotate(-72.1 253.274 113.314)"/><path d="M242.9 118.1a1.8 1.8 0 0 0-1.1-2.2 1.7 1.7 0 0 0-1.1 0h-.1l-1.3.5a3.5 3.5 0 0 1-4.1-1.3h-.4a2.9 2.9 0 0 0 .2.8l.2.6c1.4 2.7 5.9 2.5 5.9 2.5a1.8 1.8 0 0 0 1.8-.9z"/><path d="M242.5 118a1.8 1.8 0 0 1 3.1-.5h.1l.8 1.2a3.5 3.5 0 0 0 4.1 1.3h.2a.2.2 0 0 1 .1.3l-.6.6-.5.3c-2.7 1.3-6.3-1.4-6.3-1.4a1.8 1.8 0 0 1-1-1.8z"/><path class="cls-8" d="M248.8 98.9a12.3 12.3 0 0 1 8.1 15l.2-.6a12.3 12.3 0 1 0-23.5-7.6l-.2.6a12.3 12.3 0 0 1 15.4-7.4zM228.4 106.8a4.4 4.4 0 0 0 2.9 5.6l2.7-8.4a4.4 4.4 0 0 0-5.6 2.8z"/><path class="cls-9" d="M232.4 113c-.2.7-.3 1.2-1 1-.7-.2-.4-.7-.2-1.4l2.9-9c.2-.7.3-1.2 1-1 .7.2.4.7.2 1.4z"/><path class="cls-8" d="M260.8 117.2a4.4 4.4 0 0 1-5.6 2.9l2.7-8.4a4.4 4.4 0 0 1 2.9 5.5z"/><path class="cls-9" d="M253.9 120c-.2.7-.4 1.2.2 1.4.7.2.8-.3 1-1l2.9-9c.2-.7.4-1.2-.2-1.4-.7-.2-.8.3-1 1z"/><path class="cls-3" d="M257.7 158.1l-80.1-23.4a1.1 1.1 0 0 1-.8-1.4 1.1 1.1 0 0 1 1.4-.8l80.1 23.4a1.1 1.1 0 0 1 .8 1.4 1.1 1.1 0 0 1-1.4.8zM255 167.3l-80.1-23.4a1.1 1.1 0 0 1-.8-1.4 1.1 1.1 0 0 1 1.4-.8l80.1 23.4a1.1 1.1 0 0 1 .8 1.4 1.1 1.1 0 0 1-1.4.8zM252.2 177.1L172 153.7a1.1 1.1 0 0 1-.8-1.4 1.1 1.1 0 0 1 1.4-.8l80.2 23.5a1.1 1.1 0 0 1 .8 1.4 1.1 1.1 0 0 1-1.4.7z"/><path class="cls-5" d="M226 193.8l-6.3-3.7a8.3 8.3 0 0 1-.1-1.4l-1.2-108.3a8.2 8.2 0 0 1 8-8.2l6.3 1.4v119.5a5.9 5.9 0 0 1-.6 2.5z"/><rect class="cls-2" x="125.6" y="48.9" width="100.9" height="153.94" rx="6.2" ry="6.2"/><circle class="cls-10" cx="175.5" cy="92.5" r="29.4"/><path class="cls-11" d="M211.3 134.3h-78.2a1 1 0 0 1 0-2.1h78.3a1 1 0 0 1-.1 2.1z"/><circle class="cls-12" cx="175.2" cy="133.3" r="4.8"/><path class="cls-12" d="M175.2 132.2h-42.1a1 1 0 0 0 0 2.1h42.1v-2.1z"/><circle class="cls-12" cx="133.5" cy="133.1" r="3.3"/><circle class="cls-12" cx="211.9" cy="133.1" r="3.3"/><path class="cls-2" d="M131.8 132.6h3.1v.78h-3.1zM213.3 132.7h-1.1v-1.1h-.8v1.1h-1.1v.8h1.1v1.2h.8v-1.2h1.1v-.8z"/><path d="M157.6 111.1h34.2l1.1-3.1 1.1 3.1h1.2V90.4l-18.8 11-18.8-11v20.7z"/><path class="cls-13" d="M191.8 90.1a15.4 15.4 0 1 1-15.4-15.4 15.2 15.2 0 0 1 15.4 15.4zm-7.9.1c0-5.1-3.4-8.6-7.5-8.6s-7.5 3.5-7.5 8.6 3.4 8.4 7.5 8.4 7.5-3.5 7.5-8.4zM191.8 115.3a6.8 6.8 0 0 0-6.8-6.8h-17.2a6.8 6.8 0 0 0-6.8 6.8h30.8z"/><path class="cls-14" d="M167.8 108.5h3.6a19 19 0 0 0 10 0h3.6a6.8 6.8 0 0 1 6.8 6.8H161a6.8 6.8 0 0 1 6.8-6.8z"/><path d="M171.4 108.5h10a18.8 18.8 0 1 0-10 0zm5-3.1a15.4 15.4 0 1 1 15.4-15.3 15.2 15.2 0 0 1-15.4 15.3z"/><circle cx="187.4" cy="88.4" r="1.6"/><path class="cls-3" d="M217.4 155h-83.5a1.3 1.3 0 0 1-1.1-1.4 1.3 1.3 0 0 1 1.1-1.4h83.5a1.3 1.3 0 0 1 1.1 1.4 1.3 1.3 0 0 1-1.1 1.4zM217.4 166.6h-83.5a1.3 1.3 0 0 1-1.1-1.4 1.3 1.3 0 0 1 1.1-1.4h83.5a1.3 1.3 0 0 1 1.1 1.4 1.3 1.3 0 0 1-1.1 1.4zM217.4 179h-83.5a1.3 1.3 0 0 1-1.1-1.4 1.3 1.3 0 0 1 1.1-1.4h83.5a1.3 1.3 0 0 1 1.1 1.4 1.3 1.3 0 0 1-1.1 1.4z"/><path d="M165.4 87.8a1.6 1.6 0 0 0-1.5 1.1 1.6 1.6 0 1 1 3.1 0 1.6 1.6 0 0 0-1.6-1.1zM176.4 74.7a15.3 15.3 0 0 1 14.7 10.8h-21.8l-.9-4.6-1.1 4.6h-5.6a15.2 15.2 0 0 1 14.7-10.8z"/><path class="cls-15" d="M173.5 101.8a1.6 1.6 0 0 1-.4-1 1.6 1.6 0 0 1 3.2-.6h.3a1.6 1.6 0 1 1 2.8 1.7h-.1l-2.5 2.8h-.6l-2.5-2.7h-.1z"/><path class="cls-16" d="M169.8 225.8a8.9 8.9 0 0 1-2.2-12.3l17.4-25a8.9 8.9 0 0 1 12.3-2.2 8.9 8.9 0 0 1 2.2 12.3l-17.4 25a8.9 8.9 0 0 1-12.3 2.2z"/><path class="cls-17" d="M139.7 223.7h39.7v22.88h-39.7z"/><rect class="cls-17" x="133.7" y="175.9" width="50.4" height="54.46" rx="14.3" ry="14.3"/><path class="cls-17" d="M176 200.3a8.5 8.5 0 0 1-8.4-8.4v-40.2a8.4 8.4 0 0 1 8.4-8.4 8.4 8.4 0 0 1 8.4 8.4v40.1a8.5 8.5 0 0 1-8.4 8.5z"/><path class="cls-18" d="M171.5 151.4v.4h9.6v-.4c0-3-2.2-5.5-4.8-5.5-2.7 0-4.8 2.4-4.8 5.5z"/></svg>