<svg id="Layer_1" data-name="Layer 1" xmlns="http://www.w3.org/2000/svg" viewBox="0 0 350 280"><defs><style>.cls-1{fill:#fff}.cls-2{fill:none}.cls-3{fill:#704693}.cls-4{clip-path:url(#clip-path)}.cls-5{fill:#8566a5}.cls-6{fill:#c4add1}.cls-7{fill:#6a4c96}.cls-8{fill:#50368c}.cls-9{fill:#a892c1}.cls-10{fill:#4f387b}.cls-11{fill:#6b7b84}.cls-12{fill:#b7c2c8}.cls-13{fill:#472f92}.cls-14{fill:#d7d9dd}.cls-15{fill:#e3462e}.cls-16{fill:#f5b63e}.cls-17{fill:#97be13}.cls-18{fill:#afaeb4}.cls-19{clip-path:url(#clip-path-2)}.cls-20{fill:#8b6aa7}.cls-21{fill:#f3b039}.cls-22{fill:#c57d00}.cls-23{fill:#f1bf89}.cls-24{fill:#ef9959}.cls-25{fill:#efac32}.cls-26{fill:#ae8d05}.cls-27{fill:#010001}.cls-28{fill:#1a0a0b}.cls-29{fill:#dc666d}.cls-30{fill:#3d5ba9}.cls-31{fill:#623f99}.cls-32{fill:#f7941e}.cls-33{fill:#1f1338}.cls-34{fill:#48535b}.cls-35{fill:#5c5b5f}.cls-36{clip-path:url(#clip-path-3)}.cls-37{fill:#c8c3c6}.cls-38{fill:#98a8ad}.cls-39{fill:#dbdfe2}.cls-40{fill:#55545b}.cls-41{mask:url(#mask)}.cls-42{fill:#789fc6}.cls-43{fill:#973765}.cls-44{fill:#687e98}.cls-45{fill:#a6c8e7}.cls-46{fill:#df3d64}.cls-47{fill:#682d24}.cls-48{fill:#ef933b}.cls-49{fill:#e46455}.cls-50{fill:#7f3d28}.cls-51{fill:#5b2820}.cls-52{fill:#6d3327}.cls-53{fill:#1f140f}.cls-54{fill:#461f0b}.cls-55{fill:#fcaf17}.cls-56{fill:#28160e}.cls-57{fill:#ae8112}.cls-58{fill:#08826b}.cls-59{fill:#00ae8e}.cls-60{fill:#434041}.cls-61{fill:#ed8b0c}</style><clipPath id="clip-path"><ellipse class="cls-2" cx="173.5" cy="144.4" rx="96.5" ry="97.6"/></clipPath><clipPath id="clip-path-2"><path class="cls-2" d="M114.2 83.9h59v34.07h-59z"/></clipPath><clipPath id="clip-path-3"><ellipse class="cls-2" cx="173.4" cy="145" rx="96.4" ry="97"/></clipPath><mask id="mask" x="76.49" y="40.47" width="192.75" height="200.33" maskUnits="userSpaceOnUse"><circle class="cls-1" cx="172.9" cy="144.3" r="96.4"/><path class="cls-1" d="M265.4 78c0 21.1-10.1 32-31.3 32s-47.7-14.9-47.7-36 23.9-33.5 45-33.5 34 16.3 34 37.5z"/></mask></defs><title>product-home-section-about-icon</title><circle class="cls-3" cx="173.4" cy="144.3" r="96.4"/><g class="cls-4"><path class="cls-5" d="M74.2 28.9h263.4v159.62H74.2z"/><path class="cls-6" d="M105.7 64.2h98.2v73.38h-98.2z"/><path class="cls-7" d="M111.6 68h86.3v65.3h-86.3z"/><path class="cls-6" d="M153 98.8v-9.5l-21.3-21.1h-9.4L153 98.8zM104.2 131h101.2v4.9H104.2z"/><path class="cls-6" d="M152.3 67.1h5v70.11h-5z"/><path class="cls-6" d="M197.9 120.7v-9.5l-40.6-41.4-.1 10.2 40.7 40.7z"/><path class="cls-8" d="M74.2 174.3l263.5 1.5v83.4l-263.5-1.5v-83.4z"/><path class="cls-3" d="M74.2 169.6h263.4v7.23H74.2z"/><path class="cls-6" d="M112.4 92.2a2.2 2.2 0 0 0-.6 1.5h9.7a2.2 2.2 0 0 0-2.1-2.2H114a2.1 2.1 0 0 0-1.5.6"/><path class="cls-6" d="M118.2 92.2a2.2 2.2 0 0 0-.6 1.5h9.7a2.2 2.2 0 0 0-2.1-2.2h-5.4a2.1 2.1 0 0 0-1.5.6"/><path class="cls-6" d="M114.8 90a2.2 2.2 0 0 0-.6 1.5h9.7a2.2 2.2 0 0 0-2.1-2.2h-5.4a2.1 2.1 0 0 0-1.5.6M127.6 93a1.1 1.1 0 0 0-.3.8h2.1a1.1 1.1 0 0 0-1.1-1.1 1.1 1.1 0 0 0-.8.3"/><path class="cls-6" d="M120 90.8a1.1 1.1 0 0 0-.3.8h2.1a1.1 1.1 0 0 0-1.1-1.1 1.1 1.1 0 0 0-.8.3M118.2 103.7a4.1 4.1 0 0 0-1.2 2.9h18.2a4 4 0 0 0-4-4.1H121a4 4 0 0 0-2.8 1.2"/><path class="cls-6" d="M129 103.7a4.1 4.1 0 0 0-1.2 2.9H146a4 4 0 0 0-4-4.1h-10.1a4 4 0 0 0-2.8 1.2"/><path class="cls-6" d="M122.6 99.6a4.1 4.1 0 0 0-1.2 2.9h18.2a4 4 0 0 0-4-4.1h-10.2a4 4 0 0 0-2.8 1.2M146.6 105.1a2 2 0 0 0-.6 1.4h4a2 2 0 0 0-2-2 2 2 0 0 0-1.4.6"/><path class="cls-6" d="M132.5 101a2 2 0 0 0-.6 1.4h4a2 2 0 0 0-2-2 2 2 0 0 0-1.4.6"/><path class="cls-9" d="M287.6 95.4a2.4 2.4 0 0 1-2.4 2.4h-35.7a2.4 2.4 0 0 1-2.4-2.4v-9.5a2.4 2.4 0 0 1 2.4-2.4h35.7a2.4 2.4 0 0 1 2.4 2.4v9.4z"/><path class="cls-7" d="M248.6 85.2h37.2v10.67h-37.2z"/><path class="cls-10" d="M274.4 89.9h-4.1l1.8 5h4.1l-1.8-5z"/><path class="cls-5" d="M273.3 94.9h-6l2.7-7.5h6l-2.7 7.5z"/><path class="cls-9" d="M272.7 93.6h-3.9l1.8-4.8h3.9l-1.8 4.8z"/><ellipse class="cls-10" cx="279.9" cy="91.8" rx="2.6" ry="2.6"/><path class="cls-9" d="M251.8 91.3h11.7v3.59h-11.7z"/><path class="cls-9" d="M251.8 87.8h11.7v3.59h-11.7z"/><ellipse class="cls-7" cx="261.5" cy="93.1" rx=".8" ry=".8"/><ellipse class="cls-7" cx="261.5" cy="89.4" rx=".8" ry=".8"/><path class="cls-9" d="M306 115.1a2.1 2.1 0 0 1-1.9 2.3h-27.5a2.1 2.1 0 0 1-1.8-2.3v-9a2.1 2.1 0 0 1 1.8-2.3h27.6a2.1 2.1 0 0 1 1.9 2.3v9z"/><path class="cls-7" d="M276.5 105.6h27.8v9.96h-27.8z"/><path class="cls-9" d="M291 114.4l-2.3-1 2.7-6.4 2.2 1-2.6 6.4z"/><path class="cls-10" d="M287.3 114.4l-2.3-1 2.7-6.4 2.2 1-2.6 6.4zM294.8 114.4l-2.2-1 2.6-6.4 2.3 1-2.7 6.4z"/><path class="cls-9" d="M298.7 114.4l-2.3-1 2.7-6.4 2.2 1-2.6 6.4z"/></g><path class="cls-11" d="M149.7 142.2h-13.8v-15.7h13.8v15.7z"/><path class="cls-12" d="M151.1 142.2h-13.8l-.1-15.7H151l.1 15.7z"/><path class="cls-11" d="M171.3 131.6H111a4.2 4.2 0 0 1-4.1-4.2v-44a4.2 4.2 0 0 1 4.1-4.2h60.3a4.2 4.2 0 0 1 4.1 4.2v44.1a4.2 4.2 0 0 1-4.1 4.1z"/><rect class="cls-12" x="109.6" y="79.2" width="70.4" height="52.59" rx="2.8" ry="2.8"/><path class="cls-13" d="M175.8 79.1h-62a4.2 4.2 0 0 0-4.2 4.2v37.3H180V83.3a4.2 4.2 0 0 0-4.2-4.2z"/><path class="cls-12" d="M116.4 144.7h61.2a3.5 3.5 0 0 0-3.4-3h-54.5a3.5 3.5 0 0 0-3.4 3h.1z"/><circle class="cls-11" cx="143.5" cy="126" r="2.8"/><rect class="cls-14" x="113.7" y="80.5" width="60.1" height="38.06" rx=".9" ry=".9"/><path class="cls-3" d="M114.2 83.9h59v34.07h-59z"/><path class="cls-1" d="M121.4 81.3h37.5v1.91h-37.5z"/><circle class="cls-15" cx="115.2" cy="82.2" r=".6"/><circle class="cls-16" cx="117.2" cy="82.2" r=".6"/><circle class="cls-17" cx="119.2" cy="82.2" r=".6"/><path class="cls-18" d="M161.1 81.9v.7a.2.2 0 0 1-.3.2l-.6-.4a.2.2 0 0 1 0-.4l.6-.4a.2.2 0 0 1 .3.3zM162.1 82.6v-.7a.2.2 0 0 1 .3-.2l.6.4a.2.2 0 0 1 0 .4l-.6.4a.2.2 0 0 1-.3-.3zM165.7 81.4a.8.8 0 0 0-.8.6h-.1a.1.1 0 0 0-.2.2l.2.5a.1.1 0 0 0 .3.1l.4-.4a.1.1 0 0 0-.1-.3h-.1a.5.5 0 0 1 .5-.4.6.6 0 0 1 0 1.2h-.1v.3h.2a.9.9 0 0 0-.2-1.8z"/><g class="cls-19"><circle class="cls-20" cx="144" cy="103.7" r="24.7"/><path class="cls-21" d="M157.7 108.2a8 8 0 0 1-8.2 9.4h-9.8a8.2 8.2 0 0 1-8.3-9.5l1.9-14.8a11.1 11.1 0 0 1 10.7-9.4h.5a11.4 11.4 0 0 1 10.9 9.4z"/><path class="cls-22" d="M153.3 107.1c.4 4.8-1.3 9.5-5.7 9.5h-6.2c-4.8 0-6.2-5-5.9-9.6l1-16.1c.6-4.4 3.3-4.3 7.7-4.3h.5a8.6 8.6 0 0 1 8.5 7.6z"/><ellipse class="cls-23" cx="144.6" cy="96.9" rx="10" ry="10"/><path class="cls-24" d="M143.3 98.9a1 1 0 0 1 1-1h.7a1 1 0 0 1 1 1h-2.6z"/><path class="cls-25" d="M150.8 94.5a36.3 36.3 0 0 0 4.8-.3v-.9a11.4 11.4 0 0 0-10.9-9.4h-.7a11.2 11.2 0 0 0-9.3 5.5c2.5 3 8.8 5.1 16.1 5.1z"/><path class="cls-26" d="M137.1 91.6l2.1-.4M137 92a.4.4 0 0 1-.3-.3.4.4 0 0 1 .3-.5l2.1-.4a.4.4 0 1 1 .2.8l-2.1.4h-.2zM149.4 90.9l2.1.4M149.3 91.2a.4.4 0 0 1 .2-.8l2.1.5a.4.4 0 0 1-.2.8l-2.1-.5h-.1z"/><path class="cls-27" d="M138.8 95.4a1 1 0 0 1 1 .7 1 1 0 0 0 0-.3 1 1 0 1 0-2.1 0 1 1 0 0 0 0 .3 1 1 0 0 1 1-.7M150.4 95.4a1 1 0 0 1 1 .7 1 1 0 0 0 0-.3 1 1 0 0 0-2.1 0 1.1 1.1 0 0 0 0 .3 1 1 0 0 1 1-.7"/><path class="cls-28" d="M144.8 102.6a2.4 2.4 0 0 0 2.4-2.4h-4.7a2.3 2.3 0 0 0 2.3 2.4z"/><path class="cls-29" d="M144.9 102.6a2.3 2.3 0 0 0 1.8-.8 2.3 2.3 0 0 0-1.9-.8 2.2 2.2 0 0 0-1.7.9 2.4 2.4 0 0 0 1.8.7z"/><path class="cls-30" d="M152.2 93h-4.1a1.7 1.7 0 0 0-1.7 1.7v.8h-3.3v-.8a1.7 1.7 0 0 0-1.7-1.7h-4.1a1.7 1.7 0 0 0-1.7 1.7V97a1.7 1.7 0 0 0 1.7 1.7h4.1a1.7 1.7 0 0 0 1.7-1.7v-1h3.3v1a1.7 1.7 0 0 0 1.7 1.7h4.1a1.7 1.7 0 0 0 1.7-1.7v-2.3a1.7 1.7 0 0 0-1.7-1.7zm0 5.2h-4.1A1.1 1.1 0 0 1 147 97v-2.3a1.1 1.1 0 0 1 1.1-1.1h4.1a1.1 1.1 0 0 1 1.1 1.1V97a1.1 1.1 0 0 1-1.1 1.1zm-10.8 0h-4.1a1.1 1.1 0 0 1-1.1-1.1v-2.4a1.1 1.1 0 0 1 1.1-1.1h4.1a1.1 1.1 0 0 1 1.1 1.1V97a1.1 1.1 0 0 1-1.1 1.1z"/><path class="cls-23" d="M137.3 134.8h-.3a2 2 0 0 1-1.6-2.3l1.8-9.9v-7.3a2 2 0 0 1 3.9 0v7.7l-1.8 10.2a2 2 0 0 1-2 1.6zM152.4 134.8a2 2 0 0 1-1.9-1.6l-1.9-10.2v-8.7a2 2 0 1 1 3.9 0v8.4l1.8 9.9a2 2 0 0 1-1.6 2.3h-.3z"/><path class="cls-31" d="M141.8 115.1v-3.2a2.4 2.4 0 1 0-4.8 0v3.2h4.8zM152.6 115.1v-3.2a2.4 2.4 0 0 0-4.8 0v3.2h4.8z"/><path class="cls-31" d="M151 124.3v-9.8c0-3.2-2-5.7-4.5-5.9H143c-2.5.1-4.5 2.7-4.5 5.9v10.6a29.9 29.9 0 0 0-1.5 9.7 31.9 31.9 0 0 0 .8 7.2h14.1a31.9 31.9 0 0 0 .8-7.2 29.1 29.1 0 0 0-1.7-10.5z"/><path class="cls-13" d="M147.5 109a1.2 1.2 0 0 0-1.2-1.2h-3.1a1.2 1.2 0 0 0-1.2 1.2h5.5z"/><path class="cls-32" d="M146.2 113.6a1.3 1.3 0 1 0-2.5 0 1.3 1.3 0 1 0 2.5 0m1.3 0a2.5 2.5 0 1 1-2.5-2.6 2.5 2.5 0 0 1 2.5 2.5M147.5 117.6a1 1 0 0 0-1.1-1h-2.8a1 1 0 0 0-1.1 1h5.1z"/><path class="cls-33" d="M147.4 104.5v-.7l5.8-.8a2.8 2.8 0 0 0 2.2-1.8l.7-2.7.2-1 .7.2-.2 1-.7 2.8a3.5 3.5 0 0 1-2.8 2.3z"/><path class="cls-34" d="M149.2 104a.8.8 0 0 1-.7.9h-2a.8.8 0 0 1-.9-.7.8.8 0 0 1 .7-.9h2a.8.8 0 0 1 .9.7z"/><path class="cls-35" d="M134.4 95.7v-.5a10.3 10.3 0 1 1 20.6 0v.5h.6v-.5a10.9 10.9 0 1 0-21.9 0v.5h.6zM132.8 94.9v3.6a1.2 1.2 0 0 1-1.1-1.1v-1.3a1.2 1.2 0 0 1 1.1-1.2z"/><path class="cls-11" d="M134.6 93.1v7.2a2.3 2.3 0 0 1-2.2-2.3v-2.6a2.3 2.3 0 0 1 2.2-2.3z"/><path class="cls-35" d="M156.7 98.5v-3.6a1.1 1.1 0 0 1 1.1 1.1v1.3a1.2 1.2 0 0 1-1.1 1.2z"/><path class="cls-11" d="M155 100.3v-7.2a2.3 2.3 0 0 1 2.2 2.3V98a2.3 2.3 0 0 1-2.2 2.3z"/></g><g class="cls-36"><path class="cls-37" d="M73.9 151.1h43.8v82.05H73.9z"/><path class="cls-38" d="M106.2 151.1h79.6v44.7h-79.6z"/><path class="cls-12" d="M169.6 151.1h16.1v82.05h-16.1z"/><path class="cls-39" d="M183.8 151.1h6.1v82.05h-6.1zM100.8 151.1h21.5v82.05h-21.5z"/><path class="cls-40" d="M69.4 145.4h121.2v6.45H69.4z"/></g><g class="cls-41"><path class="cls-42" d="M217.1 194.8h7.6v29.03h-7.6z"/><path class="cls-43" d="M257.8 129.3c-.2-3.3.4-10.9-6.4-10.9h-36.2a6.3 6.3 0 0 0-6.4 6.2l.3 49h-8.8a6.3 6.3 0 0 0 6.4 6.3h44.7a6.4 6.4 0 0 0 6.4-5.6v-45z"/><path class="cls-44" d="M215.5 182.2h10.7v20.67h-10.7z"/><path class="cls-44" d="M198.8 179.5a6.4 6.4 0 0 0 6.4 6.3h31.2a6.4 6.4 0 0 0 6.4-6.3h-44z"/><ellipse class="cls-11" cx="198.1" cy="230.5" rx="4.6" ry="4.4"/><ellipse class="cls-11" cx="220.9" cy="230.5" rx="4.6" ry="4.4"/><ellipse class="cls-11" cx="244.9" cy="230.5" rx="4.6" ry="4.4"/><path class="cls-44" d="M250.5 229.6a6.4 6.4 0 0 0-6.4-6.3h-46.5a6.4 6.4 0 0 0-6.4 6.3h59.4z"/><path class="cls-45" d="M228.7 229.6a6.4 6.4 0 0 0-6.4-6.3h-2.8a6.3 6.3 0 0 0-6.4 6.3h15.7z"/><path class="cls-46" d="M257.8 129.3c-.2-3.3.4-10.9-6.4-10.9h-.1v-.2a6.3 6.3 0 0 0-6.4 6.2v47.2a1.7 1.7 0 0 1-1.9 1.8h-52.3a6.3 6.3 0 0 0-6.4 6.3h20.3a6.6 6.6 0 0 0 2 .3h44.7a6.4 6.4 0 0 0 6.4-5.6v-45.1z"/><path class="cls-47" d="M195.7 153.8l-1.9-.2-33.4-7.1a4.7 4.7 0 0 1 2-9.2l33.3 7.1.6-.3 10.5-18.5a4.7 4.7 0 1 1 8.2 4.7l-10.5 18.5a10.4 10.4 0 0 1-8.8 5z"/><path class="cls-48" d="M211.2 140.2a6 6 0 0 0 1.1-1.6l4.2-8.1a6 6 0 1 0-10.7-5.5l-4.2 8.1a6 6 0 0 0-.5 1.4z"/><path class="cls-49" d="M239.6 129a7.6 7.6 0 0 0-7.7-7.5h-15a7.6 7.6 0 0 0-7.7 7.5l-5.3 29.6h30.3z"/><path class="cls-48" d="M219.4 120.2a1.3 1.3 0 0 1 1 .4l4.6 4.8a.4.4 0 0 1-.1.6l-2.6 1a.6.6 0 0 1-.8-.3l-2.6-5.9a.4.4 0 0 1 .3-.6h.2z"/><ellipse class="cls-50" cx="224.2" cy="95.6" rx="22.1" ry="22.1"/><path class="cls-51" d="M220.9 100.2A2.1 2.1 0 0 1 223 98h1.6a2.1 2.1 0 0 1 2.1 2.1h-5.8z"/><path class="cls-52" d="M240.8 93.6A23.8 23.8 0 0 0 232 75a22.1 22.1 0 0 1-8.1 42.7 22.3 22.3 0 0 1-4.2-.4 23.9 23.9 0 0 0 21.1-23.7z"/><circle cx="212.9" cy="93.2" r="2.2"/><path class="cls-53" d="M207.9 86.3l4.7-.4M207.6 87.2a.9.9 0 0 1 .2-1.8l4.7-.4a.9.9 0 0 1 .2 1.9l-4.7.4h-.4z"/><circle cx="237.3" cy="93.2" r="2.2"/><path class="cls-53" d="M235.1 85l4.6 1.1M234.8 85.9a.9.9 0 0 1 .5-1.8l4.6 1.1a.9.9 0 1 1-.4 1.8l-4.6-1.1h-.1z"/><path class="cls-1" d="M223.7 108.4a5.2 5.2 0 0 0 5.3-5.1l-10.3-.2a5.2 5.2 0 0 0 5 5.3z"/><path class="cls-53" d="M261 74.7a7 7 0 0 0-4.3-6.2 6 6 0 0 0 .6-2.7c0-2.9-2.1-5.3-5-6.5v-.1c0-4-3.9-7.2-8.8-7.2l-2 .2c0-3.9-4-7.1-8.8-7.1a9.7 9.7 0 0 0-6.7 2.5 12.7 12.7 0 0 0-6.4-1.6c-5.2 0-9.5 2.8-10 6.5a9.4 9.4 0 0 0-3.7-.8c-4.6 0-8.3 3.2-8.3 7.2a6.3 6.3 0 0 0 .2 1.4c-4.1.4-7.3 3.4-7.3 7.1a6.4 6.4 0 0 0 1.3 3.8 6.5 6.5 0 0 0-3.2 5.5 6.6 6.6 0 0 0 4.2 6 12.5 12.5 0 0 0 .3 3.6c.4 2 4.3 10.2 6.5 10.4v3.7l3.9 2.1v-7c.7-.7 3.9-7.1 3-12.4 1.4.3 2.4.8 6.4-3.5a6.7 6.7 0 0 0 4.5 1.6 6.3 6.3 0 0 0 5.3-2.6 8.1 8.1 0 0 0 6.9 3.4 7.9 7.9 0 0 0 7.2-3.9c.1 1.9 1.9 3.4 4.3 3.5 0 .2.1 7.5 3.2 11.1v7.3h3.7v-5.3c4.8-.2 10.5-8.4 10.5-12.3a6 6 0 0 0-.4-2.2 6.7 6.7 0 0 0 2.9-5.5z"/><path class="cls-54" d="M183.3 232.8h-20a8 8 0 0 0-8 7.9h28v-8z"/><path class="cls-55" d="M167.5 234.8a.9.9 0 0 0 1.2-.1.9.9 0 0 0 .2-1.2l-2.5-2.7a.9.9 0 0 0-1.2.1.9.9 0 0 0-.2 1.2zM165.4 235.5a.9.9 0 0 0 1.2-.1.9.9 0 0 0 .2-1.2l-2.5-2.7a.9.9 0 0 0-1.2.1.9.9 0 0 0-.2 1.2z"/><path class="cls-56" d="M156.6 231.3l-19.6-3a7.9 7.9 0 0 0-9 6.6l27.4 4.1z"/><path class="cls-57" d="M141.1 231.2a.9.9 0 0 0 1.2.1.9.9 0 0 0 .4-1.1l-2-3a.9.9 0 0 0-1.2-.1.9.9 0 0 0-.4 1.1zM139 231.6a.9.9 0 0 0 1.2.1.9.9 0 0 0 .4-1.1l-2-3a.9.9 0 0 0-1.2-.1.9.9 0 0 0-.4 1.1z"/><path class="cls-53" d="M244.1 104.3a3.7 3.7 0 0 0 3.9-3.5v-8.7a3.7 3.7 0 0 0-3.9-3.4v15.6zM203.8 104.6c-2.4 0-4.3-1.5-4.3-3.4v-8.8c0-1.9 1.9-3.4 4.3-3.4v15.6zM223.8 101.2c-6.9-1.1-8.5 3-8.5 6.9s3.5 7.1 8.5 7.1 8.4-3.2 8.4-7.1-2-8.2-8.4-6.9zm0 9.9c-3.8 0-6.5-2-6.5-4.5s.6-4.6 6.5-4.4 6.4 1.9 6.4 4.4-2.7 4.5-6.5 4.5z"/><path class="cls-58" d="M167.4 158.4a14.4 14.4 0 0 0-14.4 14.4h67.2a14.4 14.4 0 0 0 14.4-14.4h-67.2z"/><path class="cls-59" d="M195.3 158.4a14.4 14.4 0 0 0-14.4 14.4h39.2a14.4 14.4 0 0 0 14.4-14.4h-39.2z"/><path class="cls-59" d="M183.1 233.9l-13.4-1.4c.1-.5 7.4-41 11.1-59.7l14.5-3c-3.6 18.7-12.1 63.7-12.2 64.1z"/><path class="cls-58" d="M156.6 232.1l-12.9-2.7c5.3-30.5 8.8-53.7 9.5-57.5l13.9-1c-.7 3.8-5.3 30.6-10.5 61.2z"/><path class="cls-50" d="M231.2 164h-.5l-38.3-2.3a4.7 4.7 0 1 1 .6-9.4l37.9 2.2 3.4-19.4a4.7 4.7 0 0 1 9.3 1.6l-3.4 19.8a9.1 9.1 0 0 1-9 7.5z"/><path class="cls-48" d="M232.5 138.8a6 6 0 0 1-.2-1.9l.6-9.1a6 6 0 0 1 12 .8l-.6 9.1a6 6 0 0 1-.3 1.5zM230.5 120.2a1.4 1.4 0 0 0-1 .4l-4.7 4.8a.4.4 0 0 0 .1.6l2.7 1a.6.6 0 0 0 .8-.3l2.6-5.9a.4.4 0 0 0-.3-.6h-.2z"/></g><path class="cls-49" d="M299.4 115.8a25.7 25.7 0 0 1-46.7-2 2.6 2.6 0 0 0-1.8-1.8l-4-1.2c-1.3-.4-1.4-1.3-.3-2l2.9-1.8a2.8 2.8 0 0 0 1.4-2.6 25.7 25.7 0 1 1 48.5 11.4z"/><path class="cls-1" d="M267.4 109.8h-1.9L264 105l-2 4.4h-2.1l-1.6-9.6h2.3l.8 5.9 1.8-3.9h1.8l1.3 3.9 1.5-5.6h2.2zM274.6 110.4c-3.4-.2-4.5-2.1-4.3-5.2s1.5-4.9 4.9-4.7 4.5 2.1 4.3 5.2-1.5 4.9-4.9 4.7zm.5-8c-1.5-.1-2.2.9-2.3 2.9s.4 3.1 2 3.2 2.2-.9 2.3-2.9-.5-3.1-2-3.2zM289.4 111h-1.9l-1.5-4.6-2 4.4h-2.1l-1.6-9.6h2.3l.8 5.9 1.8-3.9h1.8l1.3 3.9 1.5-5.6h2.2zM293.9 111.5a1 1 0 0 1-1.1-1.2 1.2 1.2 0 1 1 1.1 1.2zm1-3h-1.7v-6.6h2.4zM102.6 31a32.5 32.5 0 0 1 24.5 53.8 3.3 3.3 0 0 0-1 3l1 5.2c.3 1.7-.6 2.4-2.1 1.5l-3.7-2.2a3.6 3.6 0 0 0-3.7 0 32.5 32.5 0 1 1-15-61.3z"/><path class="cls-60" d="M71.9 63.5h-3.7v-8.7h3.4c2 0 3 .5 3 2a1.8 1.8 0 0 1-1.3 1.9 2 2 0 0 1 1.8 2.3c0 1.4-.9 2.5-3.2 2.5zm-.7-7h-.8v1.6h.7c1.1 0 1.3-.5 1.3-.8s-.3-.8-1.2-.8zm.5 3.2h-1.3v2h1.3a1.1 1.1 0 0 0 1.3-1 1 1 0 0 0-1.3-.9zM78 61.1a1.1 1.1 0 0 0 1.2 1.1 2.7 2.7 0 0 0 1.3-.4l1 1.2a4.4 4.4 0 0 1-2.5.7c-1.9 0-3-1-3-3.3s.8-3.4 3.1-3.4 2.8 1.2 2.8 3v1.1H78zm1.1-2.6c-.7 0-1 .3-1.1 1.3h2c.1-1-.3-1.4-.9-1.4zM90.1 63.5v-3.7c0-.9-.1-1.1-.5-1.1a2.1 2.1 0 0 0-1.1.6v4.2h-2v-3.7c0-.9-.1-1.1-.5-1.1a2.1 2.1 0 0 0-1.1.6v4.2H83v-6.3h1.8v.6a3.3 3.3 0 0 1 2-.8 1.5 1.5 0 0 1 1.5.8 3.4 3.4 0 0 1 2.1-.8c1.4 0 1.8.9 1.8 2.2v4.2h-2.1zM99.2 63.5h-1.4l-2.4-6.3h2l1.2 3.6 1.2-3.6h1.9zM102.9 63.5v-4.9h-.9v-1.4h2.9v6.3H103zm.8-6.9a1 1 0 1 1 0-1.9 1 1 0 0 1 1.1 1 1 1 0 0 1-1.1.9zM109.9 63.5v-3.7c0-.9-.2-1.1-.6-1.1a2.4 2.4 0 0 0-1.2.6v4.2h-1.9v-6.3h1.8v.6a3.5 3.5 0 0 1 2-.8c1.2 0 1.9.7 1.9 2.2v4.3H110zM117.1 63.5V63a2.6 2.6 0 0 1-1.8.7c-1.7 0-2.5-1.3-2.5-3.3s1-3.4 2.7-3.4a3.4 3.4 0 0 1 1.4.3v-2.5h1.9v8.7H117zm-.1-4.8a1.9 1.9 0 0 0-1-.3c-.7 0-1.1.5-1.1 2s.4 1.9 1.1 1.9a1.3 1.3 0 0 0 1-.5v-3.1zM123.1 63.7c-2.6 0-3.1-1.8-3.1-3.3s.5-3.3 3.1-3.3 3.1 1.8 3.1 3.3-.5 3.3-3.1 3.3zm0-5.1c-.7 0-1.1.3-1.1 1.8s.5 1.8 1.1 1.8 1.1-.3 1.1-1.8-.4-1.9-1.1-1.9z"/><path class="cls-61" d="M72.9 75.1v4.6H70v-4.4l-3.8-7.1h3.1l2.2 4.3 2.3-4.3h2.8zM80.3 79.9c-3.5 0-4.2-2.4-4.2-4.4s.7-4.4 4.2-4.4 4.1 2.4 4.1 4.4-.6 4.4-4.1 4.4zm0-6.8c-.9 0-1.5.4-1.5 2.4s.6 2.4 1.5 2.4 1.5-.5 1.5-2.4-.6-2.4-1.5-2.4zM91 79.7v-.8a4.6 4.6 0 0 1-2.7 1c-1.6 0-2.5-.9-2.5-2.9v-5.6h2.6v4.9c0 1.2.2 1.5.8 1.5a3.1 3.1 0 0 0 1.6-.8v-5.6h2.6v8.3H91zM98.2 79.9a3.9 3.9 0 0 1-3.6-1.7l1.8-1.1a2.1 2.1 0 0 0 1.8.9c.6 0 1.3-.1 1.3-.7a.9.9 0 0 0-.9-.7c-1.7-.4-3.7-.8-3.7-3s1.7-2.6 3.5-2.6a3.9 3.9 0 0 1 3.4 1.6l-1.8 1.2a1.9 1.9 0 0 0-1.6-.8c-.8 0-1.1.2-1.1.6s.5.6 2 .9 2.6.8 2.6 2.6-1.8 2.8-3.7 2.8zM105.6 76.5a1.5 1.5 0 0 0 1.6 1.4 3.5 3.5 0 0 0 1.8-.6l1.2 1.7a5.8 5.8 0 0 1-3.3.9c-2.5 0-4-1.4-4-4.4s1-4.4 4.1-4.4 3.7 1.5 3.7 3.9v1.4h-5.1zm1.5-3.5c-.9 0-1.4.5-1.5 1.7h2.7c0-1.3-.5-1.7-1.2-1.7zM117.5 73.9h-.9a2.9 2.9 0 0 0-2 .8v5.1H112v-8.4h2.3v1.4a3.3 3.3 0 0 1 2.5-1.5l.9.2zM121.6 76.2h-2l-.4-8h2.8zm-1 3.7a1.4 1.4 0 1 1 1.4-1.4 1.2 1.2 0 0 1-1.4 1.4z"/></svg>