<svg width="229" height="219" viewBox="0 0 229 219" xmlns="http://www.w3.org/2000/svg" xmlns:xlink="http://www.w3.org/1999/xlink"><title>1C00BF5A-E1A6-420C-867F-17FF8C3F8037</title><defs><path id="b" d="M0 0h1440v3000H0z"/><filter x="-50%" y="-50%" width="200%" height="200%" filterUnits="objectBoundingBox" id="a"><feOffset in="SourceAlpha" result="shadowOffsetOuter1"/><feGaussianBlur stdDeviation="10" in="shadowOffsetOuter1" result="shadowBlurOuter1"/><feColorMatrix values="0 0 0 0 0 0 0 0 0 0 0 0 0 0 0 0 0 0 0.1 0" in="shadowBlurOuter1"/></filter></defs><g fill="none" fill-rule="evenodd"><g transform="translate(-607 -2014)"><use fill="#000" filter="url(#a)" xlink:href="#b"/><use fill="#FFF" xlink:href="#b"/></g><path d="M201.007 108.052c0 47.096-38.187 85.273-85.295 85.273-47.11 0-85.297-38.177-85.297-85.273 0-47.095 38.187-85.272 85.297-85.272 47.108 0 85.295 38.177 85.295 85.272" fill="#16A386"/><path d="M89.459 149.856L44.53 161.9c-3.886 1.043-7.916-1.284-8.958-5.167L15.199 80.77c-1.042-3.882 1.283-7.912 5.168-8.955l44.928-12.042c3.885-1.042 7.916 1.283 8.956 5.167l20.375 75.96c1.042 3.885-1.283 7.914-5.167 8.956" fill="#FFF"/><path d="M70.89 93.762c0 10.837-8.787 19.621-19.627 19.621-10.839 0-19.627-8.784-19.627-19.62s8.788-19.62 19.627-19.62c10.84 0 19.627 8.784 19.627 19.62" fill="#D7D9DD"/><path d="M52.086 95.395c2.293-.827 3.486-3.39 2.498-6.127-1.009-2.803-3.583-4.08-5.878-3.254-2.297.828-3.462 3.453-2.453 6.253.987 2.74 3.537 3.954 5.833 3.128m-4.752-13.19c4.691-1.687 9.822.624 11.57 5.471 1.747 4.847-.756 9.837-5.447 11.526-4.692 1.69-9.834-.546-11.58-5.394-1.746-4.848.766-9.912 5.457-11.602M61.863 99.344a3.988 3.988 0 0 1 2.06 2.264l-17.026 6.131a4.001 4.001 0 0 1 2.409-5.118l9.497-3.42a3.987 3.987 0 0 1 3.06.143" fill="#C3C4CA"/><path d="M71.696 154.597l3.49-2.912c.06-.353.11-.714.11-1.083l-.484-85.198c0-3.516-5.262-7.058-8.722-6.227l-1.234.42s-.012 86.557.126 96.799l6.714-1.8z" fill-opacity=".2" fill="#1F130F" style="mix-blend-mode:multiply"/><path d="M131.573 148.366l49.91 13.376c4.314 1.158 8.789-1.425 9.949-5.74l22.634-84.38c1.156-4.313-1.43-8.79-5.743-9.946l-49.909-13.38c-4.314-1.156-8.792 1.427-9.947 5.742l-22.634 84.378c-1.16 4.316 1.425 8.793 5.74 9.95" fill="#FFF"/><path d="M195.345 85.671c0 11.152-9.042 20.19-20.196 20.19-11.154 0-20.193-9.038-20.193-20.19 0-11.15 9.04-20.188 20.193-20.188 11.154 0 20.196 9.037 20.196 20.188" fill="#7FC0B7"/><path d="M173.768 88.697c2.55.82 5.302-.611 6.28-3.653 1-3.112-.382-5.947-2.932-6.767-2.55-.818-5.324.683-6.322 3.793-.978 3.044.424 5.807 2.974 6.627m4.706-14.648c5.212 1.673 8.125 7.12 6.395 12.503-1.731 5.385-7.25 8.049-12.459 6.375-5.213-1.673-8.184-7.064-6.453-12.45 1.73-5.38 7.307-8.102 12.517-6.428M179.622 98.68c.513 1 .644 2.194.274 3.35l-18.913-6.075a4.39 4.39 0 0 1 5.523-2.836l10.552 3.387a4.386 4.386 0 0 1 2.564 2.174" fill="#E17558"/><path d="M169.822 80.592a1.04 1.04 0 0 0-1.978-.635 1.038 1.038 0 1 0 1.977.636M183.846 85.097a1.04 1.04 0 0 0-1.978-.638 1.039 1.039 0 1 0 1.978.638M173.834 88.953a1.55 1.55 0 0 0-1.003-1.947 1.535 1.535 0 0 0-.997.02h-.002l-.008.002c-.039.015-.074.03-.11.047l-1.156.481c-2.345.622-3.44-.94-3.565-1.14l-.003-.001-.011-.019h-.003a.185.185 0 0 0-.094-.072.188.188 0 0 0-.235.12c-.005.017-.005.036-.005.054l-.006.002s0 .26.161.733c.056.181.127.355.21.514.007.014.014.029.02.045v-.01c1.266 2.365 5.203 2.24 5.203 2.24a1.55 1.55 0 0 0 1.604-1.069" fill="#000"/><path d="M173.51 88.85a1.546 1.546 0 0 1 2.747-.404l.008.009c.022.033.042.067.061.1l.66 1.065c1.543 1.874 3.343 1.237 3.564 1.15h.003c.01-.006.02-.009.02-.009v.003a.172.172 0 0 1 .12-.005c.096.03.152.136.12.234-.007.018-.018.031-.027.046l.003.006s-.148.21-.558.502c-.152.116-.31.214-.468.296l-.044.024.006-.007c-2.407 1.184-5.534-1.209-5.534-1.209a1.546 1.546 0 0 1-.68-1.801" fill="#000"/><path d="M179.073 72.059c5.543 1.779 8.665 7.592 7.165 13.151.061-.163.12-.327.172-.492 1.834-5.71-1.308-11.823-7.016-13.657-5.712-1.835-11.826 1.307-13.66 7.015a8 8 0 0 0-.148.503c2.02-5.394 7.944-8.301 13.487-6.52M161.131 79.052a3.89 3.89 0 0 0 2.512 4.89l2.38-7.402a3.889 3.889 0 0 0-4.892 2.512" fill="#54A861"/><path d="M164.654 84.533c-.188.583-.3 1.068-.884.882-.582-.189-.39-.648-.202-1.231l2.534-7.886c.187-.583.299-1.07.881-.882.585.186.392.646.204 1.23l-2.533 7.887z" fill="#375499"/><path d="M189.624 88.202a3.888 3.888 0 0 1-4.892 2.512l2.38-7.402a3.888 3.888 0 0 1 2.512 4.89" fill="#54A861"/><path d="M183.567 90.607c-.187.583-.38 1.044.203 1.231.584.188.697-.299.883-.882l2.536-7.886c.186-.583.378-1.044-.204-1.23-.585-.189-.697.298-.882.881l-2.536 7.886z" fill="#375499"/><path d="M186.896 124.145l-70.491-20.578a.996.996 0 0 1-.677-1.232.998.998 0 0 1 1.234-.676l70.492 20.579c.525.151.83.708.676 1.232a.997.997 0 0 1-1.234.675M184.537 132.22l-70.494-20.577a1 1 0 0 1-.674-1.233.999.999 0 0 1 1.235-.676l70.49 20.579c.527.154.831.708.677 1.233a.997.997 0 0 1-1.234.675M182.008 140.884l-70.492-20.58a.994.994 0 1 1 .556-1.907l70.494 20.578a.998.998 0 0 1 .676 1.234 1 1 0 0 1-1.234.675" fill="#D7D9DD"/><path d="M159.027 155.567l-5.568-3.22a7.35 7.35 0 0 1-.122-1.205l-1.023-95.356c0-3.916 3.163-7.115 7.056-7.19l5.564 1.24v105.08c.033.752-.224 1.569-.486 2.173l-5.42-1.522z" fill-opacity=".2" fill="#1F130F" style="mix-blend-mode:multiply"/><path d="M154.033 163.466H76.13c-2.979 0-5.414-2.436-5.414-5.412V33.519c0-2.978 2.436-5.414 5.415-5.414h77.903c2.978 0 5.416 2.436 5.416 5.414v124.533c0 2.977-2.438 5.414-5.416 5.414" fill="#FFF"/><path d="M140.477 66.496c0 14.274-11.577 25.848-25.855 25.848-14.28 0-25.856-11.574-25.856-25.848 0-14.277 11.576-25.85 25.856-25.85 14.278 0 25.855 11.573 25.855 25.85" fill="#16A386"/><path d="M146.1 103.204H77.253a.919.919 0 0 1 0-1.835H146.1a.918.918 0 0 1 0 1.835" fill="#C2C1C1"/><path d="M118.526 102.323a4.244 4.244 0 1 1-8.487 0 4.243 4.243 0 1 1 8.487 0" fill="#ED8B26"/><path d="M114.315 101.369H77.253a.917.917 0 1 0 0 1.835h37.062v-1.835z" fill="#ED8B26"/><path d="M80.465 102.172a2.867 2.867 0 1 1-5.734-.001 2.867 2.867 0 0 1 5.734.001M149.465 102.172a2.87 2.87 0 0 1-5.738 0 2.87 2.87 0 0 1 5.738 0" fill="#ED8B26"/><path fill="#FFF" d="M76.161 102.412h2.717v-.688H76.16zM147.867 101.853h-1.015v-1.014h-.69v1.014h-1.012v.688h1.012v1.015h.69v-1.015h1.015z"/><path fill="#000" d="M98.83 82.86h30.106l.976-2.805.915 2.805h1.11V64.59l-16.555 9.734L98.83 64.59z"/><path d="M121.99 64.407c0-4.46-2.978-7.566-6.636-7.566-3.654 0-6.631 3.106-6.631 7.566 0 4.36 2.977 7.366 6.63 7.366 3.659 0 6.636-3.006 6.636-7.366m6.946-.05c0 7.717-6.111 13.48-13.581 13.48-7.468 0-13.526-5.763-13.526-13.48 0-7.717 6.058-13.579 13.526-13.579 7.47 0 13.581 5.862 13.581 13.58M128.935 86.539a5.991 5.991 0 0 0-5.992-5.99h-15.12a5.992 5.992 0 0 0-5.995 5.99h27.107z" fill="#EEAF23"/><path d="M115.354 77.838c-7.468 0-13.526-5.763-13.526-13.48 0-7.718 6.058-13.58 13.526-13.58 7.47 0 13.581 5.862 13.581 13.58 0 7.717-6.11 13.48-13.581 13.48m-4.364 2.71h8.785c7.01-1.924 12.162-8.339 12.162-15.96 0-9.139-7.412-16.547-16.555-16.547-9.142 0-16.553 7.408-16.553 16.548 0 7.62 5.15 14.035 12.161 15.96" fill="#000"/><path d="M123.622 62.89a1.418 1.418 0 0 1 2.835 0 1.418 1.418 0 0 1-2.835 0" fill="#000"/><path d="M151.418 121.432H77.98c-.549 0-.995-.541-.995-1.202 0-.66.446-1.202.995-1.202h73.437c.546 0 .992.541.992 1.202 0 .66-.446 1.202-.992 1.202M151.418 131.602H77.98c-.549 0-.995-.54-.995-1.202 0-.66.446-1.202.995-1.202h73.437c.546 0 .992.541.992 1.202 0 .661-.446 1.202-.992 1.202M151.418 142.512H77.98c-.549 0-.995-.54-.995-1.202 0-.662.446-1.202.995-1.202h73.437c.546 0 .992.54.992 1.202 0 .661-.446 1.202-.992 1.202" fill="#D7D9DD"/><path d="M105.674 62.314c-.637 0-1.176.418-1.354.997a1.415 1.415 0 0 1 1.354-1.836 1.415 1.415 0 0 1 1.354 1.836 1.42 1.42 0 0 0-1.354-.997M115.354 50.778c6.07 0 11.244 3.87 12.968 9.461H109.09l-.778-4.047-.961 4.047h-4.915c1.715-5.59 6.851-9.46 12.919-9.46" fill="#000"/><path d="M112.81 74.652a1.443 1.443 0 1 1 2.457-1.462h.003c.024.03.065.052.11.052.049 0 .09-.025.116-.061a1.442 1.442 0 0 1 2.772.564c0 .353-.126.678-.336.927l-.004.006-.081.089-2.232 2.435a.332.332 0 0 1-.44.026.31.31 0 0 1-.072-.077l-2.171-2.368a1.284 1.284 0 0 1-.12-.129l-.002-.002z" fill="#D83D57"/><path d="M109.6 183.712c-3.518-2.442-4.395-7.32-1.95-10.836l15.308-22.02c2.443-3.515 7.323-4.395 10.84-1.95 3.519 2.443 4.395 7.32 1.95 10.838l-15.307 22.019c-2.446 3.516-7.323 4.394-10.84 1.949" fill="#F3AC67"/><path fill="#F1BF89" d="M83.077 201.977h34.886v-20.123H83.077z"/><path d="M109.587 187.672H90.406c-6.92 0-12.577-5.657-12.577-12.572v-22.742c0-6.915 5.658-12.574 12.577-12.574h19.18c6.916 0 12.574 5.66 12.574 12.574V175.1c0 6.915-5.658 12.572-12.573 12.572" fill="#F1BF89"/><path d="M114.99 161.225c-4.075 0-7.41-3.334-7.41-7.409v-35.252c0-4.076 3.335-7.409 7.41-7.409 4.076 0 7.41 3.333 7.41 7.409v35.252c0 4.075-3.334 7.41-7.41 7.41" fill="#F1BF89"/><path d="M111.05 118.254c0 .13.008.258.014.386h8.457c.006-.128.014-.257.014-.386 0-2.681-1.898-4.855-4.243-4.855-2.343 0-4.242 2.174-4.242 4.855" fill="#F0E1D8"/></g></svg>