<?xml version="1.0" encoding="UTF-8" standalone="no"?>
<svg width="279px" height="279px" viewBox="0 0 279 279" version="1.1" xmlns="http://www.w3.org/2000/svg" xmlns:xlink="http://www.w3.org/1999/xlink">
    <!-- Generator: sketchtool 40.1 (33804) - http://www.bohemiancoding.com/sketch -->
    <title>C56DF939-D1C4-4E31-8D29-EC5521965102</title>
    <desc>Created with sketchtool.</desc>
    <defs>
        <polygon id="path-1" points="0.988027287 214.373918 214.906002 214.373918 214.906002 0.608989593 0.988027287 0.608989593"></polygon>
        <path d="M49.7049845,34.0482606 C36.8872052,18.7807001 19.8773176,7.14596927 0.445954577,0.913313773 L0.445954577,111.086648 L49.7049845,111.086648 L49.7049845,34.0482606 L49.7049845,34.0482606 Z" id="path-3"></path>
        <path d="M88.8791384,44.7804304 C93.6416418,32.6740461 96.2571562,19.4890314 96.2571562,5.69348383 C96.2571562,4.11810789 96.2230461,2.55069163 96.1555237,0.991932276 L0.947554985,0.991932276 L0.947554985,44.7804292 L88.8791474,44.7804292 L88.8791384,44.7804304 Z" id="path-5"></path>
        <path d="M32.6665801,30.5023686 C32.2940358,20.2139615 30.4661693,10.2963686 27.3825407,0.948993813 L0.72544022,0.948993813 L0.72544022,30.5023686 L32.6665801,30.5023686 L32.6665801,30.5023686 Z" id="path-7"></path>
        <path d="M1.51244458,76.2304234 C1.16527975,72.7254544 0.987547895,69.1707047 0.987547895,65.5744665 C0.987547895,41.0871069 9.22869233,18.5228869 23.0906717,0.50031951 L73.803603,0.50031951 L73.803603,76.2304234 L1.51244458,76.2304234 L1.51244458,76.2304234 Z" id="path-9"></path>
    </defs>
    <g id="Page-1" stroke="none" stroke-width="1" fill="none" fill-rule="evenodd">
        <g id="Home--cancer-opt2" transform="translate(-859.000000, -69.000000)">
            <g id="Ilustras" transform="translate(67.000000, 69.000000)">
                <g id="ilustra-3" transform="translate(808.000000, 31.000000)">
                    <g id="Group-24" transform="translate(25.168090, 8.406849)">
                        <g id="Group-3">
                            <mask id="mask-2" fill="white">
                                <use xlink:href="#path-1"></use>
                            </mask>
                            <g id="Clip-2"></g>
                            <path d="M214.906002,107.491753 C214.906002,166.521228 167.018319,214.374517 107.946416,214.374517 C48.8757108,214.374517 0.988027287,166.521228 0.988027287,107.491753 C0.988027287,48.4622781 48.8757108,0.608989593 107.946416,0.608989593 C167.018319,0.608989593 214.906002,48.4622781 214.906002,107.491753" id="Fill-1" fill="#F0B4D2" mask="url(#mask-2)"></path>
                        </g>
                        <path d="M93.8241211,175.349841 C95.7680564,177.29238 96.9701323,179.976245 96.9701323,182.941552 L48.3909255,182.941552 C48.3909255,177.012137 53.201626,172.204892 59.1305088,172.204892 L86.2281519,172.204892 C89.1955895,172.204892 91.8801858,173.407302 93.8241211,175.349841" id="Fill-4" fill="#FEFEFE"></path>
                        <path d="M111.061027,164.614019 C113.004962,166.556558 114.207038,169.240424 114.207038,172.20573 L65.6278309,172.20573 C65.6278309,166.276315 70.4385315,161.46907 76.3674143,161.46907 L103.465057,161.46907 C106.432495,161.46907 109.117091,162.67148 111.061027,164.614019" id="Fill-6" fill="#FEFEFE"></path>
                        <path d="M46.8185191,179.145576 C47.7904868,180.116846 48.3909255,181.459378 48.3909255,182.940833 L37.6501437,182.940833 C37.6501437,179.976724 40.0554939,177.573102 43.0205346,177.573102 C44.5042534,177.573102 45.8465515,178.174307 46.8185191,179.145576" id="Fill-8" fill="#FEFEFE"></path>
                        <path d="M122.474036,168.635865 C123.446004,169.607135 124.046442,170.949666 124.046442,172.431122 L113.305661,172.431122 C113.305661,169.467013 115.711011,167.063391 118.676051,167.063391 C120.15977,167.063391 121.502068,167.664596 122.474036,168.635865" id="Fill-10" fill="#FEFEFE"></path>
                        <path d="M84.6550265,168.409635 C85.6269941,169.380904 86.2274329,170.723436 86.2274329,172.204892 L75.486651,172.204892 C75.486651,169.240783 77.8920013,166.83716 80.8570419,166.83716 C82.3407607,166.83716 83.6830588,167.438365 84.6550265,168.409635" id="Fill-12" fill="#F0B4D2"></path>
                        <path d="M53.0416289,38.9729387 C54.4869963,40.417268 55.3798643,42.4125024 55.3798643,44.6161225 L19.2684497,44.6161225 C19.2684497,40.2088822 22.8435169,36.6351852 27.251528,36.6351852 L47.394389,36.6351852 C49.6007915,36.6351852 51.5962615,37.5286094 53.0416289,38.9729387" id="Fill-14" fill="#FEFEFE"></path>
                        <path d="M65.8551827,30.9922409 C67.3005501,32.4365702 68.1934181,34.4318045 68.1934181,36.6354247 L32.0820035,36.6354247 C32.0820035,32.2281844 35.6570707,28.6544873 40.0650818,28.6544873 L60.2079428,28.6544873 C62.4143453,28.6544873 64.4098153,29.5479116 65.8551827,30.9922409" id="Fill-16" fill="#FEFEFE"></path>
                        <path d="M18.0992121,41.7945306 C18.8218959,42.5166953 19.2689291,43.5143125 19.2689291,44.6161225 L11.2834538,44.6161225 C11.2834538,42.4125024 13.0715866,40.6256539 15.2755922,40.6256539 C16.3781942,40.6256539 17.3765284,41.072366 18.0992121,41.7945306" id="Fill-18" fill="#FEFEFE"></path>
                        <path d="M74.3392258,33.9819786 C75.0619095,34.7041432 75.5089427,35.7017604 75.5089427,36.8035705 L67.5234675,36.8035705 C67.5234675,34.5999503 69.3116003,32.8131018 71.5156059,32.8131018 C72.6182079,32.8131018 73.6165421,33.2598139 74.3392258,33.9819786" id="Fill-20" fill="#FEFEFE"></path>
                        <path d="M46.2256309,33.8138328 C46.9483146,34.5359974 47.3953478,35.5336146 47.3953478,36.6354247 L39.4098725,36.6354247 C39.4098725,34.4318045 41.1980053,32.644956 43.4020109,32.644956 C44.5046129,32.644956 45.5029471,33.0916681 46.2256309,33.8138328" id="Fill-22" fill="#F0B4D2"></path>
                    </g>
                    <g id="Group-104" transform="translate(0.000000, 13.197328)">
                        <path d="M199.044832,163.002143 C197.8871,162.887171 196.738956,162.629683 195.626766,162.226085 L160.929559,149.66545 C153.590064,147.00913 149.796874,138.909628 152.455103,131.575405 C155.114531,124.241183 163.218656,120.450716 170.559349,123.107037 L191.736499,130.774198 L207.135774,85.9197489 C209.668163,78.5412142 217.708769,74.6142194 225.091408,77.1435921 C232.475246,79.67536 236.407461,87.7089926 233.875071,95.0875273 L213.810112,153.530169 C212.579272,157.113447 209.961791,160.052405 206.542526,161.687156 C204.189909,162.811721 201.595199,163.25484 199.044832,163.002143" id="Fill-25" fill="#582A41"></path>
                        <path d="M160.174156,147.798002 C159.02002,147.938123 157.841913,147.936926 156.668601,147.787223 L120.064611,143.09974 C112.322427,142.109308 106.850165,135.032574 107.841309,127.295951 C108.833651,119.55813 115.914273,114.090997 123.657655,115.081428 L145.999728,117.942541 L151.226301,70.8102201 C152.085612,63.0568304 159.073951,57.4699347 166.831715,58.3274304 C174.590678,59.1873213 180.182788,66.1682463 179.323477,73.9216359 L172.513711,135.333176 C172.095441,139.098493 170.182667,142.536859 167.203244,144.878205 C165.153843,146.489004 162.71853,147.487818 160.174156,147.798002" id="Fill-27" fill="#582A41"></path>
                        <path d="M151.590519,68.194978 L185.343325,75.2285982 C192.765514,76.7759228 200.21407,71.1818414 201.978233,62.7302395 L154.783271,52.895387 L151.590519,68.194978 Z" id="Fill-29" fill="#D6B96F"></path>
                        <path d="M122.245126,161.093736 L102.780605,154.125985 C81.1324527,146.37499 69.7660641,122.335171 77.5226296,100.702567 L77.5226296,100.702567 C85.2779966,79.0699633 109.335095,67.7105409 130.983247,75.4615353 L150.447768,82.4292864 C172.095921,90.1790832 183.462309,114.2201 175.706942,135.852704 L175.706942,135.852704 C167.951575,157.485308 143.893279,168.843532 122.245126,161.093736" id="Fill-31" fill="#E56EA0"></path>
                        <g id="Group-35" transform="translate(165.390303, 0.000000)">
                            <mask id="mask-4" fill="white">
                                <use xlink:href="#path-3"></use>
                            </mask>
                            <g id="Clip-34"></g>
                            <path d="M3.80889073,96.2804763 C3.80889073,96.2804763 22.0821222,83.8982867 24.0668059,63.908817 C26.050291,43.9193474 17.8826467,30.8090051 13.6568046,22.5047104 C9.43096255,14.2004157 4.85875961,3.02303153 13.9156764,-5.54114661 C16.0753382,-7.58308812 18.0983732,-9.33520567 19.9284529,-10.8178588 C25.7674496,-15.5508517 27.9474856,-12.3065 26.8772425,-5.49922992 C26.0131381,-0.00215571537 25.5457307,6.51768567 26.6818902,12.1249409 C29.2226688,24.6783901 50.8144927,46.3445272 49.660356,60.4524867 C47.1950817,90.5929805 0.445954577,111.086648 0.445954577,111.086648 L3.80889073,96.2804763 Z" id="Fill-33" fill="#DD2C89" mask="url(#mask-4)"></path>
                        </g>
                        <path d="M145.064314,74.4380495 L124.633818,86.2908912" id="Stroke-36" stroke="#FEFEFE" stroke-width="3" stroke-linecap="round" stroke-linejoin="round"></path>
                        <g id="Group-40" transform="translate(143.817655, 97.007192)">
                            <mask id="mask-6" fill="white">
                                <use xlink:href="#path-5"></use>
                            </mask>
                            <g id="Clip-39"></g>
                            <path d="M55.6732523,44.6449852 C52.105376,44.2916874 48.5926298,43.247363 45.3171827,41.5180003 C45.1493954,41.430574 44.9852036,41.3359621 44.8246072,41.2377573 L4.97752903,16.6805663 C0.991383033,14.2230508 -0.247845758,9.00262669 2.21143614,5.01934373 C4.66951955,1.03606076 9.89609281,-0.202277959 13.8810403,2.25403995 L53.452468,26.6423666 C56.4127147,28.1238221 59.8343764,28.2160388 62.8785168,26.8890762 C63.0067542,26.8327881 63.1361901,26.7800928 63.2668244,26.7309904 L108.19546,9.73556992 C112.575906,8.07806432 117.4705,10.2840797 119.129197,14.6613795 C120.786695,19.039877 118.580293,23.9309557 114.199847,25.5872636 L69.4497851,42.5144198 C65.0321862,44.3982755 60.3065777,45.1036735 55.6732523,44.6449852" id="Fill-38" fill="#E56EA0" mask="url(#mask-6)"></path>
                        </g>
                        <path d="M154.970714,73.2120463 L134.540217,85.064888" id="Stroke-41" stroke="#FEFEFE" stroke-width="3" stroke-linecap="round" stroke-linejoin="round"></path>
                        <g id="Group-45" transform="translate(207.337119, 68.264320)">
                            <mask id="mask-8" fill="white">
                                <use xlink:href="#path-7"></use>
                            </mask>
                            <g id="Clip-44"></g>
                            <path d="M0.72544022,15.1827034 L32.1268266,29.4116225 C39.0312725,32.5410026 47.5225066,28.7074221 51.0903829,20.8450491 L7.18405139,0.948993813 L0.72544022,15.1827034 Z" id="Fill-43" fill="#D6B96F" mask="url(#mask-8)"></path>
                        </g>
                        <path d="M150.50961,161.084394 L141.776283,163.21496 C140.19309,162.899986 140.341702,158.090345 140.656902,156.50829 L150.226769,108.468172 C150.54077,106.886117 152.079619,105.859757 153.662812,106.174731 L163.128411,108.057389 C164.710405,108.372363 165.738701,109.908909 165.423501,111.490964 L155.351471,158.41011 C155.036271,159.992165 152.555416,159.552639 150.50961,161.084394" id="Fill-46" fill="#5F223E"></path>
                        <g id="Group-50" transform="translate(25.168090, 37.126209)">
                            <mask id="mask-10" fill="white">
                                <use xlink:href="#path-9"></use>
                            </mask>
                            <g id="Clip-49"></g>
                            <path d="M64.4943081,76.1890892 C64.132367,76.1531606 63.768029,76.0932796 63.4036909,76.0094463 L20.5328465,66.0704008 C20.1289586,65.9757888 19.7322616,65.8536316 19.3463509,65.7015339 C15.412938,64.1566046 12.1219107,61.4619603 9.83161457,57.9110181 C9.79206471,57.8511371 9.75371334,57.7888609 9.71656044,57.7277823 L-17.3115708,13.3835194 C-19.7480815,9.38586498 -18.4800892,4.17142901 -14.4795615,1.73786588 C-10.4802322,-0.695697256 -5.26204829,0.570186717 -2.82553752,4.5666435 L24.1270894,48.7887492 C24.397946,49.1875565 24.7526962,49.5121114 25.1673705,49.7456473 L67.2376299,59.4990617 C71.800245,60.5565599 74.6406437,65.1099098 73.5823854,69.6692478 C72.6080208,73.8645095 68.6710125,76.6034656 64.4943081,76.1890892" id="Fill-48" fill="#E56EA0" mask="url(#mask-10)"></path>
                        </g>
                        <path d="M96.245531,151.290141 C97.8443039,151.510503 99.9200721,146.563136 100.140592,144.965512 L106.834106,96.4415561 C107.053428,94.8439315 105.936444,93.3708593 104.337671,93.1504973 L94.7773924,91.8343133 C93.1786195,91.6139513 91.7032901,92.7301328 91.4839681,94.3277574 L85.6317881,141.957091 C85.4112677,143.553518 96.245531,151.290141 96.245531,151.290141" id="Fill-51" fill="#5F223E"></path>
                        <path d="M88.0625461,142.469433 L97.0930964,143.713759 C98.0171248,143.840707 98.8692444,143.19519 98.9962833,142.271825 L99.903533,135.694498 C100.030572,134.772331 99.384591,133.920824 98.461761,133.793876 L89.4312108,132.549549 C88.5071824,132.422601 87.6550628,133.066921 87.5280238,133.990286 L86.6207741,140.567613 C86.4937352,141.490977 87.1385177,142.342485 88.0625461,142.469433 L88.0625461,142.469433 Z" id="Stroke-53" stroke="#F9C100" stroke-width="1.2"></path>
                        <path d="M193.346897,69.2357095 C195.822957,97.2899499 154.417855,120.468681 134.171924,118.46147 L123.619304,117.415948 C103.373374,115.408738 57.2858077,90.655137 62.6226412,67.6332944 C68.6797614,78.8490024 79.4085585,75.9854939 89.6100241,68.1806066 C91.6174788,47.9480202 109.827191,33.0364579 130.073121,35.0436684 L140.625742,36.0891904 C160.871672,38.0964009 175.795151,56.2906387 173.786497,76.5244227 C175.200704,84.049067 186.784018,78.0418068 193.346897,69.2357095" id="Fill-55" fill="#C24740"></path>
                        <path d="M140.625262,36.0891904 L139.176299,35.945476 L138.454814,43.2210154 C136.701437,60.8871029 149.730118,76.7735276 167.408903,78.5268428 L173.527146,79.1328383 L173.786018,76.5244227 C175.794671,56.2906387 160.871193,38.0964009 140.625262,36.0891904" id="Fill-57" fill="#C24740"></path>
                        <path d="M167.583882,93.9721841 C165.546465,114.492199 147.215706,129.473223 126.642591,127.434875 C106.067078,125.395329 91.0405304,107.107676 93.0767487,86.5876614 C95.1141654,66.0676462 113.443726,51.0854244 134.019238,53.1249706 C154.592353,55.1645169 169.6201,73.4533666 167.583882,93.9721841" id="Fill-59" fill="#F2C089"></path>
                        <path d="M124.715914,97.4361792 C124.910067,95.4744782 126.659849,94.0433227 128.62296,94.2373371 L131.246434,94.4972206 C133.209545,94.6924326 134.644126,96.4397597 134.449972,98.4014607 L124.715914,97.4361792 Z" id="Fill-61" fill="#F09958"></path>
                        <path d="M159.206503,89.7239877 C160.457717,77.1190409 155.74649,65.2997325 147.366715,57.0361569 C160.679436,63.8266603 169.157486,78.2376176 167.595866,93.9731422 C165.55845,114.493157 147.227691,129.474182 126.653377,127.435833 C124.248027,127.197507 121.920578,126.729237 119.684213,126.068151 C139.937334,125.732818 157.163094,110.313465 159.206503,89.7239877" id="Fill-63" fill="#EAB17A"></path>
                        <path d="M113.042354,84.3985324 C113.248493,82.3254528 111.732415,80.4799209 109.657846,80.2751279 C107.583276,80.0691374 105.736418,81.581731 105.530279,83.653613 C105.325339,85.7266926 106.83902,87.5746197 108.913589,87.7806103 C110.988159,87.9854033 112.836216,86.4704144 113.042354,84.3985324" id="Fill-65" fill="#040502"></path>
                        <path d="M104.680916,73.7901373 L111.759141,70.0032639" id="Fill-67" fill="#6C3B11"></path>
                        <path d="M104.792255,75.3562645 C104.194213,75.3993788 103.596171,75.0939858 103.295353,74.5311046 C102.884274,73.7670232 103.171909,72.8149156 103.937738,72.4053297 L111.018361,68.6184563 C111.782991,68.2088704 112.734585,68.4974967 113.144465,69.2627757 C113.554345,70.0256594 113.265511,70.977767 112.499682,71.387353 L105.421457,75.1742263 C105.220112,75.2808145 105.006783,75.3406954 104.792255,75.3562645" id="Fill-69" fill="#6C3B11"></path>
                        <path d="M156.415122,88.6975079 C156.621261,86.6244283 155.105183,84.7788964 153.029415,84.5741034 C150.956044,84.3681129 149.107987,85.8795089 148.901848,87.9525885 C148.69571,90.0256681 150.211788,91.8735952 152.28396,92.0783882 C154.359728,92.2843788 156.208984,90.7693899 156.415122,88.6975079" id="Fill-71" fill="#040502"></path>
                        <path d="M150.900794,73.021505 L157.189221,78.0119861" id="Fill-73" fill="#6C3B11"></path>
                        <path d="M149.767271,74.1110993 C149.230352,73.5530086 149.175222,72.6703629 149.670194,72.0464031 C150.210709,71.3661551 151.199455,71.2547765 151.877795,71.7937053 L158.166222,76.7829888 C158.849356,77.3267081 158.960815,78.3087562 158.4203,78.9890042 C157.879785,79.6680545 156.891039,79.7818284 156.212699,79.2428996 L149.924272,74.2536161 C149.869142,74.2093042 149.816409,74.1613994 149.767271,74.1110993" id="Fill-75" fill="#6C3B11"></path>
                        <path d="M128.683603,111.798513 C133.473929,112.364987 137.816024,108.940993 138.380508,104.155305 L121.033702,102.108573 C120.469218,106.894261 123.893277,111.233237 128.683603,111.798513" id="Fill-77" fill="#FEFEFE"></path>
                        <path d="M168.76834,108.860992 C165.864422,108.573563 163.719142,106.247786 163.975616,103.66452 C164.232091,101.080057 166.793244,99.2213511 169.697162,99.5099774 C172.599882,99.7974061 174.745162,102.121986 174.488687,104.706449 C174.232212,107.289715 171.671059,109.14842 168.76834,108.860992 M169.814613,98.314753 C165.854834,97.9219337 162.327706,100.810592 161.934604,104.768725 C161.541503,108.726858 164.433436,112.250255 168.393215,112.643075 C172.352995,113.035894 175.880123,110.147235 176.273224,106.189102 C176.666326,102.232167 173.774393,98.7075722 169.814613,98.314753" id="Fill-79" fill="#F09700"></path>
                        <path d="M92.7219984,101.323533 C89.8180803,101.036104 87.6728003,98.7103268 87.9292751,96.1270612 C88.1857499,93.542598 90.7469026,91.6838923 93.6496223,91.9725186 C96.5535405,92.2599473 98.6988205,94.5845271 98.4423456,97.1689903 C98.1858708,99.7522559 95.6259166,101.610962 92.7219984,101.323533 M93.7682719,90.7772942 C89.8096909,90.3844749 86.2813645,93.2731335 85.8882629,97.2312665 C85.4951613,101.189399 88.3870946,104.712796 92.3468741,105.105616 C96.3066535,105.498435 99.8337815,102.609776 100.226883,98.6516434 C100.619985,94.6947081 97.7292498,91.1701134 93.7682719,90.7772942" id="Fill-81" fill="#F09700"></path>
                        <path d="M130.073241,35.0433091 C109.827311,33.0360986 90.8997089,41.38231 88.8910557,61.616094 C88.1216312,67.976652 82.7919886,67.9503043 75.7892673,66.4149559 C78.811835,67.5814375 94.5347001,78.5767835 97.9060256,78.9109194 L107.720382,79.6738031 C126.793,81.5636469 150.25685,65.5179388 155.45466,40.8852978 C151.034664,38.3176013 146.02142,36.6241671 140.625861,36.0888311 L130.073241,35.0433091 Z" id="Fill-83" fill="#E66258"></path>
                        <path d="M143.008201,96.1027495 L156.458747,97.4357002 C160.078158,97.7949861 163.315254,95.1446538 163.673599,91.5278424 L164.87208,79.4498482 C165.231624,75.8330369 162.579387,72.5994638 158.959976,72.2401779 L105.616809,66.9526872 C101.997398,66.5945989 98.7603025,69.2449312 98.4019569,72.8617425 L97.2022779,84.9385391 C96.8439323,88.5553504 99.4961695,91.7901211 103.11558,92.1482094 L116.876533,93.5122982 C119.696558,92.5733644 122.954027,91.343409 123.435817,90.9386136 C124.630702,89.8990797 126.216291,89.391289 127.782705,89.5469795 L134.45105,90.2080656 C135.744211,90.3362109 136.685018,91.0392136 137.514367,91.6595806 C137.719307,91.8128759 137.924247,91.9661712 138.133981,92.1098856 C139.479874,93.0284598 142.19683,95.3913634 143.008201,96.1027495 M156.272983,99.3099749 L142.217204,97.9171433 L141.988294,97.7147455 C141.954737,97.6848051 138.533075,94.6632107 137.070929,93.6643959 C136.838424,93.5063101 136.611911,93.3362481 136.385398,93.1673837 C135.661516,92.6260596 135.035909,92.158988 134.264088,92.0823403 L127.596941,91.4212543 C126.529095,91.3158637 125.490012,91.648802 124.672648,92.3601881 C123.710269,93.1961266 118.770132,94.8703989 117.279223,95.3626206 L117.089863,95.4260944 L102.929816,94.0224842 C98.2761164,93.5614006 94.8664395,89.4032652 95.3278545,84.752908 L96.5263349,72.6761115 C96.9877499,68.0257544 101.148874,64.6185265 105.802574,65.07961 L159.14574,70.3659032 C163.79944,70.8281843 167.209117,74.9851222 166.747702,79.6354793 L165.549221,91.7134735 C165.087806,96.3638306 160.926682,99.7710585 156.272983,99.3099749" id="Fill-85" fill="#FEFEFE"></path>
                        <g id="Group-89" transform="translate(0.000000, 28.742872)" fill="#F2C089">
                            <path d="M9.20349096,18.9817924 L8.16320992,18.8787972 C3.20629476,18.3877731 -0.447872146,13.932628 0.044703321,8.97927311 L0.044703321,8.97927311 C0.536080308,4.0247206 4.9944276,0.374375903 9.95134276,0.865399961 L10.9916238,0.968395251 C15.948539,1.45941931 19.6027059,5.91456442 19.1101304,10.8679193 L19.1101304,10.8679193 C18.6187534,15.8224718 14.1604061,19.4728165 9.20349096,18.9817924" id="Fill-87"></path>
                        </g>
                        <path d="M127.586514,85.1642904 C127.427116,85.1487213 127.272512,85.0720737 127.162252,84.9379403 L115.759909,71.0335761 C115.539388,70.7653093 115.578938,70.3700948 115.847398,70.1497328 C116.115858,69.9305684 116.511356,69.9688922 116.730678,70.2371591 L128.13422,84.1415232 C128.35474,84.40979 128.31519,84.8050045 128.04673,85.0253665 C127.912501,85.1355475 127.745912,85.1798595 127.586514,85.1642904" id="Fill-90" fill="#FEFEFE"></path>
                        <path d="M134.496473,88.6879269 C134.337075,88.6723579 134.182471,88.5957102 134.072211,88.4615768 L122.669868,74.5572127 C122.449347,74.2889459 122.488897,73.8937314 122.757357,73.6733694 C123.025816,73.454205 123.421315,73.4925288 123.640637,73.7607956 L135.044178,87.6651598 C135.264699,87.9334266 135.225149,88.328641 134.956689,88.5490031 C134.82246,88.6591841 134.655871,88.703496 134.496473,88.6879269" id="Fill-92" fill="#FEFEFE"></path>
                        <path d="M143.375535,155.553787 L152.217924,157.771778 C152.738064,157.893935 153.2618,157.583752 153.392435,157.067578 L155.010383,150.626779 C155.073903,150.376477 155.035552,150.115396 154.90252,149.893836 C154.769489,149.672277 154.558556,149.515388 154.306875,149.451915 L145.465685,147.235121 C145.212806,147.172844 144.951537,147.211168 144.731017,147.342906 C144.509298,147.475842 144.353495,147.687821 144.289976,147.938123 L142.672027,154.378922 C142.542591,154.896293 142.857792,155.423246 143.375535,155.553787 M152.192756,159.223293 C152.084893,159.211317 151.975831,159.192155 151.866769,159.16461 L143.025579,156.947816 C141.739609,156.624459 140.954605,155.31546 141.275797,154.029217 L142.894945,147.588418 C143.050747,146.965656 143.440253,146.441099 143.991554,146.110556 C144.544054,145.778815 145.184042,145.679413 145.815641,145.841091 L154.656832,148.059083 C155.280042,148.214773 155.806174,148.604 156.136955,149.156102 C156.467736,149.707008 156.562416,150.353722 156.405415,150.977682 L154.788665,157.417283 C154.49264,158.595741 153.367267,159.351439 152.192756,159.223293" id="Fill-94" fill="#F9C100"></path>
                        <path d="M147.602815,132.782366 C147.33915,132.199126 147.074286,131.147616 147.08627,130.426649 C147.381097,129.904486 147.886855,129.366755 148.550813,128.869743 C152.025208,135.395572 164.016005,142.427995 164.016005,142.427995 L161.439272,144.286701 L162.894228,148.213696 C162.894228,148.213696 149.242337,136.408759 147.602815,132.782366" id="Fill-96" fill="#E14C91"></path>
                        <path d="M152.987468,140.579709 C152.257594,144.451613 151.379108,147.407338 151.379108,147.407338 L154.060108,147.153443 L156.150258,150.870854 C156.150258,150.870854 156.465459,147.912734 156.755491,144.147418 C156.248534,143.679148 155.727195,143.19531 155.203459,142.701891 C154.388492,141.934216 153.652625,141.228818 152.987468,140.579709" id="Fill-98" fill="#E04589"></path>
                        <path d="M156.789048,129.16316 C156.584108,128.557164 156.059174,127.607452 155.558209,127.09008 C154.985335,126.908042 154.24827,126.860137 153.423715,126.949959 C153.937863,128.86615 154.028948,131.226658 153.886329,133.655431 C154.946984,134.633886 156.077151,135.57282 157.191738,136.438699 C157.285219,133.233869 157.21331,130.41587 156.789048,129.16316" id="Fill-100" fill="#E04589"></path>
                        <path d="M154.467352,126.090786 C153.156214,125.026102 151.486731,124.691967 150.02818,125.233291 C149.999417,125.244069 149.970653,125.254848 149.944287,125.265626 C149.916722,125.276405 149.889157,125.287184 149.861592,125.29916 C148.425812,125.89797 147.43347,127.280023 147.202163,128.953097 C147.131453,129.45969 147.095499,129.956703 147.087109,130.427367 C147.380737,129.904007 147.887694,129.366276 148.551652,128.869264 C149.191641,128.390216 149.977844,127.95069 150.865918,127.600985 C151.752794,127.25128 152.628883,127.036906 153.423475,126.94948 C154.24803,126.859658 154.985095,126.908761 155.557969,127.089601 C155.230784,126.751872 154.864049,126.412946 154.467352,126.090786" id="Fill-102" fill="#E25599"></path>
                    </g>
                    <g id="Group-113" transform="translate(0.000000, 0.023511)">
                        <path d="M79.1460912,123.837585 L45.7012957,116.370426 C45.2974077,116.275814 44.9007107,116.153657 44.5148,116.001559 C40.5801887,114.45663 37.2903598,111.761986 34.9988652,108.211043 C34.9605138,108.151162 34.9221624,108.088886 34.8838111,108.027808 L7.85687832,63.6835448 C5.42036755,59.6858904 6.68835988,54.4714544 10.6876892,52.0378913 C14.6882169,49.6043282 19.9064008,50.8702121 22.3417131,54.8666689 L49.2955385,99.0887746 C49.5663951,99.4875819 49.9199469,99.8121368 50.3346211,100.045673 L71.3559683,105.573885 C75.9185834,106.631383 79.5104293,123.921418 79.1460912,123.837585" id="Fill-105" fill="#E56EA0"></path>
                        <path d="M9.20349096,60.8984803 L8.16320992,60.795485 C3.20629476,60.3044609 -0.447872146,55.8493158 0.044703321,50.8959609 L0.044703321,50.8959609 C0.536080308,45.9414084 4.9944276,42.2910637 9.95134276,42.7820878 L10.9916238,42.8850831 C15.948539,43.3761071 19.6027059,47.8312523 19.1101304,52.7846071 L19.1101304,52.7846071 C18.6187534,57.7391596 14.1604061,61.3895043 9.20349096,60.8984803" id="Fill-107" fill="#F2C089"></path>
                        <path d="M169.199194,109.454292 C169.199194,109.454292 187.472425,97.0721028 189.457109,77.0826332 C191.440594,57.0931636 183.27295,43.9828213 179.047107,35.6785266 C174.821265,27.3742319 170.249062,16.1968477 179.305979,7.63266957 C181.465641,5.59072806 183.488676,3.83861051 185.318756,2.35595738 C191.157752,-2.37703549 193.337788,0.867316152 192.267545,7.67458626 C191.403441,13.1716605 190.936034,19.6915019 192.072193,25.2987571 C194.612972,37.8522063 216.204795,59.5183434 215.050659,73.6263029 C212.585385,103.766797 165.836257,124.260464 165.836257,124.260464 L169.199194,109.454292 Z" id="Fill-109" fill="#DD2C89"></path>
                        <path d="M168.76834,122.034808 C165.864422,121.747379 163.719142,119.421602 163.975616,116.838336 C164.232091,114.253873 166.793244,112.395167 169.697162,112.683794 C172.599882,112.971222 174.745162,115.295802 174.488687,117.880265 C174.232212,120.463531 171.671059,122.322237 168.76834,122.034808 M169.814613,111.488569 C165.854834,111.09575 162.327706,113.984409 161.934604,117.942541 C161.541503,121.900674 164.433436,125.424071 168.393215,125.816891 C172.352995,126.20971 175.880123,123.321051 176.273224,119.362918 C176.666326,115.405983 173.774393,111.881388 169.814613,111.488569" id="Fill-111" fill="#F09700"></path>
                    </g>
                </g>
            </g>
        </g>
    </g>
</svg>