<?xml version="1.0" encoding="UTF-8" standalone="no"?>
<svg width="279px" height="279px" viewBox="0 0 279 279" version="1.1" xmlns="http://www.w3.org/2000/svg" xmlns:xlink="http://www.w3.org/1999/xlink">
    <!-- Generator: sketchtool 40.1 (33804) - http://www.bohemiancoding.com/sketch -->
    <title>5D0D13F9-2820-4785-AAEA-7A340AC15C92</title>
    <desc>Created with sketchtool.</desc>
    <defs>
        <path d="M0.56721341,90.9418622 C31.3861037,85.9971177 57.7627884,67.7378733 73.6251408,42.2423901 L73.6251408,0.761646409 L0.56721341,0.761646409 L0.56721341,90.9418622 L0.56721341,90.9418622 Z" id="path-1"></path>
        <path d="M0,106.244448 C0,164.793343 47.4074567,212.25489 105.889626,212.25489 L105.889626,212.25489 C164.369421,212.25489 211.778065,164.793343 211.778065,106.244448 L211.778065,106.244448 C211.778065,47.6979282 164.369421,0.23519337 105.889626,0.23519337 L105.889626,0.23519337 C47.4074567,0.23519337 0,47.6979282 0,106.244448 L0,106.244448 Z" id="path-3"></path>
    </defs>
    <g id="Page-1" stroke="none" stroke-width="1" fill="none" fill-rule="evenodd">
        <g id="Home--cancer-opt2" transform="translate(-67.000000, -69.000000)">
            <g id="Ilustras" transform="translate(67.000000, 69.000000)">
                <g id="ilustra-1" transform="translate(35.000000, 39.000000)">
                    <path d="M211.778183,107.49997 C211.778183,166.047677 164.36954,213.510412 105.888558,213.510412 C47.4087618,213.510412 0.000118649156,166.047677 0.000118649156,107.49997 C0.000118649156,48.9522624 47.4087618,1.48952758 105.888558,1.48952758 C164.36954,1.48952758 211.778183,48.9522624 211.778183,107.49997" id="Fill-1" fill="#E56EA0"></path>
                    <g id="Group-71" transform="translate(0.000000, 1.254809)">
                        <g id="Group-5" transform="translate(122.208630, 119.972376)">
                            <mask id="mask-2" fill="white">
                                <use xlink:href="#path-1"></use>
                            </mask>
                            <g id="Clip-4"></g>
                            <path d="M70.5773824,69.2171713 L70.5773824,27.1900166 C70.5773824,12.8479724 55.7509839,1.32943646 44.4413464,0.769961326 L44.4413464,0.761646409 L28.8793232,0.761646409 L28.8793232,0.774712707 C17.5957884,1.36744751 8.58913103,13.0344641 8.58913103,27.3551271 L2.76583047,71.9112044 C-1.51740405,84.2291602 1.777483,102.811812 1.777483,119.225459 C1.777483,131.002945 3.08025073,142.140182 5.39746874,152.044436 L69.2544444,152.044436 C71.5704759,142.140182 72.8744301,131.002945 72.8744301,119.225459 C72.8744301,101.239105 75.6318365,82.0993536 70.5773824,69.2171713" id="Fill-3" fill="#4B318B" mask="url(#mask-2)"></path>
                        </g>
                        <mask id="mask-4" fill="white">
                            <use xlink:href="#path-3"></use>
                        </mask>
                        <g id="Clip-7"></g>
                        <polygon id="Fill-6" fill="#FAD083" mask="url(#mask-4)" points="129.586235 190.06 192.644702 190.06 192.644702 181.576409 129.586235 181.576409"></polygon>
                        <path d="M123.739798,238.138633 C124.161002,238.188522 124.591699,238.201588 125.030701,238.175456 C129.058839,237.936699 132.130666,234.475318 131.893368,230.442583 L129.202405,184.848329 L133.095284,151.62192 C133.565134,147.610566 130.697384,143.97576 126.689416,143.505373 C122.681447,143.034986 119.05197,145.906008 118.582119,149.91855 L114.539742,184.424268 L117.305454,231.304959 C117.517836,234.898191 120.288294,237.733577 123.739798,238.138633" id="Fill-8" fill="#9D3C34" mask="url(#mask-4)"></path>
                        <path d="M139.772977,151.519052 L142.533943,137.076041 C143.66111,131.180765 139.801453,125.487423 133.912895,124.35897 C128.023151,123.230517 122.336297,127.094577 121.20913,132.989854 L118.448164,147.432865 L139.772977,151.519052 Z" id="Fill-9" fill="#4B318B" mask="url(#mask-4)"></path>
                        <path d="M198.105529,217.925544 C197.639238,217.925544 197.167014,217.870903 196.693604,217.75687 C193.458042,216.978831 191.465922,213.722948 192.243074,210.484881 L200.344439,176.721566 L184.988865,147.771401 C183.428629,144.830296 184.546304,141.178859 187.484057,139.616843 C190.422996,138.054826 194.069085,139.172588 195.629321,142.114881 L213.125326,175.097782 L203.957305,213.30245 C203.294057,216.066566 200.826154,217.925544 198.105529,217.925544" id="Fill-10" fill="#9D3C34" mask="url(#mask-4)"></path>
                        <path d="M198.729624,144.964522 L193.089043,131.38745 C190.786063,125.846152 184.4324,123.221014 178.896231,125.526622 C173.360061,127.832229 170.739101,134.194329 173.042081,139.735627 L178.682662,153.312699 L198.729624,144.964522 Z" id="Fill-11" fill="#4B318B" mask="url(#mask-4)"></path>
                        <path d="M161.200896,191.082497 C158.079236,191.082497 155.54845,188.727 155.54845,185.82153 C155.54845,182.917249 158.079236,180.561751 161.200896,180.561751 C164.322555,180.561751 166.853341,182.917249 166.853341,185.82153 C166.853341,188.727 164.322555,191.082497 161.200896,191.082497 M161.200896,179.154155 C157.243946,179.154155 154.035673,182.13921 154.035673,185.82153 C154.035673,189.505039 157.243946,192.490094 161.200896,192.490094 C165.157845,192.490094 168.366118,189.505039 168.366118,185.82153 C168.366118,182.13921 165.157845,179.154155 161.200896,179.154155" id="Fill-12" fill="#F3A712" mask="url(#mask-4)"></path>
                        <path d="M171.371264,122.241398 C171.371264,119.183884 168.895056,116.706039 165.841027,116.706039 L151.891446,116.706039 C148.837416,116.706039 146.361208,119.183884 146.361208,122.241398 L171.371264,122.241398 Z" id="Fill-13" fill="#683E90" mask="url(#mask-4)"></path>
                        <path d="M186.483963,211.369588 L186.483963,211.369588 C185.525278,210.45376 185.66647,208.734948 186.79601,207.549478 L189.233064,204.992047 C190.362604,203.806577 192.071152,203.585638 193.029837,204.501467 L193.029837,204.501467 C193.988522,205.416108 193.84733,207.13492 192.71779,208.321577 L190.280736,210.87782 C189.151196,212.064478 187.442648,212.285417 186.483963,211.369588" id="Fill-14" fill="#9D3C34" mask="url(#mask-4)"></path>
                        <path d="M198.147175,218.945547 L193.015599,217.754138 C190.092084,217.074691 188.254208,214.124083 188.932882,211.196044 L189.917669,206.945934 C190.596343,204.017895 193.543588,202.17911 196.468289,202.858558 L201.598679,204.049967 C204.523381,204.729414 206.360069,207.680022 205.682583,210.606873 L204.696608,214.858171 C204.019122,217.785022 201.07069,219.624994 198.147175,218.945547" id="Fill-15" fill="#9D3C34" mask="url(#mask-4)"></path>
                        <path d="M175.348384,148.599091 C167.728735,148.599091 161.261169,152.964423 158.824116,159.056881 C156.458252,152.845638 149.92187,148.373401 142.208488,148.373401 C132.501801,148.373401 124.634175,155.443456 124.634175,164.165804 C124.634175,172.886964 132.501801,179.957019 142.208488,179.957019 C149.82695,179.957019 156.294516,175.592876 158.731569,169.500417 C161.097434,175.710472 167.635002,180.18271 175.348384,180.18271 C185.055071,180.18271 192.922697,173.112655 192.922697,164.391494 C192.922697,155.669146 185.055071,148.599091 175.348384,148.599091" id="Fill-16" fill="#2F1C67" mask="url(#mask-4)"></path>
                        <path d="M159.782445,160.555823 C159.782445,169.276983 151.913633,176.348227 142.208132,176.348227 C132.501445,176.348227 124.633819,169.276983 124.633819,160.555823 C124.633819,151.834663 132.501445,144.76342 142.208132,144.76342 C151.913633,144.76342 159.782445,151.834663 159.782445,160.555823" id="Fill-17" fill="#4B318B" mask="url(#mask-4)"></path>
                        <path d="M192.24782,160.442384 C192.24782,168.474594 184.810891,174.986362 175.635752,174.986362 C166.461799,174.986362 159.02487,168.474594 159.02487,160.442384 C159.02487,152.410174 166.461799,145.898406 175.635752,145.898406 C184.810891,145.898406 192.24782,152.410174 192.24782,160.442384" id="Fill-18" fill="#4B318B" mask="url(#mask-4)"></path>
                        <path d="M172.523585,143.418898 C172.490363,142.744202 172.637488,141.608622 172.928178,140.906605 C173.419386,140.507489 174.122975,140.174892 174.965384,139.943262 C175.848134,147.695141 184.880894,159.240997 184.880894,159.240997 L181.637026,160.068925 L181.54448,164.486522 C181.54448,164.486522 172.728848,147.614367 172.523585,143.418898" id="Fill-19" fill="#E14C91" mask="url(#mask-4)"></path>
                        <path d="M174.785987,153.158635 C172.57318,156.678221 170.569196,159.240403 170.569196,159.240403 L173.295753,160.029133 L173.90561,164.487116 C173.90561,164.487116 175.359062,161.705182 177.099645,158.120265 C176.782852,157.463387 176.460126,156.786315 176.137401,156.09974 C175.634328,155.03068 175.185834,154.053083 174.785987,153.158635" id="Fill-20" fill="#E04589" mask="url(#mask-4)"></path>
                        <path d="M182.926861,143.418898 C182.960083,142.744202 182.812958,141.608622 182.522268,140.906605 C182.03106,140.507489 181.327471,140.174892 180.485062,139.943262 C180.247763,142.024367 179.423152,144.377489 178.344631,146.708041 C179.005507,148.077627 179.750623,149.43771 180.508791,150.719395 C181.838848,147.608428 182.859231,144.813428 182.926861,143.418898" id="Fill-21" fill="#E04589" mask="url(#mask-4)"></path>
                        <path d="M181.839323,139.50376 C180.966065,137.951246 179.458035,136.977213 177.81949,136.943953 C177.787454,136.943953 177.755419,136.942765 177.725757,136.942765 C177.694908,136.942765 177.662873,136.943953 177.630838,136.943953 C175.992293,136.977213 174.484262,137.951246 173.611004,139.50376 C173.346417,139.974146 173.11861,140.448097 172.928771,140.906605 C173.418792,140.506301 174.123568,140.174892 174.965977,139.943262 C175.778724,139.721135 176.720798,139.592848 177.725757,139.592848 C178.730715,139.592848 179.671603,139.721135 180.48435,139.943262 C181.326759,140.174892 182.031535,140.506301 182.521556,140.906605 C182.331717,140.448097 182.103911,139.974146 181.839323,139.50376" id="Fill-22" fill="#E25599" mask="url(#mask-4)"></path>
                        <path d="M215.065833,88.775163 C215.065833,93.7759917 210.979556,97.8669309 205.984426,97.8669309 L112.727376,97.8669309 C107.732247,97.8669309 103.64597,93.7759917 103.64597,88.775163 L103.64597,87.3580635 C103.64597,82.3584227 107.732247,78.2662956 112.727376,78.2662956 L205.984426,78.2662956 C210.979556,78.2662956 215.065833,82.3584227 215.065833,87.3580635 L215.065833,88.775163 Z" id="Fill-23" fill="#1E130F" mask="url(#mask-4)"></path>
                        <path d="M209.864847,74.4514116 C209.864847,78.9854171 206.159434,82.695058 201.630595,82.695058 L117.080021,82.695058 C112.552369,82.695058 108.846956,78.9854171 108.846956,74.4514116 L108.846956,73.1673508 C108.846956,68.6333453 112.552369,64.9237044 117.080021,64.9237044 L201.630595,64.9237044 C206.159434,64.9237044 209.864847,68.6333453 209.864847,73.1673508 L209.864847,74.4514116 Z" id="Fill-24" fill="#1E130F" mask="url(#mask-4)"></path>
                        <path d="M204.062903,61.1762901 C204.062903,65.1888315 200.783441,68.4720359 196.775472,68.4720359 L121.936331,68.4720359 C117.928362,68.4720359 114.648899,65.1888315 114.648899,61.1762901 L114.648899,60.0395221 C114.648899,56.0269807 117.928362,52.7425884 121.936331,52.7425884 L196.775472,52.7425884 C200.783441,52.7425884 204.062903,56.0269807 204.062903,60.0395221 L204.062903,61.1762901 Z" id="Fill-25" fill="#1E130F" mask="url(#mask-4)"></path>
                        <path d="M199.224628,67.3341989 C199.224628,87.3802762 180.843501,103.780856 158.377283,103.780856 C135.911065,103.780856 117.528752,87.3802762 117.528752,67.3341989 L117.528752,35.3205801 C117.528752,15.2756906 135.911065,-1.12607735 158.377283,-1.12607735 C180.843501,-1.12607735 199.224628,15.2756906 199.224628,35.3205801 L199.224628,67.3341989 Z" id="Fill-26" fill="#1E130F" mask="url(#mask-4)"></path>
                        <path d="M125.999471,81.4267956 C125.999471,84.3429558 123.638353,86.7079558 120.724329,86.7079558 C117.811493,86.7079558 115.450374,84.3429558 115.450374,81.4267956 C115.450374,78.5106354 117.811493,76.1468232 120.724329,76.1468232 C123.638353,76.1468232 125.999471,78.5106354 125.999471,81.4267956 L125.999471,81.4267956 Z" id="Stroke-27" stroke="#F2A100" stroke-width="0.93" mask="url(#mask-4)"></path>
                        <path d="M196.165022,75.6210829 C196.165022,96.4261934 179.285993,113.292409 158.464253,113.292409 C137.643699,113.292409 120.76467,96.4261934 120.76467,75.6210829 C120.76467,54.8159724 137.643699,37.9509448 158.464253,37.9509448 C179.285993,37.9509448 196.165022,54.8159724 196.165022,75.6210829" id="Fill-28" fill="#9D3C34" mask="url(#mask-4)"></path>
                        <path d="M153.550754,83.3650028 C153.550754,81.3765497 155.160823,79.7646436 157.14701,79.7646436 L159.802378,79.7646436 C161.790938,79.7646436 163.39982,81.3765497 163.39982,83.3650028 L153.550754,83.3650028 Z" id="Fill-29" fill="#6A1E1E" mask="url(#mask-4)"></path>
                        <path d="M187.348085,72.1886851 C187.348085,59.4098453 181.450035,48.0112818 172.232182,40.5480497 C186.248207,46.0418343 196.176768,59.6676077 196.176768,75.621558 C196.176768,96.4266685 179.29774,113.291696 158.477186,113.291696 C156.041318,113.291696 153.663589,113.052939 151.35705,112.612249 C171.618766,110.260315 187.348085,93.0650663 187.348085,72.1886851" id="Fill-30" fill="#6A1E1E" mask="url(#mask-4)"></path>
                        <path d="M138.968654,70.7062541 C140.737713,70.7062541 142.231506,71.8727182 142.727459,73.4798729 C142.841363,73.1092652 142.901874,72.7172762 142.901874,72.3098453 C142.901874,70.1337127 141.14112,68.373326 138.968654,68.373326 C136.797375,68.373326 135.037808,70.1337127 135.037808,72.3098453 C135.037808,72.7172762 135.097132,73.1092652 135.212222,73.4798729 C135.709362,71.8727182 137.204341,70.7062541 138.968654,70.7062541" id="Fill-31" fill="#050405" mask="url(#mask-4)"></path>
                        <path d="M178.00043,70.7062541 C179.769489,70.7062541 181.263281,71.8727182 181.759235,73.4798729 C181.873138,73.1092652 181.933649,72.7172762 181.933649,72.3098453 C181.933649,70.1337127 180.172896,68.373326 178.00043,68.373326 C175.82915,68.373326 174.069583,70.1337127 174.069583,72.3098453 C174.069583,72.7172762 174.128908,73.1092652 174.243997,73.4798729 C174.741137,71.8727182 176.236117,70.7062541 178.00043,70.7062541" id="Fill-32" fill="#050405" mask="url(#mask-4)"></path>
                        <path d="M131.891707,62.4757928 L137.06481,56.2526713" id="Fill-33" fill="#1E130F" mask="url(#mask-4)"></path>
                        <path d="M132.590669,63.8975249 C132.047256,64.1647901 131.374515,64.1065856 130.879748,63.6932155 C130.207007,63.1337403 130.115647,62.1347624 130.675671,61.462442 L135.848775,55.2393204 C136.406426,54.5658122 137.404265,54.4755359 138.077006,55.035011 C138.74856,55.5944862 138.83992,56.5934641 138.279896,57.2657845 L133.107979,63.4889061 C132.962041,63.665895 132.784067,63.8024972 132.590669,63.8975249" id="Fill-34" fill="#1E130F" mask="url(#mask-4)"></path>
                        <path d="M177.363046,56.2479199 L184.161643,60.6322569" id="Fill-35" fill="#1E130F" mask="url(#mask-4)"></path>
                        <path d="M176.335426,57.4531077 C175.740994,56.9470856 175.598615,56.0657044 176.032871,55.3898204 C176.506281,54.6545442 177.485136,54.4431077 178.219575,54.917058 L185.018171,59.3002072 C185.756169,59.777721 185.964992,60.7541298 185.491581,61.4894061 C185.018171,62.2258702 184.039316,62.4373066 183.304877,61.9645442 L176.506281,57.5802072 C176.44577,57.5410083 176.388818,57.4982459 176.335426,57.4531077" id="Fill-36" fill="#1E130F" mask="url(#mask-4)"></path>
                        <path d="M165.597203,94.0550166 C166.099089,93.4325856 166.399271,92.6426685 166.399271,91.7802928 C166.399271,89.7811492 164.780897,88.1597403 162.782845,88.1597403 C161.278374,88.1597403 159.989844,89.0791326 159.444058,90.3881381 C159.444058,90.3881381 159.440498,90.3881381 159.439312,90.3857624 C159.375241,90.4677238 159.276762,90.5188011 159.166419,90.5188011 C159.046583,90.5188011 158.939799,90.4558453 158.879288,90.3620055 C158.327569,89.0672541 157.043785,88.1597403 155.549992,88.1597403 C153.553127,88.1597403 151.93238,89.7811492 151.93238,91.7802928 C151.93238,92.6652376 152.250359,93.4765359 152.777162,94.1049061 L152.775975,94.1049061 L152.78784,94.1179724 C152.854284,94.1939945 152.921914,94.2700166 152.99429,94.3412873 L158.577919,100.444436 C158.728603,100.596481 158.936239,100.69032 159.166419,100.69032 C159.361003,100.69032 159.538977,100.622613 159.680169,100.512144 L159.681356,100.512144 L159.682542,100.509768 C159.752545,100.453939 159.810684,100.388608 159.860516,100.316149 L165.29702,94.3804862 C165.401432,94.2795193 165.501097,94.1714254 165.593643,94.0585801 L165.597203,94.0550166 L165.597203,94.0550166 Z" id="Fill-37" fill="#E04587" mask="url(#mask-4)"></path>
                        <path d="M158.37669,-0.27189779 C144.633558,-0.27189779 132.426933,5.88589227 125.013734,15.2615552 C125.22137,39.2607818 148.507453,58.8435994 176.952402,58.8435994 L191.060973,58.8435994 C193.837363,58.8435994 196.562734,58.6511685 199.224035,58.2924392 L199.224035,36.256721 C199.224035,16.1666934 180.842907,-0.27189779 158.37669,-0.27189779" id="Fill-38" fill="#1E130F" mask="url(#mask-4)"></path>
                        <path d="M132.659129,33.0693757 C132.659129,37.8112541 130.460561,41.6551215 127.749427,41.6551215 C125.037108,41.6551215 122.839725,37.8112541 122.839725,33.0693757 C122.839725,28.3274972 125.037108,24.4836298 127.749427,24.4836298 C130.460561,24.4836298 132.659129,28.3274972 132.659129,33.0693757" id="Fill-39" fill="#E76113" mask="url(#mask-4)"></path>
                        <path d="M132.659129,47.0548287 C132.659129,51.7967072 130.460561,55.6405746 127.749427,55.6405746 C125.037108,55.6405746 122.839725,51.7967072 122.839725,47.0548287 C122.839725,42.3129503 125.037108,38.4690829 127.749427,38.4690829 C130.460561,38.4690829 132.659129,42.3129503 132.659129,47.0548287" id="Fill-40" fill="#E76113" mask="url(#mask-4)"></path>
                        <path d="M120.764314,35.1463232 C125.500789,35.1463232 129.340275,37.3474006 129.340275,40.0616271 C129.340275,42.7770414 125.500789,44.9769309 120.764314,44.9769309 C116.02784,44.9769309 112.18954,42.7770414 112.18954,40.0616271 C112.18954,37.3474006 116.02784,35.1463232 120.764314,35.1463232" id="Fill-41" fill="#E76113" mask="url(#mask-4)"></path>
                        <path d="M134.734184,35.1463232 C139.470659,35.1463232 143.308959,37.3474006 143.308959,40.0616271 C143.308959,42.7770414 139.470659,44.9769309 134.734184,44.9769309 C129.99771,44.9769309 126.158223,42.7770414 126.158223,40.0616271 C126.158223,37.3474006 129.99771,35.1463232 134.734184,35.1463232" id="Fill-42" fill="#E76113" mask="url(#mask-4)"></path>
                        <path d="M119.338389,41.5307541 C122.687854,38.1774669 126.956851,37.0157541 128.874221,38.9353122 C130.791592,40.8548702 129.631203,45.1299254 126.281737,48.4820249 C122.933458,51.8353122 118.664461,52.9970249 116.747091,51.0774669 C114.829721,49.1579088 115.990109,44.8828536 119.338389,41.5307541" id="Fill-43" fill="#E76113" mask="url(#mask-4)"></path>
                        <path d="M129.21688,31.6413481 C132.565159,28.2880608 136.834156,27.1275359 138.751526,29.0470939 C140.668897,30.9666519 139.509694,35.2405193 136.160229,38.5926188 C132.811949,41.9459061 128.541766,43.1076188 126.624396,41.1880608 C124.707026,39.2685028 125.867414,34.9934475 129.21688,31.6413481" id="Fill-44" fill="#E76113" mask="url(#mask-4)"></path>
                        <path d="M129.216405,48.4827376 C125.86694,45.1294503 124.706551,40.8555829 126.623921,38.9360249 C128.541292,37.0164669 132.811475,38.1781796 136.159754,41.5314669 C139.50922,44.8835663 140.669608,49.1574337 138.752238,51.0769917 C136.834868,52.9965497 132.564685,51.834837 129.216405,48.4827376" id="Fill-45" fill="#E76113" mask="url(#mask-4)"></path>
                        <path d="M119.338389,38.5929751 C115.988923,35.2408757 114.829721,30.9670083 116.747091,29.0474503 C118.664461,27.1278923 122.933458,28.2884171 126.281737,31.6417044 C129.631203,34.9938039 130.791592,39.2688591 128.874221,41.1884171 C126.956851,43.1079751 122.686668,41.9462624 119.338389,38.5929751" id="Fill-46" fill="#E76113" mask="url(#mask-4)"></path>
                        <path d="M136.12238,40.1571298 C136.12238,44.6531243 132.479851,48.2986215 127.990166,48.2986215 C123.501669,48.2986215 119.860326,44.6531243 119.860326,40.1571298 C119.860326,35.6611354 123.501669,32.0156381 127.990166,32.0156381 C132.479851,32.0156381 136.12238,35.6611354 136.12238,40.1571298" id="Fill-47" fill="#FCD435" mask="url(#mask-4)"></path>
                        <path d="M101.231222,68.623011 C101.231222,93.7887017 82.8951818,114.189945 60.2770933,114.189945 C37.6578182,114.189945 19.3217777,93.7887017 19.3217777,68.623011 C19.3217777,43.4573204 37.6578182,23.0560773 60.2770933,23.0560773 C82.8951818,23.0560773 101.231222,43.4573204 101.231222,68.623011" id="Fill-48" fill="#003E7C" mask="url(#mask-4)"></path>
                        <path d="M108.038362,85.8639917 C108.038362,107.202445 87.0493261,124.499848 61.1588938,124.499848 C35.267275,124.499848 14.2782394,107.202445 14.2782394,85.8639917 C14.2782394,64.5255387 35.267275,47.2281354 61.1588938,47.2281354 C87.0493261,47.2281354 108.038362,64.5255387 108.038362,85.8639917" id="Fill-49" fill="#003E7C" mask="url(#mask-4)"></path>
                        <path d="M97.0660438,68.4411519 C97.0660438,88.7259862 80.7126306,105.169329 60.5410877,105.169329 C40.3683582,105.169329 24.0161316,88.7259862 24.0161316,68.4411519 C24.0161316,48.1563177 40.3683582,31.7129751 60.5410877,31.7129751 C80.7126306,31.7129751 97.0660438,48.1563177 97.0660438,68.4411519" id="Fill-50" fill="#F6C6A8" mask="url(#mask-4)"></path>
                        <path d="M66.3774396,85.7759724 C66.8354254,85.2058066 67.1083184,84.4824088 67.1083184,83.6936796 C67.1083184,81.8643978 65.6335094,80.380779 63.8134314,80.380779 C62.4418471,80.380779 61.268407,81.2217735 60.771267,82.4203094 C60.771267,82.4203094 60.7677075,82.4203094 60.7665211,82.4179337 C60.708383,82.492768 60.6182096,82.5390939 60.5185443,82.5390939 C60.4082006,82.5390939 60.3120948,82.4820773 60.2563297,82.3965525 C59.7532573,81.2110829 58.5845631,80.380779 57.2224708,80.380779 C55.4035792,80.380779 53.9275837,81.8643978 53.9275837,83.6936796 C53.9275837,84.5037901 54.2159012,85.2473812 54.6964302,85.8211105 L54.6952438,85.8211105 L54.7059222,85.832989 C54.7664332,85.9030718 54.8281308,85.9731547 54.8933878,86.0384862 L59.9810636,91.6237348 C60.1186967,91.7627127 60.3085353,91.8482376 60.5185443,91.8482376 C60.6953316,91.8482376 60.8578809,91.7864696 60.986022,91.6855028 L60.9872085,91.6855028 L60.988395,91.6843149 C61.051279,91.6320497 61.1058576,91.5726575 61.1509443,91.5061381 L66.1033601,86.0741215 C66.1994659,85.9814696 66.2896392,85.8828785 66.3738802,85.7783481 L66.3774396,85.7759724 L66.3774396,85.7759724 Z" id="Fill-51" fill="#DA0080" mask="url(#mask-4)"></path>
                        <path d="M55.562925,73.5825028 C55.562925,71.6273094 57.1385858,70.0439116 59.0808725,70.0439116 L61.6804755,70.0439116 C63.6251352,70.0439116 65.1996095,71.6273094 65.1996095,73.5825028 L55.562925,73.5825028 Z" id="Fill-52" fill="#DAAD94" mask="url(#mask-4)"></path>
                        <path d="M41.1592735,65.551837 C42.770529,65.551837 44.1314348,66.6197099 44.5823016,68.0890746 C44.6867129,67.7505387 44.742478,67.3918094 44.742478,67.018826 C44.742478,65.0279972 43.1383414,63.417279 41.1592735,63.417279 C39.181392,63.417279 37.578442,65.0279972 37.578442,67.018826 C37.578442,67.3918094 37.6330206,67.7505387 37.7374318,68.0890746 C38.1906716,66.6197099 39.5527639,65.551837 41.1592735,65.551837" id="Fill-53" fill="#050405" mask="url(#mask-4)"></path>
                        <path d="M21.1928749,53.7887238 C26.6851443,55.9173425 33.0625364,57.3083094 40.0355473,57.8095801 C71.4348599,60.0641105 84.8908606,50.4865138 84.8908606,35.0956022 C87.1333297,18.8256851 68.8755976,17.2209061 64.1391233,17.2209061 C42.3658167,17.2209061 24.335891,33.0905193 21.1928749,53.7887238" id="Fill-54" fill="#004395" mask="url(#mask-4)"></path>
                        <path d="M102.678742,70.458826 C102.678742,72.6420856 100.919175,74.4119751 98.7478955,74.4119751 C96.576616,74.4119751 94.817049,72.6420856 94.817049,70.458826 C94.817049,68.2755663 96.576616,66.5056768 98.7478955,66.5056768 C100.919175,66.5056768 102.678742,68.2755663 102.678742,70.458826" id="Fill-55" fill="#F3F7FA" mask="url(#mask-4)"></path>
                        <path d="M27.5598259,69.3862017 C28.1483257,71.4875 26.9321719,73.6707597 24.8427602,74.2634945 C22.7533486,74.8562293 20.582069,73.6327486 19.9923827,71.5314503 C19.4038829,69.4301519 20.6200368,67.2468923 22.7094484,66.6541575 C24.79886,66.0614227 26.9713261,67.2849033 27.5598259,69.3862017" id="Fill-56" fill="#F3F7FA" mask="url(#mask-4)"></path>
                        <path d="M84.7241586,67.0141934 C84.7241586,64.9497182 83.0583244,63.2748564 81.0045075,63.2748564 C78.9518771,63.2748564 77.286043,64.9497182 77.286043,67.0141934 C77.286043,69.0786685 78.9518771,70.7535304 81.0045075,70.7535304 C83.0583244,70.7535304 84.7241586,69.0786685 84.7241586,67.0141934" id="Fill-57" fill="#040502" mask="url(#mask-4)"></path>
                        <path d="M82.9331496,166.122423 L83.4184246,131.456345 C83.4184246,120.550738 76.5794873,111.666843 68.0177642,111.241594 L68.0177642,111.235655 L56.235903,111.235655 L56.235903,111.245157 C47.6943503,111.695351 40.8755833,120.567367 41.3157717,129.542727 L41.3157717,166.014329 C37.6340884,177.295296 35.719091,179.995268 35.719091,192.477146 C35.719091,201.431124 87.4441905,215.223196 87.4441905,206.269218 C87.4441905,192.59118 86.7595848,175.917395 82.9331496,166.122423" id="Fill-58" fill="#63BCC2" mask="url(#mask-4)"></path>
                        <polygon id="Fill-59" fill="#4B318B" mask="url(#mask-4)" points="40.8758206 165.793508 83.4186619 165.793508 83.4186619 162.87616 40.8758206 162.87616"></polygon>
                        <path d="M36.5135658,199.398008 C36.2584701,199.398008 35.9998149,199.375439 35.7399733,199.329113 C33.3503793,198.902677 31.7581076,196.608948 32.1828716,194.205936 L28.7895057,153.119555 L38.237538,119.056903 C38.237538,116.617069 40.204741,114.638119 42.6311162,114.638119 C45.058678,114.638119 47.025881,116.617069 47.025881,119.056903 L37.5778487,153.898782 L40.834768,195.751323 C40.4562772,197.893008 38.6029774,199.398008 36.5135658,199.398008" id="Fill-60" fill="#F6C6A8" mask="url(#mask-4)"></path>
                        <path d="M88.178866,199.853903 C88.4339617,199.853903 88.6926169,199.831334 88.9524585,199.785008 C91.3420525,199.358572 92.9343242,197.064843 92.5095602,194.661831 L96.7809298,153.57545 L86.4548938,119.512798 C85.4475625,116.809262 84.4876908,115.094014 82.0613156,115.094014 C76.0742792,115.115395 78.2111505,121.349207 78.2111505,121.349207 L87.9937734,154.354677 L83.8576638,196.207218 C84.2361546,198.348903 86.0894544,199.853903 88.178866,199.853903" id="Fill-61" fill="#F6C6A8" mask="url(#mask-4)"></path>
                        <path d="M41.3152971,143.73629 L83.2470952,143.73629 L83.4191365,131.456345 C83.4191365,120.550738 76.5790127,111.666843 68.0172896,111.241594 L68.0172896,111.235655 L56.2366149,111.235655 L56.2366149,111.245157 C47.6938757,111.695351 40.8762952,120.567367 41.3152971,129.542727 L41.3152971,143.73629 Z" id="Fill-62" fill="#63BCC2" mask="url(#mask-4)"></path>
                        <path d="M71.5917141,112.381569 C71.5917141,110.056956 69.7170574,108.171845 67.4045854,108.171845 L56.8448105,108.171845 C54.5323385,108.171845 52.6588683,110.056956 52.6588683,112.381569 L71.5917141,112.381569 Z" id="Fill-63" fill="#4B318B" mask="url(#mask-4)"></path>
                        <path d="M62.7222151,133.254743 C62.7222151,140.700157 57.329611,146.735599 50.6769528,146.735599 C44.0254811,146.735599 38.632877,140.700157 38.632877,133.254743 C38.632877,125.809329 44.2366766,115.954964 50.8893348,115.954964 C57.5408065,115.954964 62.7222151,125.809329 62.7222151,133.254743" id="Fill-64" fill="#63BCC2" mask="url(#mask-4)"></path>
                        <path d="M84.2759021,133.254743 C84.2759021,140.700157 78.8832979,146.735599 72.2306398,146.735599 C65.5791681,146.735599 60.186564,140.700157 60.186564,133.254743 C60.186564,125.809329 65.7903636,115.954964 72.4430218,115.954964 C79.0944934,115.954964 84.2759021,125.809329 84.2759021,133.254743" id="Fill-65" fill="#63BCC2" mask="url(#mask-4)"></path>
                        <path d="M72.9564167,144.451135 C67.9363709,144.451135 63.6044902,141.121605 61.5091461,136.288262 C59.4126155,141.121605 55.0807349,144.451135 50.0606891,144.451135 C45.6766028,144.451135 41.8098268,141.915086 39.5044737,138.053401 C41.2047161,143.644588 45.5947349,147.635749 50.7571596,147.635749 C55.4722771,147.635749 59.5407566,144.306218 61.5091461,139.472876 C63.4763491,144.306218 67.5460152,147.635749 72.2599461,147.635749 C77.4223709,147.635749 81.8123896,143.644588 83.512632,138.053401 C81.2072789,141.915086 77.340503,144.451135 72.9564167,144.451135" id="Fill-66" fill="#45A3A5" mask="url(#mask-4)"></path>
                        <path d="M45.3079598,132.524693 C45.1916837,131.946213 45.1821917,130.941296 45.3577925,130.290356 C45.7540807,129.871047 46.3532589,129.476682 47.0912567,129.150025 C48.8792994,135.721185 58.571749,144.340191 58.571749,144.340191 L55.7229827,145.547041 L56.1999523,149.382594 C56.1999523,149.382594 46.0269737,136.121489 45.3079598,132.524693" id="Fill-67" fill="#E14C91" mask="url(#mask-4)"></path>
                        <path d="M48.6055758,140.606674 C47.0382205,143.986094 45.5384952,146.504326 45.5384952,146.504326 L48.1214873,146.773967 L49.2427218,150.538249 C49.2427218,150.538249 50.2132719,147.911923 51.3428119,144.547945 C50.97144,144.027669 50.5917627,143.49195 50.2097124,142.945541 C49.6164666,142.09742 49.0837319,141.319381 48.6055758,140.606674" id="Fill-68" fill="#E04589" mask="url(#mask-4)"></path>
                        <path d="M54.7823322,130.951511 C54.7265671,130.363528 54.4489281,129.402561 54.0941671,128.839522 C53.5970272,128.568693 52.913608,128.386953 52.1162857,128.315682 C52.1649319,130.149715 51.7140651,132.310406 51.0270865,134.488914 C51.8030519,135.574605 52.6549529,136.637727 53.5068538,137.630765 C54.3243465,134.73955 54.8974219,132.167865 54.7823322,130.951511" id="Fill-69" fill="#E04589" mask="url(#mask-4)"></path>
                        <path d="M53.2945905,127.729718 C52.301497,126.518116 50.8053312,125.905188 49.3079788,126.123751 C49.279503,126.128503 49.2498408,126.132066 49.2225514,126.136818 C49.1952621,126.141569 49.1655998,126.14632 49.1371241,126.15226 C47.6480771,126.429028 46.399888,127.499276 45.8007098,128.97458 C45.6203631,129.420022 45.4720516,129.864276 45.356962,130.290713 C45.7532501,129.870215 46.3524284,129.477039 47.0904261,129.149193 C47.8035075,128.834414 48.6435436,128.581403 49.559515,128.429359 C50.4743,128.277315 51.3475578,128.245243 52.1164044,128.315326 C52.9137267,128.386597 53.5971458,128.568337 54.0942858,128.840354 C53.8629199,128.472122 53.5947728,128.096762 53.2945905,127.729718" id="Fill-70" fill="#E25599" mask="url(#mask-4)"></path>
                    </g>
                    <g id="Group-98" transform="translate(60.511069, 0.066964)">
                        <path d="M97.8656204,0.915947514 C84.1224887,0.915947514 71.9158636,7.07373757 64.5026643,16.4494006 C64.7103003,40.4486271 87.9963836,60.0314448 116.441332,60.0314448 L130.549903,60.0314448 C133.326294,60.0314448 136.051665,59.8390138 138.712965,59.4802845 L138.712965,37.4445663 C138.712965,17.3545387 120.331838,0.915947514 97.8656204,0.915947514" id="Fill-72" fill="#1E130F"></path>
                        <path d="M72.14806,34.257221 C72.14806,38.9990994 69.9494911,42.8429669 67.2383579,42.8429669 C64.5260382,42.8429669 62.3286558,38.9990994 62.3286558,34.257221 C62.3286558,29.5153425 64.5260382,25.6714751 67.2383579,25.6714751 C69.9494911,25.6714751 72.14806,29.5153425 72.14806,34.257221" id="Fill-74" fill="#E76113"></path>
                        <path d="M72.14806,48.242674 C72.14806,52.9845525 69.9494911,56.8284199 67.2383579,56.8284199 C64.5260382,56.8284199 62.3286558,52.9845525 62.3286558,48.242674 C62.3286558,43.5007956 64.5260382,39.6569282 67.2383579,39.6569282 C69.9494911,39.6569282 72.14806,43.5007956 72.14806,48.242674" id="Fill-76" fill="#E76113"></path>
                        <path d="M60.2532448,36.3341685 C64.9897191,36.3341685 68.8292058,38.5352459 68.8292058,41.2494724 C68.8292058,43.9648867 64.9897191,46.1647762 60.2532448,46.1647762 C55.5167705,46.1647762 51.6784703,43.9648867 51.6784703,41.2494724 C51.6784703,38.5352459 55.5167705,36.3341685 60.2532448,36.3341685" id="Fill-78" fill="#E76113"></path>
                        <path d="M74.223115,36.3341685 C78.9595893,36.3341685 82.7978895,38.5352459 82.7978895,41.2494724 C82.7978895,43.9648867 78.9595893,46.1647762 74.223115,46.1647762 C69.4866408,46.1647762 65.6471541,43.9648867 65.6471541,41.2494724 C65.6471541,38.5352459 69.4866408,36.3341685 74.223115,36.3341685" id="Fill-80" fill="#E76113"></path>
                        <path d="M58.8273192,42.7185994 C62.1767849,39.3653122 66.4457815,38.2035994 68.3631519,40.1231575 C70.2805223,42.0427155 69.1201335,46.3177707 65.7706678,49.6698702 C62.4223887,53.0231575 58.153392,54.1848702 56.2360217,52.2653122 C54.3186513,50.3457541 55.4790401,46.0706989 58.8273192,42.7185994" id="Fill-82" fill="#E76113"></path>
                        <path d="M68.7058107,32.8291934 C72.0540898,29.4759061 76.3230865,28.3153812 78.2404568,30.2349392 C80.1578272,32.1544972 78.9986249,36.4283646 75.6491592,39.7804641 C72.3008801,43.1337514 68.030697,44.2954641 66.1133266,42.3759061 C64.1959562,40.4563481 65.356345,36.1812928 68.7058107,32.8291934" id="Fill-84" fill="#E76113"></path>
                        <path d="M68.7053361,49.6705829 C65.3558704,46.3172956 64.1954817,42.0434282 66.112852,40.1238702 C68.0302224,38.2043122 72.3004055,39.3660249 75.6486847,42.7193122 C78.9981503,46.0714116 80.1585391,50.345279 78.2411687,52.264837 C76.3237983,54.184395 72.0536152,53.0226823 68.7053361,49.6705829" id="Fill-86" fill="#E76113"></path>
                        <path d="M58.8273192,39.7808204 C55.4778536,36.428721 54.3186513,32.1548536 56.2360217,30.2352956 C58.153392,28.3157376 62.4223887,29.4762624 65.7706678,32.8295497 C69.1201335,36.1816492 70.2805223,40.4567044 68.3631519,42.3762624 C66.4457815,44.2958204 62.1755984,43.1341077 58.8273192,39.7808204" id="Fill-88" fill="#E76113"></path>
                        <path d="M75.6113102,41.3449751 C75.6113102,45.8409696 71.9687811,49.4864669 67.479097,49.4864669 C62.9905995,49.4864669 59.3492569,45.8409696 59.3492569,41.3449751 C59.3492569,36.8489807 62.9905995,33.2034834 67.479097,33.2034834 C71.9687811,33.2034834 75.6113102,36.8489807 75.6113102,41.3449751" id="Fill-90" fill="#FCD435"></path>
                        <path d="M148.170134,79.8662044 C148.91525,78.6272818 149.354252,77.1840497 149.354252,75.638663 L149.354252,74.3546022 C149.354252,70.2684144 146.340564,66.861674 142.429887,66.2273646 C143.13585,65.103663 143.551122,63.7815912 143.551122,62.3644917 L143.551122,61.2265359 C143.551122,57.2139945 140.272846,53.9307901 136.263691,53.9307901 L138.440903,67.222779 L135.771297,99.0546575 L145.473238,99.0546575 C150.468368,99.0546575 154.554645,94.9637182 154.554645,89.9628895 L154.554645,88.5457901 C154.554645,84.484547 151.858936,81.0231657 148.170134,79.8662044" id="Fill-92" fill="#1E130F"></path>
                        <path d="M137.486014,76.7812514 C136.88209,76.7812514 136.311388,76.9000359 135.763229,77.0710856 C135.764415,77.1708646 135.771534,77.2694558 135.771534,77.3704227 C135.771534,77.6578812 135.75611,77.9417762 135.748991,78.228047 C136.287658,78.013047 136.871412,77.8871354 137.486014,77.8871354 C140.089177,77.8871354 142.208251,80.0074392 142.208251,82.6147597 C142.208251,85.2208923 140.089177,87.342384 137.486014,87.342384 C136.369526,87.342384 135.356262,86.9361409 134.547075,86.2852017 C134.440291,86.6700635 134.331133,87.0549254 134.210111,87.4338481 C135.14388,88.071721 136.272233,88.448268 137.486014,88.448268 C140.699033,88.448268 143.311688,85.8314448 143.311688,82.6147597 C143.311688,79.3980746 140.699033,76.7812514 137.486014,76.7812514" id="Fill-94" fill="#F2A100"></path>
                        <path d="M1.93493043,133.84142 L1.71661598,133.84142 C1.20286514,133.84142 0.781660638,133.420923 0.781660638,132.906586 L0.781660638,114.452221 C0.781660638,113.937884 1.20286514,113.517387 1.71661598,113.517387 L1.93493043,113.517387 C2.44868128,113.517387 2.86869929,113.937884 2.86869929,114.452221 L2.86869929,132.906586 C2.86869929,133.420923 2.44868128,133.84142 1.93493043,133.84142" id="Fill-96" fill="#4B318B"></path>
                    </g>
                </g>
            </g>
        </g>
    </g>
</svg>