<svg width="229" height="219" viewBox="0 0 229 219" xmlns="http://www.w3.org/2000/svg" xmlns:xlink="http://www.w3.org/1999/xlink"><title>0B1E3191-D5D7-4712-9D28-0A7710F1324B</title><defs><path id="b" d="M0 0h1440v3000H0z"/><filter x="-50%" y="-50%" width="200%" height="200%" filterUnits="objectBoundingBox" id="a"><feOffset in="SourceAlpha" result="shadowOffsetOuter1"/><feGaussianBlur stdDeviation="10" in="shadowOffsetOuter1" result="shadowBlurOuter1"/><feColorMatrix values="0 0 0 0 0 0 0 0 0 0 0 0 0 0 0 0 0 0 0.1 0" in="shadowBlurOuter1"/></filter><path d="M.178 86.246c0 47.168 38.247 85.405 85.428 85.405 47.183 0 85.43-38.237 85.43-85.405S132.79.84 85.606.84C38.425.84.178 39.078.178 86.246z" id="c"/></defs><g fill="none" fill-rule="evenodd"><g transform="translate(-927 -2014)"><use fill="#000" filter="url(#a)" xlink:href="#b"/><use fill="#FFF" xlink:href="#b"/></g><path d="M201.36 109.86c0 47.168-38.247 85.406-85.429 85.406-47.181 0-85.429-38.238-85.429-85.406 0-47.167 38.248-85.405 85.43-85.405 47.181 0 85.429 38.238 85.429 85.405" fill="#704693"/><g transform="translate(30.325 23.615)"><path d="M159.618 57.792a3.756 3.756 0 0 1 1.105 2.665h-17.054a3.771 3.771 0 0 1 3.772-3.769h9.51c1.042 0 1.985.421 2.667 1.104z" fill="#A28DBD"/><path d="M149.44 57.792a3.758 3.758 0 0 1 1.102 2.665H133.49a3.77 3.77 0 0 1 3.77-3.769h9.512c1.042 0 1.985.421 2.667 1.104M155.49 54.022a3.756 3.756 0 0 1 1.103 2.665H139.54a3.77 3.77 0 0 1 3.77-3.768h9.512c1.04 0 1.984.42 2.667 1.103M132.938 59.124c.341.342.551.813.551 1.333h-3.77a1.886 1.886 0 0 1 3.219-1.333" fill="#A28DBD"/><path d="M146.22 55.355c.34.34.552.813.552 1.333h-3.77a1.885 1.885 0 0 1 3.218-1.333M11.79 47.19a3.41 3.41 0 0 0-1.002 2.42h15.48a3.424 3.424 0 0 0-3.423-3.422h-8.633c-.95 0-1.804.384-2.422 1.003" fill="#A28DBD"/><path d="M21.03 47.19a3.406 3.406 0 0 0-1.003 2.42h15.479a3.422 3.422 0 0 0-3.422-3.422h-8.633c-.946 0-1.801.384-2.421 1.003" fill="#A28DBD"/><path d="M15.537 43.77a3.413 3.413 0 0 0-1.001 2.419h15.478a3.423 3.423 0 0 0-3.423-3.422h-8.633c-.946 0-1.8.384-2.421 1.003M36.008 48.4c-.31.31-.502.738-.502 1.21h3.423a1.712 1.712 0 0 0-2.921-1.21" fill="#A28DBD"/><path d="M23.95 44.98c-.309.309-.499.737-.499 1.21h3.42a1.71 1.71 0 0 0-2.92-1.21" fill="#A28DBD"/><path d="M122.26 109.027h29.231c0-6.132-4.971-11.102-11.104-11.102h-28.02c-6.047 0-10.962 4.832-11.099 10.845h-9.407c-6.133 0-11.105 4.97-11.105 11.102h50.231c0-5.316-3.739-9.756-8.728-10.845" fill="#623F99"/><path d="M162.31 100.514c0-6.082-4.93-11.01-11.012-11.01h-27.787c-6.082 0-11.013 4.928-11.013 11.01h49.813zM170.661 119.872c0-6.132-6.355-11.102-14.192-11.102h-35.814c-7.838 0-14.192 4.97-14.192 11.102h64.198z" fill="#623F99"/><mask id="d" fill="#fff"><use xlink:href="#c"/></mask><path fill="#A892C1" mask="url(#d)" d="M9.622 119.866h3.896v-13.984H9.622zM45.548 120.33h2.457V107.82h-2.457z"/><path d="M48.793 115.122a4.533 4.533 0 1 1-9.065-.003 4.533 4.533 0 0 1 9.065.003M129.053 119.943c.003-.04.005-.08.005-.12 0-4.344-3.285-7.865-7.341-7.865-4.048 0-7.335 3.521-7.335 7.865v.12h14.671z" fill="#8566A5" mask="url(#d)"/><path d="M142.591 119.943v-.103a6.755 6.755 0 0 0-6.755-6.755 6.756 6.756 0 0 0-6.758 6.755l.003.103h13.51z" fill="#704693" mask="url(#d)"/><path d="M169.066 119.943c0-.042.003-.084.003-.127a8.293 8.293 0 0 0-8.294-8.291 8.292 8.292 0 0 0-8.293 8.291l.001.127h16.583z" fill="#472F92" mask="url(#d)"/><path d="M37.509 70.096c0 7.137-5.788 12.923-12.925 12.923-7.14 0-12.928-5.786-12.928-12.923 0-7.139 5.787-12.925 12.928-12.925 7.137 0 12.925 5.786 12.925 12.925M58.342 100.73c0 9.407-7.626 17.034-17.038 17.034-9.408 0-17.035-7.627-17.035-17.033 0-9.408 7.627-17.035 17.035-17.035 9.412 0 17.038 7.627 17.038 17.035" fill="#623F99" mask="url(#d)"/><path fill="#A892C1" mask="url(#d)" d="M124.201 119.842h1.925v-10.25H124.2z"/><path fill="#8566A5" mask="url(#d)" d="M32.852 120.043h3.304V96.526h-3.304zM141.95 119.977h3.121v-15.82h-3.12zM160.816 119.977h2.358V94.502h-2.358z"/><path d="M46.251 86.871c0 6.485-5.259 11.743-11.747 11.743-6.486 0-11.745-5.258-11.745-11.743 0-6.486 5.26-11.743 11.745-11.743 6.488 0 11.747 5.257 11.747 11.743" fill="#8566A5" mask="url(#d)"/><path d="M141.342 94.301c0 1.17-.95 2.12-2.123 2.12h-14.943a2.12 2.12 0 0 1-2.122-2.12l6.314-17.521c0-1.172.95-2.12 2.12-2.12h2.247c1.17 0 2.118.948 2.118 2.12l6.39 17.521z" fill="#623F99" mask="url(#d)"/><path d="M141.342 103.82c0 1.172-.95 2.121-2.123 2.121h-14.943a2.121 2.121 0 0 1-2.122-2.12L126.71 86.3a2.12 2.12 0 0 1 2.12-2.121h5.763c1.173 0 2.118.95 2.118 2.12l4.631 17.521z" fill="#623F99" mask="url(#d)"/><path d="M141.342 114.398c0 1.17-.95 2.119-2.123 2.119h-14.943a2.12 2.12 0 0 1-2.122-2.12l4.556-17.521c0-1.17.946-2.12 2.12-2.12h5.763c1.173 0 2.118.95 2.118 2.12l4.631 17.522z" fill="#623F99" mask="url(#d)"/><path d="M125.368 91.171h-.008a5.59 5.59 0 0 0-5.582 5.59v8.533a5.588 5.588 0 0 0 5.582 5.588h.008a5.588 5.588 0 0 0 5.582-5.588V96.76a5.589 5.589 0 0 0-5.582-5.59" fill="#A892C1" mask="url(#d)"/><path d="M143.86 75.597H143.851c-4.114.006-7.449 3.34-7.449 7.453v19.7a7.457 7.457 0 0 0 7.45 7.453h.01a7.454 7.454 0 0 0 7.444-7.454V83.05a7.455 7.455 0 0 0-7.446-7.453" fill="#8566A5" mask="url(#d)"/><path d="M176.816 83.425c0 8.183-6.636 14.817-14.82 14.817-8.186 0-14.822-6.634-14.822-14.817 0-8.184 6.636-14.818 14.822-14.818 8.184 0 14.82 6.634 14.82 14.818M29.993 104.642a4.073 4.073 0 0 1-4.072 4.073H-2.778a4.075 4.075 0 0 1-4.073-4.073L1.89 70.995a4.075 4.075 0 0 1 4.076-4.074h11.068a4.072 4.072 0 0 1 4.075 4.074l8.883 33.647z" fill="#9D81B6" mask="url(#d)"/><path d="M54.913 120.166c0-3.468-4.27-6.279-9.54-6.279H34.87c-5.273 0-9.543 2.811-9.543 6.279h29.585z" fill="#472F92" mask="url(#d)"/><path d="M12.737 117.749c.584.583.945 1.39.945 2.281H-7.541a3.228 3.228 0 0 1 3.228-3.227h14.767c.892 0 1.7.362 2.283.946" fill="#8566A5" mask="url(#d)"/><path d="M28.345 117.749c.584.583.946 1.39.946 2.281H8.068a3.228 3.228 0 0 1 3.228-3.227h14.766c.892 0 1.698.362 2.283.946" fill="#8566A5" mask="url(#d)"/><path d="M10.102 115.858a3.214 3.214 0 0 1-.945-2.282H21.38a3.227 3.227 0 0 1-3.229 3.227h-5.768c-.893 0-1.7-.36-2.282-.945" fill="#8566A5" mask="url(#d)"/><path d="M12.737 114.522c.584.584.945 1.39.945 2.28H.092a3.228 3.228 0 0 1 3.228-3.225h7.134c.892 0 1.7.36 2.283.945M16.663 117.749c.583.583.945 1.39.945 2.281H6.528a3.228 3.228 0 0 1 3.229-3.227l4.622.001c.891 0 1.698.36 2.284.945M15.413 111.294c.585.584.945 1.39.945 2.282H5.048a3.228 3.228 0 0 1 3.226-3.227l4.855.001c.894 0 1.7.36 2.284.944" fill="#8566A5" mask="url(#d)"/><path d="M154.96 119.943l.001-.103a6.755 6.755 0 0 0-6.756-6.755 6.755 6.755 0 0 0-6.758 6.755l.003.103h13.51z" fill="#472F92" mask="url(#d)"/></g><path d="M95.85 162.368l3.156-17.117 22.418-18.682c6.353-5.294 15.793-4.437 21.09 1.915l-40.662 33.884h-6.001z" fill="#E4A77F"/><path d="M115.867 162.368l3.157-17.117 22.418-18.682c6.353-5.294 15.794-4.437 21.09 1.915l-40.661 33.884h-6.004z" fill="#E4A77F"/><path d="M117.248 127.155c0 8.427-6.45 15.256-14.407 15.256H91.02c-7.96 0-8.526-6.83-8.526-15.256h34.753z" fill="#F6BF93"/><path d="M133.97 72.832c-6.835 0-12.784 3.788-15.865 9.376-3.083-5.588-9.031-9.376-15.867-9.376-9.998 0-18.105 8.103-18.105 18.101-1.253 18.483 24.367 35.589 33.972 40.586 6.325-3.568 34.308-25.046 33.97-40.586 0-9.998-8.107-18.1-18.105-18.1" fill="#16A386"/><path d="M134.019 72.712c-6.835 0-12.786 3.788-15.866 9.377-.017-.03.011.625-.006.595l-.045 48.688c.017.009.034.02.05.027 6.326-3.567 34.31-25.046 33.972-40.585 0-9.998-8.107-18.102-18.105-18.102" fill="#13866B"/><path d="M64.465 142.334c5.17-10.007 7.903-15.162 16.528-15.162H90.5c8.027 0 7.769 6.693 8.57 15.232h-2.57c0 1.412 1.157 2.579 2.662 2.781v1.151c0 9.44-7.057 17.164-15.678 17.164h-8.052c-8.625 0-17.44 1.914-17.44-7.525l6.472-13.64z" fill="#F6BF93"/><path d="M63.466 145.003l70.908.243 22.415-18.678c6.353-5.293 15.796-4.435 21.088 1.915l-38.498 32.218s-1.837 2-4.894 1.968c-1.89.032-35.518.032-35.518.032L48.966 191.31l-24.358-27.35 38.858-18.956z" fill="#F6BF93"/><path d="M92.11 134.713l-.001-.056h.002c.049-4.171 3.324-7.538 7.363-7.538h18.21c4.036 0 7.316 3.367 7.362 7.538h.002v.092h-.002c-.048 4.172-3.326 7.538-7.362 7.538H99.473c-4.038 0-7.313-3.366-7.362-7.538h-.002l.002-.036" fill="#F6BF93"/><path d="M115.323 139.665h2.902c2.8 0 5.073-2.336 5.109-5.229v-.025-.04h-.002c-.034-2.893-2.307-5.229-5.107-5.229h-2.902v10.523z" fill="#F4E8DE"/><path d="M145.834 31.007l-3.155 17.118-22.42 18.683c-6.351 5.293-15.795 4.435-21.09-1.915l40.662-33.886h6.003z" fill="#E4A77F"/><path d="M125.815 31.007l-3.154 17.118-22.419 18.683C93.89 72.1 84.446 71.243 79.15 64.893l40.662-33.886h6.003z" fill="#E4A77F"/><path d="M203.332 27.752L167.005 5.88l-24.29 24.794s-33.626 0-35.517.034c-3.059-.034-4.893 1.968-4.893 1.968L63.803 64.893c5.297 6.35 14.738 7.208 21.092 1.915l22.413-18.679 35.211.013v.049c1.503.202 2.658 1.364 2.663 2.773L124 51.09c-4.038 0-7.314 3.366-7.362 7.538h-.004l.002.056-.002.035h.004c.047 4.172 3.324 7.538 7.362 7.538l35.19-.035v-.042c1.432-.154 3.673-.694 6.2-2.393 12.364-11.645 37.942-36.034 37.942-36.034" fill="#F6BF93"/><path d="M127.338 53.428h-2.903c-2.801 0-5.074 2.337-5.107 5.23h-.001v.065h.002c.032 2.893 2.305 5.23 5.107 5.23h2.902V53.427z" fill="#F4E8DE"/></g></svg>