<?xml version="1.0" encoding="UTF-8" standalone="no"?>
<svg width="279px" height="279px" viewBox="0 0 279 279" version="1.1" xmlns="http://www.w3.org/2000/svg" xmlns:xlink="http://www.w3.org/1999/xlink">
    <!-- Generator: sketchtool 40.1 (33804) - http://www.bohemiancoding.com/sketch -->
    <title>ACA89E92-80B0-4BE7-8A94-5787DA1D5AB9</title>
    <desc>Created with sketchtool.</desc>
    <defs>
        <polygon id="path-1" points="0 0.245367241 0 75.1980655 48.2718752 75.1980655 48.2718752 0.245367241 2.13351665e-20 0.245367241"></polygon>
        <polygon id="path-3" points="71.0363198 0.233482759 0.12179505 0.233482759 0.12179505 26.456594 71.0363198 26.456594 71.0363198 0.233482759"></polygon>
    </defs>
    <g id="Page-1" stroke="none" stroke-width="1" fill="none" fill-rule="evenodd">
        <g id="cancer-sign" transform="translate(-67.000000, -69.000000)">
            <g id="Ilustras" transform="translate(67.000000, 69.000000)">
                <circle id="Oval" fill="#F3F3F3" cx="131" cy="136" r="97"></circle>
                <g id="Page-1" transform="translate(79.000000, 47.000000)">
                    <path d="M14.4460683,43.3713681 C14.2025832,38.9083767 15.2898703,31.3932819 17.4382069,26.7488681 C21.0668703,24.1043078 26.2708406,21.9046267 32.4996525,20.3780491 C39.0212762,71.6664284 105.791306,148.05473 105.791306,148.05473 L81.8106426,153.531058 L81.1268901,182.766359 C81.1268901,182.766359 15.9610287,71.1263681 14.4460683,43.3713681" id="Fill-1" fill="#FF4998"></path>
                    <g id="Group-5" transform="translate(0.000000, 107.568241)">
                        <mask id="mask-2" fill="white">
                            <use xlink:href="#path-1"></use>
                        </mask>
                        <g id="Clip-4"></g>
                        <path d="M31.1691426,0.245367241 C14.8147069,23.5357983 -0.000104950495,40.4864362 -0.000104950495,40.4864362 L20.1519644,45.6998328 L24.6643109,75.1980655 C24.6643109,75.1980655 35.4080931,56.7923672 48.2718752,33.0702034 C45.9335782,28.7302638 43.5459545,24.249919 41.1583307,19.7043672 C37.4441327,12.6320483 34.1292713,6.16447069 31.1691426,0.245367241" id="Fill-3" fill="#FF418D" mask="url(#mask-2)"></path>
                    </g>
                    <path d="M91.345395,43.3713681 C91.5888802,38.9083767 90.5015931,31.3932819 88.3527317,26.7488681 C84.7245931,24.1043078 79.5206228,21.9046267 73.2918109,20.3780491 C71.5417614,34.1424888 65.4493851,49.7137905 57.4757713,65.1320664 C62.3601673,74.1984543 67.8700683,83.1938509 73.4670782,91.672325 C83.3046129,71.0911353 90.8416327,52.5970922 91.345395,43.3713681" id="Fill-6" fill="#FF418D"></path>
                    <g id="Group-10" transform="translate(17.316832, 0.292379)">
                        <mask id="mask-4" fill="white">
                            <use xlink:href="#path-3"></use>
                        </mask>
                        <g id="Clip-9"></g>
                        <path d="M65.9897752,17.1751284 C59.5316465,6.90030948 48.3911515,0.459550862 36.2756663,0.239740517 C36.0374287,0.235533621 35.8044386,0.233430172 35.578795,0.233430172 C35.3531515,0.233430172 35.1206861,0.235533621 34.8819238,0.239740517 C22.7664386,0.459550862 11.6259436,6.90030948 5.16781485,17.1751284 C3.21311188,20.2850767 1.52655743,23.4197405 0.12179505,26.456594 C3.74993366,23.8120336 8.95390396,21.6118267 15.1827158,20.085775 C21.1927059,18.6133612 28.1509238,17.7661974 35.578795,17.7661974 C43.0066663,17.7661974 49.9648842,18.6133612 55.9748743,20.085775 C62.2036861,21.6118267 67.4076564,23.8120336 71.0363198,26.456594 C69.6310327,23.4197405 67.9444782,20.2850767 65.9897752,17.1751284" id="Fill-8" fill="#FF418D" mask="url(#mask-4)"></path>
                    </g>
                </g>
            </g>
        </g>
    </g>
</svg>