<svg id="Layer_1" data-name="Layer 1" xmlns="http://www.w3.org/2000/svg" viewBox="0 0 350 280"><defs><style>.cls-1{fill:none}.cls-2{fill:#704693}.cls-3{clip-path:url(#clip-path)}.cls-4{fill:#a892c1}.cls-5{fill:#472f92}.cls-6{fill:#8566a5}.cls-7{fill:#55abdd}.cls-8{fill:#623f99}.cls-9{fill:#e4a77f}.cls-10{fill:#f5bf93}.cls-11{fill:#b44e44}.cls-12{fill:#fff}.cls-13{fill:#ee9a93}.cls-14{fill:#e46455}.cls-15{clip-path:url(#clip-path-2)}.cls-16{fill:#f2c2d0}.cls-17{fill:#f4e8de}</style><clipPath id="clip-path"><ellipse class="cls-1" cx="176.4" cy="144.3" rx="96.6" ry="96.9"/></clipPath><clipPath id="clip-path-2"><path class="cls-1" d="M145.8 138.2h15.1v12.43h-15.1z"/></clipPath></defs><title>product-home-section-about-icon</title><circle class="cls-2" cx="176.6" cy="144.8" r="96.9"/><g class="cls-3"><path class="cls-4" d="M233.2 124.3H258v48.78h-24.8z"/><path class="cls-5" d="M258.2 134.1H274v39.28h-15.8z"/><path class="cls-6" d="M231.9 115.4v-3.5h-11.3v3.5h-7.7v57.7h26.5v-57.7h-7.5z"/><path class="cls-2" d="M216.4 118.6h4.7v3.5h-4.7zM223.6 118.6h4.7v3.5h-4.7zM230.7 118.6h4.7v3.5h-4.7zM216.4 125.2h4.7v3.5h-4.7zM223.6 125.2h4.7v3.5h-4.7zM230.7 125.2h4.7v3.5h-4.7zM216.4 131.5h4.7v3.5h-4.7zM223.6 131.5h4.7v3.5h-4.7zM230.7 131.5h4.7v3.5h-4.7zM216.4 137.9h4.7v3.5h-4.7zM223.6 137.9h4.7v3.5h-4.7zM230.7 137.9h4.7v3.5h-4.7zM216.4 143.9h4.7v3.5h-4.7z"/><path class="cls-7" d="M251.1 143.9h3.6v3.5h-3.6zM256.5 143.9h3.6v3.5h-3.6z"/><ellipse class="cls-8" cx="245.3" cy="159.1" rx="9" ry="9"/><ellipse class="cls-8" cx="200" cy="166.1" rx="5.6" ry="5.6"/><ellipse class="cls-8" cx="260.4" cy="150.6" rx="12.3" ry="12.4"/><path class="cls-8" d="M218.7 175.5a5.6 5.6 0 1 1-.1-7.9 5.6 5.6 0 0 1 .1 7.9z"/><path class="cls-6" d="M208.8 175.6a4.5 4.5 0 1 1-.1-6.4 4.5 4.5 0 0 1 .1 6.4z"/><path class="cls-2" d="M229 160.7h30.7v12.93H229z"/><path class="cls-5" d="M228.5 159.8h31.6v.99h-31.6zM232.7 162.2h2.7v2.92h-2.7zM238.1 162.2h2.7v2.92h-2.7zM254.6 162.2h2.7v2.92h-2.7zM249.1 162.2h2.7v2.92h-2.7zM243.6 162.2h2.7v2.92h-2.7zM243 167.7h4v6h-4zM232.7 167.5h2.7v2.92h-2.7zM238.1 167.5h2.7v2.92h-2.7zM254.6 167.5h2.7v2.92h-2.7zM249.1 167.5h2.7v2.92h-2.7z"/><path class="cls-4" d="M154.3 119.1h15.3v51.15h-15.3z"/><path class="cls-5" d="M185.1 122.8h18.2v47.82h-18.2zM98.2 121.4v-7.6H81.1v7.6h-7v49.4h27.4v-49.4h-3.3z"/><path class="cls-6" d="M77.9 125.4H82v6.61h-4.1zM77.9 136.3H82v6.61h-4.1zM77.9 146.7H82v6.61h-4.1zM86.1 125.4h4.1v6.61h-4.1zM86.1 136.3h4.1v6.61h-4.1zM86.1 146.7h4.1v6.61h-4.1zM94.1 125.4h4.1v6.61h-4.1zM94.1 136.3h4.1v6.61h-4.1zM94.1 146.7h4.1v6.61h-4.1z"/><path class="cls-7" d="M175.8 134.8h4.4v4.26h-4.4zM182.3 134.8h4.4v4.26h-4.4z"/><ellipse class="cls-5" cx="104.8" cy="158.5" rx="10" ry="10.2"/><path class="cls-4" d="M108.2 153.4h2v11.72h-2z"/><ellipse class="cls-8" cx="187" cy="142.9" rx="14.8" ry="15.1"/><ellipse class="cls-6" cx="80.5" cy="166.7" rx="7.4" ry="7.5"/><ellipse class="cls-2" cx="107.3" cy="169.2" rx="5.4" ry="5.5"/><path class="cls-8" d="M135.1 173.7a9.2 9.2 0 0 1-13.1.2 9.6 9.6 0 0 1-.2-13.4 9.2 9.2 0 0 1 13.1-.2 9.6 9.6 0 0 1 .2 13.4z"/><ellipse class="cls-4" cx="108.7" cy="148" rx="8" ry="8.1"/><path class="cls-2" d="M120.3 173a7.3 7.3 0 0 1-10.5.1 7.6 7.6 0 0 1-.1-10.6 7.3 7.3 0 0 1 10.5-.1 7.6 7.6 0 0 1 .1 10.6z"/><ellipse class="cls-2" cx="95.8" cy="165.2" rx="10.3" ry="10.5"/><path class="cls-6" d="M170.5 155.3h34v15.75h-34z"/><path class="cls-5" d="M167.5 154.1h37.9v1.2h-37.9zM174.7 157h3v3.55h-3zM180.8 157h3v3.55h-3zM199.2 157h3v3.55h-3zM193.1 157h3v3.55h-3zM187 157h3v3.55h-3zM186.2 163.7h4.4v7.3h-4.4zM174.7 163.4h3v3.55h-3zM180.8 163.4h3v3.55h-3zM199.2 163.4h3v3.55h-3zM193.1 163.4h3v3.55h-3z"/><path class="cls-6" d="M102.4 107.4a3 3 0 0 0-.9 2.1H115a3 3 0 0 0-3-3h-7.5a3 3 0 0 0-2.1.9"/><path class="cls-6" d="M110.5 107.4a3 3 0 0 0-.9 2.1h13.5a3 3 0 0 0-3-3h-7.5a3 3 0 0 0-2.1.9M105.7 104.4a3 3 0 0 0-.9 2.1h13.5a3 3 0 0 0-3-3h-7.5a3 3 0 0 0-2.1.9"/><path class="cls-6" d="M123.5 108.5a1.5 1.5 0 0 0-.4 1.1h3a1.5 1.5 0 0 0-1.5-1.5 1.5 1.5 0 0 0-1.1.4M113 105.5a1.5 1.5 0 0 0-.4 1.1h3a1.5 1.5 0 0 0-1.5-1.5 1.5 1.5 0 0 0-1.1.4M122 118.4a6.5 6.5 0 0 0-6.5 6.5v16.5a6.5 6.5 0 0 0 6.5 6.5 6.5 6.5 0 0 0 6.5-6.5V125a6.5 6.5 0 0 0-6.5-6.6z"/><ellipse class="cls-5" cx="124.1" cy="152.7" rx="13.1" ry="13.2"/></g><path class="cls-9" d="M153.4 204.2l3.6-19.4 25.4-21.2a17 17 0 0 1 23.9 2.2l-46.1 38.4h-6.8z"/><path class="cls-9" d="M176.1 204.2l3.6-19.4 25.4-21.2a17 17 0 0 1 23.9 2.2l-46.1 38.4h-6.8z"/><path class="cls-10" d="M177.6 164.3c0 9.6-7.3 17.3-16.3 17.3h-13.4c-9 0-9.7-7.7-9.7-17.3h39.4z"/><path class="cls-11" d="M211.7 129c1.4 1.6.8 2.9-1.3 2.9h-35a9.4 9.4 0 0 1-6.3-2.9l-22.5-23.5c-1.4-1.6-1.9-1.8.2-1.8l42.7-1.6c2.1 0 5.5-.4 6.7 2z"/><path class="cls-12" d="M191.5 106.2l15.6 23.4-.1 40.8h-33.6v-39.9"/><path class="cls-13" d="M132.9 130.5h40.6v40.04h-40.6z"/><rect class="cls-14" x="182.9" y="136.8" width="17.7" height="33.52" rx="1.2" ry="1.2"/><path class="cls-14" d="M126.8 128.8c-1.4 1.6-.8 2.8 1.3 2.8h42.8c2.1 0 4.9-.5 6.2-2.8l15.6-22.8c1.4-1.6.8-2.8-1.3-2.8h-41.5c-2.1 0-3 1.4-4.4 3z"/><path class="cls-12" d="M144.7 137.2H162v14.32h-17.3z"/><path class="cls-14" d="M145.8 138.2h15.1v12.38h-15.1z"/><g class="cls-15"><path class="cls-16" d="M163.1 154.9l-5.5 5.4-13.2-23.5 5.4-5.4 13.3 23.5z"/></g><path class="cls-12" d="M143.6 150.7h19.3v1.38h-19.3z"/><path class="cls-11" d="M194.9 104.3a2.2 2.2 0 0 1-2.1 2.2h-46a2.2 2.2 0 0 1-2.1-2.2 2.2 2.2 0 0 1 2.1-2.2h46.1a2.2 2.2 0 0 1 2.1 2.2z"/><path class="cls-12" d="M199.4 152a.5.5 0 0 1-.5.5h-3a.5.5 0 0 1-.5-.5.5.5 0 0 1 .5-.5h3a.5.5 0 0 1 .5.5zM213.8 170.8v-1.1c0-2.1-2.2-3.7-4.9-3.7h-78c-2.7 0-4.9 1.7-4.9 3.7v1.1h87.8z"/><path class="cls-10" d="M117.8 181.5c5.9-11.3 9-17.2 18.7-17.2h10.8c9.1 0 8.8 7.6 9.7 17.3h-2.9a3.3 3.3 0 0 0 3 3.2v1.2c0 10.7-8 19.5-17.8 19.5h-9.1c-9.8 0-19.8 2.2-19.8-8.5z"/><path class="cls-10" d="M116.7 184.5l80.4.3 25.4-21.2a17 17 0 0 1 23.9 2.2l-43.7 36.5a7.9 7.9 0 0 1-5.5 2.2h-40.3L100.2 237l-27.6-31z"/><path class="cls-10" d="M149.1 172.8a8.5 8.5 0 0 1 8.3-8.5H178a8.5 8.5 0 0 1 8.3 8.5 8.5 8.5 0 0 1-8.3 8.6h-20.5a8.5 8.5 0 0 1-8.3-8.6z"/><path class="cls-17" d="M175.5 178.4h3.3a5.9 5.9 0 0 0 5.8-5.9 5.9 5.9 0 0 0-5.8-5.9h-3.3v11.9z"/><path class="cls-9" d="M210.1 55.2l-3.6 19.4-25.4 21.2a17 17 0 0 1-23.9-2.2l46.1-38.4h6.8z"/><path class="cls-9" d="M187.4 55.2l-3.6 19.4-25.4 21.2a17 17 0 0 1-23.9-2.2l46.1-38.4h6.8z"/><path class="cls-10" d="M275.3 51.5l-41.2-24.8-27.6 28.1h-40.3a7.9 7.9 0 0 0-5.5 2.2L117 93.6a17 17 0 0 0 24 2.2l25.4-21.2h39.9a3.3 3.3 0 0 1 3 3.1h-24a8.5 8.5 0 0 0-8.3 8.5 8.5 8.5 0 0 0 8.3 8.5h39.9a15.7 15.7 0 0 0 7-2.7c14.1-12.8 43.1-40.5 43.1-40.5z"/><path class="cls-17" d="M189.1 80.6h-3.3a5.9 5.9 0 0 0-5.8 5.9 5.9 5.9 0 0 0 5.8 5.9h3.3V80.6z"/><path class="cls-12" d="M152.9 137.5h1.1v13.83h-1.1z"/><circle class="cls-12" cx="198.6" cy="152.2" r=".9"/><circle class="cls-2" cx="176.6" cy="144.8" r="96.9"/><g class="cls-3"><path class="cls-4" d="M233.2 124.3H258v48.78h-24.8z"/><path class="cls-5" d="M258.2 134.1H274v39.28h-15.8z"/><path class="cls-6" d="M231.9 115.4v-3.5h-11.3v3.5h-7.7v57.7h26.5v-57.7h-7.5z"/><path class="cls-2" d="M216.4 118.6h4.7v3.5h-4.7zM223.6 118.6h4.7v3.5h-4.7zM230.7 118.6h4.7v3.5h-4.7zM216.4 125.2h4.7v3.5h-4.7zM223.6 125.2h4.7v3.5h-4.7zM230.7 125.2h4.7v3.5h-4.7zM216.4 131.5h4.7v3.5h-4.7zM223.6 131.5h4.7v3.5h-4.7zM230.7 131.5h4.7v3.5h-4.7zM216.4 137.9h4.7v3.5h-4.7zM223.6 137.9h4.7v3.5h-4.7zM230.7 137.9h4.7v3.5h-4.7zM216.4 143.9h4.7v3.5h-4.7z"/><path class="cls-7" d="M251.1 143.9h3.6v3.5h-3.6zM256.5 143.9h3.6v3.5h-3.6z"/><ellipse class="cls-8" cx="245.3" cy="159.1" rx="9" ry="9"/><ellipse class="cls-8" cx="200" cy="166.1" rx="5.6" ry="5.6"/><ellipse class="cls-8" cx="260.4" cy="150.6" rx="12.3" ry="12.4"/><path class="cls-8" d="M218.7 175.5a5.6 5.6 0 1 1-.1-7.9 5.6 5.6 0 0 1 .1 7.9z"/><path class="cls-6" d="M208.8 175.6a4.5 4.5 0 1 1-.1-6.4 4.5 4.5 0 0 1 .1 6.4z"/><path class="cls-2" d="M229 160.7h30.7v12.93H229z"/><path class="cls-5" d="M228.5 159.8h31.6v.99h-31.6zM232.7 162.2h2.7v2.92h-2.7zM238.1 162.2h2.7v2.92h-2.7zM254.6 162.2h2.7v2.92h-2.7zM249.1 162.2h2.7v2.92h-2.7zM243.6 162.2h2.7v2.92h-2.7zM243 167.7h4v6h-4zM232.7 167.5h2.7v2.92h-2.7zM238.1 167.5h2.7v2.92h-2.7zM254.6 167.5h2.7v2.92h-2.7zM249.1 167.5h2.7v2.92h-2.7z"/><path class="cls-4" d="M154.3 119.1h15.3v51.15h-15.3z"/><path class="cls-5" d="M185.1 122.8h18.2v47.82h-18.2zM98.2 121.4v-7.6H81.1v7.6h-7v49.4h27.4v-49.4h-3.3z"/><path class="cls-6" d="M77.9 125.4H82v6.61h-4.1zM77.9 136.3H82v6.61h-4.1zM77.9 146.7H82v6.61h-4.1zM86.1 125.4h4.1v6.61h-4.1zM86.1 136.3h4.1v6.61h-4.1zM86.1 146.7h4.1v6.61h-4.1zM94.1 125.4h4.1v6.61h-4.1zM94.1 136.3h4.1v6.61h-4.1zM94.1 146.7h4.1v6.61h-4.1z"/><path class="cls-7" d="M175.8 134.8h4.4v4.26h-4.4zM182.3 134.8h4.4v4.26h-4.4z"/><ellipse class="cls-5" cx="104.8" cy="158.5" rx="10" ry="10.2"/><path class="cls-4" d="M108.2 153.4h2v11.72h-2z"/><ellipse class="cls-8" cx="187" cy="142.9" rx="14.8" ry="15.1"/><ellipse class="cls-6" cx="80.5" cy="166.7" rx="7.4" ry="7.5"/><ellipse class="cls-2" cx="107.3" cy="169.2" rx="5.4" ry="5.5"/><path class="cls-8" d="M135.1 173.7a9.2 9.2 0 0 1-13.1.2 9.6 9.6 0 0 1-.2-13.4 9.2 9.2 0 0 1 13.1-.2 9.6 9.6 0 0 1 .2 13.4z"/><ellipse class="cls-4" cx="108.7" cy="148" rx="8" ry="8.1"/><path class="cls-2" d="M120.3 173a7.3 7.3 0 0 1-10.5.1 7.6 7.6 0 0 1-.1-10.6 7.3 7.3 0 0 1 10.5-.1 7.6 7.6 0 0 1 .1 10.6z"/><ellipse class="cls-2" cx="95.8" cy="165.2" rx="10.3" ry="10.5"/><path class="cls-6" d="M170.5 155.3h34v15.75h-34z"/><path class="cls-5" d="M167.5 154.1h37.9v1.2h-37.9zM174.7 157h3v3.55h-3zM180.8 157h3v3.55h-3zM199.2 157h3v3.55h-3zM193.1 157h3v3.55h-3zM187 157h3v3.55h-3zM186.2 163.7h4.4v7.3h-4.4zM174.7 163.4h3v3.55h-3zM180.8 163.4h3v3.55h-3zM199.2 163.4h3v3.55h-3zM193.1 163.4h3v3.55h-3z"/><path class="cls-6" d="M102.4 107.4a3 3 0 0 0-.9 2.1H115a3 3 0 0 0-3-3h-7.5a3 3 0 0 0-2.1.9"/><path class="cls-6" d="M110.5 107.4a3 3 0 0 0-.9 2.1h13.5a3 3 0 0 0-3-3h-7.5a3 3 0 0 0-2.1.9M105.7 104.4a3 3 0 0 0-.9 2.1h13.5a3 3 0 0 0-3-3h-7.5a3 3 0 0 0-2.1.9"/><path class="cls-6" d="M123.5 108.5a1.5 1.5 0 0 0-.4 1.1h3a1.5 1.5 0 0 0-1.5-1.5 1.5 1.5 0 0 0-1.1.4M113 105.5a1.5 1.5 0 0 0-.4 1.1h3a1.5 1.5 0 0 0-1.5-1.5 1.5 1.5 0 0 0-1.1.4M122 118.4a6.5 6.5 0 0 0-6.5 6.5v16.5a6.5 6.5 0 0 0 6.5 6.5 6.5 6.5 0 0 0 6.5-6.5V125a6.5 6.5 0 0 0-6.5-6.6z"/><ellipse class="cls-5" cx="124.1" cy="152.7" rx="13.1" ry="13.2"/></g><path class="cls-9" d="M153.4 204.2l3.6-19.4 25.4-21.2a17 17 0 0 1 23.9 2.2l-46.1 38.4h-6.8z"/><path class="cls-9" d="M176.1 204.2l3.6-19.4 25.4-21.2a17 17 0 0 1 23.9 2.2l-46.1 38.4h-6.8z"/><path class="cls-10" d="M177.6 164.3c0 9.6-7.3 17.3-16.3 17.3h-13.4c-9 0-9.7-7.7-9.7-17.3h39.4z"/><path class="cls-11" d="M211.7 129c1.4 1.6.8 2.9-1.3 2.9h-35a9.4 9.4 0 0 1-6.3-2.9l-22.5-23.5c-1.4-1.6-1.9-1.8.2-1.8l42.7-1.6c2.1 0 5.5-.4 6.7 2z"/><path class="cls-12" d="M191.5 106.2l15.6 23.4-.1 40.8h-33.6v-39.9"/><path class="cls-13" d="M132.9 130.5h40.6v40.04h-40.6z"/><rect class="cls-14" x="182.9" y="136.8" width="17.7" height="33.52" rx="1.2" ry="1.2"/><path class="cls-14" d="M126.8 128.8c-1.4 1.6-.8 2.8 1.3 2.8h42.8c2.1 0 4.9-.5 6.2-2.8l15.6-22.8c1.4-1.6.8-2.8-1.3-2.8h-41.5c-2.1 0-3 1.4-4.4 3z"/><path class="cls-12" d="M144.7 137.2H162v14.32h-17.3z"/><path class="cls-14" d="M145.8 138.2h15.1v12.38h-15.1z"/><g class="cls-15"><path class="cls-16" d="M163.1 154.9l-5.5 5.4-13.2-23.5 5.4-5.4 13.3 23.5z"/></g><path class="cls-12" d="M143.6 150.7h19.3v1.38h-19.3z"/><path class="cls-11" d="M194.9 104.3a2.2 2.2 0 0 1-2.1 2.2h-46a2.2 2.2 0 0 1-2.1-2.2 2.2 2.2 0 0 1 2.1-2.2h46.1a2.2 2.2 0 0 1 2.1 2.2z"/><path class="cls-12" d="M199.4 152a.5.5 0 0 1-.5.5h-3a.5.5 0 0 1-.5-.5.5.5 0 0 1 .5-.5h3a.5.5 0 0 1 .5.5zM213.8 170.8v-1.1c0-2.1-2.2-3.7-4.9-3.7h-78c-2.7 0-4.9 1.7-4.9 3.7v1.1h87.8z"/><path class="cls-10" d="M117.8 181.5c5.9-11.3 9-17.2 18.7-17.2h10.8c9.1 0 8.8 7.6 9.7 17.3h-2.9a3.3 3.3 0 0 0 3 3.2v1.2c0 10.7-8 19.5-17.8 19.5h-9.1c-9.8 0-19.8 2.2-19.8-8.5z"/><path class="cls-10" d="M116.7 184.5l80.4.3 25.4-21.2a17 17 0 0 1 23.9 2.2l-43.7 36.5a7.9 7.9 0 0 1-5.5 2.2h-40.3L100.2 237l-27.6-31z"/><path class="cls-10" d="M149.1 172.8a8.5 8.5 0 0 1 8.3-8.5H178a8.5 8.5 0 0 1 8.3 8.5 8.5 8.5 0 0 1-8.3 8.6h-20.5a8.5 8.5 0 0 1-8.3-8.6z"/><path class="cls-17" d="M175.5 178.4h3.3a5.9 5.9 0 0 0 5.8-5.9 5.9 5.9 0 0 0-5.8-5.9h-3.3v11.9z"/><path class="cls-9" d="M210.1 55.2l-3.6 19.4-25.4 21.2a17 17 0 0 1-23.9-2.2l46.1-38.4h6.8z"/><path class="cls-9" d="M187.4 55.2l-3.6 19.4-25.4 21.2a17 17 0 0 1-23.9-2.2l46.1-38.4h6.8z"/><path class="cls-10" d="M275.3 51.5l-41.2-24.8-27.6 28.1h-40.3a7.9 7.9 0 0 0-5.5 2.2L117 93.6a17 17 0 0 0 24 2.2l25.4-21.2h39.9a3.3 3.3 0 0 1 3 3.1h-24a8.5 8.5 0 0 0-8.3 8.5 8.5 8.5 0 0 0 8.3 8.5h39.9a15.7 15.7 0 0 0 7-2.7c14.1-12.8 43.1-40.5 43.1-40.5z"/><path class="cls-17" d="M189.1 80.6h-3.3a5.9 5.9 0 0 0-5.8 5.9 5.9 5.9 0 0 0 5.8 5.9h3.3V80.6z"/><path class="cls-12" d="M152.9 137.5h1.1v13.83h-1.1z"/><circle class="cls-12" cx="198.6" cy="152.2" r=".9"/></svg>