<?xml version="1.0" encoding="UTF-8" standalone="no"?>
<svg width="279px" height="279px" viewBox="0 0 279 279" version="1.1" xmlns="http://www.w3.org/2000/svg" xmlns:xlink="http://www.w3.org/1999/xlink">
    <!-- Generator: sketchtool 40.1 (33804) - http://www.bohemiancoding.com/sketch -->
    <title>E16A1257-86DF-44CD-ADFB-5DA14E069CFF</title>
    <desc>Created with sketchtool.</desc>
    <defs>
        <path d="M215.792144,107.750767 C215.792144,167.193698 167.526944,215.380316 107.987511,215.380316 C48.4492889,215.380316 0.182877778,167.193698 0.182877778,107.750767 C0.182877778,48.3090486 48.4492889,0.121218098 107.987511,0.121218098 C167.526944,0.121218098 215.792144,48.3090486 215.792144,107.750767 L215.792144,107.750767 Z" id="path-1"></path>
        <path d="M215.792144,107.750767 C215.792144,167.193698 167.526944,215.380316 107.987511,215.380316 C48.4492889,215.380316 0.182877778,167.193698 0.182877778,107.750767 C0.182877778,48.3090486 48.4492889,0.121218098 107.987511,0.121218098 C167.526944,0.121218098 215.792144,48.3090486 215.792144,107.750767 L215.792144,107.750767 Z" id="path-3"></path>
    </defs>
    <g id="Page-1" stroke="none" stroke-width="1" fill="none" fill-rule="evenodd">
        <g id="Home--cancer-opt2" transform="translate(-465.000000, -69.000000)">
            <g id="Ilustras" transform="translate(67.000000, 69.000000)">
                <g id="ilustra-2" transform="translate(424.000000, 21.000000)">
                    <path d="M217.153191,124.519704 C217.153191,184.266892 168.760824,232.702008 109.066369,232.702008 C49.3731244,232.702008 0.980757778,184.266892 0.980757778,124.519704 C0.980757778,64.7725158 49.3731244,16.3374004 109.066369,16.3374004 C168.760824,16.3374004 217.153191,64.7725158 217.153191,124.519704" id="Fill-1" fill="#E56EA0"></path>
                    <g id="Group-65" transform="translate(1.211111, 17.300236)">
                        <g id="Group-5">
                            <mask id="mask-2" fill="white">
                                <use xlink:href="#path-1"></use>
                            </mask>
                            <g id="Clip-4"></g>
                            <path d="M285.686457,126.572423 C285.686457,222.697162 207.63519,300.621004 111.354279,300.621004 C15.0733678,300.621004 -62.9778989,222.697162 -62.9778989,126.572423 C-62.9778989,30.4476831 15.0733678,-47.476159 111.354279,-47.476159 C207.63519,-47.476159 285.686457,30.4476831 285.686457,126.572423" id="Fill-3" fill="#E672A4" mask="url(#mask-2)"></path>
                        </g>
                        <mask id="mask-4" fill="white">
                            <use xlink:href="#path-3"></use>
                        </mask>
                        <g id="Clip-7"></g>
                        <polygon id="Fill-6" fill="#ED9FC1" mask="url(#mask-4)" points="-0.525622222 170.986612 24.3857222 170.986612 24.3857222 135.473346 -0.525622222 135.473346"></polygon>
                        <polygon id="Fill-8" fill="#ED9FC1" mask="url(#mask-4)" points="-0.526833333 138.792298 12.6028222 138.792298 12.6028222 117.883388 -0.526833333 117.883388"></polygon>
                        <path d="M205.558498,120.73371 L205.634798,120.73371 L205.065576,120.73371 C199.345498,120.73371 191.96862,123.787194 191.96862,128.168016 L191.96862,143.03178 C191.96862,147.412602 199.461764,149.826054 205.180631,149.826054 L205.600887,149.826054 L205.426487,149.826054 C211.145353,149.826054 214.979731,147.412602 214.979731,143.03178 L214.979731,128.168016 C214.979731,123.787194 211.278576,120.73371 205.558498,120.73371" id="Fill-9" fill="#E14A82" mask="url(#mask-4)"></path>
                        <path d="M141.471584,65.6238417 C142.42594,66.576616 143.015751,67.8930445 143.015751,69.3464495 L119.166551,69.3464495 C119.166551,66.4396395 121.528218,64.0819475 124.438518,64.0819475 L137.742573,64.0819475 C139.19954,64.0819475 140.517229,64.6710675 141.471584,65.6238417" id="Fill-10" fill="#FEFEFE" mask="url(#mask-4)"></path>
                        <path d="M149.933981,60.3594609 C150.888337,61.3122352 151.478148,62.6286637 151.478148,64.0820687 L127.628948,64.0820687 C127.628948,61.1752587 129.990614,58.8175667 132.900914,58.8175667 L146.20497,58.8175667 C147.661937,58.8175667 148.979626,59.4066867 149.933981,60.3594609" id="Fill-11" fill="#FEFEFE" mask="url(#mask-4)"></path>
                        <path d="M118.394226,67.4851456 C118.871403,67.9615327 119.166914,68.619747 119.166914,69.3458434 L113.893737,69.3458434 C113.893737,67.8924384 115.07457,66.7141985 116.529114,66.7141985 C117.258203,66.7141985 117.917048,67.0087585 118.394226,67.4851456" id="Fill-12" fill="#FEFEFE" mask="url(#mask-4)"></path>
                        <path d="M155.537187,62.3316794 C156.014364,62.8080665 156.309876,63.4662808 156.309876,64.1923772 L151.036698,64.1923772 C151.036698,62.7389722 152.217531,61.5607323 153.672076,61.5607323 C154.401164,61.5607323 155.060009,61.8552923 155.537187,62.3316794" id="Fill-13" fill="#FEFEFE" mask="url(#mask-4)"></path>
                        <path d="M136.970006,62.2207648 C137.447183,62.6971519 137.742694,63.3553662 137.742694,64.0814626 L132.469517,64.0814626 C132.469517,62.6280576 133.65035,61.4498177 135.104894,61.4498177 C135.833983,61.4498177 136.492828,61.7443777 136.970006,62.2207648" id="Fill-14" fill="#E14A82" mask="url(#mask-4)"></path>
                        <path d="M49.5085267,78.5495699 C50.1080267,79.1471752 50.4774156,79.9738826 50.4774156,80.8854427 L35.5105044,80.8854427 C35.5105044,79.0611103 36.9916933,77.5822495 38.81926,77.5822495 L47.1674489,77.5822495 C48.0818378,77.5822495 48.9102378,77.9519647 49.5085267,78.5495699" id="Fill-15" fill="#FEFEFE" mask="url(#mask-4)"></path>
                        <path d="M43.3735222,75.2456495 C43.9730222,75.8432547 44.3424111,76.6699621 44.3424111,77.5815222 L29.3755,77.5815222 C29.3755,75.7571898 30.8566889,74.278329 32.6842556,74.278329 L41.0324444,74.278329 C41.9468333,74.278329 42.7752333,74.6480442 43.3735222,75.2456495" id="Fill-16" fill="#FEFEFE" mask="url(#mask-4)"></path>
                        <path d="M35.0256967,79.7176275 C35.3248411,80.0170362 35.5101411,80.4291778 35.5101411,80.88617 L32.2013856,80.88617 C32.2013856,79.9733977 32.9425856,79.2339673 33.8557633,79.2339673 C34.3123522,79.2339673 34.7265522,79.4182188 35.0256967,79.7176275" id="Fill-17" fill="#FEFEFE" mask="url(#mask-4)"></path>
                        <path d="M46.6834889,76.4138283 C46.9826333,76.713237 47.1679333,77.1253785 47.1679333,77.5823707 L43.8591778,77.5823707 C43.8591778,76.6695984 44.6003778,75.9301681 45.5135556,75.9301681 C45.9701444,75.9301681 46.3843444,76.1144196 46.6834889,76.4138283" id="Fill-18" fill="#FEFEFE" mask="url(#mask-4)"></path>
                        <path d="M208.512761,99.4242961 C209.044439,99.9552314 209.373861,100.688601 209.373861,101.49955 L196.077072,101.49955 C196.077072,99.878864 197.394761,98.5648598 199.01765,98.5648598 L206.433283,98.5648598 C207.245939,98.5648598 207.981083,98.8933609 208.512761,99.4242961" id="Fill-19" fill="#FEFEFE" mask="url(#mask-4)"></path>
                        <path d="M203.062882,96.4893636 C203.59456,97.0202988 203.923982,97.7536683 203.923982,98.5646174 L190.627193,98.5646174 C190.627193,96.9439314 191.944882,95.6299272 193.567771,95.6299272 L200.983404,95.6299272 C201.79606,95.6299272 202.531204,95.9584283 203.062882,96.4893636" id="Fill-20" fill="#FEFEFE" mask="url(#mask-4)"></path>
                        <path d="M195.647128,100.461923 C195.913572,100.727391 196.077072,101.094682 196.077072,101.49955 L193.137706,101.49955 C193.137706,100.688601 193.79655,100.031599 194.607994,100.031599 C195.013717,100.031599 195.380683,100.196455 195.647128,100.461923" id="Fill-21" fill="#FEFEFE" mask="url(#mask-4)"></path>
                        <path d="M204.319894,97.5271117 C204.586339,97.7925793 204.749839,98.1598702 204.749839,98.5647386 L201.810472,98.5647386 C201.810472,97.7537895 202.469317,97.0967874 203.280761,97.0967874 C203.686483,97.0967874 204.05345,97.2616441 204.319894,97.5271117" id="Fill-22" fill="#FEFEFE" mask="url(#mask-4)"></path>
                        <path d="M88.3828922,43.8128269 C89.1604256,44.5886227 89.6412367,45.6601907 89.6412367,46.8444915 L70.2162256,46.8444915 C70.2162256,44.4771021 72.13947,42.5570074 74.5108256,42.5570074 L85.3454256,42.5570074 C86.5323144,42.5570074 87.6053589,43.0370311 88.3828922,43.8128269" id="Fill-23" fill="#FEFEFE" mask="url(#mask-4)"></path>
                        <path d="M80.4209267,39.5252216 C81.19846,40.3010174 81.67806,41.3725854 81.67806,42.5568862 L62.25426,42.5568862 C62.25426,40.1894967 64.1775044,38.2694021 66.54886,38.2694021 L77.38346,38.2694021 C78.5703489,38.2694021 79.6433933,38.7494257 80.4209267,39.5252216" id="Fill-24" fill="#FEFEFE" mask="url(#mask-4)"></path>
                        <path d="M95.0088811,35.9401963 C95.7864144,36.7159921 96.2672256,37.7875601 96.2672256,38.9718609 L76.8422144,38.9718609 C76.8422144,36.6044715 78.7654589,34.6843768 81.1368144,34.6843768 L91.9714144,34.6843768 C93.1583033,34.6843768 94.2313478,35.1644005 95.0088811,35.9401963" id="Fill-25" fill="#FEFEFE" mask="url(#mask-4)"></path>
                        <path d="M69.5871744,45.3287804 C69.9759411,45.7166783 70.2157411,46.2524623 70.2157411,46.8452188 L65.9211411,46.8452188 C65.9211411,45.660918 66.8827633,44.7008707 68.0684411,44.7008707 C68.6618856,44.7008707 69.1984078,44.9408825 69.5871744,45.3287804" id="Fill-26" fill="#FEFEFE" mask="url(#mask-4)"></path>
                        <path d="M76.7493222,41.0411751 C77.1380889,41.429073 77.3778889,41.964857 77.3778889,42.5576135 L73.0832889,42.5576135 C73.0832889,41.3733127 74.0449111,40.4132653 75.2305889,40.4132653 C75.8240333,40.4132653 76.3605556,40.6532772 76.7493222,41.0411751" id="Fill-27" fill="#FEFEFE" mask="url(#mask-4)"></path>
                        <path d="M190.676122,100.126634 L190.584078,100.126634 L190.266767,100.126634 C184.5479,100.126634 178.646156,103.957126 178.646156,108.337948 L178.646156,123.201711 C178.646156,127.582533 184.579389,131.643339 190.298256,131.643339 L190.550167,131.643339 L190.627678,131.643339 C196.347756,131.643339 201.657267,127.582533 201.657267,123.201711 L201.657267,108.337948 C201.657267,103.957126 196.3962,100.126634 190.676122,100.126634" id="Fill-28" fill="#E14A82" mask="url(#mask-4)"></path>
                        <polygon id="Fill-29" fill="#E14A82" mask="url(#mask-4)" points="190.098422 170.818119 190.7718 170.818119 190.7718 124.100664 190.098422 124.100664"></polygon>
                        <path d="M191.968499,131.643339 L191.968499,132.882188 C191.968499,134.294379 194.417366,135.279882 193.002788,135.279882 L190.982654,135.279882 C190.925732,135.279882 190.757388,135.35625 189.546277,135.352613 L189.546277,136.024161 C190.757388,136.027798 190.925732,135.279882 190.982654,135.279882 L193.002788,135.279882 C194.789177,135.279882 194.390721,134.665306 194.390721,132.882188 L194.390721,131.643339 L191.968499,131.643339 Z" id="Fill-30" fill="#E14A82" mask="url(#mask-4)"></path>
                        <path d="M187.124054,126.794615 L187.124054,138.930971 C187.124054,140.344374 186.621443,140.128606 188.037232,140.128606 L190.056154,140.128606 C190.113077,140.128606 188.335166,141.405033 189.546277,141.402608 L189.546277,142.074157 C188.335166,142.076581 190.113077,140.128606 190.056154,140.128606 L188.037232,140.128606 C186.249632,140.128606 185.912943,140.715302 185.912943,138.930971 L185.912943,126.794615 L187.124054,126.794615 Z" id="Fill-31" fill="#E14A82" mask="url(#mask-4)"></path>
                        <path d="M178.834362,128.006796 L178.771384,128.006796 L178.410473,128.006796 C172.691607,128.006796 166.535529,131.181498 166.535529,135.56232 L166.535529,150.426084 C166.535529,154.806906 172.737629,157.09914 178.456496,157.09914 L178.737473,157.09914 L178.771384,157.09914 C184.491462,157.09914 188.335529,154.806906 188.335529,150.426084 L188.335529,135.56232 C188.335529,131.181498 184.55444,128.006796 178.834362,128.006796" id="Fill-32" fill="#ED9FC1" mask="url(#mask-4)"></path>
                        <polygon id="Fill-33" fill="#E14A82" mask="url(#mask-4)" points="178.568644 170.734479 179.242022 170.734479 179.242022 138.357125 178.568644 138.357125"></polygon>
                        <polygon id="Fill-34" fill="#E14A82" mask="url(#mask-4)" points="205.500122 170.593866 206.1735 170.593866 206.1735 128.609978 205.500122 128.609978"></polygon>
                        <polygon id="Fill-35" fill="#E14A82" mask="url(#mask-4)" points="205.290721 141.273511 201.619843 135.767785 200.974321 136.153259 205.290721 142.44569"></polygon>
                        <polygon id="Fill-36" fill="#E14A82" mask="url(#mask-4)" points="206.501832 135.896034 210.116999 130.390308 210.790377 130.775781 206.501832 137.068213"></polygon>
                        <polygon id="Fill-37" fill="#ED9FC1" mask="url(#mask-4)" points="81.6152033 97.7175453 81.6152033 138.385005 63.4364256 138.385005 63.4364256 170.650838 128.408903 170.650838 128.408903 142.417931 128.408903 138.385005 128.408903 97.7175453"></polygon>
                        <polygon id="Fill-38" fill="#ED9FC1" mask="url(#mask-4)" points="22.7022778 170.650838 65.6240556 170.650838 65.6240556 104.103315 22.7022778 104.103315"></polygon>
                        <polygon id="Fill-39" fill="#E14A82" mask="url(#mask-4)" points="22.7022778 170.986612 39.7026444 170.986612 39.7026444 103.936034 22.7022778 103.936034"></polygon>
                        <polygon id="Fill-40" fill="#E14A82" mask="url(#mask-4)" points="43.9427444 113.457715 48.5316444 113.457715 48.5316444 108.248974 43.9427444 108.248974"></polygon>
                        <polygon id="Fill-41" fill="#E14A82" mask="url(#mask-4)" points="57.0724 113.457715 61.6613 113.457715 61.6613 108.248974 57.0724 108.248974"></polygon>
                        <polygon id="Fill-42" fill="#E14A82" mask="url(#mask-4)" points="43.9427444 122.532102 48.5316444 122.532102 48.5316444 117.32336 43.9427444 117.32336"></polygon>
                        <polygon id="Fill-43" fill="#E14A82" mask="url(#mask-4)" points="57.0724 122.532102 61.6613 122.532102 61.6613 117.32336 57.0724 117.32336"></polygon>
                        <polygon id="Fill-44" fill="#E14A82" mask="url(#mask-4)" points="43.9427444 131.439208 48.5316444 131.439208 48.5316444 126.230466 43.9427444 126.230466"></polygon>
                        <polygon id="Fill-45" fill="#E14A82" mask="url(#mask-4)" points="57.0724 131.439208 61.6613 131.439208 61.6613 126.230466 57.0724 126.230466"></polygon>
                        <polygon id="Fill-46" fill="#E14A82" mask="url(#mask-4)" points="43.9427444 140.626328 48.5316444 140.626328 48.5316444 135.417586 43.9427444 135.417586"></polygon>
                        <polygon id="Fill-47" fill="#E14A82" mask="url(#mask-4)" points="57.0724 140.626328 61.6613 140.626328 61.6613 135.417586 57.0724 135.417586"></polygon>
                        <polygon id="Fill-48" fill="#E14A82" mask="url(#mask-4)" points="43.9427444 150.709249 48.5316444 150.709249 48.5316444 145.500507 43.9427444 145.500507"></polygon>
                        <polygon id="Fill-49" fill="#E14A82" mask="url(#mask-4)" points="57.0724 150.709249 61.6613 150.709249 61.6613 145.500507 57.0724 145.500507"></polygon>
                        <polygon id="Fill-50" fill="#E14A82" mask="url(#mask-4)" points="43.3493 166.422751 64.1368111 166.422751 64.1368111 155.542215 43.3493 155.542215"></polygon>
                        <path d="M48.1724289,160.735683 L49.9152178,160.735683 C49.9152178,160.735683 49.1279956,162.547893 48.1724289,162.547893 C47.2204956,162.547893 46.4344844,161.719974 46.42964,160.902964 L48.1724289,160.735683 Z" id="Fill-51" fill="#ED9FC1" mask="url(#mask-4)"></path>
                        <path d="M51.6551,160.735683 L53.3978889,160.735683 C53.3978889,160.735683 52.6106667,162.547893 51.6551,162.547893 C50.7031667,162.547893 49.9171556,161.719974 49.9123111,160.902964 L51.6551,160.735683 Z" id="Fill-52" fill="#E14A82" mask="url(#mask-4)"></path>
                        <path d="M55.1377711,160.735683 L56.88056,160.735683 C56.88056,160.735683 56.0933378,162.547893 55.1377711,162.547893 C54.1858378,162.547893 53.3998267,161.719974 53.3949822,160.902964 L55.1377711,160.735683 Z" id="Fill-53" fill="#ED9FC1" mask="url(#mask-4)"></path>
                        <path d="M58.6205633,160.735683 L60.3633522,160.735683 C60.3633522,160.735683 59.57613,162.547893 58.6205633,162.547893 C57.66863,162.547893 56.8826189,161.719974 56.8777744,160.902964 L58.6205633,160.735683 Z" id="Fill-54" fill="#E14A82" mask="url(#mask-4)"></path>
                        <path d="M62.1032344,160.735683 L63.8460233,160.735683 C63.8460233,160.735683 63.0588011,162.547893 62.1032344,162.547893 C61.1513011,162.547893 60.36529,161.719974 60.3604456,160.902964 L62.1032344,160.735683 Z" id="Fill-55" fill="#ED9FC1" mask="url(#mask-4)"></path>
                        <path d="M65.5859056,160.735683 L67.3286944,160.735683 C67.3286944,160.735683 66.5414722,162.547893 65.5859056,162.547893 C64.6339722,162.547893 63.8479611,161.719974 63.8431167,160.902964 L65.5859056,160.735683 Z" id="Fill-56" fill="#E14A82" mask="url(#mask-4)"></path>
                        <polygon id="Fill-57" fill="#ED9FC1" mask="url(#mask-4)" points="46.92014 155.526093 43.4345622 155.526093 46.4671844 161.579724 49.9527622 161.579724"></polygon>
                        <polygon id="Fill-58" fill="#E14A82" mask="url(#mask-4)" points="50.4173444 155.526093 46.9317667 155.526093 49.9643889 161.579724 53.4499667 161.579724"></polygon>
                        <polygon id="Fill-59" fill="#ED9FC1" mask="url(#mask-4)" points="53.8840289 155.526093 50.3984511 155.526093 53.4310733 161.579724 56.9166511 161.579724"></polygon>
                        <polygon id="Fill-60" fill="#E14A82" mask="url(#mask-4)" points="57.3812333 155.526093 53.8956556 155.526093 56.9282778 161.579724 60.4138556 161.579724"></polygon>
                        <polygon id="Fill-61" fill="#ED9FC1" mask="url(#mask-4)" points="60.8175189 155.526093 57.3319411 155.526093 60.3645633 161.579724 63.8501411 161.579724"></polygon>
                        <polygon id="Fill-62" fill="#E14A82" mask="url(#mask-4)" points="64.2690644 155.526093 60.7834867 155.526093 63.8161089 161.579724 67.3016867 161.579724"></polygon>
                        <path d="M43.2237078,104.097011 L43.2237078,104.06307 L66.5363856,104.06307 C66.5363856,102.946652 65.5953522,102.042365 64.4363189,102.042365 L23.9621967,102.042365 C22.8031633,102.042365 21.86213,102.946652 21.86213,104.06307 L21.86213,104.097011 L43.2237078,104.097011 Z" id="Fill-63" fill="#E14A82" mask="url(#mask-4)"></path>
                        <polygon id="Fill-64" fill="#E14A82" mask="url(#mask-4)" points="-5.23805556 245.599988 235.125111 245.599988 235.125111 170.650838 -5.23805556 170.650838"></polygon>
                    </g>
                    <path d="M182.155834,66.6144248 C178.90279,66.0859139 176.204434,65.6483166 176.204434,65.6483166 C175.672757,65.5719492 175.299734,65.0822281 175.369979,64.5488684 C175.389357,64.3961336 175.538323,64.1052102 175.757534,63.8870176 C175.977957,63.6676129 177.589946,62.0517756 177.589946,62.0517756 C177.589946,62.0517756 178.142212,61.4553826 179.269757,61.6020565 L182.748068,62.0554122 L182.155834,66.6144248 Z" id="Fill-66" fill="#FEFEFE"></path>
                    <path d="M143.838096,190.295796 C143.764218,187.993864 142.24064,186.138015 140.384007,186.138015 L121.553651,186.138015 C119.697018,186.138015 118.17344,187.993864 118.099562,190.295796 L143.838096,190.295796 Z" id="Fill-68" fill="#3A1A6F"></path>
                    <path d="M125.988377,46.4760986 L112.945921,45.2287643 C102.217899,44.2032592 94.2778544,34.5797544 95.3024544,23.8410431 L95.8619878,17.9874212 C96.8865878,7.24870987 106.50281,-0.697136454 117.230832,0.328368655 L130.273288,1.57570288 C141.00131,2.60120799 148.940143,12.2247128 147.915543,22.9622119 L147.357221,28.8182582 C146.332621,39.5557573 136.716399,47.5016037 125.988377,46.4760986" id="Fill-70" fill="#6C3B11"></path>
                    <path d="M123.215174,70.7027476 L94.6935078,63.7739211 C84.1701633,58.508207 83.1443522,57.6014956 81.4015633,50.7478243 C80.1068856,46.5136762 82.7858633,41.6007067 82.7858633,41.6007067 L95.9893967,16.6443246 C96.9437522,6.64504374 105.898708,-0.75410896 115.889163,0.199877471 L131.61423,1.70419407 C141.604686,2.6581805 148.998519,11.6210467 148.044163,21.6203276 C148.044163,21.6203276 152.29153,43.5414084 151.183363,50.4702349 C146.475774,68.2080792 131.229097,71.468846 123.215174,70.7027476" id="Fill-72" fill="#4F2707"></path>
                    <path d="M146.328624,41.9852105 C144.952802,56.4065276 132.133191,66.9791701 117.696747,65.5997081 C103.260302,64.219034 92.6727689,51.4087054 94.0485911,36.9873883 C95.4244133,22.5660712 108.244024,11.9934287 122.680469,13.3741028 C137.116913,14.7535648 147.704447,27.5638933 146.328624,41.9852105" id="Fill-74" fill="#F2C089"></path>
                    <path d="M121.414737,45.0203904 C121.546748,43.6421406 122.76997,42.6311817 124.145792,42.7633094 L125.987892,42.9390757 C127.366137,43.0712034 128.374992,44.2955062 128.242981,45.673756 L121.414737,45.0203904 Z" id="Fill-76" fill="#F09958"></path>
                    <path d="M140.442746,39.0219128 C141.288101,30.1632942 137.952701,21.8719763 132.05459,16.0874487 C141.409212,20.8234398 147.392101,30.9281804 146.337223,41.9856953 C144.961401,56.4082246 132.14179,66.979655 117.705346,65.600193 C116.017057,65.4389729 114.383268,65.1153206 112.813668,64.655904 C127.017579,64.3698293 139.062079,53.4929294 140.442746,39.0219128" id="Fill-78" fill="#EAB17A"></path>
                    <path d="M142.511202,8.694963 C139.935169,5.77724338 136.449591,3.82805636 132.490469,3.4498559 L118.407669,2.10312283 C109.45998,1.24853524 101.951091,19.0748687 101.951091,19.0748687 C101.42668,20.3646293 101.070613,21.7804567 100.927702,23.2823489 L115.200647,24.6460525 L117.005202,17.4990335 L119.788336,25.084862 L140.756302,27.0898094 L142.511202,8.694963 Z" id="Fill-80" fill="#EAB17A"></path>
                    <path d="M106.235276,28.9571742 L110.234364,24.9872815" id="Fill-82" fill="#6C3B11"></path>
                    <path d="M109.658602,29.5049587 C109.243191,29.4334401 108.887124,29.1255461 108.775702,28.6903731 C108.625524,28.100041 108.981591,27.5000114 109.571402,27.3484888 L115.027458,25.9520563 C115.617269,25.8005337 116.21798,26.1569149 116.369369,26.747247 C116.519547,27.3375792 116.16348,27.9388209 115.573669,28.0891314 L110.116402,29.4855639 C109.962591,29.5255658 109.806358,29.5304146 109.658602,29.5049587" id="Fill-84" fill="#6C3B11"></path>
                    <path d="M138.175424,27.6542008 L142.599613,31.1440699" id="Fill-86" fill="#6C3B11"></path>
                    <path d="M137.383116,29.8153983 C137.004038,29.425076 136.964071,28.8044394 137.309238,28.3656298 C137.685893,27.8868184 138.37986,27.8056022 138.857038,28.1813783 L143.281227,31.6712474 C143.760827,32.0518722 143.84076,32.7416032 143.464104,33.2204147 C143.087449,33.6992262 142.394693,33.7816545 141.916304,33.4046662 L137.493327,29.9147971 C137.45336,29.8832804 137.417027,29.8505515 137.383116,29.8153983" id="Fill-88" fill="#6C3B11"></path>
                    <path d="M116.044307,54.2802409 C118.87104,56.1397265 122.670296,55.3530211 124.52814,52.5225785 L114.288196,45.7889132 C112.430351,48.6181436 113.216362,52.4195431 116.044307,54.2802409" id="Fill-90" fill="#FEFEFE"></path>
                    <path d="M148.068628,22.0060436 L148.014128,21.7696683 C148.967272,11.7885701 141.546794,2.83782572 131.523639,1.87899056 L115.747706,0.371037426 C105.725761,-0.586585548 96.7453722,6.79559662 95.7934389,16.777907 L95.69655,16.9997361 L98.4094389,23.227922 C98.0158278,24.1140263 101.950728,19.0749899 106.005528,20.2459568 C108.59125,20.9926603 105.978883,23.5891519 105.978883,23.5891519 L100.392028,26.6559698 L113.909239,26.1141249 C117.792061,26.1286711 123.799172,21.4169236 123.866994,16.8627597 C126.034883,19.00832 126.395794,22.5903148 125.263406,26.2947399 C129.968572,28.1833178 137.522272,27.3044866 145.451417,26.0607889 C145.595539,24.5588967 145.486539,23.0982186 145.168017,21.7284541 L148.068628,22.0060436 Z" id="Fill-92" fill="#4F2707"></path>
                    <path d="M114.406884,185.879699 L149.540007,185.586351 C149.411629,178.456303 143.534107,172.675412 136.38734,172.703292 L116.267151,172.938455 C115.534429,172.940879 114.817451,173.007549 114.117429,173.127555 L114.406884,185.879699 Z" id="Fill-94" fill="#DDE2E2"></path>
                    <path d="M87.4895767,230.471231 C87.50411,230.47608 88.28891,230.054241 88.3034433,230.05909 C96.3645989,221.45018 101.318043,209.894459 101.318043,197.193227 C101.318043,170.656161 79.7481544,149.067218 53.23451,149.067218 C35.5861989,149.067218 20.1517989,158.648296 11.7878656,172.870815 C11.8241989,172.962941 11.8774878,173.045369 11.9065544,173.13992 C11.9222989,173.170224 11.9465211,173.193256 11.9610544,173.22356 C13.1636878,175.662468 14.2936544,178.128044 15.7239767,180.442098 C22.1464989,166.092299 36.5344989,156.06029 53.23451,156.06029 C75.89561,156.06029 94.3311433,174.512108 94.3311433,197.193227 C94.3311433,209.802333 88.6171211,221.086526 79.6621656,228.637201 C80.3488656,228.833575 81.0331433,229.032372 81.7210544,229.2142" id="Fill-96" fill="#683E90"></path>
                    <path d="M156.800739,221.961236 C156.938806,221.938204 157.076872,221.915173 157.214939,221.892142 C157.413561,221.807289 157.610972,221.722436 157.809594,221.637584 C159.31985,220.544196 160.873706,219.516267 162.476006,218.535612 C158.685228,212.309851 156.497961,205.001612 156.497961,197.192742 C156.497961,174.511624 174.933494,156.059805 197.594594,156.059805 C202.872617,156.059805 207.915683,157.071976 212.55545,158.893884 C212.829161,158.176273 213.005983,157.441691 213.085917,156.690139 C213.084706,156.665895 213.07865,156.645288 213.07865,156.621045 L213.07865,154.600339 C213.07865,153.493618 213.404439,152.618423 213.899783,151.920207 C208.80585,150.076479 203.317094,149.066733 197.594594,149.066733 C171.082161,149.066733 149.511061,170.655676 149.511061,197.192742 C149.511061,206.287736 152.047128,214.802095 156.445883,222.064271 C156.565783,222.032755 156.673572,221.983055 156.800739,221.961236" id="Fill-98" fill="#683E90"></path>
                    <path d="M207.59595,171.121396 C207.700106,170.865626 207.829694,170.62925 207.970183,170.403785 C204.749839,169.149177 201.253361,168.454598 197.595806,168.454598 C196.064961,168.454598 194.825994,169.694659 194.825994,171.225643 C194.825994,172.756628 196.064961,173.996689 197.595806,173.996689 C200.296583,173.996689 202.879883,174.48641 205.293628,175.340998 C206.161994,173.990628 206.986761,172.611166 207.59595,171.121396" id="Fill-100" fill="#FEFEFE"></path>
                    <path d="M172.581274,214.251401 C169.861119,210.451214 168.241863,205.809773 168.241863,200.788919 C168.241863,199.257935 167.002897,198.017873 165.473263,198.017873 C163.94363,198.017873 162.704663,199.257935 162.704663,200.788919 C162.704663,206.938313 164.650919,212.637988 167.948774,217.317007 C169.514741,216.325443 171.031052,215.263572 172.581274,214.251401" id="Fill-102" fill="#FEFEFE"></path>
                    <path d="M82.49883,199.964272 C80.9691967,199.964272 79.73023,198.722999 79.73023,197.193227 C79.73023,184.402293 69.3340522,173.996932 56.5544078,173.996932 C55.0247744,173.996932 53.7858078,172.755658 53.7858078,171.225886 C53.7858078,169.694901 55.0247744,168.453628 56.5544078,168.453628 C72.3872633,168.453628 85.26743,181.346385 85.26743,197.193227 C85.26743,198.722999 84.0284633,199.964272 82.49883,199.964272" id="Fill-104" fill="#FEFEFE"></path>
                    <path d="M166.690309,116.156383 L174.443842,159.392454 C174.443842,159.392454 176.658964,167.152837 182.936153,177.500013 C189.212131,187.84719 193.179731,191.773444 193.179731,191.773444" id="Stroke-106" stroke="#F09913" stroke-width="5.03" stroke-linecap="round" stroke-linejoin="round"></path>
                    <polyline id="Stroke-108" stroke="#F09913" stroke-width="5.03" stroke-linecap="round" stroke-linejoin="round" points="170.013234 136.11167 113.892768 202.998604 91.7391233 139.068179"></polyline>
                    <path d="M50.5976789,199.749959 L116.163601,217.872065 C124.798823,217.792061 131.799046,210.737167 131.799046,202.074922 C131.799046,193.383584 124.750379,186.309296 116.073979,186.276567 L67.1208678,191.536221 C65.8819011,191.651378 64.6768456,191.751989 63.5032789,191.847751 C57.2079233,192.366565 51.2613678,192.856286 49.9473122,195.257616 C49.4011011,196.257665 49.6203122,197.768043 50.5976789,199.749959 M116.015846,220.090356 L115.865668,220.090356 L115.720334,220.050354 L49.0777344,201.630052 L48.85489,201.208213 C47.3034567,198.277159 47.0261122,195.9825 48.00469,194.193321 C49.8916011,190.744666 55.8187789,190.256157 63.3216122,189.637945 C64.4879122,189.542183 65.68449,189.443996 66.8992344,189.330051 L115.956501,184.059488 L116.015846,184.059488 C125.940901,184.059488 134.014168,192.141099 134.014168,202.074922 C134.014168,212.008745 125.940901,220.090356 116.015846,220.090356" id="Fill-110" fill="#41525A"></path>
                    <polyline id="Stroke-112" stroke="#F09913" stroke-width="5.03" stroke-linecap="round" stroke-linejoin="round" points="91.7394867 139.067937 53.5252978 197.270806 111.676798 201.890428"></polyline>
                    <path d="M133.415758,202.447062 C133.415758,211.323863 126.122447,218.519369 117.125102,218.519369 C108.127758,218.519369 100.834447,211.323863 100.834447,202.447062 C100.834447,193.57026 108.127758,186.374754 117.125102,186.374754 C126.122447,186.374754 133.415758,193.57026 133.415758,202.447062" id="Fill-114" fill="#4B318B"></path>
                    <path d="M129.049702,202.447062 C129.049702,208.944352 123.711124,214.21249 117.125102,214.21249 C110.53908,214.21249 105.200502,208.944352 105.200502,202.447062 C105.200502,195.949772 110.53908,190.681633 117.125102,190.681633 C123.711124,190.681633 129.049702,195.949772 129.049702,202.447062" id="Fill-116" fill="#8566A5"></path>
                    <path d="M117.101607,227.68867 C117.73744,225.475227 116.858173,223.241178 115.089951,222.670241 L97.1715622,216.879652 C95.4045511,216.308715 93.3844178,217.605748 92.6080956,219.773128 L117.101607,227.68867 Z" id="Fill-118" fill="#3A1A6F"></path>
                    <path d="M175.176686,122.901564 C174.143608,122.901564 173.095997,122.64943 172.125897,122.118495 L107.327819,86.6428063 C104.241908,84.953026 103.109519,81.0788956 104.797808,77.9902585 C106.486097,74.9016213 110.355597,73.7682321 113.441508,75.4568002 L178.238374,110.933701 C181.324286,112.623481 182.457886,116.496399 180.769597,119.585037 C179.611774,121.702717 177.429352,122.901564 175.176686,122.901564" id="Fill-120" fill="#E89378"></path>
                    <path d="M176.653757,118.097569 C175.620679,118.097569 174.573068,117.845436 173.602968,117.3145 L108.80489,81.8388118 C105.718979,80.1490316 104.58659,76.2749011 106.274879,73.186264 C107.963168,70.0976269 111.832668,68.9642377 114.918579,70.6528058 L179.715446,106.129707 C182.801357,107.819487 183.934957,111.692405 182.246668,114.781042 C181.088846,116.898722 178.906423,118.097569 176.653757,118.097569" id="Fill-122" fill="#F1A78B"></path>
                    <path d="M95.2828344,134.164301 L85.5612456,130.421086 C80.3692122,128.420987 77.0035344,121.537012 79.0018678,116.341604 L98.1301567,75.1747257 C100.12849,69.9781058 106.009646,67.3622193 111.201679,69.3611057 L120.923268,73.1043206 C126.115301,75.1044192 128.728879,80.99077 126.731757,86.1873899 L108.354357,128.350681 C106.357234,133.547301 100.474868,136.163187 95.2828344,134.164301" id="Fill-124" fill="#DD2C89"></path>
                    <path d="M144.906538,133.155281 L126.81496,163.087666" id="Fill-126" fill="#F1A78B"></path>
                    <polygon id="Fill-128" fill="#CF8370" points="132.264476 166.387708 124.139131 160.890467 143.427287 132.462399 152.659587 138.697858"></polygon>
                    <path d="M144.868751,145.451282 C144.136029,145.451282 143.394829,145.376126 142.648784,145.220967 L97.6475289,142.394161 C91.8087622,141.172283 92.8709067,129.766872 94.0904956,123.922947 C95.3112956,118.079023 100.490007,114.752798 106.323929,115.97104 L145.22724,124.478126 C151.066007,125.698793 156.649229,131.006933 155.42964,136.850858 C154.365073,141.948079 149.874273,145.451282 144.868751,145.451282" id="Fill-130" fill="#4A2A73"></path>
                    <path d="M91.7394867,139.067937 L168.536042,125.76425" id="Stroke-132" stroke="#F09913" stroke-width="5.03" stroke-linecap="round" stroke-linejoin="round"></path>
                    <path d="M123.388969,172.070291 L107.722036,203.343348" id="Fill-134" fill="#F1A78B"></path>
                    <polygon id="Fill-136" fill="#F1A78B" points="111.307893 209.280974 97.83186 206.69418 117.695293 169.212332 129.030082 176.022365"></polygon>
                    <path d="M126.624089,177.104115 C123.745278,177.104115 119.156378,175.146443 117.030878,172.880877 L81.5865,138.698585 C77.5026333,134.346855 80.3681222,125.297924 84.7160111,121.21045 C89.0639,117.124188 98.9175,116.239296 103.000156,120.591026 L134.493889,158.895945 C138.577756,163.247674 138.362178,170.088012 134.014289,174.174274 C131.929967,176.133158 129.274,177.104115 126.624089,177.104115" id="Fill-138" fill="#683E90"></path>
                    <path d="M94.3729267,215.594861 L127.398716,227.593029 C129.765227,220.866636 126.272382,213.395965 119.565249,210.92554 L100.628316,204.11672 C99.9416156,203.864586 99.2464378,203.675486 98.5476267,203.543358 L94.3729267,215.594861 Z" id="Fill-140" fill="#FEFEFE"></path>
                    <path d="M81.4014422,110.798058 C80.4785756,112.830885 79.2335533,115.913462 78.73942,117.966896 L76.9881533,125.241194 C75.1060867,133.058549 79.9565867,140.99591 87.7670422,142.87964 L95.9771644,144.859131 C103.78762,146.74286 111.716764,141.888076 113.598831,134.070721 C113.598831,134.070721 114.815998,123.732029 115.369476,118.004474 L81.4014422,110.798058 Z" id="Fill-142" fill="#683E90"></path>
                    <path d="M118.054146,110.774542 L114.749023,110.441192 L118.359346,74.5957881 C118.215223,73.463611 117.91729,73.2684499 117.912446,73.2672377 C117.850679,73.2272357 117.543057,73.1799607 116.896323,73.4017898 L82.5334678,97.3363032 L80.6344456,94.6064717 L115.342468,70.4319464 L115.531401,70.3592155 C117.167612,69.7337301 118.550701,69.7591859 119.649179,70.4307342 C120.808212,71.1422844 121.473112,72.4429546 121.682634,74.4079 L121.700801,74.5788175 L121.682634,74.749735 L118.054146,110.774542 Z" id="Fill-144" fill="#513D90"></path>
                    <path d="M102.135907,136.659697 L72.8088511,123.469955 C69.4661844,121.966851 67.9595622,117.99817 69.46134,114.651339 L77.5309733,96.6783314 C79.0339622,93.3314997 82.99914,91.8235466 86.3418067,93.3278632 L115.668862,106.517604 C119.01274,108.020709 120.518151,111.989389 119.016373,115.336221 L110.94674,133.309228 C109.444962,136.65606 105.479784,138.164013 102.135907,136.659697" id="Fill-146" fill="#5B4292"></path>
                    <path d="M112.962392,125.982564 L75.4906144,109.249618 C74.3473256,108.735653 73.5492033,107.76106 73.20767,106.642217 C72.9327478,108.35018 73.8168589,110.109054 75.4651811,110.850909 L110.577714,126.523197 C111.776714,127.061405 113.110148,126.940187 114.16987,126.318338 C113.761726,126.269851 113.354792,126.159543 112.962392,125.982564" id="Fill-148" fill="#44347F"></path>
                    <path d="M94.4921,119.718983 L93.5777111,119.331085 C91.9003222,118.620747 91.1094667,116.666711 91.8191778,114.98784 L92.9079667,112.413168 C93.6176778,110.735509 95.5712,109.942743 97.2485889,110.654293 L98.1629778,111.040979 C99.8391556,111.751317 100.631222,113.706565 99.9203,115.385436 L98.8315111,117.958896 C98.1218,119.637766 96.1694889,120.429321 94.4921,119.718983" id="Fill-150" fill="#FDD959"></path>
                    <path d="M174.225842,139.712574 L174.107153,138.054311 C174.25612,138.043401 188.989287,136.861525 188.291687,127.024676 C187.52142,116.175656 172.889987,115.330766 172.742231,115.323493 L172.823376,113.662805 C172.985664,113.67129 189.075276,114.603458 189.948487,126.907095 C190.763564,138.39857 174.391764,139.700453 174.225842,139.712574" id="Fill-152" fill="#7D7C7C"></path>
                    <path d="M179.050788,131.799457 C174.144577,131.799457 170.153966,129.076899 170.092199,129.03326 L171.04171,127.668344 C171.06351,127.684103 173.268943,129.196904 176.289454,129.853907 C180.240099,130.713343 183.677232,129.769054 186.513654,127.051344 C188.260077,125.378534 189.129654,123.395406 189.098166,121.160145 C189.007332,114.819226 181.89811,108.314663 181.826654,108.250417 L182.939666,107.015205 C183.254554,107.300067 190.655654,114.064037 190.758599,121.132264 C190.798566,123.849974 189.75701,126.246456 187.662999,128.252615 C184.860488,130.937596 181.81091,131.799457 179.050788,131.799457" id="Fill-154" fill="#7D7C7C"></path>
                    <path d="M184.135759,119.109619 C184.135759,121.353366 181.65177,123.171638 178.587659,123.171638 C175.523548,123.171638 173.039559,121.353366 173.039559,119.109619 C173.039559,116.865872 175.523548,115.047601 178.587659,115.047601 C181.65177,115.047601 184.135759,116.865872 184.135759,119.109619" id="Fill-156" fill="#E89378"></path>
                    <path d="M186.544659,122.63052 L176.497281,122.406267 C172.999592,122.406267 172.057348,119.540671 172.057348,116.039892 L173.315692,113.653108 C173.315692,110.152329 176.178759,107.286733 179.676448,107.286733 L186.544659,107.286733 C190.042348,107.286733 192.904203,110.152329 192.904203,113.653108 L192.904203,116.265358 C192.904203,119.766136 190.042348,122.63052 186.544659,122.63052" id="Fill-158" fill="#F1A78B"></path>
                    <path d="M184.135759,119.248899 C184.135759,121.952062 181.507648,124.143686 178.266714,124.143686 C175.02457,124.143686 172.396459,121.952062 172.396459,119.248899 C172.396459,116.545735 175.02457,114.354112 178.266714,114.354112 C181.507648,114.354112 184.135759,116.545735 184.135759,119.248899" id="Fill-160" fill="#F1A78B"></path>
                    <path d="M188.289507,115.255611 C188.289507,118.202423 185.902407,120.59042 182.959407,120.59042 C180.015196,120.59042 177.628096,118.202423 177.628096,115.255611 C177.628096,112.308799 180.015196,109.920803 182.959407,109.920803 C185.902407,109.920803 188.289507,112.308799 188.289507,115.255611" id="Fill-162" fill="#4B318B"></path>
                    <path d="M127.353783,94.6585955 L115.068272,87.5588515 C111.832183,85.6896684 110.713117,81.5100684 112.581861,78.2711208 L113.600406,76.5061853 C115.467939,73.2672377 119.64385,72.1471825 122.879939,74.0175777 L135.16545,81.1161095 L127.353783,94.6585955 Z" id="Fill-164" fill="#DD2C89"></path>
                    <path d="M60.3560856,197.270928 C60.3560856,201.046871 57.29803,204.107628 53.5254189,204.107628 C49.7528078,204.107628 46.6947522,201.046871 46.6947522,197.270928 C46.6947522,193.494984 49.7528078,190.434227 53.5254189,190.434227 C57.29803,190.434227 60.3560856,193.494984 60.3560856,197.270928" id="Fill-166" fill="#265CA4"></path>
                    <path d="M56.8954567,197.270928 C56.8954567,199.13405 55.3864122,200.643215 53.5261456,200.643215 C51.6646678,200.643215 50.1556233,199.13405 50.1556233,197.270928 C50.1556233,195.407805 51.6646678,193.89864 53.5261456,193.89864 C55.3864122,193.89864 56.8954567,195.407805 56.8954567,197.270928" id="Fill-168" fill="#E03F63"></path>
                    <path d="M113.2946,36.7194963 C111.901822,36.7194963 110.724622,35.8006631 110.334644,34.5363583 C110.245022,34.8272818 110.196578,35.1363879 110.196578,35.4576159 C110.196578,37.1704276 111.5833,38.5571627 113.2946,38.5571627 C115.004689,38.5571627 116.391411,37.1704276 116.391411,35.4576159 C116.391411,35.1363879 116.342967,34.8272818 116.253344,34.5363583 C115.860944,35.8006631 114.683744,36.7194963 113.2946,36.7194963" id="Fill-170" fill="#050405"></path>
                    <path d="M139.785839,39.3062905 C138.393061,39.3062905 137.215861,38.3874573 136.825883,37.1231526 C136.736261,37.414076 136.687817,37.7231821 136.687817,38.0444101 C136.687817,39.7572218 138.074539,41.1439569 139.785839,41.1439569 C141.495928,41.1439569 142.88265,39.7572218 142.88265,38.0444101 C142.88265,37.7231821 142.834206,37.414076 142.744583,37.1231526 C142.352183,38.3874573 141.174983,39.3062905 139.785839,39.3062905" id="Fill-172" fill="#050405"></path>
                    <path d="M112.969417,0.304973562 C112.969417,0.304973562 103.831583,-1.35813874 96.3541833,7.23380004 C88.8779944,15.8257388 88.3245167,20.8150757 83.06345,21.9230092 C77.8011722,23.0321548 70.3249833,11.6679581 70.3249833,11.6679581 C70.3249833,11.6679581 69.6552389,22.0199836 73.3709278,26.3571672 C76.6942167,30.2373585 81.4018056,33.0096164 84.1704056,33.2859937 C86.8845056,33.5587344 91.6478056,35.7806621 91.6478056,35.7806621 L95.69655,16.99913 L112.969417,0.304973562 Z" id="Fill-174" fill="#4F2707"></path>
                    <path d="M60.6329456,21.0916954 C60.6329456,21.0916954 64.5097122,27.4665552 73.0940678,29.9612237 C81.6784233,32.4546799 91.9244233,28.5744886 91.9244233,28.5744886 L88.32379,44.6504328 C88.32379,44.6504328 76.9708344,43.2636977 70.0481233,35.7809046 C60.3556011,26.9113763 60.6329456,21.0916954 60.6329456,21.0916954" id="Fill-176" fill="#4F2707"></path>
                    <path d="M53.4332533,36.0581303 C53.4332533,36.0581303 56.2018533,28.2977477 63.9553867,32.4555285 C70.6225533,36.0302502 75.0322089,35.5041636 77.5246756,35.7805409 C80.0171422,36.0581303 90.2631422,37.9976199 90.2631422,37.9976199 L94.6933867,63.7734363 C94.6933867,63.7734363 79.1003311,61.9284968 71.1954089,52.6310687 C63.9868756,44.1530749 67.8321533,39.6607322 61.7402644,36.8896865 C55.6483756,34.1174286 53.4332533,36.0581303 53.4332533,36.0581303" id="Fill-178" fill="#4F2707"></path>
                    <path d="M96.3546678,38.4601882 C96.3546678,39.6335794 95.4039456,40.5851414 94.23159,40.5851414 C93.0592344,40.5851414 92.1085122,39.6335794 92.1085122,38.4601882 C92.1085122,37.286797 93.0592344,36.3352349 94.23159,36.3352349 C95.4039456,36.3352349 96.3546678,37.286797 96.3546678,38.4601882" id="Fill-180" fill="#FEFEFE"></path>
                    <path d="M118.370246,118.877123 L117.905179,117.871013 C117.999646,117.827374 127.244057,113.43443 128.480601,103.706678 C129.254501,97.6263781 126.574312,96.0008435 121.235734,92.7631081 C118.152246,90.8927128 114.311812,88.5641131 110.008734,84.5990692 C98.0550678,73.5839806 90.9930789,60.7797129 90.6321678,49.4712765 C90.3548233,40.7581197 92.4500456,38.8586321 92.6898456,38.670744 L93.3729122,39.5435143 L93.0313789,39.1071292 L93.3850233,39.5326047 C93.3668567,39.5495752 91.4799456,41.309662 91.7391233,49.4361233 C92.0855011,60.2875674 99.1959344,73.1269884 110.759623,83.7832714 C114.981557,87.6731601 118.76749,89.9702431 121.811012,91.8151825 C127.194401,95.0807981 130.443812,97.0518044 129.58029,103.847291 C128.263812,114.194468 118.773546,118.690447 118.370246,118.877123" id="Fill-182" fill="#FEFEFE"></path>
                    <path d="M91.8271711,41.9681187 L91.6309711,41.875993 C91.2712711,41.7074998 91.1138267,41.2747512 91.2833822,40.9147334 L92.3527933,38.6261358 C92.5211378,38.266118 92.9535044,38.1097467 93.3132044,38.2782398 L93.5094044,38.3703656 C93.8691044,38.5388587 94.0253378,38.9716073 93.8569933,39.3316251 L92.7875822,41.6202228 C92.6192378,41.9802405 92.1868711,42.1366119 91.8271711,41.9681187" id="Fill-184" fill="#FEFEFE"></path>
                    <path d="M134.229382,80.6370556 L133.799438,79.6151871 C133.829716,79.6018531 137.184493,78.0842025 140.534427,71.3784173 C143.864982,64.7126341 139.497716,57.578949 139.452904,57.5074303 L140.391516,56.9207348 C140.586504,57.2334774 145.130593,64.6580859 141.525116,71.8741993 C137.966871,78.9969748 134.380771,80.5740222 134.229382,80.6370556" id="Fill-186" fill="#FEFEFE"></path>
                    <path d="M83.4792244,102.9944 C83.4610578,102.618624 83.5434133,101.985866 83.7044911,101.594331 C83.9782022,101.37129 84.3706022,101.185826 84.8405133,101.057335 C85.3322244,105.377548 90.3680244,111.813017 90.3680244,111.813017 L88.5598356,112.273646 L88.5077578,114.736798 C88.5077578,114.736798 83.5930689,105.332698 83.4792244,102.9944" id="Fill-188" fill="#E14C91"></path>
                    <path d="M84.7404756,108.42291 C83.5075644,110.385431 82.3897089,111.812168 82.3897089,111.812168 L83.9096533,112.25219 L84.2499756,114.737161 C84.2499756,114.737161 85.0602089,113.186782 86.0303089,111.187895 C85.8534867,110.823029 85.6742422,110.444828 85.4937867,110.061779 C85.21402,109.466598 84.96332,108.921117 84.7404756,108.42291" id="Fill-190" fill="#E04589"></path>
                    <path d="M89.2789933,102.9944 C89.29716,102.618624 89.2148044,101.985866 89.0537267,101.594331 C88.7800156,101.37129 88.3876156,101.185826 87.9177044,101.057335 C87.7856933,102.217392 87.3254711,103.528972 86.72476,104.827218 C87.0929378,105.590892 87.5083489,106.348505 87.9310267,107.063692 C88.6722267,105.329061 89.2414489,103.771408 89.2789933,102.9944" id="Fill-192" fill="#E04589"></path>
                    <path d="M88.6727111,100.812232 C88.1858444,99.946735 87.3453333,99.4036779 86.4321556,99.3854952 L86.3788667,99.3854952 L86.3267889,99.3854952 C85.4124,99.4036779 84.5731,99.946735 84.0850222,100.812232 C83.9384778,101.074063 83.8113111,101.338319 83.7047333,101.594089 C83.9784444,101.371048 84.3708444,101.185584 84.8407556,101.057093 C85.2937111,100.93345 85.8193333,100.861932 86.3788667,100.861932 C86.9396111,100.861932 87.4640222,100.93345 87.9169778,101.057093 C88.3868889,101.185584 88.7792889,101.371048 89.053,101.594089 C88.9476333,101.338319 88.8204667,101.074063 88.6727111,100.812232" id="Fill-194" fill="#E25599"></path>
                </g>
            </g>
        </g>
    </g>
</svg>