<svg width="229" height="219" viewBox="0 0 229 219" xmlns="http://www.w3.org/2000/svg" xmlns:xlink="http://www.w3.org/1999/xlink"><title>00AC26C3-4FF1-40B5-AAC4-55B9C145E4AF</title><defs><path id="b" d="M0 0h1440v3000H0z"/><filter x="-50%" y="-50%" width="200%" height="200%" filterUnits="objectBoundingBox" id="a"><feOffset in="SourceAlpha" result="shadowOffsetOuter1"/><feGaussianBlur stdDeviation="10" in="shadowOffsetOuter1" result="shadowBlurOuter1"/><feColorMatrix values="0 0 0 0 0 0 0 0 0 0 0 0 0 0 0 0 0 0 0.1 0" in="shadowBlurOuter1"/></filter><path d="M.85 86.39c0 47.379 37.988 85.788 84.85 85.788 46.865 0 84.853-38.409 84.853-85.789C170.553 39.01 132.565.601 85.7.601 38.838.6.85 39.01.85 86.389z" id="c"/><path id="e" d="M.316 29.198h42.276V.07H.316V29.2z"/><path id="g" d="M22.672.07H.042v28.848h22.63V.069z"/><path id="i" d="M18.18.07H.288v9.065h17.894V.069z"/><path id="k" d="M.801 4.577h4.894V.615H.8v3.962z"/><path id="m" d="M.776 5.456h4.891V.612H.777v4.844z"/><path id="o" d="M.565 8.094h13.403V.124H.565v7.97z"/><path d="M.85.249c.164 34.196 20.326 63.635 49.323 77.083h50.617V.25H.85z" id="q"/><path id="s" d="M0 .424V10.53h9.163V.424H0z"/></defs><g fill="none" fill-rule="evenodd"><g transform="translate(-286 -2014)"><use fill="#000" filter="url(#a)" xlink:href="#b"/><use fill="#FFF" xlink:href="#b"/></g><path d="M189.305 110.07c0 46.803-37.951 84.746-84.77 84.746-46.818 0-84.77-37.943-84.77-84.746 0-46.804 37.952-84.746 84.77-84.746 46.819 0 84.77 37.942 84.77 84.746" fill="#704693"/><g transform="translate(18.916 23.735)"><mask id="d" fill="#fff"><use xlink:href="#c"/></mask><path fill="#8566A5" mask="url(#d)" d="M-1.564 125.155H230.12v-140.36H-1.564z"/><path fill="#A892C1" mask="url(#d)" d="M26.066 80.386h86.396V15.86H26.066z"/><path fill="#6A4C96" mask="url(#d)" d="M31.305 76.611h75.919V19.19H31.305z"/><path fill="#C4ADD1" mask="url(#d)" d="M67.667 46.292v-8.391L48.976 19.365h-8.3z"/><path fill="#A892C1" mask="url(#d)" d="M24.754 78.93h89.025v-4.307H24.754z"/><path fill="#A892C1" mask="url(#d)" d="M67.074 80.096h4.38V18.448h-4.38z"/><path fill="#C4ADD1" mask="url(#d)" d="M107.224 65.568v-8.39L71.49 20.753l-.122 9.002z"/><path fill="#50368C" mask="url(#d)" d="M-1.564 112.689l231.721 1.291v73.318l-231.72-1.292z"/><path fill="#704693" mask="url(#d)" d="M-1.564 114.927H230.12v-6.358H-1.564z"/><path d="M32.007 40.49c-.342.343-.55.82-.55 1.345h8.518c0-1.051-.845-1.903-1.887-1.903H33.34c-.52 0-.99.212-1.332.557" fill="#C4ADD1" mask="url(#d)"/><path d="M37.091 40.49c-.339.343-.55.82-.55 1.345h8.518c0-1.051-.843-1.903-1.884-1.903h-4.75c-.522 0-.993.212-1.334.557M34.07 38.585c-.342.345-.55.82-.55 1.346h8.518c0-1.05-.847-1.904-1.885-1.904H35.4c-.518 0-.99.213-1.33.558" fill="#C4ADD1" mask="url(#d)"/><path d="M45.334 41.162a.944.944 0 0 0-.275.673h1.883a.947.947 0 0 0-.942-.952.928.928 0 0 0-.666.28M38.699 39.258a.955.955 0 0 0-.275.673h1.883a.948.948 0 0 0-.942-.953.93.93 0 0 0-.666.28M37.099 50.562a3.584 3.584 0 0 0-1.035 2.526h15.98c0-1.973-1.582-3.572-3.534-3.572h-8.913c-.977 0-1.859.4-2.498 1.046" fill="#C4ADD1" mask="url(#d)"/><path d="M46.637 50.562a3.576 3.576 0 0 0-1.034 2.526h15.98c0-1.973-1.583-3.572-3.532-3.572h-8.914c-.977 0-1.86.4-2.5 1.046" fill="#C4ADD1" mask="url(#d)"/><path d="M40.968 46.99a3.575 3.575 0 0 0-1.034 2.526h15.979c0-1.974-1.583-3.572-3.533-3.572h-8.914c-.976 0-1.86.4-2.498 1.046M62.1 51.826c-.32.322-.517.77-.517 1.262h3.533c0-.986-.79-1.786-1.764-1.786-.49 0-.93.2-1.252.524" fill="#C4ADD1" mask="url(#d)"/><path d="M49.653 48.253c-.319.324-.516.77-.516 1.263h3.532c0-.987-.79-1.786-1.765-1.786-.488 0-.93.2-1.25.523" fill="#C4ADD1" mask="url(#d)"/><path d="M186.12 43.264c0 1.171-.947 2.128-2.105 2.128h-31.432c-1.157 0-2.106-.957-2.106-2.128V34.97c0-1.17.949-2.128 2.106-2.128h31.432c1.158 0 2.106.957 2.106 2.128v8.293z" fill="#A892C1" mask="url(#d)"/><path fill="#6A4C96" mask="url(#d)" d="M151.764 43.715h32.706v-9.382h-32.706z"/><path fill="#4F387B" mask="url(#d)" d="M174.474 38.486h-3.55l1.585 4.401h3.551z"/><path fill="#8566A5" mask="url(#d)" d="M173.547 42.887h-5.32l2.373-6.599h5.327z"/><path fill="#A892C1" mask="url(#d)" d="M173.026 41.72h-3.44l1.538-4.263h3.44z"/><path d="M181.637 40.141c0 1.27-1.015 2.297-2.272 2.297-1.252 0-2.271-1.028-2.271-2.297 0-1.268 1.02-2.297 2.27-2.297 1.258 0 2.273 1.03 2.273 2.297" fill="#4F387B" mask="url(#d)"/><path fill="#A892C1" mask="url(#d)" d="M154.601 42.887h10.297v-3.159H154.6zM154.601 39.728h10.297v-3.16H154.6z"/><path d="M163.832 41.307c0 .386-.31.7-.692.7a.696.696 0 0 1-.692-.7c0-.385.31-.696.692-.696.381 0 .692.311.692.696M163.832 37.98c0 .385-.31.698-.692.698a.696.696 0 0 1-.692-.699c0-.386.31-.697.692-.697.381 0 .692.311.692.697" fill="#6A4C96" mask="url(#d)"/><path d="M202.29 60.584c0 1.112-.732 2.023-1.628 2.023h-24.261c-.893 0-1.624-.91-1.624-2.023v-7.878c0-1.111.73-2.021 1.624-2.021h24.261c.896 0 1.627.91 1.627 2.021v7.878z" fill="#A892C1" mask="url(#d)"/><path fill="#6A4C96" mask="url(#d)" d="M176.371 61.053h24.491v-8.757h-24.491z"/><path fill="#A892C1" mask="url(#d)" d="M189.066 59.96l-1.979-.84 2.334-5.613 1.977.842z"/><path fill="#4F387B" mask="url(#d)" d="M185.804 59.96l-1.98-.84 2.334-5.613 1.977.842zM192.46 59.96l-1.977-.84 2.329-5.613 1.98.842z"/><path fill="#A892C1" mask="url(#d)" d="M195.855 59.96l-1.98-.84 2.332-5.613 1.977.842z"/></g><path fill="#6B7B84" d="M83.756 108.154H71.621L71.546 94.4h12.135z"/><path fill="#B7C2C8" d="M84.974 108.154H72.837L72.762 94.4h12.136z"/><path d="M102.717 98.898H49.718c-1.975 0-3.589-1.662-3.589-3.694V56.45c0-2.031 1.614-3.693 3.59-3.693h52.998c1.974 0 3.589 1.662 3.589 3.693v38.754c0 2.032-1.615 3.694-3.589 3.694" fill="#6B7B84"/><path d="M107.92 98.997H50.894a2.47 2.47 0 0 1-2.464-2.464V55.225a2.476 2.476 0 0 1 2.468-2.468h57.02a2.476 2.476 0 0 1 2.468 2.468v41.304a2.475 2.475 0 0 1-2.468 2.468" fill="#B7C2C8"/><path d="M106.694 52.665H52.128a3.711 3.711 0 0 0-3.697 3.704v32.82h61.957V56.37c0-2.037-1.663-3.704-3.694-3.704" fill="#472F92"/><path d="M54.389 110.374h53.828a3.044 3.044 0 0 0-3.014-2.62H57.346a3.04 3.04 0 0 0-3.01 2.622l.053-.002" fill="#B7C2C8"/><path d="M80.683 93.954a2.426 2.426 0 1 1-4.85 0 2.426 2.426 0 0 1 4.85 0" fill="#6B7B84"/><path d="M104.526 86.13a.75.75 0 0 1-.748.747H53.902a.75.75 0 0 1-.749-.748V55.08a.75.75 0 0 1 .749-.747h49.876a.75.75 0 0 1 .748.747v31.05z" fill="#D7D9DD"/><path fill="#704693" d="M53.591 86.348h50.497V57.22H53.59z"/><path fill="#FFF" d="M59.74 56.59h32.115v-1.632H59.739z"/><path d="M54.988 55.743a.518.518 0 1 1-1.036-.002.518.518 0 0 1 1.036.002" fill="#E3462E"/><path d="M56.635 55.743a.518.518 0 1 1-1.036-.002.518.518 0 0 1 1.036.002" fill="#F6B63E"/><path d="M58.328 55.743a.518.518 0 1 1-1.036-.002.518.518 0 0 1 1.036.002" fill="#97BE13"/><path d="M93.714 55.472v.635c0 .173-.124.245-.275.158-.151-.088-.398-.23-.55-.316-.15-.09-.15-.232 0-.318l.55-.318c.151-.088.275-.018.275.16M94.544 56.107v-.635c0-.177.124-.247.275-.159l.55.317c.15.087.15.23 0 .318l-.55.317c-.151.087-.275.015-.275-.158M97.656 55.108c-.33 0-.59.223-.684.52-.04-.009-.083-.017-.117-.026-.125-.027-.196.049-.158.171.04.122.102.322.14.443.039.124.14.146.227.052l.314-.344c.088-.094.056-.192-.068-.22a3.045 3.045 0 0 0-.085-.02c.071-.187.219-.335.43-.335a.5.5 0 1 1 0 1c-.039 0-.076-.016-.113-.024l-.058.23c.058.013.112.034.172.034a.74.74 0 0 0 0-1.481" fill="#AFAEB4"/><g transform="translate(57.618 57.15)"><mask id="f" fill="#fff"><use xlink:href="#e"/></mask><path d="M42.592 17.008c0 11.672-9.464 21.133-21.138 21.133C9.78 38.141.316 28.681.316 17.008c0-11.67 9.464-21.131 21.138-21.131 11.674 0 21.138 9.461 21.138 21.131" fill="#8B6AA7" mask="url(#f)"/></g><g transform="translate(68.173 57.15)"><mask id="h" fill="#fff"><use xlink:href="#g"/></mask><path d="M22.585 20.847c.655 4.439-2.483 8.07-6.973 8.07H7.237c-4.487 0-7.695-3.642-7.131-8.09l1.61-12.692c.567-4.45 4.699-8.09 9.186-8.09h.464c4.486 0 8.692 3.63 9.342 8.068l1.877 12.734z" fill="#F3B039" mask="url(#h)"/></g><path d="M87.037 77.052c.32 4.146-1.099 8.135-4.866 8.135h-5.346c-4.147 0-5.264-4.306-5.065-8.227l.839-13.784c.473-3.737 2.781-3.668 6.55-3.668h.388c3.767 0 6.71 2.812 7.26 6.538l.24 11.006z" fill="#C57D00"/><path d="M88.088 68.285c0 4.712-3.831 8.533-8.553 8.533-4.723 0-8.553-3.821-8.553-8.533 0-4.713 3.83-8.535 8.553-8.535 4.722 0 8.553 3.822 8.553 8.535" fill="#F1BF89"/><path d="M78.422 70.039c0-.45.365-.815.816-.815h.601c.452 0 .815.365.815.815h-2.232z" fill="#EF9959"/><g transform="translate(70.812 57.15)"><mask id="j" fill="#fff"><use xlink:href="#i"/></mask><path d="M14.07 9.135c1.426 0 2.805-.094 4.11-.27l-.111-.752C17.419 3.675 13.213.044 8.728.044h-.465C5.012.044 1.944 1.96.287 4.708 2.415 7.296 7.784 9.135 14.07 9.135" fill="#EFAC32" mask="url(#j)"/></g><path d="M73.194 63.77l1.8-.35M73.112 64.121a.36.36 0 0 1 .013-.704l1.801-.349a.358.358 0 1 1 .135.705l-1.798.35a.38.38 0 0 1-.151-.002M83.698 63.147l1.79.397M83.573 63.482a.36.36 0 0 1-.226-.416.36.36 0 0 1 .43-.27l1.789.398a.358.358 0 0 1 .271.429.357.357 0 0 1-.426.272l-1.794-.398-.044-.015" fill="#AE8D05"/><path d="M74.64 67.03c.4 0 .744.265.855.63a.895.895 0 0 0-.856-1.162.897.897 0 0 0-.857 1.163.894.894 0 0 1 .857-.631M84.57 67.03c.403 0 .744.265.856.63a.898.898 0 1 0-1.713 0 .896.896 0 0 1 .857-.63" fill="#010001"/><path d="M79.758 73.218c1.102.019 2.023-.933 2.044-2.033H77.8a1.999 1.999 0 0 0 1.958 2.033" fill="#1A090B"/><path d="M79.802 73.215c.652-.012 1.159-.28 1.506-.7-.328-.417-.965-.704-1.61-.666-.613.037-1.13.332-1.422.75.381.4.93.627 1.526.616" fill="#DC666D"/><path d="M76.817 69.374h-3.513a.942.942 0 0 1-.94-.94v-2.037c0-.518.421-.94.94-.94h3.513c.521 0 .943.422.943.94v2.036c0 .52-.422.941-.943.941m9.269 0H82.57a.943.943 0 0 1-.941-.94v-2.037c0-.518.424-.94.94-.94h3.516c.516 0 .939.422.939.94v2.036c0 .52-.423.941-.94.941m0-4.421h-3.514c-.797 0-1.445.647-1.445 1.444v.718h-2.862v-.718c0-.797-.648-1.444-1.447-1.444h-3.513c-.796 0-1.443.647-1.443 1.444v2.036c0 .797.647 1.445 1.443 1.445h3.513c.8 0 1.447-.648 1.447-1.445v-.814h2.862v.814c0 .797.648 1.445 1.445 1.445h3.515c.794 0 1.445-.648 1.445-1.445v-2.036c0-.797-.651-1.444-1.445-1.444" fill="#3D5AA9"/><g transform="translate(70.812 81.772)"><mask id="l" fill="#fff"><use xlink:href="#k"/></mask><path d="M2.489 18.987a1.686 1.686 0 0 1-1.662-1.98l1.498-8.439V2.3a1.686 1.686 0 0 1 3.37 0v6.567l-1.551 8.732a1.685 1.685 0 0 1-1.655 1.388" fill="#F1BF89" mask="url(#l)"/></g><g transform="translate(82.246 80.892)"><mask id="n" fill="#fff"><use xlink:href="#m"/></mask><path d="M3.982 19.867a1.686 1.686 0 0 1-1.658-1.389L.776 9.746v-7.45a1.682 1.682 0 1 1 3.366 0v7.151l1.498 8.44a1.684 1.684 0 0 1-1.658 1.98" fill="#F1BF89" mask="url(#n)"/></g><path d="M77.149 83.91v-2.767a2.046 2.046 0 0 0-4.091 0v2.767h4.09zM86.458 83.91v-2.767a2.046 2.046 0 1 0-4.093 0v2.767h4.093z" fill="#623F99"/><g transform="translate(72.57 78.254)"><mask id="p" fill="#fff"><use xlink:href="#o"/></mask><path d="M12.442 13.509V5.13c0-2.7-1.703-4.899-3.834-5.004V.123H5.672V.13C3.548.239 1.848 2.436 1.848 5.13v9.028C1.043 16.477.565 19.336.565 22.425c0 2.217.245 4.314.682 6.177h12.039c.437-1.863.682-3.96.682-6.177 0-3.386-.572-6.491-1.526-8.916" fill="#623F99" mask="url(#p)"/></g><path d="M82.068 78.663c0-.576-.466-1.042-1.044-1.042h-2.627c-.577 0-1.044.466-1.044 1.042h4.715z" fill="#472F92"/><path d="M82.06 82.587c0 1.24-.98 2.162-2.18 2.162-1.197 0-2.167-.923-2.167-2.162a2.15 2.15 0 0 1 2.168-2.176c1.2 0 2.178.939 2.178 2.176m-1.114.009c0-.714-.478-1.214-1.064-1.214-.585 0-1.065.5-1.065 1.214 0 .7.48 1.182 1.065 1.182.586 0 1.064-.482 1.064-1.182M82.056 86.019c0-.534-.429-.847-.96-.847h-2.42c-.532 0-.962.313-.962.847h4.342z" fill="#F8941D"/><path d="M81.984 74.789l-.083-.606 4.926-.679c.822-.112 1.685-.803 1.883-1.504.23-.82.503-1.865.606-2.332l.19-.858.598.132-.191.858a58.736 58.736 0 0 1-.615 2.365c-.267.942-1.314 1.796-2.389 1.945l-4.925.679z" fill="#1F1338"/><path d="M83.541 74.373a.686.686 0 0 1-.635.736l-1.673.124a.687.687 0 0 1-.103-1.368l1.675-.127a.69.69 0 0 1 .736.635" fill="#48535A"/><path d="M70.813 67.312c-.006-.153-.022-.302-.022-.458 0-4.931 3.95-8.929 8.822-8.929 4.874 0 8.824 3.998 8.824 8.93 0 .155-.017.304-.022.457h.528c.007-.153.023-.302.023-.458 0-5.227-4.188-9.462-9.353-9.462-5.163 0-9.35 4.235-9.35 9.462 0 .156.015.305.024.458h.526zM69.498 66.616v3.073a.987.987 0 0 1-.919-.982v-1.113c0-.52.407-.943.92-.978" fill="#5C5B5F"/><path d="M71.033 65.062v6.18a1.982 1.982 0 0 1-1.846-1.972v-2.237a1.98 1.98 0 0 1 1.846-1.97" fill="#6B7B84"/><path d="M89.963 69.689v-3.073a.983.983 0 0 1 .917.978v1.113a.985.985 0 0 1-.917.982" fill="#5C5B5F"/><path d="M88.428 71.242v-6.18a1.98 1.98 0 0 1 1.846 1.97v2.238a1.983 1.983 0 0 1-1.846 1.972" fill="#6B7B84"/><g transform="translate(18.916 110.79)"><mask id="r" fill="#fff"><use xlink:href="#q"/></mask><path fill="#C8C3C6" mask="url(#r)" d="M-1.891 77.332h38.55V5.18H-1.89z"/><path fill="#98A8AD" mask="url(#r)" d="M26.517 44.483h70.006V5.18H26.517z"/><path fill="#B7C2C8" mask="url(#r)" d="M82.322 77.332h14.201V5.18H82.322z"/><path fill="#DBDFE2" mask="url(#r)" d="M94.836 77.332h5.408V5.18h-5.408zM21.785 77.332h18.934V5.18H21.785z"/><path fill="#55545B" mask="url(#r)" d="M-5.857 5.92H100.79V.25H-5.857z"/></g><g><path fill="#789FC6" d="M142.966 179.95h6.697v-25.53h-6.697z"/><path d="M178.829 96.861c-.191-2.867.382-9.612-5.65-9.612H141.31c-3.13 0-5.666 2.46-5.666 5.495l.246 43.118h-7.72c0 3.035 2.535 5.497 5.666 5.497h39.341c2.922 0 5.328-2.148 5.635-4.904h.035V85.997l-.018 10.864z" fill="#973765"/><path fill="#687E98" d="M141.63 161.553H151V143.38h-9.37z"/><path d="M126.912 140.962c0 3.036 2.538 5.498 5.663 5.498h27.476c3.128 0 5.666-2.462 5.666-5.498h-38.805z" fill="#687E98"/><path d="M130.278 185.786c0 2.15-1.797 3.895-4.016 3.895-2.215 0-4.017-1.744-4.017-3.895 0-2.15 1.802-3.893 4.017-3.893 2.22 0 4.016 1.744 4.016 3.893M150.33 185.786c0 2.15-1.799 3.895-4.015 3.895-2.22 0-4.015-1.744-4.015-3.895 0-2.15 1.794-3.893 4.015-3.893 2.216 0 4.016 1.744 4.016 3.893M171.44 185.786c0 2.15-1.798 3.895-4.018 3.895-2.213 0-4.014-1.744-4.014-3.895 0-2.15 1.8-3.893 4.014-3.893 2.22 0 4.019 1.744 4.019 3.893" fill="#6B7B84"/><path d="M172.417 185.079c0-3.036-2.538-5.498-5.668-5.498h-40.872c-3.128 0-5.667 2.462-5.667 5.498h52.207z" fill="#687E98"/><path d="M153.23 185.079c0-3.036-2.538-5.498-5.667-5.498h-2.5c-3.13 0-5.666 2.462-5.666 5.498h13.834z" fill="#A6C8E7"/><path d="M178.829 96.861c-.191-2.867.382-9.612-5.65-9.612h-.065v-.19c-3.13 0-5.668 2.46-5.668 5.494v41.468s.005 1.624-1.627 1.562c-1.255-.02-45.991 0-45.991 0-3.131 0-5.668 2.46-5.668 5.497h17.895c.559.18 1.16.28 1.781.28h39.341c2.922 0 5.328-2.149 5.635-4.905h.035V85.997l-.018 10.864z" fill="#DF3D64"/><path d="M124.207 118.424a7.99 7.99 0 0 1-1.655-.17l-29.375-6.23a4.158 4.158 0 1 1 1.726-8.133l29.332 6.22c.154-.005.43-.13.538-.24l9.208-16.235a4.156 4.156 0 0 1 5.666-1.566 4.155 4.155 0 0 1 1.565 5.667l-9.226 16.271c-1.53 2.693-4.676 4.416-7.779 4.416" fill="#682D24"/><path d="M137.84 106.386a5.26 5.26 0 0 0 1.005-1.365l3.665-7.164a5.3 5.3 0 1 0-9.436-4.827l-3.667 7.165a5.29 5.29 0 0 0-.45 1.26l8.882 4.931z" fill="#EF933B"/><path d="M162.801 96.535c0-3.647-3.03-6.633-6.734-6.633h-13.229c-3.704 0-6.737 2.986-6.737 6.633l-4.69 26.065h26.636l4.754-26.065z" fill="#CC340D"/><path d="M145.033 88.835c.274-.025.652.117.841.315l4.016 4.198c.19.2.137.444-.118.546l-2.283.913a.521.521 0 0 1-.663-.271l-2.274-5.182c-.11-.252.024-.478.297-.503l.184-.016z" fill="#EF933B"/><path d="M168.728 67.215c0 10.731-8.719 19.43-19.472 19.43-10.754 0-19.47-8.699-19.47-19.43 0-10.729 8.716-19.427 19.47-19.427 10.753 0 19.472 8.698 19.472 19.427" fill="#7F3D28"/><path d="M146.375 71.21c0-1.026.831-1.858 1.858-1.858h1.371c1.026 0 1.858.832 1.858 1.857h-5.087z" fill="#5B281F"/><path d="M163.879 65.446c0-6.592-3.047-12.471-7.81-16.32 7.243 2.834 12.368 9.862 12.368 18.089 0 10.731-8.717 19.43-19.47 19.43-1.259 0-2.487-.125-3.678-.351 10.465-1.213 18.59-10.08 18.59-20.848" fill="#6D3327"/><path d="M141.283 65.058a1.964 1.964 0 0 0-3.924 0 1.962 1.962 0 1 0 3.924 0" fill="#000"/><path d="M134.876 59.016l4.16-.37M134.611 59.788a.817.817 0 0 1 .19-1.586l4.163-.37a.816.816 0 1 1 .144 1.628l-4.16.37a.787.787 0 0 1-.337-.042" fill="#1F130F"/><path d="M162.765 65.058a1.965 1.965 0 0 0-3.93 0 1.966 1.966 0 0 0 3.93 0" fill="#000"/><path d="M158.83 57.871l4.062.966M158.535 58.635a.819.819 0 0 1 .483-1.558l4.062.965a.815.815 0 0 1 .606.984.815.815 0 0 1-.982.606l-4.063-.965a1.143 1.143 0 0 1-.106-.032" fill="#1F130F"/><path d="M148.833 78.443a4.543 4.543 0 0 0 4.629-4.456l-9.086-.17a4.545 4.545 0 0 0 4.457 4.626" fill="#FFF"/><path d="M181.588 48.852c0-2.304-1.522-4.312-3.789-5.413a5.275 5.275 0 0 0 .554-2.334c0-2.519-1.818-4.684-4.44-5.696.001-.076.014-.152.014-.228 0-3.483-3.47-6.305-7.747-6.305-.618 0-1.215.065-1.79.176-.037-3.458-3.49-6.252-7.746-6.252-2.347 0-4.445.853-5.867 2.195-1.529-.897-3.489-1.436-5.626-1.436-4.596 0-8.372 2.495-8.807 5.687a8.27 8.27 0 0 0-3.28-.673c-4.042 0-7.322 2.822-7.322 6.304 0 .407.05.803.136 1.19-3.625.376-6.435 3.03-6.435 6.253 0 1.243.423 2.399 1.145 3.376-1.686 1.053-2.796 2.823-2.796 4.827 0 2.327 1.493 4.33 3.652 5.272-.086.368.015 2.429.274 3.19.37 1.78 3.808 8.956 5.724 9.188v3.232l3.406 1.828v-6.196c.629-.632 3.456-6.253 2.663-10.873 1.217.228 2.1.692 5.672-3.05.967.873 2.359 1.434 3.926 1.434 2.022 0 3.755-.926 4.644-2.272 1.12 1.796 3.42 3.032 6.082 3.032 2.857 0 5.299-1.418 6.31-3.426.056 1.665 1.71 3.001 3.773 3.058-.024.197.117 6.6 2.857 9.73v6.436h3.407V66.38c4.241-.19 9.194-7.408 9.194-10.843 0-.693-.141-1.356-.394-1.977 1.597-1.155 2.606-2.833 2.606-4.708" fill="#1F130F"/><path d="M113.244 187.873l-17.627-.08a7.017 7.017 0 0 0-7.05 6.987l24.644.11.033-7.017z" fill="#461F0B"/><path d="M99.354 189.591c.242.262.714.22 1.054-.092.339-.313.418-.778.175-1.042l-2.187-2.374c-.241-.262-.714-.222-1.053.091-.341.313-.419.78-.179 1.041l2.19 2.376zM97.548 190.184c.244.261.713.221 1.054-.092.337-.314.418-.78.176-1.042l-2.189-2.374c-.242-.262-.713-.222-1.05.09-.342.312-.421.78-.179 1.042l2.188 2.376z" fill="#FCAF17"/><path d="M89.768 186.545L72.55 183.95a6.936 6.936 0 0 0-7.895 5.821l24.082 3.632 1.031-6.857z" fill="#28160E"/><path d="M76.13 186.47c.197.291.665.32 1.042.061.377-.257.518-.702.321-.992l-1.8-2.636c-.2-.29-.667-.318-1.04-.061-.38.257-.524.702-.325.993l1.802 2.636zM74.279 186.792c.2.29.665.318 1.042.06.376-.257.52-.701.321-.993l-1.799-2.635c-.2-.29-.666-.318-1.044-.06-.375.257-.52.703-.322.992l1.802 2.636z" fill="#AE8112"/><path d="M166.737 74.816c1.895 0 3.43-1.358 3.43-3.034V64.13c0-1.676-1.535-3.033-3.43-3.033v13.72zM131.278 75.113c-2.076 0-3.76-1.359-3.76-3.034v-7.654c0-1.675 1.684-3.032 3.76-3.032v13.72zM148.843 80.798c-3.357 0-5.716-1.796-5.716-3.956 0-2.162.538-4.066 5.716-3.871 5.003-.33 5.612 1.71 5.612 3.87 0 2.161-2.259 3.957-5.612 3.957m.016-8.696c-6.068-1.011-7.484 2.678-7.484 6.066 0 3.389 3.089 6.201 7.484 6.201 4.393 0 7.347-2.812 7.347-6.2 0-3.389-1.687-7.213-7.347-6.067" fill="#1F130F"/><path d="M99.275 122.436c-7.01 0-12.695 5.683-12.695 12.693h59.075c7.013 0 12.697-5.682 12.697-12.693H99.275z" fill="#07826B"/><path d="M123.85 122.436c-7.013 0-12.698 5.683-12.698 12.693h34.503c7.013 0 12.697-5.682 12.697-12.693H123.85z" fill="#00AE8E"/><path d="M113.113 188.846l-11.747-1.188c.074-.413 6.524-36.056 9.787-52.529l12.795-2.662c-3.25 16.4-10.758 55.966-10.835 56.379" fill="#00AE8E"/><path d="M89.75 187.262l-11.35-2.374c4.627-26.851 7.772-47.216 8.315-50.539l12.197-.893c-.536 3.303-4.518 26.877-9.162 53.806" fill="#07826B"/><path d="M155.428 127.36c-.15 0-.3-.003-.451-.01l-33.661-1.98a4.16 4.16 0 0 1-3.908-4.395 4.162 4.162 0 0 1 4.396-3.905l33.32 1.96 2.975-17.044a4.157 4.157 0 0 1 8.192 1.429l-3.033 17.38c-.656 3.76-4.047 6.566-7.83 6.566" fill="#7F3D28"/><path d="M156.507 105.18a5.267 5.267 0 0 1-.167-1.688l.511-8.03a5.303 5.303 0 0 1 10.583.675l-.513 8.03a5.227 5.227 0 0 1-.26 1.314l-10.154-.301zM154.815 88.834a1.205 1.205 0 0 0-.853.316l-4.092 4.199c-.193.198-.14.442.117.543l2.334.916a.534.534 0 0 0 .674-.276l2.312-5.176c.114-.253-.02-.48-.295-.504l-.197-.018z" fill="#EF933B"/></g><path d="M216.757 83.879c-4.843 11.498-18.088 16.895-29.589 12.054a22.487 22.487 0 0 1-11.518-10.875c-.2-.412-.568-1.251-1.682-1.455l-3.611-.781c-1.176-.255-1.348-1.045-.377-1.759l2.395-1.76c1.057-.647 1.073-1.881 1.033-2.386a22.475 22.475 0 0 1 1.702-10.566c4.842-11.496 18.09-16.892 29.59-12.053 11.5 4.84 16.9 18.084 12.057 29.58" fill="#16A386"/><path fill="#FFF" d="M187.952 80.052l-1.694-.098-1.337-4.072-1.763 3.892-1.808-.104-1.406-8.426 2.06.12.744 5.185 1.54-3.389 1.601.093 1.169 3.42 1.33-4.94 1.945.112zM194.683 73.578c-1.363-.079-1.928.75-2.034 2.58-.106 1.819.36 2.706 1.722 2.785 1.373.08 1.926-.75 2.032-2.568.106-1.83-.359-2.718-1.72-2.797m-.407 7.012c-2.963-.171-3.932-1.88-3.777-4.557.156-2.7 1.315-4.274 4.279-4.103 2.964.172 3.933 1.87 3.776 4.57-.154 2.676-1.314 4.262-4.278 4.09M207.323 81.174l-1.694-.098-1.336-4.072-1.764 3.892-1.808-.105-1.406-8.426 2.06.12.743 5.185 1.54-3.389 1.602.094 1.168 3.419 1.331-4.939 1.946.112zM212.098 78.925l-1.465-.084.027-5.818 2.072.12-.634 5.782zm-.888 2.645c-.733-.042-1.007-.46-.973-1.043.038-.664.411-.963 1.087-.924.674.039 1.023.37.984 1.044-.041.71-.468.96-1.098.923zM43.01 10.815c15.787 0 28.587 12.795 28.587 28.579a28.455 28.455 0 0 1-7.03 18.764c-.383.439-1.182 1.277-.875 2.675l.864 4.594c.281 1.498-.558 2.085-1.87 1.304l-3.226-1.925c-1.273-.918-2.722-.33-3.29-.037a28.474 28.474 0 0 1-13.16 3.202c-15.788 0-28.586-12.794-28.586-28.577 0-15.784 12.798-28.579 28.586-28.579"/><path d="M15.8 36.093h-1.176v1.773h1.102c.724 0 1.154-.304 1.154-.87 0-.599-.378-.903-1.08-.903m-.42-2.854h-.756v1.385h.65c.977 0 1.113-.399 1.113-.692 0-.472-.262-.693-1.007-.693m.598 6.128h-3.243v-7.628h2.98c1.764 0 2.634.472 2.634 1.794 0 .965-.524 1.437-1.111 1.647 1.06.2 1.585.808 1.585 1.994 0 1.27-.84 2.193-2.845 2.193M22.357 34.918c-.608 0-.913.304-.976 1.133h1.785c0-.83-.305-1.133-.809-1.133zm-.976 2.318c.074.683.567.945 1.091.945.483 0 .956-.241 1.166-.377l.787 1.132c-.41.253-1.06.588-2.162.588-1.638 0-2.655-.913-2.655-2.907 0-1.7.681-2.938 2.696-2.938 1.764 0 2.477 1.019 2.477 2.613v.944h-3.4zM32.001 39.367v-3.243c0-.818-.105-.997-.43-.997-.284 0-.714.242-1.008.515v3.725h-1.7v-3.243c0-.818-.105-.997-.44-.997-.273 0-.747.263-.998.515v3.725h-1.7v-5.53h1.542v.546c.39-.336 1.092-.703 1.743-.703.777 0 1.134.336 1.323.734.472-.389 1.133-.734 1.805-.734 1.228 0 1.564.828 1.564 1.951v3.736h-1.7zM39.954 39.367h-1.187l-2.109-5.53h1.722l1.028 3.127 1.029-3.128h1.637zM43.94 33.292c-.608 0-1.018-.274-1.018-.861 0-.588.431-.85 1.019-.85.388 0 1.008.147 1.008.85 0 .577-.389.86-1.008.86zm-.734 6.075v-4.292h-.818v-1.238h2.519v5.53h-1.7zM49.408 39.367v-3.253c0-.808-.147-.987-.504-.987-.325 0-.787.263-1.09.515v3.725h-1.702v-5.53h1.543v.535c.535-.409 1.165-.692 1.816-.692 1.07 0 1.637.587 1.637 1.94v3.747h-1.7zM55.62 35.149a1.679 1.679 0 0 0-.903-.262c-.588 0-.955.461-.955 1.742 0 1.279.367 1.689.996 1.689.315 0 .672-.179.861-.42v-2.75zm.157 4.218v-.462a2.32 2.32 0 0 1-1.554.62c-1.459 0-2.225-1.103-2.225-2.875 0-2.005.872-2.97 2.351-2.97.525 0 .987.157 1.27.294v-2.235h1.7v7.628h-1.542zM61.023 35.023c-.577 0-.997.283-.997 1.594 0 1.27.41 1.564.997 1.564.577 0 .987-.304.987-1.564 0-1.3-.41-1.594-.987-1.594m0 4.501c-2.31 0-2.76-1.563-2.76-2.907 0-1.374.44-2.937 2.76-2.937 2.298 0 2.75 1.563 2.75 2.937 0 1.344-.462 2.907-2.75 2.907" fill="#434041"/><g transform="translate(11 43.08)"><mask id="t" fill="#fff"><use xlink:href="#s"/></mask><path fill="#ED8B0C" mask="url(#t)" d="M5.826 6.457v4.073H3.323V6.638L0 .424H2.71l1.933 3.74L6.66.423h2.503z"/></g><path d="M23.4 47.856c-.766 0-1.321.375-1.321 2.113 0 1.68.542 2.07 1.32 2.07.765 0 1.308-.402 1.308-2.07 0-1.725-.543-2.113-1.307-2.113m0 5.963c-3.06 0-3.658-2.071-3.658-3.85 0-1.821.584-3.892 3.658-3.892 3.045 0 3.643 2.07 3.643 3.892 0 1.779-.612 3.85-3.643 3.85M32.796 53.61v-.708c-.71.542-1.543.917-2.406.917-1.418 0-2.169-.778-2.169-2.572v-4.962h2.253v4.31c0 1.07.195 1.306.667 1.306.431 0 1.044-.348 1.446-.682v-4.934h2.253v7.325h-2.044zM39.105 53.819c-1.39 0-2.557-.418-3.184-1.487l1.572-.96c.362.57 1.001.806 1.612.806.543 0 1.14-.097 1.14-.583 0-.279-.305-.459-.805-.584-1.516-.375-3.24-.695-3.24-2.614 0-1.695 1.529-2.32 3.072-2.32 1.308 0 2.337.458 2.976 1.389l-1.57.946c-.28-.418-.78-.696-1.447-.696s-.974.209-.974.556c0 .347.46.515 1.724.82 1.099.264 2.323.723 2.323 2.322 0 1.807-1.516 2.405-3.199 2.405M46.917 47.716c-.806 0-1.21.403-1.293 1.502h2.364c0-1.099-.403-1.502-1.07-1.502zm-1.293 3.073c.098.903.751 1.251 1.446 1.251.64 0 1.266-.32 1.544-.501l1.042 1.502c-.542.333-1.404.778-2.864.778-2.169 0-3.518-1.21-3.518-3.85 0-2.253.904-3.892 3.574-3.892 2.336 0 3.281 1.348 3.281 3.46v1.252h-4.505zM56.133 48.509a2.922 2.922 0 0 0-.765-.084c-.71 0-1.349.348-1.738.737v4.449h-2.252v-7.326h2.043v1.223c.39-.529 1.14-1.335 2.17-1.335.264 0 .612.042.806.139l-.264 2.197zM58.773 53.819c-.89 0-1.252-.487-1.252-1.196 0-.805.431-1.195 1.252-1.195.82 0 1.265.376 1.265 1.195 0 .863-.501 1.196-1.265 1.196zm.89-3.267h-1.78l-.376-7.048h2.516l-.36 7.048z" fill="#ED8B0C"/></g></svg>