<svg width="127" height="38" viewBox="0 0 127 38" xmlns="http://www.w3.org/2000/svg"><title>EEDA9B00-94F6-4D00-B2A5-287A5A23ECDC</title><g fill="none" fill-rule="evenodd"><path d="M106.924 9.028c2.627 0 4.729 1.54 5.395 3.977h-10.707c.794-2.433 2.804-3.977 5.312-3.977zm4.561 10.049c-.919 1.657-2.718 2.432-4.56 2.432-2.533.058-4.771-1.655-5.399-4.133H117.8c.794-8.265-4.476-13.048-10.836-13.048-6.065.003-11.06 4.948-11.06 10.997 0 6.048 4.979 10.9 11.047 10.9 4.38 0 7.723-1.925 9.483-4.97l-4.949-2.178zM85.033 26.216c-5.48 0-9.523-2.798-10.209-7.292h5.605c.752 1.783 2.955 2.433 4.597 2.433 2.217 0 3.891-.663 3.891-1.863s-.752-1.657-4.518-2.227c-3.848-.567-8.994-1.58-8.994-6.24 0-3.282 2.956-6.686 9.194-6.686 4.926 0 8.62 2.595 9.33 6.526H88.21c-.328-.974-1.546-1.743-3.612-1.743-2.55 0-3.612.891-3.612 1.657 0 1.094 1.59 1.458 4.27 1.866 5.355.852 9.193 1.989 9.193 6.526 0 4.133-3.94 7.05-9.453 7.05M63.351 26.216c-6.025 0-9.581-3.852-9.581-9.32V4.858h5.523v12.197c0 1.177.42 3.977 4.058 3.977 2.427 0 4.184-1.657 4.184-3.977V4.858h5.523v12.035c0 5.302-3.849 9.32-9.707 9.32" fill="#6B7B84"/><path d="M51.931 32.616c0-2.692-2.147-4.266-4.794-4.266h-12.1c-2.65 0-4.794 1.574-4.794 4.266h21.691-.003zM46.379 15.355c0-3.606-2.384-6.118-5.313-6.118-2.93 0-5.313 2.512-5.313 6.118 0 3.526 2.384 5.965 5.313 5.965s5.313-2.429 5.313-5.965m5.565-.04c0 6.24-4.896 10.9-10.878 10.9-5.983 0-10.833-4.66-10.833-10.89 0-6.052 4.861-10.959 10.857-10.959 5.997 0 10.857 4.907 10.857 10.959" fill="#FCAF17"/><path fill="#6B7B84" d="M22.829 26.173H17.44V18.91L8 4.858h6.039l6.074 8.697 6.12-8.697h6.036l-9.44 14.053z"/></g></svg>