<?xml version="1.0" encoding="UTF-8" standalone="no"?>
<svg width="480px" height="480px" viewBox="0 0 480 480" version="1.1" xmlns="http://www.w3.org/2000/svg" xmlns:xlink="http://www.w3.org/1999/xlink">
    <!-- Generator: sketchtool 39.1 (31720) - http://www.bohemiancoding.com/sketch -->
    <title>3202514A-5F98-4B53-8139-8623F84E8612</title>
    <desc>Created with sketchtool.</desc>
    <defs>
        <polygon id="path-1" points="34.7429052 0.621 0.89409477 0.621 0.89409477 34.4702052 34.7429052 34.4702052 34.7429052 0.621"></polygon>
    </defs>
    <g id="Icon-Coberturas-" stroke="none" stroke-width="1" fill="none" fill-rule="evenodd">
        <g id="Icones_Coberturas_Vida" transform="translate(-1313.000000, -115.000000)">
            <g id="Group-11" transform="translate(1353.000000, 155.000000)">
                <path d="M400.909,200.455 C400.909,311.163 311.162,400.91 200.454,400.91 C89.746,400.91 0,311.163 0,200.455 C0,89.747 89.746,0 200.454,0 C311.162,0 400.909,89.747 400.909,200.455" id="Fill-1" fill="#EEEEED"></path>
                <g id="Page-1" transform="translate(36.000000, 26.000000)">
                    <path d="M107.2043,277.0482 C98.3253,277.1082 91.1773,284.3552 91.2383,293.2332 C91.2983,302.1122 98.5453,309.2602 107.4233,309.2002 C116.3013,309.1392 123.4503,301.8932 123.3903,293.0142 C123.3293,284.1362 116.0823,276.9872 107.2043,277.0482" id="Fill-1" fill="#361471"></path>
                    <path d="M31.1166,137.6691 C45.0816,137.5731 56.3256,126.1751 56.2306,112.2111 C56.1346,98.2461 44.7366,87.0021 30.7726,87.0981 C16.8076,87.1921 5.5636,98.5901 5.6586,112.5551 C5.7536,126.5201 17.1516,137.7641 31.1166,137.6691" id="Fill-3" fill="#361471"></path>
                    <path d="M294.3453,200.3603 C285.7613,200.4183 278.8503,207.4243 278.9093,216.0083 C278.9673,224.5913 285.9733,231.5023 294.5573,231.4443 C303.1403,231.3853 310.0513,224.3793 309.9933,215.7963 C309.9343,207.2123 302.9283,200.3013 294.3453,200.3603" id="Fill-5" fill="#361471"></path>
                    <g id="Group-9" transform="translate(0.000000, 4.379000)" fill="#361471">
                        <path d="M331.5959,165.0702 C331.5919,164.5512 331.5869,164.0402 331.5799,163.5402 C331.4319,154.1452 321.8869,148.5032 313.1359,151.9242 C300.7609,156.7612 287.0899,152.3032 276.8379,146.9302 C271.0919,143.9192 266.4869,139.3672 262.9779,134.0062 C268.2649,128.8042 274.8849,124.4882 282.7099,123.9042 C290.6129,123.3152 295.8609,115.5302 292.5609,108.3242 C292.3999,107.9752 292.2369,107.6202 292.0689,107.2602 C291.9009,106.9012 291.7349,106.5482 291.5699,106.2022 C288.1659,99.0432 278.8279,98.0672 273.3009,103.7472 C268.5249,108.6532 262.1529,111.0272 255.6999,112.0322 C255.5179,108.1432 255.8279,104.2372 256.9399,100.4332 C260.1979,89.2842 266.5199,76.1872 278.6889,70.6062 C287.2619,66.6752 289.8909,55.8182 283.2249,49.1482 C282.9019,48.8242 282.5729,48.4962 282.2369,48.1662 C281.8999,47.8332 281.5679,47.5082 281.2409,47.1902 C274.4799,40.6162 263.6599,43.3932 259.8469,52.0182 C254.9439,63.1042 243.8099,69.4812 233.5019,73.1202 C226.4369,75.6142 218.9129,75.7392 211.7299,73.9632 C211.8979,66.7112 213.6509,59.2202 218.7089,53.4562 C223.8789,47.5632 221.8859,38.3842 214.5379,35.6542 C214.1689,35.5172 213.7929,35.3792 213.4099,35.2382 C213.0369,35.1042 212.6699,34.9722 212.3079,34.8432 C204.8399,32.1892 197.5469,38.1002 197.6539,46.0252 C197.7439,52.6582 195.0559,58.6342 191.3909,63.7982 C187.5419,60.5152 184.2929,56.5692 182.0289,51.9412 C177.2279,42.1292 173.8079,29.8372 178.1259,18.5282 C181.4519,9.8152 175.4279,0.4022 166.1009,0.3992 C165.6319,0.4002 165.1559,0.4012 164.6709,0.4042 C164.1979,0.4072 163.7339,0.4122 163.2769,0.4192 C153.8479,0.5502 148.1609,10.1652 151.5629,18.9612 C154.9309,27.6702 153.7099,37.0132 150.8149,45.3522 C147.5409,54.7832 140.6479,62.6372 131.8249,67.1302 C127.2669,61.9762 123.7409,55.7022 123.4569,48.4302 C123.1609,40.8602 114.8359,36.2712 107.9489,39.4282 C107.5929,39.5922 107.2309,39.7602 106.8619,39.9312 C106.5029,40.0992 106.1489,40.2662 105.8019,40.4302 C98.6449,43.8352 97.6679,53.1722 103.3479,58.7002 C107.7839,63.0172 110.1599,68.6392 111.3189,74.4452 C105.2059,75.4452 98.9469,75.0082 93.1089,72.6782 C83.5969,68.8802 74.0679,62.6282 69.7969,52.3702 C66.3309,44.0492 55.1449,42.3782 48.7709,48.7522 C48.4399,49.0822 48.1059,49.4202 47.7659,49.7632 C47.4339,50.0992 47.1089,50.4312 46.7909,50.7592 C40.2159,57.5202 42.9939,68.3392 51.6189,72.1532 C58.4679,75.1832 63.5169,80.5892 67.2329,86.7102 C73.3369,96.7632 74.1269,109.1682 69.7479,120.0082 C69.6479,119.9992 66.5719,132.0212 61.1139,139.0692 C56.0399,146.6952 48.2369,152.3252 39.1889,154.5622 C32.4119,156.2392 25.2229,156.5082 18.3809,153.9692 C9.5399,150.6882 0.0039,156.5052 -0.0001,165.9362 C-0.0001,166.3922 0.0009,166.8572 0.0049,167.3292 C0.0079,167.8102 0.0129,168.2832 0.0199,168.7472 C0.1579,178.0662 9.6259,183.9992 18.2829,180.5482 C24.2539,178.1662 30.5349,177.9662 36.5939,179.0032 C49.2569,181.1672 59.9249,189.9862 64.6539,201.8922 C59.9609,205.5522 54.4569,208.2472 48.2009,208.5352 C40.5599,208.8872 35.8419,217.0952 39.0289,224.0492 C39.1929,224.4072 39.3609,224.7692 39.5329,225.1372 C39.6999,225.4972 39.8669,225.8502 40.0319,226.1972 C40.2359,226.6262 40.4629,227.0312 40.7079,227.4142 C44.5439,233.4452 53.1039,233.9902 58.2999,228.6512 C58.3549,228.5952 58.4149,228.5462 58.4709,228.4902 L58.4709,228.4902 C61.3429,225.5972 64.7739,223.6002 68.4459,222.2502 C68.4939,222.2332 68.5439,222.2192 68.5919,222.2012 C69.1559,221.9972 69.7239,221.8042 70.2979,221.6292 C70.9239,221.4392 71.5549,221.2652 72.1889,221.1072 C72.7229,223.5402 72.9919,226.0162 73.0379,228.4902 L73.0519,228.4902 C73.1739,235.0622 71.5649,241.6272 68.1149,247.3802 C64.3669,253.6312 59.2199,259.1262 52.1579,262.1252 C43.7789,265.6822 41.9159,276.7922 48.3519,283.2292 C48.6829,283.5592 49.0189,283.8942 49.3639,284.2332 C49.6999,284.5652 50.0309,284.8902 50.3599,285.2082 C57.1199,291.7822 67.9399,289.0052 71.7539,280.3802 C75.1939,272.6032 81.6979,267.1472 88.8329,263.3292 C98.3149,258.2532 111.4479,256.1852 129.8189,264.2212 C134.7589,266.4732 149.2079,273.7902 153.6359,290.8482 C155.8289,298.4292 156.3919,306.6342 153.2879,314.3512 C149.8869,322.8012 156.3929,331.9982 165.5009,332.0002 C165.9679,332.0002 166.4459,331.9982 166.9299,331.9952 C167.4019,331.9912 167.8669,331.9872 168.3229,331.9812 C177.7529,331.8492 183.4399,322.2332 180.0379,313.4382 C176.0059,303.0102 178.5529,291.6752 182.6729,282.2422 C186.0119,274.5972 192.1459,268.7992 199.4859,264.9472 C204.0009,269.9602 207.5689,276.0512 208.0949,283.1072 C208.6849,291.0102 216.4689,296.2602 223.6759,292.9582 C224.0239,292.7982 224.3789,292.6352 224.7379,292.4672 C225.0979,292.2992 225.4519,292.1332 225.7969,291.9672 C232.9549,288.5642 233.9329,279.2262 228.2529,273.6982 C223.6539,269.2232 221.2569,263.3452 220.1449,257.3122 C226.7649,256.5742 233.5779,257.6202 239.8259,260.2712 C248.5909,263.9912 257.1609,269.8582 261.3929,279.0882 C265.3239,287.6602 276.1809,290.2892 282.8509,283.6242 C283.1739,283.3022 283.5019,282.9722 283.8339,282.6362 C284.1659,282.2992 284.4909,281.9682 284.8089,281.6402 C291.3839,274.8792 288.6059,264.0592 279.9809,260.2452 C268.7119,255.2612 262.3099,243.8422 258.7019,233.3942 C258.1449,231.7802 257.7209,230.1412 257.3969,228.4902 L257.4249,228.4902 C256.9039,225.8332 256.6619,223.1422 256.7019,220.4512 C256.7039,220.3502 256.7049,220.2492 256.7069,220.1472 C256.7269,219.2792 256.7719,218.4122 256.8519,217.5462 C256.8679,217.3762 256.8969,217.1042 256.9449,216.7412 C256.9609,216.6202 256.9799,216.4892 256.9999,216.3482 C257.4689,213.1142 259.1299,204.7952 264.1289,196.7742 C265.2159,195.0302 266.4609,193.3002 267.8849,191.6402 C270.8439,188.2692 274.3269,185.3762 278.3889,183.2702 C288.5619,177.9952 301.7879,173.8802 313.8349,178.6662 C322.3419,182.0472 331.5889,175.6532 331.5999,166.4982 C331.6009,166.0312 331.5999,165.5542 331.5959,165.0702" id="Fill-7"></path>
                    </g>
                    <g id="Group-12" transform="translate(219.000000, 0.379000)">
                        <mask id="mask-2" fill="white">
                            <use xlink:href="#path-1"></use>
                        </mask>
                        <g id="Clip-11"></g>
                        <path d="M17.9335,34.4698 C8.5865,34.5338 0.9575,27.0078 0.8945,17.6608 C0.8305,8.3128 8.3555,0.6838 17.7035,0.6208 C27.0495,0.5568 34.6785,8.0828 34.7425,17.4298 C34.8065,26.7768 27.2805,34.4058 17.9335,34.4698" id="Fill-10" fill="#F7B400" mask="url(#mask-2)"></path>
                    </g>
                    <path d="M164.8005,4.783 L164.6705,4.783 C164.1985,4.787 163.7335,4.792 163.2775,4.798 C153.8475,4.929 148.1605,14.545 151.5625,23.34 C154.9305,32.049 153.7095,41.392 150.8145,49.731 C147.5405,59.162 140.6485,67.016 131.8245,71.509 C127.2665,66.355 123.7415,60.081 123.4565,52.809 C123.1615,45.239 114.8365,40.651 107.9495,43.807 C107.5925,43.971 107.2305,44.139 106.8625,44.31 C106.5025,44.478 106.1485,44.645 105.8025,44.81 C98.6445,48.214 97.6675,57.551 103.3485,63.079 C107.7835,67.397 110.1595,73.019 111.3195,78.824 C105.2065,79.825 98.9475,79.387 93.1095,77.057 C83.5975,73.259 74.0675,67.008 69.7965,56.749 C66.3315,48.428 55.1455,46.758 48.7705,53.131 C48.4395,53.461 48.1055,53.799 47.7655,54.142 C47.4345,54.478 47.1085,54.81 46.7905,55.138 C40.2165,61.899 42.9935,72.718 51.6185,76.532 C58.4685,79.562 63.5175,84.968 67.2335,91.089 C73.3365,101.142 74.1265,113.547 69.7475,124.387 C69.6475,124.378 66.5725,136.401 61.1145,143.449 C56.0395,151.074 48.2365,156.704 39.1885,158.942 C32.4115,160.618 25.2225,160.887 18.3815,158.348 C9.5405,155.067 0.0035,160.884 0.0005,170.315 C0.0005,170.771 0.0015,171.237 0.0045,171.708 C0.0085,172.189 0.0135,172.662 0.0195,173.127 C0.1575,182.445 9.6255,188.378 18.2825,184.927 C24.2545,182.545 30.5355,182.345 36.5935,183.382 C49.2575,185.547 59.9245,194.366 64.6535,206.272 C59.9605,209.931 54.4565,212.626 48.2015,212.915 C40.5595,213.266 35.8415,221.475 39.0295,228.428 C39.1935,228.786 39.3605,229.148 39.5325,229.516 C39.6995,229.876 39.8675,230.229 40.0315,230.576 C43.4355,237.733 52.7735,238.71 58.3005,233.031 C62.1565,229.069 67.0515,226.765 72.1895,225.486 C74.1415,234.381 72.8645,243.839 68.1145,251.759 C64.3665,258.01 59.2195,263.505 52.1575,266.504 C43.7795,270.061 41.9165,281.171 48.3525,287.608 C48.6835,287.938 49.0195,288.273 49.3635,288.612 C49.6995,288.944 50.0315,289.269 50.3595,289.587 C57.1205,296.161 67.9405,293.384 71.7535,284.76 C75.1935,276.982 81.6975,271.527 88.8325,267.708 C98.3155,262.632 111.4475,260.564 129.8185,268.6 C134.7585,270.852 149.2075,278.169 153.6355,295.227 C155.8285,302.808 156.3915,311.013 153.2875,318.73 C149.9745,326.962 156.0635,335.898 164.8005,336.357 L164.8005,4.783 Z" id="Fill-13" fill="#3F1281"></path>
                    <path d="M188.4026,150.2764 C186.3146,159.0934 177.4746,164.5484 168.6586,162.4614 C159.8416,160.3734 154.3856,151.5334 156.4746,142.7164 C158.5616,133.8994 167.4016,128.4444 176.2186,130.5324 C185.0356,132.6204 190.4896,141.4594 188.4026,150.2764" id="Fill-15" fill="#CDE6E1"></path>
                    <path d="M227.7081,185.6093 C225.2561,195.9643 214.8741,202.3713 204.5201,199.9193 C194.1641,197.4673 187.7581,187.0853 190.2101,176.7303 C192.6621,166.3753 203.0441,159.9683 213.3991,162.4203 C223.7541,164.8723 230.1601,175.2543 227.7081,185.6093" id="Fill-17" fill="#92CBC3"></path>
                    <path d="M179.9117,206.7546 C176.0307,223.1466 159.5947,233.2886 143.2027,229.4066 C126.8097,225.5256 116.6677,209.0906 120.5497,192.6986 C124.4307,176.3066 140.8657,166.1646 157.2587,170.0456 C173.6507,173.9266 183.7927,190.3616 179.9117,206.7546" id="Fill-19" fill="#05836B"></path>
                </g>
            </g>
        </g>
    </g>
</svg>