<svg width="480" height="480" viewBox="0 0 480 480" xmlns="http://www.w3.org/2000/svg"><title>DE50D4A6-1A0C-4BB7-9005-72E87CEED31A</title><g fill="none" fill-rule="evenodd"><path d="M440.909 240.455c0 110.708-89.747 200.455-200.455 200.455C129.746 440.91 40 351.163 40 240.455 40 129.747 129.746 40 240.454 40c110.708 0 200.455 89.747 200.455 200.455" fill="#EEEEED"/><path d="M322.5 373.126H160.08c-12.556 0-22.83-10.273-22.83-22.829V138.14c0-12.557 10.274-22.83 22.83-22.83H322.5c12.557 0 22.83 10.273 22.83 22.83v212.157c0 12.556-10.273 22.829-22.83 22.829" fill="#F7B400"/><path d="M303.966 291.417H185.933c-3.912 0-7.112-3.2-7.112-7.112 0-3.91 3.2-7.11 7.112-7.11h118.033c3.91 0 7.112 3.2 7.112 7.11 0 3.912-3.201 7.112-7.112 7.112" fill="#FFF"/><path d="M298.35 262.83H184.23a3.827 3.827 0 0 1-3.815-3.816v-98.737a3.828 3.828 0 0 1 3.816-3.817H298.35a3.829 3.829 0 0 1 3.817 3.817v98.737c0 2.1-1.718 3.817-3.817 3.817" fill="#3F1281"/><path d="M294.28 263.34c0-13.025-10.557-23.583-23.58-23.583h-59.504c-13.022 0-23.581 10.558-23.581 23.583H294.28zM264.149 202.194c0 13.652-11.067 24.718-24.718 24.718-13.652 0-24.72-11.066-24.72-24.718s11.068-24.718 24.72-24.718c13.65 0 24.718 11.066 24.718 24.718M303.966 323.417h-125.35c-3.911 0-7.112-3.2-7.112-7.112 0-3.91 3.2-7.11 7.112-7.11h125.35c3.91 0 7.112 3.2 7.112 7.11 0 3.912-3.201 7.112-7.112 7.112M303.966 350.917h-125.35c-3.911 0-7.112-3.2-7.112-7.112 0-3.91 3.2-7.11 7.112-7.11h125.35c3.91 0 7.112 3.2 7.112 7.11 0 3.912-3.201 7.112-7.112 7.112" fill="#FFF"/><path d="M139.287 341.844c-6.873-6.873-7.072-17.922-.44-24.552L316.61 139.527c6.631-6.631 17.68-6.432 24.553.44 6.873 6.875 7.072 17.923.441 24.554L163.84 342.285c-6.63 6.63-17.68 6.432-24.552-.441" fill="#05836B"/><path d="M320.842 115.3h-79.747v257.826h79.747c13.47 0 24.488-10.782 24.488-23.96V139.262c0-13.18-11.019-23.961-24.488-23.961" fill="#D9D9D9" style="mix-blend-mode:multiply"/><path d="M244.958 140.892h-7.336c-10.84 0-19.709-8.869-19.709-19.71V99.71c0-10.84 8.87-19.709 19.71-19.709h7.335c10.84 0 19.71 8.87 19.71 19.71v21.472c0 10.841-8.87 19.71-19.71 19.71" fill="#F19800"/><path d="M244.958 80h-3.863v60.892h3.863c10.841 0 19.71-8.869 19.71-19.709V99.71c0-10.84-8.869-19.709-19.71-19.709" fill="#D9D9D9" style="mix-blend-mode:multiply"/></g></svg>