<svg viewBox="1263 892 118 118" version="1.1" xmlns="http://www.w3.org/2000/svg" xmlns:xlink="http://www.w3.org/1999/xlink">
    <!-- Generator: Sketch 40.2 (33826) - http://www.bohemiancoding.com/sketch -->
    <desc>Created with Sketch.</desc>
    <defs>
        <polygon id="path-1" points="0.133566584 87.6907731 88.1200753 87.6907731 88.1200753 0.266073815 0.133566584 0.266073815 0.133566584 87.6907731"></polygon>
        <polygon id="path-3" points="9.70101247 14.2438653 9.70101247 0.10034414 0.114292269 0.10034414 0.114292269 14.2438653 9.70101247 14.2438653"></polygon>
        <polygon id="path-5" points="0 0.291036447 0 49.1822529 86.4262309 49.1822529 86.4262309 0.291036447"></polygon>
        <polygon id="path-7" points="11.0669092 0.219226933 0.0218880528 0.219226933 0.0218880528 11.4167809 11.0669092 11.4167809 11.0669092 0.219226933"></polygon>
    </defs>
    <g id="responsa" stroke="none" stroke-width="1" fill="none" fill-rule="evenodd" transform="translate(1263.000000, 892.000000)">
        <path d="M117.973369,58.9867875 C117.973369,91.564204 91.5640274,117.973546 58.986611,117.973546 C26.4091945,117.973546 0.00014713217,91.564204 0.00014713217,58.9867875 C0.00014713217,26.4093711 26.4091945,2.94264339e-05 58.986611,2.94264339e-05 C91.5640274,2.94264339e-05 117.973369,26.4093711 117.973369,58.9867875" id="Fill-1" fill="#EEEEED"></path>
        <g id="Page-1" transform="translate(14.124688, 11.476309)">
            <g id="Group-3" transform="translate(1.177057, 4.194738)">
                <mask id="mask-2" fill="white">
                    <use xlink:href="#path-1"></use>
                </mask>
                <g id="Clip-2"></g>
                <path d="M88.1200753,43.9784529 C88.1200753,68.1201935 68.423786,87.6908319 44.1269681,87.6908319 C19.8301501,87.6908319 0.133566584,68.1201935 0.133566584,43.9784529 C0.133566584,19.8367122 19.8301501,0.266073815 44.1269681,0.266073815 C68.423786,0.266073815 88.1200753,19.8367122 88.1200753,43.9784529" id="Fill-1" fill="#F6C09A" mask="url(#mask-2)"></path>
            </g>
            <path d="M45.5008,62.2776045 C40.1766753,62.1784374 35.6920868,65.9785671 34.8066454,71.034617 C34.6577476,71.8853352 35.3307302,72.6601332 36.194396,72.6542479 L54.0547701,72.5368364 C54.8925406,72.5312454 55.5310943,71.7944075 55.4316329,70.9628165 C54.8289796,65.930602 50.8458175,62.3773601 45.5008,62.2776045" id="Fill-4" fill="#FFFFFF"></path>
            <path d="M39.3381985,55.9999162 C39.3381985,53.6090185 41.2894653,51.6709935 43.6944878,51.6709935 L46.9125626,51.6709935 C49.3199392,51.6709935 51.2697347,53.6090185 51.2697347,55.9999162 L39.3381985,55.9999162 Z" id="Fill-6" fill="#EC9E6A"></path>
            <path d="M23.4609601,44.5924943 C21.0682968,44.5924943 19.0449352,43.0258309 18.3713641,40.8679905 C18.2171696,41.3629431 18.1350698,41.8905591 18.1350698,42.4352424 C18.1350698,45.3581701 20.5189052,47.726998 23.4609601,47.726998 C26.4027207,47.726998 28.7880274,45.3581701 28.7880274,42.4352424 C28.7880274,41.8905591 28.7032793,41.3629431 28.5493791,40.8679905 C27.876985,43.0258309 25.8533292,44.5924943 23.4609601,44.5924943" id="Fill-8" fill="#633B8F"></path>
            <path d="M63.9728319,70.9509282 L75.8255052,58.5485691 C76.4455202,57.8997162 77.477211,57.8732324 78.1301835,58.4894219 L81.951206,62.0944544 C82.6038843,62.7103496 82.6306623,63.7358608 82.0106474,64.3844195 L70.1582683,76.7867786 C69.5382534,77.4356314 68.5062683,77.4621152 67.8532958,76.84622 L64.0325676,73.2411875 C63.379595,72.624998 63.352817,71.599781 63.9728319,70.9509282" id="Fill-10" fill="#EEEEED"></path>
            <polygon id="Fill-12" fill="#C7C7C6" points="68.3546633 67.7869097 72.8719152 63.0601416 77.6289925 67.5485556 73.1117406 72.2753237"></polygon>
            <g id="Group-16" transform="translate(84.453865, 21.262070)">
                <mask id="mask-4" fill="white">
                    <use xlink:href="#path-3"></use>
                </mask>
                <g id="Clip-15"></g>
                <path d="M7.47531471,7.9604389 L6.50218254,7.37661845 L7.1148409,6.41555112 C8.4755192,4.28007481 7.83667132,1.45278304 5.68736459,0.10034414 L2.55815761,5.0104389 L2.5004818,4.97571571 L0.861723691,7.67264838 L0.114292269,8.84529177 L0.139304738,8.86118204 L0.119589027,8.89384539 L1.65888579,9.81724688 L4.00593815,11.2938653 L4.03742444,11.2444289 L9.03726983,14.2438653 C10.3523372,12.0801397 9.65287082,9.26697257 7.47531471,7.9604389" id="Fill-14" fill="#F7B400" mask="url(#mask-4)"></path>
            </g>
            <path d="M65.8214005,33.1231885 C65.4173756,32.5158269 65.384418,31.7033631 65.8040389,31.0492135 C66.3728519,30.1617122 67.5575601,29.9006998 68.4506524,30.4659815 L76.7130065,35.6962359 C77.606393,36.2600464 77.8682883,37.4379865 77.2997696,38.325782 C76.7306623,39.2132833 75.5459541,39.4742958 74.6528618,38.9084254 L66.390802,33.6787596 C66.1562733,33.5304504 65.9652958,33.3397671 65.8214005,33.1231885" id="Fill-17" fill="#633B8F"></path>
            <path d="M18.6358783,39.2041022 C17.7221875,39.4436334 16.7478783,38.9798728 16.376811,38.0873691 C15.9733746,37.1151197 16.4397835,36.0016234 17.4179182,35.6008354 L26.4739032,31.8901621 C27.4593945,31.4884913 28.5737736,31.9519576 28.9775042,32.9247955 C29.3809406,33.8973392 28.9145317,35.0105411 27.9361027,35.4116234 L18.8801177,39.1222968 C18.799195,39.1552544 18.7179781,39.1826209 18.6358783,39.2041022" id="Fill-19" fill="#633B8F"></path>
            <path d="M68.4810499,44.5924943 C66.0883865,44.5924943 64.0650249,43.0258309 63.3914539,40.8679905 C63.2372594,41.3629431 63.1551596,41.8905591 63.1551596,42.4352424 C63.1551596,45.3581701 65.538995,47.726998 68.4810499,47.726998 C71.4228105,47.726998 73.8081172,45.3581701 73.8081172,42.4352424 C73.8081172,41.8905591 73.7233691,41.3629431 73.5694688,40.8679905 C72.8970748,43.0258309 70.873419,44.5924943 68.4810499,44.5924943" id="Fill-21" fill="#633B8F"></path>
            <g id="Group-25" transform="translate(0.000000, 3.017681)">
                <mask id="mask-6" fill="white">
                    <use xlink:href="#path-5"></use>
                </mask>
                <g id="Clip-24"></g>
                <path d="M86.4262309,26.9638239 C76.3753382,4.46996359 49.9345102,-5.80662993 27.1716923,4.01473666 C8.85138304,11.9195596 -1.51378404,30.442617 0.179707232,49.1822529 L86.4262309,26.9638239 Z" id="Fill-23" fill="#F7B400" mask="url(#mask-6)"></path>
            </g>
            <path d="M85.2758928,27.6027307 C84.937783,26.9509352 84.5861372,26.3103217 84.2200723,25.6814788 L23.6819526,8.71743392 C13.6319426,14.1021771 6.37038155,22.8547756 2.70473067,32.9236185 L85.2758928,27.6027307 Z" id="Fill-26" fill="#F19800"></path>
            <g id="Group-30" transform="translate(81.216958, 0.075037)">
                <mask id="mask-8" fill="white">
                    <use xlink:href="#path-7"></use>
                </mask>
                <g id="Clip-29"></g>
                <path d="M4.36335162,0.393666833 L6.40054364,2.14748229 C6.5782793,2.30049975 6.82075312,2.35670424 7.04821945,2.29814564 L9.65716708,1.62486883 C10.2306883,1.47685387 10.7259352,2.04625536 10.4955262,2.58858454 L9.44617955,5.05569676 C9.35466334,5.27109825 9.37555611,5.51739751 9.50238404,5.71426035 L10.9531072,7.97156209 C11.2717955,8.46769177 10.8798354,9.11183641 10.2895411,9.06151721 L7.60379052,8.83257955 C7.36926185,8.81256958 7.14002993,8.90849975 6.99054364,9.08888379 L5.27821945,11.1572678 C4.90185536,11.6119062 4.16442893,11.4403501 4.02995012,10.8671232 L3.41935162,8.25846983 C3.36608978,8.03070923 3.2033616,7.84385137 2.98442893,7.75822045 L0.475531172,6.77920299 C-0.0759201995,6.56409576 -0.139775561,5.81401596 0.36753616,5.5100409 L2.67574564,4.12670424 C2.87731671,4.00605586 3.00591022,3.79477406 3.02003491,3.56142244 L3.1818803,0.887736658 C3.21748628,0.300090773 3.9154813,0.00818054863 4.36335162,0.393666833" id="Fill-28" fill="#E46454" mask="url(#mask-8)"></path>
            </g>
            <path d="M72.9920633,28.1045102 C72.949395,28.1045102 72.9058439,28.0968594 72.8631756,28.0806748 C72.682203,28.0100514 72.5924524,27.8067147 72.6636643,27.6260364 L73.832188,24.6607347 C73.8563177,24.5998219 73.897809,24.5465601 73.9507766,24.5077172 L77.0087716,22.255418 L75.1899237,18.1883905 C75.1107666,18.0118319 75.1911007,17.8043756 75.3688364,17.725807 L79.3278688,15.9772883 L77.4310409,11.7375277 C77.3930808,11.6527796 77.3904324,11.5562608 77.4242728,11.4694529 C77.457819,11.3823506 77.524617,11.31261 77.6099536,11.2749441 L81.7790908,9.43402643 C81.957415,9.35604638 82.1654599,9.43490923 82.244617,9.61205636 C82.3237741,9.78861496 82.2431456,9.99607132 82.0657042,10.0746399 L78.2190808,11.7731337 L80.1156145,16.0128943 C80.1535746,16.0976424 80.1565172,16.1941611 80.1226768,16.2809691 C80.0888364,16.3680713 80.0220384,16.437812 79.9367017,16.4754778 L75.9776693,18.2239965 L77.7685621,22.2274628 C77.8353601,22.3772434 77.7891606,22.553802 77.6561531,22.6509092 L74.452203,25.010615 L73.3204623,27.8820464 C73.2663177,28.0203506 73.1324274,28.1045102 72.9920633,28.1045102" id="Fill-31" fill="#7D7D7C"></path>
            <g id="Group-35" transform="translate(45.610973, 3.311945)" fill-opacity="0.5" fill="#D4D4D4" opacity="0.5">
                <path d="M46.3182075,25.9105636 L45.3450753,25.3267431 L45.9577337,24.3656758 C47.318412,22.2301995 46.6795641,19.4029077 44.5302574,18.0504688 L41.4010504,22.9605636 L41.3433746,22.9258404 L40.0506713,25.0530773 C39.7608209,24.4674913 39.4600828,23.8901446 39.1478683,23.3225087 C39.1472798,23.3213317 39.1466913,23.3201546 39.1461027,23.3189776 C38.9704269,22.9997007 38.7918085,22.6833666 38.6093646,22.3699751 L38.6090703,22.3696808 C30.5006165,8.43832419 15.6638085,0.199216958 0.0898683292,0.00264837905 L0.0898683292,88.5685636 C24.2036539,88.356399 43.6863072,68.8710973 43.6863072,44.861187 C43.6863072,38.6981147 42.3997835,32.8343092 40.0836289,27.5166584 L40.5017786,27.7673716 L42.8488309,29.24399 L42.8803172,29.1945536 L47.8801626,32.19399 C49.1952299,30.0302643 48.4957636,27.2170973 46.3182075,25.9105636" id="Fill-33" style="mix-blend-mode: multiply;"></path>
            </g>
        </g>
    </g>
</svg>