<svg width="482" height="480" viewBox="0 0 482 480" xmlns="http://www.w3.org/2000/svg"><title>BE2B3406-2E70-4ABC-ABEA-0868E7B86FE4</title><defs><path id="a" d="M304.703 305.99H0V.813h304.703z"/></defs><g fill="none" fill-rule="evenodd"><path d="M441.909 236.455c0 110.708-89.747 200.455-200.455 200.455C130.746 436.91 41 347.163 41 236.455 41 125.747 130.746 36 241.454 36c110.708 0 200.455 89.747 200.455 200.455" fill="#EEEEED"/><path d="M366.472 186.661c0-.434.059-17.007.12-36.762-21.346-29.37-52.899-50.811-89.443-59.103-.408 25.951-1.322 94.984-1.322 95.867l-.604 69.18-75.237 18.53c-18.654 4.51-33.75 20.177-33.93 43.385h-.017c0 .073.009.145.009.22 0 .073-.01.145-.01.22h.018c.089 11.476 3.616 21.866 9.283 29.616h161.784l-.015-.07c15.833-.721 28.555-15.798 29.355-34.677l.01.004v-.223c.02-.552.069-1.094.069-1.653 0-.557-.05-1.1-.07-1.652V186.661z" fill="#F6C09A"/><path d="M188.82 278.689l23.823 69.125h58.522l-23.367-85.865-47.812 12.424a46.186 46.186 0 0 0-11.166 4.316" fill="#F19800"/><path fill="#F7B400" d="M247.635 262.112l7.315 85.796 73.59-.093-53.703-91.878z"/><path d="M375.566 211.388c-4.731 2.721-10.268 1.96-12.366-1.698-2.097-3.659.039-8.831 4.77-11.552 4.732-2.721 13.898-4.098 17.506-.755 3.352 3.106-5.178 11.283-9.91 14.005" fill="#F19800"/><path d="M366.856 224.667c-4.842-2.52-7.192-7.597-5.249-11.341 1.942-3.745 7.442-4.736 12.283-2.217 4.841 2.521 10.948 9.505 10.086 14.352-.8 4.503-12.279 1.725-17.12-.794" fill="#F19800"/><path d="M374.911 211.699c.218-.109.44-.188.656-.311 4.731-2.722 13.261-10.9 9.91-14.005-3.608-3.344-12.776-1.966-17.507.755-4.732 2.721-6.867 7.893-4.769 11.551.243.425.541.8.87 1.146-1.04.602-1.908 1.42-2.464 2.49-1.943 3.745.407 8.822 5.249 11.342 4.84 2.52 16.32 5.297 17.12.794.802-4.512-4.432-10.87-9.065-13.762" fill-opacity=".5" fill="#BDBDBD" style="mix-blend-mode:multiply" opacity=".5"/><path fill="#F19800" d="M275.797 196.32l-.38 37.196 91.055 6.755v-49.887z"/><path d="M366.463 313.066l.01.004v-.222c.02-.551.069-1.094.069-1.652 0-.557-.049-1.1-.07-1.652v-30.506l-91.027-48.726-.222 25.53-.524.128.014 1.405 52.868 90.44h9.541l-.014-.072c15.833-.72 28.555-15.796 29.355-34.677" fill="#F19800"/><path fill="#F7B400" d="M275.493 215.114l-.063 21.601 91.042 57.448v-65.277z"/><path d="M366.472 186.662c0-.439-.012-17.158-.035-36.98-13.761-18.865-31.742-34.443-52.551-45.35l.096 243.482h23.14l-.014-.07c15.833-.721 28.555-15.798 29.355-34.678l.01.005v-.223c.02-.552.069-1.094.069-1.652 0-.558-.05-1.1-.07-1.653V186.662z" fill-opacity=".5" fill="#BDBDBD" style="mix-blend-mode:multiply" opacity=".5"/><path d="M169.606 242.066a22.812 22.812 0 0 0-.352 3.578l-1.327 112.139c-.127 10.73 7.214 19.6 16.314 19.707 9.099.108 16.648-8.583 16.776-19.313l1.328-112.14a22.738 22.738 0 0 0-.267-3.585l-32.472-.386z" fill="#05836B"/><path d="M221.556 119.183l-44.348 151.773a2.922 2.922 0 0 0 1.973 3.613l10.3 3.019a2.916 2.916 0 0 0 3.607-1.978l44.348-151.773a2.92 2.92 0 0 0-1.974-3.612l-10.299-3.02a2.916 2.916 0 0 0-3.607 1.978" fill="#05836B"/><path d="M229.782 139.662l-10.298-3.018a2.915 2.915 0 0 0-3.608 1.977l-4.953 16.952h17.24l3.592-12.298a2.921 2.921 0 0 0-1.973-3.613" fill-opacity=".5" fill="#BDBDBD" style="mix-blend-mode:multiply" opacity=".5"/><path d="M152.61 116.822l43.528 163.222a1.316 1.316 0 0 1-.928 1.604l-13.455 3.6a1.314 1.314 0 0 1-1.604-.93l-43.527-163.222a1.313 1.313 0 0 1 .927-1.603l13.455-3.599a1.314 1.314 0 0 1 1.605.928" fill="#05836B"/><path fill-opacity=".5" fill="#BDBDBD" style="mix-blend-mode:multiply" opacity=".5" d="M146.043 156.414h17.126l-6.435-24.13h-17.127z"/><path d="M263.693 141.024c.223-18.88-14.876-34.365-33.725-34.59l-86.121-1.022c-18.848-.224-34.31 14.898-34.533 33.78l154.379 1.832z" fill="#633B8F"/><path d="M189.261 105.951v34.19l74.432.883c.223-18.88-14.876-34.366-33.725-34.589l-40.707-.484z" fill-opacity=".5" fill="#BDBDBD" style="mix-blend-mode:multiply" opacity=".5"/></g></svg>