<svg width="480" height="480" viewBox="0 0 480 480" xmlns="http://www.w3.org/2000/svg" xmlns:xlink="http://www.w3.org/1999/xlink"><title>C0B1024D-5C35-4943-B5AB-C67461E45BA4</title><defs><path d="M273.795 40.57A151.895 151.895 0 0 0 245.035.64H28.81A151.906 151.906 0 0 0 .05 40.57h273.745z" id="a"/><path d="M171.622 27.118C147.2 10.62 117.703.978 85.938.978c-31.764 0-61.26 9.642-85.682 26.14h171.366z" id="c"/><path d="M.226 35.123l42.85.801V7.774A34.607 34.607 0 0 0 22.117.75 34.596 34.596 0 0 0 .226 8.524v26.6z" id="e"/></defs><g fill="none" fill-rule="evenodd"><path d="M440.91 240.455c0 110.708-89.748 200.455-200.456 200.455C129.746 440.91 40 351.163 40 240.455 40 129.747 129.746 40 240.454 40c110.709 0 200.455 89.747 200.455 200.455" fill="#EEEEED"/><path d="M389.62 242.227c0 82.183-66.71 148.807-149.001 148.807-82.292 0-149.005-66.624-149.005-148.807 0-82.183 66.713-148.807 149.005-148.807 82.291 0 149.002 66.624 149.002 148.807" fill="#F6C19A"/><path d="M245.162 293.44c-19.194-.359-35.041 14.921-35.4 34.127l69.51 1.299c.357-19.206-14.913-35.066-34.11-35.425" fill="#FEFEFE"/><path d="M385.087 193.794C364.663 134.035 307.7 91.03 240.62 91.03c-67.08 0-124.047 43.005-144.471 102.764h288.94z" fill="#E46555"/><g transform="translate(103.695 135.015)"><mask id="b" fill="#fff"><use xlink:href="#a"/></mask><path d="M-24.695 27.221c0 4.544.717 9.002 2.074 13.35h319.088c1.358-4.348 2.074-8.806 2.074-13.35 0-9.295-2.954-18.233-8.398-26.582h-306.44c-5.444 8.35-8.398 17.287-8.398 26.582" fill="#B8483C" mask="url(#b)"/></g><g transform="translate(154.679 90.053)"><mask id="d" fill="#fff"><use xlink:href="#c"/></mask><path d="M-64.486 13.769c0 4.543.717 9.002 2.074 13.349h319.088c1.358-4.347 2.074-8.806 2.074-13.35 0-9.294-2.953-18.232-8.398-26.58h-306.44c-5.444 8.348-8.398 17.286-8.398 26.58" fill="#B8483C" mask="url(#d)"/></g><g fill="#ECEEF0"><path d="M135.595 190.299l20.445-24.582M315.31 165.698l26.869 17.32"/></g><g transform="translate(222.384 292.684)"><mask id="f" fill="#fff"><use xlink:href="#e"/></mask><path fill="#D0D3D2" mask="url(#f)" d="M.226 35.567h6.002V-1.136H.226zM17.9 35.567h6.002V-1.136h-6.003zM37.074 40.92h6.003V-1.136h-6.003z"/></g><path d="M241.622 391.32c82.751-.541 149.67-67.835 149.67-150.763 0-82.932-66.919-150.22-149.67-150.761v301.523z" fill-opacity=".3" fill="#D8D8D8" style="mix-blend-mode:multiply"/><g><path d="M79 239.859c0 8.114.717 16.072 2.074 23.832h319.088a138.166 138.166 0 0 0 2.074-23.832c0-16.596-2.954-32.555-8.398-47.461H87.398A137.969 137.969 0 0 0 79 239.858" fill="#3F1480"/><path d="M176.097 225.698c0-8.299-6.728-15.029-15.022-15.029-8.296 0-15.022 6.73-15.022 15.03 0 8.298 6.726 15.03 15.022 15.03 8.294 0 15.022-6.732 15.022-15.03M337.045 225.698c0-8.299-6.728-15.029-15.027-15.029-8.291 0-15.02 6.73-15.02 15.03 0 8.298 6.729 15.03 15.02 15.03 8.299 0 15.027-6.732 15.027-15.03" fill="#FEFEFE"/><path d="M148.46 168.864a6.26 6.26 0 0 1-.056-6.813 6.248 6.248 0 0 1 8.635-1.917l26.955 17.182c2.916 1.853 3.77 5.725 1.916 8.64a6.246 6.246 0 0 1-8.634 1.915l-26.959-17.183a6.184 6.184 0 0 1-1.856-1.824M305.555 209.864a6.26 6.26 0 0 1-3.973-11.84l29.546-12.19a6.246 6.246 0 0 1 8.168 3.4 6.259 6.259 0 0 1-3.398 8.168l-29.546 12.192a6.45 6.45 0 0 1-.797.27" fill="#F6B400"/><path d="M221.197 272.815c0-7.854 6.366-14.222 14.213-14.222h10.498c7.854 0 14.216 6.368 14.216 14.222h-38.927z" fill="#EC9F6A"/></g></g></svg>